# WaveFront *.obj file (generated by CINEMA 4D)

mtllib ./DodecagonShape_6.mtl

v -0.00696966890246 0.00876788049936 -0.01484189275652
v -0.00399484159425 0.01089008245617 -0.01488466747105
v -0.0000078585299 0.00760086532682 -0.01494199689478
v -0.00399337010458 0.01089113019407 -0.01488468889147
v -0.0000162034321 0.0076053715311 -0.01494187675416
v -0.00399189861491 0.01089217886329 -0.01488471031189
v -0.0000139732274 0.00760599086061 -0.01494190935045
v -0.00000522027131 0.00759815517813 -0.014942035079
v -0.00001566081301 0.00759990839288 -0.01494188420475
v -0.00001224762946 0.00760738737881 -0.01494193356484
v -0.000004082543 0.007600647863 -0.01494205091149
v -0.00696906307712 0.00876981299371 -0.01484190113842
v -0.00696666259319 0.0087726842612 -0.01484193559736
v -0.00001840201912 0.00760567840189 -0.0149418450892
v -0.00399631308392 0.01088903378695 -0.01488464698195
v 0 0.00759727833793 -0.01494210958481
v -0.00001044054261 0.00759903155267 -0.01494195964187
v -0.00001377675744 0.00760356709361 -0.01494191214442
v -0.00001180271829 0.00760134216398 -0.0149419400841
v -0.000008165086 0.00760401785374 -0.01494199223816
v -0.00001672971666 0.00760421808809 -0.01494186930358
v -0.00696800416335 0.00877145398408 -0.01484191697091
v -0.00001573636837 0.00760212726891 -0.01494188327342
v -0.00001080271977 0.00760353310034 -0.01494195405394
v -0.00696972757578 0.00876585580409 -0.0148418918252
v -0.00001645696648 0.00759783620015 -0.01494187302887
v -0.00696926284581 0.0087639587 -0.01484189834446
v -0.00001225315827 0.00759489554912 -0.01494193356484
v -0.00001487769623 0.00759172486141 -0.01494189631194
v -0.00001807874287 0.00759618449956 -0.01494184974581
v -0.0000124825965 0.00759729323909 -0.01494193077087
v -0.00001507506568 0.0075958352536 -0.01494189258665
v -0.00001795799471 0.00759492255747 -0.01494185160846
v -0.00485121877864 0.00579022895545 -0.01487235445529
v -0.0048522669822 0.00579170044512 -0.01487233862281
v -0.00002013620724 0.00759535096586 -0.01494181994349
v -0.00696839718148 0.0087623577565 -0.01484191138297
v -0.00485017010942 0.00578875700012 -0.01487236935645
v -0.00001605243415 0.00759360892698 -0.01494187861681
v -0.00000991846355 0.00759357586503 -0.01494196709245
v -0.00000495923177 0.00759542686865 -0.01494203880429
v -0.00000859911052 0.00759645504877 -0.01494198571891
v -0.00484912190586 0.00578728551045 -0.01487238425761
v -0.00001010811047 0.00758502911776 -0.01494196429849
v -0.00000942037241 0.00758908782154 -0.01494197454304
v -0.00000673874047 0.00758911203593 -0.01494201272726
v -0.00000336937023 0.00759319541976 -0.01494206115603
v -0.00484702549875 0.00578434206545 -0.01487241405994
v -0.00001206726211 0.00758607313037 -0.01494193635881
v -0.00329665653408 0.00360791035928 -0.01489470712841
v -0.00329560833052 0.00360643840395 -0.01489472202957
v -0.00001081777191 0.00759104918689 -0.01494195405394
v -0.00001233402327 0.00758849037811 -0.01494193263352
v -0.00329456012696 0.00360496691428 -0.01489473693073
v -0.00000703556634 0.00759226549417 -0.01494200900197
v -0.00001453107598 0.00758953206241 -0.01494190096855
v -0.00001510987022 0.00758729083464 -0.01494189258665
v -0.00329770497046 0.00360938184895 -0.01489469222724
v -0.00001647491626 0.0075855399482 -0.01494187302887
v -0.00484597682953 0.00578287057579 -0.01487242989242
v -0.00001437444098 0.00758625846356 -0.0149419028312
v -0.00484807370231 0.00578581355512 -0.01487239915878
v -0.00000871159409 0.00758330337703 -0.01494198478758
v -0.00000809232006 0.00758107285947 -0.01494199316949
v -0.00000406340587 0.00758547428995 -0.01494205184281
v -0.00117405410856 0.00062855356373 -0.01492522843182
v -0.00000625433358 0.0075864745304 -0.01494202017784
v -0.00000628808857 0.0075834998861 -0.01494201924652
v -0.00000693926904 0.00758054666221 -0.01494200993329
v -0.00000484867724 0.0075815403834 -0.01494203973562
v -0.00000175337686 0.00758683634922 -0.0149420844391
v -0.0000035868477 0.00758941890672 -0.01494205836207
v -0.00000263006541 0.00758161582053 -0.01494207233191
v -0.00329351169057 0.00360349542461 -0.01489475276321
v -0.00000087668843 0.00759205734357 -0.01494209747761
v -0.00329246348701 0.00360202346928 -0.01489476766437
v -0.00117241381668 0.00062749447534 -0.01492525171489
v -0.0011704810895 0.00062688905746 -0.01492527965456
v -0.00117528496776 0.00062989536673 -0.01492521073669
v -0.00000839918448 0.00757887447253 -0.0149419894442
v -0.00329141505063 0.00360055197962 -0.01489478256553
v 0.00000082296384 0.00758867803961 -0.014942121692
v 0.00000238234657 0.00758502399549 -0.01494214404374
v -0.00000001505211 0.00758479442447 -0.01494210958481
v 0.00000144273486 0.00758220162243 -0.01494213100523
v 0.00000555270344 0.00758239906281 -0.01494218967855
v -0.00116845639423 0.00062683026772 -0.01492530852556
v -0.00000055784778 0.00758081953973 -0.01494210213423
v 0.0000010935621 0.00757919764146 -0.01494212541729
v 0.00180980551522 0.00274765514769 -0.01496813260019
v 0.00000235527432 0.00757931824774 -0.01494214404374
v -0.00116656010505 0.00062729482306 -0.01492533553392
v 0.00180833414197 0.0027466067113 -0.01496811211109
v 0.0018068626523 0.00274555780925 -0.01496809069067
v 0.00000366910604 0.00758122419938 -0.0149421626702
v 0.00000370180214 0.00758735882118 -0.0149421626702
v 0.00000185090107 0.00759231857955 -0.01494213659316
v -0.00116495869588 0.00062816060381 -0.01492535881698
v 0.00000192710263 0.00757713988423 -0.01494213752449
v 0.0018053909298 0.00274450960569 -0.01496806927025
v 0.000008165086 0.00759053882211 -0.01494222693145
v 0.000011203756 0.00758520979434 -0.01494227070361
v 0.00001101872385 0.00758290244266 -0.01494226790965
v 0.00000998642463 0.00758216669783 -0.01494225300848
v 0.00000774537421 0.00758274551481 -0.01494222134352
v 0.000004082543 0.00759390834719 -0.01494216825813
v 0.00399189861491 0.0043023773469 -0.01499950978905
v 0.00399042712525 0.00430132914335 -0.01499948836863
v 0.00398895563558 0.00430028093979 -0.01499946694821
v 0.00000501226259 0.00759024173021 -0.01494218222797
v 0.00181127723772 0.00274870335124 -0.01496815402061
v 0.00001224762946 0.00758716883138 -0.01494228560477
v 0.0000081897515 0.0075878566131 -0.01494222786278
v 0.00000622826292 0.00758645916358 -0.01494219899178
v 0.00000878697665 0.00758494297042 -0.01494223624468
v 0.00181274849456 0.00274975178763 -0.01496817544103
v 0.00181421986781 0.00275080022402 -0.01496819686145
v 0.00001173702367 0.00758080137894 -0.01494227815419
v 0.00398748414591 0.00429923227057 -0.01499944552779
v 0.00001377675744 0.00759098958224 -0.01494230795652
v 0.00001080271977 0.00759102310985 -0.01494226511568
v 0.00001180271829 0.00759321451187 -0.01494227908552
v 0.00000522027131 0.00759640149772 -0.01494218502194
v 0.00001044054261 0.00759552465752 -0.01494225952774
v 0.00001573636837 0.00759242894128 -0.01494233589619
v 0.00001672971666 0.0075903381221 -0.01494235079736
v 0.0000162034321 0.00758918514475 -0.01494234241545
v 0.0000139732274 0.00758856581524 -0.01494231075048
v 0.00696800416335 0.00642310269177 -0.01504230313003
v 0.00696906307712 0.00642474321648 -0.01504231803119
v 0.00696966890246 0.00642667617649 -0.01504232641309
v 0.00399337010458 0.00430342601612 -0.01499953027815
v 0.00001566081301 0.00759464781731 -0.01494233496487
v 0.00399484159425 0.00430447421968 -0.01499955169857
v 0.0000078585299 0.00759369088337 -0.01494222320616
v 0.00399631308392 0.0043055228889 -0.01499957311898
v 0.00001840201912 0.00758887827396 -0.01494237408042
v 0.00696666259319 0.00642187194899 -0.01504228357226
v 0.00000859911052 0.00759810116142 -0.01494223345071
v 0.00001225315827 0.00759966066107 -0.01494228560477
v 0.0000124825965 0.0075972629711 -0.01494228933007
v 0.00001507506568 0.00759872095659 -0.01494232658297
v 0.00000495923177 0.00759912934154 -0.01494218129665
v 0.00000991846355 0.00760098034516 -0.01494225207716
v 0.00001605243415 0.00760094774887 -0.01494234055281
v 0.00001795799471 0.00759963365272 -0.01494236849248
v 0.00001807874287 0.00759837171063 -0.01494236942381
v 0.00001645696648 0.0075967204757 -0.01494234614074
v 0.00001487769623 0.00760283134878 -0.014942323789
v 0.00484912190586 0.00940727069974 -0.01501183584332
v 0.00485017010942 0.00940579921007 -0.01501185074449
v 0.00485121877864 0.0094043277204 -0.01501186564565
v 0.00696926284581 0.00643059751019 -0.01504232082516
v 0.00696972757578 0.00642870087177 -0.01504232734442
v 0.00696839718148 0.00643219891936 -0.01504230871797
v 0.00002013620724 0.00759920570999 -0.01494239922613
v 0.0048522669822 0.00940285529941 -0.01501188054681
v 0.00329770497046 0.01158517412841 -0.01498952787369
v 0.00001647491626 0.00760901626199 -0.01494234707206
v 0.00484597682953 0.00941168516874 -0.01501179020852
v 0.00001206726211 0.00760848307982 -0.01494228374213
v 0.00001437444098 0.00760829821229 -0.01494231633842
v 0.00001510987022 0.00760726584122 -0.01494232751429
v 0.00001453107598 0.00760502414778 -0.01494231913239
v 0.00000703556634 0.00760229118168 -0.01494221109897
v 0.00000942037241 0.00760546885431 -0.0149422455579
v 0.00001081777191 0.0076035070233 -0.01494226511568
v 0.00001233402327 0.00760606629774 -0.01494228746742
v 0.00484702549875 0.00941021367908 -0.01501180510968
v 0.00484807370231 0.00940874218941 -0.01501182001084
v 0.00000673874047 0.00760544417426 -0.01494220644236
v 0.00000336937023 0.00760136125609 -0.01494215801358
v 0.00329665653408 0.01158664561808 -0.01498951204121
v 0.00329560833052 0.01158811803907 -0.01498949714005
v 0.00329456012696 0.01158958952874 -0.01498948223889
v 0.00001010811047 0.00760952709243 -0.01494225487113
v 0.00117405410856 0.01456600241363 -0.01495899166912
v 0.00117241381668 0.01456706225872 -0.01495896838605
v 0.0011704810895 0.01456766761839 -0.01495894044638
v 0.00117528496776 0.01456466130912 -0.01495900936425
v 0.00000839918448 0.00761568220332 -0.01494223065674
v 0.00329141505063 0.01159400399774 -0.01498943753541
v 0.00000628808857 0.00761105632409 -0.0149421999231
v 0.00000625433358 0.00760808214545 -0.0149421999231
v 0.00000406340587 0.00760908192024 -0.01494216825813
v 0.0000035868477 0.00760513730347 -0.01494216173887
v 0.00000087668843 0.00760249886662 -0.01494212262332
v 0.00000175337686 0.00760771986097 -0.01494213473052
v 0.00000484867724 0.00761301629245 -0.014942179434
v 0.00000693926904 0.00761400954798 -0.01494220923632
v 0.00000809232006 0.00761348335072 -0.01494222600013
v 0.00000871159409 0.00761125283316 -0.01494223531336
v 0.00000263006541 0.00761294038966 -0.01494214776903
v 0.00329351169057 0.01159106101841 -0.01498946733773
v 0.00329246348701 0.01159253250808 -0.01498945243657
v -0.0018068626523 0.01244899816811 -0.01491612847894
v -0.00180833414197 0.01244794949889 -0.01491610798985
v -0.00180980551522 0.01244690082967 -0.01491608656943
v 0.00116845639423 0.01456772629172 -0.01495891064405
v -0.00000144273486 0.00761235458776 -0.01494208909571
v -0.0018053909298 0.01245004683733 -0.01491614989936
v -0.00000192710263 0.00761741632596 -0.01494208164513
v 0.00116495869588 0.01456639543176 -0.01495886035264
v 0.00000001505211 0.00760976225138 -0.01494210958481
v -0.00000238234657 0.00760953268036 -0.01494207512587
v -0.00000082296384 0.00760587817058 -0.01494209840894
v -0.00000185090107 0.0076022380963 -0.01494208350778
v -0.00000370180214 0.00760719785467 -0.01494205649942
v -0.00000366910604 0.00761333247647 -0.01494205743074
v -0.00000235527432 0.00761523796245 -0.0149420760572
v -0.0000010935621 0.00761535856873 -0.01494209375232
v 0.00000055784778 0.00761373667046 -0.01494211796671
v -0.00000555270344 0.00761215761304 -0.01494203042239
v 0.00116656010505 0.01456726156175 -0.0149588836357
v -0.00398895563558 0.0108942752704 -0.01488475222141
v -0.00399042712525 0.01089322753251 -0.01488473173231
v -0.00181127723772 0.01244585309178 -0.01491606514901
v -0.00000878697665 0.00760961370543 -0.01494198385626
v -0.00000622826292 0.00760809704661 -0.01494202017784
v -0.0000081897515 0.00760669959709 -0.01494199223816
v -0.00000501226259 0.00760431447998 -0.01494203787297
v -0.00398748414591 0.01089532393962 -0.01488477364182
v -0.00001173702367 0.00761375483125 -0.01494194101542
v -0.00181421986781 0.01244375575334 -0.01491602323949
v -0.000011203756 0.00760934688151 -0.014941948466
v -0.00001101872385 0.00761165423319 -0.01494195125997
v -0.00000998642463 0.00761238951236 -0.01494196616113
v -0.00000774537421 0.00761181069538 -0.01494199875742
v -0.00181274849456 0.01244480442256 -0.01491604465991
# 229 vertices

vn -0.01437753066421 0 -0.99989664554596
# 1 normal

vt 0.5 0 0
vt 0.49979940056801 0.00074875354767 0
vt 0.5 0.00126492977142 0
vt 0.50020062923431 0.00074875354767 0
vt 0.49990719556808 0.00265038013458 0
vt 0.23274311423302 0.99955117702484 0
vt 0.23298864066601 0.99944722652435 0
vt 0.5 0.00296187400818 0
vt 0.4993981719017 0.00224602222443 0
vt 0.23216597735882 0.99955552816391 0
vt 0.23246024549007 0.99959242343903 0
vt 0.49968913197517 0.00239098072052 0
vt 0.50040119886398 0.00149738788605 0
vt 0.50017631053925 0.00181925296783 0
vt 0.50031089782715 0.00239098072052 0
vt 0.5006018280983 0.00224602222443 0
vt 0.49982368946075 0.00181925296783 0
vt 0.5 0.00221741199493 0
vt 0.50009280443192 0.00265038013458 0
vt 0.69569498300552 0.73230755329132 0
vt 0.69592410326004 0.73217529058456 0
vt 0.69546586275101 0.73243981599808 0
vt 0.69615322351456 0.73204302787781 0
vt 0.49959877133369 0.00149738788605 0
vt 0.6958886384964 0.73204302787781 0
vt 0.30464044213295 0.73204302787781 0
vt 0.69535952806473 0.73204302787781 0
vt 0.30384680628777 0.73204302787781 0
vt 0.3041113615036 0.73204302787781 0
vt 0.69562411308289 0.73204302787781 0
vt 0.30437588691711 0.73204302787781 0
vt 0.76783400774002 0.99955552816391 0
vt 0.76753973960876 0.99959242343903 0
vt 0.76725691556931 0.99955117702484 0
vt 0.76701134443283 0.99944722652435 0
vt 0.30453410744667 0.73243981599808 0
vt 0.30430501699448 0.73230755329132 0
vt 0.30407589673996 0.73217529058456 0
# 38 texture coordinates

o DodecagonShape_web
usemtl Mat
f 16/1/1 8/2/1 3/3/1 11/4/1
f 21/5/1 22/6/1 13/7/1 14/8/1
f 9/9/1 1/10/1 12/11/1 23/12/1
f 23/12/1 12/11/1 22/6/1 21/5/1
f 20/13/1 24/14/1 7/15/1 10/16/1
f 24/14/1 3/3/1 19/17/1 18/18/1
f 5/19/1 2/20/1 4/21/1 7/15/1
f 13/7/1 15/22/1 14/8/1
f 14/8/1 15/22/1 2/20/1 5/19/1
f 7/15/1 4/21/1 6/23/1 10/16/1
f 18/18/1 19/17/1 23/12/1 21/5/1
f 19/17/1 17/24/1 9/9/1 23/12/1
f 3/3/1 8/2/1 17/24/1 19/17/1
f 11/4/1 3/3/1 24/14/1 20/13/1
f 7/15/1 24/14/1 18/18/1 5/19/1
f 5/19/1 18/18/1 21/5/1 14/8/1
f 30/5/1 27/6/1 25/11/1 26/12/1
f 26/12/1 25/11/1 1/10/1 9/9/1
f 31/17/1 42/3/1 28/14/1 32/18/1
f 17/24/1 31/17/1 26/12/1 9/9/1
f 28/14/1 40/13/1 29/16/1 39/15/1
f 16/1/1 41/4/1 42/3/1 8/2/1
f 35/22/1 37/7/1 36/8/1
f 32/18/1 28/14/1 39/15/1 33/19/1
f 30/5/1 32/18/1 33/19/1 36/8/1
f 42/3/1 41/4/1 40/13/1 28/14/1
f 29/16/1 43/23/1 38/21/1 39/15/1
f 39/15/1 38/21/1 34/20/1 33/19/1
f 36/8/1 37/7/1 27/6/1 30/5/1
f 33/19/1 34/20/1 35/22/1 36/8/1
f 8/2/1 42/3/1 31/17/1 17/24/1
f 26/12/1 31/17/1 32/18/1 30/5/1
f 40/13/1 52/14/1 56/15/1 29/16/1
f 45/17/1 46/24/1 44/9/1 49/12/1
f 55/3/1 47/2/1 46/24/1 45/17/1
f 41/4/1 55/3/1 52/14/1 40/13/1
f 56/15/1 62/25/1 43/23/1 29/16/1
f 58/26/1 60/27/1 59/8/1
f 57/19/1 53/18/1 61/5/1 59/8/1
f 16/1/1 47/2/1 55/3/1 41/4/1
f 56/15/1 52/14/1 53/18/1 57/19/1
f 53/18/1 45/17/1 49/12/1 61/5/1
f 44/9/1 54/28/1 51/29/1 49/12/1
f 52/14/1 55/3/1 45/17/1 53/18/1
f 59/8/1 60/27/1 48/30/1 57/19/1
f 57/19/1 48/30/1 62/25/1 56/15/1
f 49/12/1 51/29/1 50/31/1 61/5/1
f 61/5/1 50/31/1 58/26/1 59/8/1
f 47/2/1 72/3/1 67/17/1 46/24/1
f 73/16/1 78/32/1 77/33/1 70/15/1
f 70/15/1 77/33/1 66/34/1 69/19/1
f 69/19/1 66/34/1 79/35/1 80/8/1
f 79/35/1 81/36/1 80/8/1
f 72/3/1 75/4/1 71/13/1 65/14/1
f 16/1/1 75/4/1 72/3/1 47/2/1
f 64/5/1 76/37/1 74/38/1 63/12/1
f 63/12/1 74/38/1 54/28/1 44/9/1
f 65/14/1 71/13/1 73/16/1 70/15/1
f 80/8/1 81/36/1 76/37/1 64/5/1
f 64/5/1 68/18/1 69/19/1 80/8/1
f 63/12/1 67/17/1 68/18/1 64/5/1
f 68/18/1 65/14/1 70/15/1 69/19/1
f 67/17/1 72/3/1 65/14/1 68/18/1
f 46/24/1 67/17/1 63/12/1 44/9/1
f 71/13/1 84/14/1 88/15/1 73/16/1
f 83/17/1 96/24/1 86/9/1 95/12/1
f 82/3/1 97/2/1 96/24/1 83/17/1
f 100/36/1 98/35/1 99/8/1
f 86/9/1 90/28/1 93/38/1 95/12/1
f 95/12/1 93/38/1 94/37/1 91/5/1
f 91/5/1 94/37/1 100/36/1 99/8/1
f 89/19/1 92/34/1 87/33/1 88/15/1
f 75/4/1 82/3/1 84/14/1 71/13/1
f 88/15/1 87/33/1 78/32/1 73/16/1
f 84/14/1 82/3/1 83/17/1 85/18/1
f 85/18/1 83/17/1 95/12/1 91/5/1
f 88/15/1 84/14/1 85/18/1 89/19/1
f 16/1/1 97/2/1 82/3/1 75/4/1
f 89/19/1 85/18/1 91/5/1 99/8/1
f 99/8/1 98/35/1 92/34/1 89/19/1
f 104/5/1 115/18/1 103/19/1 118/8/1
f 105/12/1 114/17/1 115/18/1 104/5/1
f 119/27/1 117/26/1 118/8/1
f 112/16/1 107/23/1 108/25/1 102/15/1
f 102/15/1 108/25/1 109/30/1 103/19/1
f 103/19/1 109/30/1 119/27/1 118/8/1
f 104/5/1 116/31/1 111/29/1 105/12/1
f 105/12/1 111/29/1 90/28/1 86/9/1
f 115/18/1 113/14/1 102/15/1 103/19/1
f 16/1/1 106/4/1 110/3/1 97/2/1
f 97/2/1 110/3/1 114/17/1 96/24/1
f 114/17/1 110/3/1 113/14/1 115/18/1
f 96/24/1 114/17/1 105/12/1 86/9/1
f 113/14/1 101/13/1 112/16/1 102/15/1
f 110/3/1 106/4/1 101/13/1 113/14/1
f 118/8/1 117/26/1 116/31/1 104/5/1
f 127/19/1 120/18/1 126/5/1 137/8/1
f 138/7/1 136/22/1 137/8/1
f 101/13/1 121/14/1 128/15/1 112/16/1
f 122/17/1 124/24/1 133/9/1 125/12/1
f 135/3/1 123/2/1 124/24/1 122/17/1
f 106/4/1 135/3/1 121/14/1 101/13/1
f 121/14/1 135/3/1 122/17/1 120/18/1
f 120/18/1 122/17/1 125/12/1 126/5/1
f 128/15/1 132/21/1 107/23/1 112/16/1
f 16/1/1 123/2/1 135/3/1 106/4/1
f 133/9/1 131/10/1 130/11/1 125/12/1
f 127/19/1 134/20/1 132/21/1 128/15/1
f 126/5/1 129/6/1 138/7/1 137/8/1
f 128/15/1 121/14/1 120/18/1 127/19/1
f 137/8/1 136/22/1 134/20/1 127/19/1
f 125/12/1 130/11/1 129/6/1 126/5/1
f 157/22/1 155/7/1 156/8/1
f 149/16/1 150/23/1 151/21/1 145/15/1
f 145/15/1 151/21/1 152/20/1 146/19/1
f 146/19/1 152/20/1 157/22/1 156/8/1
f 147/5/1 153/6/1 154/11/1 148/12/1
f 147/5/1 142/18/1 146/19/1 156/8/1
f 148/12/1 141/17/1 142/18/1 147/5/1
f 142/18/1 140/14/1 145/15/1 146/19/1
f 141/17/1 139/3/1 140/14/1 142/18/1
f 124/24/1 141/17/1 148/12/1 133/9/1
f 140/14/1 144/13/1 149/16/1 145/15/1
f 139/3/1 143/4/1 144/13/1 140/14/1
f 123/2/1 139/3/1 141/17/1 124/24/1
f 156/8/1 155/7/1 153/6/1 147/5/1
f 148/12/1 154/11/1 131/10/1 133/9/1
f 16/1/1 143/4/1 139/3/1 123/2/1
f 164/15/1 170/25/1 150/23/1 149/16/1
f 163/19/1 169/30/1 170/25/1 164/15/1
f 163/19/1 168/18/1 162/5/1 159/8/1
f 164/15/1 167/14/1 168/18/1 163/19/1
f 168/18/1 166/17/1 161/12/1 162/5/1
f 167/14/1 165/3/1 166/17/1 168/18/1
f 144/13/1 167/14/1 164/15/1 149/16/1
f 166/17/1 171/24/1 176/9/1 161/12/1
f 162/5/1 173/31/1 158/26/1 159/8/1
f 165/3/1 172/2/1 171/24/1 166/17/1
f 143/4/1 165/3/1 167/14/1 144/13/1
f 158/26/1 160/27/1 159/8/1
f 159/8/1 160/27/1 169/30/1 163/19/1
f 16/1/1 172/2/1 165/3/1 143/4/1
f 176/9/1 175/28/1 174/29/1 161/12/1
f 161/12/1 174/29/1 173/31/1 162/5/1
f 193/16/1 179/32/1 178/33/1 189/15/1
f 189/15/1 178/33/1 177/34/1 190/19/1
f 190/19/1 177/34/1 180/35/1 181/8/1
f 191/5/1 195/37/1 194/38/1 192/12/1
f 192/12/1 194/38/1 175/28/1 176/9/1
f 191/5/1 183/18/1 190/19/1 181/8/1
f 192/12/1 184/17/1 183/18/1 191/5/1
f 183/18/1 185/14/1 189/15/1 190/19/1
f 184/17/1 186/3/1 185/14/1 183/18/1
f 171/24/1 184/17/1 192/12/1 176/9/1
f 180/35/1 182/36/1 181/8/1
f 185/14/1 188/13/1 193/16/1 189/15/1
f 186/3/1 187/4/1 188/13/1 185/14/1
f 172/2/1 186/3/1 184/17/1 171/24/1
f 16/1/1 187/4/1 186/3/1 172/2/1
f 181/8/1 182/36/1 195/37/1 191/5/1
f 213/9/1 198/28/1 197/38/1 209/12/1
f 209/12/1 197/38/1 196/37/1 210/5/1
f 210/5/1 196/37/1 201/36/1 202/8/1
f 211/19/1 214/34/1 199/33/1 212/15/1
f 212/15/1 199/33/1 179/32/1 193/16/1
f 211/19/1 200/18/1 210/5/1 202/8/1
f 212/15/1 204/14/1 200/18/1 211/19/1
f 200/18/1 205/17/1 209/12/1 210/5/1
f 204/14/1 206/3/1 205/17/1 200/18/1
f 201/36/1 203/35/1 202/8/1
f 188/13/1 204/14/1 212/15/1 193/16/1
f 205/17/1 208/24/1 213/9/1 209/12/1
f 206/3/1 207/2/1 208/24/1 205/17/1
f 187/4/1 206/3/1 204/14/1 188/13/1
f 16/1/1 207/2/1 206/3/1 187/4/1
f 202/8/1 203/35/1 214/34/1 211/19/1
f 228/12/1 217/29/1 198/28/1 213/9/1
f 227/5/1 229/31/1 217/29/1 228/12/1
f 226/19/1 215/30/1 222/27/1 223/8/1
f 225/15/1 216/25/1 215/30/1 226/19/1
f 10/16/1 6/23/1 216/25/1 225/15/1
f 227/5/1 218/18/1 226/19/1 223/8/1
f 228/12/1 219/17/1 218/18/1 227/5/1
f 218/18/1 220/14/1 225/15/1 226/19/1
f 222/27/1 224/26/1 223/8/1
f 219/17/1 221/3/1 220/14/1 218/18/1
f 208/24/1 219/17/1 228/12/1 213/9/1
f 220/14/1 20/13/1 10/16/1 225/15/1
f 221/3/1 11/4/1 20/13/1 220/14/1
f 207/2/1 221/3/1 219/17/1 208/24/1
f 16/1/1 11/4/1 221/3/1 207/2/1
f 223/8/1 224/26/1 229/31/1 227/5/1

