# WaveFront *.obj file (generated by CINEMA 4D)

mtllib ./DodecagonShape_2.mtl

v -0.0059882667847 0.01650056988001 -0.01498473808169
v -0.00242669554427 0.01731931790709 -0.01499014627188
v -0.00000588231433 0.01275227032602 -0.01499382313341
v -0.00242493418045 0.01731972023845 -0.01499014906585
v -0.00001186146528 0.01275963336229 -0.01499381382018
v -0.00242317304946 0.01732012443244 -0.01499015185982
v -0.00000956407166 0.01275934930891 -0.01499381754547
v -0.00000448520268 0.01274875551462 -0.01499382499605
v -0.00001345560759 0.01275437977165 -0.01499381102622
v -0.00000743458941 0.01275997795165 -0.01499382033944
v -0.00000247819639 0.01275062095374 -0.01499382779002
v -0.00598696619272 0.01650212146342 -0.01498473994434
v -0.00598364742473 0.01650385372341 -0.01498474553227
v -0.00001377439094 0.01276076026261 -0.01499381102622
v -0.00242845667526 0.0173189137131 -0.01499014347792
v 0 0.01274594292045 -0.01499383151531
v -0.00000897040536 0.0127515681088 -0.0149938184768
v -0.00001031226202 0.01275703590363 -0.01499381568283
v -0.00000934240234 0.01275422424078 -0.01499381754547
v -0.00000495639279 0.01275529991835 -0.01499382406473
v -0.00001278985474 0.01275877002627 -0.01499381195754
v -0.00598535872996 0.01650323159993 -0.01498474273831
v -0.00001267433527 0.01275645848364 -0.01499381195754
v -0.00000757835687 0.01275586429983 -0.01499382033944
v -0.00598909752443 0.01649872213602 -0.01498473715037
v -0.00001498584243 0.01275277137756 -0.01499380916357
v -0.00598939601332 0.01649679243565 -0.01498473621905
v -0.00001223101208 0.01274844352156 -0.01499381288886
v -0.00001587120823 0.01274652220309 -0.01499380730093
v -0.00001711721052 0.01275186799467 -0.01499380543828
v -0.00001152328696 0.01275074575096 -0.01499381382018
v -0.00001447692375 0.01275039371103 -0.01499381009489
v -0.00001748967588 0.012750656344 -0.01499380543828
v -0.00517374742776 0.01293802447617 -0.01498597487807
v -0.00517415069044 0.01293978653848 -0.01498597394675
v -0.00001933725071 0.01275188755244 -0.01499380264431
v -0.00598921068013 0.01649498008192 -0.01498473621905
v -0.00517334323376 0.01293626334518 -0.0149859758094
v -0.0000162336637 0.01274871267378 -0.01499380730093
v -0.00001058080488 0.01274632941931 -0.01499381568283
v -0.00000529040244 0.01274613663554 -0.01499382406473
v -0.00000825791813 0.01274848170578 -0.01499381940812
v -0.00517293950543 0.01293450221419 -0.0149859758094
v -0.00001403412807 0.01273850910366 -0.01499381009489
v -0.00001184233133 0.01274199318141 -0.01499381382018
v -0.00000935608568 0.01274098735303 -0.01499381754547
v -0.00000467804284 0.0127434656024 -0.01499382499605
v -0.00517213204876 0.01293097995222 -0.01498597767204
v -0.00001544319457 0.01274022459984 -0.01499380823225
v -0.0045749838464 0.01032628957182 -0.01498688384891
v -0.00457458011806 0.01032452844083 -0.01498688478023
v -0.0000123805612 0.0127443401143 -0.01499381288886
v -0.00001476250509 0.01274255849421 -0.01499380916357
v -0.00457417638972 0.01032276730984 -0.01498688571155
v -0.00000842081954 0.01274401322007 -0.0149938184768
v -0.00001639216862 0.01274436339736 -0.0149938063696
v -0.00001778641308 0.01274251565337 -0.01499380450696
v -0.00457538757473 0.01032805070281 -0.01498688384891
v -0.00001971871097 0.01274142228067 -0.01499380171299
v -0.00517172785476 0.01292921882123 -0.01498597767204
v -0.00001750315096 0.01274128071964 -0.01499380543828
v -0.00517253577709 0.0129327410832 -0.01498597674072
v -0.00001340622748 0.01273637916893 -0.01499381102622
v -0.00001368976154 0.01273408159614 -0.01499381102622
v -0.00000828050725 0.0127366008237 -0.01499381940812
v -0.00375728309155 0.00676057767123 -0.01498812623322
v -0.00000992047353 0.01273836474866 -0.01499381661415
v -0.0000110924866 0.0127356313169 -0.01499381475151
v -0.0000128266729 0.01273315306753 -0.01499381195754
v -0.00001051473373 0.01273326855153 -0.01499381568283
v -0.00000562441119 0.01273697335273 -0.01499382313341
v -0.00000632736919 0.01274006068707 -0.01499382220209
v -0.00000843661655 0.01273248810321 -0.0149938184768
v -0.00457377266139 0.01032100617886 -0.01498688571155
v -0.00000281220559 0.01274145860225 -0.01499382779002
v -0.00457336893305 0.01031924504787 -0.01498688664287
v -0.00375617435202 0.00675897020847 -0.01498812809587
v -0.00375462160446 0.00675767008215 -0.01498812995851
v -0.00375790521502 0.00676228897646 -0.0149881253019
v -0.00001481655818 0.01273216865957 -0.01499380916357
v -0.00457296520472 0.01031748391688 -0.0149868875742
v -0.00000253850521 0.0127376858145 -0.01499382779002
v -0.00000249992854 0.0127337127924 -0.01499382779002
v -0.00000480220433 0.01273441966623 -0.01499382406473
v -0.00000445024307 0.01273146644235 -0.01499382499605
v -0.000000578521 0.01273007225245 -0.01499383058399
v -0.00375277386047 0.00675683887675 -0.01498813275248
v -0.00000682809787 0.01273095794022 -0.01499382127076
v -0.0000059249478 0.01272882614285 -0.01499382220209
v -0.00018855868257 0.00757299829274 -0.01499354559928
v -0.00000471329804 0.01272845361382 -0.01499382406473
v -0.00375084439293 0.00675654038787 -0.01498813554645
v -0.00019031978445 0.00757259409875 -0.01499354280531
v -0.00019208116282 0.00757218990475 -0.01499354001135
v -0.0000027688593 0.01272970996797 -0.01499382779002
v -0.00000038568066 0.01273536216468 -0.01499383151531
v -0.00000019284033 0.01274065300822 -0.01499383151531
v -0.00374903320335 0.00675672572106 -0.01498813834041
v -0.00000594432095 0.01272660586983 -0.01499382220209
v -0.00019384251209 0.00757178664207 -0.01499353721738
v 0.00000495639279 0.01273658685386 -0.01499383896589
v 0.00000571892951 0.01273049972951 -0.01499383989722
v 0.00000466300207 0.0127284405753 -0.01499383896589
v 0.00000342745011 0.01272815652192 -0.01499383710325
v 0.00000157961586 0.01272955071181 -0.01499383430928
v 0.00000247819639 0.01274126488715 -0.0149938352406
v 0.00242317304946 0.00817176140845 -0.0149975111708
v 0.00242141191848 0.00817135814577 -0.01499750837684
v 0.00241965055466 0.00817095395178 -0.01499750558287
v 0.00000193054893 0.01273752283305 -0.01499383430928
v -0.0001867973333 0.00757340155542 -0.01499354839325
v 0.00000743458941 0.01273190882057 -0.01499384269118
v 0.00000395050483 0.01273410115391 -0.01499383803457
v 0.00000160281274 0.01273356284946 -0.01499383430928
v 0.00000338443715 0.01273118052632 -0.01499383710325
v -0.00018503624597 0.00757380528376 -0.01499355025589
v -0.00018327514408 0.00757420947775 -0.01499355304986
v 0.00000452069298 0.0127262249589 -0.01499383896589
v 0.00241788942367 0.0081705506891 -0.01499750372022
v 0.00001031226202 0.01273485086858 -0.0149938473478
v 0.00000757835687 0.01273602247238 -0.01499384269118
v 0.00000934240234 0.01273766253144 -0.01499384548515
v 0.00000448520268 0.01274313125759 -0.01499383803457
v 0.00000897040536 0.01274031866342 -0.01499384548515
v 0.00001267433527 0.01273542828858 -0.01499385107309
v 0.00001278985474 0.01273311674595 -0.01499385107309
v 0.00001186146528 0.01273225340992 -0.01499384921044
v 0.00000956407166 0.01273253746331 -0.01499384641647
v 0.00598535872996 0.00898865610361 -0.01500292122364
v 0.00598696619272 0.00898976437747 -0.01500292308629
v 0.0059882667847 0.00899131782353 -0.01500292494893
v 0.00242493418045 0.00817216560245 -0.01499751396477
v 0.00001345560759 0.01273750700057 -0.01499385200441
v 0.00242669554427 0.00817256886512 -0.01499751675874
v 0.00000588231433 0.0127396164462 -0.01499384082854
v 0.00242845667526 0.00817297305912 -0.01499751955271
v 0.00001377439094 0.01273112650961 -0.01499385293573
v 0.00598364742473 0.00898803398013 -0.01500291842967
v 0.00000825791813 0.01274340506643 -0.01499384455383
v 0.00001223101208 0.01274344325066 -0.01499385014176
v 0.00001152328696 0.01274114102125 -0.01499384921044
v 0.00001447692375 0.01274149306118 -0.01499385386705
v 0.00000529040244 0.01274575013667 -0.01499383989722
v 0.00001058080488 0.0127455573529 -0.0149938473478
v 0.0000162336637 0.01274317409843 -0.01499385666102
v 0.00001748967588 0.01274123042822 -0.01499385852367
v 0.00001711721052 0.01274001877755 -0.01499385759234
v 0.00001498584243 0.01273911539465 -0.01499385479838
v 0.00001587120823 0.01274536456913 -0.0149938557297
v 0.00517293950543 0.01255738455802 -0.01500168722123
v 0.00517334323376 0.01255562342703 -0.01500168722123
v 0.00517374742776 0.01255386229604 -0.01500168815255
v 0.00598939601332 0.00899509433657 -0.01500292681158
v 0.00598909752443 0.00899316463619 -0.01500292681158
v 0.00598921068013 0.00899690575898 -0.01500292681158
v 0.00001933725071 0.01273999921978 -0.01499386131763
v 0.00517415069044 0.01255210023373 -0.01500168908387
v 0.00457538757473 0.01516383606941 -0.01500078011304
v 0.00001971871097 0.01275046449155 -0.01499386131763
v 0.00517172785476 0.01256266795099 -0.01500168535858
v 0.00001544319457 0.01275166217238 -0.01499385479838
v 0.00001750315096 0.01275060605258 -0.01499385852367
v 0.00001778641308 0.01274937111884 -0.01499385852367
v 0.00001639216862 0.01274752337486 -0.01499385666102
v 0.00000842081954 0.01274787355214 -0.01499384455383
v 0.00001184233133 0.01274989359081 -0.01499384921044
v 0.0000123805612 0.0127475457266 -0.01499385014176
v 0.00001476250509 0.01274932734668 -0.01499385386705
v 0.00517213204876 0.01256090682 -0.01500168628991
v 0.00517253577709 0.01255914568901 -0.01500168628991
v 0.00000935608568 0.01275089941919 -0.01499384548515
v 0.00000467804284 0.01274842116982 -0.01499383896589
v 0.0045749838464 0.01516559720039 -0.01500077918172
v 0.00457458011806 0.01516735833138 -0.0150007782504
v 0.00457417638972 0.01516911946237 -0.0150007782504
v 0.00001403412807 0.01275337766856 -0.01499385293573
v 0.00375728309155 0.01873130910099 -0.01499953772873
v 0.00375617435202 0.01873291656375 -0.01499953586608
v 0.00375462160446 0.01873421669006 -0.01499953307211
v 0.00375790521502 0.01872959733009 -0.01499953866005
v 0.00001481655818 0.01275971811265 -0.01499385386705
v 0.00457296520472 0.01517440285534 -0.01500077638775
v 0.0000110924866 0.01275625545532 -0.01499384827912
v 0.00000992047353 0.01275352202356 -0.01499384641647
v 0.00000828050725 0.01275528594851 -0.01499384455383
v 0.00000632736919 0.01275182608515 -0.01499384082854
v 0.00000281220559 0.01275042816997 -0.01499383617193
v 0.00000562441119 0.01275491341949 -0.01499383989722
v 0.00001051473373 0.01275861728936 -0.0149938473478
v 0.0000128266729 0.01275873277336 -0.01499385107309
v 0.00001368976154 0.01275780517608 -0.01499385200441
v 0.00001340622748 0.01275550760329 -0.01499385200441
v 0.00000843661655 0.012759398669 -0.01499384455383
v 0.00457377266139 0.01517088059336 -0.01500077731907
v 0.00457336893305 0.01517264172435 -0.01500077638775
v 0.00019208116282 0.01791969686747 -0.01499412301928
v 0.00019031978445 0.01791929267347 -0.01499412022531
v 0.00018855868257 0.01791888847947 -0.01499411836267
v 0.00375277386047 0.0187350474298 -0.01499953027815
v 0.00000445024307 0.01276042032987 -0.01499383803457
v 0.00019384251209 0.01792010106146 -0.01499412581325
v 0.00000594432095 0.01276528090239 -0.01499384082854
v 0.00374903320335 0.01873516105115 -0.01499952469021
v 0.00000480220433 0.01275746710598 -0.01499383896589
v 0.00000249992854 0.01275817397982 -0.0149938352406
v 0.00000253850521 0.01275420095772 -0.0149938352406
v 0.00000019284033 0.01275123376399 -0.01499383151531
v 0.00000038568066 0.01275652460754 -0.01499383244663
v 0.0000027688593 0.01276217680424 -0.01499383617193
v 0.00000471329804 0.0127634331584 -0.01499383896589
v 0.0000059249478 0.01276306062937 -0.01499384082854
v 0.00000682809787 0.01276092883199 -0.01499384175986
v 0.000000578521 0.01276181451976 -0.01499383244663
v 0.00375084439293 0.01873534545302 -0.01499952748418
v -0.00241965055466 0.01732093282044 -0.01499015744776
v -0.00242141191848 0.01732052862644 -0.01499015465379
v 0.0001867973333 0.01791848428547 -0.0149941155687
v -0.00000338443715 0.0127607062459 -0.0149938268587
v -0.00000160281274 0.01275832392275 -0.01499382965267
v -0.00000395050483 0.01275778561831 -0.01499382592738
v -0.00000193054893 0.01275436393917 -0.01499382872134
v -0.00241788942367 0.01732133701444 -0.01499016024172
v -0.00000452069298 0.01276566181332 -0.01499382499605
v 0.00018327514408 0.01791767776012 -0.01499410998076
v -0.00000571892951 0.0127613870427 -0.01499382313341
v -0.00000466300207 0.01276344619691 -0.01499382499605
v -0.00000342745011 0.0127637302503 -0.0149938268587
v -0.00000157961586 0.01276233512908 -0.01499382965267
v 0.00018503624597 0.01791808195412 -0.01499411277473
# 229 vertices

vn -0.00151856150478 0 -0.99999886751175
# 1 normal

vt 0.5 0 0
vt 0.49979940056801 0.00074875354767 0
vt 0.5 0.00126492977142 0
vt 0.50020062923431 0.00074875354767 0
vt 0.49990719556808 0.00265038013458 0
vt 0.23274311423302 0.99955117702484 0
vt 0.23298864066601 0.99944722652435 0
vt 0.5 0.00296187400818 0
vt 0.4993981719017 0.00224602222443 0
vt 0.23216597735882 0.99955552816391 0
vt 0.23246024549007 0.99959242343903 0
vt 0.49968913197517 0.00239098072052 0
vt 0.50040119886398 0.00149738788605 0
vt 0.50017631053925 0.00181925296783 0
vt 0.50031089782715 0.00239098072052 0
vt 0.5006018280983 0.00224602222443 0
vt 0.49982368946075 0.00181925296783 0
vt 0.5 0.00221741199493 0
vt 0.50009280443192 0.00265038013458 0
vt 0.69569498300552 0.73230755329132 0
vt 0.69592410326004 0.73217529058456 0
vt 0.69546586275101 0.73243981599808 0
vt 0.69615322351456 0.73204302787781 0
vt 0.49959877133369 0.00149738788605 0
vt 0.6958886384964 0.73204302787781 0
vt 0.30464044213295 0.73204302787781 0
vt 0.69535952806473 0.73204302787781 0
vt 0.30384680628777 0.73204302787781 0
vt 0.3041113615036 0.73204302787781 0
vt 0.69562411308289 0.73204302787781 0
vt 0.30437588691711 0.73204302787781 0
vt 0.76783400774002 0.99955552816391 0
vt 0.76753973960876 0.99959242343903 0
vt 0.76725691556931 0.99955117702484 0
vt 0.76701134443283 0.99944722652435 0
vt 0.30453410744667 0.73243981599808 0
vt 0.30430501699448 0.73230755329132 0
vt 0.30407589673996 0.73217529058456 0
# 38 texture coordinates

o DodecagonShape_web
usemtl Mat
f 16/1/1 8/2/1 3/3/1 11/4/1
f 21/5/1 22/6/1 13/7/1 14/8/1
f 9/9/1 1/10/1 12/11/1 23/12/1
f 23/12/1 12/11/1 22/6/1 21/5/1
f 20/13/1 24/14/1 7/15/1 10/16/1
f 24/14/1 3/3/1 19/17/1 18/18/1
f 5/19/1 2/20/1 4/21/1 7/15/1
f 13/7/1 15/22/1 14/8/1
f 14/8/1 15/22/1 2/20/1 5/19/1
f 7/15/1 4/21/1 6/23/1 10/16/1
f 18/18/1 19/17/1 23/12/1 21/5/1
f 19/17/1 17/24/1 9/9/1 23/12/1
f 3/3/1 8/2/1 17/24/1 19/17/1
f 11/4/1 3/3/1 24/14/1 20/13/1
f 7/15/1 24/14/1 18/18/1 5/19/1
f 5/19/1 18/18/1 21/5/1 14/8/1
f 30/5/1 27/6/1 25/11/1 26/12/1
f 26/12/1 25/11/1 1/10/1 9/9/1
f 31/17/1 42/3/1 28/14/1 32/18/1
f 17/24/1 31/17/1 26/12/1 9/9/1
f 28/14/1 40/13/1 29/16/1 39/15/1
f 16/1/1 41/4/1 42/3/1 8/2/1
f 35/22/1 37/7/1 36/8/1
f 32/18/1 28/14/1 39/15/1 33/19/1
f 30/5/1 32/18/1 33/19/1 36/8/1
f 42/3/1 41/4/1 40/13/1 28/14/1
f 29/16/1 43/23/1 38/21/1 39/15/1
f 39/15/1 38/21/1 34/20/1 33/19/1
f 36/8/1 37/7/1 27/6/1 30/5/1
f 33/19/1 34/20/1 35/22/1 36/8/1
f 8/2/1 42/3/1 31/17/1 17/24/1
f 26/12/1 31/17/1 32/18/1 30/5/1
f 40/13/1 52/14/1 56/15/1 29/16/1
f 45/17/1 46/24/1 44/9/1 49/12/1
f 55/3/1 47/2/1 46/24/1 45/17/1
f 41/4/1 55/3/1 52/14/1 40/13/1
f 56/15/1 62/25/1 43/23/1 29/16/1
f 58/26/1 60/27/1 59/8/1
f 57/19/1 53/18/1 61/5/1 59/8/1
f 16/1/1 47/2/1 55/3/1 41/4/1
f 56/15/1 52/14/1 53/18/1 57/19/1
f 53/18/1 45/17/1 49/12/1 61/5/1
f 44/9/1 54/28/1 51/29/1 49/12/1
f 52/14/1 55/3/1 45/17/1 53/18/1
f 59/8/1 60/27/1 48/30/1 57/19/1
f 57/19/1 48/30/1 62/25/1 56/15/1
f 49/12/1 51/29/1 50/31/1 61/5/1
f 61/5/1 50/31/1 58/26/1 59/8/1
f 47/2/1 72/3/1 67/17/1 46/24/1
f 73/16/1 78/32/1 77/33/1 70/15/1
f 70/15/1 77/33/1 66/34/1 69/19/1
f 69/19/1 66/34/1 79/35/1 80/8/1
f 79/35/1 81/36/1 80/8/1
f 72/3/1 75/4/1 71/13/1 65/14/1
f 16/1/1 75/4/1 72/3/1 47/2/1
f 64/5/1 76/37/1 74/38/1 63/12/1
f 63/12/1 74/38/1 54/28/1 44/9/1
f 65/14/1 71/13/1 73/16/1 70/15/1
f 80/8/1 81/36/1 76/37/1 64/5/1
f 64/5/1 68/18/1 69/19/1 80/8/1
f 63/12/1 67/17/1 68/18/1 64/5/1
f 68/18/1 65/14/1 70/15/1 69/19/1
f 67/17/1 72/3/1 65/14/1 68/18/1
f 46/24/1 67/17/1 63/12/1 44/9/1
f 71/13/1 84/14/1 88/15/1 73/16/1
f 83/17/1 96/24/1 86/9/1 95/12/1
f 82/3/1 97/2/1 96/24/1 83/17/1
f 100/36/1 98/35/1 99/8/1
f 86/9/1 90/28/1 93/38/1 95/12/1
f 95/12/1 93/38/1 94/37/1 91/5/1
f 91/5/1 94/37/1 100/36/1 99/8/1
f 89/19/1 92/34/1 87/33/1 88/15/1
f 75/4/1 82/3/1 84/14/1 71/13/1
f 88/15/1 87/33/1 78/32/1 73/16/1
f 84/14/1 82/3/1 83/17/1 85/18/1
f 85/18/1 83/17/1 95/12/1 91/5/1
f 88/15/1 84/14/1 85/18/1 89/19/1
f 16/1/1 97/2/1 82/3/1 75/4/1
f 89/19/1 85/18/1 91/5/1 99/8/1
f 99/8/1 98/35/1 92/34/1 89/19/1
f 104/5/1 115/18/1 103/19/1 118/8/1
f 105/12/1 114/17/1 115/18/1 104/5/1
f 119/27/1 117/26/1 118/8/1
f 112/16/1 107/23/1 108/25/1 102/15/1
f 102/15/1 108/25/1 109/30/1 103/19/1
f 103/19/1 109/30/1 119/27/1 118/8/1
f 104/5/1 116/31/1 111/29/1 105/12/1
f 105/12/1 111/29/1 90/28/1 86/9/1
f 115/18/1 113/14/1 102/15/1 103/19/1
f 16/1/1 106/4/1 110/3/1 97/2/1
f 97/2/1 110/3/1 114/17/1 96/24/1
f 114/17/1 110/3/1 113/14/1 115/18/1
f 96/24/1 114/17/1 105/12/1 86/9/1
f 113/14/1 101/13/1 112/16/1 102/15/1
f 110/3/1 106/4/1 101/13/1 113/14/1
f 118/8/1 117/26/1 116/31/1 104/5/1
f 127/19/1 120/18/1 126/5/1 137/8/1
f 138/7/1 136/22/1 137/8/1
f 101/13/1 121/14/1 128/15/1 112/16/1
f 122/17/1 124/24/1 133/9/1 125/12/1
f 135/3/1 123/2/1 124/24/1 122/17/1
f 106/4/1 135/3/1 121/14/1 101/13/1
f 121/14/1 135/3/1 122/17/1 120/18/1
f 120/18/1 122/17/1 125/12/1 126/5/1
f 128/15/1 132/21/1 107/23/1 112/16/1
f 16/1/1 123/2/1 135/3/1 106/4/1
f 133/9/1 131/10/1 130/11/1 125/12/1
f 127/19/1 134/20/1 132/21/1 128/15/1
f 126/5/1 129/6/1 138/7/1 137/8/1
f 128/15/1 121/14/1 120/18/1 127/19/1
f 137/8/1 136/22/1 134/20/1 127/19/1
f 125/12/1 130/11/1 129/6/1 126/5/1
f 157/22/1 155/7/1 156/8/1
f 149/16/1 150/23/1 151/21/1 145/15/1
f 145/15/1 151/21/1 152/20/1 146/19/1
f 146/19/1 152/20/1 157/22/1 156/8/1
f 147/5/1 153/6/1 154/11/1 148/12/1
f 147/5/1 142/18/1 146/19/1 156/8/1
f 148/12/1 141/17/1 142/18/1 147/5/1
f 142/18/1 140/14/1 145/15/1 146/19/1
f 141/17/1 139/3/1 140/14/1 142/18/1
f 124/24/1 141/17/1 148/12/1 133/9/1
f 140/14/1 144/13/1 149/16/1 145/15/1
f 139/3/1 143/4/1 144/13/1 140/14/1
f 123/2/1 139/3/1 141/17/1 124/24/1
f 156/8/1 155/7/1 153/6/1 147/5/1
f 148/12/1 154/11/1 131/10/1 133/9/1
f 16/1/1 143/4/1 139/3/1 123/2/1
f 164/15/1 170/25/1 150/23/1 149/16/1
f 163/19/1 169/30/1 170/25/1 164/15/1
f 163/19/1 168/18/1 162/5/1 159/8/1
f 164/15/1 167/14/1 168/18/1 163/19/1
f 168/18/1 166/17/1 161/12/1 162/5/1
f 167/14/1 165/3/1 166/17/1 168/18/1
f 144/13/1 167/14/1 164/15/1 149/16/1
f 166/17/1 171/24/1 176/9/1 161/12/1
f 162/5/1 173/31/1 158/26/1 159/8/1
f 165/3/1 172/2/1 171/24/1 166/17/1
f 143/4/1 165/3/1 167/14/1 144/13/1
f 158/26/1 160/27/1 159/8/1
f 159/8/1 160/27/1 169/30/1 163/19/1
f 16/1/1 172/2/1 165/3/1 143/4/1
f 176/9/1 175/28/1 174/29/1 161/12/1
f 161/12/1 174/29/1 173/31/1 162/5/1
f 193/16/1 179/32/1 178/33/1 189/15/1
f 189/15/1 178/33/1 177/34/1 190/19/1
f 190/19/1 177/34/1 180/35/1 181/8/1
f 191/5/1 195/37/1 194/38/1 192/12/1
f 192/12/1 194/38/1 175/28/1 176/9/1
f 191/5/1 183/18/1 190/19/1 181/8/1
f 192/12/1 184/17/1 183/18/1 191/5/1
f 183/18/1 185/14/1 189/15/1 190/19/1
f 184/17/1 186/3/1 185/14/1 183/18/1
f 171/24/1 184/17/1 192/12/1 176/9/1
f 180/35/1 182/36/1 181/8/1
f 185/14/1 188/13/1 193/16/1 189/15/1
f 186/3/1 187/4/1 188/13/1 185/14/1
f 172/2/1 186/3/1 184/17/1 171/24/1
f 16/1/1 187/4/1 186/3/1 172/2/1
f 181/8/1 182/36/1 195/37/1 191/5/1
f 213/9/1 198/28/1 197/38/1 209/12/1
f 209/12/1 197/38/1 196/37/1 210/5/1
f 210/5/1 196/37/1 201/36/1 202/8/1
f 211/19/1 214/34/1 199/33/1 212/15/1
f 212/15/1 199/33/1 179/32/1 193/16/1
f 211/19/1 200/18/1 210/5/1 202/8/1
f 212/15/1 204/14/1 200/18/1 211/19/1
f 200/18/1 205/17/1 209/12/1 210/5/1
f 204/14/1 206/3/1 205/17/1 200/18/1
f 201/36/1 203/35/1 202/8/1
f 188/13/1 204/14/1 212/15/1 193/16/1
f 205/17/1 208/24/1 213/9/1 209/12/1
f 206/3/1 207/2/1 208/24/1 205/17/1
f 187/4/1 206/3/1 204/14/1 188/13/1
f 16/1/1 207/2/1 206/3/1 187/4/1
f 202/8/1 203/35/1 214/34/1 211/19/1
f 228/12/1 217/29/1 198/28/1 213/9/1
f 227/5/1 229/31/1 217/29/1 228/12/1
f 226/19/1 215/30/1 222/27/1 223/8/1
f 225/15/1 216/25/1 215/30/1 226/19/1
f 10/16/1 6/23/1 216/25/1 225/15/1
f 227/5/1 218/18/1 226/19/1 223/8/1
f 228/12/1 219/17/1 218/18/1 227/5/1
f 218/18/1 220/14/1 225/15/1 226/19/1
f 222/27/1 224/26/1 223/8/1
f 219/17/1 221/3/1 220/14/1 218/18/1
f 208/24/1 219/17/1 228/12/1 213/9/1
f 220/14/1 20/13/1 10/16/1 225/15/1
f 221/3/1 11/4/1 20/13/1 220/14/1
f 207/2/1 221/3/1 219/17/1 208/24/1
f 16/1/1 11/4/1 221/3/1 207/2/1
f 223/8/1 224/26/1 229/31/1 227/5/1

