# WaveFront *.obj file (generated by CINEMA 4D)

mtllib ./DodecagonShape_9.mtl

v -0.00703684613109 0.00436512753367 -0.01462819799781
v -0.00469198543578 0.00716701056808 -0.01470722351223
v -0.0000085038555 0.00498564494774 -0.01486506313086
v -0.00469082500786 0.00716839497909 -0.01470726262778
v -0.00001770904237 0.00498790852726 -0.01486475300044
v -0.00468966504559 0.00716977985576 -0.01470730174333
v -0.00001570702625 0.00498906895518 -0.01486482005566
v -0.00000527058728 0.00498368497938 -0.0148651720956
v -0.00001581176184 0.00498275738209 -0.01486481633037
v -0.00001438846084 0.00499085430056 -0.01486486475915
v -0.00000479615392 0.0049863839522 -0.01486518792808
v -0.00703674601391 0.00436715036631 -0.0146282017231
v -0.0070351450704 0.00437053339556 -0.01462825573981
v -0.00001991315185 0.00498765287921 -0.01486467849463
v -0.00469314539805 0.00716562569141 -0.01470718439668
v 0 0.00498414877802 -0.01486534904689
v -0.00001054117456 0.00498322118074 -0.01486499421299
v -0.00001490807426 0.00498677231371 -0.01486484706402
v -0.00001243937368 0.00498511502519 -0.01486492995173
v -0.00000959230783 0.00498861912638 -0.01486502587795
v -0.00001792850344 0.00498666008934 -0.01486474554986
v -0.00703613366932 0.00436900462955 -0.0146282222122
v -0.00001644225631 0.0049848863855 -0.01486479490995
v -0.00001202237308 0.00498748710379 -0.01486494392157
v -0.00703639443964 0.00436315266415 -0.01462821383029
v -0.0000160613763 0.00498055154458 -0.01486480794847
v -0.007035468705 0.00436143390834 -0.01462824456394
v -0.00001125572999 0.00497876247391 -0.0148649699986
v -0.00001299831365 0.00497503345832 -0.01486491132528
v -0.00001721545959 0.00497854547575 -0.01486476883292
v -0.00001208001777 0.00498102512211 -0.01486494205892
v -0.00001422183868 0.0049789622426 -0.01486487034708
v -0.00001678165063 0.00497735431418 -0.01486478373408
v -0.00423933845013 0.00201561115682 -0.01472247764468
v -0.00424072239548 0.00201677228324 -0.01472243107855
v -0.00001899652852 0.00497722113505 -0.01486470922828
v -0.00703422864899 0.0043601016514 -0.01462828647345
v -0.00423795403913 0.00201445026323 -0.01472252421081
v -0.00001460804015 0.00497656175867 -0.01486485730857
v -0.00000866554183 0.00497807189822 -0.01486505754292
v -0.00000433277091 0.00498111033812 -0.01486520376056
v -0.00000811241352 0.00498119043186 -0.01486507616937
v -0.00423657055944 0.00201328960247 -0.01472257170826
v -0.00000670197687 0.004969751928 -0.01486512366682
v -0.00000705612138 0.00497385300696 -0.01486511155963
v -0.00000446798458 0.00497455056757 -0.01486519910395
v -0.00000223399229 0.00497934967279 -0.01486527454108
v -0.00423380266875 0.00201096781529 -0.01472266484052
v -0.00000885961072 0.00497026974335 -0.01486505102366
v -0.00218715867959 0.0002941430721 -0.01479163952172
v -0.00218577496707 0.00029298197478 -0.01479168608785
v -0.00000890083084 0.00497540039942 -0.01486504916102
v -0.00000972487487 0.00497254217044 -0.01486502215266
v -0.00218439102173 0.00029182122671 -0.01479173265398
v -0.00000554725739 0.00497752800584 -0.01486516278237
v -0.00001211209474 0.00497299805284 -0.0148649411276
v -0.00001210900973 0.00497068325058 -0.0148649411276
v -0.00218854262494 0.00029530382017 -0.01479159295559
v -0.00001298979987 0.00496864551678 -0.01486491132528
v -0.0042324187234 0.00200980692171 -0.01472271140665
v -0.0000111381687 0.00496986880898 -0.01486497372389
v -0.0042351866141 0.00201212847605 -0.01472261827439
v -0.00000491738683 0.00496843270957 -0.01486518420279
v -0.00000375796003 0.00496642943472 -0.01486522238702
v -0.00000096583153 0.00497170211747 -0.01486531738192
v 0.00061479496071 -0.00205597979948 -0.01488606911153
v -0.00000333667322 0.00497211934999 -0.01486523728818
v -0.00000262213757 0.00496923178434 -0.01486526150256
v -0.00000251022357 0.00496620964259 -0.01486526522785
v -0.00000073725596 0.00496769696474 -0.0148653248325
v 0.00000092676567 0.00497360154986 -0.01486538071185
v -0.00000149571815 0.00497563974932 -0.01486529875547
v 0.00000139014833 0.00496832793579 -0.01486539654434
v -0.00218300707638 0.00029066050774 -0.0147917792201
v 0.00000046338283 0.00497887516394 -0.01486536487937
v -0.00218162336387 0.00028949938132 -0.01479182578623
v 0.00061664794339 -0.00205659260973 -0.01488613151014
v 0.00061866978649 -0.00205669272691 -0.01488619949669
v 0.00061326712603 -0.00205499050207 -0.01488601695746
v -0.00000350246592 0.00496422406286 -0.01486523170024
v -0.00218023941852 0.00028833866236 -0.01479187235236
v 0.00000295659765 0.00497603137046 -0.0148654486984
v 0.0000053832523 0.00497288629413 -0.01486553065479
v 0.0000031215427 0.00497206160799 -0.01486545428634
v 0.00000518319985 0.00496991863474 -0.01486552413553
v 0.00000910978451 0.00497114285827 -0.01486565638334
v 0.00062064337544 -0.00205624080263 -0.01488626562059
v 0.00000359493106 0.00496807787567 -0.01486547105014
v 0.00000560003264 0.00496692350134 -0.01486553810537
v 0.00296917324886 0.00074517290341 -0.01496541500092
v 0.00000679033383 0.00496735749766 -0.01486557815224
v 0.00062236119993 -0.0020553143695 -0.01488632429391
v 0.00296801328659 0.00074378825957 -0.01496537588537
v 0.00296685309149 0.00074240326649 -0.01496533676982
v 0.00000758264559 0.00496953213587 -0.01486560516059
v 0.00000607318998 0.00497547816485 -0.01486555393785
v 0.00000303659499 0.00497981347144 -0.01486545149237
v 0.00062369299121 -0.00205407384783 -0.0148863689974
v 0.00000692335152 0.0049651414156 -0.01486558280885
v 0.00296569266357 0.00074101868086 -0.01496529765427
v 0.00000959230783 0.004979677964 -0.01486567314714
v 0.00001387078373 0.00497528398409 -0.01486581657082
v 0.00001427142706 0.00497300410643 -0.01486583054066
v 0.00001345750115 0.00497203273699 -0.01486580260098
v 0.00001114399038 0.00497202947736 -0.01486572530121
v 0.00000479615392 0.00498191313818 -0.01486551109701
v 0.00468966504559 0.00279851723462 -0.01502339728177
v 0.00468850461766 0.00279713259079 -0.01502335816622
v 0.00468734418973 0.00279574817978 -0.01502331905067
v 0.00000661669537 0.00497859809548 -0.0148655725643
v 0.00297033367679 0.00074655748904 -0.01496545411646
v 0.00001438846084 0.00497744278982 -0.01486583426595
v 0.00001028989846 0.00497708842158 -0.01486569643021
v 0.00000874334455 0.00497524254024 -0.01486564427614
v 0.00001159970179 0.00497441831976 -0.01486574020237
v 0.00297149387188 0.00074794219108 -0.01496549323201
v 0.00297265383415 0.00074932683492 -0.01496553234756
v 0.00001549406261 0.00497115124017 -0.01486587151885
v 0.00468618422747 0.00279436330311 -0.01502327993512
v 0.00001490807426 0.00498152477667 -0.01486585196108
v 0.00001202237308 0.00498080998659 -0.01486575510353
v 0.00001243937368 0.00498318206519 -0.01486576907337
v 0.00000527058728 0.004984612111 -0.0148655269295
v 0.00001054117456 0.00498507590964 -0.01486570481211
v 0.00001644225631 0.00498341070488 -0.01486590318382
v 0.00001792850344 0.00498163700104 -0.01486595347524
v 0.00001770904237 0.00498038856313 -0.01486594602466
v 0.00001570702625 0.00497922860086 -0.01486587896943
v 0.00703613366932 0.00559929246083 -0.0151024768129
v 0.00703674601391 0.00560114672408 -0.015102497302
v 0.00703684613109 0.00560316955671 -0.01510250102729
v 0.00469082500786 0.00279990211129 -0.01502343639731
v 0.00001581176184 0.00498553970829 -0.01486588269472
v 0.00469198543578 0.00280128675513 -0.01502347551286
v 0.0000085038555 0.00498265214264 -0.01486563589424
v 0.00469314539805 0.00280267139897 -0.01502351462841
v 0.00001991315185 0.00498064421117 -0.01486602053046
v 0.0070351450704 0.00559776369482 -0.01510244328529
v 0.00000811241352 0.00498710665852 -0.01486562285572
v 0.00001125572999 0.00498953508213 -0.0148657290265
v 0.00001208001777 0.00498727196828 -0.01486575696617
v 0.00001422183868 0.00498933484778 -0.01486582867801
v 0.00000433277091 0.00498718675226 -0.01486549526453
v 0.00000866554183 0.00499022519216 -0.01486564148217
v 0.00001460804015 0.00499173533171 -0.01486584171653
v 0.00001678165063 0.0049909427762 -0.01486591529101
v 0.00001721545959 0.00498975161463 -0.01486592926085
v 0.0000160613763 0.0049877455458 -0.01486589107662
v 0.00001299831365 0.00499326363206 -0.01486578769982
v 0.00423657055944 0.00795500725508 -0.01500812731683
v 0.00423795403913 0.00795384682715 -0.01500817388296
v 0.00423933845013 0.00795268639922 -0.01500822138041
v 0.007035468705 0.00560686318204 -0.01510245446116
v 0.00703639443964 0.00560514442623 -0.0151024851948
v 0.00703422864899 0.00560819543898 -0.01510241255164
v 0.00001899652852 0.00499107595533 -0.01486598979682
v 0.00424072239548 0.00795152503997 -0.01500826794654
v 0.00218854262494 0.00967299286276 -0.01493910606951
v 0.00001298979987 0.0049996515736 -0.01486578769982
v 0.0042324187234 0.00795849040151 -0.01500798761845
v 0.00000885961072 0.00499802734703 -0.01486564800143
v 0.0000111381687 0.0049984282814 -0.01486572530121
v 0.00001210900973 0.00499761383981 -0.0148657578975
v 0.00001211209474 0.00499529903755 -0.0148657578975
v 0.00000554725739 0.00499076908454 -0.01486553624272
v 0.00000705612138 0.00499444408342 -0.01486558746547
v 0.00000890083084 0.00499289669096 -0.01486564986408
v 0.00000972487487 0.00499575491995 -0.01486567687243
v 0.00423380266875 0.00795732904226 -0.01500803418458
v 0.0042351866141 0.00795616861433 -0.0150080807507
v 0.00000446798458 0.00499374652281 -0.01486549992114
v 0.00000223399229 0.00498894741759 -0.01486542448401
v 0.00218715867959 0.00967415422201 -0.01493905950338
v 0.00218577496707 0.00967531558126 -0.01493901293725
v 0.00218439102173 0.00967647600919 -0.01493896637112
v 0.00000670197687 0.00499854516238 -0.01486557535827
v -0.00061479496071 0.01202427688986 -0.01484462991357
v -0.00061664794339 0.01202488970011 -0.01484456751496
v -0.00061866978649 0.01202499028295 -0.01484449952841
v -0.00061326712603 0.01202328782529 -0.01484468113631
v 0.00000350246592 0.00500407302752 -0.01486546732485
v 0.00218023941852 0.0096799582243 -0.01493882667273
v 0.00000262213757 0.00499906530604 -0.01486543752253
v 0.00000333667322 0.0049961777404 -0.01486546173692
v 0.00000096583153 0.00499659497291 -0.01486538164318
v 0.00000149571815 0.00499265734106 -0.01486540026963
v -0.00000046338283 0.00498942192644 -0.01486533414572
v -0.00000092676567 0.00499469554052 -0.01486531831324
v 0.00000073725596 0.00500060012564 -0.0148653741926
v 0.00000251022357 0.00500208744779 -0.01486543379724
v 0.00000375796003 0.00500186765566 -0.01486547570676
v 0.00000491738683 0.00499986438081 -0.0148655148223
v -0.00000139014833 0.0049999691546 -0.01486530248076
v 0.00218300707638 0.00967763643712 -0.01493891980499
v 0.00218162336387 0.00967879779637 -0.01493887323886
v -0.00296685309149 0.00922589376569 -0.01476536225528
v -0.00296801328659 0.00922450888902 -0.01476532313973
v -0.00296917324886 0.00922312401235 -0.01476528402418
v -0.00062064337544 0.01202453766018 -0.01484443340451
v -0.00000518319985 0.00499837845564 -0.01486517488956
v -0.00296569266357 0.00922727864236 -0.01476540137082
v -0.00000692335152 0.00500315567479 -0.01486511621624
v -0.00062369299121 0.01202237140387 -0.0148443300277
v -0.0000031215427 0.00499623548239 -0.01486524473876
v -0.0000053832523 0.00499541079625 -0.01486516837031
v -0.00000295659765 0.00499226571992 -0.01486524939537
v -0.00000303659499 0.00498848361894 -0.01486524753273
v -0.00000607318998 0.00499281892553 -0.01486514508724
v -0.00000758264559 0.00499876495451 -0.0148650938645
v -0.00000679033383 0.00500093959272 -0.01486512087286
v -0.00000560003264 0.00500137358904 -0.01486516091973
v -0.00000359493106 0.00500021921471 -0.01486522797495
v -0.00000910978451 0.00499715423211 -0.01486504264176
v -0.00062236119993 0.01202361192554 -0.01484437473118
v -0.00468734418973 0.00717254914343 -0.01470737997442
v -0.00468850461766 0.00717116426677 -0.01470734085888
v -0.00297033367679 0.00922173913568 -0.01476524490863
v -0.00001159970179 0.00499387877062 -0.01486495882273
v -0.00000874334455 0.00499305455014 -0.01486505474895
v -0.00001028989846 0.0049912086688 -0.01486500259489
v -0.00000661669537 0.0049896989949 -0.01486512646079
v -0.00468618422747 0.00717393355444 -0.01470741908997
v -0.00001549406261 0.00499714585021 -0.01486482750624
v -0.00297265383415 0.00921897031367 -0.01476516667753
v -0.00001387078373 0.00499301310629 -0.01486488245428
v -0.00001427142706 0.00499529298395 -0.01486486848444
v -0.00001345750115 0.00499626435339 -0.01486489549279
v -0.00001114399038 0.00499626761302 -0.01486497372389
v -0.00297149387188 0.00922035519034 -0.01476520579308
# 229 vertices

vn -0.03368224203587 0 -0.99943256378174
# 1 normal

vt 0.5 0 0
vt 0.49979940056801 0.00074875354767 0
vt 0.5 0.00126492977142 0
vt 0.50020062923431 0.00074875354767 0
vt 0.49990719556808 0.00265038013458 0
vt 0.23274311423302 0.99955117702484 0
vt 0.23298864066601 0.99944722652435 0
vt 0.5 0.00296187400818 0
vt 0.4993981719017 0.00224602222443 0
vt 0.23216597735882 0.99955552816391 0
vt 0.23246024549007 0.99959242343903 0
vt 0.49968913197517 0.00239098072052 0
vt 0.50040119886398 0.00149738788605 0
vt 0.50017631053925 0.00181925296783 0
vt 0.50031089782715 0.00239098072052 0
vt 0.5006018280983 0.00224602222443 0
vt 0.49982368946075 0.00181925296783 0
vt 0.5 0.00221741199493 0
vt 0.50009280443192 0.00265038013458 0
vt 0.69569498300552 0.73230755329132 0
vt 0.69592410326004 0.73217529058456 0
vt 0.69546586275101 0.73243981599808 0
vt 0.69615322351456 0.73204302787781 0
vt 0.49959877133369 0.00149738788605 0
vt 0.6958886384964 0.73204302787781 0
vt 0.30464044213295 0.73204302787781 0
vt 0.69535952806473 0.73204302787781 0
vt 0.30384680628777 0.73204302787781 0
vt 0.3041113615036 0.73204302787781 0
vt 0.69562411308289 0.73204302787781 0
vt 0.30437588691711 0.73204302787781 0
vt 0.76783400774002 0.99955552816391 0
vt 0.76753973960876 0.99959242343903 0
vt 0.76725691556931 0.99955117702484 0
vt 0.76701134443283 0.99944722652435 0
vt 0.30453410744667 0.73243981599808 0
vt 0.30430501699448 0.73230755329132 0
vt 0.30407589673996 0.73217529058456 0
# 38 texture coordinates

o DodecagonShape_web
usemtl Mat
f 16/1/1 8/2/1 3/3/1 11/4/1
f 21/5/1 22/6/1 13/7/1 14/8/1
f 9/9/1 1/10/1 12/11/1 23/12/1
f 23/12/1 12/11/1 22/6/1 21/5/1
f 20/13/1 24/14/1 7/15/1 10/16/1
f 24/14/1 3/3/1 19/17/1 18/18/1
f 5/19/1 2/20/1 4/21/1 7/15/1
f 13/7/1 15/22/1 14/8/1
f 14/8/1 15/22/1 2/20/1 5/19/1
f 7/15/1 4/21/1 6/23/1 10/16/1
f 18/18/1 19/17/1 23/12/1 21/5/1
f 19/17/1 17/24/1 9/9/1 23/12/1
f 3/3/1 8/2/1 17/24/1 19/17/1
f 11/4/1 3/3/1 24/14/1 20/13/1
f 7/15/1 24/14/1 18/18/1 5/19/1
f 5/19/1 18/18/1 21/5/1 14/8/1
f 30/5/1 27/6/1 25/11/1 26/12/1
f 26/12/1 25/11/1 1/10/1 9/9/1
f 31/17/1 42/3/1 28/14/1 32/18/1
f 17/24/1 31/17/1 26/12/1 9/9/1
f 28/14/1 40/13/1 29/16/1 39/15/1
f 16/1/1 41/4/1 42/3/1 8/2/1
f 35/22/1 37/7/1 36/8/1
f 32/18/1 28/14/1 39/15/1 33/19/1
f 30/5/1 32/18/1 33/19/1 36/8/1
f 42/3/1 41/4/1 40/13/1 28/14/1
f 29/16/1 43/23/1 38/21/1 39/15/1
f 39/15/1 38/21/1 34/20/1 33/19/1
f 36/8/1 37/7/1 27/6/1 30/5/1
f 33/19/1 34/20/1 35/22/1 36/8/1
f 8/2/1 42/3/1 31/17/1 17/24/1
f 26/12/1 31/17/1 32/18/1 30/5/1
f 40/13/1 52/14/1 56/15/1 29/16/1
f 45/17/1 46/24/1 44/9/1 49/12/1
f 55/3/1 47/2/1 46/24/1 45/17/1
f 41/4/1 55/3/1 52/14/1 40/13/1
f 56/15/1 62/25/1 43/23/1 29/16/1
f 58/26/1 60/27/1 59/8/1
f 57/19/1 53/18/1 61/5/1 59/8/1
f 16/1/1 47/2/1 55/3/1 41/4/1
f 56/15/1 52/14/1 53/18/1 57/19/1
f 53/18/1 45/17/1 49/12/1 61/5/1
f 44/9/1 54/28/1 51/29/1 49/12/1
f 52/14/1 55/3/1 45/17/1 53/18/1
f 59/8/1 60/27/1 48/30/1 57/19/1
f 57/19/1 48/30/1 62/25/1 56/15/1
f 49/12/1 51/29/1 50/31/1 61/5/1
f 61/5/1 50/31/1 58/26/1 59/8/1
f 47/2/1 72/3/1 67/17/1 46/24/1
f 73/16/1 78/32/1 77/33/1 70/15/1
f 70/15/1 77/33/1 66/34/1 69/19/1
f 69/19/1 66/34/1 79/35/1 80/8/1
f 79/35/1 81/36/1 80/8/1
f 72/3/1 75/4/1 71/13/1 65/14/1
f 16/1/1 75/4/1 72/3/1 47/2/1
f 64/5/1 76/37/1 74/38/1 63/12/1
f 63/12/1 74/38/1 54/28/1 44/9/1
f 65/14/1 71/13/1 73/16/1 70/15/1
f 80/8/1 81/36/1 76/37/1 64/5/1
f 64/5/1 68/18/1 69/19/1 80/8/1
f 63/12/1 67/17/1 68/18/1 64/5/1
f 68/18/1 65/14/1 70/15/1 69/19/1
f 67/17/1 72/3/1 65/14/1 68/18/1
f 46/24/1 67/17/1 63/12/1 44/9/1
f 71/13/1 84/14/1 88/15/1 73/16/1
f 83/17/1 96/24/1 86/9/1 95/12/1
f 82/3/1 97/2/1 96/24/1 83/17/1
f 100/36/1 98/35/1 99/8/1
f 86/9/1 90/28/1 93/38/1 95/12/1
f 95/12/1 93/38/1 94/37/1 91/5/1
f 91/5/1 94/37/1 100/36/1 99/8/1
f 89/19/1 92/34/1 87/33/1 88/15/1
f 75/4/1 82/3/1 84/14/1 71/13/1
f 88/15/1 87/33/1 78/32/1 73/16/1
f 84/14/1 82/3/1 83/17/1 85/18/1
f 85/18/1 83/17/1 95/12/1 91/5/1
f 88/15/1 84/14/1 85/18/1 89/19/1
f 16/1/1 97/2/1 82/3/1 75/4/1
f 89/19/1 85/18/1 91/5/1 99/8/1
f 99/8/1 98/35/1 92/34/1 89/19/1
f 104/5/1 115/18/1 103/19/1 118/8/1
f 105/12/1 114/17/1 115/18/1 104/5/1
f 119/27/1 117/26/1 118/8/1
f 112/16/1 107/23/1 108/25/1 102/15/1
f 102/15/1 108/25/1 109/30/1 103/19/1
f 103/19/1 109/30/1 119/27/1 118/8/1
f 104/5/1 116/31/1 111/29/1 105/12/1
f 105/12/1 111/29/1 90/28/1 86/9/1
f 115/18/1 113/14/1 102/15/1 103/19/1
f 16/1/1 106/4/1 110/3/1 97/2/1
f 97/2/1 110/3/1 114/17/1 96/24/1
f 114/17/1 110/3/1 113/14/1 115/18/1
f 96/24/1 114/17/1 105/12/1 86/9/1
f 113/14/1 101/13/1 112/16/1 102/15/1
f 110/3/1 106/4/1 101/13/1 113/14/1
f 118/8/1 117/26/1 116/31/1 104/5/1
f 127/19/1 120/18/1 126/5/1 137/8/1
f 138/7/1 136/22/1 137/8/1
f 101/13/1 121/14/1 128/15/1 112/16/1
f 122/17/1 124/24/1 133/9/1 125/12/1
f 135/3/1 123/2/1 124/24/1 122/17/1
f 106/4/1 135/3/1 121/14/1 101/13/1
f 121/14/1 135/3/1 122/17/1 120/18/1
f 120/18/1 122/17/1 125/12/1 126/5/1
f 128/15/1 132/21/1 107/23/1 112/16/1
f 16/1/1 123/2/1 135/3/1 106/4/1
f 133/9/1 131/10/1 130/11/1 125/12/1
f 127/19/1 134/20/1 132/21/1 128/15/1
f 126/5/1 129/6/1 138/7/1 137/8/1
f 128/15/1 121/14/1 120/18/1 127/19/1
f 137/8/1 136/22/1 134/20/1 127/19/1
f 125/12/1 130/11/1 129/6/1 126/5/1
f 157/22/1 155/7/1 156/8/1
f 149/16/1 150/23/1 151/21/1 145/15/1
f 145/15/1 151/21/1 152/20/1 146/19/1
f 146/19/1 152/20/1 157/22/1 156/8/1
f 147/5/1 153/6/1 154/11/1 148/12/1
f 147/5/1 142/18/1 146/19/1 156/8/1
f 148/12/1 141/17/1 142/18/1 147/5/1
f 142/18/1 140/14/1 145/15/1 146/19/1
f 141/17/1 139/3/1 140/14/1 142/18/1
f 124/24/1 141/17/1 148/12/1 133/9/1
f 140/14/1 144/13/1 149/16/1 145/15/1
f 139/3/1 143/4/1 144/13/1 140/14/1
f 123/2/1 139/3/1 141/17/1 124/24/1
f 156/8/1 155/7/1 153/6/1 147/5/1
f 148/12/1 154/11/1 131/10/1 133/9/1
f 16/1/1 143/4/1 139/3/1 123/2/1
f 164/15/1 170/25/1 150/23/1 149/16/1
f 163/19/1 169/30/1 170/25/1 164/15/1
f 163/19/1 168/18/1 162/5/1 159/8/1
f 164/15/1 167/14/1 168/18/1 163/19/1
f 168/18/1 166/17/1 161/12/1 162/5/1
f 167/14/1 165/3/1 166/17/1 168/18/1
f 144/13/1 167/14/1 164/15/1 149/16/1
f 166/17/1 171/24/1 176/9/1 161/12/1
f 162/5/1 173/31/1 158/26/1 159/8/1
f 165/3/1 172/2/1 171/24/1 166/17/1
f 143/4/1 165/3/1 167/14/1 144/13/1
f 158/26/1 160/27/1 159/8/1
f 159/8/1 160/27/1 169/30/1 163/19/1
f 16/1/1 172/2/1 165/3/1 143/4/1
f 176/9/1 175/28/1 174/29/1 161/12/1
f 161/12/1 174/29/1 173/31/1 162/5/1
f 193/16/1 179/32/1 178/33/1 189/15/1
f 189/15/1 178/33/1 177/34/1 190/19/1
f 190/19/1 177/34/1 180/35/1 181/8/1
f 191/5/1 195/37/1 194/38/1 192/12/1
f 192/12/1 194/38/1 175/28/1 176/9/1
f 191/5/1 183/18/1 190/19/1 181/8/1
f 192/12/1 184/17/1 183/18/1 191/5/1
f 183/18/1 185/14/1 189/15/1 190/19/1
f 184/17/1 186/3/1 185/14/1 183/18/1
f 171/24/1 184/17/1 192/12/1 176/9/1
f 180/35/1 182/36/1 181/8/1
f 185/14/1 188/13/1 193/16/1 189/15/1
f 186/3/1 187/4/1 188/13/1 185/14/1
f 172/2/1 186/3/1 184/17/1 171/24/1
f 16/1/1 187/4/1 186/3/1 172/2/1
f 181/8/1 182/36/1 195/37/1 191/5/1
f 213/9/1 198/28/1 197/38/1 209/12/1
f 209/12/1 197/38/1 196/37/1 210/5/1
f 210/5/1 196/37/1 201/36/1 202/8/1
f 211/19/1 214/34/1 199/33/1 212/15/1
f 212/15/1 199/33/1 179/32/1 193/16/1
f 211/19/1 200/18/1 210/5/1 202/8/1
f 212/15/1 204/14/1 200/18/1 211/19/1
f 200/18/1 205/17/1 209/12/1 210/5/1
f 204/14/1 206/3/1 205/17/1 200/18/1
f 201/36/1 203/35/1 202/8/1
f 188/13/1 204/14/1 212/15/1 193/16/1
f 205/17/1 208/24/1 213/9/1 209/12/1
f 206/3/1 207/2/1 208/24/1 205/17/1
f 187/4/1 206/3/1 204/14/1 188/13/1
f 16/1/1 207/2/1 206/3/1 187/4/1
f 202/8/1 203/35/1 214/34/1 211/19/1
f 228/12/1 217/29/1 198/28/1 213/9/1
f 227/5/1 229/31/1 217/29/1 228/12/1
f 226/19/1 215/30/1 222/27/1 223/8/1
f 225/15/1 216/25/1 215/30/1 226/19/1
f 10/16/1 6/23/1 216/25/1 225/15/1
f 227/5/1 218/18/1 226/19/1 223/8/1
f 228/12/1 219/17/1 218/18/1 227/5/1
f 218/18/1 220/14/1 225/15/1 226/19/1
f 222/27/1 224/26/1 223/8/1
f 219/17/1 221/3/1 220/14/1 218/18/1
f 208/24/1 219/17/1 228/12/1 213/9/1
f 220/14/1 20/13/1 10/16/1 225/15/1
f 221/3/1 11/4/1 20/13/1 220/14/1
f 207/2/1 221/3/1 219/17/1 208/24/1
f 16/1/1 11/4/1 221/3/1 207/2/1
f 223/8/1 224/26/1 229/31/1 227/5/1

