# WaveFront *.obj file (generated by CINEMA 4D)

mtllib ./OctagonShape_2.mtl

v -0.00508035393432 0.01924623176455 -0.01499656774104
v -0.00508215557784 0.01924547925591 -0.01499656774104
v -0.00508374907076 0.01924422755837 -0.01499656680971
v -0.00008670726675 0.01933306641877 -0.01499844063073
v -0.00008845234697 0.0193330347538 -0.01499844063073
v -0.00000385345038 0.01434268243611 -0.0149984722957
v -0.00000203189688 0.01434134785086 -0.01499847322702
v -0.00000411989049 0.01434043981135 -0.0149984722957
v -0.00000211253109 0.01433867774904 -0.01499847322702
v -0.00000238086636 0.01433611754328 -0.0149984722957
v -0.00000476173273 0.01433841697872 -0.01499847136438
v -0.0000059873073 0.0143423685804 -0.01499847136438
v -0.00000539511984 0.01434435043484 -0.01499847136438
v -0.00000402132855 0.01434494741261 -0.0149984722957
v -0.0000021684225 0.01434402912855 -0.0149984722957
v -0.00000005740278 0.01433712709695 -0.01499847322702
v -0.00000011480556 0.01434043701738 -0.01499847322702
v -0.00000714259841 0.01434071641415 -0.01499847043306
v -0.00507855135947 0.01924648694694 -0.01499656867236
v -0.0000054544098 0.01434636581689 -0.01499847136438
v -0.0000919425147 0.01933297514915 -0.01499843876809
v -0.00000017220832 0.01434374600649 -0.01499847322702
v -0.00009019743447 0.01933300495148 -0.01499843969941
v 0 0.01433381717652 -0.01499847322702
v -0.00508494395763 0.01924259215593 -0.01499656587839
v -0.00499930838123 0.01425060071051 -0.01499659847468
v -0.00499927811325 0.01424885541201 -0.01499659847468
v -0.00499924784526 0.0142471101135 -0.01499659847468
v -0.00000899331553 0.01433736085892 -0.01499847043306
v -0.00000676129912 0.01433770544827 -0.01499847136438
v -0.00000759595605 0.01433558668941 -0.01499847043306
v -0.00000493029847 0.01433575991541 -0.01499847136438
v -0.00000330965054 0.01433376036584 -0.0149984722957
v -0.00000661930108 0.01433370262384 -0.01499847136438
v -0.00001028034603 0.01433563046157 -0.01499846950173
v -0.00001126279767 0.01433745026588 -0.01499846950173
v -0.00001071363658 0.01433884445578 -0.01499846950173
v -0.00000875377918 0.01433950476348 -0.01499847043306
v -0.00000992895184 0.01433364488184 -0.01499846950173
v -0.00508563406765 0.01924076490104 -0.01499656587839
v -0.00499933864921 0.01425234507769 -0.01499659847468
v -0.00001272969075 0.01433883327991 -0.01499846857041
v -0.00508582685143 0.01923895440996 -0.01499656587839
v -0.0049126688391 0.00925526581705 -0.01499663107097
v -0.00001254809195 0.01432836335152 -0.01499846857041
v -0.00499915704131 0.01424187514931 -0.01499659847468
v -0.00499921757728 0.014245364815 -0.01499659847468
v -0.00499918730929 0.01424362044781 -0.01499659847468
v -0.00000886501948 0.01432996429503 -0.01499847043306
v -0.00000753002359 0.01433178596199 -0.01499847043306
v -0.00000662241337 0.01432969793677 -0.01499847136438
v -0.00000485996406 0.01433170493692 -0.01499847136438
v -0.00000855129747 0.01432783063501 -0.01499847043306
v -0.00001053288088 0.01432842202485 -0.01499846950173
v -0.00001113004146 0.01432979572564 -0.01499846950173
v -0.00001021129174 0.01433164905757 -0.01499846950173
v -0.00000459937291 0.0143290553242 -0.0149984722957
v -0.00000229968646 0.01433143671602 -0.0149984722957
v -0.00491241365671 0.00925346277654 -0.01499663107097
v -0.00491166068241 0.00925166159868 -0.01499663107097
v -0.00491040945053 0.00925006810576 -0.01499663200229
v -0.00000689905937 0.0143266748637 -0.01499847136438
v 0.00008321710629 0.00933450832963 -0.01499850489199
v 0.00008496218652 0.00933453906327 -0.01499850582331
v 0.00008670726675 0.0093345688656 -0.01499850582331
v 0.00008147216431 0.00933447852731 -0.01499850396067
v -0.00000501599061 0.01432108785957 -0.01499847136438
v -0.00490513676777 0.00924799032509 -0.01499663386494
v -0.00000354371423 0.01432482432574 -0.0149984722957
v -0.00000388776243 0.01432705577463 -0.0149984722957
v -0.00000176955132 0.0143262213096 -0.01499847322702
v -0.0000019427282 0.01432888675481 -0.01499847322702
v 0.00000005740278 0.01433050818741 -0.01499847322702
v 0.00000011480556 0.01432719826698 -0.01499847322702
v -0.00000181301425 0.01432353723794 -0.01499847322702
v -0.00000363294635 0.01432255469263 -0.0149984722957
v -0.00000502661896 0.01432310417295 -0.01499847136438
v -0.00000568716723 0.01432506367564 -0.01499847136438
v 0.00000017220832 0.01432388834655 -0.01499847322702
v -0.00490877404809 0.00924887321889 -0.01499663200229
v -0.00490694772452 0.00924818310887 -0.01499663293362
v 0.00508035393432 0.00942140351981 -0.01500037871301
v 0.00508215557784 0.00942215695977 -0.01500037964433
v 0.00508374907076 0.00942340772599 -0.01500038057566
v 0.00008845234697 0.00933459959924 -0.01499850675464
v 0.00000385345038 0.01432495284826 -0.01499847508967
v 0.00507855135947 0.00942114833742 -0.01500037871301
v 0.0000054544098 0.01432126946747 -0.01499847602099
v 0.0000919425147 0.00933466013521 -0.01499850768596
v 0.00000203189688 0.01432628743351 -0.01499847415835
v 0.00000411989049 0.01432719547302 -0.01499847508967
v 0.00000211253109 0.01432895753533 -0.01499847415835
v 0.00000238086636 0.01433151774108 -0.01499847415835
v 0.00000476173273 0.01432921830565 -0.01499847508967
v 0.0000059873073 0.01432526577264 -0.01499847602099
v 0.00000539511984 0.01432328484952 -0.01499847602099
v 0.00000402132855 0.01432268787175 -0.01499847508967
v 0.0000021684225 0.01432360615581 -0.01499847415835
v 0.00000714259841 0.01432691887021 -0.01499847602099
v 0.00009019743447 0.00933463033289 -0.01499850768596
v 0.00499930838123 0.01441703457385 -0.01500034891069
v 0.00499927811325 0.01441877987236 -0.01500034891069
v 0.00499924784526 0.01442052517086 -0.01500034891069
v 0.00508494395763 0.00942504312843 -0.01500038057566
v 0.00000899331553 0.01433027349412 -0.01499847695231
v 0.00000676129912 0.01432992983609 -0.01499847602099
v 0.00000759595605 0.01433204766363 -0.01499847602099
v 0.00000493029847 0.01433187443763 -0.01499847508967
v 0.00499933864921 0.01441528927535 -0.01500034891069
v 0.00001272969075 0.01432880107313 -0.01499847788364
v 0.00508582685143 0.00942867994308 -0.01500038150698
v 0.00000330965054 0.01433387491852 -0.01499847508967
v 0.00000661930108 0.01433393266052 -0.01499847602099
v 0.00001028034603 0.01433200482279 -0.01499847695231
v 0.00001126279767 0.01433018408716 -0.01499847788364
v 0.00001071363658 0.01432879082859 -0.01499847788364
v 0.00000875377918 0.01432813052088 -0.01499847695231
v 0.00000992895184 0.0143339894712 -0.01499847695231
v 0.00508563406765 0.009426869452 -0.01500038150698
v 0.00491241365671 0.0194141715765 -0.0150003163144
v 0.00491166068241 0.01941597275436 -0.0150003163144
v 0.00491040945053 0.01941756717861 -0.01500031538308
v 0.00499921757728 0.01442226953804 -0.01500034891069
v 0.00000886501948 0.01433767098933 -0.01499847695231
v 0.00000753002359 0.01433584932238 -0.01499847602099
v 0.00000662241337 0.01433793734759 -0.01499847602099
v 0.00000485996406 0.01433593034744 -0.01499847508967
v 0.00000229968646 0.01433619856834 -0.01499847415835
v 0.00000459937291 0.01433857902884 -0.01499847508967
v 0.00000855129747 0.01433980464935 -0.01499847695231
v 0.0049126688391 0.019412368536 -0.0150003163144
v 0.00001254809195 0.01433927193284 -0.01499847788364
v 0.00499915704131 0.01442576013505 -0.01500034891069
v 0.00001053288088 0.0143392123282 -0.01499847788364
v 0.00001113004146 0.0143378386274 -0.01499847788364
v 0.00001021129174 0.0143359862268 -0.01499847695231
v 0.00000689905937 0.01434096042067 -0.01499847602099
v 0.00499918730929 0.01442401483655 -0.01500034891069
v -0.00008321710629 0.01933312602341 -0.01499844249338
v -0.00008496218652 0.01933309622109 -0.01499844156206
v 0.00490877404809 0.01941876113415 -0.01500031445175
v 0.00000354371423 0.01434281095862 -0.01499847508967
v 0.00000388776243 0.01434057857841 -0.01499847508967
v 0.00000176955132 0.01434141304344 -0.01499847415835
v 0.0000019427282 0.01433874759823 -0.01499847415835
v 0.00000181301425 0.01434409804642 -0.01499847415835
v 0.00000363294635 0.01434508059174 -0.01499847508967
v 0.00000502661896 0.01434453111142 -0.01499847508967
v 0.00000568716723 0.01434257160872 -0.01499847602099
v -0.00008147216431 0.01933315582573 -0.0149984434247
v 0.00000501599061 0.01434654742479 -0.01499847508967
v 0.00490513676777 0.01941964402795 -0.01500031352043
v 0.00490694772452 0.0194194521755 -0.01500031445175
# 153 vertices

vn -0.00037508792593 0 -0.99999994039536
# 1 normal

vt 0.49968060851097 0.00156652927399 0
vt 0.20735290646553 0.70720970630646 0
vt 0.20710608363152 0.70710748434067 0
vt 0.49941757321358 0.00140511989594 0
vt 0.91316568851471 0.99956691265106 0
vt 0.20784656703472 0.70741420984268 0
vt 0.49999928474426 0.00209510326385 0
vt 0.49988463521004 0.00180864334106 0
vt 0.20759972929955 0.70731198787689 0
vt 0.50011396408081 0.00180864334106 0
vt 0.91343432664871 0.99964112043381 0
vt 0.50031799077988 0.00156652927399 0
vt 0.91373318433762 0.99964529275894 0
vt 0.50058102607727 0.00140511989594 0
vt 0.91403317451477 0.99956691265106 0
vt 0.49999928474426 0.00148034095764 0
vt 0.49982506036758 0.00118184089661 0
vt 0.50017356872559 0.00118184089661 0
vt 0.49999928474426 0.00081193447113 0
vt 0.49961149692535 0.00093698501587 0
vt 0.50038713216782 0.00093698501587 0
vt 0.50019317865372 0.0004688501358 0
vt 0.49980539083481 0.0004688501358 0
vt 0.49999928474426 0.00000071525574 0
vt 0.20784825086594 0.70741349458694 0
vt 0.91316735744476 0.99956625699997 0
vt 0.50000101327896 0.00209438800812 0
vt 0.50031971931458 0.00156581401825 0
vt 0.91373491287231 0.9996445775032 0
vt 0.91403490304947 0.99956625699997 0
vt 0.50058269500732 0.0014044046402 0
vt 0.50011563301086 0.00180792808533 0
vt 0.91343605518341 0.99964040517807 0
vt 0.49988633394241 0.00180792808533 0
vt 0.20760142803192 0.70731127262115 0
vt 0.49968227744102 0.00156581401825 0
vt 0.20735460519791 0.70720905065536 0
vt 0.49941927194595 0.0014044046402 0
vt 0.20710776746273 0.70710676908493 0
vt 0.50000101327896 0.00147974491119 0
vt 0.50017523765564 0.00118112564087 0
vt 0.49982672929764 0.00118112564087 0
vt 0.50000101327896 0.00081121921539 0
vt 0.50038880109787 0.00093626976013 0
vt 0.49961319565773 0.00093626976013 0
vt 0.49980708956718 0.00046813488007 0
vt 0.50019490718842 0.00046813488007 0
vt 0.50000101327896 0 0
vt 0.50011396408081 0.00180721282959 0
vt 0.91343432664871 0.99963974952698 0
vt 0.91316568851471 0.99956554174423 0
vt 0.49999928474426 0.00209367275238 0
vt 0.50031799077988 0.00156509876251 0
vt 0.91373318433762 0.99964392185211 0
vt 0.50058102607727 0.00140368938446 0
vt 0.91403317451477 0.99956554174423 0
vt 0.49968060851097 0.00156509876251 0
vt 0.20735290646553 0.70720833539963 0
vt 0.20710608363152 0.70710611343384 0
vt 0.49941757321358 0.00140368938446 0
vt 0.49988463521004 0.00180721282959 0
vt 0.20759972929955 0.70731055736542 0
vt 0.49999928474426 0.00147902965546 0
vt 0.49982506036758 0.00118041038513 0
vt 0.20784656703472 0.70741283893585 0
vt 0.50017356872559 0.00118041038513 0
vt 0.49999928474426 0.00081050395966 0
vt 0.49961149692535 0.00093555450439 0
vt 0.50038713216782 0.00093555450439 0
vt 0.50019317865372 0.00046741962433 0
vt 0.49980539083481 0.00046741962433 0
vt 0.49999928474426 -0.00000071525574 0
vt 0.50031870603561 0.00156486034393 0
vt 0.91373389959335 0.99964362382889 0
vt 0.91403388977051 0.99956524372101 0
vt 0.50058174133301 0.00140345096588 0
vt 0.5001146197319 0.00180685520172 0
vt 0.91343504190445 0.99963945150375 0
vt 0.49988535046577 0.00180685520172 0
vt 0.20760042965412 0.70731025934219 0
vt 0.2078472673893 0.70741254091263 0
vt 0.5 0.0020934343338 0
vt 0.49968129396439 0.00156486034393 0
vt 0.20735360682011 0.7072080373764 0
vt 0.49941828846931 0.00140345096588 0
vt 0.20710678398609 0.70710581541061 0
vt 0.5 0.00147867202759 0
vt 0.9131663441658 0.99956524372101 0
vt 0.50017422437668 0.00118017196655 0
vt 0.499825745821 0.00118017196655 0
vt 0.5 0.00081026554108 0
vt 0.50038778781891 0.00093531608582 0
vt 0.49961218237877 0.00093531608582 0
vt 0.49980610609055 0.00046718120575 0
vt 0.50019389390945 0.00046718120575 0
vt 0.5 -0.00000095367432 0
vt 0.49968200922012 0.00156509876251 0
vt 0.20735430717468 0.70720833539963 0
vt 0.20710748434067 0.70710611343384 0
vt 0.49941897392273 0.00140368938446 0
vt 0.49988606572151 0.00180721282959 0
vt 0.2076011300087 0.70731055736542 0
vt 0.50011533498764 0.00180721282959 0
vt 0.91343575716019 0.99963974952698 0
vt 0.91316705942154 0.99956554174423 0
vt 0.50000071525574 0.00209367275238 0
vt 0.50031942129135 0.00156509876251 0
vt 0.91373461484909 0.99964392185211 0
vt 0.5005823969841 0.00140368938446 0
vt 0.91403460502625 0.99956554174423 0
vt 0.20784796774387 0.70741283893585 0
vt 0.50000071525574 0.00147902965546 0
vt 0.49982646107674 0.00118041038513 0
vt 0.50017493963242 0.00118041038513 0
vt 0.50000071525574 0.00081050395966 0
vt 0.49961289763451 0.00093555450439 0
vt 0.50038850307465 0.00093555450439 0
vt 0.50019460916519 0.00046741962433 0
vt 0.49980679154396 0.00046741962433 0
vt 0.50000071525574 -0.00000071525574 0
vt 0.50031769275665 0.00156581401825 0
vt 0.91373288631439 0.9996445775032 0
vt 0.91403287649155 0.99956625699997 0
vt 0.50058072805405 0.0014044046402 0
vt 0.50011366605759 0.00180792808533 0
vt 0.91343408823013 0.99964040517807 0
vt 0.49988436698914 0.00180792808533 0
vt 0.20759944617748 0.70731127262115 0
vt 0.2078462690115 0.70741349458694 0
vt 0.49999901652336 0.00209438800812 0
vt 0.49968031048775 0.00156581401825 0
vt 0.20735262334347 0.70720905065536 0
vt 0.91316539049149 0.99956625699997 0
vt 0.49941730499268 0.0014044046402 0
vt 0.20710578560829 0.70710676908493 0
vt 0.49999901652336 0.00147974491119 0
vt 0.50017327070236 0.00118112564087 0
vt 0.49982476234436 0.00118112564087 0
vt 0.49999901652336 0.00081121921539 0
vt 0.50038683414459 0.00093626976013 0
vt 0.49961119890213 0.00093626976013 0
vt 0.49980509281158 0.00046813488007 0
vt 0.50019294023514 0.00046813488007 0
vt 0.49999901652336 0 0
vt 0.49968200922012 0.00156652927399 0
vt 0.20735430717468 0.70720970630646 0
vt 0.20710748434067 0.70710748434067 0
vt 0.49941897392273 0.00140511989594 0
vt 0.49988606572151 0.00180864334106 0
vt 0.2076011300087 0.70731198787689 0
vt 0.50011533498764 0.00180864334106 0
vt 0.91343575716019 0.99964112043381 0
vt 0.91316705942154 0.99956691265106 0
vt 0.50000071525574 0.00209510326385 0
vt 0.20784796774387 0.70741420984268 0
vt 0.50031942129135 0.00156652927399 0
vt 0.91373461484909 0.99964529275894 0
vt 0.5005823969841 0.00140511989594 0
vt 0.91403460502625 0.99956691265106 0
vt 0.50000071525574 0.00148034095764 0
vt 0.49982646107674 0.00118184089661 0
vt 0.50017493963242 0.00118184089661 0
vt 0.50000071525574 0.00081193447113 0
vt 0.49961289763451 0.00093698501587 0
vt 0.50038850307465 0.00093698501587 0
vt 0.50019460916519 0.0004688501358 0
vt 0.49980679154396 0.0004688501358 0
vt 0.50000071525574 0.00000071525574 0
vt 0.50031870603561 0.00156688690186 0
vt 0.91373389959335 0.99964559078217 0
vt 0.91403388977051 0.99956721067429 0
vt 0.50058174133301 0.00140535831451 0
vt 0.5001146197319 0.00180888175964 0
vt 0.91343504190445 0.99964141845703 0
vt 0.2078472673893 0.70741450786591 0
vt 0.9131663441658 0.99956721067429 0
vt 0.5 0.00209546089172 0
vt 0.49988535046577 0.00180888175964 0
vt 0.20760042965412 0.70731228590012 0
vt 0.49968129396439 0.00156688690186 0
vt 0.20735360682011 0.70721000432968 0
vt 0.49941828846931 0.00140535831451 0
vt 0.20710678398609 0.70710778236389 0
vt 0.5 0.00148069858551 0
vt 0.50017422437668 0.00118207931519 0
vt 0.499825745821 0.00118207931519 0
vt 0.5 0.00081217288971 0
vt 0.50038778781891 0.00093722343445 0
vt 0.49961218237877 0.00093722343445 0
vt 0.49980610609055 0.00046908855438 0
vt 0.50019389390945 0.00046908855438 0
vt 0.5 0.00000107288361 0
# 192 texture coordinates

o Octagon_web
usemtl Mat
f 15/1/1 5/2/1 4/3/1 22/4/1
f 19/5/1 21/6/1 20/7/1
f 14/8/1 23/9/1 5/2/1 15/1/1
f 13/10/1 1/11/1 19/5/1 20/7/1
f 12/12/1 2/13/1 1/11/1 13/10/1
f 18/14/1 3/15/1 2/13/1 12/12/1
f 14/8/1 6/16/1 13/10/1 20/7/1
f 15/1/1 7/17/1 6/16/1 14/8/1
f 6/16/1 8/18/1 12/12/1 13/10/1
f 7/17/1 9/19/1 8/18/1 6/16/1
f 20/7/1 21/6/1 23/9/1 14/8/1
f 17/20/1 7/17/1 15/1/1 22/4/1
f 8/18/1 11/21/1 18/14/1 12/12/1
f 9/19/1 10/22/1 11/21/1 8/18/1
f 16/23/1 9/19/1 7/17/1 17/20/1
f 24/24/1 10/22/1 9/19/1 16/23/1
f 41/25/1 43/26/1 42/27/1
f 38/28/1 25/29/1 3/30/1 18/31/1
f 37/32/1 40/33/1 25/29/1 38/28/1
f 36/34/1 26/35/1 41/25/1 42/27/1
f 35/36/1 27/37/1 26/35/1 36/34/1
f 39/38/1 28/39/1 27/37/1 35/36/1
f 37/32/1 29/40/1 36/34/1 42/27/1
f 38/28/1 30/41/1 29/40/1 37/32/1
f 29/40/1 31/42/1 35/36/1 36/34/1
f 42/27/1 43/26/1 40/33/1 37/32/1
f 30/41/1 32/43/1 31/42/1 29/40/1
f 11/44/1 30/41/1 38/28/1 18/31/1
f 31/42/1 34/45/1 39/38/1 35/36/1
f 32/43/1 33/46/1 34/45/1 31/42/1
f 10/47/1 32/43/1 30/41/1 11/44/1
f 24/48/1 33/46/1 32/43/1 10/47/1
f 54/49/1 59/50/1 44/51/1 45/52/1
f 53/53/1 60/54/1 59/50/1 54/49/1
f 62/55/1 61/56/1 60/54/1 53/53/1
f 56/57/1 47/58/1 28/59/1 39/60/1
f 55/61/1 48/62/1 47/58/1 56/57/1
f 55/61/1 49/63/1 54/49/1 45/52/1
f 56/57/1 50/64/1 49/63/1 55/61/1
f 44/51/1 46/65/1 45/52/1
f 45/52/1 46/65/1 48/62/1 55/61/1
f 49/63/1 51/66/1 53/53/1 54/49/1
f 50/64/1 52/67/1 51/66/1 49/63/1
f 34/68/1 50/64/1 56/57/1 39/60/1
f 51/66/1 57/69/1 62/55/1 53/53/1
f 52/67/1 58/70/1 57/69/1 51/66/1
f 33/71/1 52/67/1 50/64/1 34/68/1
f 24/72/1 58/70/1 52/67/1 33/71/1
f 78/73/1 80/74/1 61/75/1 62/76/1
f 77/77/1 81/78/1 80/74/1 78/73/1
f 76/79/1 63/80/1 66/81/1 67/82/1
f 75/83/1 64/84/1 63/80/1 76/79/1
f 79/85/1 65/86/1 64/84/1 75/83/1
f 77/77/1 69/87/1 76/79/1 67/82/1
f 66/81/1 68/88/1 67/82/1
f 78/73/1 70/89/1 69/87/1 77/77/1
f 69/87/1 71/90/1 75/83/1 76/79/1
f 70/89/1 72/91/1 71/90/1 69/87/1
f 57/92/1 70/89/1 78/73/1 62/76/1
f 71/90/1 74/93/1 79/85/1 75/83/1
f 72/91/1 73/94/1 74/93/1 71/90/1
f 58/95/1 72/91/1 70/89/1 57/92/1
f 24/96/1 73/94/1 72/91/1 58/95/1
f 67/82/1 68/88/1 81/78/1 77/77/1
f 98/97/1 85/98/1 65/99/1 79/100/1
f 97/101/1 100/102/1 85/98/1 98/97/1
f 96/103/1 82/104/1 87/105/1 88/106/1
f 95/107/1 83/108/1 82/104/1 96/103/1
f 99/109/1 84/110/1 83/108/1 95/107/1
f 87/105/1 89/111/1 88/106/1
f 97/101/1 86/112/1 96/103/1 88/106/1
f 98/97/1 90/113/1 86/112/1 97/101/1
f 86/112/1 91/114/1 95/107/1 96/103/1
f 90/113/1 92/115/1 91/114/1 86/112/1
f 74/116/1 90/113/1 98/97/1 79/100/1
f 91/114/1 94/117/1 99/109/1 95/107/1
f 92/115/1 93/118/1 94/117/1 91/114/1
f 73/119/1 92/115/1 90/113/1 74/116/1
f 88/106/1 89/111/1 100/102/1 97/101/1
f 24/120/1 93/118/1 92/115/1 73/119/1
f 117/121/1 104/122/1 84/123/1 99/124/1
f 116/125/1 119/126/1 104/122/1 117/121/1
f 115/127/1 101/128/1 109/129/1 110/130/1
f 114/131/1 102/132/1 101/128/1 115/127/1
f 109/129/1 111/133/1 110/130/1
f 118/134/1 103/135/1 102/132/1 114/131/1
f 116/125/1 105/136/1 115/127/1 110/130/1
f 117/121/1 106/137/1 105/136/1 116/125/1
f 105/136/1 107/138/1 114/131/1 115/127/1
f 106/137/1 108/139/1 107/138/1 105/136/1
f 94/140/1 106/137/1 117/121/1 99/124/1
f 107/138/1 113/141/1 118/134/1 114/131/1
f 108/139/1 112/142/1 113/141/1 107/138/1
f 110/130/1 111/133/1 119/126/1 116/125/1
f 93/143/1 108/139/1 106/137/1 94/140/1
f 24/144/1 112/142/1 108/139/1 93/143/1
f 136/145/1 123/146/1 103/147/1 118/148/1
f 135/149/1 138/150/1 123/146/1 136/145/1
f 134/151/1 120/152/1 131/153/1 132/154/1
f 131/153/1 133/155/1 132/154/1
f 130/156/1 121/157/1 120/152/1 134/151/1
f 137/158/1 122/159/1 121/157/1 130/156/1
f 135/149/1 124/160/1 134/151/1 132/154/1
f 136/145/1 125/161/1 124/160/1 135/149/1
f 124/160/1 126/162/1 130/156/1 134/151/1
f 125/161/1 127/163/1 126/162/1 124/160/1
f 113/164/1 125/161/1 136/145/1 118/148/1
f 126/162/1 129/165/1 137/158/1 130/156/1
f 132/154/1 133/155/1 138/150/1 135/149/1
f 127/163/1 128/166/1 129/165/1 126/162/1
f 112/167/1 127/163/1 125/161/1 113/164/1
f 24/168/1 128/166/1 127/163/1 112/167/1
f 149/169/1 141/170/1 122/171/1 137/172/1
f 148/173/1 153/174/1 141/170/1 149/169/1
f 150/175/1 152/176/1 151/177/1
f 147/178/1 139/179/1 150/175/1 151/177/1
f 146/180/1 140/181/1 139/179/1 147/178/1
f 22/182/1 4/183/1 140/181/1 146/180/1
f 148/173/1 142/184/1 147/178/1 151/177/1
f 149/169/1 143/185/1 142/184/1 148/173/1
f 142/184/1 144/186/1 146/180/1 147/178/1
f 143/185/1 145/187/1 144/186/1 142/184/1
f 129/188/1 143/185/1 149/169/1 137/172/1
f 151/177/1 152/176/1 153/174/1 148/173/1
f 144/186/1 17/189/1 22/182/1 146/180/1
f 145/187/1 16/190/1 17/189/1 144/186/1
f 128/191/1 145/187/1 143/185/1 129/188/1
f 24/192/1 16/190/1 145/187/1 128/191/1

