# WaveFront *.obj file (generated by CINEMA 4D)

mtllib ./OctagonShape_4.mtl

v -0.00523887854069 0.01601531729102 -0.01496785786003
v -0.00524065457284 0.01601450517774 -0.01496785134077
v -0.00524220569059 0.01601320318878 -0.01496784575284
v -0.0002508048492 0.01626606658101 -0.01498511247337
v -0.00025254799402 0.01626597903669 -0.01498510595411
v -0.00000414242277 0.01128109451383 -0.01498596556485
v -0.00000227802934 0.01127982046455 -0.01498597208411
v -0.00000433508421 0.01127884443849 -0.01498596463352
v -0.0000022709512 0.01127714850008 -0.01498597208411
v -0.00000245507613 0.01127458084375 -0.01498597115278
v -0.00000491015226 0.01127680111676 -0.01498596277088
v -0.00000626481642 0.01128071080893 -0.01498595811427
v -0.00000573801481 0.01128271128982 -0.01498595997691
v -0.00000438457937 0.01128335297108 -0.01498596463352
v -0.00000250251719 0.01128249522299 -0.01498597115278
v -0.00000016604027 0.01127566676587 -0.01498597953469
v -0.00000033208053 0.01127897296101 -0.01498597860336
v -0.00000736522816 0.01127902138978 -0.01498595438898
v -0.00523708481342 0.01601563207805 -0.01496786344796
v -0.00000586343958 0.01128472294658 -0.01498595997691
v -0.00025603425456 0.01626580394804 -0.01498509384692
v -0.00000049812076 0.01128227915615 -0.01498597767204
v -0.00025429113884 0.01626589149237 -0.01498510036618
v 0 0.01127236057073 -0.01498597953469
v -0.00524334609509 0.01601152867079 -0.01496784202754
v -0.00499385083094 0.01102504041046 -0.01496870536357
v -0.00499376328662 0.01102329790592 -0.01496870536357
v -0.0049936757423 0.01102155447006 -0.01496870536357
v -0.00000910476774 0.01127560716122 -0.01498594786972
v -0.0000068852637 0.01127602439374 -0.01498595625162
v -0.00000764991728 0.01127387955785 -0.01498595345765
v -0.00000499139833 0.01127414032817 -0.01498596277088
v -0.00000330596185 0.01127219479531 -0.01498596835881
v -0.00000661192371 0.01127202901989 -0.01498595718294
v -0.00001033426997 0.01127383485436 -0.01498594414443
v -0.00001137594245 0.01127562206239 -0.01498594041914
v -0.00001087283999 0.01127703301609 -0.01498594228178
v -0.00000893573997 0.01127775758505 -0.01498594880104
v -0.00000991788511 0.01127186231315 -0.01498594507575
v -0.00524397613481 0.0160096809268 -0.0149678401649
v -0.00499393837526 0.01102678384632 -0.01496870443225
v -0.00001288744625 0.01127695571631 -0.0149859348312
v -0.00524410931394 0.01600786484778 -0.01496783923358
v -0.00474324217066 0.00603524455801 -0.01496957242489
v -0.00001236216212 0.0112664969638 -0.01498593669385
v -0.00499341310933 0.01101632509381 -0.01496870629489
v -0.00499358819798 0.0110198110342 -0.01496870629489
v -0.00499350065365 0.01101806852967 -0.01496870629489
v -0.00000873366298 0.01126821804792 -0.01498594973236
v -0.00000745920397 0.01127008255571 -0.01498595438898
v -0.00000648353171 0.01126802526414 -0.01498595718294
v -0.00000478795209 0.01127009000629 -0.0149859637022
v -0.00000835004903 0.01126609556377 -0.01498595066369
v -0.00001034999696 0.01126662269235 -0.01498594414443
v -0.00001099193832 0.01126797590405 -0.01498594135046
v -0.00001013452766 0.01126985810697 -0.01498594507575
v -0.00000444051966 0.01126745063812 -0.01498596463352
v -0.00000222025983 0.01126990560442 -0.01498597208411
v -0.00474292784929 0.00603345083073 -0.01496957335621
v -0.00474211620167 0.00603167479858 -0.01496957615018
v -0.00474081374705 0.00603012368083 -0.01496958080679
v -0.00000666077949 0.01126499567181 -0.01498595718294
v 0.00024731858866 0.00627847993746 -0.01498683542013
v 0.00024906173348 0.00627856748179 -0.01498684100807
v 0.0002508048492 0.00627865502611 -0.01498684752733
v 0.00024557558936 0.00627839239314 -0.01498682890087
v -0.00000459529065 0.01125947292894 -0.0149859637022
v -0.00473547540605 0.00602822005749 -0.01496959850192
v -0.00000324649682 0.01126325596124 -0.01498596835881
v -0.00000366364338 0.01126547530293 -0.01498596742749
v -0.00000151918175 0.0112647106871 -0.01498597487807
v -0.00000177978836 0.01126736961305 -0.01498597394675
v 0.00000016604027 0.01126905437559 -0.01498598046601
v 0.00000033208053 0.01126574911177 -0.01498598139733
v -0.00000147448202 0.01126202661544 -0.01498597487807
v -0.00000326116424 0.01126098446548 -0.01498596835881
v -0.00000467210839 0.01126148831099 -0.0149859637022
v -0.00000539664643 0.01126342453063 -0.01498596090823
v 0.00000049812076 0.01126244291663 -0.01498598139733
v -0.00473913969472 0.00602898327634 -0.01496958639473
v -0.00473729148507 0.00602835323662 -0.01496959291399
v 0.00523887854069 0.0065294043161 -0.01500410214067
v 0.00524065457284 0.00653021642938 -0.0150041077286
v 0.00524220569059 0.006531518884 -0.01500411331654
v 0.00025254799402 0.00627874257043 -0.01498685311526
v 0.00000414242277 0.01126362662762 -0.01498599443585
v 0.00523708481342 0.00652908999473 -0.01500409562141
v 0.00000586343958 0.01125999819487 -0.01498600002378
v 0.00025603425456 0.00627891765907 -0.01498686522245
v 0.00000227802934 0.01126490160823 -0.01498598791659
v 0.00000433508421 0.01126587763429 -0.01498599443585
v 0.0000022709512 0.01126757264137 -0.01498598791659
v 0.00000245507613 0.01127014029771 -0.01498598791659
v 0.00000491015226 0.01126792002469 -0.01498599722981
v 0.00000626481642 0.01126401033252 -0.01498600188643
v 0.00000573801481 0.01126201078296 -0.01498600002378
v 0.00000438457937 0.0112613691017 -0.01498599536717
v 0.00000250251719 0.01126222591847 -0.01498598884791
v 0.00000736522816 0.01126569975168 -0.01498600561172
v 0.00025429113884 0.00627883011475 -0.01498685963452
v 0.00499385083094 0.011519680731 -0.01500325463712
v 0.00499376328662 0.01152142416686 -0.0150032537058
v 0.0049936757423 0.0115231666714 -0.0150032537058
v 0.00524334609509 0.00653319293633 -0.01500411704183
v 0.00000910476774 0.01126911398023 -0.01498601119965
v 0.0000068852637 0.01126869674772 -0.01498600374907
v 0.00000764991728 0.01127084158361 -0.01498600654304
v 0.00000499139833 0.01127058081329 -0.01498599722981
v 0.00499393837526 0.01151793822646 -0.01500325463712
v 0.00001288744625 0.01126776542515 -0.01498602423817
v 0.00524410931394 0.00653685675934 -0.01500411983579
v 0.00000330596185 0.01127252727747 -0.01498599164188
v 0.00000661192371 0.01127269305289 -0.01498600281775
v 0.00001033426997 0.01127088628709 -0.01498601585627
v 0.00001137594245 0.0112691000104 -0.01498601958156
v 0.00001087283999 0.01126768905669 -0.01498601771891
v 0.00000893573997 0.01126696448773 -0.01498601026833
v 0.00000991788511 0.01127285882831 -0.01498601399362
v 0.00524397613481 0.00653504114598 -0.01500411983579
v 0.00474292784929 0.01651127077639 -0.01500238664448
v 0.00474211620167 0.01651304587722 -0.01500238385051
v 0.00474081374705 0.01651459746063 -0.0150023791939
v 0.00499358819798 0.01152491010725 -0.0150032537058
v 0.00000873366298 0.01127650309354 -0.01498601026833
v 0.00000745920397 0.01127463858575 -0.01498600561172
v 0.00000648353171 0.01127669587731 -0.01498600188643
v 0.00000478795209 0.01127463206649 -0.01498599629849
v 0.00000222025983 0.01127481553704 -0.01498598791659
v 0.00000444051966 0.01127727050334 -0.01498599536717
v 0.00000835004903 0.01127862557769 -0.01498600840569
v 0.00474324217066 0.01650947704911 -0.01500238757581
v 0.00001236216212 0.01127822417766 -0.01498602237552
v 0.00499341310933 0.01152839697897 -0.01500325277448
v 0.00001034999696 0.01127809844911 -0.01498601585627
v 0.00001099193832 0.01127674523741 -0.01498601771891
v 0.00001013452766 0.01127486303449 -0.01498601492494
v 0.00000666077949 0.01127972640097 -0.01498600281775
v 0.00499350065365 0.01152665354311 -0.0150032537058
v -0.00024731858866 0.01626624166965 -0.01498512458056
v -0.00024906173348 0.01626615412533 -0.0149851180613
v 0.00473913969472 0.0165157392621 -0.01500237360597
v 0.00000324649682 0.01128146518022 -0.01498599071056
v 0.00000366364338 0.01127924583852 -0.0149859925732
v 0.00000151918175 0.01128001045436 -0.01498598512262
v 0.00000177978836 0.01127735245973 -0.01498598605394
v 0.00000147448202 0.01128269545734 -0.01498598512262
v 0.00000326116424 0.01128373667598 -0.01498599071056
v 0.00000467210839 0.01128323376179 -0.01498599629849
v 0.00000539664643 0.01128129661083 -0.01498599816114
v -0.00024557558936 0.01626632921398 -0.0149851301685
v 0.00000459529065 0.01128524821252 -0.01498599536717
v 0.00473547540605 0.01651650108397 -0.01500236056745
v 0.00473729148507 0.01651636883616 -0.01500236708671
# 153 vertices

vn -0.00345916091464 0 -0.99999403953552
# 1 normal

vt 0.49968060851097 0.00156652927399 0
vt 0.20735290646553 0.70720970630646 0
vt 0.20710608363152 0.70710748434067 0
vt 0.49941757321358 0.00140511989594 0
vt 0.91316568851471 0.99956691265106 0
vt 0.20784656703472 0.70741420984268 0
vt 0.49999928474426 0.00209510326385 0
vt 0.49988463521004 0.00180864334106 0
vt 0.20759972929955 0.70731198787689 0
vt 0.50011396408081 0.00180864334106 0
vt 0.91343432664871 0.99964112043381 0
vt 0.50031799077988 0.00156652927399 0
vt 0.91373318433762 0.99964529275894 0
vt 0.50058102607727 0.00140511989594 0
vt 0.91403317451477 0.99956691265106 0
vt 0.49999928474426 0.00148034095764 0
vt 0.49982506036758 0.00118184089661 0
vt 0.50017356872559 0.00118184089661 0
vt 0.49999928474426 0.00081193447113 0
vt 0.49961149692535 0.00093698501587 0
vt 0.50038713216782 0.00093698501587 0
vt 0.50019317865372 0.0004688501358 0
vt 0.49980539083481 0.0004688501358 0
vt 0.49999928474426 0.00000071525574 0
vt 0.20784825086594 0.70741349458694 0
vt 0.91316735744476 0.99956625699997 0
vt 0.50000101327896 0.00209438800812 0
vt 0.50031971931458 0.00156581401825 0
vt 0.91373491287231 0.9996445775032 0
vt 0.91403490304947 0.99956625699997 0
vt 0.50058269500732 0.0014044046402 0
vt 0.50011563301086 0.00180792808533 0
vt 0.91343605518341 0.99964040517807 0
vt 0.49988633394241 0.00180792808533 0
vt 0.20760142803192 0.70731127262115 0
vt 0.49968227744102 0.00156581401825 0
vt 0.20735460519791 0.70720905065536 0
vt 0.49941927194595 0.0014044046402 0
vt 0.20710776746273 0.70710676908493 0
vt 0.50000101327896 0.00147974491119 0
vt 0.50017523765564 0.00118112564087 0
vt 0.49982672929764 0.00118112564087 0
vt 0.50000101327896 0.00081121921539 0
vt 0.50038880109787 0.00093626976013 0
vt 0.49961319565773 0.00093626976013 0
vt 0.49980708956718 0.00046813488007 0
vt 0.50019490718842 0.00046813488007 0
vt 0.50000101327896 0 0
vt 0.50011396408081 0.00180721282959 0
vt 0.91343432664871 0.99963974952698 0
vt 0.91316568851471 0.99956554174423 0
vt 0.49999928474426 0.00209367275238 0
vt 0.50031799077988 0.00156509876251 0
vt 0.91373318433762 0.99964392185211 0
vt 0.50058102607727 0.00140368938446 0
vt 0.91403317451477 0.99956554174423 0
vt 0.49968060851097 0.00156509876251 0
vt 0.20735290646553 0.70720833539963 0
vt 0.20710608363152 0.70710611343384 0
vt 0.49941757321358 0.00140368938446 0
vt 0.49988463521004 0.00180721282959 0
vt 0.20759972929955 0.70731055736542 0
vt 0.49999928474426 0.00147902965546 0
vt 0.49982506036758 0.00118041038513 0
vt 0.20784656703472 0.70741283893585 0
vt 0.50017356872559 0.00118041038513 0
vt 0.49999928474426 0.00081050395966 0
vt 0.49961149692535 0.00093555450439 0
vt 0.50038713216782 0.00093555450439 0
vt 0.50019317865372 0.00046741962433 0
vt 0.49980539083481 0.00046741962433 0
vt 0.49999928474426 -0.00000071525574 0
vt 0.50031870603561 0.00156486034393 0
vt 0.91373389959335 0.99964362382889 0
vt 0.91403388977051 0.99956524372101 0
vt 0.50058174133301 0.00140345096588 0
vt 0.5001146197319 0.00180685520172 0
vt 0.91343504190445 0.99963945150375 0
vt 0.49988535046577 0.00180685520172 0
vt 0.20760042965412 0.70731025934219 0
vt 0.2078472673893 0.70741254091263 0
vt 0.5 0.0020934343338 0
vt 0.49968129396439 0.00156486034393 0
vt 0.20735360682011 0.7072080373764 0
vt 0.49941828846931 0.00140345096588 0
vt 0.20710678398609 0.70710581541061 0
vt 0.5 0.00147867202759 0
vt 0.9131663441658 0.99956524372101 0
vt 0.50017422437668 0.00118017196655 0
vt 0.499825745821 0.00118017196655 0
vt 0.5 0.00081026554108 0
vt 0.50038778781891 0.00093531608582 0
vt 0.49961218237877 0.00093531608582 0
vt 0.49980610609055 0.00046718120575 0
vt 0.50019389390945 0.00046718120575 0
vt 0.5 -0.00000095367432 0
vt 0.49968200922012 0.00156509876251 0
vt 0.20735430717468 0.70720833539963 0
vt 0.20710748434067 0.70710611343384 0
vt 0.49941897392273 0.00140368938446 0
vt 0.49988606572151 0.00180721282959 0
vt 0.2076011300087 0.70731055736542 0
vt 0.50011533498764 0.00180721282959 0
vt 0.91343575716019 0.99963974952698 0
vt 0.91316705942154 0.99956554174423 0
vt 0.50000071525574 0.00209367275238 0
vt 0.50031942129135 0.00156509876251 0
vt 0.91373461484909 0.99964392185211 0
vt 0.5005823969841 0.00140368938446 0
vt 0.91403460502625 0.99956554174423 0
vt 0.20784796774387 0.70741283893585 0
vt 0.50000071525574 0.00147902965546 0
vt 0.49982646107674 0.00118041038513 0
vt 0.50017493963242 0.00118041038513 0
vt 0.50000071525574 0.00081050395966 0
vt 0.49961289763451 0.00093555450439 0
vt 0.50038850307465 0.00093555450439 0
vt 0.50019460916519 0.00046741962433 0
vt 0.49980679154396 0.00046741962433 0
vt 0.50000071525574 -0.00000071525574 0
vt 0.50031769275665 0.00156581401825 0
vt 0.91373288631439 0.9996445775032 0
vt 0.91403287649155 0.99956625699997 0
vt 0.50058072805405 0.0014044046402 0
vt 0.50011366605759 0.00180792808533 0
vt 0.91343408823013 0.99964040517807 0
vt 0.49988436698914 0.00180792808533 0
vt 0.20759944617748 0.70731127262115 0
vt 0.2078462690115 0.70741349458694 0
vt 0.49999901652336 0.00209438800812 0
vt 0.49968031048775 0.00156581401825 0
vt 0.20735262334347 0.70720905065536 0
vt 0.91316539049149 0.99956625699997 0
vt 0.49941730499268 0.0014044046402 0
vt 0.20710578560829 0.70710676908493 0
vt 0.49999901652336 0.00147974491119 0
vt 0.50017327070236 0.00118112564087 0
vt 0.49982476234436 0.00118112564087 0
vt 0.49999901652336 0.00081121921539 0
vt 0.50038683414459 0.00093626976013 0
vt 0.49961119890213 0.00093626976013 0
vt 0.49980509281158 0.00046813488007 0
vt 0.50019294023514 0.00046813488007 0
vt 0.49999901652336 0 0
vt 0.49968200922012 0.00156652927399 0
vt 0.20735430717468 0.70720970630646 0
vt 0.20710748434067 0.70710748434067 0
vt 0.49941897392273 0.00140511989594 0
vt 0.49988606572151 0.00180864334106 0
vt 0.2076011300087 0.70731198787689 0
vt 0.50011533498764 0.00180864334106 0
vt 0.91343575716019 0.99964112043381 0
vt 0.91316705942154 0.99956691265106 0
vt 0.50000071525574 0.00209510326385 0
vt 0.20784796774387 0.70741420984268 0
vt 0.50031942129135 0.00156652927399 0
vt 0.91373461484909 0.99964529275894 0
vt 0.5005823969841 0.00140511989594 0
vt 0.91403460502625 0.99956691265106 0
vt 0.50000071525574 0.00148034095764 0
vt 0.49982646107674 0.00118184089661 0
vt 0.50017493963242 0.00118184089661 0
vt 0.50000071525574 0.00081193447113 0
vt 0.49961289763451 0.00093698501587 0
vt 0.50038850307465 0.00093698501587 0
vt 0.50019460916519 0.0004688501358 0
vt 0.49980679154396 0.0004688501358 0
vt 0.50000071525574 0.00000071525574 0
vt 0.50031870603561 0.00156688690186 0
vt 0.91373389959335 0.99964559078217 0
vt 0.91403388977051 0.99956721067429 0
vt 0.50058174133301 0.00140535831451 0
vt 0.5001146197319 0.00180888175964 0
vt 0.91343504190445 0.99964141845703 0
vt 0.2078472673893 0.70741450786591 0
vt 0.9131663441658 0.99956721067429 0
vt 0.5 0.00209546089172 0
vt 0.49988535046577 0.00180888175964 0
vt 0.20760042965412 0.70731228590012 0
vt 0.49968129396439 0.00156688690186 0
vt 0.20735360682011 0.70721000432968 0
vt 0.49941828846931 0.00140535831451 0
vt 0.20710678398609 0.70710778236389 0
vt 0.5 0.00148069858551 0
vt 0.50017422437668 0.00118207931519 0
vt 0.499825745821 0.00118207931519 0
vt 0.5 0.00081217288971 0
vt 0.50038778781891 0.00093722343445 0
vt 0.49961218237877 0.00093722343445 0
vt 0.49980610609055 0.00046908855438 0
vt 0.50019389390945 0.00046908855438 0
vt 0.5 0.00000107288361 0
# 192 texture coordinates

o Octagon_web
usemtl Mat
f 15/1/1 5/2/1 4/3/1 22/4/1
f 19/5/1 21/6/1 20/7/1
f 14/8/1 23/9/1 5/2/1 15/1/1
f 13/10/1 1/11/1 19/5/1 20/7/1
f 12/12/1 2/13/1 1/11/1 13/10/1
f 18/14/1 3/15/1 2/13/1 12/12/1
f 14/8/1 6/16/1 13/10/1 20/7/1
f 15/1/1 7/17/1 6/16/1 14/8/1
f 6/16/1 8/18/1 12/12/1 13/10/1
f 7/17/1 9/19/1 8/18/1 6/16/1
f 20/7/1 21/6/1 23/9/1 14/8/1
f 17/20/1 7/17/1 15/1/1 22/4/1
f 8/18/1 11/21/1 18/14/1 12/12/1
f 9/19/1 10/22/1 11/21/1 8/18/1
f 16/23/1 9/19/1 7/17/1 17/20/1
f 24/24/1 10/22/1 9/19/1 16/23/1
f 41/25/1 43/26/1 42/27/1
f 38/28/1 25/29/1 3/30/1 18/31/1
f 37/32/1 40/33/1 25/29/1 38/28/1
f 36/34/1 26/35/1 41/25/1 42/27/1
f 35/36/1 27/37/1 26/35/1 36/34/1
f 39/38/1 28/39/1 27/37/1 35/36/1
f 37/32/1 29/40/1 36/34/1 42/27/1
f 38/28/1 30/41/1 29/40/1 37/32/1
f 29/40/1 31/42/1 35/36/1 36/34/1
f 42/27/1 43/26/1 40/33/1 37/32/1
f 30/41/1 32/43/1 31/42/1 29/40/1
f 11/44/1 30/41/1 38/28/1 18/31/1
f 31/42/1 34/45/1 39/38/1 35/36/1
f 32/43/1 33/46/1 34/45/1 31/42/1
f 10/47/1 32/43/1 30/41/1 11/44/1
f 24/48/1 33/46/1 32/43/1 10/47/1
f 54/49/1 59/50/1 44/51/1 45/52/1
f 53/53/1 60/54/1 59/50/1 54/49/1
f 62/55/1 61/56/1 60/54/1 53/53/1
f 56/57/1 47/58/1 28/59/1 39/60/1
f 55/61/1 48/62/1 47/58/1 56/57/1
f 55/61/1 49/63/1 54/49/1 45/52/1
f 56/57/1 50/64/1 49/63/1 55/61/1
f 44/51/1 46/65/1 45/52/1
f 45/52/1 46/65/1 48/62/1 55/61/1
f 49/63/1 51/66/1 53/53/1 54/49/1
f 50/64/1 52/67/1 51/66/1 49/63/1
f 34/68/1 50/64/1 56/57/1 39/60/1
f 51/66/1 57/69/1 62/55/1 53/53/1
f 52/67/1 58/70/1 57/69/1 51/66/1
f 33/71/1 52/67/1 50/64/1 34/68/1
f 24/72/1 58/70/1 52/67/1 33/71/1
f 78/73/1 80/74/1 61/75/1 62/76/1
f 77/77/1 81/78/1 80/74/1 78/73/1
f 76/79/1 63/80/1 66/81/1 67/82/1
f 75/83/1 64/84/1 63/80/1 76/79/1
f 79/85/1 65/86/1 64/84/1 75/83/1
f 77/77/1 69/87/1 76/79/1 67/82/1
f 66/81/1 68/88/1 67/82/1
f 78/73/1 70/89/1 69/87/1 77/77/1
f 69/87/1 71/90/1 75/83/1 76/79/1
f 70/89/1 72/91/1 71/90/1 69/87/1
f 57/92/1 70/89/1 78/73/1 62/76/1
f 71/90/1 74/93/1 79/85/1 75/83/1
f 72/91/1 73/94/1 74/93/1 71/90/1
f 58/95/1 72/91/1 70/89/1 57/92/1
f 24/96/1 73/94/1 72/91/1 58/95/1
f 67/82/1 68/88/1 81/78/1 77/77/1
f 98/97/1 85/98/1 65/99/1 79/100/1
f 97/101/1 100/102/1 85/98/1 98/97/1
f 96/103/1 82/104/1 87/105/1 88/106/1
f 95/107/1 83/108/1 82/104/1 96/103/1
f 99/109/1 84/110/1 83/108/1 95/107/1
f 87/105/1 89/111/1 88/106/1
f 97/101/1 86/112/1 96/103/1 88/106/1
f 98/97/1 90/113/1 86/112/1 97/101/1
f 86/112/1 91/114/1 95/107/1 96/103/1
f 90/113/1 92/115/1 91/114/1 86/112/1
f 74/116/1 90/113/1 98/97/1 79/100/1
f 91/114/1 94/117/1 99/109/1 95/107/1
f 92/115/1 93/118/1 94/117/1 91/114/1
f 73/119/1 92/115/1 90/113/1 74/116/1
f 88/106/1 89/111/1 100/102/1 97/101/1
f 24/120/1 93/118/1 92/115/1 73/119/1
f 117/121/1 104/122/1 84/123/1 99/124/1
f 116/125/1 119/126/1 104/122/1 117/121/1
f 115/127/1 101/128/1 109/129/1 110/130/1
f 114/131/1 102/132/1 101/128/1 115/127/1
f 109/129/1 111/133/1 110/130/1
f 118/134/1 103/135/1 102/132/1 114/131/1
f 116/125/1 105/136/1 115/127/1 110/130/1
f 117/121/1 106/137/1 105/136/1 116/125/1
f 105/136/1 107/138/1 114/131/1 115/127/1
f 106/137/1 108/139/1 107/138/1 105/136/1
f 94/140/1 106/137/1 117/121/1 99/124/1
f 107/138/1 113/141/1 118/134/1 114/131/1
f 108/139/1 112/142/1 113/141/1 107/138/1
f 110/130/1 111/133/1 119/126/1 116/125/1
f 93/143/1 108/139/1 106/137/1 94/140/1
f 24/144/1 112/142/1 108/139/1 93/143/1
f 136/145/1 123/146/1 103/147/1 118/148/1
f 135/149/1 138/150/1 123/146/1 136/145/1
f 134/151/1 120/152/1 131/153/1 132/154/1
f 131/153/1 133/155/1 132/154/1
f 130/156/1 121/157/1 120/152/1 134/151/1
f 137/158/1 122/159/1 121/157/1 130/156/1
f 135/149/1 124/160/1 134/151/1 132/154/1
f 136/145/1 125/161/1 124/160/1 135/149/1
f 124/160/1 126/162/1 130/156/1 134/151/1
f 125/161/1 127/163/1 126/162/1 124/160/1
f 113/164/1 125/161/1 136/145/1 118/148/1
f 126/162/1 129/165/1 137/158/1 130/156/1
f 132/154/1 133/155/1 138/150/1 135/149/1
f 127/163/1 128/166/1 129/165/1 126/162/1
f 112/167/1 127/163/1 125/161/1 113/164/1
f 24/168/1 128/166/1 127/163/1 112/167/1
f 149/169/1 141/170/1 122/171/1 137/172/1
f 148/173/1 153/174/1 141/170/1 149/169/1
f 150/175/1 152/176/1 151/177/1
f 147/178/1 139/179/1 150/175/1 151/177/1
f 146/180/1 140/181/1 139/179/1 147/178/1
f 22/182/1 4/183/1 140/181/1 146/180/1
f 148/173/1 142/184/1 147/178/1 151/177/1
f 149/169/1 143/185/1 142/184/1 148/173/1
f 142/184/1 144/186/1 146/180/1 147/178/1
f 143/185/1 145/187/1 144/186/1 142/184/1
f 129/188/1 143/185/1 149/169/1 137/172/1
f 151/177/1 152/176/1 153/174/1 148/173/1
f 144/186/1 17/189/1 22/182/1 146/180/1
f 145/187/1 16/190/1 17/189/1 144/186/1
f 128/191/1 145/187/1 143/185/1 129/188/1
f 24/192/1 16/190/1 145/187/1 128/191/1

