# WaveFront *.obj file (generated by CINEMA 4D)

mtllib ./OctagonShape_8.mtl

v -0.0055077993311 0.01107471995056 -0.01481109764427
v -0.00550952414051 0.01107380539179 -0.01481106318533
v -0.00551099563017 0.01107241399586 -0.01481103431433
v -0.00054406520212 0.01161850616336 -0.01490954961628
v -0.00054579979042 0.01161831617355 -0.01490951515734
v -0.00000464819823 0.00665668118745 -0.01492024865001
v -0.00000271242175 0.00665551889688 -0.01492028683424
v -0.00000470813029 0.00665442366153 -0.01492024771869
v -0.00000254822658 0.00665285252035 -0.01492029055953
v -0.00000258095815 0.00665027834475 -0.01492028962821
v -0.00000516191631 0.00665235053748 -0.01492023840547
v -0.00000674394596 0.00665617361665 -0.0149202067405
v -0.00000633579975 0.00665820110589 -0.0149202151224
v -0.00000502272724 0.0066589214839 -0.01492024119943
v -0.00000309384814 0.00665817642584 -0.01492027938366
v -0.0000003601873 0.00665149698034 -0.01492033340037
v -0.0000007203746 0.006654787343 -0.01492032688111
v -0.00000774287491 0.00665442226455 -0.01492018718272
v -0.0055060274899 0.01107513997704 -0.0148111321032
v -0.00000657934515 0.00666020251811 -0.01492021046579
v -0.00054926908342 0.01161793619394 -0.01490944623947
v -0.0000010805619 0.00665807817131 -0.01492031943053
v -0.00054753443692 0.01161812618375 -0.01490948069841
v 0 0.00664820661768 -0.01492034085095
v -0.00551203545183 0.01107067614794 -0.01481101289392
v -0.00496970210224 0.00610750447959 -0.01482177060097
v -0.00496951211244 0.00610576942563 -0.01482177432626
v -0.00496932212263 0.00610403437167 -0.01482177805156
v -0.00000927823203 0.0066509116441 -0.01492015644908
v -0.00000708753259 0.00665145879611 -0.01492020022124
v -0.00000772457224 0.00664927298203 -0.01492018811405
v -0.00000508649418 0.00664968974888 -0.01492024026811
v -0.00000328983901 0.00664784619585 -0.01492027565837
v -0.00000657967803 0.00664748623967 -0.01492021046579
v -0.00001040113511 0.00664907041937 -0.01492013502866
v -0.00001154590245 0.00665079290047 -0.0149201117456
v -0.00001112676364 0.00665223086253 -0.0149201201275
v -0.00000923600692 0.00665306812152 -0.0149201573804
v -0.00000986951636 0.00664712581784 -0.01492014527321
v -0.00551255559549 0.01106879394501 -0.01481100264937
v -0.00496989162639 0.00610923906788 -0.01482176687568
v -0.00001313297798 0.00665203575045 -0.01492008008063
v -0.00551258167252 0.01106697320938 -0.01481100264937
v -0.00442606257275 0.00114109588321 -0.01483255252242
v -0.00001199349117 0.00664162589237 -0.01492010336369
v -0.00496875215322 0.0060988292098 -0.01482178922743
v -0.00496913213283 0.00610229931772 -0.01482178177685
v -0.00496894214302 0.00610056426376 -0.01482178550214
v -0.0000084732028 0.00664355745539 -0.01492017321289
v -0.00000731086266 0.00664549367502 -0.01492019556463
v -0.00000621606432 0.00664349738508 -0.01492021791637
v -0.00000464516324 0.0066456575878 -0.01492024865001
v -0.00000796548102 0.00664146104828 -0.01492018252611
v -0.0000099925719 0.00664186943322 -0.01492014247924
v -0.00001071289262 0.00664318259805 -0.0149201285094
v -0.0000099678382 0.00664511229843 -0.01492014341056
v -0.00000414315309 0.00664304383099 -0.01492025889456
v -0.00000207157655 0.00664562499151 -0.01492029987276
v -0.00442564347759 0.0011393239256 -0.01483256090432
v -0.00442472845316 0.00113759888336 -0.01483257953078
v -0.00442333752289 0.00113612681162 -0.01483260653913
v -0.00000621472964 0.00664046220481 -0.01492021791637
v 0.00054059590911 0.00167752697598 -0.01493106316775
v 0.00054233055562 0.00167771696579 -0.01493109762669
v 0.00054406520212 0.00167790695559 -0.01493113208562
v 0.00053886137903 0.00167733733542 -0.01493102870882
v -0.00000382837925 0.00663507077843 -0.01492026541382
v -0.00441789766774 0.00113454076927 -0.01483271457255
v -0.00000270468649 0.00663892645389 -0.01492028683424
v -0.00000325158862 0.00664111739025 -0.01492027658969
v -0.00000106627078 0.0066404803656 -0.01492031943053
v -0.00000148275808 0.00664311926812 -0.01492031104863
v 0.0000003601873 0.00664491625503 -0.01492034830153
v 0.0000007203746 0.00664162542671 -0.01492035482079
v -0.00000086375553 0.00663780327886 -0.01492032408714
v -0.00000258572868 0.00663665821776 -0.01492028962821
v -0.00000402355363 0.00663707777858 -0.01492026075721
v -0.00000486064482 0.00663896882907 -0.01492024492472
v 0.0000010805619 0.00663833506405 -0.01492036227137
v -0.00442159967497 0.00113508687355 -0.01483264099807
v -0.00441971793771 0.0011345668463 -0.01483267918229
v 0.0055077993311 0.00222169281915 -0.01502958405763
v 0.00550952414051 0.00222260761075 -0.01502961851656
v 0.00551099563017 0.00222399900667 -0.01502964738756
v 0.00054579979042 0.0016780969454 -0.01493116654456
v 0.00000464819823 0.00663973158225 -0.01492043305188
v 0.0055060274899 0.00222127325833 -0.01502954959869
v 0.00000657934515 0.00663621071726 -0.01492047123611
v 0.00054926908342 0.00167847692501 -0.01493123546243
v 0.00000271242175 0.00664089433849 -0.01492039486766
v 0.00000470813029 0.00664198910818 -0.01492043398321
v 0.00000254822658 0.00664356024936 -0.01492039114237
v 0.00000258095815 0.00664613442495 -0.01492039207369
v 0.00000516191631 0.00664406269789 -0.01492044329643
v 0.00000674394596 0.00664023961872 -0.0149204749614
v 0.00000633579975 0.00663821212947 -0.0149204665795
v 0.00000502272724 0.00663749175146 -0.01492044050246
v 0.00000309384814 0.00663823680952 -0.01492040231824
v 0.00000774287491 0.00664199050516 -0.01492049451917
v 0.00054753443692 0.0016782869352 -0.01493120100349
v 0.00496970210224 0.00718890875578 -0.01501891203225
v 0.00496951211244 0.00719064380974 -0.01501890737563
v 0.00496932212263 0.00719237886369 -0.01501890365034
v 0.00551203545183 0.00222573732026 -0.01502966880798
v 0.00000927823203 0.0066455011256 -0.01492052525282
v 0.00000708753259 0.00664495443925 -0.01492048148066
v 0.00000772457224 0.00664714025334 -0.01492049451917
v 0.00000508649418 0.00664672348648 -0.01492044143379
v 0.00496989162639 0.00718717370182 -0.01501891575754
v 0.00001313297798 0.00664437748492 -0.01492060162127
v 0.00551258167252 0.00222944002599 -0.01502967905253
v 0.00000328983901 0.00664856657386 -0.01492040604353
v 0.00000657967803 0.00664892699569 -0.01492047123611
v 0.00001040113511 0.006647342816 -0.01492054760456
v 0.00001154590245 0.00664562033489 -0.0149205699563
v 0.00001112676364 0.00664418237284 -0.0149205615744
v 0.00000923600692 0.00664334511384 -0.0149205243215
v 0.00000986951636 0.00664928741753 -0.01492053642869
v 0.00551255559549 0.00222761929035 -0.01502967905253
v 0.00442564347759 0.01215708907694 -0.01500812079757
v 0.00442472845316 0.01215881388634 -0.01500810217112
v 0.00442333752289 0.01216028630733 -0.01500807516277
v 0.00496913213283 0.00719411391765 -0.01501889992505
v 0.0000084732028 0.00665285577998 -0.01492050848901
v 0.00000731086266 0.00665091956034 -0.01492048613727
v 0.00000621606432 0.00665291538462 -0.01492046378553
v 0.00000464516324 0.00665075518191 -0.01492043305188
v 0.00000207157655 0.0066507877782 -0.01492038182914
v 0.00000414315309 0.00665336940438 -0.01492042280734
v 0.00000796548102 0.00665495172143 -0.01492049917579
v 0.00442606257275 0.01215531677008 -0.01500812917948
v 0.00001199349117 0.006654787343 -0.01492057833821
v 0.00496875215322 0.0071975835599 -0.01501889247447
v 0.0000099925719 0.00665454380214 -0.01492053922266
v 0.00001071289262 0.00665323017165 -0.0149205531925
v 0.0000099678382 0.00665130093694 -0.01492053829134
v 0.00000621472964 0.00665595103055 -0.01492046378553
v 0.00496894214302 0.00719584850594 -0.01501889619976
v -0.00054059590911 0.01161888614297 -0.01490961853415
v -0.00054233055562 0.01161869615316 -0.01490958407521
v 0.00442159967497 0.01216132659465 -0.01500804070383
v 0.00000270468649 0.00665748678148 -0.01492039486766
v 0.00000325158862 0.00665529537946 -0.01492040511221
v 0.00000106627078 0.0066559324041 -0.01492036227137
v 0.00000148275808 0.00665329396725 -0.01492037065327
v 0.00000086375553 0.00665860949084 -0.01492035761476
v 0.00000258572868 0.00665975455195 -0.01492039207369
v 0.00000402355363 0.00665933545679 -0.01492042094469
v 0.00000486064482 0.0066574444063 -0.0149204377085
v -0.00053886137903 0.01161907613277 -0.01490965299308
v 0.00000382837925 0.00666134199128 -0.0149204172194
v 0.00441789766774 0.01216187234968 -0.01500796712935
v 0.00441971793771 0.01216184627265 -0.01500800345093
# 153 vertices

vn -0.01983042992651 0 -0.99980336427689
# 1 normal

vt 0.49968060851097 0.00156652927399 0
vt 0.20735290646553 0.70720970630646 0
vt 0.20710608363152 0.70710748434067 0
vt 0.49941757321358 0.00140511989594 0
vt 0.91316568851471 0.99956691265106 0
vt 0.20784656703472 0.70741420984268 0
vt 0.49999928474426 0.00209510326385 0
vt 0.49988463521004 0.00180864334106 0
vt 0.20759972929955 0.70731198787689 0
vt 0.50011396408081 0.00180864334106 0
vt 0.91343432664871 0.99964112043381 0
vt 0.50031799077988 0.00156652927399 0
vt 0.91373318433762 0.99964529275894 0
vt 0.50058102607727 0.00140511989594 0
vt 0.91403317451477 0.99956691265106 0
vt 0.49999928474426 0.00148034095764 0
vt 0.49982506036758 0.00118184089661 0
vt 0.50017356872559 0.00118184089661 0
vt 0.49999928474426 0.00081193447113 0
vt 0.49961149692535 0.00093698501587 0
vt 0.50038713216782 0.00093698501587 0
vt 0.50019317865372 0.0004688501358 0
vt 0.49980539083481 0.0004688501358 0
vt 0.49999928474426 0.00000071525574 0
vt 0.20784825086594 0.70741349458694 0
vt 0.91316735744476 0.99956625699997 0
vt 0.50000101327896 0.00209438800812 0
vt 0.50031971931458 0.00156581401825 0
vt 0.91373491287231 0.9996445775032 0
vt 0.91403490304947 0.99956625699997 0
vt 0.50058269500732 0.0014044046402 0
vt 0.50011563301086 0.00180792808533 0
vt 0.91343605518341 0.99964040517807 0
vt 0.49988633394241 0.00180792808533 0
vt 0.20760142803192 0.70731127262115 0
vt 0.49968227744102 0.00156581401825 0
vt 0.20735460519791 0.70720905065536 0
vt 0.49941927194595 0.0014044046402 0
vt 0.20710776746273 0.70710676908493 0
vt 0.50000101327896 0.00147974491119 0
vt 0.50017523765564 0.00118112564087 0
vt 0.49982672929764 0.00118112564087 0
vt 0.50000101327896 0.00081121921539 0
vt 0.50038880109787 0.00093626976013 0
vt 0.49961319565773 0.00093626976013 0
vt 0.49980708956718 0.00046813488007 0
vt 0.50019490718842 0.00046813488007 0
vt 0.50000101327896 0 0
vt 0.50011396408081 0.00180721282959 0
vt 0.91343432664871 0.99963974952698 0
vt 0.91316568851471 0.99956554174423 0
vt 0.49999928474426 0.00209367275238 0
vt 0.50031799077988 0.00156509876251 0
vt 0.91373318433762 0.99964392185211 0
vt 0.50058102607727 0.00140368938446 0
vt 0.91403317451477 0.99956554174423 0
vt 0.49968060851097 0.00156509876251 0
vt 0.20735290646553 0.70720833539963 0
vt 0.20710608363152 0.70710611343384 0
vt 0.49941757321358 0.00140368938446 0
vt 0.49988463521004 0.00180721282959 0
vt 0.20759972929955 0.70731055736542 0
vt 0.49999928474426 0.00147902965546 0
vt 0.49982506036758 0.00118041038513 0
vt 0.20784656703472 0.70741283893585 0
vt 0.50017356872559 0.00118041038513 0
vt 0.49999928474426 0.00081050395966 0
vt 0.49961149692535 0.00093555450439 0
vt 0.50038713216782 0.00093555450439 0
vt 0.50019317865372 0.00046741962433 0
vt 0.49980539083481 0.00046741962433 0
vt 0.49999928474426 -0.00000071525574 0
vt 0.50031870603561 0.00156486034393 0
vt 0.91373389959335 0.99964362382889 0
vt 0.91403388977051 0.99956524372101 0
vt 0.50058174133301 0.00140345096588 0
vt 0.5001146197319 0.00180685520172 0
vt 0.91343504190445 0.99963945150375 0
vt 0.49988535046577 0.00180685520172 0
vt 0.20760042965412 0.70731025934219 0
vt 0.2078472673893 0.70741254091263 0
vt 0.5 0.0020934343338 0
vt 0.49968129396439 0.00156486034393 0
vt 0.20735360682011 0.7072080373764 0
vt 0.49941828846931 0.00140345096588 0
vt 0.20710678398609 0.70710581541061 0
vt 0.5 0.00147867202759 0
vt 0.9131663441658 0.99956524372101 0
vt 0.50017422437668 0.00118017196655 0
vt 0.499825745821 0.00118017196655 0
vt 0.5 0.00081026554108 0
vt 0.50038778781891 0.00093531608582 0
vt 0.49961218237877 0.00093531608582 0
vt 0.49980610609055 0.00046718120575 0
vt 0.50019389390945 0.00046718120575 0
vt 0.5 -0.00000095367432 0
vt 0.49968200922012 0.00156509876251 0
vt 0.20735430717468 0.70720833539963 0
vt 0.20710748434067 0.70710611343384 0
vt 0.49941897392273 0.00140368938446 0
vt 0.49988606572151 0.00180721282959 0
vt 0.2076011300087 0.70731055736542 0
vt 0.50011533498764 0.00180721282959 0
vt 0.91343575716019 0.99963974952698 0
vt 0.91316705942154 0.99956554174423 0
vt 0.50000071525574 0.00209367275238 0
vt 0.50031942129135 0.00156509876251 0
vt 0.91373461484909 0.99964392185211 0
vt 0.5005823969841 0.00140368938446 0
vt 0.91403460502625 0.99956554174423 0
vt 0.20784796774387 0.70741283893585 0
vt 0.50000071525574 0.00147902965546 0
vt 0.49982646107674 0.00118041038513 0
vt 0.50017493963242 0.00118041038513 0
vt 0.50000071525574 0.00081050395966 0
vt 0.49961289763451 0.00093555450439 0
vt 0.50038850307465 0.00093555450439 0
vt 0.50019460916519 0.00046741962433 0
vt 0.49980679154396 0.00046741962433 0
vt 0.50000071525574 -0.00000071525574 0
vt 0.50031769275665 0.00156581401825 0
vt 0.91373288631439 0.9996445775032 0
vt 0.91403287649155 0.99956625699997 0
vt 0.50058072805405 0.0014044046402 0
vt 0.50011366605759 0.00180792808533 0
vt 0.91343408823013 0.99964040517807 0
vt 0.49988436698914 0.00180792808533 0
vt 0.20759944617748 0.70731127262115 0
vt 0.2078462690115 0.70741349458694 0
vt 0.49999901652336 0.00209438800812 0
vt 0.49968031048775 0.00156581401825 0
vt 0.20735262334347 0.70720905065536 0
vt 0.91316539049149 0.99956625699997 0
vt 0.49941730499268 0.0014044046402 0
vt 0.20710578560829 0.70710676908493 0
vt 0.49999901652336 0.00147974491119 0
vt 0.50017327070236 0.00118112564087 0
vt 0.49982476234436 0.00118112564087 0
vt 0.49999901652336 0.00081121921539 0
vt 0.50038683414459 0.00093626976013 0
vt 0.49961119890213 0.00093626976013 0
vt 0.49980509281158 0.00046813488007 0
vt 0.50019294023514 0.00046813488007 0
vt 0.49999901652336 0 0
vt 0.49968200922012 0.00156652927399 0
vt 0.20735430717468 0.70720970630646 0
vt 0.20710748434067 0.70710748434067 0
vt 0.49941897392273 0.00140511989594 0
vt 0.49988606572151 0.00180864334106 0
vt 0.2076011300087 0.70731198787689 0
vt 0.50011533498764 0.00180864334106 0
vt 0.91343575716019 0.99964112043381 0
vt 0.91316705942154 0.99956691265106 0
vt 0.50000071525574 0.00209510326385 0
vt 0.20784796774387 0.70741420984268 0
vt 0.50031942129135 0.00156652927399 0
vt 0.91373461484909 0.99964529275894 0
vt 0.5005823969841 0.00140511989594 0
vt 0.91403460502625 0.99956691265106 0
vt 0.50000071525574 0.00148034095764 0
vt 0.49982646107674 0.00118184089661 0
vt 0.50017493963242 0.00118184089661 0
vt 0.50000071525574 0.00081193447113 0
vt 0.49961289763451 0.00093698501587 0
vt 0.50038850307465 0.00093698501587 0
vt 0.50019460916519 0.0004688501358 0
vt 0.49980679154396 0.0004688501358 0
vt 0.50000071525574 0.00000071525574 0
vt 0.50031870603561 0.00156688690186 0
vt 0.91373389959335 0.99964559078217 0
vt 0.91403388977051 0.99956721067429 0
vt 0.50058174133301 0.00140535831451 0
vt 0.5001146197319 0.00180888175964 0
vt 0.91343504190445 0.99964141845703 0
vt 0.2078472673893 0.70741450786591 0
vt 0.9131663441658 0.99956721067429 0
vt 0.5 0.00209546089172 0
vt 0.49988535046577 0.00180888175964 0
vt 0.20760042965412 0.70731228590012 0
vt 0.49968129396439 0.00156688690186 0
vt 0.20735360682011 0.70721000432968 0
vt 0.49941828846931 0.00140535831451 0
vt 0.20710678398609 0.70710778236389 0
vt 0.5 0.00148069858551 0
vt 0.50017422437668 0.00118207931519 0
vt 0.499825745821 0.00118207931519 0
vt 0.5 0.00081217288971 0
vt 0.50038778781891 0.00093722343445 0
vt 0.49961218237877 0.00093722343445 0
vt 0.49980610609055 0.00046908855438 0
vt 0.50019389390945 0.00046908855438 0
vt 0.5 0.00000107288361 0
# 192 texture coordinates

o Octagon_web
usemtl Mat
f 15/1/1 5/2/1 4/3/1 22/4/1
f 19/5/1 21/6/1 20/7/1
f 14/8/1 23/9/1 5/2/1 15/1/1
f 13/10/1 1/11/1 19/5/1 20/7/1
f 12/12/1 2/13/1 1/11/1 13/10/1
f 18/14/1 3/15/1 2/13/1 12/12/1
f 14/8/1 6/16/1 13/10/1 20/7/1
f 15/1/1 7/17/1 6/16/1 14/8/1
f 6/16/1 8/18/1 12/12/1 13/10/1
f 7/17/1 9/19/1 8/18/1 6/16/1
f 20/7/1 21/6/1 23/9/1 14/8/1
f 17/20/1 7/17/1 15/1/1 22/4/1
f 8/18/1 11/21/1 18/14/1 12/12/1
f 9/19/1 10/22/1 11/21/1 8/18/1
f 16/23/1 9/19/1 7/17/1 17/20/1
f 24/24/1 10/22/1 9/19/1 16/23/1
f 41/25/1 43/26/1 42/27/1
f 38/28/1 25/29/1 3/30/1 18/31/1
f 37/32/1 40/33/1 25/29/1 38/28/1
f 36/34/1 26/35/1 41/25/1 42/27/1
f 35/36/1 27/37/1 26/35/1 36/34/1
f 39/38/1 28/39/1 27/37/1 35/36/1
f 37/32/1 29/40/1 36/34/1 42/27/1
f 38/28/1 30/41/1 29/40/1 37/32/1
f 29/40/1 31/42/1 35/36/1 36/34/1
f 42/27/1 43/26/1 40/33/1 37/32/1
f 30/41/1 32/43/1 31/42/1 29/40/1
f 11/44/1 30/41/1 38/28/1 18/31/1
f 31/42/1 34/45/1 39/38/1 35/36/1
f 32/43/1 33/46/1 34/45/1 31/42/1
f 10/47/1 32/43/1 30/41/1 11/44/1
f 24/48/1 33/46/1 32/43/1 10/47/1
f 54/49/1 59/50/1 44/51/1 45/52/1
f 53/53/1 60/54/1 59/50/1 54/49/1
f 62/55/1 61/56/1 60/54/1 53/53/1
f 56/57/1 47/58/1 28/59/1 39/60/1
f 55/61/1 48/62/1 47/58/1 56/57/1
f 55/61/1 49/63/1 54/49/1 45/52/1
f 56/57/1 50/64/1 49/63/1 55/61/1
f 44/51/1 46/65/1 45/52/1
f 45/52/1 46/65/1 48/62/1 55/61/1
f 49/63/1 51/66/1 53/53/1 54/49/1
f 50/64/1 52/67/1 51/66/1 49/63/1
f 34/68/1 50/64/1 56/57/1 39/60/1
f 51/66/1 57/69/1 62/55/1 53/53/1
f 52/67/1 58/70/1 57/69/1 51/66/1
f 33/71/1 52/67/1 50/64/1 34/68/1
f 24/72/1 58/70/1 52/67/1 33/71/1
f 78/73/1 80/74/1 61/75/1 62/76/1
f 77/77/1 81/78/1 80/74/1 78/73/1
f 76/79/1 63/80/1 66/81/1 67/82/1
f 75/83/1 64/84/1 63/80/1 76/79/1
f 79/85/1 65/86/1 64/84/1 75/83/1
f 77/77/1 69/87/1 76/79/1 67/82/1
f 66/81/1 68/88/1 67/82/1
f 78/73/1 70/89/1 69/87/1 77/77/1
f 69/87/1 71/90/1 75/83/1 76/79/1
f 70/89/1 72/91/1 71/90/1 69/87/1
f 57/92/1 70/89/1 78/73/1 62/76/1
f 71/90/1 74/93/1 79/85/1 75/83/1
f 72/91/1 73/94/1 74/93/1 71/90/1
f 58/95/1 72/91/1 70/89/1 57/92/1
f 24/96/1 73/94/1 72/91/1 58/95/1
f 67/82/1 68/88/1 81/78/1 77/77/1
f 98/97/1 85/98/1 65/99/1 79/100/1
f 97/101/1 100/102/1 85/98/1 98/97/1
f 96/103/1 82/104/1 87/105/1 88/106/1
f 95/107/1 83/108/1 82/104/1 96/103/1
f 99/109/1 84/110/1 83/108/1 95/107/1
f 87/105/1 89/111/1 88/106/1
f 97/101/1 86/112/1 96/103/1 88/106/1
f 98/97/1 90/113/1 86/112/1 97/101/1
f 86/112/1 91/114/1 95/107/1 96/103/1
f 90/113/1 92/115/1 91/114/1 86/112/1
f 74/116/1 90/113/1 98/97/1 79/100/1
f 91/114/1 94/117/1 99/109/1 95/107/1
f 92/115/1 93/118/1 94/117/1 91/114/1
f 73/119/1 92/115/1 90/113/1 74/116/1
f 88/106/1 89/111/1 100/102/1 97/101/1
f 24/120/1 93/118/1 92/115/1 73/119/1
f 117/121/1 104/122/1 84/123/1 99/124/1
f 116/125/1 119/126/1 104/122/1 117/121/1
f 115/127/1 101/128/1 109/129/1 110/130/1
f 114/131/1 102/132/1 101/128/1 115/127/1
f 109/129/1 111/133/1 110/130/1
f 118/134/1 103/135/1 102/132/1 114/131/1
f 116/125/1 105/136/1 115/127/1 110/130/1
f 117/121/1 106/137/1 105/136/1 116/125/1
f 105/136/1 107/138/1 114/131/1 115/127/1
f 106/137/1 108/139/1 107/138/1 105/136/1
f 94/140/1 106/137/1 117/121/1 99/124/1
f 107/138/1 113/141/1 118/134/1 114/131/1
f 108/139/1 112/142/1 113/141/1 107/138/1
f 110/130/1 111/133/1 119/126/1 116/125/1
f 93/143/1 108/139/1 106/137/1 94/140/1
f 24/144/1 112/142/1 108/139/1 93/143/1
f 136/145/1 123/146/1 103/147/1 118/148/1
f 135/149/1 138/150/1 123/146/1 136/145/1
f 134/151/1 120/152/1 131/153/1 132/154/1
f 131/153/1 133/155/1 132/154/1
f 130/156/1 121/157/1 120/152/1 134/151/1
f 137/158/1 122/159/1 121/157/1 130/156/1
f 135/149/1 124/160/1 134/151/1 132/154/1
f 136/145/1 125/161/1 124/160/1 135/149/1
f 124/160/1 126/162/1 130/156/1 134/151/1
f 125/161/1 127/163/1 126/162/1 124/160/1
f 113/164/1 125/161/1 136/145/1 118/148/1
f 126/162/1 129/165/1 137/158/1 130/156/1
f 132/154/1 133/155/1 138/150/1 135/149/1
f 127/163/1 128/166/1 129/165/1 126/162/1
f 112/167/1 127/163/1 125/161/1 113/164/1
f 24/168/1 128/166/1 127/163/1 112/167/1
f 149/169/1 141/170/1 122/171/1 137/172/1
f 148/173/1 153/174/1 141/170/1 149/169/1
f 150/175/1 152/176/1 151/177/1
f 147/178/1 139/179/1 150/175/1 151/177/1
f 146/180/1 140/181/1 139/179/1 147/178/1
f 22/182/1 4/183/1 140/181/1 146/180/1
f 148/173/1 142/184/1 147/178/1 151/177/1
f 149/169/1 143/185/1 142/184/1 148/173/1
f 142/184/1 144/186/1 146/180/1 147/178/1
f 143/185/1 145/187/1 144/186/1 142/184/1
f 129/188/1 143/185/1 149/169/1 137/172/1
f 151/177/1 152/176/1 153/174/1 148/173/1
f 144/186/1 17/189/1 22/182/1 146/180/1
f 145/187/1 16/190/1 17/189/1 144/186/1
f 128/191/1 145/187/1 143/185/1 129/188/1
f 24/192/1 16/190/1 145/187/1 128/191/1

