# WaveFront *.obj file (generated by CINEMA 4D)

mtllib ./OctagonShape_9.mtl

v -0.00556581141427 0.01013903319836 -0.01474863663316
v -0.00556752365083 0.0101380944252 -0.01474859192967
v -0.00556897651404 0.0101366834715 -0.01474855374545
v -0.00061054568505 0.01074932795018 -0.01487876661122
v -0.00061227736296 0.01074911467731 -0.01487872097641
v -0.00000476066953 0.0057951817289 -0.01489467546344
v -0.00000280977315 0.00579404551536 -0.01489472668618
v -0.00000479033179 0.00579292373732 -0.01489467453212
v -0.00000260988509 0.00579138146713 -0.01489473227412
v -0.00000260811225 0.00578880729154 -0.01489473227412
v -0.00000521622451 0.00579084455967 -0.01489466335624
v -0.00000684911311 0.00579464575276 -0.01489462051541
v -0.00000646823537 0.00579667882994 -0.01489463075995
v -0.00000516513046 0.00579741690308 -0.01489466428757
v -0.00000322672349 0.00579669745639 -0.01489471551031
v -0.0000004041994 0.00579005526379 -0.01489479001611
v -0.0000008083988 0.00579334096983 -0.01489477884024
v -0.00000782433654 0.0057928818278 -0.01489459443837
v -0.00556404562667 0.01013947557658 -0.01474868319929
v -0.00000673854356 0.00579867651686 -0.01489462330937
v -0.00061574071879 0.01074868813157 -0.01487863063812
v -0.00000121259814 0.00579662621021 -0.0148947685957
v -0.00061400904087 0.01074890140444 -0.01487867627293
v 0 0.00578677002341 -0.01489480026066
v -0.00556999258697 0.01013493165374 -0.01474852673709
v -0.00496127363294 0.00517947832122 -0.01476451288909
v -0.00496106036007 0.00517774606124 -0.01476451847702
v -0.0049608470872 0.00517601380125 -0.01476452406496
v -0.00000931227896 0.00578935071826 -0.01489455625415
v -0.00000712943165 0.00578992674127 -0.01489461306483
v -0.00000773702686 0.00578773301095 -0.01489459723234
v -0.00000510515974 0.0057881847024 -0.01489466615021
v -0.00000328422834 0.00578636582941 -0.01489471364766
v -0.00000656845668 0.00578596116975 -0.01489462796599
v -0.00001041023916 0.00578749459237 -0.01489452738315
v -0.00001157781571 0.00578920124099 -0.0148944966495
v -0.00001117804914 0.00579064479098 -0.01489450689405
v -0.00000929896305 0.00579150719568 -0.01489455625415
v -0.00000985268434 0.00578555697575 -0.01489454135299
v -0.00557048711926 0.01013304293156 -0.01474851369858
v -0.00496148644015 0.00518121058121 -0.01476450730115
v -0.00001318117029 0.00579042267054 -0.01489445380867
v -0.00557048851624 0.01013122219592 -0.01474851369858
v -0.00435120565817 0.00022080593044 -0.01478053350002
v -0.0000119024462 0.00578002911061 -0.01489448733628
v -0.00496020773426 0.00517081702128 -0.01476454082876
v -0.00496063428 0.00517428154126 -0.01476452965289
v -0.00496042100713 0.00517254928127 -0.01476453524083
v -0.00000840888151 0.00578200770542 -0.01489457953721
v -0.00000727276574 0.00578395929188 -0.01489460933954
v -0.00000615147701 0.0057819779031 -0.01489463914186
v -0.00000460990123 0.00578415906057 -0.01489467918873
v -0.00000787318913 0.00577991874889 -0.01489459350705
v -0.00000990526769 0.00578029965982 -0.01489454042166
v -0.00001064301796 0.00578160304576 -0.01489452086389
v -0.000009923996 0.00578354205936 -0.01489453949034
v -0.00000407297603 0.00578155182302 -0.01489469315857
v -0.00000203648801 0.00578416092321 -0.01489474717528
v -0.00435076281428 0.00021903966262 -0.01478054467589
v -0.00434982497245 0.00021732712048 -0.0147805698216
v -0.00434841448441 0.0002158737916 -0.0147806070745
v -0.00000610946381 0.00577894318849 -0.01489464007318
v 0.00060708238743 0.00082378595835 -0.0149107426405
v 0.00060881406534 0.00082399923122 -0.0149107882753
v 0.00061054568505 0.00082421244588 -0.01491083391011
v 0.00060535076773 0.00082357309293 -0.01491069700569
v -0.00000365143092 0.00577358435839 -0.01489470433444
v -0.00434295460582 0.00021436082898 -0.01478075049818
v -0.00000257967554 0.00577745446935 -0.01489473227412
v -0.00000315581224 0.00577963795513 -0.01489471737295
v -0.00000096247516 0.00577903026715 -0.01489477511495
v -0.00000141422481 0.00578166311607 -0.01489476300776
v 0.0000004041994 0.00578348478302 -0.01489481050521
v 0.0000008083988 0.00578019954264 -0.01489482168108
v -0.00000072413081 0.00577635644004 -0.01489478163421
v -0.00000243034947 0.00577518809587 -0.01489473693073
v -0.00000387345108 0.00577558809891 -0.0148946987465
v -0.00000473568707 0.00577746797353 -0.01489467639476
v 0.00000121259814 0.0057769138366 -0.01489483192563
v -0.00434666313231 0.00021485723846 -0.01478065270931
v -0.00434477487579 0.00021436250245 -0.0147807020694
v 0.00556581141427 0.00143450731412 -0.01504096388817
v 0.00556752365083 0.00143544527236 -0.01504100859165
v 0.00556897651404 0.00143685634248 -0.01504104677588
v 0.00061227736296 0.00082442571875 -0.01491087954491
v 0.00000476066953 0.00577835831791 -0.01489492505789
v 0.00556404562667 0.0014340642374 -0.01504091732204
v 0.00000673854356 0.00577486352995 -0.01489497721195
v 0.00061574071879 0.00082485214807 -0.0149109698832
v 0.00000280977315 0.00577949499711 -0.01489487383515
v 0.00000479033179 0.00578061630949 -0.01489492598921
v 0.00000260988509 0.00578215857968 -0.01489486917853
v 0.00000260811225 0.00578473275527 -0.01489486917853
v 0.00000521622451 0.00578269548714 -0.01489493716508
v 0.00000684911311 0.00577889429405 -0.01489498000592
v 0.00000646823537 0.00577686121687 -0.01489496976137
v 0.00000516513046 0.00577612314373 -0.01489493623376
v 0.00000322672349 0.00577684259042 -0.01489488501102
v 0.00000782433654 0.00578065868467 -0.01489500608295
v 0.00061400904087 0.00082463893341 -0.01491092517972
v 0.00496127363294 0.00639406172559 -0.01502508856356
v 0.00496106036007 0.00639579398558 -0.01502508297563
v 0.0049608470872 0.00639752624556 -0.01502507738769
v 0.00556999258697 0.00143860839307 -0.01504107378423
v 0.00000931227896 0.00578418932855 -0.0148950451985
v 0.00000712943165 0.00578361330554 -0.0148949874565
v 0.00000773702686 0.00578580703586 -0.01489500328898
v 0.00000510515974 0.00578535534441 -0.01489493437111
v 0.00496148644015 0.0063923294656 -0.0150250941515
v 0.00001318117029 0.00578311737627 -0.01489514671266
v 0.00557048851624 0.0014423179673 -0.01504108682275
v 0.00000328422834 0.0057871742174 -0.01489488687366
v 0.00000656845668 0.00578757887706 -0.01489497255534
v 0.00001041023916 0.00578604545444 -0.0148950740695
v 0.00001157781571 0.00578433880582 -0.01489510480314
v 0.00001117804914 0.00578289525583 -0.01489509362727
v 0.00000929896305 0.00578203285113 -0.01489504426718
v 0.00000985268434 0.00578798307106 -0.01489505916834
v 0.00557048711926 0.00144049723167 -0.01504108682275
v 0.00435076281428 0.01135450042784 -0.01500905584544
v 0.00434982497245 0.01135621313006 -0.01500903069973
v 0.00434841448441 0.01135766599327 -0.01500899437815
v 0.00496063428 0.00639925850555 -0.01502507179976
v 0.00000840888151 0.00579153234139 -0.01489502098411
v 0.00000727276574 0.00578958075494 -0.01489499118179
v 0.00000615147701 0.00579156214371 -0.01489496231079
v 0.00000460990123 0.00578938098624 -0.0148949213326
v 0.00000203648801 0.0057893791236 -0.01489485427737
v 0.00000407297603 0.00579198822379 -0.01489490736276
v 0.00000787318913 0.00579362129793 -0.01489500701427
v 0.00435120565817 0.01135273370892 -0.01500906702131
v 0.0000119024462 0.0057935109362 -0.01489511318505
v 0.00496020773426 0.00640272302553 -0.01502506062388
v 0.00000990526769 0.00579324038699 -0.01489506009966
v 0.00001064301796 0.00579193700105 -0.01489507965744
v 0.000009923996 0.00578999798745 -0.01489506103098
v 0.00000610946381 0.00579459685832 -0.01489496044815
v 0.00496042100713 0.00640099076554 -0.01502506621182
v -0.00060708238743 0.01074975449592 -0.01487885788083
v -0.00060881406534 0.01074954122305 -0.01487881224602
v 0.00434666313231 0.01135868299752 -0.01500894781202
v 0.00000257967554 0.00579608557746 -0.01489486824721
v 0.00000315581224 0.00579390209168 -0.01489488314837
v 0.00000096247516 0.00579450977966 -0.01489482540637
v 0.00000141422481 0.00579187693074 -0.01489483751357
v 0.00000072413081 0.00579718407243 -0.01489481981844
v 0.00000243034947 0.00579835195094 -0.01489486452192
v 0.00000387345108 0.0057979519479 -0.01489490177482
v 0.00000473568707 0.00579607207328 -0.01489492505789
v -0.00060535076773 0.01074996683747 -0.01487890351564
v 0.00000365143092 0.00579995568842 -0.01489489618689
v 0.00434295460582 0.01135917939246 -0.01500885095447
v 0.00434477487579 0.01135917752981 -0.01500889845192
# 153 vertices

vn -0.02625192329288 0 -0.99965536594391
# 1 normal

vt 0.49968060851097 0.00156652927399 0
vt 0.20735290646553 0.70720970630646 0
vt 0.20710608363152 0.70710748434067 0
vt 0.49941757321358 0.00140511989594 0
vt 0.91316568851471 0.99956691265106 0
vt 0.20784656703472 0.70741420984268 0
vt 0.49999928474426 0.00209510326385 0
vt 0.49988463521004 0.00180864334106 0
vt 0.20759972929955 0.70731198787689 0
vt 0.50011396408081 0.00180864334106 0
vt 0.91343432664871 0.99964112043381 0
vt 0.50031799077988 0.00156652927399 0
vt 0.91373318433762 0.99964529275894 0
vt 0.50058102607727 0.00140511989594 0
vt 0.91403317451477 0.99956691265106 0
vt 0.49999928474426 0.00148034095764 0
vt 0.49982506036758 0.00118184089661 0
vt 0.50017356872559 0.00118184089661 0
vt 0.49999928474426 0.00081193447113 0
vt 0.49961149692535 0.00093698501587 0
vt 0.50038713216782 0.00093698501587 0
vt 0.50019317865372 0.0004688501358 0
vt 0.49980539083481 0.0004688501358 0
vt 0.49999928474426 0.00000071525574 0
vt 0.20784825086594 0.70741349458694 0
vt 0.91316735744476 0.99956625699997 0
vt 0.50000101327896 0.00209438800812 0
vt 0.50031971931458 0.00156581401825 0
vt 0.91373491287231 0.9996445775032 0
vt 0.91403490304947 0.99956625699997 0
vt 0.50058269500732 0.0014044046402 0
vt 0.50011563301086 0.00180792808533 0
vt 0.91343605518341 0.99964040517807 0
vt 0.49988633394241 0.00180792808533 0
vt 0.20760142803192 0.70731127262115 0
vt 0.49968227744102 0.00156581401825 0
vt 0.20735460519791 0.70720905065536 0
vt 0.49941927194595 0.0014044046402 0
vt 0.20710776746273 0.70710676908493 0
vt 0.50000101327896 0.00147974491119 0
vt 0.50017523765564 0.00118112564087 0
vt 0.49982672929764 0.00118112564087 0
vt 0.50000101327896 0.00081121921539 0
vt 0.50038880109787 0.00093626976013 0
vt 0.49961319565773 0.00093626976013 0
vt 0.49980708956718 0.00046813488007 0
vt 0.50019490718842 0.00046813488007 0
vt 0.50000101327896 0 0
vt 0.50011396408081 0.00180721282959 0
vt 0.91343432664871 0.99963974952698 0
vt 0.91316568851471 0.99956554174423 0
vt 0.49999928474426 0.00209367275238 0
vt 0.50031799077988 0.00156509876251 0
vt 0.91373318433762 0.99964392185211 0
vt 0.50058102607727 0.00140368938446 0
vt 0.91403317451477 0.99956554174423 0
vt 0.49968060851097 0.00156509876251 0
vt 0.20735290646553 0.70720833539963 0
vt 0.20710608363152 0.70710611343384 0
vt 0.49941757321358 0.00140368938446 0
vt 0.49988463521004 0.00180721282959 0
vt 0.20759972929955 0.70731055736542 0
vt 0.49999928474426 0.00147902965546 0
vt 0.49982506036758 0.00118041038513 0
vt 0.20784656703472 0.70741283893585 0
vt 0.50017356872559 0.00118041038513 0
vt 0.49999928474426 0.00081050395966 0
vt 0.49961149692535 0.00093555450439 0
vt 0.50038713216782 0.00093555450439 0
vt 0.50019317865372 0.00046741962433 0
vt 0.49980539083481 0.00046741962433 0
vt 0.49999928474426 -0.00000071525574 0
vt 0.50031870603561 0.00156486034393 0
vt 0.91373389959335 0.99964362382889 0
vt 0.91403388977051 0.99956524372101 0
vt 0.50058174133301 0.00140345096588 0
vt 0.5001146197319 0.00180685520172 0
vt 0.91343504190445 0.99963945150375 0
vt 0.49988535046577 0.00180685520172 0
vt 0.20760042965412 0.70731025934219 0
vt 0.2078472673893 0.70741254091263 0
vt 0.5 0.0020934343338 0
vt 0.49968129396439 0.00156486034393 0
vt 0.20735360682011 0.7072080373764 0
vt 0.49941828846931 0.00140345096588 0
vt 0.20710678398609 0.70710581541061 0
vt 0.5 0.00147867202759 0
vt 0.9131663441658 0.99956524372101 0
vt 0.50017422437668 0.00118017196655 0
vt 0.499825745821 0.00118017196655 0
vt 0.5 0.00081026554108 0
vt 0.50038778781891 0.00093531608582 0
vt 0.49961218237877 0.00093531608582 0
vt 0.49980610609055 0.00046718120575 0
vt 0.50019389390945 0.00046718120575 0
vt 0.5 -0.00000095367432 0
vt 0.49968200922012 0.00156509876251 0
vt 0.20735430717468 0.70720833539963 0
vt 0.20710748434067 0.70710611343384 0
vt 0.49941897392273 0.00140368938446 0
vt 0.49988606572151 0.00180721282959 0
vt 0.2076011300087 0.70731055736542 0
vt 0.50011533498764 0.00180721282959 0
vt 0.91343575716019 0.99963974952698 0
vt 0.91316705942154 0.99956554174423 0
vt 0.50000071525574 0.00209367275238 0
vt 0.50031942129135 0.00156509876251 0
vt 0.91373461484909 0.99964392185211 0
vt 0.5005823969841 0.00140368938446 0
vt 0.91403460502625 0.99956554174423 0
vt 0.20784796774387 0.70741283893585 0
vt 0.50000071525574 0.00147902965546 0
vt 0.49982646107674 0.00118041038513 0
vt 0.50017493963242 0.00118041038513 0
vt 0.50000071525574 0.00081050395966 0
vt 0.49961289763451 0.00093555450439 0
vt 0.50038850307465 0.00093555450439 0
vt 0.50019460916519 0.00046741962433 0
vt 0.49980679154396 0.00046741962433 0
vt 0.50000071525574 -0.00000071525574 0
vt 0.50031769275665 0.00156581401825 0
vt 0.91373288631439 0.9996445775032 0
vt 0.91403287649155 0.99956625699997 0
vt 0.50058072805405 0.0014044046402 0
vt 0.50011366605759 0.00180792808533 0
vt 0.91343408823013 0.99964040517807 0
vt 0.49988436698914 0.00180792808533 0
vt 0.20759944617748 0.70731127262115 0
vt 0.2078462690115 0.70741349458694 0
vt 0.49999901652336 0.00209438800812 0
vt 0.49968031048775 0.00156581401825 0
vt 0.20735262334347 0.70720905065536 0
vt 0.91316539049149 0.99956625699997 0
vt 0.49941730499268 0.0014044046402 0
vt 0.20710578560829 0.70710676908493 0
vt 0.49999901652336 0.00147974491119 0
vt 0.50017327070236 0.00118112564087 0
vt 0.49982476234436 0.00118112564087 0
vt 0.49999901652336 0.00081121921539 0
vt 0.50038683414459 0.00093626976013 0
vt 0.49961119890213 0.00093626976013 0
vt 0.49980509281158 0.00046813488007 0
vt 0.50019294023514 0.00046813488007 0
vt 0.49999901652336 0 0
vt 0.49968200922012 0.00156652927399 0
vt 0.20735430717468 0.70720970630646 0
vt 0.20710748434067 0.70710748434067 0
vt 0.49941897392273 0.00140511989594 0
vt 0.49988606572151 0.00180864334106 0
vt 0.2076011300087 0.70731198787689 0
vt 0.50011533498764 0.00180864334106 0
vt 0.91343575716019 0.99964112043381 0
vt 0.91316705942154 0.99956691265106 0
vt 0.50000071525574 0.00209510326385 0
vt 0.20784796774387 0.70741420984268 0
vt 0.50031942129135 0.00156652927399 0
vt 0.91373461484909 0.99964529275894 0
vt 0.5005823969841 0.00140511989594 0
vt 0.91403460502625 0.99956691265106 0
vt 0.50000071525574 0.00148034095764 0
vt 0.49982646107674 0.00118184089661 0
vt 0.50017493963242 0.00118184089661 0
vt 0.50000071525574 0.00081193447113 0
vt 0.49961289763451 0.00093698501587 0
vt 0.50038850307465 0.00093698501587 0
vt 0.50019460916519 0.0004688501358 0
vt 0.49980679154396 0.0004688501358 0
vt 0.50000071525574 0.00000071525574 0
vt 0.50031870603561 0.00156688690186 0
vt 0.91373389959335 0.99964559078217 0
vt 0.91403388977051 0.99956721067429 0
vt 0.50058174133301 0.00140535831451 0
vt 0.5001146197319 0.00180888175964 0
vt 0.91343504190445 0.99964141845703 0
vt 0.2078472673893 0.70741450786591 0
vt 0.9131663441658 0.99956721067429 0
vt 0.5 0.00209546089172 0
vt 0.49988535046577 0.00180888175964 0
vt 0.20760042965412 0.70731228590012 0
vt 0.49968129396439 0.00156688690186 0
vt 0.20735360682011 0.70721000432968 0
vt 0.49941828846931 0.00140535831451 0
vt 0.20710678398609 0.70710778236389 0
vt 0.5 0.00148069858551 0
vt 0.50017422437668 0.00118207931519 0
vt 0.499825745821 0.00118207931519 0
vt 0.5 0.00081217288971 0
vt 0.50038778781891 0.00093722343445 0
vt 0.49961218237877 0.00093722343445 0
vt 0.49980610609055 0.00046908855438 0
vt 0.50019389390945 0.00046908855438 0
vt 0.5 0.00000107288361 0
# 192 texture coordinates

o Octagon_web
usemtl Mat
f 15/1/1 5/2/1 4/3/1 22/4/1
f 19/5/1 21/6/1 20/7/1
f 14/8/1 23/9/1 5/2/1 15/1/1
f 13/10/1 1/11/1 19/5/1 20/7/1
f 12/12/1 2/13/1 1/11/1 13/10/1
f 18/14/1 3/15/1 2/13/1 12/12/1
f 14/8/1 6/16/1 13/10/1 20/7/1
f 15/1/1 7/17/1 6/16/1 14/8/1
f 6/16/1 8/18/1 12/12/1 13/10/1
f 7/17/1 9/19/1 8/18/1 6/16/1
f 20/7/1 21/6/1 23/9/1 14/8/1
f 17/20/1 7/17/1 15/1/1 22/4/1
f 8/18/1 11/21/1 18/14/1 12/12/1
f 9/19/1 10/22/1 11/21/1 8/18/1
f 16/23/1 9/19/1 7/17/1 17/20/1
f 24/24/1 10/22/1 9/19/1 16/23/1
f 41/25/1 43/26/1 42/27/1
f 38/28/1 25/29/1 3/30/1 18/31/1
f 37/32/1 40/33/1 25/29/1 38/28/1
f 36/34/1 26/35/1 41/25/1 42/27/1
f 35/36/1 27/37/1 26/35/1 36/34/1
f 39/38/1 28/39/1 27/37/1 35/36/1
f 37/32/1 29/40/1 36/34/1 42/27/1
f 38/28/1 30/41/1 29/40/1 37/32/1
f 29/40/1 31/42/1 35/36/1 36/34/1
f 42/27/1 43/26/1 40/33/1 37/32/1
f 30/41/1 32/43/1 31/42/1 29/40/1
f 11/44/1 30/41/1 38/28/1 18/31/1
f 31/42/1 34/45/1 39/38/1 35/36/1
f 32/43/1 33/46/1 34/45/1 31/42/1
f 10/47/1 32/43/1 30/41/1 11/44/1
f 24/48/1 33/46/1 32/43/1 10/47/1
f 54/49/1 59/50/1 44/51/1 45/52/1
f 53/53/1 60/54/1 59/50/1 54/49/1
f 62/55/1 61/56/1 60/54/1 53/53/1
f 56/57/1 47/58/1 28/59/1 39/60/1
f 55/61/1 48/62/1 47/58/1 56/57/1
f 55/61/1 49/63/1 54/49/1 45/52/1
f 56/57/1 50/64/1 49/63/1 55/61/1
f 44/51/1 46/65/1 45/52/1
f 45/52/1 46/65/1 48/62/1 55/61/1
f 49/63/1 51/66/1 53/53/1 54/49/1
f 50/64/1 52/67/1 51/66/1 49/63/1
f 34/68/1 50/64/1 56/57/1 39/60/1
f 51/66/1 57/69/1 62/55/1 53/53/1
f 52/67/1 58/70/1 57/69/1 51/66/1
f 33/71/1 52/67/1 50/64/1 34/68/1
f 24/72/1 58/70/1 52/67/1 33/71/1
f 78/73/1 80/74/1 61/75/1 62/76/1
f 77/77/1 81/78/1 80/74/1 78/73/1
f 76/79/1 63/80/1 66/81/1 67/82/1
f 75/83/1 64/84/1 63/80/1 76/79/1
f 79/85/1 65/86/1 64/84/1 75/83/1
f 77/77/1 69/87/1 76/79/1 67/82/1
f 66/81/1 68/88/1 67/82/1
f 78/73/1 70/89/1 69/87/1 77/77/1
f 69/87/1 71/90/1 75/83/1 76/79/1
f 70/89/1 72/91/1 71/90/1 69/87/1
f 57/92/1 70/89/1 78/73/1 62/76/1
f 71/90/1 74/93/1 79/85/1 75/83/1
f 72/91/1 73/94/1 74/93/1 71/90/1
f 58/95/1 72/91/1 70/89/1 57/92/1
f 24/96/1 73/94/1 72/91/1 58/95/1
f 67/82/1 68/88/1 81/78/1 77/77/1
f 98/97/1 85/98/1 65/99/1 79/100/1
f 97/101/1 100/102/1 85/98/1 98/97/1
f 96/103/1 82/104/1 87/105/1 88/106/1
f 95/107/1 83/108/1 82/104/1 96/103/1
f 99/109/1 84/110/1 83/108/1 95/107/1
f 87/105/1 89/111/1 88/106/1
f 97/101/1 86/112/1 96/103/1 88/106/1
f 98/97/1 90/113/1 86/112/1 97/101/1
f 86/112/1 91/114/1 95/107/1 96/103/1
f 90/113/1 92/115/1 91/114/1 86/112/1
f 74/116/1 90/113/1 98/97/1 79/100/1
f 91/114/1 94/117/1 99/109/1 95/107/1
f 92/115/1 93/118/1 94/117/1 91/114/1
f 73/119/1 92/115/1 90/113/1 74/116/1
f 88/106/1 89/111/1 100/102/1 97/101/1
f 24/120/1 93/118/1 92/115/1 73/119/1
f 117/121/1 104/122/1 84/123/1 99/124/1
f 116/125/1 119/126/1 104/122/1 117/121/1
f 115/127/1 101/128/1 109/129/1 110/130/1
f 114/131/1 102/132/1 101/128/1 115/127/1
f 109/129/1 111/133/1 110/130/1
f 118/134/1 103/135/1 102/132/1 114/131/1
f 116/125/1 105/136/1 115/127/1 110/130/1
f 117/121/1 106/137/1 105/136/1 116/125/1
f 105/136/1 107/138/1 114/131/1 115/127/1
f 106/137/1 108/139/1 107/138/1 105/136/1
f 94/140/1 106/137/1 117/121/1 99/124/1
f 107/138/1 113/141/1 118/134/1 114/131/1
f 108/139/1 112/142/1 113/141/1 107/138/1
f 110/130/1 111/133/1 119/126/1 116/125/1
f 93/143/1 108/139/1 106/137/1 94/140/1
f 24/144/1 112/142/1 108/139/1 93/143/1
f 136/145/1 123/146/1 103/147/1 118/148/1
f 135/149/1 138/150/1 123/146/1 136/145/1
f 134/151/1 120/152/1 131/153/1 132/154/1
f 131/153/1 133/155/1 132/154/1
f 130/156/1 121/157/1 120/152/1 134/151/1
f 137/158/1 122/159/1 121/157/1 130/156/1
f 135/149/1 124/160/1 134/151/1 132/154/1
f 136/145/1 125/161/1 124/160/1 135/149/1
f 124/160/1 126/162/1 130/156/1 134/151/1
f 125/161/1 127/163/1 126/162/1 124/160/1
f 113/164/1 125/161/1 136/145/1 118/148/1
f 126/162/1 129/165/1 137/158/1 130/156/1
f 132/154/1 133/155/1 138/150/1 135/149/1
f 127/163/1 128/166/1 129/165/1 126/162/1
f 112/167/1 127/163/1 125/161/1 113/164/1
f 24/168/1 128/166/1 127/163/1 112/167/1
f 149/169/1 141/170/1 122/171/1 137/172/1
f 148/173/1 153/174/1 141/170/1 149/169/1
f 150/175/1 152/176/1 151/177/1
f 147/178/1 139/179/1 150/175/1 151/177/1
f 146/180/1 140/181/1 139/179/1 147/178/1
f 22/182/1 4/183/1 140/181/1 146/180/1
f 148/173/1 142/184/1 147/178/1 151/177/1
f 149/169/1 143/185/1 142/184/1 148/173/1
f 142/184/1 144/186/1 146/180/1 147/178/1
f 143/185/1 145/187/1 144/186/1 142/184/1
f 129/188/1 143/185/1 149/169/1 137/172/1
f 151/177/1 152/176/1 153/174/1 148/173/1
f 144/186/1 17/189/1 22/182/1 146/180/1
f 145/187/1 16/190/1 17/189/1 144/186/1
f 128/191/1 145/187/1 143/185/1 129/188/1
f 24/192/1 16/190/1 145/187/1 128/191/1

