# WaveFront *.obj file (generated by CINEMA 4D)

mtllib ./OctagonShape_3.mtl

v -0.00516177015379 0.01757542230189 -0.01498599350452
v -0.0051635587588 0.01757463999093 -0.01498599071056
v -0.00516513129696 0.01757336221635 -0.01498598791659
v -0.00017027861031 0.01774573512375 -0.01499357260764
v -0.00017202293384 0.01774567551911 -0.01499357074499
v -0.00000400112367 0.01275743450969 -0.01499382592738
v -0.00000215750674 0.01275612972677 -0.01499382872134
v -0.00000423003166 0.01275518722832 -0.01499382499605
v -0.0000021934884 0.01275345869362 -0.01499382872134
v -0.00000241897988 0.01275089476258 -0.01499382779002
v -0.00000483795975 0.01275315415114 -0.01499382406473
v -0.00000612943541 0.01275708526373 -0.01499382220209
v -0.00000557046133 0.01275907643139 -0.01499382313341
v -0.00000420684773 0.01275969669223 -0.01499382499605
v -0.00000233884202 0.01275880821049 -0.01499382779002
v -0.00000011272949 0.01275194343179 -0.01499383151531
v -0.00000022545898 0.01275525148958 -0.01499383151531
v -0.00000725693963 0.01275541353971 -0.01499382033944
v -0.0051599717699 0.0175757072866 -0.01498599629849
v -0.00000566343579 0.0127610899508 -0.01499382313341
v -0.00017551159544 0.01774555630982 -0.01499356515706
v -0.00000033818844 0.01275855954736 -0.01499383151531
v -0.00017376727192 0.01774561591446 -0.01499356795102
v 0 0.01274863537401 -0.01499383151531
v -0.00516629824415 0.01757170632482 -0.01498598605394
v -0.00499721290544 0.01258184481412 -0.01498624309897
v -0.00499715330079 0.01258010044694 -0.01498624309897
v -0.00499709416181 0.01257835607976 -0.01498624309897
v -0.00000905129764 0.01275202818215 -0.01499381754547
v -0.0000068253471 0.01275240909308 -0.01499382127076
v -0.00000762447189 0.01275027729571 -0.01499382033944
v -0.00000496208486 0.01275049522519 -0.01499382406473
v -0.00000330822468 0.01274852268398 -0.0149938268587
v -0.00000661644935 0.01274840999395 -0.01499382127076
v -0.00001030920976 0.01275027543306 -0.01499381568283
v -0.00001132195121 0.01275207940489 -0.01499381475151
v -0.00001079616868 0.01275348197669 -0.01499381568283
v -0.00000884763176 0.01275417488068 -0.0149938184768
v -0.00000992467358 0.01274829637259 -0.01499381661415
v -0.00516695808619 0.0175698697567 -0.01498598512262
v -0.00499727204442 0.0125835891813 -0.01498624309897
v -0.00001281176083 0.0127534372732 -0.01499381195754
v -0.00516712060198 0.01756805554032 -0.01498598512262
v -0.00482706772164 0.00758865708485 -0.01498650107533
v -0.00001245513067 0.01274297200143 -0.01499381288886
v -0.00499691534787 0.01257312297821 -0.01498624309897
v -0.00499703455716 0.01257661171257 -0.01498624309897
v -0.00499697495252 0.01257486734539 -0.01498624309897
v -0.00000879934396 0.01274463348091 -0.0149938184768
v -0.00000749499122 0.0127464774996 -0.01499382033944
v -0.00000655259919 0.01274440530688 -0.01499382127076
v -0.00000482395944 0.01274644117802 -0.01499382406473
v -0.00000844998976 0.01274250540882 -0.0149938184768
v -0.00001044119563 0.01274306420237 -0.01499381568283
v -0.00001106124 0.01274442858994 -0.01499381475151
v -0.00001017359864 0.0127462958917 -0.01499381661415
v -0.00000451911274 0.01274379715323 -0.01499382499605
v -0.00000225955637 0.01274621579796 -0.01499382779002
v -0.00482678227127 0.00758685870096 -0.01498650200665
v -0.00482599902898 0.00758507009596 -0.01498650293797
v -0.00482472172007 0.00758349802345 -0.01498650480062
v -0.0000067786691 0.01274137850851 -0.01499382127076
v 0.00016678994871 0.00775141641498 -0.01499408483505
v 0.00016853428679 0.00775147555396 -0.01499408762902
v 0.00017027861031 0.0077515351586 -0.01499409042299
v 0.00016504575615 0.00775135727599 -0.01499408204108
v -0.00000480245353 0.01273582316935 -0.01499382406473
v -0.00481941504404 0.00758150871843 -0.01498651318252
v -0.00000339285384 0.01273958384991 -0.0149938268587
v -0.00000377417132 0.01274180971086 -0.01499382592738
v -0.00000164230346 0.01274101063609 -0.01499382872134
v -0.00000186002387 0.01274367328733 -0.01499382872134
v 0.00000011272949 0.0127453263849 -0.01499383151531
v 0.00000022545898 0.01274201832712 -0.01499383151531
v -0.00000164087953 0.01273832563311 -0.01499382872134
v -0.00000344412933 0.01273731328547 -0.0149938268587
v -0.00000484678685 0.0127378385514 -0.01499382406473
v -0.00000554000962 0.01273978780955 -0.01499382313341
v 0.00000033818844 0.01273871026933 -0.01499383244663
v -0.00482306629419 0.0075823306106 -0.01498650759459
v -0.00482122832909 0.00758167123422 -0.01498651038855
v 0.00516177015379 0.00792184751481 -0.01500167045742
v 0.0051635587588 0.00792263075709 -0.01500167325139
v 0.00516513129696 0.00792390760034 -0.01500167511404
v 0.00017202293384 0.00775159476325 -0.01499409321696
v 0.00000400112367 0.012739835307 -0.01499383803457
v 0.0051599717699 0.00792156159878 -0.01500166766346
v 0.00000566343579 0.0127361798659 -0.01499383989722
v 0.00017551159544 0.00775171350688 -0.01499409787357
v 0.00000215750674 0.01274114008993 -0.0149938352406
v 0.00000423003166 0.01274208258837 -0.01499383803457
v 0.0000021934884 0.01274381112307 -0.0149938352406
v 0.00000241897988 0.01274637505412 -0.0149938352406
v 0.00000483795975 0.01274411566556 -0.01499383896589
v 0.00000612943541 0.01274018455297 -0.01499384082854
v 0.00000557046133 0.0127381933853 -0.01499383989722
v 0.00000420684773 0.01273757405579 -0.01499383803457
v 0.00000233884202 0.0127384616062 -0.0149938352406
v 0.00000725693963 0.01274185627699 -0.01499384269118
v 0.00017376727192 0.00775165436789 -0.0149940950796
v 0.00499721290544 0.01291542500257 -0.01500141993165
v 0.00499715330079 0.01291716936976 -0.01500141993165
v 0.00499709416181 0.01291891373694 -0.01500141993165
v 0.00516629824415 0.00792556349188 -0.01500167697668
v 0.00000905129764 0.01274524256587 -0.01499384548515
v 0.0000068253471 0.01274486072361 -0.01499384175986
v 0.00000762447189 0.01274699252099 -0.01499384362251
v 0.00000496208486 0.01274677459151 -0.01499383896589
v 0.00499727204442 0.01291368063539 -0.01500141993165
v 0.00001281176083 0.01274383254349 -0.01499385107309
v 0.00516712060198 0.00792921427637 -0.015001677908
v 0.00000330822468 0.01274874806404 -0.01499383710325
v 0.00000661644935 0.01274886075407 -0.01499384175986
v 0.00001030920976 0.01274699438363 -0.0149938473478
v 0.00001132195121 0.01274519134313 -0.01499384921044
v 0.00001079616868 0.01274378784001 -0.01499384827912
v 0.00000884763176 0.01274309493601 -0.01499384548515
v 0.00000992467358 0.0127489734441 -0.01499384641647
v 0.00516695808619 0.00792740099132 -0.015001677908
v 0.00482678227127 0.0179104115814 -0.01500116102397
v 0.00482599902898 0.01791219972074 -0.01500116009265
v 0.00482472172007 0.01791377179325 -0.01500115823001
v 0.00499703455716 0.01292065810412 -0.01500141993165
v 0.00000879934396 0.01275263633579 -0.01499384455383
v 0.00000749499122 0.01275079231709 -0.01499384269118
v 0.00000655259919 0.01275286544114 -0.01499384175986
v 0.00000482395944 0.01275082863867 -0.01499383896589
v 0.00000225955637 0.01275105401874 -0.0149938352406
v 0.00000451911274 0.01275347266346 -0.01499383803457
v 0.00000844998976 0.01275476440787 -0.01499384455383
v 0.00482706772164 0.01790861226618 -0.0150011619553
v 0.00001245513067 0.01275429874659 -0.01499385014176
v 0.00499691534787 0.01292414683849 -0.01500141993165
v 0.00001044119563 0.01275420561433 -0.0149938473478
v 0.00001106124 0.01275284215808 -0.01499384827912
v 0.00001017359864 0.01275097392499 -0.0149938473478
v 0.0000067786691 0.01275589223951 -0.01499384175986
v 0.00499697495252 0.0129224024713 -0.01500141993165
v -0.00016678994871 0.01774585433304 -0.01499357819557
v -0.00016853428679 0.0177457947284 -0.0149935754016
v 0.00482306629419 0.01791493967175 -0.01500115543604
v 0.00000339285384 0.01275768596679 -0.01499383710325
v 0.00000377417132 0.01275546010584 -0.01499383710325
v 0.00000164230346 0.01275625918061 -0.01499383430928
v 0.00000186002387 0.01275359746069 -0.01499383430928
v 0.00000164087953 0.01275894418359 -0.01499383430928
v 0.00000344412933 0.01275995653123 -0.01499383710325
v 0.00000484678685 0.01275943126529 -0.01499383896589
v 0.00000554000962 0.01275748293847 -0.01499383989722
v -0.00016504575615 0.01774591207504 -0.01499358098954
v 0.00000480245353 0.01276144664735 -0.01499383896589
v 0.00481941504404 0.01791576109827 -0.0150011498481
v 0.00482122832909 0.01791559904814 -0.01500115264207
# 153 vertices

vn -0.00151856150478 0 -0.99999886751175
# 1 normal

vt 0.49968060851097 0.00156652927399 0
vt 0.20735290646553 0.70720970630646 0
vt 0.20710608363152 0.70710748434067 0
vt 0.49941757321358 0.00140511989594 0
vt 0.91316568851471 0.99956691265106 0
vt 0.20784656703472 0.70741420984268 0
vt 0.49999928474426 0.00209510326385 0
vt 0.49988463521004 0.00180864334106 0
vt 0.20759972929955 0.70731198787689 0
vt 0.50011396408081 0.00180864334106 0
vt 0.91343432664871 0.99964112043381 0
vt 0.50031799077988 0.00156652927399 0
vt 0.91373318433762 0.99964529275894 0
vt 0.50058102607727 0.00140511989594 0
vt 0.91403317451477 0.99956691265106 0
vt 0.49999928474426 0.00148034095764 0
vt 0.49982506036758 0.00118184089661 0
vt 0.50017356872559 0.00118184089661 0
vt 0.49999928474426 0.00081193447113 0
vt 0.49961149692535 0.00093698501587 0
vt 0.50038713216782 0.00093698501587 0
vt 0.50019317865372 0.0004688501358 0
vt 0.49980539083481 0.0004688501358 0
vt 0.49999928474426 0.00000071525574 0
vt 0.20784825086594 0.70741349458694 0
vt 0.91316735744476 0.99956625699997 0
vt 0.50000101327896 0.00209438800812 0
vt 0.50031971931458 0.00156581401825 0
vt 0.91373491287231 0.9996445775032 0
vt 0.91403490304947 0.99956625699997 0
vt 0.50058269500732 0.0014044046402 0
vt 0.50011563301086 0.00180792808533 0
vt 0.91343605518341 0.99964040517807 0
vt 0.49988633394241 0.00180792808533 0
vt 0.20760142803192 0.70731127262115 0
vt 0.49968227744102 0.00156581401825 0
vt 0.20735460519791 0.70720905065536 0
vt 0.49941927194595 0.0014044046402 0
vt 0.20710776746273 0.70710676908493 0
vt 0.50000101327896 0.00147974491119 0
vt 0.50017523765564 0.00118112564087 0
vt 0.49982672929764 0.00118112564087 0
vt 0.50000101327896 0.00081121921539 0
vt 0.50038880109787 0.00093626976013 0
vt 0.49961319565773 0.00093626976013 0
vt 0.49980708956718 0.00046813488007 0
vt 0.50019490718842 0.00046813488007 0
vt 0.50000101327896 0 0
vt 0.50011396408081 0.00180721282959 0
vt 0.91343432664871 0.99963974952698 0
vt 0.91316568851471 0.99956554174423 0
vt 0.49999928474426 0.00209367275238 0
vt 0.50031799077988 0.00156509876251 0
vt 0.91373318433762 0.99964392185211 0
vt 0.50058102607727 0.00140368938446 0
vt 0.91403317451477 0.99956554174423 0
vt 0.49968060851097 0.00156509876251 0
vt 0.20735290646553 0.70720833539963 0
vt 0.20710608363152 0.70710611343384 0
vt 0.49941757321358 0.00140368938446 0
vt 0.49988463521004 0.00180721282959 0
vt 0.20759972929955 0.70731055736542 0
vt 0.49999928474426 0.00147902965546 0
vt 0.49982506036758 0.00118041038513 0
vt 0.20784656703472 0.70741283893585 0
vt 0.50017356872559 0.00118041038513 0
vt 0.49999928474426 0.00081050395966 0
vt 0.49961149692535 0.00093555450439 0
vt 0.50038713216782 0.00093555450439 0
vt 0.50019317865372 0.00046741962433 0
vt 0.49980539083481 0.00046741962433 0
vt 0.49999928474426 -0.00000071525574 0
vt 0.50031870603561 0.00156486034393 0
vt 0.91373389959335 0.99964362382889 0
vt 0.91403388977051 0.99956524372101 0
vt 0.50058174133301 0.00140345096588 0
vt 0.5001146197319 0.00180685520172 0
vt 0.91343504190445 0.99963945150375 0
vt 0.49988535046577 0.00180685520172 0
vt 0.20760042965412 0.70731025934219 0
vt 0.2078472673893 0.70741254091263 0
vt 0.5 0.0020934343338 0
vt 0.49968129396439 0.00156486034393 0
vt 0.20735360682011 0.7072080373764 0
vt 0.49941828846931 0.00140345096588 0
vt 0.20710678398609 0.70710581541061 0
vt 0.5 0.00147867202759 0
vt 0.9131663441658 0.99956524372101 0
vt 0.50017422437668 0.00118017196655 0
vt 0.499825745821 0.00118017196655 0
vt 0.5 0.00081026554108 0
vt 0.50038778781891 0.00093531608582 0
vt 0.49961218237877 0.00093531608582 0
vt 0.49980610609055 0.00046718120575 0
vt 0.50019389390945 0.00046718120575 0
vt 0.5 -0.00000095367432 0
vt 0.49968200922012 0.00156509876251 0
vt 0.20735430717468 0.70720833539963 0
vt 0.20710748434067 0.70710611343384 0
vt 0.49941897392273 0.00140368938446 0
vt 0.49988606572151 0.00180721282959 0
vt 0.2076011300087 0.70731055736542 0
vt 0.50011533498764 0.00180721282959 0
vt 0.91343575716019 0.99963974952698 0
vt 0.91316705942154 0.99956554174423 0
vt 0.50000071525574 0.00209367275238 0
vt 0.50031942129135 0.00156509876251 0
vt 0.91373461484909 0.99964392185211 0
vt 0.5005823969841 0.00140368938446 0
vt 0.91403460502625 0.99956554174423 0
vt 0.20784796774387 0.70741283893585 0
vt 0.50000071525574 0.00147902965546 0
vt 0.49982646107674 0.00118041038513 0
vt 0.50017493963242 0.00118041038513 0
vt 0.50000071525574 0.00081050395966 0
vt 0.49961289763451 0.00093555450439 0
vt 0.50038850307465 0.00093555450439 0
vt 0.50019460916519 0.00046741962433 0
vt 0.49980679154396 0.00046741962433 0
vt 0.50000071525574 -0.00000071525574 0
vt 0.50031769275665 0.00156581401825 0
vt 0.91373288631439 0.9996445775032 0
vt 0.91403287649155 0.99956625699997 0
vt 0.50058072805405 0.0014044046402 0
vt 0.50011366605759 0.00180792808533 0
vt 0.91343408823013 0.99964040517807 0
vt 0.49988436698914 0.00180792808533 0
vt 0.20759944617748 0.70731127262115 0
vt 0.2078462690115 0.70741349458694 0
vt 0.49999901652336 0.00209438800812 0
vt 0.49968031048775 0.00156581401825 0
vt 0.20735262334347 0.70720905065536 0
vt 0.91316539049149 0.99956625699997 0
vt 0.49941730499268 0.0014044046402 0
vt 0.20710578560829 0.70710676908493 0
vt 0.49999901652336 0.00147974491119 0
vt 0.50017327070236 0.00118112564087 0
vt 0.49982476234436 0.00118112564087 0
vt 0.49999901652336 0.00081121921539 0
vt 0.50038683414459 0.00093626976013 0
vt 0.49961119890213 0.00093626976013 0
vt 0.49980509281158 0.00046813488007 0
vt 0.50019294023514 0.00046813488007 0
vt 0.49999901652336 0 0
vt 0.49968200922012 0.00156652927399 0
vt 0.20735430717468 0.70720970630646 0
vt 0.20710748434067 0.70710748434067 0
vt 0.49941897392273 0.00140511989594 0
vt 0.49988606572151 0.00180864334106 0
vt 0.2076011300087 0.70731198787689 0
vt 0.50011533498764 0.00180864334106 0
vt 0.91343575716019 0.99964112043381 0
vt 0.91316705942154 0.99956691265106 0
vt 0.50000071525574 0.00209510326385 0
vt 0.20784796774387 0.70741420984268 0
vt 0.50031942129135 0.00156652927399 0
vt 0.91373461484909 0.99964529275894 0
vt 0.5005823969841 0.00140511989594 0
vt 0.91403460502625 0.99956691265106 0
vt 0.50000071525574 0.00148034095764 0
vt 0.49982646107674 0.00118184089661 0
vt 0.50017493963242 0.00118184089661 0
vt 0.50000071525574 0.00081193447113 0
vt 0.49961289763451 0.00093698501587 0
vt 0.50038850307465 0.00093698501587 0
vt 0.50019460916519 0.0004688501358 0
vt 0.49980679154396 0.0004688501358 0
vt 0.50000071525574 0.00000071525574 0
vt 0.50031870603561 0.00156688690186 0
vt 0.91373389959335 0.99964559078217 0
vt 0.91403388977051 0.99956721067429 0
vt 0.50058174133301 0.00140535831451 0
vt 0.5001146197319 0.00180888175964 0
vt 0.91343504190445 0.99964141845703 0
vt 0.2078472673893 0.70741450786591 0
vt 0.9131663441658 0.99956721067429 0
vt 0.5 0.00209546089172 0
vt 0.49988535046577 0.00180888175964 0
vt 0.20760042965412 0.70731228590012 0
vt 0.49968129396439 0.00156688690186 0
vt 0.20735360682011 0.70721000432968 0
vt 0.49941828846931 0.00140535831451 0
vt 0.20710678398609 0.70710778236389 0
vt 0.5 0.00148069858551 0
vt 0.50017422437668 0.00118207931519 0
vt 0.499825745821 0.00118207931519 0
vt 0.5 0.00081217288971 0
vt 0.50038778781891 0.00093722343445 0
vt 0.49961218237877 0.00093722343445 0
vt 0.49980610609055 0.00046908855438 0
vt 0.50019389390945 0.00046908855438 0
vt 0.5 0.00000107288361 0
# 192 texture coordinates

o Octagon_web
usemtl Mat
f 15/1/1 5/2/1 4/3/1 22/4/1
f 19/5/1 21/6/1 20/7/1
f 14/8/1 23/9/1 5/2/1 15/1/1
f 13/10/1 1/11/1 19/5/1 20/7/1
f 12/12/1 2/13/1 1/11/1 13/10/1
f 18/14/1 3/15/1 2/13/1 12/12/1
f 14/8/1 6/16/1 13/10/1 20/7/1
f 15/1/1 7/17/1 6/16/1 14/8/1
f 6/16/1 8/18/1 12/12/1 13/10/1
f 7/17/1 9/19/1 8/18/1 6/16/1
f 20/7/1 21/6/1 23/9/1 14/8/1
f 17/20/1 7/17/1 15/1/1 22/4/1
f 8/18/1 11/21/1 18/14/1 12/12/1
f 9/19/1 10/22/1 11/21/1 8/18/1
f 16/23/1 9/19/1 7/17/1 17/20/1
f 24/24/1 10/22/1 9/19/1 16/23/1
f 41/25/1 43/26/1 42/27/1
f 38/28/1 25/29/1 3/30/1 18/31/1
f 37/32/1 40/33/1 25/29/1 38/28/1
f 36/34/1 26/35/1 41/25/1 42/27/1
f 35/36/1 27/37/1 26/35/1 36/34/1
f 39/38/1 28/39/1 27/37/1 35/36/1
f 37/32/1 29/40/1 36/34/1 42/27/1
f 38/28/1 30/41/1 29/40/1 37/32/1
f 29/40/1 31/42/1 35/36/1 36/34/1
f 42/27/1 43/26/1 40/33/1 37/32/1
f 30/41/1 32/43/1 31/42/1 29/40/1
f 11/44/1 30/41/1 38/28/1 18/31/1
f 31/42/1 34/45/1 39/38/1 35/36/1
f 32/43/1 33/46/1 34/45/1 31/42/1
f 10/47/1 32/43/1 30/41/1 11/44/1
f 24/48/1 33/46/1 32/43/1 10/47/1
f 54/49/1 59/50/1 44/51/1 45/52/1
f 53/53/1 60/54/1 59/50/1 54/49/1
f 62/55/1 61/56/1 60/54/1 53/53/1
f 56/57/1 47/58/1 28/59/1 39/60/1
f 55/61/1 48/62/1 47/58/1 56/57/1
f 55/61/1 49/63/1 54/49/1 45/52/1
f 56/57/1 50/64/1 49/63/1 55/61/1
f 44/51/1 46/65/1 45/52/1
f 45/52/1 46/65/1 48/62/1 55/61/1
f 49/63/1 51/66/1 53/53/1 54/49/1
f 50/64/1 52/67/1 51/66/1 49/63/1
f 34/68/1 50/64/1 56/57/1 39/60/1
f 51/66/1 57/69/1 62/55/1 53/53/1
f 52/67/1 58/70/1 57/69/1 51/66/1
f 33/71/1 52/67/1 50/64/1 34/68/1
f 24/72/1 58/70/1 52/67/1 33/71/1
f 78/73/1 80/74/1 61/75/1 62/76/1
f 77/77/1 81/78/1 80/74/1 78/73/1
f 76/79/1 63/80/1 66/81/1 67/82/1
f 75/83/1 64/84/1 63/80/1 76/79/1
f 79/85/1 65/86/1 64/84/1 75/83/1
f 77/77/1 69/87/1 76/79/1 67/82/1
f 66/81/1 68/88/1 67/82/1
f 78/73/1 70/89/1 69/87/1 77/77/1
f 69/87/1 71/90/1 75/83/1 76/79/1
f 70/89/1 72/91/1 71/90/1 69/87/1
f 57/92/1 70/89/1 78/73/1 62/76/1
f 71/90/1 74/93/1 79/85/1 75/83/1
f 72/91/1 73/94/1 74/93/1 71/90/1
f 58/95/1 72/91/1 70/89/1 57/92/1
f 24/96/1 73/94/1 72/91/1 58/95/1
f 67/82/1 68/88/1 81/78/1 77/77/1
f 98/97/1 85/98/1 65/99/1 79/100/1
f 97/101/1 100/102/1 85/98/1 98/97/1
f 96/103/1 82/104/1 87/105/1 88/106/1
f 95/107/1 83/108/1 82/104/1 96/103/1
f 99/109/1 84/110/1 83/108/1 95/107/1
f 87/105/1 89/111/1 88/106/1
f 97/101/1 86/112/1 96/103/1 88/106/1
f 98/97/1 90/113/1 86/112/1 97/101/1
f 86/112/1 91/114/1 95/107/1 96/103/1
f 90/113/1 92/115/1 91/114/1 86/112/1
f 74/116/1 90/113/1 98/97/1 79/100/1
f 91/114/1 94/117/1 99/109/1 95/107/1
f 92/115/1 93/118/1 94/117/1 91/114/1
f 73/119/1 92/115/1 90/113/1 74/116/1
f 88/106/1 89/111/1 100/102/1 97/101/1
f 24/120/1 93/118/1 92/115/1 73/119/1
f 117/121/1 104/122/1 84/123/1 99/124/1
f 116/125/1 119/126/1 104/122/1 117/121/1
f 115/127/1 101/128/1 109/129/1 110/130/1
f 114/131/1 102/132/1 101/128/1 115/127/1
f 109/129/1 111/133/1 110/130/1
f 118/134/1 103/135/1 102/132/1 114/131/1
f 116/125/1 105/136/1 115/127/1 110/130/1
f 117/121/1 106/137/1 105/136/1 116/125/1
f 105/136/1 107/138/1 114/131/1 115/127/1
f 106/137/1 108/139/1 107/138/1 105/136/1
f 94/140/1 106/137/1 117/121/1 99/124/1
f 107/138/1 113/141/1 118/134/1 114/131/1
f 108/139/1 112/142/1 113/141/1 107/138/1
f 110/130/1 111/133/1 119/126/1 116/125/1
f 93/143/1 108/139/1 106/137/1 94/140/1
f 24/144/1 112/142/1 108/139/1 93/143/1
f 136/145/1 123/146/1 103/147/1 118/148/1
f 135/149/1 138/150/1 123/146/1 136/145/1
f 134/151/1 120/152/1 131/153/1 132/154/1
f 131/153/1 133/155/1 132/154/1
f 130/156/1 121/157/1 120/152/1 134/151/1
f 137/158/1 122/159/1 121/157/1 130/156/1
f 135/149/1 124/160/1 134/151/1 132/154/1
f 136/145/1 125/161/1 124/160/1 135/149/1
f 124/160/1 126/162/1 130/156/1 134/151/1
f 125/161/1 127/163/1 126/162/1 124/160/1
f 113/164/1 125/161/1 136/145/1 118/148/1
f 126/162/1 129/165/1 137/158/1 130/156/1
f 132/154/1 133/155/1 138/150/1 135/149/1
f 127/163/1 128/166/1 129/165/1 126/162/1
f 112/167/1 127/163/1 125/161/1 113/164/1
f 24/168/1 128/166/1 127/163/1 112/167/1
f 149/169/1 141/170/1 122/171/1 137/172/1
f 148/173/1 153/174/1 141/170/1 149/169/1
f 150/175/1 152/176/1 151/177/1
f 147/178/1 139/179/1 150/175/1 151/177/1
f 146/180/1 140/181/1 139/179/1 147/178/1
f 22/182/1 4/183/1 140/181/1 146/180/1
f 148/173/1 142/184/1 147/178/1 151/177/1
f 149/169/1 143/185/1 142/184/1 148/173/1
f 142/184/1 144/186/1 146/180/1 147/178/1
f 143/185/1 145/187/1 144/186/1 142/184/1
f 129/188/1 143/185/1 149/169/1 137/172/1
f 151/177/1 152/176/1 153/174/1 148/173/1
f 144/186/1 17/189/1 22/182/1 146/180/1
f 145/187/1 16/190/1 17/189/1 144/186/1
f 128/191/1 145/187/1 143/185/1 129/188/1
f 24/192/1 16/190/1 145/187/1 128/191/1

