# WaveFront *.obj file (generated by CINEMA 4D)

mtllib ./DecagonShape_77.mtl

v 0.00000671210637 0.00434222491458 -0.00003940246097
v 0.00169555272441 0.00257661612704 0.0002651787072
v 0.00001812905793 -0.00283444067463 -0.00002056603807
v 0.00000525628548 -0.00282938429154 -0.00003858794662
v 0.00000421864797 -0.00283025880344 -0.00003644586468
v 0.00001605060061 -0.00283242808655 -0.0000325039
v 0.00001025789243 -0.00282860849984 -0.00003815381569
v 0.00000735986305 -0.00282781454735 -0.0000391084759
v -0.00167320482433 0.00258079823107 -0.00032219057903
v -0.00167277955916 0.00258179777302 -0.00032380881021
v 0.00169516017195 0.00257817585953 0.00025666604051
v -0.00167171633802 0.00258304015733 -0.00032486533746
v 0.00168379524257 0.00258442317136 0.00024628426763
v 0.00169083056971 0.00258094933815 0.00024974576081
v 0.00001145321676 -0.00284409360029 -0.00003049445695
v -0.00167037104256 0.00258442317136 -0.00032508920413
v 0.00000671210637 -0.00282553583384 -0.00003940246097
v -0.00151527486742 0.00204890407622 -0.00026352677378
v 0.00001221535058 -0.00283242808655 -0.00000998961968
v -0.00000864013236 -0.00283235195093 0.00000190952733
v 0.00000165799406 -0.00282784830779 -0.00000653191091
v 0.00167660415173 0.00257926667109 0.00027884243173
v 0.00000111952227 -0.00282553583384 -0.00000657199507
v 0.00000487856869 -0.00282860919833 -0.00000656569046
v -0.00151035701856 0.00205020676367 -0.00026404808159
v -0.00000516171986 -0.00283090793528 -0.00000445446312
v -0.00152150471695 0.00204786821268 -0.00025580302463
v 0.00168492167722 0.0025775115937 0.00027799626696
v -0.00151934707537 0.00204802188091 -0.0002605074842
v 0.00169183115941 0.00257645733654 0.00027299052454
v 0.00211303145625 0.0039881169796 0.00037200815859
v -0.00151851470582 0.00204997276887 -0.00024650865817
v -0.00000746493743 -0.00283090793528 0.00000906624791
v 0.0000002544148 -0.00283025880344 0.00001018739295
v -0.00000416186413 -0.00282804132439 0.00001242521375
v -0.00000238653047 -0.00282764295116 0.00001295805396
v 0.00211397162639 0.00398820079863 0.00037025360507
v 0.0021113588009 0.00398779613897 0.00037288086605
v -0.00151421246119 0.00205180956982 -0.00024441673304
v -0.00000078322296 -0.00282938429154 0.0000123294767
v -0.00152119190898 0.00204855622724 -0.00025067769457
v -0.00000223904431 -0.00282553583384 0.00001314399015
v 0.00210968893953 0.00398715119809 0.00037290540058
v -0.00000222356061 -0.00282938429154 0.00000532141621
v -0.00000142439512 -0.00282747484744 0.00000640335293
v -0.00000082645533 -0.00282747717574 0.00000673697059
v -0.00000001548375 -0.00282938429154 0.00000782257302
v -0.00000249345908 -0.00283025880344 0.0000029565972
v 0.00211237603799 0.00398779613897 0.00036690948764
v -0.00151535810437 0.00204996182583 -0.00025475592702
v 0.00211366545409 0.0039881169796 0.00036828671
v 0.00211080838926 0.00398715119809 0.00036633340642
v -0.00000111952215 -0.00282553583384 0.00000657199507
v -0.00151309301145 0.00205180956982 -0.0002509887272
v -0.0015153089771 0.00205036927946 -0.0002530569036
v -0.00151447183453 0.00205101934262 -0.00025167662534
v -0.00151458359323 0.0020498347003 -0.00025631469907
v -0.00000145582135 -0.00282938429154 0.00000081451287
v 0.00000114339173 -0.00282797589898 0.00000012007835
v 0.00000546932961 -0.0028291773051 0.00000004380321
v 0.00168702553492 0.00257646501996 0.00028421130264
v 0.00169659452513 0.00257464428432 0.00027718330966
v 0.00170169922058 0.00257452297956 0.0002662257466
v 0.00001592125045 -0.00283395149745 -0.00000472064357
v 0.00002427573054 -0.00283653382212 -0.00001951896957
v -0.00151317100972 0.00204995064996 -0.00025731170899
v -0.00151147646829 0.00205020676367 -0.00025747608743
v 0.00000000000001 -0.00282553583384 0
v 0.00167548458558 0.00257926667109 0.00028541442589
v -0.00167935143691 0.00257870461792 -0.00032323764754
v 0.00000783162886 0.00434222491458 -0.00004597445513
v 0.00000783162886 -0.00282553583384 -0.00004597445513
v 0.00168491480872 0.00258442317136 0.00023971228802
v -0.00166925147641 0.00258442317136 -0.00033166119829
v -0.00167754315771 0.00257998495363 -0.00032800162444
v -0.00167381996289 0.00258199358359 -0.00033108037314
v -0.00000192802509 -0.00283235195093 -0.00003749293319
v 0.00170104322024 0.0025763635058 0.00025428686058
v 0.00000155038663 -0.00283090793528 -0.00004385692228
v 0.00000577902483 -0.00282804225571 -0.00004594334314
v 0.00002129197674 -0.00283395149745 -0.00003624872988
v 0.00001031137344 -0.00282855750993 -0.00004526717385
v 0.00169487344101 0.00257990276441 0.00024457779364
v -0.00167868949939 0.00257826619782 -0.00031805285835
v 0.00151870038826 0.00204996648245 0.00023505235731
v 0.00000583571364 -0.002830253914 -0.00002266017691
v 0.00000556784744 -0.00282938079908 -0.00002501424024
v 0.00151594961062 0.00205020676367 0.00023121760751
v 0.00000447306229 -0.00282553583384 -0.00002625847264
v -0.00167101155967 0.00257926667109 -0.00031167289126
v 0.00000431703938 -0.00282764411531 -0.00002628071161
v 0.00000254652537 -0.00282804225571 -0.00002696741649
v 0.00151748745702 0.00204995297827 0.00023193057859
v -0.00000075283072 -0.00283090793528 -0.00003033621215
v 0.00151848630048 0.00204983889125 0.0002333328157
v -0.00167566293385 0.0025785563048 -0.00031382430461
v -0.00211023935117 0.00398779613897 -0.00037945286022
v -0.00211191200651 0.0039881169796 -0.00037858015276
v -0.00211285194382 0.00398820079863 -0.00037682559923
v 0.00151809456293 0.00205037300475 0.00023663225875
v 0.00000086510715 -0.00283025880344 -0.0000167593862
v 0.00000190274477 -0.00282938429154 -0.00001890146996
v 0.00000302626427 -0.00282747694291 -0.00001965748561
v -0.00210856925696 0.00398715119809 -0.00037947739474
v 0.00000335856635 -0.00282553583384 -0.00001971598249
v 0.00151533202734 0.00205180956982 0.00023784475343
v 0.00000369823897 -0.00282747368328 -0.00001977425745
v 0.00000480355538 -0.00282938079908 -0.00002052757191
v 0.00151685357559 0.00205102167092 0.00023765295919
v 0.00151895743329 0.00204997509718 0.00024386800942
v 0.00152285804506 0.00204856018536 0.00024082505843
v 0.00152484700084 0.0020478728693 0.00023609944037
v -0.00211254577152 0.0039881169796 -0.00037485870416
v 0.00001198238624 -0.00283234729432 -0.0000216131084
v 0.00000850945344 -0.00283090444282 -0.00001525859443
v 0.00000428755448 -0.00282804016024 -0.00001318568775
v 0.00000243863042 -0.0028276424855 -0.00001327074915
v 0.00000113500562 -0.00282938429154 -0.00001439456628
v 0.00151421246119 0.00205180956982 0.00024441673304
v 0.00000223904408 -0.00282553583384 -0.00001314398833
v -0.00210968893953 0.00398715119809 -0.00037290540058
v -0.00211125658825 0.00398779613897 -0.0003734814818
v -0.00167162006255 0.00257960287854 -0.00031899227179
v -0.00167280656751 0.00258007925004 -0.00032043206738
v 0.00152436911594 0.00204802607186 0.00023095359211
v 0.00000448854644 -0.00282938429154 -0.00003408104385
v 0.00000579978769 -0.00282764900476 -0.0000328873939
v 0.00000752042433 -0.00282804202288 -0.00003213196032
v 0.00001080922357 -0.00283090444282 -0.0000287590683
v 0.00152153044473 0.00204890640453 0.00022676259687
v 0.00151706906036 0.00205020676367 0.00022464561334
v -0.00166989199352 0.00257926667109 -0.00031824488542
v 0.00000559258433 -0.00282553583384 -0.00003283046681
# 133 vertices

vn 0.23690558969975 -0.42643108963966 -0.87294459342957
vn 0.50725615024567 -0.46679911017418 -0.72442376613617
vn -0.06554935127497 -0.45891201496124 -0.88606041669846
vn -0.939368724823 0.3017857670784 0.16282419860363
vn -0.8584206700325 0.25917792320251 0.44265201687813
vn -0.54035639762878 0.13193054497242 0.83102905750275
vn 0.11105914413929 -0.45447900891304 -0.88380694389343
vn 0.95120888948441 0.2992450594902 0.07519311457872
vn -0.16792832314968 0 0.98579919338226
vn -0.34860515594482 0.06258817762136 0.93517762422562
vn -0.61263751983643 -0.58240407705307 -0.53430396318436
vn 0.74108701944351 -0.40489000082016 -0.53558766841888
vn 0.88234007358551 -0.41045415401459 -0.23022453486919
vn 0.57761168479919 0.23539184033871 0.78163635730743
vn 0.46998703479767 0.2040777951479 0.85875749588013
vn 0.62904298305511 0.24972778558731 0.73616635799408
vn 0.8325030207634 0.30171892046928 0.46465519070625
vn 0.45108008384705 -0.64767748117447 0.61403632164001
vn -0.83250123262405 -0.30175960063934 -0.46463191509247
vn -0.64251887798309 -0.25344160199165 -0.72314375638962
vn -0.11199174821377 -0.09286137670279 -0.98936069011688
vn 0.17204694449902 0.0013971804874 -0.98508775234222
vn 0.16792832314968 0 -0.98579919338226
vn 0.94198131561279 0.23858930170536 0.23610673844814
vn -0.01828147470951 0.06220680475235 -0.99789583683014
vn -0.23447223007679 0.13183446228504 -0.96314197778702
vn 0.8557830452919 0.11421432346106 0.50456953048706
vn -0.66364580392838 0.2592745423317 -0.70167720317841
vn -0.83247703313828 0.30184724926949 -0.46461841464043
vn -0.57957482337952 -0.75322979688644 0.31102713942528
vn -0.39985731244087 -0.82250636816025 0.40447172522545
vn 0.46461451053619 -0.78424924612045 0.41120126843452
vn -0.20327632129192 -0.85398125648499 0.4789517223835
vn -0.85835599899292 -0.25914767384529 0.44279500842094
vn -0.93937289714813 -0.30178883671761 0.16279466450214
vn 0.93500238656998 -0.10140117257833 0.33983573317528
vn -0.61358284950256 0.64172345399857 -0.4601164162159
vn -0.25380995869637 0.88378965854645 -0.39306020736694
vn -0.45770591497421 0.76793479919434 -0.4480864405632
vn -0.54052519798279 -0.13199478387833 0.83090907335281
vn 0.22017478942871 -0.12739031016827 0.96710640192032
vn 0.08449691534042 -0.0839422494173 0.99288165569305
vn 0.62101095914841 -0.2474490404129 0.74371659755707
vn 0.82331740856171 -0.29964941740036 0.48203593492508
vn -0.05136086791754 0.94259822368622 -0.32995557785034
vn 0.51320779323578 0.84781605005264 -0.13351309299469
vn 0.70850569009781 0.70509105920792 -0.02943195775151
vn 0.28557473421097 0.9310405254364 -0.22717975080013
vn 0.18504989147186 0.95796191692352 -0.21923848986626
vn -0.34930688142776 -0.06281065940857 0.93490082025528
vn 0.8458017706871 -0.25344201922417 -0.46945339441299
vn 0.93647837638855 -0.29964941740036 -0.18225930631161
vn -0.93062871694565 -0.32279089093208 -0.17244185507298
vn -0.91185647249222 -0.38589981198311 -0.13999670743942
vn -0.87184417247772 -0.48227682709694 -0.08542127907276
vn 0.51266717910767 -0.12173533439636 -0.84991347789764
vn 0.53903448581696 0.13148114085197 -0.8319582939148
vn 0.34263330698013 0.06052059680223 -0.93751782178879
vn 0.85912472009659 0.25947394967079 -0.44110995531082
vn 0.93939137458801 0.30171892046928 -0.16281759738922
vn -0.07428257912397 -0.93608349561691 0.34384560585022
vn -0.86064165830612 -0.50380563735962 -0.07399831712246
vn 0.65424752235413 -0.57979488372803 0.48559045791626
vn 0.7972257733345 -0.39563125371933 0.45596814155579
vn 0.89699763059616 -0.18721213936806 0.40043330192566
vn 0.32218056917191 -0.05333491414785 -0.94517463445663
vn -0.95376580953598 -0.17565876245499 -0.24387450516224
vn -0.25393527746201 0.91866374015808 -0.30261173844337
vn 0.16657257080078 0.92525482177734 -0.34081834554672
vn -0.01816378161311 0.93562209606171 -0.35253557562828
vn 0.36883568763733 0.86616915464401 -0.33721104264259
vn 0.51044911146164 0.81179141998291 -0.28361317515373
vn -0.89021188020706 -0.44921091198921 -0.0757120475173
vn 0.63527280092239 0.25145471096039 0.73020476102829
vn 0.83250862360001 0.30175113677979 0.46462413668633
vn 0.36935740709305 0.17376284301281 0.91289734840393
vn 0.23444470763206 -0.13183607161045 0.9631484746933
vn 0.01825126819313 -0.06220715865493 0.99789637327194
vn -0.90531516075134 0.07945889979601 -0.41724184155464
vn 0.66363668441772 -0.25925081968307 0.70169466733932
vn 0.83248507976532 -0.30181801319122 0.46462291479111
vn -0.48813629150391 0.69825649261475 -0.52360373735428
vn 0.9479689002037 0.31001496315002 -0.07242733985186
vn -0.23444372415543 -0.1318673491478 -0.96314442157745
vn -0.01825123280287 -0.0622388087213 -0.99789440631866
vn -0.66363942623138 -0.25921002030373 -0.70170712471008
vn -0.83250862360001 -0.30175113677979 -0.46462413668633
vn 0.43753039836884 0.79499053955078 0.42018714547157
vn -0.07304722070694 0.72856318950653 0.68107253313065
vn 0.18064619600773 0.77827763557434 0.60137408971786
vn -0.45082041621208 0.74793142080307 0.48719558119774
vn -0.60819530487061 0.76013606786728 0.22867368161678
vn 0.85164588689804 -0.2562400996685 -0.45720925927162
vn 0.93934112787247 -0.30188488960266 -0.16279970109463
vn 0.51647579669952 -0.12310969084501 -0.84740591049194
vn -0.25272369384766 0.66743445396423 0.70047265291214
vn 0.5373620390892 0.61373442411423 0.57842206954956
vn -0.32758808135986 0.60115867853165 0.72889935970306
vn -0.54272609949112 0.47959333658218 0.68952053785324
vn 0.32362535595894 -0.0536219663918 -0.94466465711594
vn -0.85853981971741 -0.25924462080002 0.44238173961639
vn -0.5401297211647 -0.13186575472355 0.83118665218353
vn -0.50489813089371 0.11889131367207 0.85495185852051
vn -0.29079964756966 0.04233852401376 0.95584672689438
vn -0.85332900285721 0.25683110952377 0.45372611284256
vn -0.93939137458801 0.30171892046928 0.16281759738922
vn 0.59156370162964 0.58790427446365 -0.5517435669899
vn 0.43402472138405 0.50425428152084 -0.74655890464783
vn 0.68755954504013 0.68060982227325 -0.25304579734802
vn 0.92347311973572 0.38292554020882 0.02377828769386
vn 0.89667344093323 0.42630136013031 -0.11934766173363
vn 0.84941655397415 0.45973029732704 -0.25911298394203
vn 0.42080807685852 -0.04348333179951 0.90610694885254
vn 0.24794463813305 0.34877213835716 -0.90381491184235
vn -0.3476402759552 -0.06223845109344 0.9355600476265
vn 0.04999678581953 0.24619548022747 -0.96792978048325
vn 0.90833413600922 0.16674895584583 0.38356733322144
vn -0.73095995187759 -0.58940190076828 0.34395202994347
vn -0.88929712772369 -0.15313491225243 -0.43092957139015
vn 0.68416506052017 -0.11573823541403 0.7200853228569
vn 0.75345438718796 -0.01632937788963 0.65729737281799
vn 0.69405859708786 -0.10511552542448 0.71220320463181
vn 0.77967709302902 0.02923625521362 0.62549889087677
vn 0.84973376989365 0.18400935828686 0.49405780434608
vn -0.66464179754257 0.25947868824005 -0.70065832138062
vn -0.83250862360001 0.30175113677979 -0.46462413668633
vn -0.23318226635456 0.13148112595081 -0.96350336074829
vn -0.20238544046879 -0.12173397094011 -0.97171032428741
vn 0.00898629892617 -0.05330375954509 -0.99853789806366
vn -0.64270168542862 -0.25344094634056 -0.72298145294189
vn -0.82331740856171 -0.29964941740036 -0.48203593492508
vn -0.01290865428746 0.06052060052752 -0.99808347225189
vn 0.52699720859528 0.77756923437119 -0.3430161178112
vn -0.21359950304031 0.65672951936722 -0.72324377298355
vn -0.90326511859894 -0.06478502601385 -0.42416396737099
vn 0.48897358775139 0.74114143848419 -0.46001544594765
vn 0.72488927841187 0.63566941022873 -0.26544293761253
vn 0.20517800748348 0.76919484138489 -0.60517865419388
vn -0.73965018987656 0.43811058998108 -0.51085883378983
vn -0.83224844932556 -0.247483253479 0.49609935283661
vn -0.93647837638855 -0.29964941740036 0.18225930631161
vn -0.52783912420273 -0.12735764682293 0.83974158763886
vn 0.23489683866501 -0.13199263811111 0.96301680803299
vn 0.02004207856953 -0.06284266710281 0.9978221654892
vn 0.66332364082336 -0.25914293527603 0.70203042030334
vn 0.83250123262405 -0.30175960063934 0.46463191509247
vn -0.40811863541603 -0.0838161483407 0.90907317399979
vn -0.90093338489532 -0.1034202426672 0.42145377397537
vn -0.68404775857925 -0.07602325081825 0.72546476125717
vn -0.98478096723557 -0.07200112938881 0.15818437933922
vn -0.55215466022491 -0.05572142452002 0.83187758922577
vn -0.44298595190048 -0.03132078051567 0.89598125219345
vn -0.57638889551163 -0.08803488314152 0.81241965293884
vn -0.59053564071655 -0.0949048101902 0.80141174793243
vn -0.88827008008957 -0.3867299258709 0.24782292544842
vn 0.85873383283615 -0.25934630632401 -0.44194540381432
vn 0.93937289714813 -0.30178883671761 -0.16279466450214
vn 0.53979200124741 -0.13173723220825 -0.83142644166946
vn 0.53364962339401 0.12949848175049 -0.83573216199875
vn 0.37364143133163 0.07149704545736 -0.92481362819672
vn 0.84880948066711 0.25481116771698 -0.46324262022972
vn 0.93939965963364 0.30172497034073 -0.16275849938393
vn 0.34600147604942 -0.06163404136896 -0.93620735406876
# 163 normals

vt 0.49995157122612 0.00212597846985 0
vt 0.5 0 0
vt 0.5 0.00239622592926 0
vt 0.49946200847626 0.00165581703186 0
vt 0.2547627389431 0.75476276874542 0
vt 0.25495859980583 0.75495862960815 0
vt 0.49977412819862 0.00184786319733 0
vt 0.25515449047089 0.75515449047089 0
vt 0.50004839897156 0.00212597846985 0
vt 0.50022584199905 0.00184786319733 0
vt 0.25535038113594 0.75535035133362 0
vt 0.5 1 0
vt 0.74464964866638 0.75535035133362 0
vt 0.50053799152374 0.00165581703186 0
vt 0.74484550952911 0.75515449047089 0
vt 0.74504137039185 0.75495862960815 0
vt 0.74523729085922 0.75476276874542 0
vt 0.72123175859451 0.68088132143021 0
vt 0.7209849357605 0.68092042207718 0
vt 0.72073811292648 0.68095946311951 0
vt 0.72049129009247 0.68099856376648 0
vt 0.2555835545063 0.75463271141052 0
vt 0.25530993938446 0.75467610359192 0
vt 0.25503632426262 0.75471937656403 0
vt 0.72100907564163 0.68099474906921 0
vt 0.19191606342793 0.95058107376099 0
vt 0.72056376934052 0.68122166395187 0
vt 0.72078639268875 0.68110823631287 0
vt 0.19167397916317 0.95066893100739 0
vt 0.19139903783798 0.95069444179535 0
vt 0.19111704826355 0.95064401626587 0
vt 0.74496364593506 0.75471937656403 0
vt 0.74469006061554 0.75467610359192 0
vt 0.27926191687584 0.68095946311951 0
vt 0.27950873970985 0.68099856376648 0
vt 0.27901509404182 0.68092042207718 0
vt 0.27876827120781 0.68088132143021 0
vt 0.74441647529602 0.75463271141052 0
vt 0.27899092435837 0.68099474906921 0
vt 0.27921357750893 0.68110823631287 0
vt 0.80832600593567 0.95066893100739 0
vt 0.80808395147324 0.95058107376099 0
vt 0.27943626046181 0.68122166395187 0
vt 0.80860096216202 0.95069444179535 0
vt 0.80888295173645 0.95064401626587 0
# 45 texture coordinates

o Decagon_web
usemtl Mat
f 7/1/1 15/2/2 17/3/3
f 3/4/4 2/5/4 11/6/5 6/7/5
f 6/7/5 11/6/5 14/8/6 7/1/6
f 8/9/7 15/2/7 4/10/7
f 17/3/8 15/2/8 8/9/8
f 13/11/9 1/12/9 17/3/9
f 1/12/9 16/13/9 17/3/9
f 7/1/6 14/8/6 13/11/10 17/3/10
f 4/10/11 15/2/11 5/14/11
f 6/7/12 15/2/2 7/1/1
f 3/4/13 15/2/2 6/7/12
f 17/3/14 16/13/14 12/15/15 8/9/15
f 8/9/15 12/15/15 10/16/16 4/10/16
f 4/10/16 10/16/16 9/17/17 5/14/17
f 26/10/18 15/2/18 21/9/18
f 20/14/19 27/18/19 29/19/20 26/10/20
f 26/10/20 29/19/20 18/20/21 21/9/21
f 21/9/21 18/20/21 25/21/22 23/3/22
f 25/21/23 22/22/23 23/3/23
f 21/9/24 15/2/24 23/3/24
f 23/3/25 22/22/25 28/23/26 24/1/26
f 20/14/27 15/2/27 26/10/27
f 24/1/26 28/23/26 30/24/28 19/7/28
f 19/7/28 30/24/28 2/5/29 3/4/29
f 23/3/30 15/2/31 24/1/31
f 19/7/32 15/2/32 3/4/32
f 24/1/31 15/2/31 19/7/33
f 33/10/34 41/25/34 27/18/35 20/14/35
f 36/1/36 15/2/36 42/3/36
f 42/3/37 15/2/38 35/9/39
f 43/26/9 39/27/9 42/3/9
f 35/9/40 32/28/40 41/25/34 33/10/34
f 36/1/41 38/29/41 43/26/42 42/3/42
f 40/7/43 31/30/43 38/29/41 36/1/41
f 34/4/44 37/31/44 31/30/43 40/7/43
f 35/9/39 15/2/38 33/10/45
f 40/7/46 15/2/46 36/1/47
f 34/4/48 15/2/46 40/7/46
f 33/10/45 15/2/38 20/14/49
f 42/3/50 39/27/50 32/28/40 35/9/40
f 47/7/51 51/30/51 37/31/52 34/4/52
f 46/1/53 15/2/54 47/7/55
f 54/27/23 52/26/23 53/3/23
f 46/1/56 49/29/56 51/30/51 47/7/51
f 45/9/57 56/28/57 54/27/58 53/3/58
f 44/10/59 55/25/59 56/28/57 45/9/57
f 48/14/60 50/18/60 55/25/59 44/10/59
f 48/14/61 15/2/61 44/10/61
f 47/7/55 15/2/54 34/4/62
f 44/10/63 15/2/64 45/9/64
f 45/9/64 15/2/64 53/3/65
f 53/3/66 52/26/66 49/29/56 46/1/56
f 53/3/67 15/2/54 46/1/53
f 65/4/68 15/2/69 64/7/70
f 69/22/9 67/21/9 68/3/9
f 64/7/70 15/2/69 60/1/71
f 60/1/71 15/2/69 68/3/72
f 68/3/73 15/2/73 59/9/73
f 58/10/74 57/19/74 50/18/75 48/14/75
f 59/9/76 66/20/76 57/19/74 58/10/74
f 60/1/77 61/23/77 69/22/78 68/3/78
f 58/10/79 15/2/79 48/14/79
f 64/7/80 62/24/80 61/23/77 60/1/77
f 65/4/81 63/5/81 62/24/80 64/7/80
f 59/9/82 15/2/82 58/10/82
f 68/3/83 67/21/83 66/20/83 59/9/83
f 80/9/84 76/15/84 74/13/85 72/3/85
f 79/10/86 75/16/86 76/15/84 80/9/84
f 77/14/87 70/17/87 75/16/86 79/10/86
f 77/14/88 15/2/89 79/10/90
f 81/7/91 15/2/91 65/4/92
f 81/7/93 78/6/93 63/5/94 65/4/94
f 82/1/95 83/8/95 78/6/93 81/7/93
f 82/1/96 15/2/91 81/7/91
f 72/3/97 15/2/97 82/1/97
f 79/10/90 15/2/89 80/9/98
f 80/9/98 15/2/89 72/3/99
f 74/13/23 71/12/23 72/3/23
f 71/12/23 73/11/23 72/3/23
f 72/3/100 73/11/100 83/8/95 82/1/95
f 94/10/101 84/32/101 70/17/35 77/14/35
f 92/9/102 96/33/102 84/32/101 94/10/101
f 91/1/103 93/34/103 88/35/104 89/3/104
f 87/7/105 95/36/105 93/34/103 91/1/103
f 86/4/106 85/37/106 95/36/105 87/7/105
f 94/10/107 15/2/108 77/14/109
f 86/4/110 15/2/111 87/7/111
f 87/7/111 15/2/111 91/1/112
f 91/1/113 15/2/113 89/3/113
f 92/9/114 15/2/108 94/10/107
f 88/35/9 90/38/9 89/3/9
f 89/3/115 90/38/115 96/33/102 92/9/102
f 89/3/116 15/2/108 92/9/114
f 108/7/117 15/2/117 86/4/117
f 107/1/118 15/2/118 108/7/118
f 105/3/119 15/2/119 107/1/119
f 103/9/120 15/2/121 105/3/122
f 102/10/123 15/2/121 103/9/120
f 101/14/124 15/2/121 102/10/123
f 108/7/125 100/39/125 85/37/126 86/4/126
f 107/1/127 109/40/127 100/39/125 108/7/125
f 103/9/128 97/41/128 104/42/129 105/3/129
f 104/42/23 106/43/23 105/3/23
f 102/10/130 98/44/130 97/41/128 103/9/128
f 101/14/131 99/45/131 98/44/130 102/10/130
f 105/3/132 106/43/132 109/40/127 107/1/127
f 118/10/133 15/2/133 101/14/133
f 117/9/134 15/2/134 118/10/134
f 120/3/135 15/2/135 117/9/135
f 116/1/136 15/2/136 120/3/137
f 115/7/138 15/2/136 116/1/136
f 114/4/139 15/2/139 115/7/139
f 118/10/140 113/44/140 99/45/141 101/14/141
f 117/9/142 122/41/142 113/44/140 118/10/140
f 119/43/9 121/42/9 120/3/9
f 116/1/143 110/40/143 119/43/144 120/3/144
f 115/7/145 111/39/145 110/40/143 116/1/143
f 114/4/146 112/37/146 111/39/145 115/7/145
f 120/3/147 121/42/147 122/41/142 117/9/142
f 129/7/148 15/2/149 114/4/150
f 128/1/151 15/2/149 129/7/148
f 133/3/152 15/2/149 128/1/151
f 127/9/153 15/2/149 133/3/152
f 126/10/154 15/2/149 127/9/153
f 5/14/155 15/2/155 126/10/155
f 129/7/156 125/36/156 112/37/157 114/4/157
f 132/38/23 131/35/23 133/3/23
f 128/1/158 130/34/158 125/36/156 129/7/156
f 127/9/159 123/33/159 132/38/160 133/3/160
f 126/10/161 124/32/161 123/33/159 127/9/159
f 5/14/162 9/17/162 124/32/161 126/10/161
f 133/3/163 131/35/163 130/34/158 128/1/158

