# WaveFront *.obj file (generated by CINEMA 4D)

mtllib ./DecagonShape_58.mtl

v -0.00061015214305 0.00361881894059 -0.0027036878746
v 0.00121607654728 0.00204784586094 -0.00219241785817
v 0.00001927908124 -0.00341317779385 -0.00250432221219
v 0.00000750351319 -0.00340970768593 -0.00252359453589
v 0.00000633672835 -0.0034106222447 -0.00252153957263
v 0.00001807359331 -0.00341159617528 -0.00251643755473
v 0.00001242878716 -0.00340848136693 -0.00252270163037
v 0.00000953288873 -0.00340798567049 -0.00252394936979
v -0.0021248429548 0.00173437292688 -0.00310419732705
v -0.0021243521478 0.00173536327202 -0.00310579291545
v 0.00121630018111 0.00204919674434 -0.00220095715486
v -0.00212329090573 0.00173665990587 -0.00310677336529
v 0.00120526761748 0.00205409829505 -0.00221251999028
v 0.00121232727543 0.00205139955506 -0.00220831623301
v 0.00001426777726 -0.00342341442592 -0.00251459050924
v -0.00212203408591 0.00173813372385 -0.00310690049082
v 0.00000871296925 -0.00340581731871 -0.00252436101437
v -0.00193064124323 0.00122869689949 -0.00299429846928
v 0.00001223659183 -0.00341157615185 -0.00249439384788
v -0.00000955161431 -0.00341334682889 -0.0024863651488
v 0.00000093578586 -0.00340799754485 -0.00249200756662
v 0.00119559816085 0.00204892409965 -0.00218060705811
v 0.00000018403195 -0.00340578774922 -0.00249215099029
v 0.00000423195706 -0.00340845366009 -0.00249173888005
v -0.00192623818293 0.00123023544438 -0.00299420696683
v -0.00000520379626 -0.00341138406657 -0.00249105482362
v -0.00193774292711 0.00122693390585 -0.00298888236284
v 0.00120419193991 0.00204795575701 -0.0021806624718
v -0.00193473207764 0.00122750352602 -0.00299239996821
v 0.00121166545432 0.00204747659154 -0.00218498823233
v 0.00058389356127 0.0032792838756 -0.00031595429755
v -0.00193860265426 0.00122815091163 -0.00297990161926
v -0.00001101056569 -0.0034125871025 -0.00247988128103
v -0.00000491050832 -0.00341159873642 -0.002475642832
v -0.00001005881404 -0.00341011583805 -0.00247561233118
v -0.00000892950902 -0.00340973376296 -0.0024743580725
v 0.0005855706404 0.00327974394895 -0.00031693343772
v 0.000582063396 0.00327869039029 -0.00031613837928
v -0.00193632638548 0.00122980086599 -0.00297617865726
v -0.00000701365298 -0.0034112080466 -0.00247428473085
v -0.00193911441602 0.00122714741156 -0.00298442854546
v -0.00000927085512 -0.00340774632059 -0.00247395737097
v 0.00058071030071 0.00327793182805 -0.00031707543531
v -0.00000489242484 -0.00341015914455 -0.00248093903065
v -0.0000049054488 -0.00340838846751 -0.0024794365745
v -0.00000454261863 -0.00340839684941 -0.00247884565033
v -0.00000409300037 -0.00341036426835 -0.00247769919224
v -0.00000420374909 -0.00341079384089 -0.00248331110924
v 0.0005859330995 0.00327980867587 -0.00032066262793
v -0.00193239515647 0.00122948712669 -0.00298582832329
v 0.00058630510466 0.00327998120338 -0.00031877378933
v 0.00058496918064 0.003279162338 -0.00032205448952
v -0.00000501194154 -0.00340651581064 -0.00247893668711
v -0.00193206744734 0.00123103160877 -0.00298115774058
v -0.00193297117949 0.00122972601093 -0.00298419012688
v -0.00193284731358 0.00123025849462 -0.00298252445646
v -0.00193120958284 0.00122953916434 -0.00298711867072
v -0.0000027338574 -0.00340971210971 -0.0024850924965
v -0.00000014612768 -0.00340807181783 -0.00248542334884
v 0.00000431688386 -0.00340885226615 -0.00248508481309
v 0.00120587344281 0.00204722117633 -0.00217425334267
v 0.0012162612984 0.00204620347358 -0.00218032998964
v 0.00122236169409 0.00204637367278 -0.00219075218774
v 0.00001565139428 -0.00341264577582 -0.00248876889236
v 0.00002556414074 -0.00341465044767 -0.00250265654176
v -0.00192962260917 0.0012298229849 -0.00298780715093
v -0.00192791945301 0.00123023544438 -0.00298775592819
v -0.00000149724826 -0.00340578774922 -0.00248569971882
v 0.00119391689077 0.00204892409965 -0.00217415578663
v -0.00213075964712 0.00173174228985 -0.00310578383505
v -0.00060842052335 0.0036188068334 -0.0027101256419
v 0.00001044458531 -0.00340582919307 -0.00253079878166
v 0.00120699917898 0.00205408665352 -0.00221895775758
v -0.00212030252442 0.0017381219659 -0.00311333825812
v -0.00212861038744 0.0017330792034 -0.00311038596556
v -0.00212474982254 0.0017353342846 -0.00311314198188
v 0.00000042002227 -0.00341325276531 -0.00252312608063
v 0.00122259871569 0.00204791733995 -0.00220272829756
v 0.00000438474535 -0.00341163040139 -0.00252916431054
v 0.00000858986277 -0.00340847228654 -0.00253090425394
v 0.00002382409912 -0.00341267394833 -0.00251963362098
v 0.00001313257962 -0.0034085502848 -0.00252978131175
v 0.00121695979033 0.002050654497 -0.00221305224113
v -0.00213053100742 0.00173146277666 -0.00310054398142
v 0.00108609802555 0.0015150528634 -0.00222634733655
v 0.0000067089577 -0.00341023295186 -0.00250765332021
v 0.00000657258352 -0.00340944086201 -0.00251004542224
v 0.00108364841435 0.00151497300249 -0.00223043747246
v 0.00000524973939 -0.00340579380281 -0.00251148524694
v -0.00212346669286 0.00173325452488 -0.00309346965514
v 0.00000527662451 -0.00340787461028 -0.00251146988012
v 0.00000359001024 -0.00340843829326 -0.00251231552102
v 0.00108515517786 0.0015148766106 -0.00222957273945
v 0.00000082225461 -0.00341160595417 -0.00251591950655
v 0.00108604552224 0.00151487987023 -0.00222807796672
v -0.00212789466605 0.00173209642526 -0.00309604592621
v -0.00268991105258 0.00307242828421 -0.00320669612847
v -0.00269169872627 0.00307260337286 -0.00320598273538
v -0.00269280141219 0.00307262665592 -0.00320431962609
v 0.00108531408478 0.00151542189997 -0.00222483859397
v 0.00000119457343 -0.00341059849598 -0.00250222161412
v 0.00000234486834 -0.00340967997909 -0.00250428402796
v 0.00000337538268 -0.00340771954507 -0.00250498065725
v -0.00268816901371 0.00307194865309 -0.00320655689575
v 0.00000354659187 -0.00340578774922 -0.00250505330041
v 0.00108229985926 0.00151659629773 -0.00222391309217
v 0.00000406249228 -0.00340765691362 -0.00250503676943
v 0.00000540698966 -0.00340943690389 -0.00250564352609
v 0.00108391884714 0.00151596032083 -0.00222394941375
v 0.00108560035005 0.00151522574015 -0.00221754028462
v 0.00108991016168 0.00151414854918 -0.00222018011846
v 0.00109238305595 0.00151358009316 -0.00222468189895
v -0.00269265077077 0.00307260337286 -0.00320232985541
v 0.00001299401902 -0.00341170537286 -0.00250598788261
v 0.0000088217912 -0.00341050652787 -0.00250001857057
v 0.00000414758961 -0.00340805435553 -0.00249840365723
v 0.00000225909594 -0.00340783572756 -0.00249866303056
v 0.00000119188996 -0.00340967997909 -0.0024998600129
v 0.00108061858919 0.00151659629773 -0.00221746182069
v 0.00000186531179 -0.00340578774922 -0.00249860202894
v -0.00268985028379 0.00307194865309 -0.0032001058571
v -0.00269143865444 0.00307242828421 -0.00320083461702
v -0.00212343689054 0.00173340155743 -0.00310082780197
v -0.00212454097345 0.00173373473808 -0.00310238893144
v 0.00109234417323 0.00151360034943 -0.00222984934226
v 0.00000631601688 -0.00340969953686 -0.00251917960122
v 0.0000073765209 -0.00340785831213 -0.00251790741459
v 0.00000907237973 -0.00340807251632 -0.00251698028296
v 0.00001232308932 -0.00341051863506 -0.00251324148849
v 0.00108978780918 0.00151413190179 -0.00223430874757
v 0.00108537997585 0.00151496089529 -0.00223687547259
v -0.00212173489854 0.00173324288335 -0.00309990742244
v 0.00000698135409 -0.00340580544434 -0.00251792324707
# 133 vertices

vn 0.35618102550507 -0.41173323988914 -0.83881515264511
vn 0.61771923303604 -0.42336043715477 -0.66271328926086
vn 0.05519615858793 -0.47131052613258 -0.88023847341537
vn -0.97545701265335 0.21008193492889 0.0659481883049
vn -0.91888326406479 0.18141394853592 0.35034626722336
vn -0.62987023591995 0.09396108984947 0.77099597454071
vn 0.23235081136227 -0.45130279660225 -0.86159092187881
vn 0.91371637582779 0.37513333559036 0.15619663894176
vn -0.2597199678421 0.0017650583759 0.96568238735199
vn -0.44189178943634 0.04561988264322 0.89590764045715
vn -0.51729410886765 -0.63337355852127 -0.57553863525391
vn 0.82630628347397 -0.33667972683907 -0.45151382684708
vn 0.93674278259277 -0.32279661297798 -0.13533410429955
vn 0.48147767782211 0.29314115643501 0.82598274946213
vn 0.37245601415634 0.25543946027756 0.89220356941223
vn 0.54020458459854 0.31229043006897 0.78144335746765
vn 0.7608351111412 0.375128865242 0.52953588962555
vn 0.62115460634232 -0.3582572042942 0.69700694084167
vn 0.43602201342583 -0.60235732793808 0.66861832141876
vn -0.65049141645432 -0.34368190169334 -0.67730617523193
vn -0.44952863454819 -0.27874872088432 -0.84865963459015
vn 0.03514198213816 -0.09316830337048 -0.99502998590469
vn 0.28301006555557 0.01373018231243 -0.95901864767075
vn 0.25219202041626 0 -0.96767723560333
vn 0.89480537176132 0.32431012392044 0.30683276057243
vn 0.06049786880612 0.04359552636743 -0.99721586704254
vn -0.16548390686512 0.09227685630322 -0.98188596963882
vn 0.74747866392136 -0.08022625744343 0.65942353010178
vn -0.6252281665802 0.18046155571938 -0.75929135084152
vn -0.81490969657898 0.20958849787712 -0.54036545753479
vn -0.54806232452393 -0.78952133655548 0.27619498968124
vn -0.36959201097488 -0.84344482421875 0.38987505435944
vn 0.50390863418579 -0.72212094068527 0.47393822669983
vn -0.1734933257103 -0.85714817047119 0.48497125506401
vn -0.92422366142273 -0.37978807091713 0.03964465484023
vn -0.89559930562973 -0.39446571469307 -0.20566654205322
vn 0.87270212173462 0.05204402655363 0.48547130823135
vn -0.5816798210144 0.58684873580933 -0.56325578689575
vn -0.42280215024948 0.74383097887039 -0.51764261722565
vn -0.63883894681931 -0.18455830216408 0.74687552452087
vn -0.83554977178574 -0.29712450504303 0.46214026212692
vn -0.28303977847099 -0.27174961566925 0.91980469226837
vn -0.43493843078613 -0.2414655983448 0.86748081445694
vn 0.2034258544445 -0.31682950258255 0.92641079425812
vn 0.50850856304169 -0.30470257997513 0.8053417801857
vn -0.24193438887596 0.86216193437576 -0.44513434171677
vn 0.60592538118362 0.79146057367325 0.080278031528
vn -0.01423375960439 0.95486813783646 -0.29668873548508
vn 0.36073675751686 0.93224549293518 -0.02806057594717
vn -0.74310195446014 -0.2411130964756 0.62423068284988
vn 0.99510610103607 -0.0957202911377 0.0245260130614
vn 0.93384921550751 -0.18177819252014 0.30802968144417
vn -0.88883054256439 -0.30995425581932 -0.33750346302986
vn -0.89924514293671 -0.23955197632313 -0.36602327227592
vn -0.90044003725052 -0.2384749352932 -0.36378210783005
vn 0.63883894681931 0.18455830216408 -0.74687552452087
vn 0.88517129421234 0.07026324421167 -0.4599292576313
vn 0.83477216959 0.2966373860836 -0.46385526657104
vn 0.73874485492706 0.23870146274567 -0.63029962778091
vn 0.92423641681671 0.37995803356171 -0.03766912594438
vn 0.89561069011688 0.39443841576576 0.2056692391634
vn -0.4093821644783 -0.90403592586517 0.12298487126827
vn -0.90420234203339 -0.09488585591316 -0.41643106937408
vn 0.66896414756775 -0.47804164886475 0.56917756795883
vn 0.78306233882904 -0.28911629319191 0.55065882205963
vn 0.85875141620636 -0.0860043913126 0.50512301921844
vn 0.76000899076462 0.1378278285265 -0.63512974977493
vn -0.89687925577164 -0.24166910350323 -0.37041011452675
vn -0.31350553035736 0.88228052854538 -0.35113435983658
vn 0.11836195737123 0.92873001098633 -0.35135599970818
vn -0.07036175578833 0.92201191186905 -0.38071408867836
vn -0.25219202041626 0 0.96767723560333
vn 0.32886689901352 0.88616502285004 -0.32643243670464
vn 0.47173455357552 0.84341305494308 -0.257139980793
vn -0.84376794099808 -0.51669317483902 -0.14520257711411
vn 0.44293278455734 0.27643790841103 0.85287314653397
vn 0.65052258968353 0.34368115663528 0.67727661132812
vn 0.20059920847416 0.18753030896187 0.96155726909637
vn 0.16545584797859 -0.092280857265 0.98189032077789
vn -0.06052834168077 -0.04359863698483 0.99721384048462
vn -0.67630714178085 0.43717867136002 -0.59286040067673
vn -0.8105908036232 0.1881128847599 -0.5545774102211
vn 0.62523037195206 -0.18043185770512 0.75929659605026
vn 0.81489849090576 -0.20955720543861 0.54039454460144
vn -0.48688670992851 0.65057724714279 -0.58282977342606
vn 0.92206007242203 0.38623678684235 0.0250279083848
vn -0.13606604933739 -0.16693277657032 -0.97653442621231
vn 0.07858340442181 -0.07993169873953 -0.99369794130325
vn -0.57666647434235 -0.32383632659912 -0.75005722045898
vn -0.76082533597946 -0.37515658140182 -0.52953034639359
vn 0.33600550889969 0.83072304725647 0.44384625554085
vn -0.20030562579632 0.72494554519653 0.65903836488724
vn 0.06058548763394 0.795878469944 0.6024175286293
vn -0.56645488739014 0.7046514749527 0.42731148004532
vn -0.70155113935471 0.69601595401764 0.1529306024313
vn 0.91336280107498 -0.17942912876606 -0.36547711491585
vn 0.97543585300446 -0.21017830073833 -0.06595391780138
vn 0.6068566441536 -0.08784257620573 -0.78994220495224
vn -0.378328114748 0.64733892679214 0.6616798043251
vn 0.43565303087234 0.65941017866135 0.61268639564514
vn -0.45083132386208 0.57453244924545 0.68312776088715
vn -0.65176349878311 0.432511895895 0.62300711870193
vn 0.2597199678421 -0.0017650583759 -0.96568238735199
vn 0.41696536540985 -0.03929575532675 -0.9080725312233
vn -0.87544107437134 -0.32181110978127 0.36061137914658
vn -0.92414176464081 -0.3740696310997 0.07767820358276
vn -0.60777699947357 -0.1637167930603 0.7770482301712
vn -0.59561175107956 0.08490102738142 0.79877310991287
vn -0.38396227359772 0.03142332285643 0.92281395196915
vn -0.91472989320755 0.17979057133198 0.36186262965202
vn -0.9754678606987 0.21002151072025 0.06598043441772
vn 0.59630405902863 0.6218558549881 -0.50765812397003
vn 0.46271750330925 0.52274197340012 -0.71598416566849
vn 0.65742111206055 0.72580009698868 -0.2025136500597
vn 0.88495475053787 0.45478418469429 0.10013227164745
vn 0.86902850866318 0.49281752109528 -0.0438217446208
vn 0.83359861373901 0.51982825994492 -0.18679375946522
vn 0.3453688621521 0.01142514217645 0.93839746713638
vn 0.30223619937897 0.35016837716103 -0.88658636808395
vn -0.43062108755112 -0.07644286006689 0.899289727211
vn 0.11681943386793 0.2300051599741 -0.96615260839462
vn 0.85476016998291 0.25107645988464 0.45425283908844
vn -0.71371829509735 -0.63779282569885 0.28952819108963
vn -0.83213365077972 -0.23411910235882 -0.50273436307907
vn 0.6297659277916 -0.03795851767063 0.77585697174072
vn 0.69501000642776 0.06429921835661 0.7161191701889
vn 0.63861721754074 -0.0276658218354 0.76902711391449
vn 0.71998554468155 0.1109239384532 0.68506693840027
vn 0.78701251745224 0.26520475745201 0.55702579021454
vn -0.62633085250854 0.18057511746883 -0.7583549618721
vn -0.8149037361145 0.20945876836777 -0.5404247045517
vn -0.16414003074169 0.09204740077257 -0.98213303089142
vn -0.11157773435116 -0.15267568826675 -0.98195749521256
vn 0.0975655913353 -0.06696408241987 -0.99297368526459
vn -0.56039035320282 -0.31575545668602 -0.7656769156456
vn -0.75448727607727 -0.37205880880356 -0.54066735506058
vn 0.06607665866613 0.04243361204863 -0.99691188335419
vn 0.49612936377525 0.80938786268234 -0.31424021720886
vn -0.21028262376785 0.61493873596191 -0.76002079248428
vn -0.85426014661789 -0.14942118525505 -0.49790853261948
vn 0.47075545787811 0.76791304349899 -0.43439480662346
vn 0.69778054952621 0.68397629261017 -0.21278813481331
vn 0.19302612543106 0.76917409896851 -0.60918968915939
vn -0.73394578695297 0.34850284457207 -0.58298319578171
vn -0.8523553609848 -0.30845320224762 0.42231148481369
vn -0.92240470647812 -0.37205883860588 0.10364273190498
vn -0.59032881259918 -0.15961322188377 0.79122406244278
vn 0.16591909527779 -0.09240092337132 0.98180085420609
vn -0.05866157263517 -0.04405804723501 0.99730521440506
vn 0.62486827373505 -0.18035830557346 0.75961208343506
vn 0.81491500139236 -0.20949004590511 0.54039561748505
vn -0.47980540990829 -0.10502726584673 0.87106603384018
vn -0.92657577991486 -0.17456226050854 0.33314463496208
vn -0.74458312988281 -0.12421055138111 0.65587174892426
vn -0.9856498837471 -0.15548488497734 0.06571768224239
vn -0.62635391950607 -0.09149698168039 0.77415055036545
vn -0.52417230606079 -0.05604613944888 0.84976595640182
vn -0.64409321546555 -0.12439891695976 0.75476408004761
vn -0.65779632329941 -0.13333132863045 0.74130076169968
vn -0.87616336345673 -0.45148691534996 0.16881161928177
vn 0.91914355754852 -0.18150591850281 -0.34961515665054
vn 0.97545862197876 -0.21008397638798 -0.06591857969761
vn 0.62932658195496 -0.09380020201206 -0.77145934104919
vn 0.6019144654274 0.16072256863117 -0.78221940994263
vn 0.45484945178032 0.0880282074213 -0.88620710372925
vn 0.86826819181442 0.31637901067734 -0.38211870193481
vn 0.92415797710419 0.37403783202171 -0.07763866335154
vn 0.4392549097538 -0.04494297504425 -0.89723753929138
# 168 normals

vt 0.49995157122612 0.00212597846985 0
vt 0.5 0 0
vt 0.5 0.00239622592926 0
vt 0.49946200847626 0.00165581703186 0
vt 0.2547627389431 0.75476276874542 0
vt 0.25495859980583 0.75495862960815 0
vt 0.49977412819862 0.00184786319733 0
vt 0.25515449047089 0.75515449047089 0
vt 0.50004839897156 0.00212597846985 0
vt 0.50022584199905 0.00184786319733 0
vt 0.25535038113594 0.75535035133362 0
vt 0.5 1 0
vt 0.74464964866638 0.75535035133362 0
vt 0.50053799152374 0.00165581703186 0
vt 0.74484550952911 0.75515449047089 0
vt 0.74504137039185 0.75495862960815 0
vt 0.74523729085922 0.75476276874542 0
vt 0.72123175859451 0.68088132143021 0
vt 0.7209849357605 0.68092042207718 0
vt 0.72073811292648 0.68095946311951 0
vt 0.72049129009247 0.68099856376648 0
vt 0.2555835545063 0.75463271141052 0
vt 0.25530993938446 0.75467610359192 0
vt 0.25503632426262 0.75471937656403 0
vt 0.72100907564163 0.68099474906921 0
vt 0.19191606342793 0.95058107376099 0
vt 0.72056376934052 0.68122166395187 0
vt 0.72078639268875 0.68110823631287 0
vt 0.19167397916317 0.95066893100739 0
vt 0.19139903783798 0.95069444179535 0
vt 0.19111704826355 0.95064401626587 0
vt 0.74496364593506 0.75471937656403 0
vt 0.74469006061554 0.75467610359192 0
vt 0.27926191687584 0.68095946311951 0
vt 0.27950873970985 0.68099856376648 0
vt 0.27901509404182 0.68092042207718 0
vt 0.27876827120781 0.68088132143021 0
vt 0.74441647529602 0.75463271141052 0
vt 0.27899092435837 0.68099474906921 0
vt 0.27921357750893 0.68110823631287 0
vt 0.80832600593567 0.95066893100739 0
vt 0.80808395147324 0.95058107376099 0
vt 0.27943626046181 0.68122166395187 0
vt 0.80860096216202 0.95069444179535 0
vt 0.80888295173645 0.95064401626587 0
# 45 texture coordinates

o Decagon_web
usemtl Mat
f 7/1/1 15/2/2 17/3/3
f 3/4/4 2/5/4 11/6/5 6/7/5
f 6/7/5 11/6/5 14/8/6 7/1/6
f 8/9/7 15/2/7 4/10/7
f 17/3/8 15/2/8 8/9/8
f 13/11/9 1/12/9 17/3/9
f 1/12/9 16/13/9 17/3/9
f 7/1/6 14/8/6 13/11/10 17/3/10
f 4/10/11 15/2/11 5/14/11
f 6/7/12 15/2/2 7/1/1
f 3/4/13 15/2/2 6/7/12
f 17/3/14 16/13/14 12/15/15 8/9/15
f 8/9/15 12/15/15 10/16/16 4/10/16
f 4/10/16 10/16/16 9/17/17 5/14/17
f 26/10/18 15/2/18 21/9/19
f 20/14/20 27/18/20 29/19/21 26/10/21
f 26/10/21 29/19/21 18/20/22 21/9/22
f 21/9/22 18/20/22 25/21/23 23/3/23
f 25/21/24 22/22/24 23/3/24
f 21/9/25 15/2/25 23/3/25
f 23/3/26 22/22/26 28/23/27 24/1/27
f 20/14/28 15/2/18 26/10/18
f 24/1/27 28/23/27 30/24/29 19/7/29
f 19/7/29 30/24/29 2/5/30 3/4/30
f 23/3/31 15/2/32 24/1/32
f 19/7/33 15/2/33 3/4/33
f 24/1/32 15/2/32 19/7/34
f 33/10/35 41/25/35 27/18/36 20/14/36
f 36/1/37 15/2/37 42/3/37
f 42/3/38 15/2/39 35/9/39
f 43/26/40 39/27/40 42/3/40
f 35/9/41 32/28/41 41/25/35 33/10/35
f 36/1/42 38/29/42 43/26/43 42/3/43
f 40/7/44 31/30/44 38/29/42 36/1/42
f 34/4/45 37/31/45 31/30/44 40/7/44
f 35/9/39 15/2/39 33/10/46
f 40/7/47 15/2/47 36/1/47
f 34/4/48 15/2/48 40/7/48
f 33/10/49 15/2/49 20/14/49
f 42/3/50 39/27/50 32/28/41 35/9/41
f 47/7/51 51/30/51 37/31/52 34/4/52
f 46/1/53 15/2/54 47/7/55
f 54/27/56 52/26/56 53/3/56
f 46/1/57 49/29/57 51/30/51 47/7/51
f 45/9/58 56/28/58 54/27/59 53/3/59
f 44/10/60 55/25/60 56/28/58 45/9/58
f 48/14/61 50/18/61 55/25/60 44/10/60
f 48/14/62 15/2/62 44/10/62
f 47/7/55 15/2/54 34/4/63
f 44/10/64 15/2/65 45/9/65
f 45/9/65 15/2/65 53/3/66
f 53/3/67 52/26/67 49/29/57 46/1/57
f 53/3/68 15/2/54 46/1/53
f 65/4/69 15/2/70 64/7/71
f 69/22/72 67/21/72 68/3/72
f 64/7/71 15/2/70 60/1/73
f 60/1/73 15/2/70 68/3/74
f 68/3/75 15/2/75 59/9/75
f 58/10/76 57/19/76 50/18/77 48/14/77
f 59/9/78 66/20/78 57/19/76 58/10/76
f 60/1/79 61/23/79 69/22/80 68/3/80
f 58/10/81 15/2/81 48/14/82
f 64/7/83 62/24/83 61/23/79 60/1/79
f 65/4/84 63/5/84 62/24/83 64/7/83
f 59/9/85 15/2/81 58/10/81
f 68/3/86 67/21/86 66/20/86 59/9/86
f 80/9/87 76/15/87 74/13/88 72/3/88
f 79/10/89 75/16/89 76/15/87 80/9/87
f 77/14/90 70/17/90 75/16/89 79/10/89
f 77/14/91 15/2/92 79/10/93
f 81/7/94 15/2/94 65/4/95
f 81/7/96 78/6/96 63/5/97 65/4/97
f 82/1/98 83/8/98 78/6/96 81/7/96
f 82/1/99 15/2/94 81/7/94
f 72/3/100 15/2/100 82/1/100
f 79/10/93 15/2/92 80/9/101
f 80/9/101 15/2/92 72/3/102
f 74/13/103 71/12/103 72/3/103
f 71/12/103 73/11/103 72/3/103
f 72/3/104 73/11/104 83/8/98 82/1/98
f 94/10/105 84/32/105 70/17/106 77/14/106
f 92/9/107 96/33/107 84/32/105 94/10/105
f 91/1/108 93/34/108 88/35/109 89/3/109
f 87/7/110 95/36/110 93/34/108 91/1/108
f 86/4/111 85/37/111 95/36/110 87/7/110
f 94/10/112 15/2/113 77/14/114
f 86/4/115 15/2/116 87/7/116
f 87/7/116 15/2/116 91/1/117
f 91/1/118 15/2/118 89/3/118
f 92/9/119 15/2/113 94/10/112
f 88/35/9 90/38/9 89/3/9
f 89/3/120 90/38/120 96/33/107 92/9/107
f 89/3/121 15/2/113 92/9/119
f 108/7/122 15/2/122 86/4/122
f 107/1/123 15/2/123 108/7/123
f 105/3/124 15/2/124 107/1/124
f 103/9/125 15/2/126 105/3/127
f 102/10/128 15/2/126 103/9/125
f 101/14/129 15/2/126 102/10/128
f 108/7/130 100/39/130 85/37/131 86/4/131
f 107/1/132 109/40/132 100/39/130 108/7/130
f 103/9/133 97/41/133 104/42/134 105/3/134
f 104/42/24 106/43/24 105/3/24
f 102/10/135 98/44/135 97/41/133 103/9/133
f 101/14/136 99/45/136 98/44/135 102/10/135
f 105/3/137 106/43/137 109/40/132 107/1/132
f 118/10/138 15/2/138 101/14/138
f 117/9/139 15/2/139 118/10/139
f 120/3/140 15/2/140 117/9/140
f 116/1/141 15/2/141 120/3/142
f 115/7/143 15/2/141 116/1/141
f 114/4/144 15/2/144 115/7/144
f 118/10/145 113/44/145 99/45/146 101/14/146
f 117/9/147 122/41/147 113/44/145 118/10/145
f 119/43/72 121/42/72 120/3/72
f 116/1/148 110/40/148 119/43/149 120/3/149
f 115/7/150 111/39/150 110/40/148 116/1/148
f 114/4/151 112/37/151 111/39/150 115/7/150
f 120/3/152 121/42/152 122/41/147 117/9/147
f 129/7/153 15/2/154 114/4/155
f 128/1/156 15/2/154 129/7/153
f 133/3/157 15/2/154 128/1/156
f 127/9/158 15/2/154 133/3/157
f 126/10/159 15/2/154 127/9/158
f 5/14/160 15/2/160 126/10/160
f 129/7/161 125/36/161 112/37/162 114/4/162
f 132/38/103 131/35/103 133/3/103
f 128/1/163 130/34/163 125/36/161 129/7/161
f 127/9/164 123/33/164 132/38/165 133/3/165
f 126/10/166 124/32/166 123/33/164 127/9/164
f 5/14/167 9/17/167 124/32/166 126/10/166
f 133/3/168 131/35/168 130/34/163 128/1/163

