# WaveFront *.obj file (generated by CINEMA 4D)

mtllib ./DecagonShape_49.mtl

v 0.00161785748787 0.00358936423436 -0.00877548567951
v 0.00021375506185 0.00243554334156 -0.00711555499583
v 0.00001802289989 -0.00315261050127 -0.00740986317396
v 0.00003282188482 -0.00315291876905 -0.00741776870564
v 0.00003122512135 -0.00315379910171 -0.00741952797398
v 0.00002638498518 -0.0031522102654 -0.00741141382605
v 0.00003154199658 -0.00315073435195 -0.00741466507316
v 0.00003297449803 -0.003150903387 -0.00741630932316
v 0.00222725770436 0.00143181555904 -0.00976515654474
v 0.00222869939171 0.00143269880209 -0.00976420287043
v 0.00021965334599 0.00243626208976 -0.00711620319635
v 0.00222941930406 0.00143405050039 -0.00976300984621
v 0.00022942334181 0.0024380388204 -0.00712259626016
v 0.00022505169909 0.00243709189817 -0.00711863161996
v 0.00002402314021 -0.00316427322105 -0.00741360895336
v 0.0022293177899 0.0014357031323 -0.00976199656725
v 0.00003373099753 -0.0031489811372 -0.00741684436798
v -0.00149494514335 0.00111154373735 -0.00967009458691
v 0.00000986033319 -0.00315159745514 -0.00741206202656
v -0.00000235163998 -0.00315584405325 -0.00742094498128
v 0.00000349668289 -0.00315000559203 -0.00741763133556
v 0.00019872651319 0.00243384530768 -0.00712407333776
v 0.00000322066467 -0.00314784934744 -0.00741804111749
v 0.00000508858693 -0.00314975366928 -0.00741569604725
v -0.00149308878463 0.00111301033758 -0.00966793112457
v 0.00000118471974 -0.00315316393971 -0.00741958897561
v -0.00150003528688 0.00110892893281 -0.00967290159315
v 0.00020275484712 0.00243436428718 -0.00711968820542
v -0.00149729650002 0.0011101574637 -0.00967177562416
v 0.0002079327387 0.00243491935544 -0.00711675453931
v -0.00554060237482 0.00108769338112 -0.00849932711571
v -0.00150615838356 0.00110721064266 -0.00967332255095
v -0.00000679188679 -0.00315702357329 -0.00742159318179
v -0.00001060280738 -0.00315802916884 -0.0074168308638
v -0.00001037581296 -0.00315659446642 -0.0074217217043
v -0.00001139756478 -0.0031569164712 -0.00742119224742
v -0.00554070994258 0.00108848023228 -0.00849749613553
v -0.00553948897868 0.00108746276237 -0.00850088987499
v -0.0015092601534 0.00110682460945 -0.00967261102051
v -0.00001110067569 -0.0031582925003 -0.00741930119693
v -0.00150303542614 0.00110792682972 -0.00967342313379
v -0.00001245884687 -0.00315543613397 -0.00742198107764
v -0.00553788430989 0.00108747824561 -0.0085017317906
v -0.00000736052334 -0.00315407919697 -0.00741563923657
v -0.00000951712809 -0.00315328408033 -0.00741602387279
v -0.00001008421532 -0.00315362936817 -0.00741584086791
v -0.0000100192201 -0.00315592740662 -0.00741554098204
v -0.00000485662258 -0.00315367011353 -0.00741516193375
v -0.0055380561389 0.00109059643 -0.00849590823054
v -0.00150254019536 0.00111110275611 -0.00966711807996
v -0.00553970970213 0.00108964636456 -0.00849622301757
v -0.00553630711511 0.00109092716593 -0.00849624909461
v -0.00001088186036 -0.00315198698081 -0.00741649791598
v -0.00150768319145 0.00111027352978 -0.00966712832451
v -0.00150421366561 0.00111066247337 -0.00966745894402
v -0.0015059543075 0.00111037795432 -0.00966746080667
v -0.00150100933388 0.00111166678835 -0.00966644845903
v -0.00000301018349 -0.00315197417513 -0.00741454586387
v -0.00000170108308 -0.00314984633587 -0.00741345342249
v 0.00000021866629 -0.00314982281998 -0.0074111437425
v 0.00019861622422 0.00243423413485 -0.00711446348578
v 0.00020561277051 0.00243467162363 -0.00711050909013
v 0.00021348145674 0.0024352024775 -0.00710890255868
v 0.00000669487372 -0.00315179536119 -0.00740619841963
v 0.00001774931479 -0.00315295113251 -0.00740321073681
v -0.00149968964979 0.00111231661867 -0.00966547522694
v -0.00149863993283 0.00111301033758 -0.00966423936188
v -0.00000233045353 -0.00314784934744 -0.0074143493548
v 0.00019317539409 0.00243384530768 -0.00712038157508
v 0.0022304598242 0.00142801110633 -0.00976959615946
v 0.00162308756262 0.00358896423131 -0.00877137109637
v 0.00003896106136 -0.00314938114025 -0.00741272978485
v 0.00023465346021 0.00243763881736 -0.00711848121136
v 0.00223454786465 0.00143530312926 -0.00975788198411
v 0.00223408779129 0.00142920389771 -0.00976599007845
v 0.00223554973491 0.00143180170562 -0.00976166594774
v 0.00003442739035 -0.00315760378726 -0.00742396805435
v 0.0002214529668 0.00243586162105 -0.00710979662836
v 0.00003873918467 -0.00315596209839 -0.00741817848757
v 0.0000392989059 -0.00315230945125 -0.00741405179724
v 0.00002905870497 -0.00315262493677 -0.00740532111377
v 0.00003740084867 -0.00315143610351 -0.00741115724668
v 0.00022874794377 0.0024366711732 -0.00711309909821
v 0.00222554500215 0.00142834731378 -0.00977141782641
v 0.00019510043785 0.00188801472541 -0.00715773180127
v 0.0000185700701 -0.00315192877315 -0.0074231675826
v 0.00002103754559 -0.00315138138831 -0.00742359971628
v 0.00019963928207 0.00188713823445 -0.00715988175943
v 0.0000232708735 -0.00314818136394 -0.00742507399991
v 0.00221676495858 0.00143213302363 -0.00976799055934
v 0.00002290531847 -0.00315021025017 -0.00742478994653
v 0.00002419766133 -0.00315115484409 -0.00742593267933
v 0.00019837595755 0.00188739656005 -0.00715869059786
v 0.00002797926209 -0.00315513950773 -0.00742664374411
v 0.00019681146659 0.00188768969383 -0.00715795019642
v 0.00222056661732 0.00142992753536 -0.00977086648345
v -0.00207764934748 0.002805885626 -0.01057041902095
v -0.00207946239971 0.00280581228435 -0.01057108491659
v -0.00208139023744 0.00280573242344 -0.01057057548314
v 0.00019341168809 0.0018883679295 -0.00715805543587
v 0.00001111665915 -0.00315284729004 -0.00742422649637
v 0.00001326345409 -0.00315184611827 -0.00742512661964
v 0.00001431199962 -0.00314977997914 -0.00742522766814
v -0.00207641255111 0.00280568562448 -0.01056910958141
v 0.00001432289901 -0.00314784934744 -0.00742542464286
v 0.00019074932788 0.00188912521116 -0.00716014532372
v 0.00001482089829 -0.00314961513504 -0.00742479320616
v 0.00001619125032 -0.00315120141022 -0.00742379017174
v 0.0001919119095 0.00188874127343 -0.00715888757259
v 0.0001877732866 0.0018886111211 -0.00715366285294
v 0.0001910917199 0.00188812031411 -0.00715181045234
v 0.00019482689095 0.00188767409418 -0.00715107936412
v -0.00208260584623 0.00280581228435 -0.01056899409741
v 0.000018296485 -0.00315226963721 -0.00741651514545
v 0.0000130257913 -0.0031513995491 -0.00741792609915
v 0.00000996654035 -0.00314968428575 -0.00742025533691
v 0.00000915100827 -0.00314980000257 -0.00742141529918
v 0.00000945664215 -0.00315184611827 -0.00742259481922
v 0.00018519820878 0.00188912521116 -0.00715645356104
v 0.00000877178172 -0.00314784934744 -0.00742173288018
v -0.00208196369931 0.00280568562448 -0.01056541781873
v -0.00208269315772 0.002805885626 -0.01056706532836
v 0.0022234946955 0.00143148354255 -0.00976508297026
v 0.00222538691014 0.00143144221511 -0.00976551510394
v 0.0001986110874 0.00188728922512 -0.00715154362842
v 0.00002923524517 -0.00315264449455 -0.00742059014738
v 0.0000281432076 -0.00315051269718 -0.00742051377892
v 0.00002707594649 -0.00315031968057 -0.00741956895217
v 0.00002371126538 -0.00315179582685 -0.00741750700399
v 0.00020207215857 0.00188697595149 -0.00715315854177
v 0.00020486934227 0.00188673823141 -0.00715576671064
v 0.00222199526615 0.001431733137 -0.0097638759762
v 0.00002850093551 -0.00314858113416 -0.00742095895112
# 133 vertices

vn 0.69188821315765 -0.33430221676826 0.63994747400284
vn 0.54457384347916 -0.30567783117294 0.78102523088455
vn 0.78733044862747 -0.40068709850311 0.46857297420502
vn -0.1504298299551 0.05728483572602 -0.9869596362114
vn -0.32145094871521 0.06103306636214 -0.94495725631714
vn -0.5987828373909 0.06300313770771 -0.79842948913574
vn 0.76632761955261 -0.41380053758621 0.49143779277802
vn -0.24969740211964 0.34955495595932 0.90302962064743
vn -0.7845099568367 0.05996451154351 -0.61721020936966
vn -0.70359760522842 0.0619028955698 -0.7078971862793
vn 0.69526332616806 -0.65064817667007 -0.30539458990097
vn 0.38600125908852 -0.23771980404854 0.89134299755096
vn 0.1880204975605 -0.21131370961666 0.95916360616684
vn -0.89530801773071 0.2353039085865 -0.37822693586349
vn -0.91608411073685 0.30645960569382 -0.25859692692757
vn -0.85566931962967 0.49196615815163 0.16062158346176
vn -0.70264977216721 0.56064003705978 0.43813937902451
vn -0.33313325047493 -0.18744026124477 0.9240608215332
vn -0.25055378675461 -0.06682891398668 0.96579331159592
vn -0.22753092646599 -0.05316771566868 0.97231829166412
vn 0.48910567164421 -0.26673537492752 -0.83043837547302
vn 0.59045839309692 -0.2048387080431 -0.78064072132111
vn 0.74865865707397 -0.0842891484499 -0.65757548809052
vn 0.80696159601212 -0.02811409719288 -0.5899344086647
vn 0.83266770839691 0 -0.55377298593521
vn -0.06888024508953 0.17770372331142 0.98167043924332
vn 0.76055324077606 0.00751295639202 -0.6492320895195
vn 0.66275888681412 0.0161787699908 -0.74865806102753
vn -0.29426077008247 -0.09289380162954 0.95119994878769
vn 0.39762836694717 0.03436418995261 -0.91690284013748
vn 0.23097962141037 0.04313629865646 -0.97200191020966
vn -0.58700674772263 -0.79058527946472 -0.17435017228127
vn -0.55041235685349 -0.72459030151367 0.41474705934525
vn -0.61239117383957 -0.78089594841003 0.1232013553381
vn -0.45529219508171 -0.59005123376846 0.66674470901489
vn -0.28430834412575 -0.42265355587006 0.86054211854935
vn 0.14102001488209 -0.42309242486954 -0.89504534006119
vn 0.2557538151741 -0.37965542078018 -0.88907355070114
vn -0.03469124808908 0.63145059347153 0.77463972568512
vn -0.11037808656693 0.40443852543831 0.90788000822067
vn 0.28250232338905 0.30443298816681 -0.90967738628387
vn -0.23655201494694 -0.51733779907227 -0.82243829965591
vn -0.06614516675472 -0.4839731156826 -0.87257939577103
vn -0.4404165148735 -0.71257495880127 -0.54614120721817
vn -0.3454150557518 -0.62743073701859 -0.69786757230759
vn -0.59912145137787 -0.7977209687233 -0.06851854175329
vn -0.62020313739777 -0.74592763185501 0.24277578294277
vn 0.0894617959857 0.8845049738884 0.45787286758423
vn 0.04358118772507 0.8110876083374 0.58329886198044
vn 0.18841268122196 0.97182279825211 -0.14163745939732
vn -0.19700807332993 0.21585269272327 0.95634484291077
vn -0.15587648749352 -0.50347352027893 -0.84983348846436
vn -0.31739473342896 -0.17623981833458 0.93177258968353
vn -0.46270215511322 -0.40142276883125 0.79042172431946
vn -0.01992757804692 -0.26589232683182 -0.96379673480988
vn 0.04600863531232 -0.01607438363135 -0.99881172180176
vn 0.10116331279278 0.18631079792976 -0.97726875543594
vn 0.23655201494694 0.51733779907227 0.82243829965591
vn -0.00486926035956 0.24066020548344 0.97059720754623
vn 0.06775588542223 0.45790061354637 0.88641756772995
vn 0.06821589171886 0.48446771502495 0.87214541435242
vn 0.16422484815121 0.50505697727203 0.84731793403625
vn 0.11575873196125 0.45581465959549 0.88251507282257
vn -0.14314688742161 0.42234197258949 0.89506214857101
vn -0.25571125745773 0.37966355681419 0.88908231258392
vn 0.14232742786407 0.24724906682968 -0.95844185352325
vn 0.16690513491631 0.48154500126839 -0.86038196086884
vn 0.26942518353462 0.8985104560852 0.34653866291046
vn 0.06662127375603 0.40382558107376 0.91240698099136
vn 0.13343641161919 0.40413144230843 0.9049157500267
vn -0.06415822356939 -0.39751902222633 -0.91534823179245
vn 0.24907167255878 0.72634679079056 -0.64061194658279
vn 0.44068410992622 0.84882891178131 -0.29203927516937
vn 0.37044048309326 0.79738074541092 -0.47640091180801
vn -0.83266770839691 0 0.55377298593521
vn 0.50935274362564 0.8553039431572 -0.09494723379612
vn 0.52393746376038 0.8454098701477 0.10378670692444
vn -0.26483720541 -0.46305295825005 -0.84583878517151
vn -0.59229910373688 0.20363648235798 0.77956014871597
vn -0.48910567164421 0.26673537492752 0.83043837547302
vn -0.77651154994965 0.05856242775917 0.62737572193146
vn -0.66278070211411 -0.01618665643036 0.74863857030869
vn -0.7605727314949 -0.00752074457705 0.64920914173126
vn 0.16128498315811 0.28245481848717 -0.94562488794327
vn 0.12950745224953 0.21080158650875 -0.9689120054245
vn -0.39765158295631 -0.03437250480056 0.91689240932465
vn -0.23100106418133 -0.04314493760467 0.97199642658234
vn 0.19202336668968 0.35224816203117 -0.91599577665329
vn -0.85045510530472 -0.02114968933165 0.52562230825424
vn 0.91360282897949 -0.2935988008976 0.28129985928535
vn 0.86418008804321 -0.17192420363426 0.47290045022964
vn 0.84411519765854 -0.5014054775238 -0.18990015983582
vn 0.70262259244919 -0.56066024303436 -0.43815705180168
vn -0.46618899703026 0.87925386428833 0.09787990897894
vn -0.49419394135475 0.71853506565094 -0.48936665058136
vn -0.53080821037292 0.81793761253357 -0.22185741364956
vn -0.33788043260574 0.63823485374451 -0.69173192977905
vn -0.16147378087044 0.61750853061676 -0.7698113322258
vn 0.33090332150459 -0.06123022735119 0.9416760802269
vn 0.15043281018734 -0.0573146045208 0.98695743083954
vn 0.61225366592407 -0.0629351362586 0.7881526350975
vn -0.50155925750732 0.63492685556412 -0.58762758970261
vn -0.69689559936523 0.68688750267029 0.20620888471603
vn -0.43828436732292 0.53278201818466 -0.72391307353973
vn -0.30873036384583 0.36160856485367 -0.8797299861908
vn 0.7845099568367 -0.05996451154351 0.61721020936966
vn 0.71337890625 -0.0616765357554 0.69805914163589
vn -0.05819341540337 -0.432422965765 -0.89979100227356
vn 0.20934253931046 -0.52297627925873 -0.82623940706253
vn -0.51099336147308 -0.18471410870552 -0.83950370550156
vn -0.62436479330063 0.06286650896072 -0.77859896421432
vn -0.740374147892 0.06115413829684 -0.66940742731094
vn -0.32688397169113 0.06111599504948 -0.94308626651764
vn -0.15042686462402 0.05725506320596 -0.98696184158325
vn 0.37802025675774 0.70035541057587 0.60547745227814
vn 0.62285584211349 0.5809571146965 0.52396512031555
vn 0.06560328602791 0.80773556232452 0.58588349819183
vn 0.00239688414149 0.61289376020432 0.7901616692543
vn 0.05247622355819 0.61927825212479 0.78341603279114
vn 0.10241921246052 0.624043405056 0.77464842796326
vn -0.90814423561096 0.21394681930542 0.35986223816872
vn 0.82400047779083 0.38205468654633 0.41839864850044
vn -0.67363673448563 -0.05434469506145 -0.73706185817718
vn 0.94265699386597 0.22177778184414 0.24942423403263
vn 0.16577678918838 0.66586482524872 0.72742158174515
vn -0.02284929156303 0.60576421022415 0.7953160405159
vn 0.34712558984756 0.69682562351227 0.62764465808868
vn 0.76254469156265 -0.00519461138174 -0.64691472053528
vn 0.76070380210876 -0.01754999160767 -0.64886182546616
vn 0.69791901111603 0.0048166224733 -0.71616047620773
vn -0.623719394207 0.18994119763374 0.75821924209595
vn -0.44833382964134 0.38080033659935 0.80869519710541
vn -0.71728080511093 0.07473796606064 0.69276434183121
vn -0.27446302771568 0.51499402523041 0.81206601858139
vn -0.00681751826778 0.67656052112579 0.73635548353195
vn 0.39628750085831 0.03444091230631 -0.91748028993607
vn 0.23098543286324 0.04310631006956 -0.97200185060501
vn 0.66379630565643 0.01610366255045 -0.7477400302887
vn 0.58617472648621 -0.20765341818333 -0.78312146663666
vn 0.73974740505218 -0.09214660525322 -0.66654545068741
vn 0.1253357976675 -0.42846751213074 -0.89482206106186
vn -0.1637816131115 -0.50498974323273 -0.84744375944138
vn 0.76424968242645 0.00716060493141 -0.64488077163696
vn 0.59876698255539 0.79131484031677 0.12368872016668
vn 0.59568458795547 0.19131471216679 -0.78010159730911
vn 0.71010279655457 0.42818966507912 -0.55893439054489
vn 0.4108729660511 -0.0681713744998 -0.9091402888298
vn 0.52171301841736 0.71481800079346 0.46567231416702
vn 0.68552714586258 0.37665763497353 -0.62304216623306
vn 0.23822031915188 -0.1197437942028 -0.96380108594894
vn -0.88085198402405 -0.422288864851 -0.21394376456738
vn -0.71819812059402 -0.50498974323273 -0.47872421145439
vn -0.94906336069107 -0.20857118070126 0.23617103695869
vn -0.66226643323898 -0.01624350063503 0.74909234046936
vn -0.75887340307236 -0.00769460154697 0.65119272470474
vn -0.39823254942894 -0.03431512787938 0.91664242744446
vn -0.23098543286324 -0.04310631006956 0.97200185060501
vn -0.91318190097809 -0.11406974494457 0.39126324653625
vn -0.28023627400398 -0.29262733459473 -0.91424113512039
vn -0.53739577531815 -0.20990630984306 -0.81678950786591
vn -0.14662370085716 -0.29831248521805 -0.94313895702362
vn -0.46083232760429 -0.26143670082092 -0.84810638427734
vn -0.76017636060715 -0.08482845127583 -0.6441553235054
vn -0.76963192224503 -0.08698336780071 -0.63253509998322
vn -0.535424888134 -0.24527682363987 -0.80818283557892
vn 0.12155509740114 -0.55039137601852 -0.82601070404053
vn 0.32040709257126 -0.06101297959685 0.9453130364418
vn 0.1504298299551 -0.05728483572602 0.9869596362114
vn 0.5996099114418 -0.06298903375864 0.79780972003937
vn 0.51648616790771 0.18082599341869 0.83698505163193
vn 0.66277241706848 0.06423786282539 0.74606043100357
vn 0.07271983474493 0.42639219760895 0.90161049365997
vn -0.2092724442482 0.52290678024292 0.82630109786987
vn 0.70660042762756 -0.06182446330786 0.70490682125092
# 174 normals

vt 0.49995157122612 0.00212597846985 0
vt 0.5 0 0
vt 0.5 0.00239622592926 0
vt 0.49946200847626 0.00165581703186 0
vt 0.2547627389431 0.75476276874542 0
vt 0.25495859980583 0.75495862960815 0
vt 0.49977412819862 0.00184786319733 0
vt 0.25515449047089 0.75515449047089 0
vt 0.50004839897156 0.00212597846985 0
vt 0.50022584199905 0.00184786319733 0
vt 0.25535038113594 0.75535035133362 0
vt 0.5 1 0
vt 0.74464964866638 0.75535035133362 0
vt 0.50053799152374 0.00165581703186 0
vt 0.74484550952911 0.75515449047089 0
vt 0.74504137039185 0.75495862960815 0
vt 0.74523729085922 0.75476276874542 0
vt 0.72123175859451 0.68088132143021 0
vt 0.7209849357605 0.68092042207718 0
vt 0.72073811292648 0.68095946311951 0
vt 0.72049129009247 0.68099856376648 0
vt 0.2555835545063 0.75463271141052 0
vt 0.25530993938446 0.75467610359192 0
vt 0.25503632426262 0.75471937656403 0
vt 0.72100907564163 0.68099474906921 0
vt 0.19191606342793 0.95058107376099 0
vt 0.72056376934052 0.68122166395187 0
vt 0.72078639268875 0.68110823631287 0
vt 0.19167397916317 0.95066893100739 0
vt 0.19139903783798 0.95069444179535 0
vt 0.19111704826355 0.95064401626587 0
vt 0.74496364593506 0.75471937656403 0
vt 0.74469006061554 0.75467610359192 0
vt 0.27926191687584 0.68095946311951 0
vt 0.27950873970985 0.68099856376648 0
vt 0.27901509404182 0.68092042207718 0
vt 0.27876827120781 0.68088132143021 0
vt 0.74441647529602 0.75463271141052 0
vt 0.27899092435837 0.68099474906921 0
vt 0.27921357750893 0.68110823631287 0
vt 0.80832600593567 0.95066893100739 0
vt 0.80808395147324 0.95058107376099 0
vt 0.27943626046181 0.68122166395187 0
vt 0.80860096216202 0.95069444179535 0
vt 0.80888295173645 0.95064401626587 0
# 45 texture coordinates

o Decagon_web
usemtl Mat
f 7/1/1 15/2/2 17/3/3
f 3/4/4 2/5/4 11/6/5 6/7/5
f 6/7/5 11/6/5 14/8/6 7/1/6
f 8/9/7 15/2/7 4/10/7
f 17/3/8 15/2/8 8/9/8
f 13/11/9 1/12/9 17/3/9
f 1/12/9 16/13/9 17/3/9
f 7/1/6 14/8/6 13/11/10 17/3/10
f 4/10/11 15/2/11 5/14/11
f 6/7/12 15/2/2 7/1/1
f 3/4/13 15/2/2 6/7/12
f 17/3/14 16/13/14 12/15/15 8/9/15
f 8/9/15 12/15/15 10/16/16 4/10/16
f 4/10/16 10/16/16 9/17/17 5/14/17
f 26/10/18 15/2/19 21/9/20
f 20/14/21 27/18/21 29/19/22 26/10/22
f 26/10/22 29/19/22 18/20/23 21/9/23
f 21/9/23 18/20/23 25/21/24 23/3/24
f 25/21/25 22/22/25 23/3/25
f 21/9/20 15/2/19 23/3/26
f 23/3/27 22/22/27 28/23/28 24/1/28
f 20/14/29 15/2/19 26/10/18
f 24/1/28 28/23/28 30/24/30 19/7/30
f 19/7/30 30/24/30 2/5/31 3/4/31
f 23/3/32 15/2/33 24/1/34
f 19/7/35 15/2/33 3/4/36
f 24/1/34 15/2/33 19/7/35
f 33/10/37 41/25/37 27/18/38 20/14/38
f 36/1/39 15/2/39 42/3/40
f 42/3/41 15/2/41 35/9/41
f 43/26/42 39/27/42 42/3/42
f 35/9/43 32/28/43 41/25/37 33/10/37
f 36/1/44 38/29/44 43/26/45 42/3/45
f 40/7/46 31/30/46 38/29/44 36/1/44
f 34/4/47 37/31/47 31/30/46 40/7/46
f 35/9/48 15/2/48 33/10/48
f 40/7/49 15/2/39 36/1/39
f 34/4/50 15/2/50 40/7/50
f 33/10/51 15/2/51 20/14/51
f 42/3/52 39/27/52 32/28/43 35/9/43
f 47/7/53 51/30/53 37/31/54 34/4/54
f 46/1/55 15/2/56 47/7/57
f 54/27/58 52/26/58 53/3/58
f 46/1/59 49/29/59 51/30/53 47/7/53
f 45/9/60 56/28/61 54/27/62 53/3/63
f 44/10/64 55/25/64 56/28/61 45/9/60
f 48/14/65 50/18/65 55/25/64 44/10/64
f 48/14/66 15/2/66 44/10/66
f 47/7/57 15/2/56 34/4/67
f 44/10/68 15/2/68 45/9/68
f 45/9/60 15/2/69 53/3/63
f 53/3/70 52/26/70 49/29/59 46/1/59
f 53/3/71 15/2/56 46/1/55
f 65/4/72 15/2/73 64/7/74
f 69/22/75 67/21/75 68/3/75
f 64/7/74 15/2/73 60/1/76
f 60/1/76 15/2/73 68/3/77
f 68/3/78 15/2/78 59/9/78
f 58/10/79 57/19/79 50/18/80 48/14/80
f 59/9/81 66/20/81 57/19/79 58/10/79
f 60/1/82 61/23/82 69/22/83 68/3/83
f 58/10/84 15/2/84 48/14/85
f 64/7/86 62/24/86 61/23/82 60/1/82
f 65/4/87 63/5/87 62/24/86 64/7/86
f 59/9/88 15/2/84 58/10/84
f 68/3/89 67/21/89 66/20/81 59/9/81
f 80/9/90 76/15/90 74/13/91 72/3/91
f 79/10/92 75/16/92 76/15/90 80/9/90
f 77/14/93 70/17/93 75/16/92 79/10/92
f 77/14/94 15/2/95 79/10/96
f 81/7/97 15/2/97 65/4/98
f 81/7/99 78/6/99 63/5/100 65/4/100
f 82/1/101 83/8/101 78/6/99 81/7/99
f 82/1/102 15/2/97 81/7/97
f 72/3/103 15/2/103 82/1/103
f 79/10/96 15/2/95 80/9/104
f 80/9/104 15/2/95 72/3/105
f 74/13/106 71/12/106 72/3/106
f 71/12/106 73/11/106 72/3/106
f 72/3/107 73/11/107 83/8/101 82/1/101
f 94/10/108 84/32/108 70/17/109 77/14/109
f 92/9/110 96/33/110 84/32/108 94/10/108
f 91/1/111 93/34/111 88/35/112 89/3/112
f 87/7/113 95/36/113 93/34/111 91/1/111
f 86/4/114 85/37/114 95/36/113 87/7/113
f 94/10/115 15/2/116 77/14/117
f 86/4/118 15/2/119 87/7/119
f 87/7/119 15/2/119 91/1/120
f 91/1/121 15/2/121 89/3/121
f 92/9/122 15/2/116 94/10/115
f 88/35/9 90/38/9 89/3/9
f 89/3/123 90/38/123 96/33/110 92/9/110
f 89/3/124 15/2/116 92/9/122
f 108/7/125 15/2/125 86/4/126
f 107/1/127 15/2/125 108/7/125
f 105/3/128 15/2/129 107/1/130
f 103/9/131 15/2/132 105/3/133
f 102/10/134 15/2/132 103/9/131
f 101/14/135 15/2/132 102/10/134
f 108/7/136 100/39/136 85/37/137 86/4/137
f 107/1/130 109/40/138 100/39/136 108/7/136
f 103/9/139 97/41/139 104/42/140 105/3/140
f 104/42/25 106/43/25 105/3/25
f 102/10/141 98/44/141 97/41/139 103/9/139
f 101/14/142 99/45/142 98/44/141 102/10/141
f 105/3/128 106/43/143 109/40/138 107/1/130
f 118/10/144 15/2/144 101/14/144
f 117/9/145 15/2/145 118/10/146
f 120/3/147 15/2/145 117/9/145
f 116/1/148 15/2/148 120/3/148
f 115/7/149 15/2/149 116/1/149
f 114/4/150 15/2/150 115/7/150
f 118/10/151 113/44/151 99/45/152 101/14/152
f 117/9/153 122/41/153 113/44/151 118/10/151
f 119/43/75 121/42/75 120/3/75
f 116/1/154 110/40/154 119/43/155 120/3/155
f 115/7/156 111/39/156 110/40/154 116/1/154
f 114/4/157 112/37/157 111/39/156 115/7/156
f 120/3/158 121/42/158 122/41/153 117/9/153
f 129/7/159 15/2/160 114/4/161
f 128/1/162 15/2/160 129/7/159
f 133/3/163 15/2/160 128/1/162
f 127/9/164 15/2/160 133/3/163
f 126/10/165 15/2/160 127/9/164
f 5/14/166 15/2/166 126/10/166
f 129/7/167 125/36/167 112/37/168 114/4/168
f 132/38/106 131/35/106 133/3/106
f 128/1/169 130/34/169 125/36/167 129/7/167
f 127/9/170 123/33/170 132/38/171 133/3/171
f 126/10/172 124/32/172 123/33/170 127/9/170
f 5/14/173 9/17/173 124/32/172 126/10/172
f 133/3/174 131/35/174 130/34/169 128/1/169

