# WaveFront *.obj file (generated by CINEMA 4D)

mtllib ./DecagonShape_71.mtl

v 0 0.00353553378955 -0.0000399700657
v 0.0017449464649 0.00179791683331 -0.00002331836731
v 0.00001466115373 -0.00352735351771 -0.00002331836731
v -0.00000132026469 -0.00352237746119 -0.00003892264795
v -0.00000199463534 -0.00352323800325 -0.00003663673488
v 0.00001053914093 -0.00352537282743 -0.00003473766992
v 0.00000376760408 -0.00352161377668 -0.00003933459084
v 0.00000069952847 -0.00352083239704 -0.0000397890326
v -0.00173227977939 0.00180203246418 -0.00003663673488
v -0.00173212983645 0.00180301629007 -0.00003830339847
v 0.0017430994194 0.00179945176933 -0.00003164421651
v -0.00173124449793 0.00180423888378 -0.00003952348561
v 0.00172993412707 0.00180560001172 -0.0000399700657
v 0.00173757760786 0.00180218124297 -0.00003773915887
v 0.00000627374266 -0.00353685347363 -0.00003198473132
v -0.00172993412707 0.00180560001172 -0.0000399700657
v 0 -0.00351859000511 -0.0000399700657
v -0.00156394939404 0.00127857096959 -0.00000532692093
v 0.00001053914093 -0.00352537282743 -0.00001189906197
v -0.00000833501326 -0.00352529808879 0.00000333333355
v 0.0000005466224 -0.00352086569183 -0.00000671757698
v 0.00172828522045 0.00180052523501 -0.0000066666671
v 0 -0.00351859000511 -0.0000066666671
v 0.00000376923913 -0.00352161447518 -0.00000729170233
v -0.00155910861213 0.00127985305153 -0.0000066666671
v -0.00000593488312 -0.00352387665771 -0.00000352440748
v -0.00156887550838 0.00127755163703 0.00000333333355
v 0.00173647841439 0.00179879798088 -0.00000889757121
v -0.00156751589384 0.00127770274412 -0.00000166666678
v 0.00174254993908 0.00179776037112 -0.00001499251539
v 0.00218167994171 0.00318703986704 0.00001188752685
v -0.00156429107301 0.00127962266561 0.00001199358667
v -0.00000593488312 -0.00352387665771 0.00001019107367
v 0.00000199463602 -0.00352323800325 0.00000999999975
v -0.00000205022116 -0.00352105568163 0.00001294766025
v -0.00000017959437 -0.00352066359483 0.00001317480474
v 0.00218232278712 0.00318712228909 0.00000999999975
v 0.00218015233986 0.00318672414869 0.00001302869805
v -0.00155962118879 0.00128143047914 0.00001333333421
v 0.00000132026514 -0.00352237746119 0.00001228591373
v -0.00156768679153 0.00127822870854 0.00000833333343
v 0 -0.00351859000511 0.00001333333421
v 0.00217848247848 0.00318608921953 0.00001333333421
v -0.00000132026514 -0.00352237746119 0.00000561924708
v -0.00000033440963 -0.00352049828507 0.00000655161648
v 0.0000003219489 -0.00352050061338 0.00000678008564
v 0.00000132026514 -0.00352237746119 0.00000771408668
v -0.00000199463602 -0.00352323800325 0.00000333333355
v 0.00218015233986 0.00318672414869 0.0000069713019
v -0.00156253506429 0.0012796119554 0.00000333333355
v 0.00218167994171 0.00318703986704 0.00000811247355
v 0.00217848247848 0.00318608921953 0.0000066666671
v 0 -0.00351859000511 0.0000066666671
v -0.00155962118879 0.00128143047914 0.0000066666671
v -0.00156219583005 0.00128001288977 0.00000499999987
v -0.00156112085097 0.00128065259196 0.00000622008474
v -0.00156202493235 0.00127948680893 0.00000166666678
v -0.00000132026514 -0.00352237746119 0.0000010474198
v 0.00000116666911 -0.00352099142037 -0.0000000736347
v 0.00000549007291 -0.00352217373438 -0.00000087527417
v 0.00173964863643 0.00179776805453 -0.0000031240686
v 0.00174804078415 0.00179597630631 -0.00001165918366
v 0.00175128667615 0.00179585686419 -0.00002331836731
v 0.0000151537597 -0.00352687225677 -0.00000732723538
v 0.00002100153142 -0.00352941360325 -0.00002331836731
v -0.001560779172 0.00127960089594 0.00000044658199
v -0.00155910861213 0.00127985305153 0
v 0.00000000000001 -0.00351859000511 0
v 0.00172828522045 0.00180052523501 0
v -0.00173862022348 0.00179997214582 -0.00003663673488
v 0 0.00353553378955 -0.00004663673462
v 0 -0.00351859000511 -0.00004663673462
v 0.00172993412707 0.00180560001172 -0.00004663673462
v -0.00172993412707 0.00180560001172 -0.00004663673462
v -0.00173762091435 0.00180123210885 -0.00004163673293
v -0.00173441448715 0.00180320895743 -0.00004529698708
v -0.00000833501235 -0.00352529808879 -0.00003663673488
v 0.0017485904973 0.00179766805377 -0.00003497755097
v -0.00000593488312 -0.00352387665771 -0.00004349447045
v -0.00000205226843 -0.00352105661295 -0.00004626137161
v 0.0000151537597 -0.00352687225677 -0.00003930949606
v 0.00000260653428 -0.0035215637181 -0.0000463559154
v 0.0017407478299 0.00180115131661 -0.00004351266398
v -0.00173707120121 0.00179954071064 -0.00003163673318
v 0.00156252086163 0.00127961649559 -0.00002331836731
v 0.00000198040243 -0.00352323334664 -0.00002331836731
v 0.000001309906 -0.00352237396874 -0.00002559401764
v 0.00155910861213 0.00127985305153 -0.00002663673513
v 0 -0.00351859000511 -0.00002663673513
v -0.00172828522045 0.00180052523501 -0.00002663673513
v -0.00000016019868 -0.00352066475898 -0.00002663245868
v -0.00000205226843 -0.00352105661295 -0.00002701209269
v 0.00156077207066 0.00127960322425 -0.00002619215593
v -0.00000593488312 -0.00352387665771 -0.00002977899385
v 0.00156201270875 0.00127949099988 -0.0000249775494
v -0.00173331529368 0.00179982604459 -0.00002797648085
v -0.00218015233986 0.00318672414869 -0.00001969536424
v -0.00218167994171 0.00318703986704 -0.00001855419214
v -0.00218232278712 0.00318712228909 -0.00001666666503
v 0.00156218349002 0.00128001673147 -0.00002165918158
v -0.00000199463602 -0.00352323800325 -0.00001666666503
v -0.00000132026514 -0.00352237746119 -0.0000189525781
v -0.00000032311871 -0.00352050014772 -0.00001988652912
v -0.00217848247848 0.00318608921953 -0.00001999999949
v 0 -0.00351859000511 -0.00001999999949
v 0.00155962118879 0.00128143047914 -0.00001999999949
v 0.00000033054565 -0.00352049712092 -0.00002011448669
v 0.000001309906 -0.00352237396874 -0.00002104271698
v 0.00156111374963 0.00128065492027 -0.00002044457506
v 0.00156428397167 0.00127962499391 -0.00001467107268
v 0.00156767445151 0.00127823255025 -0.00001832584894
v 0.00156886130571 0.00127755617723 -0.00002331836731
v -0.00218167994171 0.00318703986704 -0.00001477913884
v 0.00000832077967 -0.00352529343218 -0.00002331836731
v 0.00000592452398 -0.00352387339808 -0.00001647088902
v 0.00000204635739 -0.00352105451748 -0.00001371844246
v 0.00000017842456 -0.00352066312917 -0.00001349180911
v -0.00000132026514 -0.00352237746119 -0.00001438075196
v 0.00155962118879 0.00128143047914 -0.00001333333239
v 0 -0.00351859000511 -0.00001333333239
v -0.00217848247848 0.00318608921953 -0.00001333333239
v -0.00218015233986 0.00318672414869 -0.00001363796764
v -0.00173014507163 0.00180085597094 -0.00003374998414
v -0.00173158035614 0.00180132489186 -0.00003497006765
v 0.00156750355382 0.00127770693507 -0.00002831088386
v -0.00000132026469 -0.00352237746119 -0.00003435082181
v 0.00000019798507 -0.00352066941559 -0.00003339431714
v 0.00000205179276 -0.00352105638012 -0.00003293855116
v 0.00000592452398 -0.00352387339808 -0.00003016584196
v 0.00156394229271 0.00127857318148 -0.0000319656574
v 0.00155910861213 0.00127985305153 -0.00003330340041
v -0.00172828522045 0.00180052523501 -0.00003330340041
v 0 -0.00351859000511 -0.00003330340041
# 133 vertices

vn 0.08865814656019 -0.42082151770592 -0.9028006196022
vn 0.38516554236412 -0.45985487103462 -0.80011314153671
vn -0.2175652384758 -0.45278698205948 -0.86466717720032
vn -0.90280270576477 0.29341322183609 0.3144137263298
vn -0.77788573503494 0.25278472900391 0.57532042264938
vn -0.39882183074951 0.12953427433968 0.90783369541168
vn -0.03971906006336 -0.44872224330902 -0.89278817176819
vn 0.95314925909042 0.29047614336014 -0.08443965017796
vn 0 0 1
vn -0.18965855240822 0.06156324967742 0.97991818189621
vn -0.70336055755615 -0.57154488563538 -0.42263507843018
vn 0.64857852458954 -0.39672857522964 -0.64957857131958
vn 0.83757960796356 -0.40032070875168 -0.37175759673119
vn 0.70721596479416 0.22994676232338 0.66855818033218
vn 0.61432445049286 0.19972261786461 0.76335859298706
vn 0.74998313188553 0.24372340738773 0.61491805315018
vn 0.90282499790192 0.29334783554077 0.31441062688828
vn 0.557861328125 -0.63836389780045 0.53036051988602
vn -0.90281981229782 -0.29338753223419 -0.31438845396042
vn -0.76098436117172 -0.24728631973267 -0.59979355335236
vn -0.28088000416756 -0.09128287434578 -0.95539200305939
vn 0.00425009056926 0.0013750292128 -0.99999004602432
vn 0 0 -1
vn 0.97009217739105 0.23135082423687 0.07347100228071
vn -0.18862797319889 0.06118846684694 -0.98014050722122
vn -0.39857113361359 0.12944030761719 -0.90795719623566
vn 0.93066394329071 0.11081341654062 0.34869039058685
vn -0.77804088592529 0.25287812948227 -0.57506960630417
vn -0.90279501676559 0.29347321391106 -0.31437981128693
vn -0.53017526865005 -0.74452668428421 0.40570205450058
vn -0.33472803235054 -0.81671017408371 0.47004428505898
vn 0.53863042593002 -0.77566403150558 0.32897207140923
vn -0.12337607890368 -0.85003870725632 0.51206696033478
vn -0.77779895067215 -0.25275576114655 0.57545053958893
vn -0.90281158685684 -0.29341611266136 0.31438556313515
vn 0.97962242364883 -0.09822162240744 0.17519262433052
vn -0.69264608621597 0.63064420223236 -0.35004189610481
vn -0.32500296831131 0.87913310527802 -0.34856572747231
vn -0.53779011964798 0.75923132896423 -0.36653730273247
vn -0.399010181427 -0.12959705293179 0.90774196386337
vn 0.38500863313675 -0.12509655952454 0.91439551115036
vn 0.25400498509407 -0.08253286778927 0.96367514133453
vn 0.74338662624359 -0.2415350228548 0.62372845411301
vn 0.89680701494217 -0.29138338565826 0.33291581273079
vn -0.10934647917747 0.94071090221405 -0.32110172510147
vn 0.49529725313187 0.84055840969086 -0.21941334009171
vn 0.7049440741539 0.69366270303726 -0.14793887734413
vn 0.25065910816193 0.92807310819626 -0.2754094004631
vn 0.15019010007381 0.9563290476799 -0.25075435638428
vn -0.19040800631046 -0.0617818236351 0.97975903749466
vn 0.76110827922821 -0.24728597700596 -0.59963643550873
vn 0.89680701494217 -0.29138338565826 -0.33291581273079
vn -0.94951122999191 -0.31344118714333 -0.01353140920401
vn -0.92680019140244 -0.37525767087936 0.01493780501187
vn -0.88037109375 -0.47026464343071 0.06162691488862
vn 0.36804202198982 -0.11956600099802 -0.92208951711655
vn 0.39734846353531 0.12909528613091 -0.90854203701019
vn 0.18328239023685 0.05953162163496 -0.98125612735748
vn 0.77882891893387 0.25306782126427 -0.57391828298569
vn 0.90282499790192 0.29334783554077 -0.31441062688828
vn -0.01596903428435 -0.9342041015625 0.35638135671616
vn -0.86792266368866 -0.49160301685333 0.07097008824348
vn 0.73604321479797 -0.56850922107697 0.36747470498085
vn 0.86821842193604 -0.38545122742653 0.3124486207962
vn 0.95349836349487 -0.18156813085079 0.24056996405125
vn 0.16150130331516 -0.05246917530894 -0.98547667264938
vn -0.98223912715912 -0.17019103467464 -0.07900164276361
vn -0.30988210439682 0.91489595174789 -0.25872468948364
vn 0.11025111377239 0.92291557788849 -0.36887872219086
vn -0.07950106263161 0.93363744020462 -0.34928593039513
vn 0.31538045406342 0.86126488447189 -0.39844441413879
vn 0.46645629405975 0.80443865060806 -0.36782735586166
vn -0.8961107134819 -0.43760204315186 0.07409515231848
vn 0.75507974624634 0.24538061022758 0.60798263549805
vn 0.90282559394836 0.29337924718857 0.31437957286835
vn 0.52400714159012 0.17031483352184 0.83451145887375
vn 0.39854484796524 -0.1294419169426 0.90796852111816
vn 0.18859784305096 -0.0611888282001 0.98014628887177
vn -0.96378493309021 0.07700278609991 -0.25532174110413
vn 0.77803468704224 -0.2528550028801 0.57508814334869
vn 0.90280330181122 -0.29344466328621 0.31438267230988
vn -0.57998472452164 0.68867522478104 -0.43513697385788
vn 0.92597883939743 0.30122202634811 -0.22765871882439
vn -0.39854323863983 -0.12947264313698 -0.90796482563019
vn -0.18859748542309 -0.06121996417642 -0.98014444112778
vn -0.77803915739059 -0.25281509757042 -0.57509964704514
vn -0.90282559394836 -0.29337924718857 -0.31437957286835
vn 0.51325422525406 0.78685033321381 0.34269031882286
vn 0.04343875870109 0.72305220365524 0.68942630290985
vn 0.28613185882568 0.77229976654053 0.56716984510422
vn -0.37116357684135 0.74095213413239 0.55966734886169
vn -0.57276344299316 0.7508926987648 0.3287889957428
vn 0.76885372400284 -0.24997198581696 -0.58853888511658
vn 0.90278095006943 -0.29351004958153 -0.3143857717514
vn 0.37226238846779 -0.1209102794528 -0.92021811008453
vn -0.13463021814823 0.66130685806274 0.73793488740921
vn 0.63695359230042 0.60354650020599 0.47960585355759
vn -0.20494259893894 0.59460854530334 0.77745687961578
vn -0.42656752467155 0.47228682041168 0.77135288715363
vn 0.16303482651711 -0.05275115743279 -0.98520910739899
vn -0.7780470252037 -0.25284886360168 0.57507419586182
vn -0.39856952428818 -0.12947103381157 0.90795350074768
vn -0.3594443500042 0.11678346991539 0.92583012580872
vn -0.12825290858746 0.04165719076991 0.99086624383926
vn -0.77107512950897 0.25053536891937 0.58538460731506
vn -0.90282499790192 0.29334783554077 0.31441062688828
vn 0.49945405125618 0.57936292886734 -0.64411509037018
vn 0.30834868550301 0.4974767267704 -0.81082552671432
vn 0.64628911018372 0.67010188102722 -0.36506694555283
vn 0.91889089345932 0.3724439740181 -0.1300960034132
vn 0.86995393037796 0.4154766201973 -0.26563003659248
vn 0.8013271689415 0.44913318753242 -0.39516347646713
vn 0.57344591617584 -0.04256312549114 0.81813699007034
vn 0.09437697380781 0.34385094046593 -0.93426948785782
vn -0.18862761557102 -0.06121960282326 0.98013865947723
vn -0.11525089293718 0.24247062206268 -0.9632887840271
vn 0.96149951219559 0.16166141629219 0.22222585976124
vn -0.67264974117279 -0.57889628410339 0.46089196205139
vn -0.95092844963074 -0.14850346744061 -0.27144384384155
vn 0.80038738250732 -0.11272050440311 0.58879035711288
vn 0.8569820523262 -0.0158752463758 0.51510173082352
vn 0.80865919589996 -0.10234808176756 0.579305768013
vn 0.87707751989365 0.02840673550963 0.47950819134712
vn 0.9234282374382 0.1786292642355 0.33966434001923
vn -0.77884286642075 0.25307235121727 -0.57389736175537
vn -0.90282559394836 0.29337924718857 -0.31437957286835
vn -0.39734846353531 0.12909528613091 -0.90854203701019
vn -0.36806902289391 -0.11956462264061 -0.92207890748978
vn -0.16144068539143 -0.05243853852153 -0.98548823595047
vn -0.76113569736481 -0.24728471040726 -0.59960216283798
vn -0.89680701494217 -0.29138338565826 -0.33291581273079
vn -0.18328239023685 0.05953162163496 -0.98125612735748
vn 0.47248840332031 0.76978200674057 -0.42917409539223
vn -0.33928850293159 0.64951390028 -0.68045204877853
vn -0.96292042732239 -0.06278217583895 -0.26237887144089
vn 0.41403728723526 0.73369824886322 -0.53875786066055
vn 0.68044972419739 0.62479251623154 -0.3829131424427
vn 0.1032826602459 0.76401042938232 -0.63688367605209
vn -0.82190406322479 0.42764014005661 -0.3762945830822
vn -0.74342393875122 -0.24156825244427 0.62367111444473
vn -0.89680701494217 -0.29138338565826 0.33291581273079
vn -0.38488167524338 -0.12506467103958 0.91445332765579
vn 0.39897260069847 -0.12959499657154 0.9077587723732
vn 0.19037753343582 -0.06181332096457 0.97976297140121
vn 0.77778494358063 -0.25275120139122 0.57547152042389
vn 0.90281981229782 -0.29338753223419 0.31438845396042
vn -0.25363382697105 -0.08240911364555 0.96378350257874
vn -0.82199972867966 -0.1006600484252 0.5605211853981
vn -0.55898177623749 -0.0744392350316 0.82583183050156
vn -0.94599598646164 -0.06981451064348 0.31657162308693
vn -0.41032090783119 -0.05468862131238 0.91029989719391
vn -0.29066175222397 -0.03078183345497 0.95633059740067
vn -0.4377249777317 -0.08637622743845 0.89495027065277
vn -0.45363938808441 -0.09309670329094 0.88630938529968
vn -0.84017956256866 -0.37704169750214 0.38979205489159
vn 0.77830892801285 -0.25294649600983 -0.57467669248581
vn 0.90281158685684 -0.29341611266136 -0.31438556313515
vn 0.39819264411926 -0.12934543192387 -0.90813678503036
vn 0.39134764671326 0.12715750932693 -0.91141539812088
vn 0.21647624671459 0.07031493633986 -0.97375243902206
vn 0.76507955789566 0.24859927594662 -0.59401321411133
vn 0.90284276008606 0.29335358738899 -0.31435430049896
vn 0.18687707185745 -0.06062567234039 -0.98051083087921
# 163 normals

vt 0.49995157122612 0.00212597846985 0
vt 0.5 0 0
vt 0.5 0.00239622592926 0
vt 0.49946200847626 0.00165581703186 0
vt 0.2547627389431 0.75476276874542 0
vt 0.25495859980583 0.75495862960815 0
vt 0.49977412819862 0.00184786319733 0
vt 0.25515449047089 0.75515449047089 0
vt 0.50004839897156 0.00212597846985 0
vt 0.50022584199905 0.00184786319733 0
vt 0.25535038113594 0.75535035133362 0
vt 0.5 1 0
vt 0.74464964866638 0.75535035133362 0
vt 0.50053799152374 0.00165581703186 0
vt 0.74484550952911 0.75515449047089 0
vt 0.74504137039185 0.75495862960815 0
vt 0.74523729085922 0.75476276874542 0
vt 0.72123175859451 0.68088132143021 0
vt 0.7209849357605 0.68092042207718 0
vt 0.72073811292648 0.68095946311951 0
vt 0.72049129009247 0.68099856376648 0
vt 0.2555835545063 0.75463271141052 0
vt 0.25530993938446 0.75467610359192 0
vt 0.25503632426262 0.75471937656403 0
vt 0.72100907564163 0.68099474906921 0
vt 0.19191606342793 0.95058107376099 0
vt 0.72056376934052 0.68122166395187 0
vt 0.72078639268875 0.68110823631287 0
vt 0.19167397916317 0.95066893100739 0
vt 0.19139903783798 0.95069444179535 0
vt 0.19111704826355 0.95064401626587 0
vt 0.74496364593506 0.75471937656403 0
vt 0.74469006061554 0.75467610359192 0
vt 0.27926191687584 0.68095946311951 0
vt 0.27950873970985 0.68099856376648 0
vt 0.27901509404182 0.68092042207718 0
vt 0.27876827120781 0.68088132143021 0
vt 0.74441647529602 0.75463271141052 0
vt 0.27899092435837 0.68099474906921 0
vt 0.27921357750893 0.68110823631287 0
vt 0.80832600593567 0.95066893100739 0
vt 0.80808395147324 0.95058107376099 0
vt 0.27943626046181 0.68122166395187 0
vt 0.80860096216202 0.95069444179535 0
vt 0.80888295173645 0.95064401626587 0
# 45 texture coordinates

o Decagon_web
usemtl Mat
f 7/1/1 15/2/2 17/3/3
f 3/4/4 2/5/4 11/6/5 6/7/5
f 6/7/5 11/6/5 14/8/6 7/1/6
f 8/9/7 15/2/7 4/10/7
f 17/3/8 15/2/8 8/9/8
f 13/11/9 1/12/9 17/3/9
f 1/12/9 16/13/9 17/3/9
f 7/1/6 14/8/6 13/11/10 17/3/10
f 4/10/11 15/2/11 5/14/11
f 6/7/12 15/2/2 7/1/1
f 3/4/13 15/2/2 6/7/12
f 17/3/14 16/13/14 12/15/15 8/9/15
f 8/9/15 12/15/15 10/16/16 4/10/16
f 4/10/16 10/16/16 9/17/17 5/14/17
f 26/10/18 15/2/18 21/9/18
f 20/14/19 27/18/19 29/19/20 26/10/20
f 26/10/20 29/19/20 18/20/21 21/9/21
f 21/9/21 18/20/21 25/21/22 23/3/22
f 25/21/23 22/22/23 23/3/23
f 21/9/24 15/2/24 23/3/24
f 23/3/25 22/22/25 28/23/26 24/1/26
f 20/14/27 15/2/27 26/10/27
f 24/1/26 28/23/26 30/24/28 19/7/28
f 19/7/28 30/24/28 2/5/29 3/4/29
f 23/3/30 15/2/31 24/1/31
f 19/7/32 15/2/32 3/4/32
f 24/1/31 15/2/31 19/7/33
f 33/10/34 41/25/34 27/18/35 20/14/35
f 36/1/36 15/2/36 42/3/36
f 42/3/37 15/2/38 35/9/39
f 43/26/9 39/27/9 42/3/9
f 35/9/40 32/28/40 41/25/34 33/10/34
f 36/1/41 38/29/41 43/26/42 42/3/42
f 40/7/43 31/30/43 38/29/41 36/1/41
f 34/4/44 37/31/44 31/30/43 40/7/43
f 35/9/39 15/2/38 33/10/45
f 40/7/46 15/2/46 36/1/47
f 34/4/48 15/2/46 40/7/46
f 33/10/45 15/2/38 20/14/49
f 42/3/50 39/27/50 32/28/40 35/9/40
f 47/7/51 51/30/51 37/31/52 34/4/52
f 46/1/53 15/2/54 47/7/55
f 54/27/23 52/26/23 53/3/23
f 46/1/56 49/29/56 51/30/51 47/7/51
f 45/9/57 56/28/57 54/27/58 53/3/58
f 44/10/59 55/25/59 56/28/57 45/9/57
f 48/14/60 50/18/60 55/25/59 44/10/59
f 48/14/61 15/2/61 44/10/61
f 47/7/55 15/2/54 34/4/62
f 44/10/63 15/2/64 45/9/64
f 45/9/64 15/2/64 53/3/65
f 53/3/66 52/26/66 49/29/56 46/1/56
f 53/3/67 15/2/54 46/1/53
f 65/4/68 15/2/69 64/7/70
f 69/22/9 67/21/9 68/3/9
f 64/7/70 15/2/69 60/1/71
f 60/1/71 15/2/69 68/3/72
f 68/3/73 15/2/73 59/9/73
f 58/10/74 57/19/74 50/18/75 48/14/75
f 59/9/76 66/20/76 57/19/74 58/10/74
f 60/1/77 61/23/77 69/22/78 68/3/78
f 58/10/79 15/2/79 48/14/79
f 64/7/80 62/24/80 61/23/77 60/1/77
f 65/4/81 63/5/81 62/24/80 64/7/80
f 59/9/82 15/2/82 58/10/82
f 68/3/83 67/21/83 66/20/83 59/9/83
f 80/9/84 76/15/84 74/13/85 72/3/85
f 79/10/86 75/16/86 76/15/84 80/9/84
f 77/14/87 70/17/87 75/16/86 79/10/86
f 77/14/88 15/2/89 79/10/90
f 81/7/91 15/2/91 65/4/92
f 81/7/93 78/6/93 63/5/94 65/4/94
f 82/1/95 83/8/95 78/6/93 81/7/93
f 82/1/96 15/2/91 81/7/91
f 72/3/97 15/2/97 82/1/97
f 79/10/90 15/2/89 80/9/98
f 80/9/98 15/2/89 72/3/99
f 74/13/23 71/12/23 72/3/23
f 71/12/23 73/11/23 72/3/23
f 72/3/100 73/11/100 83/8/95 82/1/95
f 94/10/101 84/32/101 70/17/35 77/14/35
f 92/9/102 96/33/102 84/32/101 94/10/101
f 91/1/103 93/34/103 88/35/104 89/3/104
f 87/7/105 95/36/105 93/34/103 91/1/103
f 86/4/106 85/37/106 95/36/105 87/7/105
f 94/10/107 15/2/108 77/14/109
f 86/4/110 15/2/111 87/7/111
f 87/7/111 15/2/111 91/1/112
f 91/1/113 15/2/113 89/3/113
f 92/9/114 15/2/108 94/10/107
f 88/35/9 90/38/9 89/3/9
f 89/3/115 90/38/115 96/33/102 92/9/102
f 89/3/116 15/2/108 92/9/114
f 108/7/117 15/2/117 86/4/117
f 107/1/118 15/2/118 108/7/118
f 105/3/119 15/2/119 107/1/119
f 103/9/120 15/2/121 105/3/122
f 102/10/123 15/2/121 103/9/120
f 101/14/124 15/2/121 102/10/123
f 108/7/125 100/39/125 85/37/126 86/4/126
f 107/1/127 109/40/127 100/39/125 108/7/125
f 103/9/128 97/41/128 104/42/129 105/3/129
f 104/42/23 106/43/23 105/3/23
f 102/10/130 98/44/130 97/41/128 103/9/128
f 101/14/131 99/45/131 98/44/130 102/10/130
f 105/3/132 106/43/132 109/40/127 107/1/127
f 118/10/133 15/2/133 101/14/133
f 117/9/134 15/2/134 118/10/134
f 120/3/135 15/2/135 117/9/135
f 116/1/136 15/2/136 120/3/137
f 115/7/138 15/2/136 116/1/136
f 114/4/139 15/2/139 115/7/139
f 118/10/140 113/44/140 99/45/141 101/14/141
f 117/9/142 122/41/142 113/44/140 118/10/140
f 119/43/9 121/42/9 120/3/9
f 116/1/143 110/40/143 119/43/144 120/3/144
f 115/7/145 111/39/145 110/40/143 116/1/143
f 114/4/146 112/37/146 111/39/145 115/7/145
f 120/3/147 121/42/147 122/41/142 117/9/142
f 129/7/148 15/2/149 114/4/150
f 128/1/151 15/2/149 129/7/148
f 133/3/152 15/2/149 128/1/151
f 127/9/153 15/2/149 133/3/152
f 126/10/154 15/2/149 127/9/153
f 5/14/155 15/2/155 126/10/155
f 129/7/156 125/36/156 112/37/157 114/4/157
f 132/38/23 131/35/23 133/3/23
f 128/1/158 130/34/158 125/36/156 129/7/156
f 127/9/159 123/33/159 132/38/160 133/3/160
f 126/10/161 124/32/161 123/33/159 127/9/159
f 5/14/162 9/17/162 124/32/161 126/10/161
f 133/3/163 131/35/163 130/34/158 128/1/158

