# WaveFront *.obj file (generated by CINEMA 4D)

mtllib ./DecagonShape_33.mtl

v 0.00056693138322 0.00500795524567 -0.01306147128344
v 0.00180608546361 0.00310955801979 -0.01399673428386
v 0.00000796948825 -0.00201658392325 -0.01263958960772
v 0.00000430577984 -0.00201466702856 -0.01263594813645
v 0.00000406066511 -0.00201564352028 -0.0126335863024
v 0.0000063247785 -0.00201501208358 -0.01263834815472
v 0.00000548902108 -0.00201293034479 -0.01263770926744
v 0.00000499365342 -0.00201286119409 -0.0126372417435
v -0.00094618444564 0.00345564866439 -0.01191638037562
v -0.00094622001052 0.00345676275901 -0.01191798225045
v 0.00180509570055 0.00311107421294 -0.01399598736316
v -0.00094569544308 0.00345795461908 -0.01191943604499
v 0.00180311629083 0.0031141070649 -0.01399449259043
v 0.00180410582107 0.00311259040609 -0.01399523951113
v 0.00000253208805 -0.00202638818882 -0.01263562776148
v -0.00094468728639 0.00345918745734 -0.01192056294531
v 0.00000536507241 -0.00201099459082 -0.01263762358576
v 0.0034917332232 0.00052712706383 -0.0152689917013
v 0.00001000599423 -0.00201703887433 -0.01264112628996
v 0.00001250194964 -0.00202164775692 -0.01264301035553
v 0.00001220588729 -0.00201686215587 -0.01264278683811
v 0.00180905486923 0.00310500874184 -0.01399897504598
v 0.00001301717657 -0.00201520789415 -0.01264339964837
v 0.00001179797891 -0.0020164065063 -0.01264247950166
v 0.00349084031768 0.00052849476924 -0.01526831835508
v 0.00001190881812 -0.00201916485094 -0.01264256238937
v 0.00349351880141 0.00052439095452 -0.01527034025639
v 0.00180806498975 0.00310652516782 -0.01399822812527
v 0.00349262612872 0.00052575900918 -0.01526966597885
v 0.00180707522668 0.00310804136097 -0.01399748120457
v 0.0056164804846 -0.00273029925302 -0.01687447540462
v 0.00349530484527 0.00052165525267 -0.01527168788016
v 0.00001393607363 -0.00202351552434 -0.01264409255236
v 0.00001193651133 -0.00202718889341 -0.01264675986022
v 0.0000156762344 -0.00202432298101 -0.01264541968703
v 0.00001572429574 -0.00202498096041 -0.01264559943229
v 0.00561551656574 -0.0027309099678 -0.01687611266971
v 0.00561666255817 -0.00272887386382 -0.01687318272889
v 0.00349619751796 0.00052028725622 -0.01527236122638
v 0.00001387031716 -0.0020263469778 -0.01264535542578
v 0.00349441193976 0.00052302324912 -0.01527101360261
v 0.00001723121022 -0.00202425150201 -0.01264658011496
v 0.00561606744304 -0.00272737699561 -0.01687235198915
v 0.00000991988418 -0.00202351552434 -0.01264941412956
v 0.00001167272785 -0.00202432298101 -0.0126507235691
v 0.00001185885776 -0.00202498096041 -0.01265072077513
v 0.00001111611891 -0.0020263469778 -0.01264900434762
v 0.00000848576019 -0.00202164775692 -0.01264833193272
v 0.00561301317066 -0.00272887386382 -0.01687801815569
v 0.00348950270563 0.00052439095452 -0.01527566090226
v 0.00561420619488 -0.00273029925302 -0.01687748916447
v 0.00561205111444 -0.00272737699561 -0.01687767356634
v 0.00001321502168 -0.00202425150201 -0.01265190076083
v 0.00349218142219 0.00052028725622 -0.01527768280357
v 0.00349039584398 0.00052302324912 -0.01527633517981
v 0.00349128851667 0.00052165525267 -0.01527700852603
v 0.00348860980012 0.00052575900918 -0.01527498755604
v 0.00000789262867 -0.00201916485094 -0.01264788396657
v 0.00000818969875 -0.00201686215587 -0.01264810841531
v 0.00000778178946 -0.0020164065063 -0.01264780014753
v 0.00180404877756 0.00310652516782 -0.01400354970247
v 0.00180305901449 0.00310804136097 -0.01400280185044
v 0.00180206925143 0.00310955801979 -0.01400205492973
v 0.00000598980523 -0.00201703887433 -0.01264644786716
v 0.00000395329926 -0.00201658392325 -0.01264491118491
v 0.00348771712743 0.00052712706383 -0.0152743132785
v 0.00348682398908 0.00052849476924 -0.01527363900095
v 0.00000900098803 -0.00201520789415 -0.01264872029424
v 0.00180503865704 0.00310500874184 -0.01400429662317
v -0.00095272040926 0.00345444492996 -0.01191585510969
v 0.00056291517103 0.00500795524567 -0.0130667919293
v 0.00000134888307 -0.00201099459082 -0.01264294516295
v 0.00179910007864 0.0031141070649 -0.01399981416762
v -0.00094870344037 0.00345918745734 -0.0119258845225
v -0.00095260713715 0.0034558752086 -0.01191967446357
v -0.00095120968763 0.00345748383552 -0.01192315295339
v -0.00000247529556 -0.00201684772037 -0.01263306103647
v 0.00180107948836 0.00311107421294 -0.01400130800903
v -0.00000177967036 -0.00201537972316 -0.01263857632875
v 0.0000001221286 -0.00201311148703 -0.01264178566635
v 0.0000023085895 -0.00201501208358 -0.01264366973191
v 0.00000121120354 -0.00201300322078 -0.01264282129705
v 0.00180008960888 0.00311259040609 -0.01400056108832
v -0.0009515194688 0.00345325656235 -0.01191214192659
v 0.00194160104729 0.00225266092457 -0.01074971444905
v 0.00000617637988 -0.00201907497831 -0.01262296177447
v 0.00000435419679 -0.00201730430126 -0.01262347307056
v 0.00193700951058 0.00225456757471 -0.01075155474246
v 0.00000336059634 -0.00201324885711 -0.0126230828464
v -0.00094578618882 0.00345171964727 -0.01190670579672
v 0.00000315610259 -0.00201518251561 -0.01262361928821
v 0.00000188142258 -0.00201508286409 -0.01262441650033
v 0.0019385399064 0.00225393194705 -0.01075094100088
v -0.00000066876333 -0.00201662443578 -0.01262760814279
v 0.00194007065147 0.00225329655223 -0.01075032819062
v -0.0009491230594 0.0034523466602 -0.01190896797925
v 0.00558154284954 0.00074100197526 -0.00929153431207
v 0.00558323552832 0.00074030191172 -0.00929214991629
v 0.00558452541009 0.00074024277274 -0.00929367169738
v 0.00194313155953 0.00225202529691 -0.01074910163879
v 0.00001179474293 -0.00202232017182 -0.01262469030917
v 0.00001089358375 -0.00202170037664 -0.01262240484357
v 0.00001100372992 -0.00201992620714 -0.01262092031538
v 0.00557992141694 0.00074175902409 -0.0092918202281
v 0.00001190806688 -0.00201846542768 -0.01262001879513
v 0.001946192584 0.0022507540416 -0.01074787508696
v 0.00001050862375 -0.00201945472509 -0.01262093149126
v 0.00000846614876 -0.00201981374994 -0.01262199878693
v 0.00194466207176 0.00225138966925 -0.01074848789722
v 0.0019475442823 0.00225266069174 -0.01075436361134
v 0.00194601365365 0.00225329585373 -0.01075497735292
v 0.001944483025 0.00225393171422 -0.01075559016317
v 0.00558486767113 0.00074102159124 -0.00929547753185
v 0.00000905849356 -0.00201780418865 -0.01262883748859
v 0.00001134826289 -0.00201854296029 -0.01262787450105
v 0.00001338163565 -0.00201818789355 -0.01262678857893
v 0.00001377766057 -0.00201870314777 -0.01262657530606
v 0.00001287006216 -0.00202082889155 -0.01262643374503
v 0.00194907467812 0.00225202506408 -0.01075375080109
v 0.00001479018101 -0.00201719463803 -0.01262589450926
v 0.00558280339465 0.00074302969733 -0.00929769594222
v 0.00558416126296 0.00074215664063 -0.00929687358439
v -0.00094444473507 0.00345375365578 -0.01191350445151
v -0.00094557536067 0.00345464074053 -0.01191482506692
v 0.00194295262918 0.00225456734188 -0.01075620390475
v 0.00000479042865 -0.00201521022245 -0.01263116393238
v 0.00000576117054 -0.00201372103766 -0.01262966450304
v 0.00000633751097 -0.00201388122514 -0.01262933202088
v 0.00000723631047 -0.00201603351161 -0.01262934878469
v 0.00194142211694 0.00225520273671 -0.010756816715
v 0.00193989172112 0.00225583859719 -0.01075743045658
v -0.00094290421112 0.00345299043693 -0.01191258151084
v 0.00000624270979 -0.00201197806746 -0.01262895856053
# 133 vertices

vn -0.58498990535736 0.00312152248807 -0.81103456020355
vn -0.58928549289703 0.00463254190981 -0.80791163444519
vn -0.57331454753876 -0.00072902831016 -0.81933504343033
vn 0.60242831707001 0 0.79817295074463
vn 0.60309875011444 -0.00037244937266 0.79766643047333
vn 0.60179269313812 0.00037497488665 0.79865229129791
vn -0.95650935173035 0.14378467202187 -0.25380274653435
vn -0.97205466032028 0.14608138799667 -0.18376606702805
vn -0.97348636388779 0.14241981506348 -0.17899975180626
vn -0.96909141540527 0.15329746901989 -0.19329184293747
vn 0.59974151849747 0.00148978794459 0.80019241571426
vn -0.9880690574646 0.14840249717236 -0.04118596762419
vn -0.59716808795929 0.00730294873938 -0.8020828962326
vn -0.59776574373245 0.00759221659973 -0.80163490772247
vn 0.69773799180984 0.02735711075366 0.71583050489426
vn 0.79414540529251 0.0586277320981 0.60489320755005
vn 0.94316381216049 0.12337429821491 0.30857869982719
vn 0.98007249832153 0.15373967587948 0.12578557431698
vn -0.59480255842209 0.00034569043783 -0.8038717508316
vn -0.61013585329056 0.02271833829582 -0.7919710278511
vn -0.59069299697876 -0.00653455965221 -0.80686992406845
vn -0.63130724430084 0.05429778248072 -0.7736297249794
vn -0.59585738182068 0.00243953661993 -0.80308651924133
vn -0.6397100687027 0.06833339482546 -0.76557272672653
vn -0.60353994369507 0.01357248798013 -0.7972172498703
vn -0.60092383623123 0.01033114921302 -0.79923951625824
vn 0.60301446914673 -0.00124169257469 0.79772931337357
vn -0.57597988843918 0.41675147414207 -0.70325338840485
vn -0.58007699251175 0.33090448379517 -0.74432045221329
vn -0.60413718223572 0.11241710931063 -0.78891110420227
vn -0.59892761707306 0.01607062853873 -0.80064189434052
vn 0.60186165571213 0.00117677054368 0.79859948158264
vn 0.5240450501442 -0.38697278499603 0.75870203971863
vn 0.57911509275436 -0.17461679875851 0.79632574319839
vn 0.29794704914093 -0.79581022262573 0.52717518806458
vn 0.12546139955521 -0.93825250864029 0.32239988446236
vn -0.59830033779144 0.01443422585726 -0.80114191770554
vn -0.38890501856804 0.80397176742554 -0.44986915588379
vn -0.22331090271473 0.9404479265213 -0.25630059838295
vn -0.59707897901535 0.00644637923688 -0.80215656757355
vn 0.60010886192322 0.00492509733886 0.79990315437317
vn -0.42530155181885 -0.79579532146454 -0.43107822537422
vn -0.27564027905464 -0.93825155496597 -0.20906095206738
vn 0.82136279344559 0.21642735600471 0.52775222063065
vn -0.60242831707001 0 -0.79817295074463
vn -0.58595937490463 -0.38697281479836 -0.7119717001915
vn -0.60299384593964 0.00117677054368 -0.7977449297905
vn -0.60472816228867 0.00492509733886 -0.79641675949097
vn -0.60184097290039 -0.00124169257469 -0.79861497879028
vn 0.8027029633522 0.32749730348587 0.49841091036797
vn 0.72848999500275 0.4786171913147 0.49013051390648
vn 0.33798709511757 0.91514706611633 0.2197055965662
vn 0.6335643529892 0.61616176366806 0.4679112136364
vn 0.10518110543489 0.97473925352097 0.19702880084515
vn -0.60704344511032 -0.17461679875851 -0.77524656057358
vn 0.65965473651886 -0.66750109195709 0.34539526700974
vn 0.58797079324722 0.50953680276871 0.6282217502594
vn 0.43630290031433 0.60715210437775 0.66408294439316
vn 0.26982587575912 0.68424499034882 0.67749744653702
vn -0.42203834652901 0.78176093101501 0.45905715227127
vn 0.9074672460556 -0.40807208418846 0.0999019742012
vn 0.93995487689972 -0.12670554220676 0.31690779328346
vn 0.93914443254471 -0.25213027000427 0.2333197593689
vn 0.91137146949768 0.02108855731785 0.41104418039322
vn 0.87906247377396 0.12715315818787 0.45943576097488
vn -0.79411977529526 -0.05862591415644 -0.60492712259293
vn -0.69772362709045 -0.02733387984335 -0.71584534645081
vn -0.94318032264709 -0.1233768388629 -0.30852720141411
vn -0.98007583618164 -0.15376682579517 -0.12572628259659
vn 0.88686454296112 0.40627953410149 0.22001864016056
vn 0.59269368648529 0.46539285778999 0.6573611497879
vn 0.77956682443619 0.42781594395638 0.45743745565414
vn 0.81586182117462 0.34438252449036 0.46451064944267
vn 0.76134920120239 0.38412371277809 0.52229911088943
vn -0.60378730297089 0.0007656965754 -0.79714512825012
vn -0.59935945272446 -0.00170594337396 -0.80047821998596
vn 0.86396765708923 0.30186727643013 0.40303355455399
vn 0.94006794691086 -0.08472900092602 -0.33029270172119
vn 0.3742558658123 0.44520747661591 0.81346350908279
vn 0.09845606982708 0.43335422873497 0.89582949876785
vn -0.59350353479385 -0.0048966081813 -0.80481648445129
vn -0.86596703529358 -0.20990785956383 0.45391601324081
vn -0.93900120258331 -0.19980695843697 0.27991777658463
vn -0.65979552268982 -0.20917056500912 0.72174620628357
vn -0.42884653806686 -0.19272105395794 0.88258099555969
vn -0.42235442996025 -0.19666181504726 0.88483947515488
vn -0.43383413553238 -0.18972344696522 0.88079112768173
vn -0.43232846260071 -0.19062481820583 0.88133662939072
vn 0.63292366266251 0.60467839241028 -0.48349943757057
vn 0.37703943252563 0.69408339262009 -0.61326134204864
vn 0.81306630373001 0.50478011369705 -0.29003483057022
vn 0.66978973150253 0.54316556453705 -0.50631296634674
vn 0.73683977127075 0.48391562700272 -0.4721152484417
vn 0.79715424776077 0.42022681236267 -0.43353727459908
vn 0.99055314064026 -0.12208473682404 0.06244870275259
vn 0.09882036596537 0.70356559753418 -0.70372581481934
vn -0.54266542196274 -0.20111908018589 0.81551539897919
vn -0.21436367928982 0.68153303861618 -0.69968628883362
vn 0.27737230062485 0.81252330541611 -0.51270890235901
vn 0.45550107955933 0.70791697502136 -0.53978914022446
vn 0.08718028664589 0.88187652826309 -0.46335020661354
vn -0.52226454019547 0.84497231245041 -0.11515901237726
vn 0.87544989585876 -0.31663146615028 -0.36514645814896
vn 0.67522519826889 0.44819730520248 -0.58582431077957
vn -0.07743829488754 0.95411103963852 -0.28926712274551
vn -0.43114158511162 -0.19131496548653 0.88176840543747
vn -0.43236476182938 -0.19060352444649 0.88132345676422
vn -0.4334828555584 -0.18991261720657 0.8809232711792
vn -0.22911648452282 -0.52565860748291 0.81926107406616
vn -0.34928643703461 -0.34557002782822 0.87096518278122
vn 0.0884357765317 -0.83438444137573 0.54404199123383
vn 0.26630085706711 -0.91232407093048 0.31104445457458
vn -0.4370199739933 -0.18775004148483 0.87963825464249
vn -0.69671070575714 0.56535303592682 0.4415542781353
vn -0.71094995737076 0.42706620693207 0.55871695280075
vn -0.62198436260223 0.74175882339478 0.25085714459419
vn -0.7021152973175 0.23599557578564 0.6718185544014
vn -0.67107099294662 0.12018918246031 0.7315861582756
vn 0.45260009169579 -0.85855311155319 0.24091424047947
vn -0.41479557752609 -0.35987651348114 0.83572334051132
vn -0.37548372149467 -0.40297761559486 0.83463823795319
vn -0.45267981290817 -0.31555172801018 0.83397126197815
vn 0.6074765920639 -0.60553950071335 -0.51409542560577
vn 0.55416834354401 -0.78539162874222 -0.27578514814377
vn 0.56747728586197 -0.17448487877846 -0.80468910932541
vn 0.43232846260071 0.19062481820583 -0.88133662939072
vn 0.43116641044617 0.19131763279438 -0.88175570964813
vn 0.42766556143761 0.19347958266735 -0.88298803567886
vn 0.43349429965019 0.1898886859417 -0.88092279434204
vn 0.43233993649483 0.19060088694096 -0.8813362121582
vn 0.50198221206665 0.02965284883976 -0.86436945199966
vn -0.52373707294464 -0.25498849153519 0.81282246112823
vn -0.56589609384537 -0.22987079620361 0.791783452034
vn -0.49685451388359 -0.27371644973755 0.82353800535202
vn -0.59884428977966 -0.20724387466908 0.77358615398407
vn -0.64531815052032 -0.17767781019211 0.74296373128891
vn 0.88761782646179 -0.36097288131714 0.28606489300728
vn -0.89702105522156 0.0047132819891 0.44196262955666
vn -0.80136346817017 -0.07511260360479 0.59344303607941
vn -0.95817023515701 0.08435437828302 0.27348527312279
vn 0.43310198187828 0.1901420801878 -0.88106107711792
vn 0.43159088492393 0.19108608365059 -0.88159823417664
vn 0.65978902578354 0.2092132717371 -0.72173976898193
vn 0.54274201393127 0.20114368200302 -0.81545835733414
vn 0.86591851711273 0.20992907881737 -0.45399883389473
vn 0.93896275758743 0.19980984926224 -0.28004464507103
vn 0.4292896091938 0.19247350096703 -0.88241964578629
# 147 normals

vt 0.49995157122612 0.00212597846985 0
vt 0.5 0 0
vt 0.5 0.00239622592926 0
vt 0.49946200847626 0.00165581703186 0
vt 0.2547627389431 0.75476276874542 0
vt 0.25495859980583 0.75495862960815 0
vt 0.49977412819862 0.00184786319733 0
vt 0.25515449047089 0.75515449047089 0
vt 0.50004839897156 0.00212597846985 0
vt 0.50022584199905 0.00184786319733 0
vt 0.25535038113594 0.75535035133362 0
vt 0.5 1 0
vt 0.74464964866638 0.75535035133362 0
vt 0.50053799152374 0.00165581703186 0
vt 0.74484550952911 0.75515449047089 0
vt 0.74504137039185 0.75495862960815 0
vt 0.74523729085922 0.75476276874542 0
vt 0.72123175859451 0.68088132143021 0
vt 0.7209849357605 0.68092042207718 0
vt 0.72073811292648 0.68095946311951 0
vt 0.72049129009247 0.68099856376648 0
vt 0.2555835545063 0.75463271141052 0
vt 0.25530993938446 0.75467610359192 0
vt 0.25503632426262 0.75471937656403 0
vt 0.72100907564163 0.68099474906921 0
vt 0.19191606342793 0.95058107376099 0
vt 0.72056376934052 0.68122166395187 0
vt 0.72078639268875 0.68110823631287 0
vt 0.19167397916317 0.95066893100739 0
vt 0.19139903783798 0.95069444179535 0
vt 0.19111704826355 0.95064401626587 0
vt 0.74496364593506 0.75471937656403 0
vt 0.74469006061554 0.75467610359192 0
vt 0.27926191687584 0.68095946311951 0
vt 0.27950873970985 0.68099856376648 0
vt 0.27901509404182 0.68092042207718 0
vt 0.27876827120781 0.68088132143021 0
vt 0.74441647529602 0.75463271141052 0
vt 0.27899092435837 0.68099474906921 0
vt 0.27921357750893 0.68110823631287 0
vt 0.80832600593567 0.95066893100739 0
vt 0.80808395147324 0.95058107376099 0
vt 0.27943626046181 0.68122166395187 0
vt 0.80860096216202 0.95069444179535 0
vt 0.80888295173645 0.95064401626587 0
# 45 texture coordinates

o Decagon_web
usemtl Mat
f 7/1/1 15/2/2 17/3/3
f 3/4/4 2/5/4 11/6/5 6/7/5
f 6/7/5 11/6/5 14/8/6 7/1/6
f 8/9/7 15/2/8 4/10/9
f 17/3/10 15/2/8 8/9/7
f 13/11/4 1/12/4 17/3/4
f 1/12/4 16/13/4 17/3/4
f 7/1/6 14/8/6 13/11/11 17/3/11
f 4/10/9 15/2/8 5/14/12
f 6/7/13 15/2/2 7/1/1
f 3/4/14 15/2/2 6/7/13
f 17/3/15 16/13/15 12/15/16 8/9/16
f 8/9/16 12/15/16 10/16/17 4/10/17
f 4/10/17 10/16/17 9/17/18 5/14/18
f 26/10/19 15/2/20 21/9/21
f 20/14/4 27/18/4 29/19/4 26/10/4
f 26/10/4 29/19/4 18/20/4 21/9/4
f 21/9/4 18/20/4 25/21/4 23/3/4
f 25/21/4 22/22/4 23/3/4
f 21/9/21 15/2/20 23/3/22
f 23/3/4 22/22/4 28/23/4 24/1/4
f 20/14/23 15/2/20 26/10/19
f 24/1/4 28/23/4 30/24/4 19/7/4
f 19/7/4 30/24/4 2/5/4 3/4/4
f 23/3/22 15/2/20 24/1/24
f 19/7/25 15/2/20 3/4/26
f 24/1/24 15/2/20 19/7/25
f 33/10/27 41/25/27 27/18/4 20/14/4
f 36/1/28 15/2/29 42/3/30
f 42/3/30 15/2/29 35/9/31
f 43/26/4 39/27/4 42/3/4
f 35/9/32 32/28/32 41/25/27 33/10/27
f 36/1/33 38/29/33 43/26/34 42/3/34
f 40/7/35 31/30/35 38/29/33 36/1/33
f 34/4/36 37/31/36 31/30/35 40/7/35
f 35/9/31 15/2/29 33/10/37
f 40/7/38 15/2/29 36/1/28
f 34/4/39 15/2/29 40/7/38
f 33/10/37 15/2/29 20/14/40
f 42/3/41 39/27/41 32/28/32 35/9/32
f 47/7/42 51/30/42 37/31/43 34/4/43
f 46/1/44 15/2/44 47/7/44
f 54/27/45 52/26/45 53/3/45
f 46/1/46 49/29/46 51/30/42 47/7/42
f 45/9/47 56/28/47 54/27/48 53/3/48
f 44/10/49 55/25/49 56/28/47 45/9/47
f 48/14/45 50/18/45 55/25/49 44/10/49
f 48/14/50 15/2/51 44/10/51
f 47/7/52 15/2/52 34/4/52
f 44/10/51 15/2/51 45/9/53
f 45/9/54 15/2/54 53/3/54
f 53/3/55 52/26/55 49/29/46 46/1/46
f 53/3/56 15/2/56 46/1/56
f 65/4/57 15/2/58 64/7/58
f 69/22/45 67/21/45 68/3/45
f 64/7/58 15/2/58 60/1/59
f 60/1/60 15/2/60 68/3/60
f 68/3/61 15/2/62 59/9/63
f 58/10/45 57/19/45 50/18/45 48/14/45
f 59/9/45 66/20/45 57/19/45 58/10/45
f 60/1/45 61/23/45 69/22/45 68/3/45
f 58/10/64 15/2/62 48/14/65
f 64/7/45 62/24/45 61/23/45 60/1/45
f 65/4/45 63/5/45 62/24/45 64/7/45
f 59/9/63 15/2/62 58/10/64
f 68/3/45 67/21/45 66/20/45 59/9/45
f 80/9/66 76/15/66 74/13/67 72/3/67
f 79/10/68 75/16/68 76/15/66 80/9/66
f 77/14/69 70/17/69 75/16/68 79/10/68
f 77/14/70 15/2/71 79/10/72
f 81/7/73 15/2/73 65/4/74
f 81/7/75 78/6/75 63/5/45 65/4/45
f 82/1/76 83/8/76 78/6/75 81/7/75
f 82/1/77 15/2/73 81/7/73
f 72/3/78 15/2/78 82/1/78
f 79/10/72 15/2/71 80/9/79
f 80/9/79 15/2/71 72/3/80
f 74/13/45 71/12/45 72/3/45
f 71/12/45 73/11/45 72/3/45
f 72/3/81 73/11/81 83/8/76 82/1/76
f 94/10/82 84/32/82 70/17/83 77/14/83
f 92/9/84 96/33/84 84/32/82 94/10/82
f 91/1/85 93/34/85 88/35/86 89/3/86
f 87/7/87 95/36/87 93/34/85 91/1/85
f 86/4/88 85/37/88 95/36/87 87/7/87
f 94/10/89 15/2/90 77/14/91
f 86/4/92 15/2/93 87/7/93
f 87/7/93 15/2/93 91/1/94
f 91/1/95 15/2/95 89/3/95
f 92/9/96 15/2/90 94/10/89
f 88/35/88 90/38/88 89/3/88
f 89/3/97 90/38/97 96/33/84 92/9/84
f 89/3/98 15/2/90 92/9/96
f 108/7/99 15/2/99 86/4/100
f 107/1/101 15/2/99 108/7/99
f 105/3/102 15/2/102 107/1/102
f 103/9/103 15/2/103 105/3/103
f 102/10/104 15/2/104 103/9/104
f 101/14/105 15/2/105 102/10/105
f 108/7/106 100/39/106 85/37/107 86/4/107
f 107/1/108 109/40/108 100/39/106 108/7/106
f 103/9/109 97/41/109 104/42/110 105/3/110
f 104/42/88 106/43/88 105/3/88
f 102/10/111 98/44/111 97/41/109 103/9/109
f 101/14/112 99/45/112 98/44/111 102/10/111
f 105/3/113 106/43/113 109/40/108 107/1/108
f 118/10/114 15/2/115 101/14/116
f 117/9/117 15/2/115 118/10/114
f 120/3/118 15/2/115 117/9/117
f 116/1/119 15/2/119 120/3/119
f 115/7/120 15/2/120 116/1/121
f 114/4/122 15/2/120 115/7/120
f 118/10/123 113/44/123 99/45/124 101/14/124
f 117/9/125 122/41/125 113/44/123 118/10/123
f 119/43/126 121/42/126 120/3/126
f 116/1/127 110/40/127 119/43/128 120/3/128
f 115/7/129 111/39/129 110/40/127 116/1/127
f 114/4/130 112/37/130 111/39/129 115/7/129
f 120/3/131 121/42/131 122/41/125 117/9/125
f 129/7/132 15/2/133 114/4/134
f 128/1/135 15/2/133 129/7/132
f 133/3/136 15/2/133 128/1/135
f 127/9/137 15/2/137 133/3/137
f 126/10/138 15/2/138 127/9/139
f 5/14/140 15/2/138 126/10/138
f 129/7/141 125/36/141 112/37/126 114/4/126
f 132/38/126 131/35/126 133/3/126
f 128/1/142 130/34/142 125/36/141 129/7/141
f 127/9/143 123/33/143 132/38/144 133/3/144
f 126/10/145 124/32/145 123/33/143 127/9/143
f 5/14/146 9/17/146 124/32/145 126/10/145
f 133/3/147 131/35/147 130/34/142 128/1/142

