# WaveFront *.obj file (generated by CINEMA 4D)

mtllib ./DecagonShape_4.mtl

v -0.00648073293269 0.01409015152603 -0.01496356166899
v -0.00558503018692 0.01180720608681 -0.0149666601792
v -0.00001225218875 0.01126299146563 -0.01498593762517
v -0.00001133688966 0.0112684853375 -0.01498594041914
v -0.00000920894945 0.01126996520907 -0.01498594786972
v -0.00001261450689 0.01126555819064 -0.01498593576252
v -0.00001391476417 0.01126749441028 -0.01498593203723
v -0.00001364088075 0.01126812212169 -0.01498593296856
v -0.00419780146331 0.0149858603254 -0.01497145928442
v -0.00419962499291 0.01498514413834 -0.01497145276517
v -0.00558574544266 0.01180902961642 -0.01496665738523
v -0.00420144852251 0.0149844288826 -0.01497144624591
v -0.00558717641979 0.01181267667562 -0.01496665272862
v -0.0055864606984 0.01181085314602 -0.01496665552258
v 0 0.01126179564744 -0.01498597953469
v -0.00420327205211 0.01498371362686 -0.01497143972665
v -0.00001552942558 0.01126857288182 -0.0149859264493
v -0.00436658598483 0.0087016671896 -0.01497087534517
v -0.00001310414063 0.0112605439499 -0.0149859348312
v -0.00001061550938 0.01125556137413 -0.01498594321311
v -0.00001460717158 0.01125822681934 -0.01498592924327
v -0.00558288348839 0.01180173642933 -0.01496666762978
v -0.00001654722109 0.01125815045089 -0.01498592272401
v -0.00001475446697 0.01125889550894 -0.01498592924327
v -0.00436723139137 0.00870331190526 -0.0149708725512
v -0.00001241702739 0.0112574249506 -0.01498593669385
v -0.00436529517174 0.00869837682694 -0.01497087907046
v -0.00558359920979 0.01180355995893 -0.01496666483581
v -0.00436594011262 0.00870002247393 -0.01497087720782
v -0.00558431446552 0.01180538255721 -0.01496666297317
v -0.00282884086482 0.00478489138186 -0.01497619412839
v -0.00436400389299 0.00869508739561 -0.01497088372707
v -0.00000986605392 0.01125308033079 -0.01498594600707
v -0.00000492406525 0.01125051267445 -0.01498596277088
v -0.00001023234927 0.01125077717006 -0.01498594414443
v -0.00000972013459 0.01125032268465 -0.01498594600707
v -0.00282711256295 0.0047838347964 -0.01497620064765
v -0.00283017521724 0.00478631677106 -0.01497618947178
v -0.00436335895211 0.00869344174862 -0.01497088652104
v -0.00000747666581 0.01125096064061 -0.01498595438898
v -0.00436464976519 0.00869673211128 -0.01497088186443
v -0.00001124454138 0.0112491203472 -0.01498594135046
v -0.00283104367554 0.00478791678324 -0.01497618667781
v 0.0000003195286 0.01124863512814 -0.01498598046601
v -0.00000112033729 0.01124680042267 -0.0149859758094
v -0.00000180182042 0.01124686654657 -0.01498597394675
v -0.00000285947112 0.01124894618988 -0.01498597022146
v 0.00000264820392 0.01124977320433 -0.01498598884791
v -0.00282320985571 0.00478327646852 -0.01497621368617
v 0.00108899059705 0.00631798850372 -0.0149897467345
v -0.00282516260631 0.0047832862474 -0.01497620716691
v -0.00282144616358 0.00478372815996 -0.01497622020543
v -0.00000164682899 0.01124493125826 -0.01498597394675
v 0.00108405563515 0.00631605228409 -0.01498972997069
v 0.00108734576497 0.00631734309718 -0.01498974114656
v 0.00108570070006 0.00631669769064 -0.01498973555863
v 0.00109063577838 0.00631863391027 -0.01498975232244
v 0.00000523933295 0.01124971918762 -0.01498599816114
v 0.00000731694172 0.01124865934253 -0.0149860046804
v 0.00000790739068 0.01124900579453 -0.01498600747436
v 0.0041941544041 0.00753629999235 -0.01500048860908
v 0.0041959779337 0.00753701524809 -0.01500049419701
v 0.00419780146331 0.00753773050383 -0.01500050071627
v 0.00000799367263 0.01125133689493 -0.01498600747436
v 0.00000920894945 0.01125362608582 -0.01498601213098
v 0.0010922808433 0.00631927931681 -0.01498975791037
v 0.00109392567538 0.00631992472336 -0.01498976349831
v 0.00000857991654 0.01124718412757 -0.01498600933701
v 0.0041923308745 0.00753558427095 -0.01500048208982
v 0.00558503018692 0.01071638427675 -0.0150052998215
v 0.00648073293269 0.00843343976885 -0.01500839740038
v 0.00001552942558 0.01125501748174 -0.01498603355139
v 0.00420327205211 0.0075398767367 -0.01500051934272
v 0.00558717641979 0.01071091368794 -0.01500530727208
v 0.00558574544266 0.01071456074715 -0.01500530168414
v 0.0055864606984 0.01071273721755 -0.01500530447811
v 0.00001225218875 0.01126059889793 -0.01498602237552
v 0.00419962499291 0.00753844622523 -0.01500050723553
v 0.00001261450689 0.01125803217292 -0.01498602330685
v 0.00001391476417 0.01125609595329 -0.01498602796346
v 0.00001133688966 0.01125510502607 -0.01498601865023
v 0.00001364088075 0.01125546824187 -0.01498602703214
v 0.00420144852251 0.00753916194662 -0.01500051375479
v 0.00558431446552 0.01071820780635 -0.01500529702753
v 0.00436529517174 0.01382521353662 -0.01500107999891
v 0.00001061550938 0.01126802898943 -0.01498601678759
v 0.00001241702739 0.01126616541296 -0.01498602237552
v 0.00436723139137 0.0138202784583 -0.01500108651817
v 0.00001654722109 0.01126543991268 -0.01498603727669
v 0.00558288348839 0.01072185486555 -0.01500529237092
v 0.00001460717158 0.01126536354423 -0.01498603075743
v 0.00001475446697 0.01126469485462 -0.01498603075743
v 0.00436658598483 0.01382192410529 -0.01500108465552
v 0.00001310414063 0.01126304641366 -0.01498602516949
v 0.00436594011262 0.01382356882095 -0.01500108279288
v 0.00558359920979 0.01072003133595 -0.01500529423356
v 0.00283017521724 0.01773727498949 -0.01499576959759
v 0.00282884086482 0.01773869991302 -0.01499576494098
v 0.00282711256295 0.01773975603282 -0.01499575935304
v 0.00436464976519 0.01382685825229 -0.01500107813627
v 0.00000492406525 0.01127307862043 -0.01498599722981
v 0.00000747666581 0.01127262972295 -0.01498600561172
v 0.00000972013459 0.01127326767892 -0.0149860130623
v 0.00283104367554 0.01773567311466 -0.01499577332288
v 0.00001124454138 0.01127447001636 -0.01498601865023
v 0.00436335895211 0.01383014861494 -0.01500107347965
v 0.00001023234927 0.0112728131935 -0.01498601492494
v 0.00000986605392 0.01127051003277 -0.01498601399362
v 0.00436400389299 0.01382850389928 -0.0150010753423
v -0.00108570070006 0.01620689220726 -0.01498222444206
v -0.00108734576497 0.01620624773204 -0.01498221885413
v -0.00108899059705 0.01620560139418 -0.01498221233487
v 0.00282516260631 0.0177403036505 -0.01499575283378
v -0.00000264820392 0.01127381809056 -0.01498597022146
v -0.0000003195286 0.01127495523542 -0.01498597860336
v 0.00000112033729 0.01127678994089 -0.01498598325998
v 0.00000180182042 0.01127672381699 -0.01498598605394
v 0.00000285947112 0.011274645105 -0.01498598977923
v -0.00108405563515 0.01620753854513 -0.01498223003
v 0.00000164682899 0.0112786591053 -0.01498598512262
v 0.00282144616358 0.0177398622036 -0.01499573979527
v 0.00282320985571 0.01774031482637 -0.0149957453832
v -0.0041941544041 0.01498729083687 -0.01497147139162
v -0.0041959779337 0.01498657558113 -0.01497146487236
v -0.00109063577838 0.01620495691895 -0.01498220674694
v -0.00000799367263 0.01127225439996 -0.01498595252633
v -0.00000790739068 0.01127458550036 -0.01498595252633
v -0.00000731694172 0.01127493195236 -0.01498595438898
v -0.00000523933295 0.01127387117594 -0.01498596183956
v -0.0010922808433 0.01620431058109 -0.014982201159
v -0.00109392567538 0.01620366610587 -0.01498219557106
v -0.0041923308745 0.01498800609261 -0.01497147791088
v -0.00000857991654 0.01127640623599 -0.01498594973236
# 133 vertices

vn 0.00345916091464 0 0.99999403953552
vn -0.00345916091464 0 -0.99999403953552
# 2 normals

vt 0.49995157122612 0.00212597846985 0
vt 0.5 0 0
vt 0.5 0.00239622592926 0
vt 0.49946200847626 0.00165581703186 0
vt 0.2547627389431 0.75476276874542 0
vt 0.25495859980583 0.75495862960815 0
vt 0.49977412819862 0.00184786319733 0
vt 0.25515449047089 0.75515449047089 0
vt 0.50004839897156 0.00212597846985 0
vt 0.50022584199905 0.00184786319733 0
vt 0.25535038113594 0.75535035133362 0
vt 0.5 1 0
vt 0.74464964866638 0.75535035133362 0
vt 0.50053799152374 0.00165581703186 0
vt 0.74484550952911 0.75515449047089 0
vt 0.74504137039185 0.75495862960815 0
vt 0.74523729085922 0.75476276874542 0
vt 0.72123175859451 0.68088132143021 0
vt 0.7209849357605 0.68092042207718 0
vt 0.72073811292648 0.68095946311951 0
vt 0.72049129009247 0.68099856376648 0
vt 0.2555835545063 0.75463271141052 0
vt 0.25530993938446 0.75467610359192 0
vt 0.25503632426262 0.75471937656403 0
vt 0.72100907564163 0.68099474906921 0
vt 0.19191606342793 0.95058107376099 0
vt 0.72056376934052 0.68122166395187 0
vt 0.72078639268875 0.68110823631287 0
vt 0.19167397916317 0.95066893100739 0
vt 0.19139903783798 0.95069444179535 0
vt 0.19111704826355 0.95064401626587 0
vt 0.74496364593506 0.75471937656403 0
vt 0.74469006061554 0.75467610359192 0
vt 0.27926191687584 0.68095946311951 0
vt 0.27950873970985 0.68099856376648 0
vt 0.27901509404182 0.68092042207718 0
vt 0.27876827120781 0.68088132143021 0
vt 0.74441647529602 0.75463271141052 0
vt 0.27899092435837 0.68099474906921 0
vt 0.27921357750893 0.68110823631287 0
vt 0.80832600593567 0.95066893100739 0
vt 0.80808395147324 0.95058107376099 0
vt 0.27943626046181 0.68122166395187 0
vt 0.80860096216202 0.95069444179535 0
vt 0.80888295173645 0.95064401626587 0
# 45 texture coordinates

o Decagon_web
usemtl Mat
f 7/1/1 15/2/1 17/3/1
f 3/4/2 2/5/2 11/6/2 6/7/2
f 6/7/2 11/6/2 14/8/2 7/1/2
f 8/9/1 15/2/1 4/10/1
f 17/3/1 15/2/1 8/9/1
f 13/11/2 1/12/2 17/3/2
f 1/12/2 16/13/2 17/3/2
f 7/1/2 14/8/2 13/11/2 17/3/2
f 4/10/1 15/2/1 5/14/1
f 6/7/1 15/2/1 7/1/1
f 3/4/1 15/2/1 6/7/1
f 17/3/2 16/13/2 12/15/2 8/9/2
f 8/9/2 12/15/2 10/16/2 4/10/2
f 4/10/2 10/16/2 9/17/2 5/14/2
f 26/10/1 15/2/1 21/9/1
f 20/14/2 27/18/2 29/19/2 26/10/2
f 26/10/2 29/19/2 18/20/2 21/9/2
f 21/9/2 18/20/2 25/21/2 23/3/2
f 25/21/2 22/22/2 23/3/2
f 21/9/1 15/2/1 23/3/1
f 23/3/2 22/22/2 28/23/2 24/1/2
f 20/14/1 15/2/1 26/10/1
f 24/1/2 28/23/2 30/24/2 19/7/2
f 19/7/2 30/24/2 2/5/2 3/4/2
f 23/3/1 15/2/1 24/1/1
f 19/7/1 15/2/1 3/4/1
f 24/1/1 15/2/1 19/7/1
f 33/10/2 41/25/2 27/18/2 20/14/2
f 36/1/1 15/2/1 42/3/1
f 42/3/1 15/2/1 35/9/1
f 43/26/2 39/27/2 42/3/2
f 35/9/2 32/28/2 41/25/2 33/10/2
f 36/1/2 38/29/2 43/26/2 42/3/2
f 40/7/2 31/30/2 38/29/2 36/1/2
f 34/4/2 37/31/2 31/30/2 40/7/2
f 35/9/1 15/2/1 33/10/1
f 40/7/1 15/2/1 36/1/1
f 34/4/1 15/2/1 40/7/1
f 33/10/1 15/2/1 20/14/1
f 42/3/2 39/27/2 32/28/2 35/9/2
f 47/7/2 51/30/2 37/31/2 34/4/2
f 46/1/1 15/2/1 47/7/1
f 54/27/2 52/26/2 53/3/2
f 46/1/2 49/29/2 51/30/2 47/7/2
f 45/9/2 56/28/2 54/27/2 53/3/2
f 44/10/2 55/25/2 56/28/2 45/9/2
f 48/14/2 50/18/2 55/25/2 44/10/2
f 48/14/1 15/2/1 44/10/1
f 47/7/1 15/2/1 34/4/1
f 44/10/1 15/2/1 45/9/1
f 45/9/1 15/2/1 53/3/1
f 53/3/2 52/26/2 49/29/2 46/1/2
f 53/3/1 15/2/1 46/1/1
f 65/4/1 15/2/1 64/7/1
f 69/22/2 67/21/2 68/3/2
f 64/7/1 15/2/1 60/1/1
f 60/1/1 15/2/1 68/3/1
f 68/3/1 15/2/1 59/9/1
f 58/10/2 57/19/2 50/18/2 48/14/2
f 59/9/2 66/20/2 57/19/2 58/10/2
f 60/1/2 61/23/2 69/22/2 68/3/2
f 58/10/1 15/2/1 48/14/1
f 64/7/2 62/24/2 61/23/2 60/1/2
f 65/4/2 63/5/2 62/24/2 64/7/2
f 59/9/1 15/2/1 58/10/1
f 68/3/2 67/21/2 66/20/2 59/9/2
f 80/9/2 76/15/2 74/13/2 72/3/2
f 79/10/2 75/16/2 76/15/2 80/9/2
f 77/14/2 70/17/2 75/16/2 79/10/2
f 77/14/1 15/2/1 79/10/1
f 81/7/1 15/2/1 65/4/1
f 81/7/2 78/6/2 63/5/2 65/4/2
f 82/1/2 83/8/2 78/6/2 81/7/2
f 82/1/1 15/2/1 81/7/1
f 72/3/1 15/2/1 82/1/1
f 79/10/1 15/2/1 80/9/1
f 80/9/1 15/2/1 72/3/1
f 74/13/2 71/12/2 72/3/2
f 71/12/2 73/11/2 72/3/2
f 72/3/2 73/11/2 83/8/2 82/1/2
f 94/10/2 84/32/2 70/17/2 77/14/2
f 92/9/2 96/33/2 84/32/2 94/10/2
f 91/1/2 93/34/2 88/35/2 89/3/2
f 87/7/2 95/36/2 93/34/2 91/1/2
f 86/4/2 85/37/2 95/36/2 87/7/2
f 94/10/1 15/2/1 77/14/1
f 86/4/1 15/2/1 87/7/1
f 87/7/1 15/2/1 91/1/1
f 91/1/1 15/2/1 89/3/1
f 92/9/1 15/2/1 94/10/1
f 88/35/2 90/38/2 89/3/2
f 89/3/2 90/38/2 96/33/2 92/9/2
f 89/3/1 15/2/1 92/9/1
f 108/7/1 15/2/1 86/4/1
f 107/1/1 15/2/1 108/7/1
f 105/3/1 15/2/1 107/1/1
f 103/9/1 15/2/1 105/3/1
f 102/10/1 15/2/1 103/9/1
f 101/14/1 15/2/1 102/10/1
f 108/7/2 100/39/2 85/37/2 86/4/2
f 107/1/2 109/40/2 100/39/2 108/7/2
f 103/9/2 97/41/2 104/42/2 105/3/2
f 104/42/2 106/43/2 105/3/2
f 102/10/2 98/44/2 97/41/2 103/9/2
f 101/14/2 99/45/2 98/44/2 102/10/2
f 105/3/2 106/43/2 109/40/2 107/1/2
f 118/10/1 15/2/1 101/14/1
f 117/9/1 15/2/1 118/10/1
f 120/3/1 15/2/1 117/9/1
f 116/1/1 15/2/1 120/3/1
f 115/7/1 15/2/1 116/1/1
f 114/4/1 15/2/1 115/7/1
f 118/10/2 113/44/2 99/45/2 101/14/2
f 117/9/2 122/41/2 113/44/2 118/10/2
f 119/43/2 121/42/2 120/3/2
f 116/1/2 110/40/2 119/43/2 120/3/2
f 115/7/2 111/39/2 110/40/2 116/1/2
f 114/4/2 112/37/2 111/39/2 115/7/2
f 120/3/2 121/42/2 122/41/2 117/9/2
f 129/7/1 15/2/1 114/4/1
f 128/1/1 15/2/1 129/7/1
f 133/3/1 15/2/1 128/1/1
f 127/9/1 15/2/1 133/3/1
f 126/10/1 15/2/1 127/9/1
f 5/14/1 15/2/1 126/10/1
f 129/7/2 125/36/2 112/37/2 114/4/2
f 132/38/2 131/35/2 133/3/2
f 128/1/2 130/34/2 125/36/2 129/7/2
f 127/9/2 123/33/2 132/38/2 133/3/2
f 126/10/2 124/32/2 123/33/2 127/9/2
f 5/14/2 9/17/2 124/32/2 126/10/2
f 133/3/2 131/35/2 130/34/2 128/1/2

