# WaveFront *.obj file (generated by CINEMA 4D)

mtllib ./DecagonShape_34.mtl

v 0.0003386491444 0.00491947075352 -0.01272506359965
v 0.00157528673299 0.00308110867627 -0.01377638895065
v 0.00000776441357 -0.00212651793845 -0.0124437622726
v 0.00000432370598 -0.00212478986941 -0.01243983861059
v 0.0000044223525 -0.00212579336949 -0.01243748236448
v 0.00000615033741 -0.00212502502836 -0.01244239043444
v 0.00000529413228 -0.0021229845006 -0.01244165282696
v 0.00000483024132 -0.00212294072844 -0.01244115177542
v -0.00105952564627 0.00329659180716 -0.01153296884149
v -0.00105982215609 0.00329771311954 -0.01153453625739
v 0.00157429894898 0.00308257690631 -0.01377554889768
v -0.00105949561112 0.0032989422325 -0.01153601426631
v 0.00157232349738 0.00308551383205 -0.01377386972308
v 0.00157331104856 0.00308404536918 -0.01377470884472
v 0.00000306171819 -0.00213658250868 -0.01243941020221
v -0.00105861295015 0.00330022908747 -0.01153718400747
v 0.0000051192319 -0.00212105596438 -0.0124415140599
v 0.00325751118362 0.00058034493122 -0.01520652789623
v 0.00000972004091 -0.00212687603198 -0.01244542561471
v 0.00001223352956 -0.00213136337698 -0.0124475620687
v 0.00001181332391 -0.00212659523822 -0.01244720444083
v 0.00157824996859 0.00307670352049 -0.01377890817821
v 0.00001253953724 -0.0021249037236 -0.0124478219077
v 0.00001141111625 -0.00212615914643 -0.01244686264545
v 0.00325661990792 0.00058166938834 -0.01520577073097
v 0.00001159627118 -0.00212891027331 -0.01244702003896
v 0.00325929326937 0.00057769537671 -0.01520804315805
v 0.00157726218458 0.00307817175053 -0.01377806812525
v 0.00325840222649 0.00057902018307 -0.0152072859928
v 0.00157627440058 0.00307963998057 -0.01377722807229
v 0.00537790358067 -0.0025740978308 -0.01701107248664
v 0.00326107535511 0.00057504617143 -0.01520955841988
v 0.00001365525804 -0.00213316176087 -0.0124487709254
v 0.00001161013279 -0.00213683233596 -0.01245140749961
v 0.00001533760405 -0.00213388632983 -0.01245021447539
v 0.00001539401819 -0.00213453825563 -0.0124504128471
v 0.00537686375901 -0.00257469969802 -0.01701266691089
v 0.0053781196475 -0.00257269735448 -0.01700975932181
v 0.00326196639799 0.00057372142328 -0.01521031558514
v 0.0000135975215 -0.00213596457615 -0.01245009619743
v 0.00326018431224 0.00057637091959 -0.01520880032331
v 0.00001681953108 -0.00213374150917 -0.012451460585
v 0.00537753105164 -0.00257123820484 -0.0170088596642
v 0.00000933716547 -0.00213316176087 -0.01245385035872
v 0.00001103314662 -0.00213388632983 -0.01245527807623
v 0.00001123800848 -0.00213453825563 -0.0124553013593
v 0.00001063628588 -0.00213596457615 -0.01245357934386
v 0.00000791543698 -0.00213136337698 -0.01245264150202
v 0.0053741959855 -0.00257269735448 -0.01701437309384
v 0.00325497519225 0.00057769537671 -0.01521312259138
v 0.00537545839325 -0.0025740978308 -0.01701394841075
v 0.00537321297452 -0.00257123820484 -0.01701393723488
v 0.0000125014385 -0.00213374150917 -0.01245654001832
v 0.00325764832087 0.00057372142328 -0.01521539501846
v 0.00325586623512 0.00057637091959 -0.01521387975663
v 0.003256757278 0.00057504617143 -0.01521463785321
v 0.00325408391654 0.00057902018307 -0.0152123644948
v 0.0000072781786 -0.00212891027331 -0.01245209947228
v 0.00000749523178 -0.00212659523822 -0.01245228387415
v 0.00000709302367 -0.00212615914643 -0.01245194207877
v 0.00157294410747 0.00307817175053 -0.01378314755857
v 0.00157195632346 0.00307963998057 -0.01378230750561
v 0.00157096865587 0.00308110867627 -0.01378146745265
v 0.00000540194833 -0.00212687603198 -0.01245050411671
v 0.00000344632076 -0.00212651793845 -0.01244884170592
v 0.0032531931065 0.00058034493122 -0.01521160732955
v 0.0032523018308 0.00058166938834 -0.01521085016429
v 0.00000822144466 -0.0021249037236 -0.01245290134102
v 0.00157393189147 0.00307670352049 -0.01378398668021
v -0.00106585072353 0.0032951021567 -0.0115314796567
v 0.00033433103818 0.00491947075352 -0.01273014303297
v 0.00000080113938 -0.00212105596438 -0.01244659349322
v 0.00156800542027 0.00308551383205 -0.01377894822508
v -0.00106293102726 0.00330022908747 -0.01154226344079
v -0.00106632779352 0.00329659227282 -0.01153546571732
v -0.00106530054472 0.00329834106378 -0.01153923757374
v -0.00000190285255 -0.00212728301995 -0.01243599317968
v 0.00156998087186 0.00308257690631 -0.01378062833101
v -0.00000197708687 -0.00212569581345 -0.01244181953371
v -0.00000035625183 -0.0021232618019 -0.01244532782584
v 0.00000183224483 -0.00212502502836 -0.01244746986777
v 0.00000070661685 -0.00212307809852 -0.01244648918509
v 0.00156899297144 0.00308404536918 -0.01377978827804
v -0.0010639114771 0.00329395709559 -0.01152783818543
v 0.00208863220178 0.00227542826906 -0.01109366677701
v 0.00000904249009 -0.00212897500023 -0.01242753025144
v 0.00000705172806 -0.00212731654756 -0.01242759171873
v 0.00208363006823 0.00227704597637 -0.01109434943646
v 0.00000594868243 -0.00212331605144 -0.01242698915303
v -0.00105676951353 0.00329280178994 -0.0115235215053
v 0.00000570264501 -0.00212527159601 -0.0124274622649
v 0.00000420149581 -0.00212526274845 -0.01242797076702
v 0.00208529736847 0.00227650697343 -0.01109412219375
v 0.00000094827493 -0.00212698010728 -0.01243067812175
v 0.00208696466871 0.00227596750483 -0.01109389401972
v -0.0010607491713 0.00329319457524 -0.01152505353093
v 0.00605375273153 0.00099280185532 -0.01055212784559
v 0.00605528475717 0.00099218520336 -0.01055313181132
v 0.00605617137626 0.00099217041861 -0.01055491995066
v 0.00209029926918 0.00227488903329 -0.01109343860298
v 0.00001425682331 -0.00213193544187 -0.01243055146188
v 0.00001389865793 -0.00213132589124 -0.01242811791599
v 0.00001426046219 -0.00212952238508 -0.0124267116189
v 0.00605206936598 0.00099346286152 -0.01055201608688
v 0.00001526940105 -0.00212799827568 -0.01242606062442
v 0.00209363386966 0.00227381056175 -0.01109298318624
v 0.00001375093325 -0.00212907930836 -0.01242660358548
v 0.00001153566882 -0.00212956918404 -0.01242714561522
v 0.00209196633659 0.00227434956469 -0.01109321042895
v 0.00209326972254 0.00227567343973 -0.01109961327165
v 0.0020916024223 0.0022762126755 -0.01109984144568
v 0.00208993512206 0.0022767521441 -0.01110006868839
v 0.00605602283031 0.00099293480162 -0.0105567574501
v 0.00001034564411 -0.00212765112519 -0.01243393216282
v 0.00001283882284 -0.002128245309 -0.0124335475266
v 0.00001504997272 -0.00212775962427 -0.01243298687041
v 0.00001551470086 -0.00212824833579 -0.01243287324905
v 0.00001479232742 -0.00213041808456 -0.01243250910193
v 0.00209493702278 0.00227513420396 -0.01109938509762
v 0.00001657255416 -0.00212667440064 -0.01243246346712
v 0.00605337228626 0.00099478673656 -0.01055841892958
v 0.00605493690819 0.00099400477484 -0.01055794581771
v -0.00105721398722 0.00329479272477 -0.01153047475964
v -0.00105862307828 0.00329561298713 -0.01153154484928
v 0.00208826782182 0.00227729137987 -0.01110029686242
v 0.00000553567088 -0.00212532212026 -0.01243522297591
v 0.00000671849739 -0.00212376983836 -0.01243396103382
v 0.00000736396487 -0.00212389347143 -0.01243377011269
v 0.00000835488299 -0.00212599290535 -0.01243399456143
v 0.00208660052158 0.00227783038281 -0.01110052503645
v 0.00208493322134 0.00227836985141 -0.01110075227916
v -0.00105546659324 0.00329412543215 -0.011529924348
v 0.00000725183691 -0.0021219921764 -0.01243339199573
# 133 vertices

vn -0.67525792121887 -0.01076223514974 -0.7375031709671
vn -0.87327361106873 0.0429896377027 -0.4853298664093
vn -0.83190923929214 0.03521059453487 -0.55379354953766
vn 0.64771384000778 0 0.76188367605209
vn 0.64843416213989 -0.00037603723467 0.76127064228058
vn 0.64702636003494 0.00038022868102 0.76246756315231
vn -0.95251733064651 0.08619719743729 -0.29202881455421
vn -0.99168288707733 0.10334501415491 -0.0767125338316
vn 0.64484417438507 0.00148423516657 0.76431262493134
vn -0.99012339115143 0.10916641354561 0.08796779811382
vn -0.66356420516968 -0.01552823930979 -0.74795818328857
vn -0.65750098228455 -0.01851439103484 -0.75322616100311
vn 0.74505585432053 0.03506380319595 0.66607981920242
vn 0.83971309661865 0.0750430971384 0.5378201007843
vn 0.96710842847824 0.15630373358727 0.20067490637302
vn 0.98120898008347 0.1929349899292 -0.00224459846504
vn -0.6646763086319 -0.00169765751343 -0.74712949991226
vn -0.627645611763 -0.05243371427059 -0.77673143148422
vn -0.67391246557236 0.01406913157552 -0.73867726325989
vn -0.56830412149429 -0.1246011480689 -0.81332957744598
vn -0.6622069478035 -0.00655696354806 -0.74929231405258
vn -0.54190182685852 -0.15634573996067 -0.82577139139175
vn -0.64380687475204 -0.03211747482419 -0.76451373100281
vn -0.65013939142227 -0.02463429048657 -0.75941550731659
vn 0.64830857515335 -0.00121302145999 0.76137673854828
vn -0.63419014215469 0.45288559794426 -0.62665581703186
vn -0.65127646923065 0.29214870929718 -0.70034855604172
vn -0.66085636615753 0.01770965196192 -0.75030344724655
vn -0.63776797056198 -0.13505898416042 -0.75829482078552
vn 0.64713937044144 0.00114912283607 0.76237088441849
vn 0.57833755016327 -0.38816222548485 0.7175344824791
vn 0.62937062978745 -0.17515328526497 0.75710892677307
vn 0.35098543763161 -0.79825669527054 0.48948493599892
vn 0.17102135717869 -0.94113808870316 0.29156610369682
vn -0.65826731920242 -0.02052312344313 -0.75250446796417
vn -0.44283166527748 0.80738967657089 -0.38989996910095
vn -0.27016967535019 0.93917346000671 -0.2120413184166
vn -0.65917438268662 -0.01585871167481 -0.75182288885117
vn 0.64535838365555 0.00481220753863 0.76386475563049
vn -0.42663154006004 -0.79824167490006 -0.42520079016685
vn -0.26023358106613 -0.9411364197731 -0.21573293209076
vn 0.85983729362488 0.20290921628475 0.46851652860641
vn -0.64771384000778 0 -0.76188367605209
vn -0.61510771512985 -0.38816222548485 -0.68627440929413
vn -0.64828711748123 0.00114912283607 -0.76139509677887
vn -0.65004819631577 0.00481220753863 -0.75987774133682
vn -0.64711779356003 -0.0012130215764 -0.76238906383514
vn 0.82403510808945 0.3543273806572 0.4420613348484
vn 0.56548529863358 0.72387087345123 0.39526867866516
vn 0.74071955680847 0.50611078739166 0.44179907441139
vn 0.33221119642258 0.91775584220886 0.21762327849865
vn 0.38118252158165 0.86060470342636 0.33772686123848
vn 0.08137782663107 0.97504758834839 0.20654268562794
vn -0.6459533572197 -0.17515328526497 -0.74301117658615
vn 0.68744838237762 -0.67544734477997 0.26680621504784
vn 0.60247939825058 0.53338253498077 0.59373527765274
vn 0.44468724727631 0.62551122903824 0.64108419418335
vn 0.27103704214096 0.69537258148193 0.66557937860489
vn -0.42348340153694 0.75877857208252 0.49489077925682
vn 0.92070406675339 -0.38999071717262 0.01453308947384
vn 0.96561962366104 -0.1068682000041 0.23697656393051
vn 0.96069872379303 -0.23402111232281 0.14930541813374
vn 0.94047927856445 0.04109703376889 0.33735704421997
vn 0.90780544281006 0.14930064976215 0.39191663265228
vn -0.83971309661865 -0.0750430971384 -0.5378201007843
vn -0.74502688646317 -0.0350598283112 -0.66611242294312
vn -0.96710842847824 -0.15630373358727 -0.20067490637302
vn -0.98120898008347 -0.1929349899292 0.00224459846504
vn 0.89292514324188 0.43712782859802 0.10772150009871
vn 0.63393503427505 0.48869207501411 0.59942173957825
vn 0.80765730142593 0.4564157128334 0.37332883477211
vn 0.83224809169769 0.37395322322845 0.40929469466209
vn 0.78057563304901 0.41127476096153 0.47069600224495
vn -0.64920568466187 0.00076778419316 -0.76061248779297
vn -0.64404994249344 -0.00189587299246 -0.76498109102249
vn 0.87740987539291 0.3336900472641 0.34467789530754
vn 0.90396159887314 -0.06399568170309 -0.42279785871506
vn 0.42153197526932 0.4562928378582 0.78365021944046
vn 0.14710615575314 0.43284499645233 0.88938462734222
vn -0.63729250431061 -0.00538700493053 -0.77060317993164
vn -0.75525778532028 -0.2493357360363 0.60614961385727
vn -0.8680722117424 -0.24262893199921 0.4331071972847
vn -0.47596800327301 -0.23474970459938 0.84755355119705
vn -0.19083048403263 -0.20088842511177 0.96084731817245
vn -0.18239007890224 -0.2051172554493 0.96159285306931
vn -0.1973562091589 -0.19761651754379 0.96020740270615
vn -0.19542859494686 -0.19855353236198 0.96040832996368
vn 0.49581587314606 0.64147812128067 -0.58538228273392
vn 0.20861411094666 0.72010082006454 -0.66176652908325
vn 0.72687560319901 0.54270374774933 -0.42086166143417
vn 0.50804179906845 0.5861868262291 -0.63109308481216
vn 0.5848081111908 0.53067553043365 -0.61350059509277
vn 0.65616661310196 0.47022023797035 -0.59020191431046
vn 0.98710978031158 -0.09262058138847 -0.13052073121071
vn -0.09335016459227 0.71234142780304 -0.69559717178345
vn -0.19546376168728 -0.19857737421989 0.96039623022079
vn -0.32886230945587 -0.21779762208462 0.91891992092133
vn -0.39750176668167 0.67173701524734 -0.62510937452316
vn 0.09425932168961 0.83478152751923 -0.54245275259018
vn -0.14785349369049 0.90862846374512 -0.39055559039116
vn 0.27145859599113 0.74263900518417 -0.6122071146965
vn -0.35580393671989 0.90498465299606 -0.23325164616108
vn -0.5822086930275 0.81298226118088 0.00963909365237
vn 0.79202473163605 -0.29645892977715 -0.5336748957634
vn 0.5277247428894 0.45409986376762 -0.71784394979477
vn -0.18393607437611 0.94675898551941 -0.26422521471977
vn -0.19416931271553 -0.19920244812965 0.96052938699722
vn -0.1955187022686 -0.19853553175926 0.96039372682571
vn -0.1967071890831 -0.19795086979866 0.96027171611786
vn 0.0058555030264 -0.52300983667374 0.85230654478073
vn -0.10845384001732 -0.34905904531479 0.93080371618271
vn 0.26495510339737 -0.8184859752655 0.50978380441666
vn 0.38567700982094 -0.89059281349182 0.24103456735611
vn -0.20054054260254 -0.19602806866169 0.95987313985825
vn -0.61929070949554 0.53215932846069 0.57730877399445
vn -0.60519641637802 0.40895131230354 0.68300521373749
vn -0.59625595808029 0.70523411035538 0.38356700539589
vn -0.5695321559906 0.23272755742073 0.78833431005478
vn -0.53191411495209 0.13971516489983 0.83519279956818
vn 0.55448043346405 -0.82617747783661 0.09991113096476
vn -0.17231790721416 -0.42332556843758 0.88943916559219
vn -0.11675657331944 -0.47600072622299 0.87166005373001
vn -0.2268286049366 -0.36804795265198 0.90171474218369
vn 0.49965235590935 -0.58011782169342 -0.64328128099442
vn 0.51581847667694 -0.75837868452072 -0.39848852157593
vn 0.36601716279984 -0.1571237295866 -0.91724783182144
vn 0.19546376168728 0.19857737421989 -0.96039623022079
vn 0.19424819946289 0.19916439056396 -0.96052128076553
vn 0.19043281674385 0.2010849416256 -0.96088510751724
vn 0.19676208496094 0.19790899753571 -0.96026909351349
vn 0.19548772275448 0.19858114421368 -0.96039056777954
vn 0.27638611197472 0.04196991026402 -0.96012979745865
vn -0.33107328414917 -0.29318603873253 0.89690154790878
vn -0.39450290799141 -0.2622267305851 0.88068419694901
vn -0.29150426387787 -0.31600284576416 0.9028662443161
vn -0.44410318136215 -0.23386044800282 0.86491715908051
vn -0.51499372720718 -0.19626168906689 0.83442360162735
vn 0.93744033575058 -0.32291716337204 0.13011598587036
vn -0.78352570533752 -0.05790847539902 0.61865502595901
vn -0.62409836053848 -0.14817644655704 0.76716685295105
vn -0.89937907457352 0.03556085005403 0.4357208609581
vn 0.19640448689461 0.19808700680733 -0.96030557155609
vn 0.19549198448658 0.19853822886944 -0.96039861440659
vn 0.194590523839 0.19900934398174 -0.96048414707184
vn 0.4759578704834 0.23477365076542 -0.84755259752274
vn 0.32892072200775 0.21782353520393 -0.9188928604126
vn 0.75519901514053 0.24933636188507 -0.60622262954712
vn 0.86803323030472 0.24260997772217 -0.43319591879845
vn 0.19186240434647 0.20038123428822 -0.96074771881104
# 149 normals

vt 0.49995157122612 0.00212597846985 0
vt 0.5 0 0
vt 0.5 0.00239622592926 0
vt 0.49946200847626 0.00165581703186 0
vt 0.2547627389431 0.75476276874542 0
vt 0.25495859980583 0.75495862960815 0
vt 0.49977412819862 0.00184786319733 0
vt 0.25515449047089 0.75515449047089 0
vt 0.50004839897156 0.00212597846985 0
vt 0.50022584199905 0.00184786319733 0
vt 0.25535038113594 0.75535035133362 0
vt 0.5 1 0
vt 0.74464964866638 0.75535035133362 0
vt 0.50053799152374 0.00165581703186 0
vt 0.74484550952911 0.75515449047089 0
vt 0.74504137039185 0.75495862960815 0
vt 0.74523729085922 0.75476276874542 0
vt 0.72123175859451 0.68088132143021 0
vt 0.7209849357605 0.68092042207718 0
vt 0.72073811292648 0.68095946311951 0
vt 0.72049129009247 0.68099856376648 0
vt 0.2555835545063 0.75463271141052 0
vt 0.25530993938446 0.75467610359192 0
vt 0.25503632426262 0.75471937656403 0
vt 0.72100907564163 0.68099474906921 0
vt 0.19191606342793 0.95058107376099 0
vt 0.72056376934052 0.68122166395187 0
vt 0.72078639268875 0.68110823631287 0
vt 0.19167397916317 0.95066893100739 0
vt 0.19139903783798 0.95069444179535 0
vt 0.19111704826355 0.95064401626587 0
vt 0.74496364593506 0.75471937656403 0
vt 0.74469006061554 0.75467610359192 0
vt 0.27926191687584 0.68095946311951 0
vt 0.27950873970985 0.68099856376648 0
vt 0.27901509404182 0.68092042207718 0
vt 0.27876827120781 0.68088132143021 0
vt 0.74441647529602 0.75463271141052 0
vt 0.27899092435837 0.68099474906921 0
vt 0.27921357750893 0.68110823631287 0
vt 0.80832600593567 0.95066893100739 0
vt 0.80808395147324 0.95058107376099 0
vt 0.27943626046181 0.68122166395187 0
vt 0.80860096216202 0.95069444179535 0
vt 0.80888295173645 0.95064401626587 0
# 45 texture coordinates

o Decagon_web
usemtl Mat
f 7/1/1 15/2/2 17/3/3
f 3/4/4 2/5/4 11/6/5 6/7/5
f 6/7/5 11/6/5 14/8/6 7/1/6
f 8/9/7 15/2/2 4/10/8
f 17/3/3 15/2/2 8/9/7
f 13/11/4 1/12/4 17/3/4
f 1/12/4 16/13/4 17/3/4
f 7/1/6 14/8/6 13/11/9 17/3/9
f 4/10/8 15/2/2 5/14/10
f 6/7/11 15/2/2 7/1/1
f 3/4/12 15/2/2 6/7/11
f 17/3/13 16/13/13 12/15/14 8/9/14
f 8/9/14 12/15/14 10/16/15 4/10/15
f 4/10/15 10/16/15 9/17/16 5/14/16
f 26/10/17 15/2/18 21/9/19
f 20/14/4 27/18/4 29/19/4 26/10/4
f 26/10/4 29/19/4 18/20/4 21/9/4
f 21/9/4 18/20/4 25/21/4 23/3/4
f 25/21/4 22/22/4 23/3/4
f 21/9/19 15/2/18 23/3/20
f 23/3/4 22/22/4 28/23/4 24/1/4
f 20/14/21 15/2/18 26/10/17
f 24/1/4 28/23/4 30/24/4 19/7/4
f 19/7/4 30/24/4 2/5/4 3/4/4
f 23/3/20 15/2/18 24/1/22
f 19/7/23 15/2/18 3/4/24
f 24/1/22 15/2/18 19/7/23
f 33/10/25 41/25/25 27/18/4 20/14/4
f 36/1/26 15/2/27 42/3/28
f 42/3/28 15/2/27 35/9/29
f 43/26/4 39/27/4 42/3/4
f 35/9/30 32/28/30 41/25/25 33/10/25
f 36/1/31 38/29/31 43/26/32 42/3/32
f 40/7/33 31/30/33 38/29/31 36/1/31
f 34/4/34 37/31/34 31/30/33 40/7/33
f 35/9/29 15/2/27 33/10/35
f 40/7/36 15/2/27 36/1/26
f 34/4/37 15/2/27 40/7/36
f 33/10/35 15/2/27 20/14/38
f 42/3/39 39/27/39 32/28/30 35/9/30
f 47/7/40 51/30/40 37/31/41 34/4/41
f 46/1/42 15/2/42 47/7/42
f 54/27/43 52/26/43 53/3/43
f 46/1/44 49/29/44 51/30/40 47/7/40
f 45/9/45 56/28/45 54/27/46 53/3/46
f 44/10/47 55/25/47 56/28/45 45/9/45
f 48/14/43 50/18/43 55/25/47 44/10/47
f 48/14/48 15/2/49 44/10/50
f 47/7/51 15/2/51 34/4/51
f 44/10/50 15/2/49 45/9/52
f 45/9/52 15/2/49 53/3/53
f 53/3/54 52/26/54 49/29/44 46/1/44
f 53/3/55 15/2/55 46/1/55
f 65/4/56 15/2/57 64/7/57
f 69/22/43 67/21/43 68/3/43
f 64/7/57 15/2/57 60/1/58
f 60/1/59 15/2/59 68/3/59
f 68/3/60 15/2/61 59/9/62
f 58/10/43 57/19/43 50/18/43 48/14/43
f 59/9/43 66/20/43 57/19/43 58/10/43
f 60/1/43 61/23/43 69/22/43 68/3/43
f 58/10/63 15/2/61 48/14/64
f 64/7/43 62/24/43 61/23/43 60/1/43
f 65/4/43 63/5/43 62/24/43 64/7/43
f 59/9/62 15/2/61 58/10/63
f 68/3/43 67/21/43 66/20/43 59/9/43
f 80/9/65 76/15/65 74/13/66 72/3/66
f 79/10/67 75/16/67 76/15/65 80/9/65
f 77/14/68 70/17/68 75/16/67 79/10/67
f 77/14/69 15/2/70 79/10/71
f 81/7/72 15/2/72 65/4/73
f 81/7/74 78/6/74 63/5/43 65/4/43
f 82/1/75 83/8/75 78/6/74 81/7/74
f 82/1/76 15/2/72 81/7/72
f 72/3/77 15/2/77 82/1/77
f 79/10/71 15/2/70 80/9/78
f 80/9/78 15/2/70 72/3/79
f 74/13/43 71/12/43 72/3/43
f 71/12/43 73/11/43 72/3/43
f 72/3/80 73/11/80 83/8/75 82/1/75
f 94/10/81 84/32/81 70/17/82 77/14/82
f 92/9/83 96/33/83 84/32/81 94/10/81
f 91/1/84 93/34/84 88/35/85 89/3/85
f 87/7/86 95/36/86 93/34/84 91/1/84
f 86/4/87 85/37/87 95/36/86 87/7/86
f 94/10/88 15/2/89 77/14/90
f 86/4/91 15/2/92 87/7/92
f 87/7/92 15/2/92 91/1/93
f 91/1/94 15/2/94 89/3/94
f 92/9/95 15/2/89 94/10/88
f 88/35/96 90/38/96 89/3/96
f 89/3/97 90/38/97 96/33/83 92/9/83
f 89/3/98 15/2/89 92/9/95
f 108/7/99 15/2/100 86/4/101
f 107/1/102 15/2/100 108/7/99
f 105/3/103 15/2/100 107/1/102
f 103/9/104 15/2/104 105/3/104
f 102/10/105 15/2/105 103/9/105
f 101/14/106 15/2/106 102/10/106
f 108/7/107 100/39/107 85/37/108 86/4/108
f 107/1/109 109/40/109 100/39/107 108/7/107
f 103/9/110 97/41/110 104/42/111 105/3/111
f 104/42/96 106/43/96 105/3/96
f 102/10/112 98/44/112 97/41/110 103/9/110
f 101/14/113 99/45/113 98/44/112 102/10/112
f 105/3/114 106/43/114 109/40/109 107/1/109
f 118/10/115 15/2/116 101/14/117
f 117/9/118 15/2/116 118/10/115
f 120/3/119 15/2/116 117/9/118
f 116/1/120 15/2/120 120/3/120
f 115/7/121 15/2/121 116/1/122
f 114/4/123 15/2/121 115/7/121
f 118/10/124 113/44/124 99/45/125 101/14/125
f 117/9/126 122/41/126 113/44/124 118/10/124
f 119/43/127 121/42/127 120/3/127
f 116/1/128 110/40/128 119/43/129 120/3/129
f 115/7/130 111/39/130 110/40/128 116/1/128
f 114/4/131 112/37/131 111/39/130 115/7/130
f 120/3/132 121/42/132 122/41/126 117/9/126
f 129/7/133 15/2/134 114/4/135
f 128/1/136 15/2/134 129/7/133
f 133/3/137 15/2/134 128/1/136
f 127/9/138 15/2/138 133/3/138
f 126/10/139 15/2/139 127/9/140
f 5/14/141 15/2/139 126/10/139
f 129/7/142 125/36/142 112/37/143 114/4/143
f 132/38/127 131/35/127 133/3/127
f 128/1/144 130/34/144 125/36/142 129/7/142
f 127/9/145 123/33/145 132/38/146 133/3/146
f 126/10/147 124/32/147 123/33/145 127/9/145
f 5/14/148 9/17/148 124/32/147 126/10/147
f 133/3/149 131/35/149 130/34/144 128/1/144

