# WaveFront *.obj file (generated by CINEMA 4D)

mtllib ./DecagonShape_72.mtl

v 0.00000015511422 0.00344759179279 -0.00003996976739
v 0.00176023005042 0.00173158524558 -0.00001648746002
v 0.00001487930058 -0.00352745503187 -0.00002326079812
v -0.00000118071068 -0.00352254090831 -0.00003892752284
v -0.00000186982413 -0.00352339074016 -0.00003664426549
v 0.00001076571334 -0.00352549902163 -0.00003469615331
v 0.00000395305642 -0.00352178676985 -0.0000393195478
v 0.00000086003092 -0.0035210151691 -0.00003978599489
v -0.00174722040538 0.00173564977013 -0.00004341760359
v -0.00174706277903 0.0017366213724 -0.00004508367056
v 0.00175839918666 0.0017331012059 -0.00002482047785
v -0.00174616486765 0.0017378287157 -0.00004630027979
v 0.00174515158869 0.00173917296343 -0.00003319780444
v 0.00175285304431 0.00173579668626 -0.00003093699343
v 0.00000645249293 -0.00353683670983 -0.00003195993122
v -0.00174484145828 0.00173917296343 -0.00004674173033
v 0.00000015511422 -0.00351880048402 -0.00003996976739
v -0.00157754588872 0.00121869845316 -0.0000114490831
v 0.00001067708217 -0.00352549902163 -0.00001185771634
v -0.00000842052123 -0.00352542521432 0.00000330068042
v 0.00000057745109 -0.00352104799822 -0.00000671538646
v 0.00174335914198 0.00173416128382 0.00000009889157
v 0.00000002587174 -0.00351880048402 -0.00000666661663
v 0.00000383035467 -0.00352178746834 -0.00000727689212
v -0.00157265784219 0.00121996470261 -0.00001276987041
v -0.00000597288044 -0.0035240217112 -0.00000354761346
v -0.00158254848793 0.00121769192629 -0.00000280817812
v 0.00175163231324 0.00173245556653 -0.00000209992299
v -0.00158115767408 0.00121784105431 -0.0000078028188
v 0.00175778032281 0.00173143087886 -0.00000817105411
v 0.00220062956214 0.00310343201272 0.00002042779488
v -0.00157795776613 0.00121973711066 0.00000586995611
v -0.0000060261068 -0.0035240217112 0.00001016776514
v 0.00000197319537 -0.00352339074016 0.00001000773318
v -0.00000211831912 -0.00352123565972 0.00001293953756
v -0.00000023228634 -0.00352084822953 0.00001317400256
v 0.00220128521323 0.00310351350345 0.00001854279799
v 0.00219908426516 0.00310312001966 0.00002156297705
v -0.00157325249165 0.00122152245604 0.00000722797358
v 0.00000128408192 -0.00352254090831 0.00001229098962
v -0.00158136885148 0.00121836061589 0.00000219643789
v -0.00000005174347 -0.00351880048402 0.00001333323326
v 0.0021973985713 0.00310249323957 0.00002186107486
v -0.00000135356754 -0.00352254090831 0.00000561403613
v -0.00000036274656 -0.00352068524808 0.00000655025815
v 0.0000002984402 -0.00352068734355 0.00000678129481
v 0.00000130182411 -0.00352254090831 0.00000771919713
v -0.00000202493902 -0.00352339074016 0.0000033255003
v 0.00219910778105 0.00310312001966 0.00001550562774
v -0.00157615286298 0.00121972663328 -0.00000278335801
v 0.00220064423047 0.00310343201272 0.00001665276977
v 0.0021974244155 0.00310249323957 0.00001519445777
v -0.00000002587173 -0.00351880048402 0.00000666661663
v -0.00157322664745 0.00122152245604 0.00000056135684
v -0.00157581712119 0.00122012256179 -0.00000111537577
v -0.00157473760191 0.00122075423133 0.00000010890748
v -0.00157563190442 0.00121960300021 -0.00000444801526
v -0.00000133582535 -0.00352254090831 0.00000104224364
v 0.00000117711295 -0.00352117209695 -0.00000006906713
v 0.00000554127109 -0.00352233974263 -0.00000085377627
v 0.00175480777398 0.00173143832944 0.00000368594624
v 0.00176330609247 0.00172966893297 -0.00000481625239
v 0.00176662555896 0.00172955100425 -0.00001646264172
v 0.00001531413727 -0.00352697982453 -0.00000726785993
v 0.00002127488369 -0.00352948950604 -0.00002323597982
v -0.0015743705444 0.00121971569024 -0.00000566321432
v -0.00157268368639 0.00121996470261 -0.00000610325333
v 0.00000000000001 -0.00351880048402 0
v 0.00174333329778 0.00173416128382 0.00000676550826
v -0.00175361603033 0.00173361506313 -0.00004344242188
v 0.00000018098595 0.00344759179279 -0.00004663638174
v 0.00000018098595 -0.00351880048402 -0.00004663638174
v 0.00174517754931 0.00173917296343 -0.0000398644188
v -0.00174481549766 0.00173917296343 -0.00005340834468
v -0.00175258866511 0.00173485942651 -0.00004843847273
v -0.00174934009556 0.00173681159504 -0.00005208615039
v -0.000008265406 -0.00352542521432 -0.00003666908742
v 0.00176395103335 0.00173133960925 -0.00002813229185
v -0.00000581776567 -0.0035240217112 -0.00004351737516
v -0.00000189060802 -0.00352123659104 -0.00004626905866
v 0.00001543825238 -0.00352697982453 -0.0000392498805
v 0.00000280912536 -0.00352173740976 -0.00004634536162
v 0.00175607320853 0.0017347795656 -0.00003669804209
v -0.00175207294524 0.00173318898305 -0.0000384363957
v 0.0015762160765 0.00121973105706 -0.0000172015807
v 0.00000208813867 -0.00352338608354 -0.00002331043834
v 0.00000142063539 -0.00352253764868 -0.0000255886971
v 0.0015727870632 0.00121996470261 -0.00002053327989
v 0.00000010337077 -0.00351880048402 -0.00002663653322
v -0.00174322992098 0.00173416128382 -0.00003340204421
v -0.00000005823935 -0.00352084962651 -0.00002663288433
v -0.00000196530982 -0.00352123659104 -0.00002701992162
v 0.001574463211 0.00121971790213 -0.00002008219417
v -0.00000587099248 -0.0035240217112 -0.00002980200225
v 0.00157570990268 0.00121960719116 -0.00001886274003
v -0.00174829852767 0.00173347082455 -0.00003476146958
v -0.00219905842096 0.00310312001966 -0.00002822959323
v -0.00220060371794 0.00310343201272 -0.00002709440923
v -0.00220125936903 0.00310351350345 -0.00002520941416
v 0.00157586939167 0.00122012628708 -0.0000155437283
v -0.00000194732365 -0.00352339074016 -0.00001667434844
v -0.0000012582102 -0.00352254090831 -0.00001895760397
v -0.00000024875723 -0.00352068711072 -0.00001988764416
v -0.0021973727271 0.00310249323957 -0.00002852768921
v 0.00000007761519 -0.00351880048402 -0.00001999984852
v 0.00157327833585 0.00122152245604 -0.00001389458794
v 0.00000041148317 -0.00352068385109 -0.00002011304059
v 0.00000140297288 -0.00352253764868 -0.000021037431
v 0.00157478556503 0.00122075655963 -0.00001433331818
v 0.00157796102576 0.00121973943897 -0.0000085474494
v 0.00158139516134 0.00121836434118 -0.00001218892612
v 0.00158261170145 0.00121769635007 -0.00001717676059
v -0.00220061838627 0.00310343201272 -0.00002331938413
v 0.0000084837211 -0.00352542055771 -0.00002328561823
v 0.00000604002798 -0.00352401821874 -0.0000164475714
v 0.00000211741281 -0.00352123449557 -0.00001371032886
v 0.00000023233656 -0.0035208479967 -0.00001349100967
v -0.0000012759524 -0.00352254090831 -0.00001438581148
v 0.00157325249165 0.00122152245604 -0.00000722797222
v 0.00000005174346 -0.00351880048402 -0.00001333323235
v -0.0021973985713 0.00310249323957 -0.00002186107304
v -0.00219908170402 0.00310312001966 -0.0000221722421
v -0.00174507836346 0.00173448794521 -0.00004052251825
v -0.00174652133137 0.00173495092895 -0.00004174821152
v 0.00158126151655 0.00121784524526 -0.00002217455403
v -0.00000119845288 -0.00352254090831 -0.00003435572944
v 0.00000032930421 -0.00352085428312 -0.00003339328759
v 0.00000219748404 -0.00352123612538 -0.00003293027112
v 0.00000609317476 -0.00352401821874 -0.00003014242247
v 0.00157768337522 0.00121870078146 -0.00002584324284
v 0.0015728129074 0.00121996470261 -0.00002719989607
v -0.00174320407677 0.00173416128382 -0.00004006865856
v 0.00000012924249 -0.00351880048402 -0.00003330314939
# 133 vertices

vn 0.09313128888607 -0.41647166013718 -0.90436601638794
vn 0.3921402990818 -0.454734146595 -0.79965168237686
vn -0.2165635228157 -0.44810652732849 -0.86735272407532
vn -0.90639853477478 0.28802114725113 0.3090073466301
vn -0.78336918354034 0.2485234439373 0.56970942020416
vn -0.40533748269081 0.12777198851109 0.90519380569458
vn -0.03669110685587 -0.44424226880074 -0.89515507221222
vn 0.95519942045212 0.28490194678307 -0.08015596866608
vn -0.00388075970113 0 0.99999248981476
vn -0.19506046175957 0.06078130751848 0.97890603542328
vn -0.70763748884201 -0.56427156925201 -0.42526084184647
vn 0.65560907125473 -0.39111590385437 -0.64591413736343
vn 0.84281659126282 -0.39370769262314 -0.36695283651352
vn 0.70814687013626 0.22624592483044 0.66883540153503
vn 0.61498516798019 0.1966867595911 0.76361483335495
vn 0.75098758935928 0.23969031870365 0.61527734994888
vn 0.9039945602417 0.28795671463013 0.31602972745895
vn 0.56196165084839 -0.63188773393631 0.53377622365952
vn -0.90398973226547 -0.28799578547478 -0.316007822752
vn -0.76200324296951 -0.24316439032555 -0.60018509626389
vn -0.27945381402969 -0.09009467810392 -0.95592284202576
vn 0.00816781632602 0.00135792803485 -0.99996572732925
vn 0.00388075970113 0 -0.99999248981476
vn 0.97092616558075 0.22676222026348 0.07668919116259
vn -0.18641725182533 0.06041145697236 -0.98061156272888
vn -0.39804714918137 0.12767948210239 -0.90843623876572
vn 0.9305265545845 0.10863118618727 0.3497422337532
vn -0.77907931804657 0.24861487746239 -0.57552242279053
vn -0.90396577119827 0.2880802154541 -0.31599941849709
vn -0.53873670101166 -0.73851704597473 0.40540763735771
vn -0.34195950627327 -0.81247568130493 0.47217255830765
vn 0.54471755027771 -0.76979607343674 0.33271133899689
vn -0.12756472826004 -0.84695082902908 0.51614099740982
vn -0.78328323364258 -0.24849517643452 0.56983989477158
vn -0.90640723705292 -0.28802394866943 0.30897924304008
vn 0.97939574718475 -0.09620670974255 0.17756190896034
vn -0.69781863689423 0.6232476234436 -0.35300368070602
vn -0.32933387160301 0.87578850984573 -0.35289332270622
vn -0.54355251789093 0.75325655937195 -0.37034472823143
vn -0.40552645921707 -0.1278337687254 0.90510046482086
vn 0.38438817858696 -0.12340458482504 0.91488635540009
vn 0.2523555457592 -0.08146727830172 0.96419900655746
vn 0.74438124895096 -0.23755533993244 0.62407052516937
vn 0.89796078205109 -0.28605112433434 0.33442670106888
vn -0.11025331169367 0.93924170732498 -0.3250680565834
vn 0.50378984212875 0.83562558889389 -0.21891923248768
vn 0.71279567480087 0.68613266944885 -0.14541068673134
vn 0.25651323795319 0.92592620849609 -0.27723926305771
vn 0.15419302880764 0.95510238409042 -0.25299006700516
vn -0.19581519067287 -0.06099696829915 0.97874194383621
vn 0.76676124334335 -0.24316363036633 -0.59409481287003
vn 0.90052938461304 -0.28605112433434 -0.32744711637497
vn -0.9513948559761 -0.30749669671059 -0.01713422127068
vn -0.92957246303558 -0.36846789717674 0.01124487817287
vn -0.8846994638443 -0.46254628896713 0.05794594436884
vn 0.37444734573364 -0.11796002089977 -0.91971439123154
vn 0.40385934710503 0.12734009325504 -0.90591508150101
vn 0.18863904476166 0.0587765276432 -0.98028600215912
vn 0.78430223464966 0.24879901111126 -0.56830370426178
vn 0.90642017126083 0.28795671463013 -0.30900391936302
vn -0.01768284477293 -0.93269896507263 0.36022210121155
vn -0.87261384725571 -0.48374766111374 0.06732964515686
vn 0.7404727935791 -0.56101977825165 0.37007686495781
vn 0.87043076753616 -0.3788577914238 0.31435179710388
vn 0.95369344949722 -0.17797134816647 0.24247688055038
vn 0.16669949889183 -0.05180655419827 -0.98464578390121
vn -0.98257130384445 -0.16673155128956 -0.08218419551849
vn -0.31458058953285 0.91222977638245 -0.26244226098061
vn 0.11383513361216 0.92108672857285 -0.37234506011009
vn -0.07969661802053 0.9320701956749 -0.35340288281441
vn 0.32235866785049 0.85769999027252 -0.40054419636726
vn 0.47484761476517 0.79931974411011 -0.36824947595596
vn -0.90001487731934 -0.43015903234482 0.07025993615389
vn 0.75609117746353 0.24130640923977 0.60835629701614
vn 0.90399545431137 0.28798761963844 0.31599897146225
vn 0.52426022291183 0.16785377264023 0.83485108613968
vn 0.39802068471909 -0.1276810914278 0.90844762325287
vn 0.1863868534565 -0.06041181832552 0.98061734437942
vn -0.96345442533493 0.07543973624706 -0.25703006982803
vn 0.77907299995422 -0.24859215319157 0.57554078102112
vn 0.90397375822067 -0.28805205225945 0.31600221991539
vn -0.58505541086197 0.68210327625275 -0.43868589401245
vn 0.92901343107224 0.29559487104416 -0.22261568903923
vn -0.39801913499832 -0.12771141529083 -0.90844404697418
vn -0.18638651072979 -0.06044256314635 -0.98061549663544
vn -0.779077231884 -0.24855281412601 -0.57555204629898
vn -0.90399545431137 -0.28798761963844 -0.31599897146225
vn 0.51917654275894 0.78125250339508 0.34655478596687
vn 0.04140923544765 0.71870684623718 0.69407904148102
vn 0.28834760189056 0.76782190799713 0.57210594415665
vn -0.37868613004684 0.73585438728333 0.56135112047195
vn -0.58141368627548 0.7446112036705 0.32789066433907
vn 0.77443075180054 -0.24578362703323 -0.58296430110931
vn 0.90637755393982 -0.28811648488045 -0.30897998809814
vn 0.37868413329124 -0.1192834675312 -0.91780704259872
vn -0.13939946889877 0.65653592348099 0.74130183458328
vn 0.641248524189 0.59660798311234 0.48255488276482
vn -0.21058866381645 0.58957785367966 0.77977585792542
vn -0.43378040194511 0.46695703268051 0.77057492733002
vn 0.16824436187744 -0.05208477005363 -0.98436832427979
vn -0.78352874517441 -0.24858605861664 0.56946259737015
vn -0.40508437156677 -0.12770980596542 0.90531587600708
vn -0.36581507325172 0.11522022634745 0.92352783679962
vn -0.13319858908653 0.04113406687975 0.99023538827896
vn -0.77662920951843 0.2463310956955 0.57980006933212
vn -0.90642017126083 0.28795671463013 0.30900391936302
vn 0.50730037689209 0.57328522205353 -0.64342087507248
vn 0.31488198041916 0.49238723516464 -0.81142103672028
vn 0.65457397699356 0.66302490234375 -0.36322286725044
vn 0.92217719554901 0.36574187874794 -0.12578603625298
vn 0.874640583992 0.40847918391228 -0.26105287671089
vn 0.80731719732285 0.44216686487198 -0.39080348610878
vn 0.57362806797028 -0.04191424325109 0.8180428147316
vn 0.09896137565374 0.34004521369934 -0.93518763780594
vn -0.19402225315571 -0.0604421980679 0.97913336753845
vn -0.11258482933044 0.23960134387016 -0.96432143449783
vn 0.96156764030457 0.15842486917973 0.22425264120102
vn -0.68041878938675 -0.57180058956146 0.45833867788315
vn -0.95091539621353 -0.1455484777689 -0.2730852663517
vn 0.80071926116943 -0.11071682721376 0.58871930837631
vn 0.85695642232895 -0.0155780389905 0.51515334844589
vn 0.80893933773041 -0.10051446408033 0.57923567295074
vn 0.8769770860672 0.02786672115326 0.4797235429287
vn 0.92364394664764 0.1751736998558 0.34087538719177
vn -0.77988171577454 0.2488034516573 -0.57435297966003
vn -0.90399545431137 0.28798761963844 -0.31599897146225
vn -0.39681595563889 0.12734007835388 -0.90902233123779
vn -0.36732497811317 -0.11795864254236 -0.92258232831955
vn -0.15899103879929 -0.05177631229162 -0.9859214425087
vn -0.76215445995331 -0.24316231906414 -0.59999388456345
vn -0.89796078205109 -0.28605112433434 -0.33442670106888
vn -0.18102492392063 0.0587765276432 -0.98172056674957
vn 0.48085695505142 0.76432371139526 -0.42963460087776
vn -0.34103962779045 0.6441513299942 -0.68466126918793
vn -0.96255266666412 -0.06150718033314 -0.26402500271797
vn 0.42191278934479 0.72833603620529 -0.53992241621017
vn 0.688392162323 0.61749905347824 -0.38054057955742
vn 0.10742121934891 0.75993943214416 -0.64105594158173
vn -0.82459384202957 0.42078757286072 -0.37813061475754
vn -0.7492396235466 -0.2375879585743 0.61821675300598
vn -0.90052938461304 -0.28605112433434 0.32744711637497
vn -0.39135009050369 -0.12337321788073 0.91193431615829
vn 0.39845150709152 -0.1278317719698 0.90823751688004
vn 0.18818210065365 -0.06102807447314 0.98023623228073
vn 0.77882289886475 -0.24849075078964 0.57592296600342
vn 0.90398973226547 -0.28799578547478 0.316007822752
vn -0.2594581246376 -0.08134523779154 0.96232241392136
vn -0.82656115293503 -0.09883765131235 0.55410087108612
vn -0.5655477643013 -0.07331821322441 0.82145005464554
vn -0.94812041521072 -0.0684165135026 0.31046232581139
vn -0.41682779788971 -0.05393103510141 0.90738415718079
vn -0.29668799042702 -0.03037690371275 0.9544911980629
vn -0.44430574774742 -0.08516710996628 0.89181780815125
vn -0.46024972200394 -0.09178350865841 0.88303226232529
vn -0.84527856111526 -0.3707170188427 0.38480257987976
vn 0.78378790616989 -0.24868130683899 -0.56906419992447
vn 0.90640723705292 -0.28802394866943 -0.30897924304008
vn 0.40470626950264 -0.127586171031 -0.90550237894058
vn 0.39783856272697 0.12543307244778 -0.90884047746658
vn 0.22206248342991 0.06941621005535 -0.97255831956863
vn 0.7706937789917 0.24444416165352 -0.58845400810242
vn 0.90643751621246 0.28796228766441 -0.30894777178764
vn 0.19225929677486 -0.05985609814525 -0.97951704263687
# 163 normals

vt 0.49995157122612 0.00212597846985 0
vt 0.5 0 0
vt 0.5 0.00239622592926 0
vt 0.49946200847626 0.00165581703186 0
vt 0.2547627389431 0.75476276874542 0
vt 0.25495859980583 0.75495862960815 0
vt 0.49977412819862 0.00184786319733 0
vt 0.25515449047089 0.75515449047089 0
vt 0.50004839897156 0.00212597846985 0
vt 0.50022584199905 0.00184786319733 0
vt 0.25535038113594 0.75535035133362 0
vt 0.5 1 0
vt 0.74464964866638 0.75535035133362 0
vt 0.50053799152374 0.00165581703186 0
vt 0.74484550952911 0.75515449047089 0
vt 0.74504137039185 0.75495862960815 0
vt 0.74523729085922 0.75476276874542 0
vt 0.72123175859451 0.68088132143021 0
vt 0.7209849357605 0.68092042207718 0
vt 0.72073811292648 0.68095946311951 0
vt 0.72049129009247 0.68099856376648 0
vt 0.2555835545063 0.75463271141052 0
vt 0.25530993938446 0.75467610359192 0
vt 0.25503632426262 0.75471937656403 0
vt 0.72100907564163 0.68099474906921 0
vt 0.19191606342793 0.95058107376099 0
vt 0.72056376934052 0.68122166395187 0
vt 0.72078639268875 0.68110823631287 0
vt 0.19167397916317 0.95066893100739 0
vt 0.19139903783798 0.95069444179535 0
vt 0.19111704826355 0.95064401626587 0
vt 0.74496364593506 0.75471937656403 0
vt 0.74469006061554 0.75467610359192 0
vt 0.27926191687584 0.68095946311951 0
vt 0.27950873970985 0.68099856376648 0
vt 0.27901509404182 0.68092042207718 0
vt 0.27876827120781 0.68088132143021 0
vt 0.74441647529602 0.75463271141052 0
vt 0.27899092435837 0.68099474906921 0
vt 0.27921357750893 0.68110823631287 0
vt 0.80832600593567 0.95066893100739 0
vt 0.80808395147324 0.95058107376099 0
vt 0.27943626046181 0.68122166395187 0
vt 0.80860096216202 0.95069444179535 0
vt 0.80888295173645 0.95064401626587 0
# 45 texture coordinates

o Decagon_web
usemtl Mat
f 7/1/1 15/2/2 17/3/3
f 3/4/4 2/5/4 11/6/5 6/7/5
f 6/7/5 11/6/5 14/8/6 7/1/6
f 8/9/7 15/2/7 4/10/7
f 17/3/8 15/2/8 8/9/8
f 13/11/9 1/12/9 17/3/9
f 1/12/9 16/13/9 17/3/9
f 7/1/6 14/8/6 13/11/10 17/3/10
f 4/10/11 15/2/11 5/14/11
f 6/7/12 15/2/2 7/1/1
f 3/4/13 15/2/2 6/7/12
f 17/3/14 16/13/14 12/15/15 8/9/15
f 8/9/15 12/15/15 10/16/16 4/10/16
f 4/10/16 10/16/16 9/17/17 5/14/17
f 26/10/18 15/2/18 21/9/18
f 20/14/19 27/18/19 29/19/20 26/10/20
f 26/10/20 29/19/20 18/20/21 21/9/21
f 21/9/21 18/20/21 25/21/22 23/3/22
f 25/21/23 22/22/23 23/3/23
f 21/9/24 15/2/24 23/3/24
f 23/3/25 22/22/25 28/23/26 24/1/26
f 20/14/27 15/2/27 26/10/27
f 24/1/26 28/23/26 30/24/28 19/7/28
f 19/7/28 30/24/28 2/5/29 3/4/29
f 23/3/30 15/2/31 24/1/31
f 19/7/32 15/2/32 3/4/32
f 24/1/31 15/2/31 19/7/33
f 33/10/34 41/25/34 27/18/35 20/14/35
f 36/1/36 15/2/36 42/3/36
f 42/3/37 15/2/38 35/9/39
f 43/26/9 39/27/9 42/3/9
f 35/9/40 32/28/40 41/25/34 33/10/34
f 36/1/41 38/29/41 43/26/42 42/3/42
f 40/7/43 31/30/43 38/29/41 36/1/41
f 34/4/44 37/31/44 31/30/43 40/7/43
f 35/9/39 15/2/38 33/10/45
f 40/7/46 15/2/46 36/1/47
f 34/4/48 15/2/46 40/7/46
f 33/10/45 15/2/38 20/14/49
f 42/3/50 39/27/50 32/28/40 35/9/40
f 47/7/51 51/30/51 37/31/52 34/4/52
f 46/1/53 15/2/54 47/7/55
f 54/27/23 52/26/23 53/3/23
f 46/1/56 49/29/56 51/30/51 47/7/51
f 45/9/57 56/28/57 54/27/58 53/3/58
f 44/10/59 55/25/59 56/28/57 45/9/57
f 48/14/60 50/18/60 55/25/59 44/10/59
f 48/14/61 15/2/61 44/10/61
f 47/7/55 15/2/54 34/4/62
f 44/10/63 15/2/64 45/9/64
f 45/9/64 15/2/64 53/3/65
f 53/3/66 52/26/66 49/29/56 46/1/56
f 53/3/67 15/2/54 46/1/53
f 65/4/68 15/2/69 64/7/70
f 69/22/9 67/21/9 68/3/9
f 64/7/70 15/2/69 60/1/71
f 60/1/71 15/2/69 68/3/72
f 68/3/73 15/2/73 59/9/73
f 58/10/74 57/19/74 50/18/75 48/14/75
f 59/9/76 66/20/76 57/19/74 58/10/74
f 60/1/77 61/23/77 69/22/78 68/3/78
f 58/10/79 15/2/79 48/14/79
f 64/7/80 62/24/80 61/23/77 60/1/77
f 65/4/81 63/5/81 62/24/80 64/7/80
f 59/9/82 15/2/82 58/10/82
f 68/3/83 67/21/83 66/20/83 59/9/83
f 80/9/84 76/15/84 74/13/85 72/3/85
f 79/10/86 75/16/86 76/15/84 80/9/84
f 77/14/87 70/17/87 75/16/86 79/10/86
f 77/14/88 15/2/89 79/10/90
f 81/7/91 15/2/91 65/4/92
f 81/7/93 78/6/93 63/5/94 65/4/94
f 82/1/95 83/8/95 78/6/93 81/7/93
f 82/1/96 15/2/91 81/7/91
f 72/3/97 15/2/97 82/1/97
f 79/10/90 15/2/89 80/9/98
f 80/9/98 15/2/89 72/3/99
f 74/13/23 71/12/23 72/3/23
f 71/12/23 73/11/23 72/3/23
f 72/3/100 73/11/100 83/8/95 82/1/95
f 94/10/101 84/32/101 70/17/35 77/14/35
f 92/9/102 96/33/102 84/32/101 94/10/101
f 91/1/103 93/34/103 88/35/104 89/3/104
f 87/7/105 95/36/105 93/34/103 91/1/103
f 86/4/106 85/37/106 95/36/105 87/7/105
f 94/10/107 15/2/108 77/14/109
f 86/4/110 15/2/111 87/7/111
f 87/7/111 15/2/111 91/1/112
f 91/1/113 15/2/113 89/3/113
f 92/9/114 15/2/108 94/10/107
f 88/35/9 90/38/9 89/3/9
f 89/3/115 90/38/115 96/33/102 92/9/102
f 89/3/116 15/2/108 92/9/114
f 108/7/117 15/2/117 86/4/117
f 107/1/118 15/2/118 108/7/118
f 105/3/119 15/2/119 107/1/119
f 103/9/120 15/2/121 105/3/122
f 102/10/123 15/2/121 103/9/120
f 101/14/124 15/2/121 102/10/123
f 108/7/125 100/39/125 85/37/126 86/4/126
f 107/1/127 109/40/127 100/39/125 108/7/125
f 103/9/128 97/41/128 104/42/129 105/3/129
f 104/42/23 106/43/23 105/3/23
f 102/10/130 98/44/130 97/41/128 103/9/128
f 101/14/131 99/45/131 98/44/130 102/10/130
f 105/3/132 106/43/132 109/40/127 107/1/127
f 118/10/133 15/2/133 101/14/133
f 117/9/134 15/2/134 118/10/134
f 120/3/135 15/2/135 117/9/135
f 116/1/136 15/2/136 120/3/137
f 115/7/138 15/2/136 116/1/136
f 114/4/139 15/2/139 115/7/139
f 118/10/140 113/44/140 99/45/141 101/14/141
f 117/9/142 122/41/142 113/44/140 118/10/140
f 119/43/9 121/42/9 120/3/9
f 116/1/143 110/40/143 119/43/144 120/3/144
f 115/7/145 111/39/145 110/40/143 116/1/143
f 114/4/146 112/37/146 111/39/145 115/7/145
f 120/3/147 121/42/147 122/41/142 117/9/142
f 129/7/148 15/2/149 114/4/150
f 128/1/151 15/2/149 129/7/148
f 133/3/152 15/2/149 128/1/151
f 127/9/153 15/2/149 133/3/152
f 126/10/154 15/2/149 127/9/153
f 5/14/155 15/2/155 126/10/155
f 129/7/156 125/36/156 112/37/157 114/4/157
f 132/38/23 131/35/23 133/3/23
f 128/1/158 130/34/158 125/36/156 129/7/156
f 127/9/159 123/33/159 132/38/160 133/3/160
f 126/10/161 124/32/161 123/33/159 127/9/159
f 5/14/162 9/17/162 124/32/161 126/10/161
f 133/3/163 131/35/163 130/34/158 128/1/158

