# WaveFront *.obj file (generated by CINEMA 4D)

mtllib ./DecagonShape_54.mtl

v -0.00061608164106 0.00364680751227 -0.00559243978932
v 0.00080972013529 0.0022063574288 -0.00419342424721
v 0.00002210612911 -0.00332045112737 -0.00462521705776
v 0.00001916229849 -0.00331855611876 -0.00464677112177
v 0.00001720431283 -0.00331942318007 -0.00464541651309
v 0.00002535084423 -0.00331943016499 -0.00463629188016
v 0.00002296017919 -0.00331698125228 -0.00464405212551
v 0.00002103203951 -0.00331673538312 -0.00464634178206
v -0.00173153250944 0.00166440091562 -0.00650439690799
v -0.00173038744833 0.00166533107404 -0.00650565838441
v 0.00081286870409 0.00220739119686 -0.00420087063685
v -0.00172902620398 0.0016666300362 -0.00650613568723
v 0.00080794846872 0.00221103522927 -0.00421547191218
v 0.00081221899018 0.0022090068087 -0.0042088329792
v 0.00002151816989 -0.00333134247921 -0.00463550863788
v -0.00172788754571 0.00166816136334 -0.00650577992201
v 0.00002049443538 -0.00331465154886 -0.00464717717841
v -0.00199536560103 0.00118906225543 -0.00571340834722
v 0.0000126995692 -0.00331900874153 -0.00461860978976
v -0.00000854790414 -0.00332198524848 -0.00461789779365
v 0.00000162298772 -0.00331617845222 -0.00461951922625
v 0.00078764330829 0.00220642006025 -0.00418855249882
v 0.00000093974802 -0.00331400008872 -0.00461984612048
v 0.00000463670222 -0.00331637146883 -0.00461843749508
v -0.00199167709798 0.00119066319894 -0.00571225676686
v -0.00000351427479 -0.00331963668577 -0.00462021259591
v -0.00200299476273 0.00118681520689 -0.00571131147444
v 0.00079550879309 0.00220603612252 -0.00418645143509
v -0.00199930905364 0.00118770776317 -0.00571307586506
v 0.00080346560571 0.00220594089478 -0.00418821489438
v -0.00194188382011 0.00288368831389 -0.00186017074157
v -0.00200777780265 0.00118694105186 -0.00570462131873
v -0.00001254881681 -0.00332198175602 -0.00461340276524
v -0.00000991637171 -0.00332130165771 -0.0046068886295
v -0.0000142843528 -0.00332016847096 -0.00460960669443
v -0.00001415514089 -0.00331996916793 -0.00460807327181
v -0.00194005854428 0.00288443500176 -0.00185986445285
v -0.00194311735686 0.00288301357068 -0.00186149694491
v -0.00200826488435 0.0011880089296 -0.00570060638711
v -0.00001244371924 -0.00332131353207 -0.00460707070306
v -0.00200594426133 0.00118653592654 -0.00570835871622
v -0.00001499291375 -0.00331813562661 -0.00460783718154
v -0.00194350117818 0.00288234790787 -0.00186313816812
v -0.00000713715872 -0.0033189849928 -0.00461091706529
v -0.00000821448702 -0.00331746391021 -0.00460952613503
v -0.00000826253472 -0.00331754866056 -0.00460884114727
v -0.00000825878487 -0.00331965694204 -0.0046078725718
v -0.0000053327085 -0.00331930466928 -0.00461270892993
v -0.0019375726115 0.00288520846516 -0.00186255958397
v -0.00199977960438 0.00118949566968 -0.00570612261072
v -0.00193842826411 0.00288505619392 -0.00186083302833
v -0.00193739880342 0.00288476375863 -0.00186430756003
v -0.0000088904153 -0.00331571977586 -0.00460900645703
v -0.00200216239318 0.00119042466395 -0.00570177612826
v -0.0020010699518 0.00118952384219 -0.00570493005216
v -0.00200189603493 0.00118983618449 -0.00570341059938
v -0.00199818308465 0.00118972267956 -0.00570682156831
v -0.00000338029986 -0.00331800989807 -0.00461374875158
v -0.00000100815714 -0.00331617612392 -0.00461338367313
v 0.00000298244345 -0.00331663968973 -0.00461198482662
v 0.00079535203986 0.00220553879626 -0.00417980505154
v 0.00080639263615 0.00220506079495 -0.00418229028583
v 0.00081506074639 0.00220529572107 -0.00418957788497
v 0.00001430236443 -0.00331973936409 -0.0046121799387
v 0.00002744677477 -0.00332151260227 -0.00462137069553
v -0.00199647946283 0.00119014154188 -0.00570692494512
v -0.00199488201179 0.00119066319894 -0.00570641085505
v -0.00000226509246 -0.00331400008872 -0.00461400067434
v 0.00078443845268 0.00220642006025 -0.00418270658702
v -0.00173599366099 0.00166137306951 -0.00650831777602
v -0.00061158632161 0.00364655070007 -0.0055973562412
v 0.00002498972754 -0.00331490812823 -0.00465209363028
v 0.00081244390458 0.00221077888273 -0.00422038836405
v -0.00172339216806 0.00166790466756 -0.00651069637388
v -0.00173200340942 0.00166258064564 -0.00651151221246
v -0.00172736367676 0.0016648939345 -0.00651235412806
v 0.00001274317583 -0.00332245114259 -0.00464933738112
v 0.00081939989468 0.00220639142208 -0.0041999835521
v 0.00001899817471 -0.00332093588077 -0.00465299654752
v 0.00002345506255 -0.00331764994189 -0.00465284474194
v 0.00003193538578 -0.0033203267958 -0.00463682506233
v 0.00002684079118 -0.00331738963723 -0.00464993761852
v 0.00081844517263 0.00220829737373 -0.00421110773459
v -0.00173819088377 0.00166138249915 -0.00650354707614
v 0.00072177208494 0.00166628882289 -0.00424347724766
v 0.0000114248387 -0.00331832794473 -0.00463290978223
v 0.00001218176203 -0.00331763667054 -0.00463522598147
v 0.00072119943798 0.00166590418667 -0.0042482689023
v 0.00001150385197 -0.00331413862295 -0.00463734427467
v -0.00173521169927 0.00166392512619 -0.00649417610839
v 0.00001157271254 -0.00331621128134 -0.00463717104867
v 0.00001047539081 -0.00331690930761 -0.0046386490576
v 0.0007221721462 0.00166593270842 -0.00424682255834
v 0.00000974990962 -0.0033204080537 -0.0046428819187
v 0.00072237558197 0.00166604900733 -0.00424509495497
v -0.00173793197609 0.00166239403188 -0.00649839965627
v -0.00277853570879 0.00298056495376 -0.00615849345922
v -0.002780450508 0.00298064411618 -0.00615824200213
v -0.00278192595579 0.0029806275852 -0.00615689810365
v 0.00072050892049 0.00166665925644 -0.00424233451486
v 0.00000463976858 -0.00331889791414 -0.0046292222105
v 0.00000620805258 -0.00331794470549 -0.00463096937165
v 0.00000726922326 -0.00331593723968 -0.00463145133108
v -0.00277685723267 0.0029801921919 -0.00615792069584
v 0.00000734942796 -0.00331400008872 -0.00463153794408
v 0.00071727833711 0.00166767975315 -0.00424233451486
v 0.00000794284551 -0.00331583502702 -0.00463133212179
v 0.00000949397781 -0.00331754726358 -0.00463146902621
v 0.00071888387902 0.00166713877115 -0.0042419238016
v 0.00071872700937 0.00166664202698 -0.00423527741805
v 0.00072343583452 0.00166577962227 -0.0042364099063
v 0.00072711275425 0.00166522711515 -0.00423963041976
v -0.00278226519004 0.00298064411618 -0.00615493161604
v 0.00001676548345 -0.00331938941963 -0.00462906342
v 0.00001109677396 -0.00331827788614 -0.00462503964081
v 0.00000629420902 -0.00331610254943 -0.00462489994243
v 0.0000046148798 -0.00331601547077 -0.00462561007589
v 0.00000401025636 -0.00331794470549 -0.00462696049362
v 0.0007140734815 0.00166767975315 -0.00423648860306
v 0.00000414458782 -0.00331400008872 -0.00462569203228
v -0.00278006214648 0.0029801921919 -0.0061520752497
v -0.00278144772165 0.00298056495376 -0.00615318212658
v -0.00173180818092 0.00166368577629 -0.00650069722906
v -0.00173207977787 0.00166387623176 -0.00650260969996
v 0.00072890683077 0.00166504899971 -0.00424420740455
v 0.00001607954437 -0.00331838033162 -0.00464339973405
v 0.00001636506568 -0.00331641337834 -0.00464195013046
v 0.00001741324559 -0.00331647391431 -0.00464042741805
v 0.00001876630449 -0.00331853353418 -0.00463575869799
v 0.00072839827044 0.00166522315703 -0.00424909731373
v 0.00072569475742 0.00166564784013 -0.00425318488851
v -0.00173071643803 0.00166366843041 -0.0064990920946
v 0.00001599914503 -0.00331439496949 -0.00464226072654
# 133 vertices

vn 0.70564699172974 -0.41325429081917 -0.57557207345963
vn 0.85643696784973 -0.40353092551231 -0.32199144363403
vn 0.47361901402473 -0.48493281006813 -0.73520421981812
vn -0.9356734752655 0.15805484354496 -0.3154898583889
vn -0.9881277680397 0.14485910534859 -0.05117915943265
vn -0.9031252861023 0.09597252309322 0.41851407289505
vn 0.60077732801437 -0.46317726373672 -0.65156233310699
vn 0.76506799459457 0.39982515573502 0.50478792190552
vn -0.6742781996727 0.03845551982522 0.73747545480728
vn -0.79641789197922 0.06649126857519 0.60108023881912
vn -0.19999097287655 -0.66811329126358 -0.71667861938477
vn 0.9487652182579 -0.309450507164 -0.06391321867704
vn 0.92735397815704 -0.28221264481544 0.2457043081522
vn -0.11847983300686 0.31036013364792 0.94320684671402
vn -0.16180050373077 0.29462140798569 0.94181674718857
vn 0.11587397754192 0.38258749246597 0.9166242480278
vn 0.42324957251549 0.44326931238174 0.79017221927643
vn 0.36686417460442 -0.34463834762573 0.86408048868179
vn 0.2475229203701 -0.53029036521912 0.8108788728714
vn -0.29597038030624 -0.34679439663887 -0.89001977443695
vn -0.0946898534894 -0.27400332689285 -0.95705592632294
vn 0.29232367873192 -0.10129847377539 -0.95093923807144
vn 0.46138927340508 -0.01102827861905 -0.88712924718857
vn 0.48072603344917 0 -0.87687081098557
vn 0.72958123683929 0.31967508792877 0.60458171367645
vn 0.31402251124382 0.02930605970323 -0.94896310567856
vn 0.10662890225649 0.06228834763169 -0.99234592914581
vn 0.46727651357651 -0.14122638106346 0.87275868654251
vn -0.36467295885086 0.12413742393255 -0.92282366752625
vn -0.59722572565079 0.14681984484196 -0.78852099180222
vn -0.57225704193115 -0.80762559175491 0.14234745502472
vn -0.42955595254898 -0.84564554691315 0.31680482625961
vn 0.36814936995506 -0.64900314807892 0.66577845811844
vn -0.26441580057144 -0.83949106931686 0.47469890117645
vn -0.7648406624794 -0.45010176301002 -0.46089819073677
vn -0.6443305015564 -0.43720558285713 -0.62744683027267
vn 0.63620364665985 0.19441574811935 0.74662399291992
vn -0.38444182276726 0.52631056308746 -0.75842052698135
vn -0.22453986108303 0.7427681684494 -0.63077521324158
vn -0.91538202762604 -0.36234670877457 0.1754439920187
vn -0.89674323797226 -0.42584761977196 -0.12043806910515
vn -0.72644907236099 -0.45423048734665 0.51569992303848
vn -0.82609087228775 -0.42217189073563 0.37328919768333
vn -0.33271539211273 -0.46631118655205 0.81966722011566
vn -0.02620729990304 -0.41145372390747 0.91105377674103
vn -0.04471204429865 0.89333897829056 -0.4471535384655
vn 0.48322892189026 0.82775110006332 0.28516298532486
vn 0.01800492592156 0.94948154687881 -0.31330591440201
vn 0.49017438292503 0.75491672754288 0.43569466471672
vn -0.9172135591507 -0.39666238427162 0.03712441399693
vn 0.78543996810913 -0.0293835978955 0.6182399392128
vn 0.58329063653946 -0.17015857994556 0.79424053430557
vn -0.70968568325043 -0.29820376634598 -0.63829523324966
vn -0.70282447338104 -0.14201147854328 -0.69704407453537
vn -0.69129019975662 -0.05821851268411 -0.72022807598114
vn 0.91538202762604 0.36234670877457 -0.1754439920187
vn 0.95831388235092 0.21451152861118 0.18873065710068
vn 0.8971438407898 0.4255602657795 0.11845398694277
vn 0.91759449243546 0.39495003223419 -0.04510890319943
vn 0.76380878686905 0.45005816221237 0.46264868974686
vn 0.64434069395065 0.43717882037163 0.62745499610901
vn -0.69261962175369 -0.33820778131485 -0.63709777593613
vn -0.62941992282867 0.18245404958725 -0.75534170866013
vn 0.5214296579361 -0.34446436166763 0.78067624568939
vn 0.60727268457413 -0.15708881616592 0.77880871295929
vn 0.66731172800064 0.03699715435505 0.74385905265808
vn 0.95247972011566 0.30408677458763 -0.01770973578095
vn -0.70975977182388 -0.30120196938515 -0.63680332899094
vn -0.22858501970768 0.84162801504135 -0.48929664492607
vn 0.17667600512505 0.91709262132645 -0.35738870501518
vn 0.00545684015378 0.89603191614151 -0.44395607709885
vn -0.48072603344917 0 0.87687081098557
vn 0.36975032091141 0.89048129320145 -0.26519379019737
vn 0.48983219265938 0.85868936777115 -0.15072171390057
vn -0.81025469303131 -0.49387887120247 -0.31554874777794
vn -0.74587213993073 -0.54098892211914 -0.38859459757805
vn 0.08885540813208 0.27172738313675 0.95826351642609
vn 0.2959558069706 0.34675917029381 0.89003831148148
vn -0.12296448647976 0.18222284317017 0.97553807497025
vn -0.10665721446276 -0.06229383125901 0.99234253168106
vn -0.31405130028725 -0.02931098081172 0.9489534497261
vn -0.46377664804459 0.41309678554535 -0.78374886512756
vn -0.57007783651352 0.22505232691765 -0.79016625881195
vn 0.36467149853706 -0.12410747259855 0.92282825708389
vn 0.59720313549042 -0.14681799709797 0.78853845596313
vn -0.33581849932671 0.581822514534 -0.74074858427048
vn -0.86516577005386 -0.44097527861595 -0.23880743980408
vn 0.33181565999985 -0.22523032128811 -0.91606205701828
vn 0.52819412946701 -0.12772071361542 -0.83946311473846
vn -0.15966008603573 -0.39370393753052 -0.90526562929153
vn -0.42322474718094 -0.44330218434334 -0.79016709327698
vn 0.08411302417517 0.86159133911133 0.50058501958847
vn -0.4925177693367 0.73974138498306 0.45848545432091
vn -0.23422296345234 0.82025003433228 0.52185201644897
vn -0.71361494064331 0.68959099054337 0.12336137145758
vn -0.72667807340622 0.66812944412231 -0.1598187237978
vn 0.98893010616302 -0.14390179514885 0.03618717566133
vn 0.93566429615021 -0.15812300145626 0.31548282504082
vn 0.89143043756485 -0.09233818203211 -0.44365009665489
vn -0.64285379648209 0.6553430557251 0.39656582474709
vn 0.10420052707195 0.69546586275101 0.71096378564835
vn -0.72466278076172 0.57784777879715 0.37544086575508
vn -0.87394350767136 0.42412641644478 0.23735941946506
vn 0.6742781996727 -0.03845551982522 -0.73747545480728
vn 0.78098225593567 -0.0625613629818 -0.62141191959381
vn -0.93520188331604 -0.34948214888573 -0.05709379538894
vn -0.84720587730408 -0.41911834478378 -0.32646900415421
vn -0.89267736673355 -0.1553643643856 0.4230709373951
vn -0.8849972486496 0.0904164686799 0.45673272013664
vn -0.75773179531097 0.0571746379137 0.65005660057068
vn -0.9887580871582 0.14403861761093 -0.04012939333916
vn -0.9356729388237 0.15799693763256 -0.31552037596703
vn 0.73583447933197 0.63695245981216 -0.22986781597137
vn 0.70705485343933 0.52531880140305 -0.47340631484985
vn 0.65646290779114 0.75141447782516 0.06657871603966
vn 0.76095032691956 0.51008456945419 0.40095922350883
vn 0.79657131433487 0.53688681125641 0.27789697051048
vn 0.81854146718979 0.55450075864792 0.15006251633167
vn -0.04203388094902 0.08178319036961 0.99576336145401
vn 0.64008909463882 0.33979886770248 -0.689073741436
vn -0.79362863302231 -0.05231208726764 0.60614937543869
vn 0.50710719823837 0.20586149394512 -0.83693689107895
vn 0.64705902338028 0.36851122975349 0.66746842861176
vn -0.73127806186676 -0.67184525728226 0.1177130267024
vn -0.54797393083572 -0.26608058810234 -0.79304832220078
vn 0.31528028845787 0.04192932322621 0.94807189702988
vn 0.40906244516373 0.16535440087318 0.89739948511124
vn 0.30357050895691 0.02997463569045 0.95233738422394
vn 0.45821088552475 0.23293763399124 0.8577778339386
vn 0.56353241205215 0.39880034327507 0.72345662117004
vn -0.36602592468262 0.12421461194754 -0.92227751016617
vn -0.59727215766907 0.14674501121044 -0.78849977254868
vn 0.10801949352026 0.06210932135582 -0.99220675230026
vn 0.14014507830143 -0.17436154186726 -0.97465759515762
vn 0.34045326709747 -0.07665973901749 -0.93713116645813
vn -0.338233679533 -0.3604251742363 -0.86930531263351
vn -0.57819801568985 -0.42469763755798 -0.69664841890335
vn 0.31937381625175 0.02845283783972 -0.94720155000687
vn 0.53265750408173 0.82272094488144 -0.19851000607014
vn 0.0313699580729 0.56641238927841 -0.82352471351624
vn -0.61022162437439 -0.17378512024879 -0.77293485403061
vn 0.70201653242111 0.71199423074722 -0.01539615355432
vn 0.31485450267792 0.73368108272552 -0.60214507579803
vn -0.53376692533493 0.22701188921928 -0.81459099054337
vn -0.91202688217163 -0.35264286398888 0.20940382778645
vn -0.89828062057495 -0.42469763755798 -0.11280005425215
vn -0.75389760732651 -0.18027895689011 0.63177359104156
vn -0.10613789409399 -0.06237559020519 0.99239307641983
vn -0.31213042140007 -0.02966887690127 0.94957590103149
vn 0.36420813202858 -0.12402421236038 0.92302244901657
vn 0.59721618890762 -0.14675006270409 0.78854119777679
vn -0.66340851783752 -0.11410543322563 0.73950600624084
vn -0.97572785615921 -0.21075989305973 -0.05945934727788
vn -0.94683623313904 -0.14044068753719 0.28944343328476
vn -0.93009698390961 -0.20575995743275 -0.30427357554436
vn -0.90837812423706 -0.1180716380477 0.40113374590874
vn -0.83353662490845 -0.05235783755779 0.54997760057449
vn -0.8876901268959 -0.1139293462038 0.44612371921539
vn -0.91172724962234 -0.14962339401245 0.38257843255997
vn -0.8450118303299 -0.48785191774368 -0.21898745000362
vn 0.98807865381241 -0.14489950239658 0.05200708284974
vn 0.9356734752655 -0.15805484354496 0.3154898583889
vn 0.9028080701828 -0.09587742388248 -0.41921961307526
vn 0.88990080356598 0.1518075466156 -0.4301523566246
vn 0.80761754512787 0.06476324051619 -0.58613955974579
vn 0.93866842985153 0.34290555119514 0.03629479557276
vn 0.84720742702484 0.41908493638039 0.3265078663826
vn 0.79454469680786 -0.06598433852196 -0.60360980033875
# 168 normals

vt 0.49995157122612 0.00212597846985 0
vt 0.5 0 0
vt 0.5 0.00239622592926 0
vt 0.49946200847626 0.00165581703186 0
vt 0.2547627389431 0.75476276874542 0
vt 0.25495859980583 0.75495862960815 0
vt 0.49977412819862 0.00184786319733 0
vt 0.25515449047089 0.75515449047089 0
vt 0.50004839897156 0.00212597846985 0
vt 0.50022584199905 0.00184786319733 0
vt 0.25535038113594 0.75535035133362 0
vt 0.5 1 0
vt 0.74464964866638 0.75535035133362 0
vt 0.50053799152374 0.00165581703186 0
vt 0.74484550952911 0.75515449047089 0
vt 0.74504137039185 0.75495862960815 0
vt 0.74523729085922 0.75476276874542 0
vt 0.72123175859451 0.68088132143021 0
vt 0.7209849357605 0.68092042207718 0
vt 0.72073811292648 0.68095946311951 0
vt 0.72049129009247 0.68099856376648 0
vt 0.2555835545063 0.75463271141052 0
vt 0.25530993938446 0.75467610359192 0
vt 0.25503632426262 0.75471937656403 0
vt 0.72100907564163 0.68099474906921 0
vt 0.19191606342793 0.95058107376099 0
vt 0.72056376934052 0.68122166395187 0
vt 0.72078639268875 0.68110823631287 0
vt 0.19167397916317 0.95066893100739 0
vt 0.19139903783798 0.95069444179535 0
vt 0.19111704826355 0.95064401626587 0
vt 0.74496364593506 0.75471937656403 0
vt 0.74469006061554 0.75467610359192 0
vt 0.27926191687584 0.68095946311951 0
vt 0.27950873970985 0.68099856376648 0
vt 0.27901509404182 0.68092042207718 0
vt 0.27876827120781 0.68088132143021 0
vt 0.74441647529602 0.75463271141052 0
vt 0.27899092435837 0.68099474906921 0
vt 0.27921357750893 0.68110823631287 0
vt 0.80832600593567 0.95066893100739 0
vt 0.80808395147324 0.95058107376099 0
vt 0.27943626046181 0.68122166395187 0
vt 0.80860096216202 0.95069444179535 0
vt 0.80888295173645 0.95064401626587 0
# 45 texture coordinates

o Decagon_web
usemtl Mat
f 7/1/1 15/2/2 17/3/3
f 3/4/4 2/5/4 11/6/5 6/7/5
f 6/7/5 11/6/5 14/8/6 7/1/6
f 8/9/7 15/2/7 4/10/7
f 17/3/8 15/2/8 8/9/8
f 13/11/9 1/12/9 17/3/9
f 1/12/9 16/13/9 17/3/9
f 7/1/6 14/8/6 13/11/10 17/3/10
f 4/10/11 15/2/11 5/14/11
f 6/7/12 15/2/2 7/1/1
f 3/4/13 15/2/2 6/7/12
f 17/3/14 16/13/14 12/15/15 8/9/15
f 8/9/15 12/15/15 10/16/16 4/10/16
f 4/10/16 10/16/16 9/17/17 5/14/17
f 26/10/18 15/2/18 21/9/19
f 20/14/20 27/18/20 29/19/21 26/10/21
f 26/10/21 29/19/21 18/20/22 21/9/22
f 21/9/22 18/20/22 25/21/23 23/3/23
f 25/21/24 22/22/24 23/3/24
f 21/9/25 15/2/25 23/3/25
f 23/3/26 22/22/26 28/23/27 24/1/27
f 20/14/28 15/2/18 26/10/18
f 24/1/27 28/23/27 30/24/29 19/7/29
f 19/7/29 30/24/29 2/5/30 3/4/30
f 23/3/31 15/2/32 24/1/32
f 19/7/33 15/2/33 3/4/33
f 24/1/32 15/2/32 19/7/34
f 33/10/35 41/25/35 27/18/36 20/14/36
f 36/1/37 15/2/37 42/3/37
f 42/3/38 15/2/39 35/9/39
f 43/26/40 39/27/40 42/3/40
f 35/9/41 32/28/41 41/25/35 33/10/35
f 36/1/42 38/29/42 43/26/43 42/3/43
f 40/7/44 31/30/44 38/29/42 36/1/42
f 34/4/45 37/31/45 31/30/44 40/7/44
f 35/9/39 15/2/39 33/10/46
f 40/7/47 15/2/47 36/1/47
f 34/4/48 15/2/48 40/7/48
f 33/10/49 15/2/49 20/14/49
f 42/3/50 39/27/50 32/28/41 35/9/41
f 47/7/51 51/30/51 37/31/52 34/4/52
f 46/1/53 15/2/54 47/7/55
f 54/27/56 52/26/56 53/3/56
f 46/1/57 49/29/57 51/30/51 47/7/51
f 45/9/58 56/28/58 54/27/59 53/3/59
f 44/10/60 55/25/60 56/28/58 45/9/58
f 48/14/61 50/18/61 55/25/60 44/10/60
f 48/14/62 15/2/62 44/10/62
f 47/7/55 15/2/54 34/4/63
f 44/10/64 15/2/65 45/9/65
f 45/9/65 15/2/65 53/3/66
f 53/3/67 52/26/67 49/29/57 46/1/57
f 53/3/68 15/2/54 46/1/53
f 65/4/69 15/2/70 64/7/71
f 69/22/72 67/21/72 68/3/72
f 64/7/71 15/2/70 60/1/73
f 60/1/73 15/2/70 68/3/74
f 68/3/75 15/2/76 59/9/75
f 58/10/77 57/19/77 50/18/78 48/14/78
f 59/9/79 66/20/79 57/19/77 58/10/77
f 60/1/80 61/23/80 69/22/81 68/3/81
f 58/10/82 15/2/82 48/14/83
f 64/7/84 62/24/84 61/23/80 60/1/80
f 65/4/85 63/5/85 62/24/84 64/7/84
f 59/9/86 15/2/82 58/10/82
f 68/3/75 67/21/87 66/20/87 59/9/75
f 80/9/88 76/15/88 74/13/89 72/3/89
f 79/10/90 75/16/90 76/15/88 80/9/88
f 77/14/91 70/17/91 75/16/90 79/10/90
f 77/14/92 15/2/93 79/10/94
f 81/7/95 15/2/95 65/4/96
f 81/7/97 78/6/97 63/5/98 65/4/98
f 82/1/99 83/8/99 78/6/97 81/7/97
f 82/1/100 15/2/95 81/7/95
f 72/3/101 15/2/101 82/1/101
f 79/10/94 15/2/93 80/9/102
f 80/9/102 15/2/93 72/3/103
f 74/13/104 71/12/104 72/3/104
f 71/12/104 73/11/104 72/3/104
f 72/3/105 73/11/105 83/8/99 82/1/99
f 94/10/106 84/32/106 70/17/107 77/14/107
f 92/9/108 96/33/108 84/32/106 94/10/106
f 91/1/109 93/34/109 88/35/110 89/3/110
f 87/7/111 95/36/111 93/34/109 91/1/109
f 86/4/112 85/37/112 95/36/111 87/7/111
f 94/10/113 15/2/114 77/14/115
f 86/4/116 15/2/117 87/7/117
f 87/7/117 15/2/117 91/1/118
f 91/1/119 15/2/119 89/3/119
f 92/9/120 15/2/114 94/10/113
f 88/35/9 90/38/9 89/3/9
f 89/3/121 90/38/121 96/33/108 92/9/108
f 89/3/122 15/2/114 92/9/120
f 108/7/123 15/2/123 86/4/123
f 107/1/124 15/2/124 108/7/124
f 105/3/125 15/2/125 107/1/125
f 103/9/126 15/2/127 105/3/128
f 102/10/129 15/2/127 103/9/126
f 101/14/130 15/2/127 102/10/129
f 108/7/131 100/39/131 85/37/132 86/4/132
f 107/1/133 109/40/133 100/39/131 108/7/131
f 103/9/134 97/41/134 104/42/135 105/3/135
f 104/42/24 106/43/24 105/3/24
f 102/10/136 98/44/136 97/41/134 103/9/134
f 101/14/137 99/45/137 98/44/136 102/10/136
f 105/3/138 106/43/138 109/40/133 107/1/133
f 118/10/139 15/2/139 101/14/139
f 117/9/140 15/2/140 118/10/140
f 120/3/141 15/2/141 117/9/141
f 116/1/142 15/2/142 120/3/142
f 115/7/143 15/2/143 116/1/143
f 114/4/144 15/2/144 115/7/144
f 118/10/145 113/44/145 99/45/146 101/14/146
f 117/9/147 122/41/147 113/44/145 118/10/145
f 119/43/72 121/42/72 120/3/72
f 116/1/148 110/40/148 119/43/149 120/3/149
f 115/7/150 111/39/150 110/40/148 116/1/148
f 114/4/151 112/37/151 111/39/150 115/7/150
f 120/3/152 121/42/152 122/41/147 117/9/147
f 129/7/153 15/2/154 114/4/155
f 128/1/156 15/2/154 129/7/153
f 133/3/157 15/2/154 128/1/156
f 127/9/158 15/2/154 133/3/157
f 126/10/159 15/2/154 127/9/158
f 5/14/160 15/2/160 126/10/160
f 129/7/161 125/36/161 112/37/162 114/4/162
f 132/38/104 131/35/104 133/3/104
f 128/1/163 130/34/163 125/36/161 129/7/161
f 127/9/164 123/33/164 132/38/165 133/3/165
f 126/10/166 124/32/166 123/33/164 127/9/164
f 5/14/167 9/17/167 124/32/166 126/10/166
f 133/3/168 131/35/168 130/34/163 128/1/163

