# WaveFront *.obj file (generated by CINEMA 4D)

mtllib ./DecagonShape_16.mtl

v 0.00005425205745 0.0012291118037 -0.00754148233682
v 0.00102956395131 -0.00007768292562 -0.00937319919467
v 0.00000131278478 0.00169050588738 -0.01458554994315
v -0.00000175661762 0.0016948422417 -0.01458387821913
v -0.0000030258002 0.00169674004428 -0.01458510477096
v 0.00000006481273 0.00169222499244 -0.01458406541497
v -0.00000063532235 0.00169312360231 -0.01458202954382
v -0.00000102578292 0.00169368472416 -0.01458198949695
v -0.00094813387841 0.00276411534287 -0.00917032174766
v -0.00094733323203 0.0027628892567 -0.00916902069002
v 0.00102878489997 -0.00007663894212 -0.00937173608691
v -0.00094653258566 0.00276166317053 -0.00916771963239
v 0.00102722679731 -0.00007455136074 -0.00936880987138
v 0.00102800584864 -0.00007559515507 -0.00937027297914
v 0.00000055302667 0.00169540173374 -0.01459650322795
v -0.00094573193928 0.00276043708436 -0.00916641857475
v -0.00000081563331 0.00169327843469 -0.01458010263741
v 0.00235630129464 -0.00185534369666 -0.01186492294073
v 0.00000278480547 0.00168840144761 -0.01458589918911
v 0.00000478786251 0.0016857564915 -0.01459037233144
v 0.00000434210961 0.00168613914866 -0.01458560861647
v 0.00103190098889 -0.00008081430133 -0.00937758851796
v 0.0000048383863 0.00168533064425 -0.01458391454071
v 0.00000402936212 0.00168656662572 -0.01458517462015
v 0.00235559861176 -0.00185440201312 -0.01186360325664
v 0.00000424371683 0.00168640760239 -0.01458792295307
v 0.00235770689324 -0.00185722694732 -0.01186756230891
v 0.00103112193756 -0.000079770507 -0.0093761254102
v 0.00235700421035 -0.0018562853802 -0.01186624262482
v 0.00103034288622 -0.00007872671267 -0.00937466230243
v 0.00402995990589 -0.00409657647833 -0.01500831637532
v 0.00235911249183 -0.00185911019798 -0.01187020260841
v 0.0000059004592 0.00168424949516 -0.01459216326475
v 0.0000075730045 0.00168531457894 -0.01459722407162
v 0.00000718736919 0.0016824407503 -0.01459287945181
v 0.0000073468168 0.00168234051671 -0.01459353789687
v 0.00403101695701 -0.00409606192261 -0.01500995829701
v 0.0040290649049 -0.00409637950361 -0.01500659808517
v 0.00235981517471 -0.00186005188152 -0.01187152229249
v 0.00000685662917 0.00168392516207 -0.01459517236799
v 0.00235840980895 -0.00185816863086 -0.011868881993
v 0.00000828223892 0.00168084457982 -0.01459272764623
v 0.00402831984684 -0.00409563770518 -0.01500511355698
v 0.00001133433216 0.00168855069205 -0.01459944248199
v 0.00001214495387 0.00168636499438 -0.01459952071309
v 0.00001174221416 0.00168581970502 -0.01459942571819
v 0.00000952505707 0.00168603740167 -0.01459874678403
v 0.00001157741553 0.00169113092124 -0.01459946669638
v 0.00403298530728 -0.00409327633679 -0.01501184888184
v 0.00476084835827 0.00004500841897 -0.01508665923029
v 0.00403210148215 -0.00409488100559 -0.01501118578017
v 0.00403349474072 -0.00409154128283 -0.0150120453909
v 0.00001345720011 0.00168494088575 -0.01459965948015
v 0.00475993053988 0.00003978811947 -0.01508656516671
v 0.00476054288447 0.00004326831549 -0.01508662756532
v 0.00476023647934 0.00004152821566 -0.01508659590036
v 0.0047611547634 0.00004674861339 -0.01508668996394
v 0.00001296789287 0.00169331335928 -0.01459960918874
v 0.00001494590197 0.00169453269336 -0.01459981221706
v 0.00001495807555 0.00169521733187 -0.0145998140797
v 0.00533841876313 0.0033297217451 -0.01514590717852
v 0.00533875776455 0.00333165074699 -0.01514594256878
v 0.00533909723163 0.00333357974887 -0.01514597702771
v 0.00001302467717 0.00169650698081 -0.01459961570799
v 0.00001171267286 0.00169873796403 -0.01459948066622
v 0.00476146070287 0.00004848871322 -0.0150867216289
v 0.00476176664233 0.00005022881669 -0.01508675329387
v 0.00001685286588 0.00169484084472 -0.0146000077948
v 0.00533807976171 0.00332779274322 -0.01514587271959
v 0.00336139951833 0.00617537787184 -0.01494309958071
v 0.00576372956857 0.00574851687998 -0.01518953684717
v 0.00001381131005 0.00170485652052 -0.01459969580173
v 0.0053401151672 0.00333936652169 -0.01514608133584
v 0.00336715602316 0.00617435481399 -0.01494369003922
v 0.00336331850849 0.00617503654212 -0.01494329702109
v 0.00336523703299 0.00617469567806 -0.01494349353015
v 0.00000737408755 0.00170497223735 -0.01459903549403
v 0.00533943623304 0.00333550851792 -0.01514601148665
v 0.00000974003888 0.00170394254383 -0.01459927856922
v 0.0000120582672 0.00170404149685 -0.01459951605648
v 0.00001156146845 0.00170132529456 -0.01459946576506
v 0.00001244872783 0.00170348049141 -0.01459955610335
v 0.00533977570012 0.0033374375198 -0.01514604687691
v 0.00335948052816 0.0061757187359 -0.01494290307164
v 0.00008999594866 0.00675666099414 -0.01460751146078
v 0.00000021885184 0.00170745223295 -0.01459830161184
v 0.00000273503588 0.00170801719651 -0.01459855958819
v 0.00009518902516 0.00675573805347 -0.01460804417729
v 0.00000549430297 0.00171116227284 -0.01459884271026
v 0.00335564301349 0.00617640046403 -0.01494250912219
v 0.00000455261079 0.00170946703292 -0.01459874678403
v 0.00000519656214 0.00170924386475 -0.01459881197661
v 0.00009345800208 0.00675604585558 -0.01460786629468
v 0.00000573895613 0.00170697597787 -0.01459886785597
v 0.00009172697173 0.00675635319203 -0.01460768934339
v 0.00335756200366 0.00617605959997 -0.01494270656258
v -0.00402674591169 0.00748793082312 -0.01418506260961
v -0.00402851030231 0.0074875918217 -0.01418430823833
v -0.00402991101146 0.00748686492443 -0.01418304909021
v 0.00008826492558 0.00675696879625 -0.01460733357817
v -0.00000646695116 0.00170548900496 -0.0145957833156
v -0.00000521062384 0.00170721136965 -0.01459723524749
v -0.00000468402459 0.00170942302793 -0.01459774002433
v -0.00402495916933 0.00748783163726 -0.01418538950384
v -0.00000492134131 0.00171134935226 -0.01459777448326
v 0.00008480287215 0.00675758346915 -0.01460697874427
v -0.00000403996683 0.00170962151606 -0.01459786016494
v -0.0000022756426 0.00170810718555 -0.01459804549813
v 0.00008653389523 0.0067572761327 -0.01460715662688
v -0.00231459038332 0.00485663767904 -0.01139076240361
v -0.00231386814266 0.00485553173348 -0.01138958893716
v -0.00231314566918 0.00485442532226 -0.0113884145394
v -0.00403065187857 0.00748589634895 -0.0141814397648
v -0.00000657069995 0.00170207791962 -0.0145892072469
v -0.00000770951556 0.00170380598865 -0.01459076721221
v -0.00000899755105 0.00170569727197 -0.01459121890366
v -0.00000907942194 0.00170594372321 -0.01459185220301
v -0.00000787905083 0.00170509913005 -0.01459366083145
v -0.00231531262398 0.0048577436246 -0.01139193587005
v -0.0000100963025 0.00170725304633 -0.01459084264934
v -0.00403013452888 0.00748373521492 -0.01417845673859
v -0.00403066631407 0.0074848276563 -0.01417981088161
v -0.00094973528758 0.00276656751521 -0.00917292386293
v -0.00094893452479 0.00276534142904 -0.0091716228053
v -0.00231242342852 0.00485331937671 -0.01138724107295
v -0.00000450091602 0.00169887056109 -0.01458515133709
v -0.00000573215038 0.0017005931586 -0.01458417344838
v -0.00000605118203 0.00170107348822 -0.01458454225212
v -0.00000598914039 0.00170111143962 -0.01458687335253
v -0.00231170118786 0.00485221343115 -0.01138606760651
v -0.00231097894721 0.00485110701993 -0.01138489414006
v -0.00095053593395 0.00276779360138 -0.00917422492057
v -0.00000652017616 0.00170165207237 -0.01458274945617
# 133 vertices

vn 0.96728146076202 0.22614949941635 0.11499107629061
vn 0.93937349319458 0.31699711084366 0.13072961568832
vn 0.99485474824905 0.0479849614203 0.08922719955444
vn -0.82144719362259 -0.56943649053574 -0.03108951635659
vn -0.82144743204117 -0.56943446397781 -0.03112049214542
vn 0.55722892284393 0.8153709769249 0.15705446898937
vn 0.6333983540535 0.75665205717087 0.16212421655655
vn 0.732670545578 0.66069996356964 0.16330775618553
vn 0.39863324165344 0.9046955704689 0.15039117634296
vn -0.82143300771713 -0.56945532560349 -0.03111986629665
vn 0.76601701974869 0.62058234214783 0.16761708259583
vn 0.88450187444687 0.4425285756588 0.14773264527321
vn 0.8589700460434 0.48701211810112 0.15808123350143
vn -0.82142251729965 -0.56947022676468 -0.03112383931875
vn 0.90922486782074 0.41408449411392 0.04294375702739
vn 0.94344455003738 0.32860958576202 -0.0439106374979
vn 0.95790135860443 0.26664075255394 -0.10643177479506
vn 0.96617597341537 0.14202092587948 -0.21525356173515
vn 0.89279896020889 0.44319760799408 0.0805347636342
vn 0.45789533853531 0.76370525360107 0.45506715774536
vn 0.69413679838181 0.65364581346512 0.30153149366379
vn 0.61916077136993 0.69998264312744 0.35589924454689
vn 0.7887048125267 0.57619041204453 0.21435786783695
vn 0.81937921047211 0.54238051176071 0.18558302521706
vn -0.82121294736862 -0.56974190473557 -0.03167655318975
vn 0.88997238874435 0.45451003313065 -0.03701056167483
vn 0.86395651102066 0.47367063164711 0.17092484235764
vn 0.87395250797272 0.38816177845001 -0.29246780276299
vn 0.6337268948555 0.49141907691956 0.59740900993347
vn 0.79854255914688 0.49872156977654 0.33705580234528
vn 0.74884992837906 0.50373494625092 0.43066796660423
vn -0.82166683673859 -0.56914967298508 -0.03053280524909
vn -0.80883491039276 -0.54761755466461 -0.21424531936646
vn -0.81933480501175 -0.56214791536331 -0.11260642856359
vn -0.75009596347809 -0.49031642079353 -0.44378584623337
vn -0.69553035497665 -0.4436819255352 -0.56514060497284
vn 0.85275572538376 0.48465666174889 0.19471926987171
vn 0.78632599115372 0.47738894820213 0.3921622633934
vn 0.70318669080734 0.45008513331413 0.55041056871414
vn 0.86970442533493 0.47251638770103 0.14262697100639
vn -0.82232332229614 -0.56828963756561 -0.02883162349463
vn -0.43220081925392 -0.23869633674622 -0.86961287260056
vn -0.52615255117416 -0.30961591005325 -0.79202365875244
vn 0.13034403324127 -0.14674186706543 0.98054945468903
vn 0.27350673079491 0.00629925122485 0.96184945106506
vn 0.41278749704361 0.18169654905796 0.8925204873085
vn -0.10204694420099 0 -0.99477958679199
vn -0.25030371546745 -0.1054802313447 -0.96240425109863
vn -0.10184986144304 0.00059032271383 -0.99479961395264
vn -0.10119342058897 0.00251639517955 -0.99486356973648
vn -0.10224452614784 -0.00062156870263 -0.99475908279419
vn 0.25427505373955 -0.01460313331336 0.96702170372009
vn 0.36485117673874 0.15543705224991 0.91799944639206
vn 0.28240090608597 0.03320217505097 0.95872169733047
vn 0.51484274864197 0.30099314451218 0.80270797014236
vn 0.41518983244896 0.23963744938374 0.87760543823242
vn 0.50367015600204 0.3884918987751 0.77161544561386
vn -0.16826686263084 -0.04681193083525 -0.98462933301926
vn -0.04566094651818 -0.33975824713707 0.93940377235413
vn 0.23466040194035 0.07954683899879 0.96881723403931
vn 0.22196455299854 0.27989900112152 0.93401730060577
vn 0.22881670296192 0.13299776613712 0.96434146165848
vn 0.21195186674595 0.37762966752052 0.90137243270874
vn 0.19315123558044 0.55413430929184 0.80970841646194
vn 0.16698969900608 -0.49056121706963 0.85525679588318
vn 0.20540226995945 -0.25554168224335 0.94472658634186
vn 0.19110482931137 -0.34030759334564 0.92068976163864
vn 0.21967439353466 -0.13172729313374 0.96663904190063
vn 0.22879150509834 -0.08237551152706 0.9699838757515
vn 0.16223269701004 0.14267353713512 0.97638356685638
vn 0.03990503028035 0.28683361411095 0.95714890956879
vn 0.12645883858204 0.18084165453911 0.97534835338593
vn 0.27828887104988 -0.03729687258601 0.95977300405502
vn 0.34586727619171 -0.152797549963 0.9257584810257
vn 0.25521811842918 0.00910278968513 0.96684062480927
vn 0.38716474175453 -0.23301815986633 0.8920795917511
vn 0.46090033650398 -0.37466445565224 0.80448579788208
vn -0.02285641245544 0.35617595911026 0.93413931131363
vn -0.13529551029205 0.48200914263725 0.86565715074539
vn 0.26865437626839 0.07577085494995 0.96025186777115
vn 0.4014764726162 0.02194266021252 0.91560643911362
vn 0.22101743519306 0.09913928806782 0.97021788358688
vn 0.06774381548166 0.14905877411366 0.98650509119034
vn -0.10396586358547 0.18900881707668 0.97645622491837
vn 0.01821477338672 0.15778475999832 0.98730552196503
vn -0.18977397680283 0.20700234174728 0.95975822210312
vn -0.34296146035194 0.24223643541336 0.90757864713669
vn 0.48714560270309 -0.01775843650103 0.87314021587372
vn 0.63940900564194 -0.08705305308104 0.76392269134521
vn 0.19372281432152 0.16059792041779 0.96782219409943
vn 0.33404967188835 0.19965682923794 0.92116665840149
vn 0.13976487517357 0.14992043375969 0.9787694811821
vn 0.42765131592751 0.22172340750694 0.87632930278778
vn 0.59062504768372 0.26353400945663 0.76270037889481
vn -0.02615612559021 0.07810828834772 0.99660170078278
vn 0.16569676995277 0.16120193898678 0.9729123711586
vn -0.27080303430557 -0.01624622754753 0.962497651577
vn 0.3736766576767 0.23790833353996 0.89652961492538
vn -0.10269965976477 0.00001172813063 -0.99471241235733
vn -0.10142526775599 -0.00001116964904 -0.99484318494797
vn -0.09940454363823 -0.0000474708504 -0.99504709243774
vn 0.74722176790237 0.53357547521591 0.39617773890495
vn 0.75613754987717 0.62860023975372 0.18198266625404
vn 0.73345643281937 0.67941331863403 -0.02095582894981
vn 0.64881038665771 0.71167653799057 -0.26937258243561
vn 0.76131737232208 0.48583459854126 0.42937237024307
vn 0.76775735616684 0.54295152425766 0.34022375941277
vn 0.720683157444 0.36645966768265 0.58849221467972
vn 0.76407569646835 0.61208444833755 0.20381610095501
vn 0.75518846511841 0.63707095384598 0.15437307953835
vn -0.75007212162018 -0.49031963944435 -0.44382256269455
vn -0.69550228118896 -0.44368237257004 -0.5651747584343
vn -0.80885076522827 -0.54760885238647 -0.21420784294605
vn -0.82122164964676 -0.56978762149811 -0.03061083517969
vn -0.8205378651619 -0.57085365056992 -0.02904622815549
vn -0.82167261838913 -0.56908309459686 -0.03159915283322
vn -0.82143276929855 -0.56945741176605 -0.03108889050782
vn -0.81934022903442 -0.56215822696686 -0.11251522600651
vn 0.70773679018021 0.70360630750656 0.06361393630505
vn 0.63404160737991 0.77320319414139 -0.01216978393495
vn 0.73170346021652 0.67467677593231 0.09706357866526
vn 0.57700890302658 0.81395548582077 -0.0673588141799
vn 0.45618894696236 0.87483912706375 -0.16293619573116
vn 0.89436459541321 0.30453619360924 0.32767310738564
vn 0.87365621328354 0.39568766951561 0.28311854600906
vn 0.90414655208588 0.12247713655233 0.40929007530212
vn 0.82852327823639 0.51897257566452 0.21027737855911
vn 0.80574119091034 0.56197702884674 0.18698388338089
vn -0.82144767045975 -0.56943243741989 -0.03115146793425
# 129 normals

vt 0.49995157122612 0.00212597846985 0
vt 0.5 0 0
vt 0.5 0.00239622592926 0
vt 0.49946200847626 0.00165581703186 0
vt 0.2547627389431 0.75476276874542 0
vt 0.25495859980583 0.75495862960815 0
vt 0.49977412819862 0.00184786319733 0
vt 0.25515449047089 0.75515449047089 0
vt 0.50004839897156 0.00212597846985 0
vt 0.50022584199905 0.00184786319733 0
vt 0.25535038113594 0.75535035133362 0
vt 0.5 1 0
vt 0.74464964866638 0.75535035133362 0
vt 0.50053799152374 0.00165581703186 0
vt 0.74484550952911 0.75515449047089 0
vt 0.74504137039185 0.75495862960815 0
vt 0.74523729085922 0.75476276874542 0
vt 0.72123175859451 0.68088132143021 0
vt 0.7209849357605 0.68092042207718 0
vt 0.72073811292648 0.68095946311951 0
vt 0.72049129009247 0.68099856376648 0
vt 0.2555835545063 0.75463271141052 0
vt 0.25530993938446 0.75467610359192 0
vt 0.25503632426262 0.75471937656403 0
vt 0.72100907564163 0.68099474906921 0
vt 0.19191606342793 0.95058107376099 0
vt 0.72056376934052 0.68122166395187 0
vt 0.72078639268875 0.68110823631287 0
vt 0.19167397916317 0.95066893100739 0
vt 0.19139903783798 0.95069444179535 0
vt 0.19111704826355 0.95064401626587 0
vt 0.74496364593506 0.75471937656403 0
vt 0.74469006061554 0.75467610359192 0
vt 0.27926191687584 0.68095946311951 0
vt 0.27950873970985 0.68099856376648 0
vt 0.27901509404182 0.68092042207718 0
vt 0.27876827120781 0.68088132143021 0
vt 0.74441647529602 0.75463271141052 0
vt 0.27899092435837 0.68099474906921 0
vt 0.27921357750893 0.68110823631287 0
vt 0.80832600593567 0.95066893100739 0
vt 0.80808395147324 0.95058107376099 0
vt 0.27943626046181 0.68122166395187 0
vt 0.80860096216202 0.95069444179535 0
vt 0.80888295173645 0.95064401626587 0
# 45 texture coordinates

o Decagon_web
usemtl Mat
f 7/1/1 15/2/2 17/3/3
f 3/4/4 2/5/4 11/6/5 6/7/5
f 6/7/5 11/6/5 14/8/5 7/1/5
f 8/9/6 15/2/7 4/10/8
f 17/3/9 15/2/7 8/9/6
f 13/11/5 1/12/5 17/3/5
f 1/12/5 16/13/5 17/3/5
f 7/1/5 14/8/5 13/11/10 17/3/10
f 4/10/8 15/2/7 5/14/11
f 6/7/12 15/2/2 7/1/1
f 3/4/13 15/2/2 6/7/12
f 17/3/14 16/13/14 12/15/5 8/9/5
f 8/9/5 12/15/5 10/16/5 4/10/5
f 4/10/5 10/16/5 9/17/5 5/14/5
f 26/10/15 15/2/16 21/9/17
f 20/14/5 27/18/5 29/19/5 26/10/5
f 26/10/5 29/19/5 18/20/5 21/9/5
f 21/9/5 18/20/5 25/21/5 23/3/5
f 25/21/5 22/22/5 23/3/5
f 21/9/17 15/2/16 23/3/18
f 23/3/5 22/22/5 28/23/5 24/1/5
f 20/14/19 15/2/16 26/10/15
f 24/1/5 28/23/5 30/24/5 19/7/5
f 19/7/5 30/24/5 2/5/5 3/4/5
f 23/3/20 15/2/21 24/1/22
f 19/7/23 15/2/21 3/4/24
f 24/1/22 15/2/21 19/7/23
f 33/10/25 41/25/25 27/18/5 20/14/5
f 36/1/26 15/2/27 42/3/28
f 42/3/29 15/2/30 35/9/31
f 43/26/5 39/27/5 42/3/5
f 35/9/32 32/28/32 41/25/25 33/10/25
f 36/1/33 38/29/33 43/26/34 42/3/34
f 40/7/35 31/30/35 38/29/33 36/1/33
f 34/4/36 37/31/36 31/30/35 40/7/35
f 35/9/31 15/2/30 33/10/37
f 40/7/38 15/2/27 36/1/26
f 34/4/39 15/2/27 40/7/38
f 33/10/37 15/2/30 20/14/40
f 42/3/41 39/27/41 32/28/32 35/9/32
f 47/7/42 51/30/42 37/31/43 34/4/43
f 46/1/44 15/2/45 47/7/46
f 54/27/47 52/26/47 53/3/47
f 46/1/48 49/29/48 51/30/42 47/7/42
f 45/9/49 56/28/49 54/27/50 53/3/50
f 44/10/51 55/25/51 56/28/49 45/9/49
f 48/14/47 50/18/47 55/25/51 44/10/51
f 48/14/52 15/2/53 44/10/54
f 47/7/46 15/2/45 34/4/55
f 44/10/54 15/2/53 45/9/56
f 45/9/56 15/2/53 53/3/57
f 53/3/58 52/26/58 49/29/48 46/1/48
f 53/3/59 15/2/45 46/1/44
f 65/4/60 15/2/61 64/7/62
f 69/22/47 67/21/47 68/3/47
f 64/7/62 15/2/61 60/1/63
f 60/1/63 15/2/61 68/3/64
f 68/3/65 15/2/66 59/9/67
f 58/10/47 57/19/47 50/18/47 48/14/47
f 59/9/47 66/20/47 57/19/47 58/10/47
f 60/1/47 61/23/47 69/22/47 68/3/47
f 58/10/68 15/2/66 48/14/69
f 64/7/47 62/24/47 61/23/47 60/1/47
f 65/4/47 63/5/47 62/24/47 64/7/47
f 59/9/67 15/2/66 58/10/68
f 68/3/47 67/21/47 66/20/47 59/9/47
f 80/9/47 76/15/47 74/13/47 72/3/47
f 79/10/47 75/16/47 76/15/47 80/9/47
f 77/14/47 70/17/47 75/16/47 79/10/47
f 77/14/70 15/2/71 79/10/72
f 81/7/73 15/2/74 65/4/75
f 81/7/47 78/6/47 63/5/47 65/4/47
f 82/1/47 83/8/47 78/6/47 81/7/47
f 82/1/76 15/2/74 81/7/73
f 72/3/77 15/2/74 82/1/76
f 79/10/72 15/2/71 80/9/78
f 80/9/78 15/2/71 72/3/79
f 74/13/47 71/12/47 72/3/47
f 71/12/47 73/11/47 72/3/47
f 72/3/47 73/11/47 83/8/47 82/1/47
f 94/10/47 84/32/47 70/17/47 77/14/47
f 92/9/47 96/33/47 84/32/47 94/10/47
f 91/1/47 93/34/47 88/35/47 89/3/47
f 87/7/47 95/36/47 93/34/47 91/1/47
f 86/4/47 85/37/47 95/36/47 87/7/47
f 94/10/80 15/2/81 77/14/82
f 86/4/83 15/2/84 87/7/85
f 87/7/85 15/2/84 91/1/86
f 91/1/86 15/2/84 89/3/87
f 92/9/88 15/2/81 94/10/80
f 88/35/47 90/38/47 89/3/47
f 89/3/47 90/38/47 96/33/47 92/9/47
f 89/3/89 15/2/81 92/9/88
f 108/7/90 15/2/91 86/4/92
f 107/1/93 15/2/91 108/7/90
f 105/3/94 15/2/91 107/1/93
f 103/9/95 15/2/96 105/3/97
f 102/10/98 15/2/96 103/9/95
f 101/14/55 15/2/96 102/10/98
f 108/7/99 100/39/99 85/37/47 86/4/47
f 107/1/100 109/40/100 100/39/99 108/7/99
f 103/9/48 97/41/48 104/42/58 105/3/58
f 104/42/47 106/43/47 105/3/47
f 102/10/42 98/44/42 97/41/48 103/9/48
f 101/14/43 99/45/43 98/44/42 102/10/42
f 105/3/101 106/43/101 109/40/100 107/1/100
f 118/10/102 15/2/103 101/14/39
f 117/9/104 15/2/103 118/10/102
f 120/3/105 15/2/103 117/9/104
f 116/1/106 15/2/107 120/3/108
f 115/7/109 15/2/107 116/1/106
f 114/4/110 15/2/107 115/7/109
f 118/10/111 113/44/111 99/45/112 101/14/112
f 117/9/113 122/41/113 113/44/111 118/10/111
f 119/43/5 121/42/5 120/3/5
f 116/1/114 110/40/114 119/43/115 120/3/115
f 115/7/116 111/39/116 110/40/114 116/1/114
f 114/4/117 112/37/117 111/39/116 115/7/116
f 120/3/118 121/42/118 122/41/113 117/9/113
f 129/7/119 15/2/120 114/4/121
f 128/1/122 15/2/120 129/7/119
f 133/3/123 15/2/120 128/1/122
f 127/9/124 15/2/125 133/3/126
f 126/10/127 15/2/125 127/9/124
f 5/14/128 15/2/125 126/10/127
f 129/7/5 125/36/5 112/37/10 114/4/10
f 132/38/5 131/35/5 133/3/5
f 128/1/5 130/34/5 125/36/5 129/7/5
f 127/9/10 123/33/10 132/38/5 133/3/5
f 126/10/10 124/32/10 123/33/10 127/9/10
f 5/14/5 9/17/5 124/32/10 126/10/10
f 133/3/129 131/35/129 130/34/5 128/1/5

