# WaveFront *.obj file (generated by CINEMA 4D)

mtllib ./DecagonShape_15.mtl

v -0.00326105416752 -0.00015837713727 -0.00880496297032
v -0.0015684083337 -0.00108583329711 -0.01031787693501
v -0.00000394549488 0.00210556853563 -0.01464451570064
v -0.00000735351841 0.00210975576192 -0.01464314758778
v -0.00000786370765 0.00211208127439 -0.01464417111129
v -0.00000570856901 0.00210702163167 -0.01464329194278
v -0.00000726140343 0.0021074640099 -0.01464160811156
v -0.0000076140318 0.00210805027746 -0.01464157737792
v -0.00335448398255 0.00188292830717 -0.0101608671248
v -0.00335440901108 0.00188129779417 -0.01015978399664
v -0.00156976026483 -0.00108509277925 -0.01031666900963
v -0.00335433450527 0.00187966728117 -0.01015870086849
v -0.00157246435992 -0.00108361092862 -0.01031425129622
v -0.00157111219596 -0.00108435191214 -0.01031546015292
v 0.00000025081496 0.0021129983943 -0.01465323381126
v -0.00335425999947 0.00187803688459 -0.01015761774033
v -0.00000831897341 0.0021071434021 -0.01464001182467
v 0.00073413405335 -0.0023474721238 -0.01237592566758
v -0.00000252330642 0.00210342020728 -0.01464479602873
v 0.00000128652573 0.0021017359104 -0.01464849337935
v -0.00000132793127 0.00210094312206 -0.01464454643428
v -0.00156435219105 -0.00108805578202 -0.01032150257379
v -0.00000169780242 0.00209965743124 -0.0146431401372
v -0.00000179879862 0.00210128794424 -0.01464418880641
v 0.00073291431181 -0.00234680366702 -0.01237483602017
v -0.00000032679293 0.0021018111147 -0.01464646682143
v 0.00073657330358 -0.00234880880453 -0.01237810589373
v -0.00156570447143 -0.00108731514774 -0.01032029371709
v 0.00073535367846 -0.00234814034775 -0.01237701624632
v -0.00156705628615 -0.00108657428063 -0.01031908486038
v 0.00363867497072 -0.00393786467612 -0.01497205160558
v 0.00073901255382 -0.00235014525242 -0.01238028611988
v 0.00000307748519 0.00210058549419 -0.01464997138828
v 0.00000659061652 0.00210246047936 -0.01465379167348
v 0.00000451244841 0.00209884205833 -0.01465055625886
v 0.00000494515734 0.00209888326935 -0.01465108525008
v 0.0036401967518 -0.00393721135333 -0.01497321296483
v 0.00363720976748 -0.00393791217357 -0.01497076358646
v 0.00074023229536 -0.0023508137092 -0.01238137669861
v 0.0000052035266 0.00210083625279 -0.01465233229101
v 0.0007377929287 -0.00234947702847 -0.01237919647247
v 0.0000053786348 0.00209710933268 -0.0146504258737
v 0.00363590894267 -0.00393744977191 -0.01496957801282
v 0.00001088390309 0.00210556550883 -0.01465533208102
v 0.0000115474968 0.00210333010182 -0.01465538702905
v 0.00001110484754 0.00210281275213 -0.01465531531721
v 0.00000885053669 0.00210316292942 -0.01465483568609
v 0.00001129919292 0.00210812338628 -0.0146553684026
v 0.00364265637472 -0.00393443740904 -0.01497450377792
v 0.00464643817395 0.00014544447185 -0.01506283320487
v 0.00364158838056 -0.00393600622192 -0.01497405208647
v 0.00364329363219 -0.00393273867667 -0.01497464906424
v 0.00001276369585 0.00210182066076 -0.01465549692512
v 0.00464517250657 0.00014029782324 -0.01506272144616
v 0.00464601675048 0.00014372890291 -0.01506279595196
v 0.0046455943957 0.00014201336307 -0.01506275869906
v 0.00464686052874 0.000147160099 -0.01506287045777
v 0.00001283430356 0.00211020722054 -0.01465550344437
v 0.00001489207716 0.00211129034869 -0.01465568412095
v 0.00001494998924 0.00211197277531 -0.01465568970889
v 0.00544300628826 0.00338381063193 -0.01513285748661
v 0.00544347427785 0.00338571239263 -0.0151328984648
v 0.00544394226745 0.00338761415333 -0.01513293944299
v 0.00001310445168 0.00211338978261 -0.01465552765876
v 0.00001194267679 0.00211570435204 -0.01465542521328
v 0.00464728241786 0.00014887563884 -0.01506290771067
v 0.00464770430699 0.00015059120778 -0.01506294403225
v 0.00001681797403 0.00211146939546 -0.01465585362166
v 0.00544253876433 0.00338190887123 -0.01513281650841
v 0.00365786650218 0.00635637622327 -0.01497592963278
v 0.00602958258241 0.00576847698539 -0.01518442202359
v 0.00001444835834 0.00212166761048 -0.0146556450054
v 0.00544534530491 0.00339331920259 -0.01513306330889
v 0.00366354966536 0.00635496713221 -0.01497642975301
v 0.00365976104513 0.00635590590537 -0.01497609633952
v 0.00366165512241 0.00635543651879 -0.01497626304626
v 0.00000802446357 0.0021222170908 -0.01465508062392
v 0.00544440979138 0.00338951568119 -0.01513298135251
v 0.00001031954707 0.00212103012018 -0.01465528272092
v 0.00001264237744 0.00212097261101 -0.01465548668057
v 0.00001196449557 0.00211829598993 -0.01465542707592
v 0.00001299500582 0.00212038634345 -0.01465551741421
v 0.00544487731531 0.00339141767472 -0.0151330223307
v 0.00365597195923 0.00635684560984 -0.01497576385736
v 0.00042815206689 0.00715695507824 -0.01469201315194
v 0.00000104117873 0.00212517403997 -0.01465446688235
v 0.00000359292471 0.00212556798942 -0.01465469133109
v 0.00043327896856 0.00715568382293 -0.01469246391207
v 0.00000655996064 0.00212851981632 -0.01465495210141
v 0.003652183339 0.006357784383 -0.01497543044388
v 0.00000550580808 0.00212689209729 -0.01465485896915
v 0.00000613428392 0.00212662597187 -0.01465491484851
v 0.00043157002074 0.0071561075747 -0.01469231396914
v 0.00000652465633 0.00212432653643 -0.01465494837612
v 0.00042986101471 0.00715653132647 -0.01469216309488
v 0.00365407788195 0.00635731499642 -0.01497559715062
v -0.003636154579 0.00816418603063 -0.01433464046568
v -0.00363801815547 0.00816393923014 -0.01433411799371
v -0.00363969500177 0.00816320814192 -0.01433325465769
v 0.00042644311907 0.00715737883002 -0.01469186320901
v -0.00000608898608 0.00212353630923 -0.01465267688036
v -0.00000445738033 0.00212528277189 -0.01465366594493
v -0.00000372982663 0.00212747044861 -0.01465401146561
v -0.00363436434418 0.00816396810114 -0.01433488633484
v -0.00000383411952 0.00212940899655 -0.01465403847396
v 0.00042302516522 0.0071582258679 -0.01469156239182
v -0.00000306924176 0.00212762551382 -0.01465410273522
v -0.00000140738007 0.00212599569932 -0.01465425174683
v 0.00042473411304 0.00715780211613 -0.01469171233475
v -0.00348184769973 0.00466564344242 -0.01200923975557
v -0.00348178041168 0.00466417241842 -0.01200826279819
v -0.00348171312362 0.00466270186007 -0.01200728584081
v -0.00364093133248 0.00816208031029 -0.01433211751282
v -0.00000897148857 0.0021187865641 -0.0146475918591
v -0.00000921379706 0.00212101568468 -0.01464889105409
v -0.00001010428969 0.00212313770317 -0.01464927196503
v -0.00000988951706 0.00212354096584 -0.01464978139848
v -0.00000810439087 0.00212295632809 -0.01465116161853
v -0.00348191498779 0.00466711446643 -0.01201021671295
v -0.00001121918012 0.00212469766848 -0.01464896742254
v -0.0036417490337 0.00815925654024 -0.01432981528342
v -0.00364160141908 0.0081607112661 -0.01433090027422
v -0.00335463299416 0.00188618933316 -0.0101630333811
v -0.00335455848835 0.00188455882017 -0.01016195025295
v -0.00348164583556 0.00466123083606 -0.01200630888343
v -0.00000910310246 0.0021143569611 -0.01464421767741
v -0.00001061450348 0.0021159411408 -0.01464341394603
v -0.00001071420047 0.00211654463783 -0.01464372128248
v -0.00000956817257 0.00211717188358 -0.01464565377682
v -0.00348157854751 0.00465975981206 -0.01200533192605
v -0.00348151125945 0.00465828925371 -0.01200435496867
v -0.00335470796563 0.00188781972975 -0.01016411650926
v -0.00001195581626 0.00211670785211 -0.01464223768562
# 133 vertices

vn 0.79093909263611 0.1644289046526 0.58938819169998
vn 0.76599562168121 0.221694663167 0.60340881347656
vn 0.82808893918991 0.04901261627674 0.55845010280609
vn -0.72256469726562 -0.40514898300171 -0.56013798713684
vn -0.72260046005249 -0.4051208794117 -0.56011217832565
vn -0.72261714935303 -0.40511018037796 -0.56009840965271
vn 0.54385662078857 0.57512855529785 0.61110323667526
vn 0.58329176902771 0.52537471055984 0.61947727203369
vn 0.63811218738556 0.44903296232224 0.62544566392899
vn 0.45810249447823 0.66399484872818 0.59097629785538
vn -0.72259271144867 -0.4051461815834 -0.56010389328003
vn 0.65446400642395 0.4202838242054 0.62852078676224
vn 0.72468954324722 0.30513122677803 0.6178349852562
vn 0.7071738243103 0.33266341686249 0.62389117479324
vn -0.72262489795685 -0.40508487820625 -0.56010669469833
vn 0.76958137750626 0.30094078183174 0.56318658590317
vn 0.82351160049438 0.25467786192894 0.50691992044449
vn 0.85663551092148 0.2230378985405 0.46522003412247
vn 0.91096061468124 0.15589669346809 0.38189923763275
vn -0.72257596254349 -0.40515685081482 -0.56011772155762
vn 0.7483469247818 0.3146048784256 0.58395260572433
vn 0.41098666191101 0.51112544536591 0.75487798452377
vn 0.57848632335663 0.43085449934006 0.69261676073074
vn 0.52454209327698 0.46104496717453 0.71574652194977
vn 0.65399539470673 0.38449400663376 0.65150165557861
vn 0.67800831794739 0.36544275283813 0.63777446746826
vn -0.7223442196846 -0.40520465373993 -0.56038200855255
vn -0.72263616323471 -0.40509274601936 -0.56008642911911
vn 0.78997302055359 0.34034037590027 0.51001083850861
vn 0.67119801044464 0.3228043615818 0.66730093955994
vn 0.70807951688766 0.33804824948311 0.61995708942413
vn 0.57664752006531 0.31607064604759 0.75337707996368
vn -0.72287321090698 -0.40502634644508 -0.55982851982117
vn -0.66519033908844 -0.36575609445572 -0.65095645189285
vn -0.69838827848434 -0.38834708929062 -0.6011990904808
vn -0.57618033885956 -0.30654689669609 -0.75765770673752
vn -0.51864916086197 -0.26911503076553 -0.81152951717377
vn 0.69401091337204 0.32663348317146 0.64160686731338
vn 0.60838085412979 0.30216306447983 0.73387342691422
vn 0.52615386247635 0.27395635843277 0.80505281686783
vn 0.71746444702148 0.32526978850365 0.61599051952362
vn -0.72370111942291 -0.40471029281616 -0.55898678302765
vn -0.30837845802307 -0.13572338223457 -0.94153165817261
vn -0.37693506479263 -0.17871201038361 -0.90883553028107
vn 0.09056289494038 -0.10580466687679 0.99025440216064
vn 0.22515548765659 0.03827213123441 0.97357088327408
vn 0.29190075397491 0.1002491414547 0.95118033885956
vn -0.08757001161575 0 -0.99615836143494
vn -0.18439483642578 -0.05903822556138 -0.98107749223709
vn -0.0874452367425 0.00036568637006 -0.99616926908493
vn -0.08694144338369 0.00151445239317 -0.99621224403381
vn -0.08772579580545 -0.00036304449895 -0.99614459276199
vn 0.18299041688442 -0.01566239446402 0.98298990726471
vn 0.2022657096386 0.01293938886374 0.97924518585205
vn 0.36840769648552 0.1733555495739 0.91335844993591
vn 0.29877108335495 0.13881841301918 0.94417440891266
vn 0.17779357731342 -0.00022135637118 0.98406779766083
vn -0.13054019212723 -0.02611003816128 -0.99109917879105
vn 0.17414832115173 0.04399504512548 0.9837361574173
vn 0.17626190185547 0.17423938214779 0.96879947185516
vn 0.17282396554947 0.07752670347691 0.98189687728882
vn 0.17619079351425 0.23878633975983 0.95495438575745
vn 0.17811420559883 0.3625553548336 0.91478353738785
vn 0.11436783522367 -0.35226488113403 0.92888611555099
vn 0.14430449903011 -0.17858663201332 0.97328466176987
vn 0.1331834346056 -0.23844411969185 0.96198052167892
vn 0.15751115977764 -0.08949182927608 0.983453810215
vn 0.1647784113884 -0.05763676017523 0.98464512825012
vn 0.13166511058807 0.08677008748055 0.98748934268951
vn 0.05829566344619 0.19045378267765 0.97996377944946
vn 0.11095690727234 0.11271048337221 0.98741322755814
vn 0.19753634929657 -0.03116014041007 0.9798002243042
vn 0.24097560346127 -0.11321911215782 0.96390467882156
vn 0.18437033891678 -0.00085141835734 0.98285645246506
vn 0.26801991462708 -0.16913770139217 0.94845020771027
vn 0.32138848304749 -0.27418681979179 0.9063835144043
vn 0.02093665674329 0.24153849482536 0.97016537189484
vn -0.0485742688179 0.34073022007942 0.9389054775238
vn 0.19530287384987 0.04016307741404 0.97992026805878
vn 0.28156453371048 -0.00080726662418 0.95954197645187
vn 0.16645736992359 0.0568219460547 0.98441010713577
vn 0.07248328626156 0.09581623226404 0.99275648593903
vn -0.04428841918707 0.13493955135345 0.98986357450485
vn 0.04092540591955 0.10430657118559 0.99370276927948
vn -0.1028338894248 0.15384218096733 0.98272973299026
vn -0.21356958150864 0.19278971850872 0.95771610736847
vn 0.33779188990593 -0.02980763278902 0.94074869155884
vn 0.44595095515251 -0.08260878175497 0.8912370800972
vn 0.15205025672913 0.09639636427164 0.98366075754166
vn 0.18484954535961 0.10523177683353 0.97711664438248
vn 0.11793390661478 0.0924621000886 0.98870742321014
vn 0.30671158432961 0.12562485039234 0.9434757232666
vn 0.12916529178619 0.08059102296829 0.98834276199341
vn -0.00458214711398 0.05234518647194 0.99861854314804
vn 0.26983323693275 0.13695056736469 0.95311832427979
vn -0.08797324448824 0.00003449264477 -0.99612283706665
vn -0.08719779551029 -0.00003183836816 -0.99619102478027
vn -0.0859569311142 -0.00013797040447 -0.99629884958267
vn 0.58630967140198 0.33886218070984 0.73580795526505
vn 0.63089436292648 0.38979521393776 0.6708442568779
vn 0.6948025226593 0.49852895736694 0.51838046312332
vn 0.65945518016815 0.41886487603188 0.62423640489578
vn 0.58456492424011 0.30288401246071 0.75269192457199
vn 0.64379817247391 0.41009297966957 0.64602452516556
vn 0.65239161252975 0.43340712785721 0.62172615528107
vn -0.51868444681168 -0.26911601424217 -0.81150662899017
vn -0.72262984514236 -0.40542614459991 -0.55985331535339
vn -0.72272861003876 -0.40634939074516 -0.55905592441559
vn -0.72258758544922 -0.40480482578278 -0.56035721302032
vn -0.72262847423553 -0.40511804819107 -0.56007814407349
vn 0.65297037363052 0.49477043747902 0.57343864440918
vn 0.63487583398819 0.56823289394379 0.52349215745926
vn 0.65601378679276 0.46809032559395 0.59206193685532
vn 0.62058800458908 0.61539030075073 0.48596838116646
vn 0.58302128314972 0.70099127292633 0.41072791814804
vn 0.68617075681686 0.19238524138927 0.70153945684433
vn 0.68381351232529 0.25579968094826 0.68334877490997
vn 0.67882615327835 0.06592387706041 0.73133379220963
vn 0.67647463083267 0.34712961316109 0.6495253443718
vn 0.67031306028366 0.37823739647865 0.63844883441925
vn -0.72258913516998 -0.40511298179626 -0.56013250350952
vn -0.72259622812271 -0.4051793217659 -0.56007534265518
# 122 normals

vt 0.49995157122612 0.00212597846985 0
vt 0.5 0 0
vt 0.5 0.00239622592926 0
vt 0.49946200847626 0.00165581703186 0
vt 0.2547627389431 0.75476276874542 0
vt 0.25495859980583 0.75495862960815 0
vt 0.49977412819862 0.00184786319733 0
vt 0.25515449047089 0.75515449047089 0
vt 0.50004839897156 0.00212597846985 0
vt 0.50022584199905 0.00184786319733 0
vt 0.25535038113594 0.75535035133362 0
vt 0.5 1 0
vt 0.74464964866638 0.75535035133362 0
vt 0.50053799152374 0.00165581703186 0
vt 0.74484550952911 0.75515449047089 0
vt 0.74504137039185 0.75495862960815 0
vt 0.74523729085922 0.75476276874542 0
vt 0.72123175859451 0.68088132143021 0
vt 0.7209849357605 0.68092042207718 0
vt 0.72073811292648 0.68095946311951 0
vt 0.72049129009247 0.68099856376648 0
vt 0.2555835545063 0.75463271141052 0
vt 0.25530993938446 0.75467610359192 0
vt 0.25503632426262 0.75471937656403 0
vt 0.72100907564163 0.68099474906921 0
vt 0.19191606342793 0.95058107376099 0
vt 0.72056376934052 0.68122166395187 0
vt 0.72078639268875 0.68110823631287 0
vt 0.19167397916317 0.95066893100739 0
vt 0.19139903783798 0.95069444179535 0
vt 0.19111704826355 0.95064401626587 0
vt 0.74496364593506 0.75471937656403 0
vt 0.74469006061554 0.75467610359192 0
vt 0.27926191687584 0.68095946311951 0
vt 0.27950873970985 0.68099856376648 0
vt 0.27901509404182 0.68092042207718 0
vt 0.27876827120781 0.68088132143021 0
vt 0.74441647529602 0.75463271141052 0
vt 0.27899092435837 0.68099474906921 0
vt 0.27921357750893 0.68110823631287 0
vt 0.80832600593567 0.95066893100739 0
vt 0.80808395147324 0.95058107376099 0
vt 0.27943626046181 0.68122166395187 0
vt 0.80860096216202 0.95069444179535 0
vt 0.80888295173645 0.95064401626587 0
# 45 texture coordinates

o Decagon_web
usemtl Mat
f 7/1/1 15/2/2 17/3/3
f 3/4/4 2/5/4 11/6/5 6/7/5
f 6/7/5 11/6/5 14/8/6 7/1/6
f 8/9/7 15/2/8 4/10/9
f 17/3/10 15/2/8 8/9/7
f 13/11/5 1/12/5 17/3/5
f 1/12/5 16/13/5 17/3/5
f 7/1/6 14/8/6 13/11/11 17/3/11
f 4/10/9 15/2/8 5/14/12
f 6/7/13 15/2/2 7/1/1
f 3/4/14 15/2/2 6/7/13
f 17/3/15 16/13/15 12/15/6 8/9/6
f 8/9/6 12/15/6 10/16/5 4/10/5
f 4/10/5 10/16/5 9/17/5 5/14/5
f 26/10/16 15/2/17 21/9/18
f 20/14/5 27/18/5 29/19/6 26/10/6
f 26/10/6 29/19/6 18/20/6 21/9/6
f 21/9/6 18/20/6 25/21/5 23/3/5
f 25/21/5 22/22/5 23/3/5
f 21/9/18 15/2/17 23/3/19
f 23/3/20 22/22/20 28/23/5 24/1/5
f 20/14/21 15/2/17 26/10/16
f 24/1/5 28/23/5 30/24/15 19/7/15
f 19/7/15 30/24/15 2/5/15 3/4/15
f 23/3/22 15/2/23 24/1/24
f 19/7/25 15/2/23 3/4/26
f 24/1/24 15/2/23 19/7/25
f 33/10/27 41/25/27 27/18/28 20/14/28
f 36/1/29 15/2/30 42/3/31
f 42/3/31 15/2/30 35/9/32
f 43/26/5 39/27/5 42/3/5
f 35/9/33 32/28/33 41/25/27 33/10/27
f 36/1/34 38/29/34 43/26/35 42/3/35
f 40/7/36 31/30/36 38/29/34 36/1/34
f 34/4/37 37/31/37 31/30/36 40/7/36
f 35/9/32 15/2/30 33/10/38
f 40/7/39 15/2/30 36/1/29
f 34/4/40 15/2/30 40/7/39
f 33/10/38 15/2/30 20/14/41
f 42/3/42 39/27/42 32/28/33 35/9/33
f 47/7/43 51/30/43 37/31/44 34/4/44
f 46/1/45 15/2/46 47/7/47
f 54/27/48 52/26/48 53/3/48
f 46/1/49 49/29/49 51/30/43 47/7/43
f 45/9/50 56/28/50 54/27/51 53/3/51
f 44/10/52 55/25/52 56/28/50 45/9/50
f 48/14/48 50/18/48 55/25/52 44/10/52
f 48/14/53 15/2/46 44/10/54
f 47/7/47 15/2/46 34/4/55
f 44/10/54 15/2/46 45/9/56
f 45/9/56 15/2/46 53/3/57
f 53/3/58 52/26/58 49/29/49 46/1/49
f 53/3/57 15/2/46 46/1/45
f 65/4/59 15/2/60 64/7/61
f 69/22/48 67/21/48 68/3/48
f 64/7/61 15/2/60 60/1/62
f 60/1/62 15/2/60 68/3/63
f 68/3/64 15/2/65 59/9/66
f 58/10/48 57/19/48 50/18/48 48/14/48
f 59/9/48 66/20/48 57/19/48 58/10/48
f 60/1/48 61/23/48 69/22/48 68/3/48
f 58/10/67 15/2/65 48/14/68
f 64/7/48 62/24/48 61/23/48 60/1/48
f 65/4/48 63/5/48 62/24/48 64/7/48
f 59/9/66 15/2/65 58/10/67
f 68/3/48 67/21/48 66/20/48 59/9/48
f 80/9/48 76/15/48 74/13/48 72/3/48
f 79/10/48 75/16/48 76/15/48 80/9/48
f 77/14/48 70/17/48 75/16/48 79/10/48
f 77/14/69 15/2/70 79/10/71
f 81/7/72 15/2/73 65/4/74
f 81/7/48 78/6/48 63/5/48 65/4/48
f 82/1/48 83/8/48 78/6/48 81/7/48
f 82/1/75 15/2/73 81/7/72
f 72/3/76 15/2/73 82/1/75
f 79/10/71 15/2/70 80/9/77
f 80/9/77 15/2/70 72/3/78
f 74/13/48 71/12/48 72/3/48
f 71/12/48 73/11/48 72/3/48
f 72/3/48 73/11/48 83/8/48 82/1/48
f 94/10/48 84/32/48 70/17/48 77/14/48
f 92/9/48 96/33/48 84/32/48 94/10/48
f 91/1/48 93/34/48 88/35/48 89/3/48
f 87/7/48 95/36/48 93/34/48 91/1/48
f 86/4/48 85/37/48 95/36/48 87/7/48
f 94/10/79 15/2/80 77/14/81
f 86/4/82 15/2/83 87/7/84
f 87/7/84 15/2/83 91/1/85
f 91/1/85 15/2/83 89/3/86
f 92/9/87 15/2/80 94/10/79
f 88/35/48 90/38/48 89/3/48
f 89/3/48 90/38/48 96/33/48 92/9/48
f 89/3/88 15/2/80 92/9/87
f 108/7/89 15/2/90 86/4/91
f 107/1/92 15/2/90 108/7/89
f 105/3/93 15/2/90 107/1/92
f 103/9/94 15/2/90 105/3/93
f 102/10/95 15/2/90 103/9/94
f 101/14/55 15/2/90 102/10/95
f 108/7/96 100/39/96 85/37/48 86/4/48
f 107/1/97 109/40/97 100/39/96 108/7/96
f 103/9/49 97/41/49 104/42/58 105/3/58
f 104/42/48 106/43/48 105/3/48
f 102/10/43 98/44/43 97/41/49 103/9/49
f 101/14/44 99/45/44 98/44/43 102/10/43
f 105/3/98 106/43/98 109/40/97 107/1/97
f 118/10/99 15/2/100 101/14/40
f 117/9/101 15/2/100 118/10/99
f 120/3/102 15/2/100 117/9/101
f 116/1/103 15/2/100 120/3/102
f 115/7/104 15/2/100 116/1/103
f 114/4/105 15/2/100 115/7/104
f 118/10/36 113/44/36 99/45/106 101/14/106
f 117/9/34 122/41/34 113/44/36 118/10/36
f 119/43/5 121/42/5 120/3/5
f 116/1/107 110/40/107 119/43/108 120/3/108
f 115/7/109 111/39/109 110/40/107 116/1/107
f 114/4/110 112/37/110 111/39/109 115/7/109
f 120/3/35 121/42/35 122/41/34 117/9/34
f 129/7/111 15/2/112 114/4/113
f 128/1/114 15/2/112 129/7/111
f 133/3/115 15/2/112 128/1/114
f 127/9/116 15/2/117 133/3/118
f 126/10/119 15/2/117 127/9/116
f 5/14/120 15/2/117 126/10/119
f 129/7/5 125/36/5 112/37/121 114/4/121
f 132/38/5 131/35/5 133/3/5
f 128/1/5 130/34/5 125/36/5 129/7/5
f 127/9/11 123/33/11 132/38/122 133/3/122
f 126/10/15 124/32/15 123/33/11 127/9/11
f 5/14/15 9/17/15 124/32/15 126/10/15
f 133/3/5 131/35/5 130/34/5 128/1/5

