# WaveFront *.obj file (generated by CINEMA 4D)

mtllib ./DecagonShape_74.mtl

v 0.00000150635458 0.00333644449711 -0.00003994167128
v 0.00179147149902 0.00164775154553 0.00004422835991
v 0.00001592347689 -0.00352758099325 -0.00002273440805
v 0.00000011207879 -0.00352274486795 -0.00003894609108
v -0.00000066608214 -0.00352358119562 -0.00003668789941
v 0.00001212399638 -0.00352565594949 -0.00003430512152
v 0.00000534856645 -0.00352200283669 -0.00003916084097
v 0.00000221735945 -0.00352124357596 -0.0000397336953
v -0.00177621387411 0.00165175134316 -0.00010365065828
v -0.0017759972252 0.0016527074622 -0.00010531034059
v 0.00178988988046 0.00164924340788 0.00003583694343
v -0.00177504273597 0.00165389571339 -0.00010649529577
v 0.0017766939709 0.00165521842428 0.0000270075052
v 0.00178445340134 0.00165189593099 0.00002953263356
v 0.00000764326887 -0.00353681319393 -0.00003171921344
v -0.00177368125878 0.00165521842428 -0.00010689084593
v 0.00000150635458 -0.00351906404831 -0.00003994167128
v -0.00160466018133 0.00114302837756 -0.00006584863149
v 0.00001126327606 -0.00352565594949 -0.00001148273986
v -0.00000867867311 -0.00352558330633 0.00000300839702
v 0.00000081408734 -0.00352127570659 -0.00000669165001
v 0.00177374680061 0.00165028660558 0.00006022343223
v 0.00000025124714 -0.00351906404831 -0.00000666193091
v 0.00000414264196 -0.00352200353518 -0.00000714065118
v -0.0015996422153 0.00114427437074 -0.00006700008817
v -0.0000059573099 -0.00352420215495 -0.00000375158606
v -0.00161004147958 0.00114203779958 -0.00005738517575
v 0.00178223848343 0.00164860801306 0.00005831119415
v -0.00160845788196 0.0011421845993 -0.00006232901069
v 0.00178869848605 0.00164759962354 0.00005245554712
v 0.00223830272444 0.00299776275642 0.00009631100693
v -0.00160566356499 0.00114405050408 -0.00004855365478
v -0.0000064742062 -0.00352420215495 0.00000995415212
v 0.00000166994312 -0.00352358119562 0.00001007008905
v -0.00000259181252 -0.00352146057412 0.00001285911821
v -0.00000068081215 -0.00352107919753 0.00001315849477
v 0.002239033347 0.00299784285016 0.00009444970055
v 0.00223669223487 0.0029974556528 0.00009739225061
v -0.00160092196893 0.0011458073277 -0.00004703413651
v 0.00000089178207 -0.00352274486795 0.00001232828072
v -0.00160901003983 0.00114269577898 -0.00005234272248
v -0.00000050249423 -0.00351906404831 0.00001332386182
v 0.00223496719263 0.00299683888443 0.00009763204434
v -0.00000156657507 -0.00352274486795 0.00000556415989
v -0.00000059006868 -0.00352091877721 0.00000653402049
v 0.00000007484925 -0.00352092087269 0.00000678772858
v 0.00000106408083 -0.00352274486795 0.00000775970148
v -0.00000217243746 -0.00352358119562 0.00000325377232
v 0.0022369204089 0.0029974556528 0.00009133916319
v -0.00160353526007 0.00114404014312 -0.00005713979772
v 0.00223844498396 0.00299776275642 0.00009253864118
v 0.0022352184169 0.00299683888443 0.00009097011935
v -0.00000025124712 -0.00351906404831 0.00000666193091
v -0.00160067074466 0.0011458073277 -0.00005369606515
v -0.0016032498097 0.0011444297852 -0.00005546118336
v -0.001602192875 0.00114505144302 -0.00005420036905
v -0.00160294899251 0.00114391848911 -0.0000587855393
v -0.0000013942763 -0.00352274486795 0.00000099558088
v 0.00000119996321 -0.00352139794268 -0.0000000284318
v 0.0000056666745 -0.0035225469619 -0.00000066218428
v 0.00178527401295 0.0016476069577 0.00006420328282
v 0.0017942073755 0.00164586561732 0.00005599901124
v 0.00179797760211 0.00164574966766 0.00004447373067
v 0.00001582631012 -0.00352711300366 -0.00000673557315
v 0.00002242971277 -0.00352958310395 -0.00002248903365
v -0.00160162465181 0.00114402931649 -0.00005995654647
v -0.00159989355598 0.00114427437074 -0.00006033815953
v 0.00000000000001 -0.00351906404831 0
v 0.00177349557634 0.00165028660558 0.00006688536087
v -0.00178272021003 0.00164974911604 -0.00010389603995
v 0.00000175760169 0.00333644449711 -0.00004660360355
v 0.00000175760169 -0.00351906404831 -0.00004660360355
v 0.00177694519516 0.00165521842428 0.00002034557474
v -0.00177343003452 0.00165521842428 -0.0001135527782
v -0.00178150634747 0.0016509735724 -0.00010885381198
v -0.00177807814907 0.00165289465804 -0.0001123873808
v -0.00000717231751 -0.00352558330633 -0.0000369332738
v 0.001795650227 0.00164750986733 0.00003271848618
v -0.0000044509552 -0.00352420215495 -0.00004369325688
v -0.00000036249841 -0.00352146127261 -0.00004630793046
v 0.00001703162889 -0.00352711300366 -0.0000386951142
v 0.00000442173723 -0.00352195417508 -0.00004622211054
v 0.00178792409133 0.00165089499205 0.00002388592111
v -0.00178131915163 0.00164932978805 -0.00009883964231
v 0.00160427379888 0.0011440445669 0.00003716841456
v 0.00000291100901 -0.00352357677184 -0.00002322515866
v 0.00000230873525 -0.00352274160832 -0.00002552514161
v 0.0016008974053 0.00114427437074 0.00003372034917
v 0.00000100386035 -0.00351906404831 -0.00002661781218
v -0.00177249172702 0.00165028660558 -0.0000935031785
v 0.00000083930991 -0.00352108036168 -0.00002661973849
v -0.00000108794734 -0.00352146127261 -0.0000270723267
v 0.00160258752294 0.00114403152838 0.0000342289859
v -0.00000496785105 -0.00352420215495 -0.00002998752097
v 0.00160381488968 0.00114392256364 0.00003549074245
v -0.00177760294173 0.00164960708935 -0.0000950366375
v -0.00223644077778 0.0029974556528 -0.00010405418288
v -0.00223805150017 0.00299776275642 -0.0001029729392
v -0.00223878212273 0.00299784285016 -0.00010111163283
v 0.00160386506468 0.00114443339407 0.00003881336306
v -0.000001418696 -0.00352358119562 -0.0000167320195
v -0.00000064053501 -0.00352274486795 -0.00001899020936
v 0.00000041789377 -0.00352092063986 -0.00001988490658
v -0.00223471573554 0.00299683888443 -0.00010429397662
v 0.00000075374129 -0.00351906404831 -0.00001998579137
v 0.00160117330961 0.0011458073277 0.00004037220788
v 0.0000010972484 -0.00352091738023 -0.00002008740375
v 0.00000213721023 -0.00352274160832 -0.00002097707329
v 0.00160272151697 0.00114505365491 0.00003998570537
v 0.00160575716291 0.00114405271597 0.00004587779404
v 0.00160937407054 0.00114269950427 0.00004235683082
v 0.0016107801348 0.00114204222336 0.00003741378896
v -0.00223819375969 0.00299776275642 -0.00009920056618
v 0.00000941724466 -0.00352557888255 -0.00002297978426
v 0.00000670024383 -0.00352419866249 -0.00001622990567
v 0.00000261689593 -0.00352145917714 -0.00001362950206
v 0.00000069155868 -0.0035210789647 -0.00001347531997
v -0.00000081283372 -0.00352274486795 -0.00001442163011
v 0.00160092196893 0.0011458073277 0.00004703413651
v 0.00000050249417 -0.00351906404831 -0.00001332386
v -0.00223496719263 0.00299683888443 -0.00009763204434
v -0.00223666918464 0.0029974556528 -0.00009800108819
v -0.00177413213532 0.00165060802829 -0.00010068334814
v -0.00177555903792 0.00165106367785 -0.00010195811046
v 0.00160957500339 0.00114218867384 0.00003237227429
v -0.0000000602199 -0.00352274486795 -0.00003437751366
v 0.00000146169805 -0.00352108501829 -0.00003336292866
v 0.00000334682318 -0.00352146103978 -0.00003283574551
v 0.00000721636616 -0.00352419866249 -0.00002991513065
v 0.00160605821293 0.00114303058945 0.00002858227163
v 0.00160114862956 0.00114427437074 0.00002705841689
v -0.00177224050276 0.00165028660558 -0.0001001651035
v 0.00000125510746 -0.00351906404831 -0.00003327974264
# 133 vertices

vn 0.1255931854248 -0.41090947389603 -0.9029837846756
vn 0.42617467045784 -0.44772624969482 -0.78607654571533
vn -0.19151455163956 -0.44198796153069 -0.87633830308914
vn -0.92020690441132 0.27966272830963 0.27387592196465
vn -0.80811125040054 0.24213017523289 0.53696292638779
vn -0.44176253676414 0.12540291249752 0.88832426071167
vn -0.00715127959847 -0.43852707743645 -0.89868950843811
vn 0.95998364686966 0.27617511153221 -0.04646238312125
vn -0.03768706694245 0 0.99928957223892
vn -0.23134775459766 0.05977759882808 0.9710328578949
vn -0.70273751020432 -0.55301743745804 -0.44758430123329
vn 0.68518215417862 -0.38285204768181 -0.61963677406311
vn 0.86096274852753 -0.38346514105797 -0.33421191573143
vn 0.69215309619904 0.22080324590206 0.6871463060379
vn 0.59617978334427 0.19234222173691 0.77947044372559
vn 0.73642230033875 0.2336862385273 0.6348802447319
vn 0.8969851732254 0.27959981560707 0.34240555763245
vn 0.55403792858124 -0.62215447425842 0.5531417131424
vn -0.89698153734207 -0.2796379327774 -0.34238392114639
vn -0.74782806634903 -0.23700912296772 -0.62014502286911
vn -0.25173911452293 -0.08854300528765 -0.96373623609543
vn 0.04204794019461 0.00133631343488 -0.99911469221115
vn 0.03768706694245 0 -0.99928957223892
vn 0.9695531129837 0.21959438920021 0.10837446898222
vn -0.15648829936981 0.05941424518824 -0.98589116334915
vn -0.37333941459656 0.12531253695488 -0.9191922545433
vn 0.92069494724274 0.10527241975069 0.3758170902729
vn -0.76553362607956 0.24221837520599 -0.59606087207794
vn -0.89695912599564 0.27972027659416 -0.34237536787987
vn -0.56370723247528 -0.7292212843895 0.38790526986122
vn -0.36691695451736 -0.80628025531769 0.46398714184761
vn 0.54513865709305 -0.76054376363754 0.35269957780838
vn -0.1488550901413 -0.84282684326172 0.51718956232071
vn -0.80803084373474 -0.24210314452648 0.53709614276886
vn -0.92021441459656 -0.27966538071632 0.27384787797928
vn 0.9737600684166 -0.09307737648487 0.20767258107662
vn -0.6961590051651 0.61164551973343 -0.37583553791046
vn -0.32649073004723 0.87070792913437 -0.36779272556305
vn -0.54246753454208 0.74392002820969 -0.39027169346809
vn -0.44195002317429 -0.12546324729919 0.88822245597839
vn 0.35932621359825 -0.12113843858242 0.92531621456146
vn 0.22398026287556 -0.08008351922035 0.97129780054092
vn 0.72958612442017 -0.23164184391499 0.64346420764923
vn 0.89047014713287 -0.27779775857925 0.36040446162224
vn -0.10262396931648 0.93722450733185 -0.3332844376564
vn 0.52333289384842 0.82766199111938 -0.20272731781006
vn 0.72882544994354 0.67400741577148 -0.12052987515926
vn 0.27374091744423 0.92265570163727 -0.27161067724228
vn 0.16777834296227 0.9533194899559 -0.25106239318848
vn -0.23210853338242 -0.05998941138387 0.97083824872971
vn 0.79252904653549 -0.23700761795044 -0.5618941783905
vn 0.91508650779724 -0.27779775857925 -0.2923099398613
vn -0.95324265956879 -0.29817324876785 -0.04920509085059
vn -0.93357884883881 -0.35778272151947 -0.02054364047945
vn -0.89245194196701 -0.45032718777657 0.02710926905274
vn 0.41106855869293 -0.11581859737635 -0.90421718358994
vn 0.44029560685158 0.12498150765896 -0.88911157846451
vn 0.22487391531467 0.05780824273825 -0.97267156839371
vn 0.80898475646973 0.24239282310009 -0.53552722930908
vn 0.92022734880447 0.27959981560707 -0.27387148141861
vn -0.03056726045907 -0.93072247505188 0.36444655060768
vn -0.88120740652084 -0.47129333019257 0.03682530298829
vn 0.73719155788422 -0.54933029413223 0.39342701435089
vn 0.86506789922714 -0.3685961663723 0.34028574824333
vn 0.9470419883728 -0.17239068448544 0.27091133594513
vn 0.20273719727993 -0.05095954239368 -0.97790628671646
vn -0.98028266429901 -0.16133829951286 -0.11408702284098
vn -0.31479686498642 0.90805649757385 -0.27629023790359
vn 0.13010659813881 0.91860157251358 -0.37315329909325
vn -0.07012262195349 0.92996776103973 -0.36089169979095
vn 0.34486946463585 0.85239559412003 -0.39304804801941
vn 0.49855723977089 0.79137086868286 -0.35379773378372
vn -0.90743416547775 -0.41840595006943 0.03872632607818
vn 0.74170541763306 0.2352324873209 0.62812322378159
vn 0.89698731899261 0.27962991595268 0.34237530827522
vn 0.50291752815247 0.16442520916462 0.84855073690414
vn 0.37331232428551 -0.12531417608261 0.91920304298401
vn 0.15645723044872 -0.05941461399198 0.98589605093002
vn -0.95563721656799 0.07302093505859 -0.28535139560699
vn 0.76552665233612 -0.24219623208046 0.59607881307602
vn 0.89696657657623 -0.27969282865524 0.34237822890282
vn -0.58108603954315 0.67197769880295 -0.459113240242
vn 0.93939822912216 0.28682267665863 -0.18778651952744
vn -0.37331092357636 -0.12534394860268 -0.91919958591461
vn -0.15645694732666 -0.05944484844804 -0.98589426279068
vn -0.76553022861481 -0.24215778708458 -0.5960898399353
vn -0.89698731899261 -0.27962991595268 -0.34237530827522
vn 0.51898598670959 0.77246600389481 0.36599153280258
vn 0.01886747591197 0.71308183670044 0.7008268237114
vn 0.27622786164284 0.7615442276001 0.58630079030991
vn -0.40666326880455 0.72850638628006 0.55127435922623
vn -0.60420686006546 0.73469877243042 0.30846673250198
vn 0.79973268508911 -0.23951540887356 -0.55050885677338
vn 0.92018634080887 -0.2797557413578 -0.27385008335114
vn 0.41528341174126 -0.11711187660694 -0.90212219953537
vn -0.16792985796928 0.65030533075333 0.74087959527969
vn 0.6349418759346 0.58600032329559 0.50344061851501
vn -0.24170857667923 0.58294308185577 0.77572822570801
vn -0.46737304329872 0.45955637097359 0.75522869825363
vn 0.20429715514183 -0.05123275518417 -0.97756731510162
vn -0.80826056003571 -0.24219019711018 0.53671109676361
vn -0.44151133298874 -0.12534232437611 0.88845765590668
vn -0.40247625112534 0.11314038187265 0.908411860466
vn -0.16888317465782 0.04046811535954 0.98480492830276
vn -0.80179643630981 0.24003529548645 0.54727101325989
vn -0.92022734880447 0.27959981560707 0.27387148141861
vn 0.5381520986557 0.56447476148605 -0.62590777873993
vn 0.34846678376198 0.48555198311806 -0.80175441503525
vn 0.67768806219101 0.65194094181061 -0.34016451239586
vn 0.93017816543579 0.3552160859108 -0.09268315881491
vn 0.88876116275787 0.39753395318985 -0.22818930447102
vn 0.82739496231079 0.43138489127159 -0.35961735248566
vn 0.55271029472351 -0.04100099205971 0.83236426115036
vn 0.13245888054371 0.33518978953362 -0.93279284238815
vn -0.23030126094818 -0.0594444796443 0.9713020324707
vn -0.08206652849913 0.23594351112843 -0.96829527616501
vn 0.95518523454666 0.15340128540993 0.25315842032433
vn -0.70548325777054 -0.56090182065964 0.43322345614433
vn -0.94317620992661 -0.14097447693348 -0.30090665817261
vn 0.78580743074417 -0.10771977901459 0.60901820659637
vn 0.84328198432922 -0.01512857060879 0.53725838661194
vn 0.79417949914932 -0.09776738286018 0.59976696968079
vn 0.8640421628952 0.02704637311399 0.5026923418045
vn 0.91456544399261 0.16984508931637 0.36704593896866
vn -0.76636499166489 0.24239705502987 -0.5949187874794
vn -0.89698731899261 0.27962991595268 -0.34237530827522
vn -0.37207648158073 0.12498150765896 -0.91974925994873
vn -0.34182250499725 -0.11581719666719 -0.93260049819946
vn -0.12844227254391 -0.05092980712652 -0.9904083609581
vn -0.74798375368118 -0.23700614273548 -0.61995840072632
vn -0.89047014713287 -0.27779775857925 -0.36040446162224
vn -0.15097293257713 0.05780823901296 -0.98684620857239
vn 0.50629830360413 0.75598555803299 -0.41490709781647
vn -0.32532107830048 0.63670891523361 -0.69911938905716
vn -0.9545031785965 -0.05953511968255 -0.2921971976757
vn 0.44981679320335 0.72047936916351 -0.52780139446259
vn 0.71141487360001 0.6061224937439 -0.35567462444305
vn 0.13210590183735 0.75460398197174 -0.64274477958679
vn -0.81838428974152 0.41016730666161 -0.40250453352928
vn -0.77601456642151 -0.2316734790802 0.58662486076355
vn -0.91508650779724 -0.27779775857925 0.2923099398613
vn -0.42787423729897 -0.12110785394907 0.89568775892258
vn 0.37375441193581 -0.12546135485172 0.91900330781937
vn 0.15829373896122 -0.06002001836896 0.98556619882584
vn 0.76526659727097 -0.2420989125967 0.59645217657089
vn 0.89698153734207 -0.2796379327774 0.34238392114639
vn -0.29612791538239 -0.0799638107419 0.95179516077042
vn -0.84936410188675 -0.09609899669886 0.51898515224457
vn -0.59973400831223 -0.07174596935511 0.7969765663147
vn -0.95967543125153 -0.0662609487772 0.27318960428238
vn -0.4533234834671 -0.05291098728776 0.88977426290512
vn -0.33354821801186 -0.02984729036689 0.94226044416428
vn -0.48050028085709 -0.08352646231651 0.87300789356232
vn -0.49625220894814 -0.08999375253916 0.86350148916244
vn -0.86374121904373 -0.36094856262207 0.35166355967522
vn 0.80850303173065 -0.24228140711784 -0.5363045334816
vn 0.92021441459656 -0.27966538071632 -0.27384787797928
vn 0.4411361515522 -0.12522162497044 -0.88866102695465
vn 0.43431887030602 0.12311957031488 -0.89230525493622
vn 0.25854244828224 0.06825739890337 -0.9635853767395
vn 0.79622507095337 0.23823225498199 -0.55612140893936
vn 0.9202424287796 0.27960512042046 -0.27381539344788
vn 0.22852410376072 -0.05886870250106 -0.97175675630569
# 163 normals

vt 0.49995157122612 0.00212597846985 0
vt 0.5 0 0
vt 0.5 0.00239622592926 0
vt 0.49946200847626 0.00165581703186 0
vt 0.2547627389431 0.75476276874542 0
vt 0.25495859980583 0.75495862960815 0
vt 0.49977412819862 0.00184786319733 0
vt 0.25515449047089 0.75515449047089 0
vt 0.50004839897156 0.00212597846985 0
vt 0.50022584199905 0.00184786319733 0
vt 0.25535038113594 0.75535035133362 0
vt 0.5 1 0
vt 0.74464964866638 0.75535035133362 0
vt 0.50053799152374 0.00165581703186 0
vt 0.74484550952911 0.75515449047089 0
vt 0.74504137039185 0.75495862960815 0
vt 0.74523729085922 0.75476276874542 0
vt 0.72123175859451 0.68088132143021 0
vt 0.7209849357605 0.68092042207718 0
vt 0.72073811292648 0.68095946311951 0
vt 0.72049129009247 0.68099856376648 0
vt 0.2555835545063 0.75463271141052 0
vt 0.25530993938446 0.75467610359192 0
vt 0.25503632426262 0.75471937656403 0
vt 0.72100907564163 0.68099474906921 0
vt 0.19191606342793 0.95058107376099 0
vt 0.72056376934052 0.68122166395187 0
vt 0.72078639268875 0.68110823631287 0
vt 0.19167397916317 0.95066893100739 0
vt 0.19139903783798 0.95069444179535 0
vt 0.19111704826355 0.95064401626587 0
vt 0.74496364593506 0.75471937656403 0
vt 0.74469006061554 0.75467610359192 0
vt 0.27926191687584 0.68095946311951 0
vt 0.27950873970985 0.68099856376648 0
vt 0.27901509404182 0.68092042207718 0
vt 0.27876827120781 0.68088132143021 0
vt 0.74441647529602 0.75463271141052 0
vt 0.27899092435837 0.68099474906921 0
vt 0.27921357750893 0.68110823631287 0
vt 0.80832600593567 0.95066893100739 0
vt 0.80808395147324 0.95058107376099 0
vt 0.27943626046181 0.68122166395187 0
vt 0.80860096216202 0.95069444179535 0
vt 0.80888295173645 0.95064401626587 0
# 45 texture coordinates

o Decagon_web
usemtl Mat
f 7/1/1 15/2/2 17/3/3
f 3/4/4 2/5/4 11/6/5 6/7/5
f 6/7/5 11/6/5 14/8/6 7/1/6
f 8/9/7 15/2/7 4/10/7
f 17/3/8 15/2/8 8/9/8
f 13/11/9 1/12/9 17/3/9
f 1/12/9 16/13/9 17/3/9
f 7/1/6 14/8/6 13/11/10 17/3/10
f 4/10/11 15/2/11 5/14/11
f 6/7/12 15/2/2 7/1/1
f 3/4/13 15/2/2 6/7/12
f 17/3/14 16/13/14 12/15/15 8/9/15
f 8/9/15 12/15/15 10/16/16 4/10/16
f 4/10/16 10/16/16 9/17/17 5/14/17
f 26/10/18 15/2/18 21/9/18
f 20/14/19 27/18/19 29/19/20 26/10/20
f 26/10/20 29/19/20 18/20/21 21/9/21
f 21/9/21 18/20/21 25/21/22 23/3/22
f 25/21/23 22/22/23 23/3/23
f 21/9/24 15/2/24 23/3/24
f 23/3/25 22/22/25 28/23/26 24/1/26
f 20/14/27 15/2/27 26/10/27
f 24/1/26 28/23/26 30/24/28 19/7/28
f 19/7/28 30/24/28 2/5/29 3/4/29
f 23/3/30 15/2/31 24/1/31
f 19/7/32 15/2/32 3/4/32
f 24/1/31 15/2/31 19/7/33
f 33/10/34 41/25/34 27/18/35 20/14/35
f 36/1/36 15/2/36 42/3/36
f 42/3/37 15/2/38 35/9/39
f 43/26/9 39/27/9 42/3/9
f 35/9/40 32/28/40 41/25/34 33/10/34
f 36/1/41 38/29/41 43/26/42 42/3/42
f 40/7/43 31/30/43 38/29/41 36/1/41
f 34/4/44 37/31/44 31/30/43 40/7/43
f 35/9/39 15/2/38 33/10/45
f 40/7/46 15/2/46 36/1/47
f 34/4/48 15/2/46 40/7/46
f 33/10/45 15/2/38 20/14/49
f 42/3/50 39/27/50 32/28/40 35/9/40
f 47/7/51 51/30/51 37/31/52 34/4/52
f 46/1/53 15/2/54 47/7/55
f 54/27/23 52/26/23 53/3/23
f 46/1/56 49/29/56 51/30/51 47/7/51
f 45/9/57 56/28/57 54/27/58 53/3/58
f 44/10/59 55/25/59 56/28/57 45/9/57
f 48/14/60 50/18/60 55/25/59 44/10/59
f 48/14/61 15/2/61 44/10/61
f 47/7/55 15/2/54 34/4/62
f 44/10/63 15/2/64 45/9/64
f 45/9/64 15/2/64 53/3/65
f 53/3/66 52/26/66 49/29/56 46/1/56
f 53/3/67 15/2/54 46/1/53
f 65/4/68 15/2/69 64/7/70
f 69/22/9 67/21/9 68/3/9
f 64/7/70 15/2/69 60/1/71
f 60/1/71 15/2/69 68/3/72
f 68/3/73 15/2/73 59/9/73
f 58/10/74 57/19/74 50/18/75 48/14/75
f 59/9/76 66/20/76 57/19/74 58/10/74
f 60/1/77 61/23/77 69/22/78 68/3/78
f 58/10/79 15/2/79 48/14/79
f 64/7/80 62/24/80 61/23/77 60/1/77
f 65/4/81 63/5/81 62/24/80 64/7/80
f 59/9/82 15/2/82 58/10/82
f 68/3/83 67/21/83 66/20/83 59/9/83
f 80/9/84 76/15/84 74/13/85 72/3/85
f 79/10/86 75/16/86 76/15/84 80/9/84
f 77/14/87 70/17/87 75/16/86 79/10/86
f 77/14/88 15/2/89 79/10/90
f 81/7/91 15/2/91 65/4/92
f 81/7/93 78/6/93 63/5/94 65/4/94
f 82/1/95 83/8/95 78/6/93 81/7/93
f 82/1/96 15/2/91 81/7/91
f 72/3/97 15/2/97 82/1/97
f 79/10/90 15/2/89 80/9/98
f 80/9/98 15/2/89 72/3/99
f 74/13/23 71/12/23 72/3/23
f 71/12/23 73/11/23 72/3/23
f 72/3/100 73/11/100 83/8/95 82/1/95
f 94/10/101 84/32/101 70/17/35 77/14/35
f 92/9/102 96/33/102 84/32/101 94/10/101
f 91/1/103 93/34/103 88/35/104 89/3/104
f 87/7/105 95/36/105 93/34/103 91/1/103
f 86/4/106 85/37/106 95/36/105 87/7/105
f 94/10/107 15/2/108 77/14/109
f 86/4/110 15/2/111 87/7/111
f 87/7/111 15/2/111 91/1/112
f 91/1/113 15/2/113 89/3/113
f 92/9/114 15/2/108 94/10/107
f 88/35/9 90/38/9 89/3/9
f 89/3/115 90/38/115 96/33/102 92/9/102
f 89/3/116 15/2/108 92/9/114
f 108/7/117 15/2/117 86/4/117
f 107/1/118 15/2/118 108/7/118
f 105/3/119 15/2/119 107/1/119
f 103/9/120 15/2/121 105/3/122
f 102/10/123 15/2/121 103/9/120
f 101/14/124 15/2/121 102/10/123
f 108/7/125 100/39/125 85/37/126 86/4/126
f 107/1/127 109/40/127 100/39/125 108/7/125
f 103/9/128 97/41/128 104/42/129 105/3/129
f 104/42/23 106/43/23 105/3/23
f 102/10/130 98/44/130 97/41/128 103/9/128
f 101/14/131 99/45/131 98/44/130 102/10/130
f 105/3/132 106/43/132 109/40/127 107/1/127
f 118/10/133 15/2/133 101/14/133
f 117/9/134 15/2/134 118/10/134
f 120/3/135 15/2/135 117/9/135
f 116/1/136 15/2/136 120/3/137
f 115/7/138 15/2/136 116/1/136
f 114/4/139 15/2/139 115/7/139
f 118/10/140 113/44/140 99/45/141 101/14/141
f 117/9/142 122/41/142 113/44/140 118/10/140
f 119/43/9 121/42/9 120/3/9
f 116/1/143 110/40/143 119/43/144 120/3/144
f 115/7/145 111/39/145 110/40/143 116/1/143
f 114/4/146 112/37/146 111/39/145 115/7/145
f 120/3/147 121/42/147 122/41/142 117/9/142
f 129/7/148 15/2/149 114/4/150
f 128/1/151 15/2/149 129/7/148
f 133/3/152 15/2/149 128/1/151
f 127/9/153 15/2/149 133/3/152
f 126/10/154 15/2/149 127/9/153
f 5/14/155 15/2/155 126/10/155
f 129/7/156 125/36/156 112/37/157 114/4/157
f 132/38/23 131/35/23 133/3/23
f 128/1/158 130/34/158 125/36/156 129/7/156
f 127/9/159 123/33/159 132/38/160 133/3/160
f 126/10/161 124/32/161 123/33/159 127/9/159
f 5/14/162 9/17/162 124/32/161 126/10/161
f 133/3/163 131/35/163 130/34/158 128/1/158

