# WaveFront *.obj file (generated by CINEMA 4D)

mtllib ./DecagonShape_82.mtl

v 0.00002518736619 0.01310444064438 -0.00003103550989
v 0.00127779215109 0.01124672312289 0.00100698147435
v 0.00002530683378 0.00555338105187 -0.00000949313198
v 0.00002357164158 0.00555870123208 -0.00003099782407
v 0.00002164301077 0.00555778108537 -0.00002961905011
v 0.00002951901115 0.00555549841374 -0.00002078138459
v 0.00002751413922 0.00555951753631 -0.00002832876271
v 0.00002557964763 0.00556035293266 -0.00003048399594
v -0.00123084208462 0.01125112362206 -0.00104609353002
v -0.00122968328651 0.01125217508525 -0.00104729959276
v 0.00128170161042 0.01124836411327 0.00099943159148
v -0.00122827361338 0.01125348173082 -0.00104772683699
v 0.0012774184579 0.011254937388 0.00098523276392
v 0.00128154538106 0.0112512819469 0.00099145527929
v 0.00002469667743 0.00554322451353 -0.00002114956806
v -0.0012270436855 0.011254937388 -0.00104730378371
v 0.00002518736619 0.00556275015697 -0.00003103550989
v -0.00112872442696 0.0106914807111 -0.00092289492022
v 0.00001512713061 0.00555549841374 -0.00000304791934
v -0.00000813390579 0.00555557850748 -0.00000230826299
v 0.0000046287978 0.00556031707674 -0.00000489486956
v 0.00125523854513 0.01124951150268 0.00101012317464
v 0.00000420103834 0.00556275015697 -0.00000517645867
v 0.00000732331137 0.00555951660499 -0.00000344749947
v -0.00112437619828 0.01069285161793 -0.00092109147226
v -0.0000020751022 0.00555709796026 -0.0000062231029
v -0.00113774754573 0.01069039106369 -0.00091906444868
v 0.00126257503871 0.01124766469002 0.00101320410613
v -0.00113361270633 0.01069055311382 -0.00092214805773
v 0.00127081072424 0.01124655548483 0.0010120383231
v 0.00157174095511 0.01273185946047 0.00129088142421
v -0.00113988644443 0.01069260574877 -0.0009096468566
v -0.00001071799124 0.00555709796026 0.00000442654027
v -0.00000485771898 0.00555778108537 0.00000893645756
v -0.00000964311675 0.00556011404842 0.00000884902965
v -0.00000843218004 0.00556053360924 0.0000101243204
v 0.0015733956825 0.01273194793612 0.00128979340661
v 0.00156991614494 0.01273152139038 0.00129087013192
v -0.00113735033665 0.01069453824311 -0.00090586324222
v -0.00000678635115 0.00555870123208 0.00001031523243
v -0.00114003790077 0.01069111563265 -0.0009144837386
v -0.00000840207667 0.00556275015697 0.00001035291734
v 0.00156851543579 0.01273084338754 0.00129012565594
v -0.00000449668823 0.00555870123208 0.00000358756597
v -0.00000437060453 0.00556071009487 0.00000489067315
v -0.00000403946387 0.00556070776656 0.0000054536572
v -0.00000390538798 0.00555870123208 0.00000676535137
v -0.00000354435747 0.00555778108537 0.00000141645921
v 0.00157373317052 0.01273152139038 0.00128616672009
v -0.00113315798808 0.01069259364158 -0.00091533968225
v 0.00157411990222 0.01273185946047 0.00128795020282
v 0.0015727163991 0.01273084338754 0.00128494924866
v -0.00000420103834 0.00556275015697 0.00000517645867
v -0.00113314925693 0.01069453824311 -0.00091103964951
v -0.00113396265078 0.01069302298129 -0.0009138462483
v -0.00113395345397 0.01069370657206 -0.0009122674237
v -0.00113173853606 0.01069246046245 -0.00091633410193
v -0.00000161572541 0.00555870123208 0.00000003768489
v 0.00000089090702 0.00556018296629 0.00000062819714
v 0.00000452560607 0.0055589186959 0.00000254557881
v 0.00126123160589 0.01124656386673 0.00101954943966
v 0.00127268477809 0.0112446481362 0.00101785222068
v 0.0012823814759 0.01124452054501 0.00101070606615
v 0.00001558650729 0.00555389560759 0.00000321286825
v 0.00002989638233 0.00555117847398 -0.00000576841012
v -0.00113006785978 0.01069258246571 -0.0009165496449
v -0.00112857716158 0.01069285161793 -0.00091591500677
v 0 0.00556275015697 0
v 0.00125103746541 0.01124951150268 0.00101529958192
v -0.00123543164227 0.01124892011285 -0.00104981823824
v 0.00002938840407 0.01310444064438 -0.00003621196811
v 0.00002938840407 0.00556275015697 -0.00003621196811
v 0.00128161942121 0.011254937388 0.00098005624022
v -0.00122284260578 0.011254937388 -0.00105248019099
v -0.00123155757319 0.01125026773661 -0.00105311360676
v -0.00122693006415 0.01125238090754 -0.00105407193769
v 0.00001705346222 0.00555557850748 -0.00003334377107
v 0.00128777697682 0.01124645676464 0.0010000691982
v 0.00002311226308 0.00555709796026 -0.00003725861097
v 0.00002766631405 0.0055601131171 -0.00003712613761
v 0.00003574031143 0.00555389560759 -0.00002162035889
v 0.00003109821409 0.00555957108736 -0.00003446268238
v 0.00128747837152 0.01125018112361 0.00098883465398
v -0.00123746122699 0.01124845910817 -0.00104502600152
v 0.00114574143663 0.01069259922951 0.00089981360361
v 0.00001612773849 0.00555778620765 -0.0000169425748
v 0.00001707640513 0.0055587044917 -0.00001910343599
v 0.00114536250476 0.01069285161793 0.00089523242787
v 0.00001678529043 0.00556275015697 -0.00002068259346
v -0.00123425212223 0.01124951150268 -0.00103598216083
v 0.00001666663411 0.00556053221226 -0.00002077338286
v 0.00001553626862 0.0055601131171 -0.00002217967267
v 0.00114628637675 0.01069258432835 0.00089655478951
v 0.00001446937586 0.00555709796026 -0.00002660896826
v 0.00114641909022 0.01069246511906 0.00089822674636
v -0.00123704900034 0.01124876458198 -0.00103997741826
v -0.00156571506523 0.01273152139038 -0.00129604653921
v -0.00156753999181 0.01273185946047 -0.00129605794791
v -0.0015691947192 0.01273194793612 -0.00129496993031
v 0.00114445167128 0.01069302670658 0.00090090365848
v 0.0000090587564 0.00555778108537 -0.00001411291578
v 0.00001098738812 0.00555870123208 -0.00001549168883
v 0.00001229771715 0.00556070823222 -0.0000156310889
v -0.00156431435607 0.01273084338754 -0.00129530217964
v 0.00001260311365 0.00556275015697 -0.00001552937465
v 0.00114155141637 0.01069453824311 0.00090068677673
v 0.00001291452736 0.00556071149185 -0.00001542408791
v 0.00001420837725 0.0055587044917 -0.00001556949428
v 0.00114291184582 0.01069370936602 0.00090121832909
v 0.00114156852942 0.01069260761142 0.00090756366262
v 0.00114632584155 0.01069111935794 0.00090671761427
v 0.00115033099428 0.01069039665163 0.00090353831183
v -0.0015699188225 0.01273185946047 -0.00129312672652
v 0.00002071728704 0.00555558362976 -0.00001321785294
v 0.00001466775393 0.00555710168555 -0.00000930870556
v 0.00001012603207 0.00556011544541 -0.00000944978819
v 0.00000863109562 0.00556053360924 -0.00001037115089
v 0.00000810642541 0.00555870123208 -0.00001194180822
v 0.00113735033665 0.01069453824311 0.00090586324222
v 0.00000840207576 0.00556275015697 -0.00001035291643
v -0.00156851543579 0.01273084338754 -0.00129012565594
v -0.00156953220721 0.01273152139038 -0.00129134324379
v -0.00123111600988 0.01124986540526 -0.00104259804357
v -0.00123138609342 0.01125036645681 -0.00104438851122
v 0.00115249422379 0.01069055777043 0.00089886417845
v 0.00002069067887 0.00555870123208 -0.00002744794438
v 0.00002118693374 0.00556052708998 -0.00002581333501
v 0.00002224162927 0.00556011358276 -0.00002437040894
v 0.00002329770723 0.00555710168555 -0.00001994241029
v 0.00115221936721 0.01069148350507 0.0008939342224
v 0.00114956358448 0.01069285161793 0.00089005596237
v -0.00123005115893 0.01124951150268 -0.00104115868453
v 0.00002098632831 0.00556275015697 -0.00002585905168
# 133 vertices

vn 0.62552744150162 -0.44453969597816 -0.64117068052292
vn 0.77879971265793 -0.48900052905083 -0.39287334680557
vn 0.38298547267914 -0.47858113050461 -0.79011529684067
vn -0.89491558074951 0.32963624596596 -0.30077570676804
vn -0.95986658334732 0.28025513887405 -0.01063845679164
vn -0.86880850791931 0.13978104293346 0.47500845789909
vn 0.52637320756912 -0.47302290797234 -0.70652711391449
vn 0.78636330366135 0.32860833406448 0.52311503887177
vn -0.63015574216843 0 0.7764687538147
vn -0.75636494159698 0.06595593690872 0.65081632137299
vn -0.24503035843372 -0.61663913726807 -0.74814194440842
vn 0.89348274469376 -0.43122833967209 -0.12542191147804
vn 0.87111216783524 -0.44354844093323 0.2107804864645
vn 0.09337424486876 0.25328424572945 0.96287506818771
vn -0.03717086836696 0.218351572752 0.97516196966171
vn 0.16071173548698 0.26949456334114 0.94949692487717
vn 0.47853910923004 0.32956475019455 0.81387186050415
vn 0.069001711905 -0.67657959461212 0.73312950134277
vn -0.47854864597321 -0.32960852980614 -0.8138484954834
vn -0.17898957431316 -0.27371630072594 -0.94500905275345
vn 0.40056192874908 -0.09804107993841 -0.91100937128067
vn 0.63322657346725 0.00147006998304 -0.77396506071091
vn 0.63015574216843 0 -0.7764687538147
vn 0.69744378328323 0.26300224661827 0.66663485765457
vn 0.4820955991745 0.06555295735598 -0.87366276979446
vn 0.28629076480865 0.13967803120613 -0.94790697097778
vn 0.48161974549294 0.1256962120533 0.86731934547424
vn -0.20824159681797 0.28036239743233 -0.93703383207321
vn -0.47853201627731 0.32970240712166 -0.81382024288177
vn -0.62626600265503 -0.77960169315338 0.00348462094553
vn -0.51799595355988 -0.8399167060852 0.16192632913589
vn 0.17835386097431 -0.81003838777542 0.55859440565109
vn -0.3925763964653 -0.86597007513046 0.30980578064919
vn -0.95987838506699 -0.28022062778473 -0.01048069819808
vn -0.89490461349487 -0.32963985204697 -0.30080446600914
vn 0.63977706432343 -0.11221318691969 0.7603245973587
vn -0.28163453936577 0.6762410402298 -0.68072021007538
vn -0.01490224059671 0.8975026011467 -0.44075730443001
vn -0.15489494800568 0.79420036077499 -0.5875825881958
vn -0.86889547109604 -0.13985003530979 0.474829018116
vn -0.30010628700256 -0.13490602374077 0.94431805610657
vn -0.42499205470085 -0.0885689035058 0.90085363388062
vn 0.14993984997272 -0.26691237092018 0.95198518037796
vn 0.46138834953308 -0.32713139057159 0.82468527555466
vn 0.11614741384983 0.9482154250145 -0.2956303358078
vn 0.4805064201355 0.86919909715652 0.11664690822363
vn 0.60237580537796 0.74021869897842 0.29869669675827
vn 0.33619502186775 0.93967831134796 -0.06306803226471
vn 0.2511593401432 0.96273964643478 -0.10025634616613
vn -0.75682079792023 -0.06619121879339 0.6502622961998
vn 0.96161925792694 -0.27371951937675 -0.01913070119917
vn 0.90198802947998 -0.32713142037392 0.2817847430706
vn -0.71709126234055 -0.35401591658592 -0.60037726163864
vn -0.71404260396957 -0.42110168933868 -0.55930006504059
vn -0.70102310180664 -0.52130150794983 -0.48663267493248
vn 0.85419821739197 -0.12884484231472 -0.5037305355072
vn 0.8681218624115 0.13929757475853 -0.47640386223793
vn 0.75248038768768 0.06377051025629 -0.65552008152008
vn 0.95974695682526 0.28059485554695 0.01234313473105
vn 0.89493584632874 0.32956475019455 0.30079382658005
vn -0.22265210747719 -0.94174581766129 0.2520731985569
vn -0.69562500715256 -0.54326915740967 -0.47006860375404
vn 0.30501726269722 -0.61545264720917 0.72676169872284
vn 0.44932547211647 -0.42903923988342 0.78360193967819
vn 0.57230532169342 -0.20626428723335 0.7936760187149
vn 0.73902535438538 -0.05618065968156 -0.67133098840714
vn -0.70573222637177 -0.19420289993286 -0.68134224414825
vn -0.058234449476 0.92960178852081 -0.36393585801125
vn 0.29502615332603 0.9322561621666 -0.20942303538322
vn 0.15333953499794 0.94157034158707 -0.29988703131676
vn 0.4585128724575 0.880724132061 -0.11870536208153
vn 0.55203020572662 0.83374851942062 -0.01122765149921
vn -0.72406470775604 -0.48716771602631 -0.48826006054878
vn 0.16912779211998 0.27145597338676 0.94747424125671
vn 0.47855946421623 0.32959961891174 0.81384575366974
vn -0.14895142614841 0.18505264818668 0.97137480974197
vn -0.28631675243378 -0.1396795809269 0.94789892435074
vn -0.48212075233459 -0.0655532926321 0.87364888191223
vn -0.57242745161057 0.08779659867287 -0.81524139642715
vn 0.20822489261627 -0.28033682703972 0.93704515695572
vn 0.47853755950928 -0.32967111468315 0.81382966041565
vn -0.14392212033272 0.72767043113708 -0.67065805196762
vn 0.85741239786148 0.33932545781136 0.38691374659538
vn 0.28631541132927 -0.13971263170242 -0.94789445400238
vn 0.48211967945099 -0.06558662652969 -0.8736469745636
vn -0.20822121202946 -0.2802931368351 -0.93705904483795
vn -0.47855946421623 -0.32959961891174 -0.81384575366974
vn 0.15153437852859 0.81938058137894 0.552858710289
vn -0.38877660036087 0.745740711689 0.54103934764862
vn -0.14497667551041 0.79651111364365 0.58698534965515
vn -0.60337007045746 0.76924461126328 0.21025533974171
vn -0.61039310693741 0.78807944059372 -0.079693749547
vn 0.96088451147079 -0.27689462900162 -0.0055024093017
vn 0.89487397670746 -0.32974264025688 0.30078285932541
vn 0.85624659061432 -0.13031747937202 -0.49985909461975
vn -0.5462726354599 0.68665850162506 0.47967311739922
vn 0.15892015397549 0.64559131860733 0.74696469306946
vn -0.62435549497604 0.62184929847717 0.47274062037468
vn -0.79165661334991 0.50290310382843 0.34694123268127
vn 0.7399907708168 -0.05648431181908 -0.67024117708206
vn -0.95984125137329 -0.28033047914505 -0.01093518175185
vn -0.86868977546692 -0.13971109688282 0.47524610161781
vn -0.84998828172684 0.12580008804798 0.51156067848206
vn -0.71792143583298 0.04457893967628 0.69469523429871
vn -0.9607013463974 0.27757939696312 0.00161307107192
vn -0.89493584632874 0.32956475019455 -0.30079382658005
vn 0.76160615682602 0.61470848321915 -0.20515742897987
vn 0.72586709260941 0.52586233615875 -0.44337990880013
vn 0.69456833600998 0.71302634477615 0.09575089812279
vn 0.78350698947906 0.41757401823998 0.46016159653664
vn 0.82852733135223 0.46169888973236 0.31682267785072
vn 0.85294598340988 0.49400854110718 0.16863791644573
vn -0.10267977416515 -0.04651101306081 0.99362647533417
vn 0.65193939208984 0.3647572696209 -0.66477602720261
vn -0.75573927164078 -0.06558629125357 0.65158003568649
vn 0.52185904979706 0.25836959481239 -0.81296265125275
vn 0.59173977375031 0.18396000564098 0.78485840559006
vn -0.78177070617676 -0.62243741750717 -0.03749966993928
vn -0.54994171857834 -0.16878999769688 -0.81796950101852
vn 0.21745108067989 -0.12578216195107 0.96793276071548
vn 0.31106719374657 -0.01785206794739 0.95022022724152
vn 0.23019741475582 -0.11433628201485 0.96640384197235
vn 0.35083016753197 0.03202351182699 0.9358913898468
vn 0.48086383938789 0.20210161805153 0.85318517684937
vn -0.20962649583817 0.28060027956963 -0.93665373325348
vn -0.47855946421623 0.32959961891174 -0.81384575366974
vn 0.28753924369812 0.13929758965969 -0.94758504629135
vn 0.31712049245834 -0.1288435459137 -0.93959242105484
vn 0.50491321086884 -0.05614779517055 -0.86134201288223
vn -0.17923074960709 -0.27371895313263 -0.94496256113052
vn -0.46138834953308 -0.32713139057159 -0.82468527555466
vn 0.48662090301514 0.06377051025629 -0.87128263711929
vn 0.59613752365112 0.8010516166687 -0.0541880428791
vn 0.17918299138546 0.67920589447021 -0.71173924207687
vn -0.56703877449036 -0.07158531248569 -0.82057452201843
vn 0.62245655059814 0.76385492086411 -0.17050968110561
vn 0.7356088757515 0.66958183050156 0.10266344994307
vn 0.45768469572067 0.78522622585297 -0.41706648468971
vn -0.36951196193695 0.47213727235794 -0.80034202337265
vn -0.96245741844177 -0.2669498026371 0.04912708699703
vn -0.90198802947998 -0.32713142037392 -0.2817847430706
vn -0.86227738857269 -0.13487082719803 0.48814710974693
vn -0.28587651252747 -0.13984753191471 0.94800698757172
vn -0.48060643672943 -0.06622489541769 0.87443220615387
vn 0.20778207480907 -0.28021520376205 0.93717986345291
vn 0.47854864597321 -0.32960852980614 0.8138484954834
vn -0.79389220476151 -0.0884351208806 0.60159319639206
vn -0.99238413572311 -0.11262878775597 -0.04988495260477
vn -0.94415807723999 -0.08123021572828 0.31932291388512
vn -0.94073289632797 -0.07940691709518 -0.32972139120102
vn -0.88021010160446 -0.05911087617278 0.47088864445686
vn -0.81751364469528 -0.03309065848589 0.57495778799057
vn -0.89158147573471 -0.09347569942474 0.44310808181763
vn -0.89850622415543 -0.1008356064558 0.42722210288048
vn -0.88634514808655 -0.41846624016762 -0.19818763434887
vn 0.95980203151703 -0.28044566512108 0.01141506712884
vn 0.89490461349487 -0.32963985204697 0.30080446600914
vn 0.86851567029953 -0.13957308232784 -0.47560480237007
vn 0.86532354354858 0.1371683627367 -0.482078820467
vn 0.77241343259811 0.07537981122732 -0.63063091039658
vn 0.96128767728806 0.27527657151222 -0.01219935622066
vn 0.89491385221481 0.32957190275192 0.30085134506226
vn 0.7546758055687 -0.06494752317667 -0.65287536382675
# 163 normals

vt 0.49995157122612 0.00212597846985 0
vt 0.5 0 0
vt 0.5 0.00239622592926 0
vt 0.49946200847626 0.00165581703186 0
vt 0.2547627389431 0.75476276874542 0
vt 0.25495859980583 0.75495862960815 0
vt 0.49977412819862 0.00184786319733 0
vt 0.25515449047089 0.75515449047089 0
vt 0.50004839897156 0.00212597846985 0
vt 0.50022584199905 0.00184786319733 0
vt 0.25535038113594 0.75535035133362 0
vt 0.5 1 0
vt 0.74464964866638 0.75535035133362 0
vt 0.50053799152374 0.00165581703186 0
vt 0.74484550952911 0.75515449047089 0
vt 0.74504137039185 0.75495862960815 0
vt 0.74523729085922 0.75476276874542 0
vt 0.72123175859451 0.68088132143021 0
vt 0.7209849357605 0.68092042207718 0
vt 0.72073811292648 0.68095946311951 0
vt 0.72049129009247 0.68099856376648 0
vt 0.2555835545063 0.75463271141052 0
vt 0.25530993938446 0.75467610359192 0
vt 0.25503632426262 0.75471937656403 0
vt 0.72100907564163 0.68099474906921 0
vt 0.19191606342793 0.95058107376099 0
vt 0.72056376934052 0.68122166395187 0
vt 0.72078639268875 0.68110823631287 0
vt 0.19167397916317 0.95066893100739 0
vt 0.19139903783798 0.95069444179535 0
vt 0.19111704826355 0.95064401626587 0
vt 0.74496364593506 0.75471937656403 0
vt 0.74469006061554 0.75467610359192 0
vt 0.27926191687584 0.68095946311951 0
vt 0.27950873970985 0.68099856376648 0
vt 0.27901509404182 0.68092042207718 0
vt 0.27876827120781 0.68088132143021 0
vt 0.74441647529602 0.75463271141052 0
vt 0.27899092435837 0.68099474906921 0
vt 0.27921357750893 0.68110823631287 0
vt 0.80832600593567 0.95066893100739 0
vt 0.80808395147324 0.95058107376099 0
vt 0.27943626046181 0.68122166395187 0
vt 0.80860096216202 0.95069444179535 0
vt 0.80888295173645 0.95064401626587 0
# 45 texture coordinates

o Decagon_web
usemtl Mat
f 7/1/1 15/2/2 17/3/3
f 3/4/4 2/5/4 11/6/5 6/7/5
f 6/7/5 11/6/5 14/8/6 7/1/6
f 8/9/7 15/2/7 4/10/7
f 17/3/8 15/2/8 8/9/8
f 13/11/9 1/12/9 17/3/9
f 1/12/9 16/13/9 17/3/9
f 7/1/6 14/8/6 13/11/10 17/3/10
f 4/10/11 15/2/11 5/14/11
f 6/7/12 15/2/2 7/1/1
f 3/4/13 15/2/2 6/7/12
f 17/3/14 16/13/14 12/15/15 8/9/15
f 8/9/15 12/15/15 10/16/16 4/10/16
f 4/10/16 10/16/16 9/17/17 5/14/17
f 26/10/18 15/2/18 21/9/18
f 20/14/19 27/18/19 29/19/20 26/10/20
f 26/10/20 29/19/20 18/20/21 21/9/21
f 21/9/21 18/20/21 25/21/22 23/3/22
f 25/21/23 22/22/23 23/3/23
f 21/9/24 15/2/24 23/3/24
f 23/3/25 22/22/25 28/23/26 24/1/26
f 20/14/27 15/2/27 26/10/27
f 24/1/26 28/23/26 30/24/28 19/7/28
f 19/7/28 30/24/28 2/5/29 3/4/29
f 23/3/30 15/2/31 24/1/31
f 19/7/32 15/2/32 3/4/32
f 24/1/31 15/2/31 19/7/33
f 33/10/34 41/25/34 27/18/35 20/14/35
f 36/1/36 15/2/36 42/3/36
f 42/3/37 15/2/38 35/9/39
f 43/26/9 39/27/9 42/3/9
f 35/9/40 32/28/40 41/25/34 33/10/34
f 36/1/41 38/29/41 43/26/42 42/3/42
f 40/7/43 31/30/43 38/29/41 36/1/41
f 34/4/44 37/31/44 31/30/43 40/7/43
f 35/9/39 15/2/38 33/10/45
f 40/7/46 15/2/46 36/1/47
f 34/4/48 15/2/46 40/7/46
f 33/10/45 15/2/38 20/14/49
f 42/3/50 39/27/50 32/28/40 35/9/40
f 47/7/51 51/30/51 37/31/52 34/4/52
f 46/1/53 15/2/54 47/7/55
f 54/27/23 52/26/23 53/3/23
f 46/1/56 49/29/56 51/30/51 47/7/51
f 45/9/57 56/28/57 54/27/58 53/3/58
f 44/10/59 55/25/59 56/28/57 45/9/57
f 48/14/60 50/18/60 55/25/59 44/10/59
f 48/14/61 15/2/61 44/10/61
f 47/7/55 15/2/54 34/4/62
f 44/10/63 15/2/64 45/9/64
f 45/9/64 15/2/64 53/3/65
f 53/3/66 52/26/66 49/29/56 46/1/56
f 53/3/67 15/2/54 46/1/53
f 65/4/68 15/2/69 64/7/70
f 69/22/9 67/21/9 68/3/9
f 64/7/70 15/2/69 60/1/71
f 60/1/71 15/2/69 68/3/72
f 68/3/73 15/2/73 59/9/73
f 58/10/74 57/19/74 50/18/75 48/14/75
f 59/9/76 66/20/76 57/19/74 58/10/74
f 60/1/77 61/23/77 69/22/78 68/3/78
f 58/10/79 15/2/79 48/14/79
f 64/7/80 62/24/80 61/23/77 60/1/77
f 65/4/81 63/5/81 62/24/80 64/7/80
f 59/9/82 15/2/82 58/10/82
f 68/3/83 67/21/83 66/20/83 59/9/83
f 80/9/84 76/15/84 74/13/85 72/3/85
f 79/10/86 75/16/86 76/15/84 80/9/84
f 77/14/87 70/17/87 75/16/86 79/10/86
f 77/14/88 15/2/89 79/10/90
f 81/7/91 15/2/91 65/4/92
f 81/7/93 78/6/93 63/5/94 65/4/94
f 82/1/95 83/8/95 78/6/93 81/7/93
f 82/1/96 15/2/91 81/7/91
f 72/3/97 15/2/97 82/1/97
f 79/10/90 15/2/89 80/9/98
f 80/9/98 15/2/89 72/3/99
f 74/13/23 71/12/23 72/3/23
f 71/12/23 73/11/23 72/3/23
f 72/3/100 73/11/100 83/8/95 82/1/95
f 94/10/101 84/32/101 70/17/35 77/14/35
f 92/9/102 96/33/102 84/32/101 94/10/101
f 91/1/103 93/34/103 88/35/104 89/3/104
f 87/7/105 95/36/105 93/34/103 91/1/103
f 86/4/106 85/37/106 95/36/105 87/7/105
f 94/10/107 15/2/108 77/14/109
f 86/4/110 15/2/111 87/7/111
f 87/7/111 15/2/111 91/1/112
f 91/1/113 15/2/113 89/3/113
f 92/9/114 15/2/108 94/10/107
f 88/35/9 90/38/9 89/3/9
f 89/3/115 90/38/115 96/33/102 92/9/102
f 89/3/116 15/2/108 92/9/114
f 108/7/117 15/2/117 86/4/117
f 107/1/118 15/2/118 108/7/118
f 105/3/119 15/2/119 107/1/119
f 103/9/120 15/2/121 105/3/122
f 102/10/123 15/2/121 103/9/120
f 101/14/124 15/2/121 102/10/123
f 108/7/125 100/39/125 85/37/126 86/4/126
f 107/1/127 109/40/127 100/39/125 108/7/125
f 103/9/128 97/41/128 104/42/129 105/3/129
f 104/42/23 106/43/23 105/3/23
f 102/10/130 98/44/130 97/41/128 103/9/128
f 101/14/131 99/45/131 98/44/130 102/10/130
f 105/3/132 106/43/132 109/40/127 107/1/127
f 118/10/133 15/2/133 101/14/133
f 117/9/134 15/2/134 118/10/134
f 120/3/135 15/2/135 117/9/135
f 116/1/136 15/2/136 120/3/137
f 115/7/138 15/2/136 116/1/136
f 114/4/139 15/2/139 115/7/139
f 118/10/140 113/44/140 99/45/141 101/14/141
f 117/9/142 122/41/142 113/44/140 118/10/140
f 119/43/9 121/42/9 120/3/9
f 116/1/143 110/40/143 119/43/144 120/3/144
f 115/7/145 111/39/145 110/40/143 116/1/143
f 114/4/146 112/37/146 111/39/145 115/7/145
f 120/3/147 121/42/147 122/41/142 117/9/142
f 129/7/148 15/2/149 114/4/150
f 128/1/151 15/2/149 129/7/148
f 133/3/152 15/2/149 128/1/151
f 127/9/153 15/2/149 133/3/152
f 126/10/154 15/2/149 127/9/153
f 5/14/155 15/2/155 126/10/155
f 129/7/156 125/36/156 112/37/157 114/4/157
f 132/38/23 131/35/23 133/3/23
f 128/1/158 130/34/158 125/36/156 129/7/156
f 127/9/159 123/33/159 132/38/160 133/3/160
f 126/10/161 124/32/161 123/33/159 127/9/159
f 5/14/162 9/17/162 124/32/161 126/10/161
f 133/3/163 131/35/163 130/34/158 128/1/158

