# WaveFront *.obj file (generated by CINEMA 4D)

mtllib ./DecagonShape_5.mtl

v -0.0067506544292 0.01200865209103 -0.01493277586997
v -0.00561111653224 0.00983712356538 -0.01493987161666
v -0.00001230941598 0.00990448426455 -0.01497473660856
v -0.0000119992792 0.00991004519165 -0.01497473847121
v -0.00001004557453 0.00991174764931 -0.0149747505784
v -0.00001294968843 0.00990699604154 -0.01497473195195
v -0.0000144535361 0.00990877859294 -0.01497472263873
v -0.00001424979655 0.00990943238139 -0.01497472450137
v -0.00457916827872 0.01314821280539 -0.01494629774243
v -0.00458090240136 0.01314730197191 -0.01494628656656
v -0.00561202643439 0.00983885861933 -0.01493986602873
v -0.00458263698965 0.01314639206976 -0.01494627632201
v -0.00561384717003 0.00984232779592 -0.01493985485286
v -0.00561293680221 0.00984059274197 -0.01493986044079
v 0 0.00990463234484 -0.01497481297702
v -0.00458437157795 0.0131454821676 -0.01494626514614
v -0.00001617622365 0.00990967452526 -0.01497471239418
v -0.00406097853556 0.00688314763829 -0.01494952477515
v -0.00001288908516 0.00990195851773 -0.01497473288327
v -0.00000987147905 0.00989727675915 -0.01497475150973
v -0.00001413019618 0.00989949144423 -0.01497472543269
v -0.00560838542879 0.00983192026615 -0.01493988838047
v -0.0000160502459 0.00989920273423 -0.0149747133255
v -0.00001434960268 0.00990013964474 -0.01497472357005
v -0.00406179949641 0.00688471226022 -0.01494951918721
v -0.00001186558711 0.00989893265069 -0.01497473940253
v -0.0040593361482 0.00688001792878 -0.0149495350197
v -0.0056092957966 0.00983365532011 -0.01493988279253
v -0.00406015710905 0.00688158301637 -0.01494952943176
v -0.00561020616442 0.00983538944274 -0.0149398772046
v -0.00210489961319 0.00315763708204 -0.0149617055431
v -0.00405769376084 0.00687688868493 -0.01494954526424
v -0.00000885569716 0.00989489257336 -0.01497475802898
v -0.00000366297309 0.00989287905395 -0.01497479062527
v -0.00000896834899 0.0098925633356 -0.01497475709766
v -0.00000840960092 0.0098921675235 -0.01497476082295
v -0.00210306653753 0.00315677537583 -0.01496171671897
v -0.00210638181306 0.00315890810452 -0.01496169622988
v -0.00405687279999 0.006875324063 -0.01494954992086
v -0.00000624923496 0.00989304669201 -0.01497477386147
v -0.00405851518735 0.00687845330685 -0.01494953967631
v -0.00000979362176 0.0098908059299 -0.01497475244105
v -0.00210741977207 0.00316040380858 -0.01496168971062
v 0.00000175411321 0.00989158637822 -0.01497482415289
v 0.00000052317625 0.00988960452378 -0.01497481670231
v -0.00000016148991 0.00988959614187 -0.01497481204569
v -0.00000143973489 0.00989154726267 -0.01497480366379
v 0.00000394466497 0.00989297125489 -0.0149748371914
v -0.00209912634455 0.00315664662048 -0.01496174186468
v 0.0016221194528 0.0051092421636 -0.01498491410166
v -0.00210106838495 0.0031564431265 -0.01496172975749
v -0.00209742225707 0.00315728830174 -0.01496175210923
v 0.00000020383398 0.00988768972456 -0.01497481390834
v 0.0016174253542 0.00510677881539 -0.01498488523066
v 0.00162055494729 0.00510842120275 -0.01498490478843
v 0.00161899020895 0.0051076002419 -0.01498489454389
v 0.00162368430756 0.00511006359011 -0.01498492434621
v 0.00000652615745 0.00989320036024 -0.01497485395521
v 0.00000870705207 0.00989237334579 -0.01497486699373
v 0.00000925611675 0.0098927821964 -0.01497487071902
v 0.00457569910213 0.00665923207998 -0.01500330679119
v 0.00457743369043 0.0066601424478 -0.01500331703573
v 0.00457916827872 0.00666105234995 -0.01500332821161
v 0.00000908744914 0.00989510864019 -0.01497486978769
v 0.00001004557453 0.00989751704037 -0.01497487537563
v 0.0016252490459 0.00511088455096 -0.01498493365943
v 0.00162681355141 0.00511170597747 -0.01498494390398
v 0.00001012343182 0.0098910452798 -0.01497487630695
v 0.00457396451384 0.00665832171217 -0.01500329561532
v 0.00561111653224 0.00997214112431 -0.01500975433737
v 0.0067506544292 0.00780061259866 -0.01501685008407
v 0.00001617622365 0.00989959109575 -0.01497491355985
v 0.00458437157795 0.00666378298774 -0.0150033608079
v 0.00561384717003 0.00996693782508 -0.01500977110118
v 0.00561202643439 0.00997040607035 -0.01500975992531
v 0.00561293680221 0.00996867194772 -0.01500976551324
v 0.00001230941598 0.00990478042513 -0.01497488934547
v 0.00458090240136 0.00666196271777 -0.01500333938748
v 0.00001294968843 0.00990226957947 -0.01497489400208
v 0.0000144535361 0.00990048609674 -0.01497490331531
v 0.0000119992792 0.00989921949804 -0.01497488748282
v 0.00001424979655 0.00989983230829 -0.01497490145266
v 0.00458263698965 0.00666287308559 -0.01500334963202
v 0.00561020616442 0.00997387524694 -0.01500974874943
v 0.0040593361482 0.0129292467609 -0.01500009093434
v 0.00000987147905 0.00991198793054 -0.01497487444431
v 0.00001186558711 0.009910332039 -0.0149748865515
v 0.00406179949641 0.01292455289513 -0.01500010676682
v 0.0000160502459 0.00991006195545 -0.01497491262853
v 0.00560838542879 0.00997734442353 -0.01500973757356
v 0.00001413019618 0.00990977417678 -0.01497490145266
v 0.00001434960268 0.00990912504494 -0.01497490238398
v 0.00406097853556 0.01292611751705 -0.01500010117888
v 0.00001288908516 0.00990730617195 -0.01497489307076
v 0.00406015710905 0.01292768213898 -0.01500009652227
v 0.0056092957966 0.00997560936958 -0.0150097431615
v 0.00210638181306 0.01665035635233 -0.01498792972416
v 0.00210489961319 0.01665162853897 -0.01498792041093
v 0.00210306653753 0.01665248908103 -0.01498790923506
v 0.00405851518735 0.01293081138283 -0.01500008627772
v 0.00000366297309 0.00991638563573 -0.01497483626008
v 0.00000624923496 0.00991621799767 -0.01497485209256
v 0.00000840960092 0.00991709716618 -0.01497486513108
v 0.00210741977207 0.01664886064827 -0.01498793624341
v 0.00000979362176 0.00991845969111 -0.01497487444431
v 0.00405687279999 0.01293394062668 -0.01500007603317
v 0.00000896834899 0.00991670135409 -0.01497486885637
v 0.00000885569716 0.00991437211633 -0.01497486792505
v 0.00405769376084 0.01293237600476 -0.01500008068979
v -0.00161899020895 0.01470166444778 -0.01496473141015
v -0.00162055494729 0.0147008439526 -0.0149647211656
v -0.0016221194528 0.01470002252609 -0.01496471185237
v 0.00210106838495 0.01665282249451 -0.01498789712787
v -0.00000394466497 0.0099162934348 -0.01497478876263
v -0.00000175411321 0.00991767924279 -0.01497480180115
v -0.00000052317625 0.00991966016591 -0.01497481018305
v 0.00000016148991 0.00991966854781 -0.01497481390834
v 0.00000143973489 0.00991771742702 -0.01497482229024
v -0.0016174253542 0.0147024858743 -0.01496474072337
v -0.00000020383398 0.00992157496512 -0.01497481204569
v 0.00209742225707 0.01665197685361 -0.0149878738448
v 0.00209912634455 0.01665261760354 -0.01498788502067
v -0.00457569910213 0.0131500326097 -0.01494631916285
v -0.00457743369043 0.01314912270755 -0.0149463089183
v -0.00162368430756 0.01469920109957 -0.01496470253915
v -0.00000908744914 0.00991415604949 -0.01497475616634
v -0.00000925611675 0.00991648249328 -0.01497475523502
v -0.00000870705207 0.00991689134389 -0.01497475896031
v -0.00000652615745 0.00991606432945 -0.01497477199882
v -0.0016252490459 0.01469838060439 -0.0149646922946
v -0.00162681355141 0.01469755917788 -0.01496468298137
v -0.00457396451384 0.01315094344318 -0.01494633033872
v -0.00001012343182 0.00991821940988 -0.01497474964708
# 133 vertices

vn 0.00622704438865 0 0.99998062849045
vn -0.00622704438865 0 -0.99998062849045
# 2 normals

vt 0.49995157122612 0.00212597846985 0
vt 0.5 0 0
vt 0.5 0.00239622592926 0
vt 0.49946200847626 0.00165581703186 0
vt 0.2547627389431 0.75476276874542 0
vt 0.25495859980583 0.75495862960815 0
vt 0.49977412819862 0.00184786319733 0
vt 0.25515449047089 0.75515449047089 0
vt 0.50004839897156 0.00212597846985 0
vt 0.50022584199905 0.00184786319733 0
vt 0.25535038113594 0.75535035133362 0
vt 0.5 1 0
vt 0.74464964866638 0.75535035133362 0
vt 0.50053799152374 0.00165581703186 0
vt 0.74484550952911 0.75515449047089 0
vt 0.74504137039185 0.75495862960815 0
vt 0.74523729085922 0.75476276874542 0
vt 0.72123175859451 0.68088132143021 0
vt 0.7209849357605 0.68092042207718 0
vt 0.72073811292648 0.68095946311951 0
vt 0.72049129009247 0.68099856376648 0
vt 0.2555835545063 0.75463271141052 0
vt 0.25530993938446 0.75467610359192 0
vt 0.25503632426262 0.75471937656403 0
vt 0.72100907564163 0.68099474906921 0
vt 0.19191606342793 0.95058107376099 0
vt 0.72056376934052 0.68122166395187 0
vt 0.72078639268875 0.68110823631287 0
vt 0.19167397916317 0.95066893100739 0
vt 0.19139903783798 0.95069444179535 0
vt 0.19111704826355 0.95064401626587 0
vt 0.74496364593506 0.75471937656403 0
vt 0.74469006061554 0.75467610359192 0
vt 0.27926191687584 0.68095946311951 0
vt 0.27950873970985 0.68099856376648 0
vt 0.27901509404182 0.68092042207718 0
vt 0.27876827120781 0.68088132143021 0
vt 0.74441647529602 0.75463271141052 0
vt 0.27899092435837 0.68099474906921 0
vt 0.27921357750893 0.68110823631287 0
vt 0.80832600593567 0.95066893100739 0
vt 0.80808395147324 0.95058107376099 0
vt 0.27943626046181 0.68122166395187 0
vt 0.80860096216202 0.95069444179535 0
vt 0.80888295173645 0.95064401626587 0
# 45 texture coordinates

o Decagon_web
usemtl Mat
f 7/1/1 15/2/1 17/3/1
f 3/4/2 2/5/2 11/6/2 6/7/2
f 6/7/2 11/6/2 14/8/2 7/1/2
f 8/9/1 15/2/1 4/10/1
f 17/3/1 15/2/1 8/9/1
f 13/11/2 1/12/2 17/3/2
f 1/12/2 16/13/2 17/3/2
f 7/1/2 14/8/2 13/11/2 17/3/2
f 4/10/1 15/2/1 5/14/1
f 6/7/1 15/2/1 7/1/1
f 3/4/1 15/2/1 6/7/1
f 17/3/2 16/13/2 12/15/2 8/9/2
f 8/9/2 12/15/2 10/16/2 4/10/2
f 4/10/2 10/16/2 9/17/2 5/14/2
f 26/10/1 15/2/1 21/9/1
f 20/14/2 27/18/2 29/19/2 26/10/2
f 26/10/2 29/19/2 18/20/2 21/9/2
f 21/9/2 18/20/2 25/21/2 23/3/2
f 25/21/2 22/22/2 23/3/2
f 21/9/1 15/2/1 23/3/1
f 23/3/2 22/22/2 28/23/2 24/1/2
f 20/14/1 15/2/1 26/10/1
f 24/1/2 28/23/2 30/24/2 19/7/2
f 19/7/2 30/24/2 2/5/2 3/4/2
f 23/3/1 15/2/1 24/1/1
f 19/7/1 15/2/1 3/4/1
f 24/1/1 15/2/1 19/7/1
f 33/10/2 41/25/2 27/18/2 20/14/2
f 36/1/1 15/2/1 42/3/1
f 42/3/1 15/2/1 35/9/1
f 43/26/2 39/27/2 42/3/2
f 35/9/2 32/28/2 41/25/2 33/10/2
f 36/1/2 38/29/2 43/26/2 42/3/2
f 40/7/2 31/30/2 38/29/2 36/1/2
f 34/4/2 37/31/2 31/30/2 40/7/2
f 35/9/1 15/2/1 33/10/1
f 40/7/1 15/2/1 36/1/1
f 34/4/1 15/2/1 40/7/1
f 33/10/1 15/2/1 20/14/1
f 42/3/2 39/27/2 32/28/2 35/9/2
f 47/7/2 51/30/2 37/31/2 34/4/2
f 46/1/1 15/2/1 47/7/1
f 54/27/2 52/26/2 53/3/2
f 46/1/2 49/29/2 51/30/2 47/7/2
f 45/9/2 56/28/2 54/27/2 53/3/2
f 44/10/2 55/25/2 56/28/2 45/9/2
f 48/14/2 50/18/2 55/25/2 44/10/2
f 48/14/1 15/2/1 44/10/1
f 47/7/1 15/2/1 34/4/1
f 44/10/1 15/2/1 45/9/1
f 45/9/1 15/2/1 53/3/1
f 53/3/2 52/26/2 49/29/2 46/1/2
f 53/3/1 15/2/1 46/1/1
f 65/4/1 15/2/1 64/7/1
f 69/22/2 67/21/2 68/3/2
f 64/7/1 15/2/1 60/1/1
f 60/1/1 15/2/1 68/3/1
f 68/3/1 15/2/1 59/9/1
f 58/10/2 57/19/2 50/18/2 48/14/2
f 59/9/2 66/20/2 57/19/2 58/10/2
f 60/1/2 61/23/2 69/22/2 68/3/2
f 58/10/1 15/2/1 48/14/1
f 64/7/2 62/24/2 61/23/2 60/1/2
f 65/4/2 63/5/2 62/24/2 64/7/2
f 59/9/1 15/2/1 58/10/1
f 68/3/2 67/21/2 66/20/2 59/9/2
f 80/9/2 76/15/2 74/13/2 72/3/2
f 79/10/2 75/16/2 76/15/2 80/9/2
f 77/14/2 70/17/2 75/16/2 79/10/2
f 77/14/1 15/2/1 79/10/1
f 81/7/1 15/2/1 65/4/1
f 81/7/2 78/6/2 63/5/2 65/4/2
f 82/1/2 83/8/2 78/6/2 81/7/2
f 82/1/1 15/2/1 81/7/1
f 72/3/1 15/2/1 82/1/1
f 79/10/1 15/2/1 80/9/1
f 80/9/1 15/2/1 72/3/1
f 74/13/2 71/12/2 72/3/2
f 71/12/2 73/11/2 72/3/2
f 72/3/2 73/11/2 83/8/2 82/1/2
f 94/10/2 84/32/2 70/17/2 77/14/2
f 92/9/2 96/33/2 84/32/2 94/10/2
f 91/1/2 93/34/2 88/35/2 89/3/2
f 87/7/2 95/36/2 93/34/2 91/1/2
f 86/4/2 85/37/2 95/36/2 87/7/2
f 94/10/1 15/2/1 77/14/1
f 86/4/1 15/2/1 87/7/1
f 87/7/1 15/2/1 91/1/1
f 91/1/1 15/2/1 89/3/1
f 92/9/1 15/2/1 94/10/1
f 88/35/2 90/38/2 89/3/2
f 89/3/2 90/38/2 96/33/2 92/9/2
f 89/3/1 15/2/1 92/9/1
f 108/7/1 15/2/1 86/4/1
f 107/1/1 15/2/1 108/7/1
f 105/3/1 15/2/1 107/1/1
f 103/9/1 15/2/1 105/3/1
f 102/10/1 15/2/1 103/9/1
f 101/14/1 15/2/1 102/10/1
f 108/7/2 100/39/2 85/37/2 86/4/2
f 107/1/2 109/40/2 100/39/2 108/7/2
f 103/9/2 97/41/2 104/42/2 105/3/2
f 104/42/2 106/43/2 105/3/2
f 102/10/2 98/44/2 97/41/2 103/9/2
f 101/14/2 99/45/2 98/44/2 102/10/2
f 105/3/2 106/43/2 109/40/2 107/1/2
f 118/10/1 15/2/1 101/14/1
f 117/9/1 15/2/1 118/10/1
f 120/3/1 15/2/1 117/9/1
f 116/1/1 15/2/1 120/3/1
f 115/7/1 15/2/1 116/1/1
f 114/4/1 15/2/1 115/7/1
f 118/10/2 113/44/2 99/45/2 101/14/2
f 117/9/2 122/41/2 113/44/2 118/10/2
f 119/43/2 121/42/2 120/3/2
f 116/1/2 110/40/2 119/43/2 120/3/2
f 115/7/2 111/39/2 110/40/2 116/1/2
f 114/4/2 112/37/2 111/39/2 115/7/2
f 120/3/2 121/42/2 122/41/2 117/9/2
f 129/7/1 15/2/1 114/4/1
f 128/1/1 15/2/1 129/7/1
f 133/3/1 15/2/1 128/1/1
f 127/9/1 15/2/1 133/3/1
f 126/10/1 15/2/1 127/9/1
f 5/14/1 15/2/1 126/10/1
f 129/7/2 125/36/2 112/37/2 114/4/2
f 132/38/2 131/35/2 133/3/2
f 128/1/2 130/34/2 125/36/2 129/7/2
f 127/9/2 123/33/2 132/38/2 133/3/2
f 126/10/2 124/32/2 123/33/2 127/9/2
f 5/14/2 9/17/2 124/32/2 126/10/2
f 133/3/2 131/35/2 130/34/2 128/1/2

