# WaveFront *.obj file (generated by CINEMA 4D)

mtllib ./DecagonShape_70.mtl

v -0.00000416552348 0.00353610189632 -0.0000494755659
v 0.00174179603346 0.00179952348117 -0.00003096684668
v 0.00001468107621 -0.00352677563205 -0.00003280381134
v -0.00000128669501 -0.00352180888876 -0.00004842508497
v -0.00000196298424 -0.00352266989648 -0.00004613988858
v 0.00001057003374 -0.00352479727007 -0.00004422749407
v 0.00000380115375 -0.00352104241028 -0.00004883161819
v 0.00000073309877 -0.00352026289329 -0.00004928932321
v -0.00173541589174 0.00180156982969 -0.00004798359441
v -0.00173526478466 0.001802553772 -0.00004965010157
v 0.0017399569042 0.00180105748586 -0.00003929465674
v -0.00173437886406 0.00180377694778 -0.00005086924648
v 0.00172679685056 0.00180719781201 -0.00004763450852
v 0.0017344399821 0.00180378358345 -0.00004539547444
v 0.0000063085422 -0.00353628047742 -0.0000414790884
v -0.00173306884244 0.00180513877422 -0.00005131443322
v 0.00000003242879 -0.00351802073419 -0.0000494711021
v -0.00156680552755 0.0012782093836 -0.00001649594742
v 0.00001054574204 -0.00352479727007 -0.00002138889977
v -0.00000834684488 -0.0035247344058 -0.00000618524064
v 0.00000054511918 -0.00352029595524 -0.0000162180495
v 0.00172511546407 0.00180212210398 -0.00001433287889
v -0.0000000029928 -0.00351802073419 -0.0000161677217
v 0.00000376870821 -0.00352104310878 -0.00001678874469
v -0.0015619660262 0.00127949356101 -0.00001782903018
v -0.00000593595996 -0.00352331041358 -0.00001303518366
v -0.00157174433116 0.00127718562726 -0.00000784807526
v 0.00173331215046 0.00180039962288 -0.0000165550664
v -0.00157037575264 0.00127733906265 -0.00001284314476
v 0.00173939066008 0.00179936573841 -0.00002264354953
v 0.00217762799002 0.00318889715709 0.00001381485617
v -0.001567184343 0.00127925479319 0.00000082086854
v -0.00000596485916 -0.0035233150702 0.00000067577093
v 0.00000196274732 -0.00352267199196 0.00000050670599
v -0.00000209152722 -0.00352049386129 0.00000344351747
v -0.00000022265807 -0.00352010107599 0.00000367642701
v 0.00217827688903 0.00318898144178 0.00001192942182
v 0.00217609689571 0.00318857957609 0.00001495099332
v -0.00156252179295 0.00128106423654 0.0000021750302
v 0.00000128066176 -0.00352181354538 0.00000279106507
v -0.00157056795433 0.00127786118537 -0.00000284736007
v -0.00000004515732 -0.00351802748628 0.0000038368853
v 0.00217442633584 0.00318794394843 0.00001524993149
v -0.00000133921844 -0.00352181051858 -0.00000388324179
v -0.00000035706537 -0.00351993134245 -0.00000294705706
v 0.00000029859106 -0.00351993343793 -0.00000271659997
v 0.00000129507157 -0.00352181028575 -0.00000178073844
v -0.00000200771115 -0.00352267059498 -0.00000617117803
v 0.00217611622065 0.0031885842327 0.00000889362855
v -0.00156540516764 0.00127924967092 -0.00000783401265
v 0.00217763986439 0.00318889948539 0.00001003982288
v 0.0021744472906 0.00318794837222 0.00000858329986
v -0.00000002414488 -0.00351802282967 -0.00000282974656
v -0.00156250072177 0.00128106842749 -0.00000449160189
v -0.00156507000793 0.00127965002321 -0.0000061663909
v -0.00156399863772 0.00128029007465 -0.00000494313872
v -0.00156489177607 0.0012791256886 -0.00000949975129
v -0.00000132958098 -0.00352180912159 -0.00000845569139
v 0.00000115809223 -0.00352042145096 -0.00000957344946
v 0.00000548304888 -0.00352160120383 -0.00001037048969
v 0.00173647678457 0.00179937155917 -0.00001077819525
v 0.00174487906042 0.00179758481681 -0.00001930437793
v 0.00174813740887 0.00179746735375 -0.00003096010187
v 0.00001515638724 -0.00352629390545 -0.000016812166
v 0.00002102267536 -0.0035288319923 -0.00003279706652
v -0.00156364415307 0.0012792404741 -0.00001071785937
v -0.00156197312754 0.00127949356101 -0.00001116236672
v -0.00000001008348 -0.00351802073419 -0.00000950105732
v 0.00172510836273 0.00180212210398 -0.00000766621633
v -0.00174175517168 0.00179950578604 -0.00004799033923
v -0.00000415843306 0.00353610189632 -0.00005614223119
v 0.00000003951946 -0.00351802073419 -0.00005613776375
v 0.0017268039519 0.00180719781201 -0.0000543011738
v -0.00173306174111 0.00180513877422 -0.00005798109851
v -0.00174075132236 0.00180076633114 -0.00005298927135
v -0.00173754210118 0.00180274504237 -0.00005664611672
v -0.00000830213048 -0.00352473370731 -0.00004614663339
v 0.0017454525223 0.00179927691352 -0.00004262214861
v -0.00000589555475 -0.00352331111208 -0.0000530018151
v -0.00000201167859 -0.00352048850618 -0.00005576458716
v 0.00001519040325 -0.00352629390545 -0.00004879440894
v 0.00000264752271 -0.00352099305019 -0.00005585417239
v 0.00173761695623 0.00180275551975 -0.00005116559987
v -0.00174021127168 0.00179907528218 -0.00004298869317
v 0.0015596790472 0.00128111476079 -0.00003116054722
v 0.00000199788224 -0.00352266291156 -0.00003281730096
v 0.00000132929529 -0.00352180399932 -0.00003509366434
v 0.00155627017375 0.00128134922124 -0.00003448254211
v 0.00000001824741 -0.00351802073419 -0.00003613777881
v -0.00173143111169 0.00180006504524 -0.00003797935278
v -0.00000014072093 -0.00352009572089 -0.00003613366789
v -0.00000203215222 -0.00352048850618 -0.0000365153137
v 0.00155793316662 0.0012811004417 -0.00003403619485
v -0.00000591014259 -0.00352331111208 -0.00003928634396
v 0.00155917264055 0.00128098903224 -0.00003282026955
v -0.00173645932227 0.00179936282802 -0.00003932444815
v -0.00218413025141 0.00318599469028 -0.00003151947021
v -0.00218565925024 0.00318630971014 -0.00003037992246
v -0.0021863039583 0.00318639166653 -0.00002849308112
v 0.00155933958013 0.00128151476383 -0.00002950172166
v -0.00000198422504 -0.00352266989648 -0.00002616983329
v -0.00000130793569 -0.00352180888876 -0.00002845502786
v -0.00000031091375 -0.00351993110962 -0.0000293879184
v -0.00218245969154 0.00318536092527 -0.00003182232831
v 0.00000001118857 -0.00351802073419 -0.00002950104499
v 0.00155677471776 0.0012829269981 -0.00002784526623
v 0.00000034299069 -0.00351992761716 -0.0000296151793
v 0.0000013244545 -0.00352180399932 -0.00003054236731
v 0.00155826820992 0.00128215237055 -0.00002828825382
v 0.00156143284403 0.00128112419043 -0.00002251138176
v 0.00156482809689 0.00127973384224 -0.00002616255006
v 0.00156602065545 0.00127905828413 -0.00003115380241
v -0.00218566320837 0.00318630971014 -0.00002660487189
v 0.0000083394807 -0.00352471927181 -0.00003281055615
v 0.00000593509867 -0.0035233006347 -0.00002596563172
v 0.00000205233005 -0.0035204840824 -0.00002321731517
v 0.00000018392468 -0.00352009385824 -0.00002299266816
v -0.0000013127983 -0.00352180888876 -0.00002388320354
v 0.00155676761642 0.0012829269981 -0.00002117860458
v 0.00000000409788 -0.00351802073419 -0.00002283438334
v -0.00218246667646 0.00318536092527 -0.00002515566484
v -0.00218413653784 0.00318599469028 -0.00002546207725
v -0.00173328362871 0.00180039473344 -0.00004509457358
v -0.00173471786547 0.00180086260661 -0.00004631618503
v 0.00156466814224 0.00127920811065 -0.00003614776142
v -0.00000129155762 -0.00352180888876 -0.00004385326247
v 0.00000022465731 -0.00352010014467 -0.00004289514254
v 0.00000207820904 -0.00352048594505 -0.00004243740841
v 0.00000594966468 -0.0035233006347 -0.0000396605792
v 0.00156111014076 0.00128007237799 -0.00003980632027
v 0.00155627727509 0.00128134922124 -0.00004114920375
v -0.00173142401036 0.00180006504524 -0.00004464601443
v 0.0000000253381 -0.00351802073419 -0.00004280444045
# 133 vertices

vn 0.08986873924732 -0.42076870799065 -0.90270555019379
vn 0.38628995418549 -0.45962557196617 -0.79970270395279
vn -0.21637596189976 -0.45291635394096 -0.86489778757095
vn -0.90331107378006 0.29287588596344 0.3134531378746
vn -0.77864754199982 0.25232177972794 0.5744925737381
vn -0.39986416697502 0.12929691374302 0.90740889310837
vn -0.03850242123008 -0.44874578714371 -0.89282965660095
vn 0.95306551456451 0.29104334115982 -0.08342601358891
vn -0.00106360262726 0 0.9999994635582
vn -0.19073729217052 0.06145036965609 0.9797158241272
vn -0.70257037878036 -0.57196336984634 -0.4233825802803
vn 0.64950507879257 -0.39634251594543 -0.6488881111145
vn 0.83821266889572 -0.39982214570045 -0.37086629867554
vn 0.70636749267578 0.23036760091782 0.66930985450745
vn 0.61339318752289 0.20008818805218 0.76401144266129
vn 0.74918347597122 0.24416971206665 0.6157152056694
vn 0.90231537818909 0.29388505220413 0.31537050008774
vn 0.55754798650742 -0.63812136650085 0.53098148107529
vn -0.90203982591629 -0.29385575652122 -0.31618499755859
vn -0.75982964038849 -0.2476472556591 -0.60110712051392
vn -0.27955621480942 -0.09135512262583 -0.95577329397202
vn 0.0054690730758 0.00144015136175 -0.9999840259552
vn 0.00106360262726 0 -0.9999994635582
vn 0.969870865345 0.23195821046829 0.07447098940611
vn -0.18762178719044 0.0610762052238 -0.98034065961838
vn -0.39768218994141 0.12920309603214 -0.90838068723679
vn 0.93017655611038 0.10999365150928 0.35024708509445
vn -0.77757912874222 0.25241506099701 -0.5758969783783
vn -0.9026346206665 0.29293590784073 -0.31534001231194
vn -0.53016328811646 -0.74484211206436 0.40513840317726
vn -0.33474171161652 -0.81690925359726 0.46968853473663
vn 0.53874170780182 -0.77534335851669 0.32954525947571
vn -0.12341476231813 -0.85011196136475 0.51193600893021
vn -0.77908277511597 -0.25350415706635 0.57338088750839
vn -0.90336525440216 -0.29407525062561 0.31217131018639
vn 0.97944802045822 -0.09748098999262 0.17657572031021
vn -0.69236713647842 0.63041949272156 -0.35099720954895
vn -0.32460215687752 0.87915259599686 -0.34888991713524
vn -0.53747767210007 0.75910031795502 -0.36726614832878
vn -0.0031257676892 -0.00065749633359 0.99999487400055
vn -0.40151819586754 -0.13036544620991 0.90652525424957
vn 0.38213932514191 -0.1254617869854 0.91554838418961
vn 0.25090533494949 -0.08297724276781 0.96444869041443
vn 0.74156045913696 -0.24153339862823 0.62589913606644
vn 0.89592689275742 -0.29106566309929 0.33555287122726
vn -0.10887616872787 0.94079118967056 -0.3210264146328
vn 0.49308699369431 0.84193706512451 -0.21910551190376
vn 0.70445674657822 0.6943821310997 -0.14688122272491
vn 0.24640329182148 0.92914021015167 -0.27565172314644
vn 0.15082660317421 0.95636820793152 -0.2502221763134
vn -0.19335351884365 -0.06252247095108 0.97913497686386
vn 0.76312059164047 -0.24642950296402 -0.59742736816406
vn 0.89802598953247 -0.29063257575035 -0.33027571439743
vn -0.94944649934769 -0.31357276439667 -0.01494768448174
vn -0.9269945025444 -0.37483912706375 0.01329553872347
vn -0.88091099262238 -0.4694789648056 0.05987782403827
vn 0.0031257676892 0.00065749633359 -0.99999487400055
vn 0.37100064754486 -0.11872138082981 -0.92101234197617
vn 0.39983442425728 0.12983401119709 -0.90734535455704
vn 0.18619780242443 0.06026742234826 -0.98066210746765
vn 0.78012716770172 0.2537807226181 -0.57183647155762
vn 0.9033876657486 0.29400983452797 -0.31216821074486
vn -0.01694828271866 -0.9342874288559 0.35611763596535
vn -0.86887007951736 -0.49021890759468 0.06892169266939
vn 0.73589557409286 -0.56813305616379 0.36835104227066
vn 0.86801785230637 -0.38502690196037 0.31352716684341
vn 0.95327937602997 -0.18112421035767 0.24176953732967
vn 0.16464373469353 -0.05168475955725 -0.98499804735184
vn -0.98205959796906 -0.17062045633793 -0.08029674738646
vn -0.31015112996101 0.91471141576767 -0.25905469059944
vn 0.1100941374898 0.92298102378845 -0.36876183748245
vn -0.07968511432409 0.93358999490738 -0.34937086701393
vn 0.31529146432877 0.861452460289 -0.39810928702354
vn 0.46636846661568 0.80471611022949 -0.36733150482178
vn -0.89592838287354 -0.43813523650169 0.07314228266478
vn 0.75391829013824 0.24570706486702 0.60929071903229
vn 0.90204811096191 0.29382720589638 0.31618791818619
vn 0.52270364761353 0.17053221166134 0.83528417348862
vn 0.39765584468842 -0.12920472025871 0.90839195251465
vn 0.18759162724018 -0.06107658147812 0.98034638166428
vn -0.96337276697159 0.07742697000504 -0.25674495100975
vn 0.77757292985916 -0.25239196419716 0.57591551542282
vn 0.90264284610748 -0.29290735721588 0.31534290313721
vn -0.57980304956436 0.68841987848282 -0.43578270077705
vn 0.92606067657471 0.30177947878838 -0.2265850007534
vn -0.39750018715858 -0.12970979511738 -0.90838813781738
vn -0.1875184327364 -0.06133219227195 -0.980344414711
vn -0.77727645635605 -0.25327804684639 -0.57592666149139
vn -0.90231597423553 -0.29391649365425 -0.31533944606781
vn 0.51242113113403 0.7871555685997 0.34323552250862
vn 0.04227516055107 0.72307795286179 0.68947160243988
vn 0.28506878018379 0.77246993780136 0.56747335195541
vn -0.37219950556755 0.74073112010956 0.55927175283432
vn -0.57355964183807 0.75055170059204 0.32817912101746
vn 0.76962786912918 -0.24951440095901 -0.5877206325531
vn 0.90328931808472 -0.29297277331352 -0.3134251832962
vn 0.37331283092499 -0.12068871408701 -0.91982161998749
vn -0.1358085423708 0.66122668981552 0.73779082298279
vn 0.63608378171921 0.60392546653748 0.48028266429901
vn -0.20612321794033 0.59448653459549 0.77723807096481
vn -0.42766872048378 0.47203287482262 0.77089846134186
vn 0.16411396861076 -0.05265412479639 -0.98503512144089
vn -0.77850759029388 -0.25331184267998 0.57424646615982
vn -0.90297067165375 -0.2939532995224 0.31342533230782
vn -0.39945790171623 -0.12970821559429 0.90752917528152
vn -0.36049827933311 0.11656954884529 0.92544722557068
vn -0.12933149933815 0.04158086329699 0.99072921276093
vn -0.77184629440308 0.25007644295692 0.58456403017044
vn -0.90333330631256 0.2928104698658 0.31345000863075
vn 0.49979397654533 0.57966005802155 -0.64358389377594
vn 0.30891481041908 0.49766013026237 -0.81049740314484
vn 0.64627814292908 0.67048639059067 -0.36437976360321
vn 0.91880697011948 0.37299072742462 -0.12911882996559
vn 0.86998856067657 0.41599425673485 -0.26470485329628
vn 0.80147957801819 0.44961002469063 -0.39431124925613
vn 0.57260066270828 -0.04222185537219 0.81874650716782
vn 0.09516596794128 0.34390702843666 -0.93416881561279
vn -0.18963353335857 -0.06133184954524 0.97993749380112
vn -0.11437054723501 0.24240200221539 -0.96341091394424
vn 0.961166203022 0.16223357617855 0.22324827313423
vn -0.67279493808746 -0.57929652929306 0.46017661690712
vn -0.95055067539215 -0.1490693539381 -0.27245500683784
vn 0.79982763528824 -0.11224416643381 0.58964139223099
vn 0.85644298791885 -0.01536524761468 0.5160129070282
vn 0.80810332298279 -0.10186681896448 0.58016562461853
vn 0.87654995918274 0.02892868593335 0.4804407954216
vn 0.92295998334885 0.17917877435684 0.34064617753029
vn -0.7783824801445 0.25260883569717 -0.57472556829453
vn -0.90266513824463 0.29284194111824 -0.315339833498
vn -0.3964586853981 0.12885880470276 -0.90896421670914
vn -0.36701688170433 -0.11978363990784 -0.92246979475021
vn -0.16036120057106 -0.05253460258245 -0.98565936088562
vn -0.76035022735596 -0.24773763120174 -0.60041117668152
vn -0.89627885818481 -0.29191699624062 -0.33386927843094
vn -0.18227401375771 0.05942253768444 -0.98145055770874
vn 0.47248640656471 0.77006304264069 -0.4286718070507
vn -0.3389510512352 0.64931184053421 -0.68081295490265
vn -0.96260327100754 -0.06335519999266 -0.26340284943581
vn 0.4141733944416 0.73394447565079 -0.53831768035889
vn 0.68048465251923 0.62519735097885 -0.38218960165977
vn 0.10350530594587 0.76407170295715 -0.63677394390106
vn -0.82175773382187 0.42715093493462 -0.37716880440712
vn -0.74394297599792 -0.24201060831547 0.62288016080856
vn -0.89698702096939 -0.29191699624062 0.33196195960045
vn -0.3857795894146 -0.12529370188713 0.91404354572296
vn 0.39808392524719 -0.12935754656792 0.90818268060684
vn 0.18937207758427 -0.06170001253486 0.97996497154236
vn 0.77732270956039 -0.25228828191757 0.57629859447479
vn 0.90265935659409 -0.29285022616386 0.31534868478775
vn -0.25460967421532 -0.08256004005671 0.96351325511932
vn -0.82253539562225 -0.10114920884371 0.55964660644531
vn -0.55981546640396 -0.07477188110352 0.82523685693741
vn -0.94629043340683 -0.07037746906281 0.31556531786919
vn -0.41125625371933 -0.05493279546499 0.9098629951477
vn -0.29166036844254 -0.03095480240881 0.95602095127106
vn -0.4386251270771 -0.0866367071867 0.89448422193527
vn -0.45452633500099 -0.09336665272713 0.88582646846771
vn -0.84036910533905 -0.37754166126251 0.38889846205711
vn 0.77907013893127 -0.25248327851295 -0.57384836673737
vn 0.90331989526749 -0.29287877678871 -0.31342494487762
vn 0.39923521876335 -0.12910842895508 -0.90771263837814
vn 0.39224109053612 0.12739039957523 -0.91099870204926
vn 0.21746991574764 0.0704437494278 -0.97352170944214
vn 0.7655628323555 0.24905453622341 -0.59319931268692
vn 0.90300184488297 0.29389080405235 -0.31339401006699
vn 0.1879558712244 -0.06051444634795 -0.98031145334244
# 166 normals

vt 0.49995157122612 0.00212597846985 0
vt 0.5 0 0
vt 0.5 0.00239622592926 0
vt 0.49946200847626 0.00165581703186 0
vt 0.2547627389431 0.75476276874542 0
vt 0.25495859980583 0.75495862960815 0
vt 0.49977412819862 0.00184786319733 0
vt 0.25515449047089 0.75515449047089 0
vt 0.50004839897156 0.00212597846985 0
vt 0.50022584199905 0.00184786319733 0
vt 0.25535038113594 0.75535035133362 0
vt 0.5 1 0
vt 0.74464964866638 0.75535035133362 0
vt 0.50053799152374 0.00165581703186 0
vt 0.74484550952911 0.75515449047089 0
vt 0.74504137039185 0.75495862960815 0
vt 0.74523729085922 0.75476276874542 0
vt 0.72123175859451 0.68088132143021 0
vt 0.7209849357605 0.68092042207718 0
vt 0.72073811292648 0.68095946311951 0
vt 0.72049129009247 0.68099856376648 0
vt 0.2555835545063 0.75463271141052 0
vt 0.25530993938446 0.75467610359192 0
vt 0.25503632426262 0.75471937656403 0
vt 0.72100907564163 0.68099474906921 0
vt 0.19191606342793 0.95058107376099 0
vt 0.72056376934052 0.68122166395187 0
vt 0.72078639268875 0.68110823631287 0
vt 0.19167397916317 0.95066893100739 0
vt 0.19139903783798 0.95069444179535 0
vt 0.19111704826355 0.95064401626587 0
vt 0.74496364593506 0.75471937656403 0
vt 0.74469006061554 0.75467610359192 0
vt 0.27926191687584 0.68095946311951 0
vt 0.27950873970985 0.68099856376648 0
vt 0.27901509404182 0.68092042207718 0
vt 0.27876827120781 0.68088132143021 0
vt 0.74441647529602 0.75463271141052 0
vt 0.27899092435837 0.68099474906921 0
vt 0.27921357750893 0.68110823631287 0
vt 0.80832600593567 0.95066893100739 0
vt 0.80808395147324 0.95058107376099 0
vt 0.27943626046181 0.68122166395187 0
vt 0.80860096216202 0.95069444179535 0
vt 0.80888295173645 0.95064401626587 0
# 45 texture coordinates

o Decagon_web
usemtl Mat
f 7/1/1 15/2/2 17/3/3
f 3/4/4 2/5/4 11/6/5 6/7/5
f 6/7/5 11/6/5 14/8/6 7/1/6
f 8/9/7 15/2/7 4/10/7
f 17/3/8 15/2/8 8/9/8
f 13/11/9 1/12/9 17/3/9
f 1/12/9 16/13/9 17/3/9
f 7/1/6 14/8/6 13/11/10 17/3/10
f 4/10/11 15/2/11 5/14/11
f 6/7/12 15/2/2 7/1/1
f 3/4/13 15/2/2 6/7/12
f 17/3/14 16/13/14 12/15/15 8/9/15
f 8/9/15 12/15/15 10/16/16 4/10/16
f 4/10/16 10/16/16 9/17/17 5/14/17
f 26/10/18 15/2/18 21/9/18
f 20/14/19 27/18/19 29/19/20 26/10/20
f 26/10/20 29/19/20 18/20/21 21/9/21
f 21/9/21 18/20/21 25/21/22 23/3/22
f 25/21/23 22/22/23 23/3/23
f 21/9/24 15/2/24 23/3/24
f 23/3/25 22/22/25 28/23/26 24/1/26
f 20/14/27 15/2/27 26/10/27
f 24/1/26 28/23/26 30/24/28 19/7/28
f 19/7/28 30/24/28 2/5/29 3/4/29
f 23/3/30 15/2/31 24/1/31
f 19/7/32 15/2/32 3/4/32
f 24/1/31 15/2/31 19/7/33
f 33/10/34 41/25/34 27/18/35 20/14/35
f 36/1/36 15/2/36 42/3/36
f 42/3/37 15/2/38 35/9/39
f 43/26/40 39/27/40 42/3/40
f 35/9/41 32/28/41 41/25/34 33/10/34
f 36/1/42 38/29/42 43/26/43 42/3/43
f 40/7/44 31/30/44 38/29/42 36/1/42
f 34/4/45 37/31/45 31/30/44 40/7/44
f 35/9/39 15/2/38 33/10/46
f 40/7/47 15/2/47 36/1/48
f 34/4/49 15/2/47 40/7/47
f 33/10/46 15/2/38 20/14/50
f 42/3/51 39/27/51 32/28/41 35/9/41
f 47/7/52 51/30/52 37/31/53 34/4/53
f 46/1/54 15/2/55 47/7/56
f 54/27/57 52/26/57 53/3/57
f 46/1/58 49/29/58 51/30/52 47/7/52
f 45/9/59 56/28/59 54/27/60 53/3/60
f 44/10/61 55/25/61 56/28/59 45/9/59
f 48/14/62 50/18/62 55/25/61 44/10/61
f 48/14/63 15/2/63 44/10/63
f 47/7/56 15/2/55 34/4/64
f 44/10/65 15/2/66 45/9/66
f 45/9/66 15/2/66 53/3/67
f 53/3/68 52/26/68 49/29/58 46/1/58
f 53/3/69 15/2/55 46/1/54
f 65/4/70 15/2/71 64/7/72
f 69/22/9 67/21/9 68/3/9
f 64/7/72 15/2/71 60/1/73
f 60/1/73 15/2/71 68/3/74
f 68/3/75 15/2/75 59/9/75
f 58/10/76 57/19/76 50/18/77 48/14/77
f 59/9/78 66/20/78 57/19/76 58/10/76
f 60/1/79 61/23/79 69/22/80 68/3/80
f 58/10/81 15/2/81 48/14/81
f 64/7/82 62/24/82 61/23/79 60/1/79
f 65/4/83 63/5/83 62/24/82 64/7/82
f 59/9/84 15/2/84 58/10/84
f 68/3/85 67/21/85 66/20/85 59/9/85
f 80/9/86 76/15/86 74/13/87 72/3/87
f 79/10/88 75/16/88 76/15/86 80/9/86
f 77/14/89 70/17/89 75/16/88 79/10/88
f 77/14/90 15/2/91 79/10/92
f 81/7/93 15/2/93 65/4/94
f 81/7/95 78/6/95 63/5/96 65/4/96
f 82/1/97 83/8/97 78/6/95 81/7/95
f 82/1/98 15/2/93 81/7/93
f 72/3/99 15/2/99 82/1/99
f 79/10/92 15/2/91 80/9/100
f 80/9/100 15/2/91 72/3/101
f 74/13/23 71/12/23 72/3/23
f 71/12/23 73/11/23 72/3/23
f 72/3/102 73/11/102 83/8/97 82/1/97
f 94/10/103 84/32/103 70/17/104 77/14/104
f 92/9/105 96/33/105 84/32/103 94/10/103
f 91/1/106 93/34/106 88/35/107 89/3/107
f 87/7/108 95/36/108 93/34/106 91/1/106
f 86/4/109 85/37/109 95/36/108 87/7/108
f 94/10/110 15/2/111 77/14/112
f 86/4/113 15/2/114 87/7/114
f 87/7/114 15/2/114 91/1/115
f 91/1/116 15/2/116 89/3/116
f 92/9/117 15/2/111 94/10/110
f 88/35/9 90/38/9 89/3/9
f 89/3/118 90/38/118 96/33/105 92/9/105
f 89/3/119 15/2/111 92/9/117
f 108/7/120 15/2/120 86/4/120
f 107/1/121 15/2/121 108/7/121
f 105/3/122 15/2/122 107/1/122
f 103/9/123 15/2/124 105/3/125
f 102/10/126 15/2/124 103/9/123
f 101/14/127 15/2/124 102/10/126
f 108/7/128 100/39/128 85/37/129 86/4/129
f 107/1/130 109/40/130 100/39/128 108/7/128
f 103/9/131 97/41/131 104/42/132 105/3/132
f 104/42/23 106/43/23 105/3/23
f 102/10/133 98/44/133 97/41/131 103/9/131
f 101/14/134 99/45/134 98/44/133 102/10/133
f 105/3/135 106/43/135 109/40/130 107/1/130
f 118/10/136 15/2/136 101/14/136
f 117/9/137 15/2/137 118/10/137
f 120/3/138 15/2/138 117/9/138
f 116/1/139 15/2/139 120/3/140
f 115/7/141 15/2/139 116/1/139
f 114/4/142 15/2/142 115/7/142
f 118/10/143 113/44/143 99/45/144 101/14/144
f 117/9/145 122/41/145 113/44/143 118/10/143
f 119/43/9 121/42/9 120/3/9
f 116/1/146 110/40/146 119/43/147 120/3/147
f 115/7/148 111/39/148 110/40/146 116/1/146
f 114/4/149 112/37/149 111/39/148 115/7/148
f 120/3/150 121/42/150 122/41/145 117/9/145
f 129/7/151 15/2/152 114/4/153
f 128/1/154 15/2/152 129/7/151
f 133/3/155 15/2/152 128/1/154
f 127/9/156 15/2/152 133/3/155
f 126/10/157 15/2/152 127/9/156
f 5/14/158 15/2/158 126/10/158
f 129/7/159 125/36/159 112/37/160 114/4/160
f 132/38/23 131/35/23 133/3/23
f 128/1/161 130/34/161 125/36/159 129/7/159
f 127/9/162 123/33/162 132/38/163 133/3/163
f 126/10/164 124/32/164 123/33/162 127/9/162
f 5/14/165 9/17/165 124/32/164 126/10/164
f 133/3/166 131/35/166 130/34/161 128/1/161

