# WaveFront *.obj file (generated by CINEMA 4D)

mtllib ./DecagonShape_20.mtl

v 0.00448627537116 0.0048122224398 -0.01116422750056
v 0.00467660604045 0.00258169742301 -0.01216555945575
v 0.00001017236264 0.00035203690641 -0.01431157998741
v 0.00000701457702 0.00035643164301 -0.01431026309729
v 0.0000045100428 0.00035701901652 -0.01431057788432
v 0.00000939173879 0.00035434003803 -0.01431068312377
v 0.00000970549536 0.00035640326678 -0.01430964190513
v 0.00000919590275 0.00035685164039 -0.01430955156684
v 0.0020954979118 0.00485273543745 -0.01170890592039
v 0.0020974073559 0.00485270284116 -0.01170847099274
v 0.00467645376921 0.0025834790431 -0.01216475944966
v 0.00209931703284 0.00485267071053 -0.0117080360651
v 0.00467614969239 0.00258704228327 -0.0121631603688
v 0.00467630196363 0.00258526066318 -0.01216395944357
v 0.0000013574886 0.00034917812445 -0.01431829389185
v 0.00210122670978 0.00485263811424 -0.01170760020614
v 0.00001066326604 0.00035783427302 -0.01430874504149
v 0.00493551697582 -0.00045253310236 -0.01352769322693
v 0.00001196976973 0.00035021963413 -0.01431200839579
v 0.00001191589399 0.00034518240136 -0.01431438326836
v 0.00001428363339 0.00034872003016 -0.01431216578931
v 0.00467706192285 0.00257635256276 -0.0121679585427
v 0.00001602218981 0.00034926921944 -0.01431149896234
v 0.000014126721 0.00034933691495 -0.01431191340089
v 0.0049353800714 -0.00045092587243 -0.01352697145194
v 0.00001270174107 0.00034734193468 -0.01431318558753
v 0.00493579125032 -0.00045574767864 -0.0135291358456
v 0.00467691011727 0.00257813418284 -0.01216715946794
v 0.00493565388024 -0.00045414053602 -0.01352841407061
v 0.00467675784603 0.00257991580293 -0.01216635946184
v 0.0052616270259 -0.00427898671478 -0.01524693425745
v 0.00493606552482 -0.00045896213851 -0.01353057846427
v 0.00001231962597 0.00034282932756 -0.0143153918907
v 0.00001051931395 0.00034111691639 -0.01431991532445
v 0.00001363022784 0.00034098472679 -0.01431595813483
v 0.00001339879236 0.00034047855297 -0.01431635580957
v 0.00526154600084 -0.00427909987047 -0.01524893473834
v 0.00526180211455 -0.00427793478593 -0.01524531468749
v 0.0049362028949 -0.00046056928113 -0.01353130023926
v 0.00001143234385 0.00034074930591 -0.01431755907834
v 0.0049359286204 -0.00045735490858 -0.0135298576206
v 0.00001522789171 0.00033988888026 -0.01431608572602
v 0.00526180909947 -0.00427641673014 -0.01524431910366
v 0.00001246424017 0.00034456810681 -0.01432322245091
v 0.00001376849195 0.00034264716669 -0.01432344410568
v 0.00001352716754 0.00034202207462 -0.01432330626994
v 0.00001151752986 0.00034177352791 -0.01432217098773
v 0.00001207787227 0.00034712994238 -0.01432315353304
v 0.00526191992685 -0.00427651405334 -0.01525171007961
v 0.00496664596722 -0.00008476343646 -0.0151997236535
v 0.00526169640943 -0.00427815178409 -0.01525069586933
v 0.00526195019484 -0.00427471799776 -0.01525196898729
v 0.00001536918899 0.00034158778726 -0.01432373560965
v 0.00496701849625 -0.00009005113679 -0.0151997897774
v 0.00496677029878 -0.00008652594261 -0.01519974507391
v 0.00496689463034 -0.00008828854334 -0.01519976742566
v 0.00496652163565 -0.00008300074842 -0.01519970130175
v 0.00001288849762 0.00034958744072 -0.01432329695672
v 0.00001449446518 0.00035125497379 -0.0143235810101
v 0.00001434171372 0.00035192188807 -0.01432355400175
v 0.00473215337843 0.00324235716835 -0.01515823695809
v 0.00473201554269 0.00324431108311 -0.0151582127437
v 0.00473187817261 0.00324626499787 -0.01515818759799
v 0.00001217593945 0.00035269852378 -0.01432317122817
v 0.00001038058235 0.00035454047611 -0.01432285364717
v 0.00496639776975 -0.00008123814769 -0.01519967988133
v 0.00496627343819 -0.00007947564154 -0.01519965752959
v 0.00001625108962 0.00035202139406 -0.01432389207184
v 0.00473229121417 0.00324040325359 -0.01515826117247
v 0.00215076981112 0.00551730301231 -0.01470153406262
v 0.00455947779119 0.00569238001481 -0.01512768678367
v 0.00001092562707 0.00036098877899 -0.0143229495734
v 0.00473146513104 0.00325212650932 -0.01515811495483
v 0.00215654168278 0.00551772210747 -0.01470255572349
v 0.00215269392356 0.00551744224504 -0.01470187492669
v 0.00215461757034 0.00551758240908 -0.01470221485943
v 0.00000471826252 0.00035952255712 -0.01432185154408
v 0.00473174033687 0.0032482186798 -0.0151581633836
v 0.00000723684434 0.00035910407314 -0.0143222976476
v 0.00000943850137 0.00035976854269 -0.01432268694043
v 0.00000961400656 0.00035701249726 -0.01432271767408
v 0.00000994809488 0.00035932016908 -0.01432277727872
v 0.00473160250112 0.00325017259456 -0.01515813916922
v 0.00214884569868 0.00551716284826 -0.01470119412988
v -0.00112931861077 0.00527888862416 -0.01412121579051
v -0.00000274627291 0.00036017326056 -0.01432053092867
v -0.00000046647972 0.00036133808317 -0.01432093419135
v -0.00112411170267 0.00527926720679 -0.01412213686854
v 0.00000142694535 0.00036506471224 -0.01432126946747
v 0.0021449981723 0.00551688298583 -0.01470051333308
v 0.00000093010271 0.00036318984348 -0.01432118099183
v 0.00000160189006 0.00036313128658 -0.01432130020112
v -0.0011258473387 0.00527914101258 -0.01412183046341
v 0.0000026672908 0.00036106488551 -0.01432148832828
v -0.00112758297473 0.00527901481837 -0.01412152312696
v 0.00214692205191 0.00551702314988 -0.01470085326582
v -0.0052568949759 0.00497866794467 -0.01339070592076
v -0.00525826821104 0.00497804163024 -0.01338948775083
v -0.00525883119553 0.004977456294 -0.01338765304536
v -0.0011310542468 0.00527876242995 -0.01412090938538
v -0.00000780433675 0.00035723933252 -0.01431667339057
v -0.00000771411578 0.00035869487328 -0.01431876886636
v -0.00000791083858 0.0003608847037 -0.01431951392442
v -0.00525519810617 0.00497899809852 -0.01339125912637
v -0.00000861678109 0.0003626923135 -0.014319492504
v -0.00113452540245 0.00527851004153 -0.01412029471248
v -0.00000735456842 0.0003612326982 -0.01431970670819
v -0.0000052982391 0.00036019677646 -0.01432007923722
v -0.00113278976642 0.00527863623574 -0.01412060204893
v -0.00116361863911 0.00490796240047 -0.01245141308755
v -0.00116189604159 0.00490793352947 -0.01245102100074
v -0.00116017332766 0.00490790465847 -0.01245062798262
v -0.00525833759457 0.00497720669955 -0.01338572520763
v -0.00000290825119 0.00035822569043 -0.01431176066399
v -0.00000544285376 0.00035845799721 -0.01431224960834
v -0.00000749283163 0.0003595702583 -0.01431222073734
v -0.00000803921284 0.00035934118205 -0.01431256253272
v -0.00000779930269 0.00035767062218 -0.01431415695697
v -0.00116534146946 0.00490799220279 -0.01245180610567
v -0.00000875807928 0.0003609934065 -0.01431184168905
v -0.0052553396672 0.00497729890049 -0.01338360831141
v -0.00525701325387 0.00497724767774 -0.01338430959731
v 0.00209167855792 0.00485279969871 -0.01170977577567
v 0.00209358823486 0.00485276756808 -0.01170934084803
v -0.00115845061373 0.00490787485614 -0.01245023589581
v 0.00000246112063 0.00035858599585 -0.01431032642722
v 0.00000138689711 0.00036054628436 -0.01430965960026
v 0.00000071927155 0.00036065489985 -0.01430976670235
v -0.00000065323684 0.00035909257713 -0.01431082282215
v -0.0011567278998 0.00490784598514 -0.01244984380901
v -0.00115500518586 0.00490781711414 -0.01244945079088
v 0.00208976888098 0.004852832295 -0.01171021070331
v 0.00000119804554 0.00036231250851 -0.01430887542665
# 133 vertices

vn 0.66866677999496 0.10836225003004 -0.73562377691269
vn 0.60366040468216 0.22951921820641 -0.76348876953125
vn 0.75725835561752 -0.10250186175108 -0.6450217962265
vn -0.20875018835068 -0.4153208732605 0.88539928197861
vn -0.20875926315784 -0.41529461741447 0.88540947437286
vn -0.11064451932907 0.79400789737701 -0.59775346517563
vn 0.0090262638405 0.75271391868591 -0.65828591585159
vn 0.16757926344872 0.67002046108246 -0.72318035364151
vn -0.30788680911064 0.83471351861954 -0.4565731883049
vn -0.20874838531017 -0.41528379917145 0.8854171037674
vn -0.20871403813362 -0.41534581780434 0.88539612293243
vn 0.24062757194042 0.62994068861008 -0.7384260892868
vn 0.49326613545418 0.38345724344254 -0.78080028295517
vn 0.44334709644318 0.45156130194664 -0.77429693937302
vn -0.20881341397762 -0.41529724001884 0.88539546728134
vn -0.20878633856773 -0.41529592871666 0.88540250062942
vn -0.2087954133749 -0.41526967287064 0.88541263341904
vn 0.43066284060478 0.24034778773785 -0.8699209690094
vn 0.43466272950172 0.08656420558691 -0.89642339944839
vn 0.42730543017387 -0.03043253533542 -0.90359497070312
vn -0.20875744521618 -0.4152575135231 0.88542729616165
vn 0.41064736247063 -0.22658914327621 -0.88319087028503
vn 0.4316414296627 0.31241062283516 -0.84621822834015
vn 0.07203836739063 0.98303723335266 -0.16866610944271
vn 0.27205523848534 0.79014015197754 -0.54923993349075
vn 0.20227427780628 0.8814445734024 -0.42677932977676
vn 0.35002598166466 0.62805086374283 -0.69500643014908
vn 0.38350170850754 0.55363482236862 -0.73919886350632
vn -0.20885042846203 -0.41634440422058 0.88489478826523
vn 0.13555681705475 -0.03297478333116 -0.9902206659317
vn 0.56171917915344 0.82543504238129 -0.05593337491155
vn 0.5409352183342 0.64433336257935 -0.54057717323303
vn 0.56240290403366 0.7336066365242 -0.38147646188736
vn -0.20867492258549 -0.41426095366478 0.88591343164444
vn -0.40069556236267 -0.59539729356766 0.69638001918793
vn -0.29750317335129 -0.50148522853851 0.81240653991699
vn -0.58692216873169 -0.73522514104843 0.33906683325768
vn -0.64725905656815 -0.75568503141403 0.09997902065516
vn 0.47668212652206 0.48923823237419 -0.73035615682602
vn 0.59738367795944 0.67648613452911 -0.4306962788105
vn 0.49436256289482 0.53085899353027 -0.68832725286484
vn 0.64175510406494 0.75567770004272 -0.13077306747437
vn 0.45008224248886 0.41588318347931 -0.79023236036301
vn -0.20840410888195 -0.41108596324921 0.88745480775833
vn -0.56885713338852 -0.5180789232254 -0.6387454867363
vn -0.63739746809006 -0.63734436035156 -0.43303188681602
vn 0.46564617753029 0.18584574759006 0.86523693799973
vn 0.57654392719269 0.42599099874496 0.69722938537598
vn -0.17421595752239 0 -0.98470747470856
vn -0.37122628092766 -0.24165150523186 -0.89654648303986
vn -0.1741231828928 0.00111278495751 -0.98472326993942
vn -0.17382526397705 0.0046478821896 -0.98476552963257
vn -0.17429456114769 -0.00117366167251 -0.98469287157059
vn 0.41869497299194 0.0389507189393 0.90729123353958
vn 0.5165206193924 0.35080906748772 0.78111428022385
vn 0.44686076045036 0.13049334287643 0.88503497838974
vn 0.63083213567734 0.62431168556213 0.46074479818344
vn 0.54287254810333 0.49886238574982 0.67559289932251
vn 0.55292630195618 0.71984153985977 0.41964358091354
vn -0.26479950547218 -0.10829022526741 -0.95820373296738
vn 0.10090732574463 -0.44993263483047 0.88734340667725
vn 0.3529072701931 0.18583612143993 0.91701763868332
vn 0.24635496735573 0.48137629032135 0.8411813378334
vn 0.32042634487152 0.27222147583961 0.90731602907181
vn 0.18025539815426 0.61643850803375 0.76649302244186
vn 0.0583689250052 0.81872630119324 0.57120954990387
vn 0.38107231259346 -0.58220607042313 0.71820604801178
vn 0.40216103196144 -0.30428150296211 0.86352723836899
vn 0.39545437693596 -0.41325536370277 0.82026571035385
vn 0.39787757396698 -0.15365789830685 0.90447926521301
vn 0.39912021160126 -0.07833911478519 0.91354584693909
vn 0.20952932536602 0.25642523169518 0.94358021020889
vn -0.02000274695456 0.40337136387825 0.9148176908493
vn 0.13677708804607 0.29973658919334 0.94416630268097
vn 0.46245560050011 0.01320521067828 0.88654410839081
vn 0.57459634542465 -0.1198002025485 0.80962151288986
vn 0.41228127479553 0.07802014797926 0.90770977735519
vn 0.64150136709213 -0.21832616627216 0.73539763689041
vn 0.73485857248306 -0.37173336744308 0.56727170944214
vn -0.1377791762352 0.46737185120583 0.8732585310936
vn -0.33030232787132 0.5654970407486 0.75572049617767
vn 0.40862342715263 0.19461849331856 0.89171212911606
vn 0.60749185085297 0.16362965106964 0.77728950977325
vn 0.32283642888069 0.21229356527328 0.92233836650848
vn 0.05969708785415 0.22034198045731 0.97359418869019
vn -0.17066150903702 0.19973047077656 0.96487426757812
vn -0.01537485606968 0.20995153486729 0.97759091854095
vn -0.28461614251137 0.18514451384544 0.94059300422668
vn -0.46777418255806 0.16465845704079 0.86837488412857
vn 0.73162668943405 0.13131958246231 0.66893762350082
vn 0.90364813804626 0.07501998543739 0.42165398597717
vn 0.25250348448753 0.30150759220123 0.9194210767746
vn 0.43936121463776 0.4187003672123 0.79476517438889
vn 0.17064724862576 0.25718683004379 0.95117527246475
vn 0.56015735864639 0.48365983366966 0.67253023386002
vn 0.72427940368652 0.56907868385315 0.38931831717491
vn -0.27550381422043 -0.11872886121273 0.95393979549408
vn 0.48972949385643 0.50237935781479 0.71258682012558
vn 0.30055946111679 0.33111661672592 0.89444160461426
vn -0.17535479366779 -0.00026903330581 -0.98450529575348
vn -0.1731368303299 0.00025487368111 -0.98489773273468
vn -0.26480719447136 -0.10826008021832 -0.95820504426956
vn -0.56882953643799 -0.51806902885437 -0.63877809047699
vn -0.63737058639526 -0.63732945919037 -0.43309342861176
vn -0.1697481572628 0.00105488300323 -0.98548692464828
vn 0.51058459281921 0.75285619497299 -0.41534429788589
vn 0.3292510509491 0.67613023519516 -0.65912187099457
vn -0.24081552028656 0.29818013310432 -0.92363220453262
vn 0.57968580722809 0.71840083599091 -0.38453167676926
vn 0.46377643942833 0.71222257614136 -0.52692544460297
vn 0.73305422067642 0.67467999458313 -0.08624610304832
vn 0.28235596418381 0.66022717952728 -0.69597071409225
vn 0.20198877155781 0.63417518138886 -0.74633932113647
vn -0.58691245317459 -0.73521983623505 0.33909514546394
vn -0.64722663164139 -0.75571364164352 0.09997317194939
vn -0.40066039562225 -0.59539061784744 0.6964059472084
vn -0.20765326917171 -0.41514548659325 0.88573944568634
vn -0.20429940521717 -0.41467666625977 0.88673841953278
vn -0.20988112688065 -0.41543364524841 0.88507896661758
vn -0.20872129499912 -0.41528245806694 0.88542413711548
vn -0.29752814769745 -0.50148391723633 0.81239825487137
vn 0.01740060001612 0.60398834943771 -0.79680317640305
vn -0.13816641271114 0.59057545661926 -0.79506647586823
vn 0.09215018153191 0.61111444234848 -0.78615999221802
vn -0.25282320380211 0.56795334815979 -0.78326845169067
vn -0.43820139765739 0.52027297019958 -0.73300445079803
vn 0.7536803483963 0.39629054069519 -0.52432787418365
vn 0.63318359851837 0.47239142656326 -0.61312711238861
vn 0.91732162237167 0.23929497599602 -0.31821206212044
vn 0.43822503089905 0.55044621229172 -0.71061086654663
vn 0.35343036055565 0.58009326457977 -0.7338792681694
# 131 normals

vt 0.49995157122612 0.00212597846985 0
vt 0.5 0 0
vt 0.5 0.00239622592926 0
vt 0.49946200847626 0.00165581703186 0
vt 0.2547627389431 0.75476276874542 0
vt 0.25495859980583 0.75495862960815 0
vt 0.49977412819862 0.00184786319733 0
vt 0.25515449047089 0.75515449047089 0
vt 0.50004839897156 0.00212597846985 0
vt 0.50022584199905 0.00184786319733 0
vt 0.25535038113594 0.75535035133362 0
vt 0.5 1 0
vt 0.74464964866638 0.75535035133362 0
vt 0.50053799152374 0.00165581703186 0
vt 0.74484550952911 0.75515449047089 0
vt 0.74504137039185 0.75495862960815 0
vt 0.74523729085922 0.75476276874542 0
vt 0.72123175859451 0.68088132143021 0
vt 0.7209849357605 0.68092042207718 0
vt 0.72073811292648 0.68095946311951 0
vt 0.72049129009247 0.68099856376648 0
vt 0.2555835545063 0.75463271141052 0
vt 0.25530993938446 0.75467610359192 0
vt 0.25503632426262 0.75471937656403 0
vt 0.72100907564163 0.68099474906921 0
vt 0.19191606342793 0.95058107376099 0
vt 0.72056376934052 0.68122166395187 0
vt 0.72078639268875 0.68110823631287 0
vt 0.19167397916317 0.95066893100739 0
vt 0.19139903783798 0.95069444179535 0
vt 0.19111704826355 0.95064401626587 0
vt 0.74496364593506 0.75471937656403 0
vt 0.74469006061554 0.75467610359192 0
vt 0.27926191687584 0.68095946311951 0
vt 0.27950873970985 0.68099856376648 0
vt 0.27901509404182 0.68092042207718 0
vt 0.27876827120781 0.68088132143021 0
vt 0.74441647529602 0.75463271141052 0
vt 0.27899092435837 0.68099474906921 0
vt 0.27921357750893 0.68110823631287 0
vt 0.80832600593567 0.95066893100739 0
vt 0.80808395147324 0.95058107376099 0
vt 0.27943626046181 0.68122166395187 0
vt 0.80860096216202 0.95069444179535 0
vt 0.80888295173645 0.95064401626587 0
# 45 texture coordinates

o Decagon_web
usemtl Mat
f 7/1/1 15/2/2 17/3/3
f 3/4/4 2/5/4 11/6/5 6/7/5
f 6/7/5 11/6/5 14/8/4 7/1/4
f 8/9/6 15/2/7 4/10/8
f 17/3/9 15/2/7 8/9/6
f 13/11/10 1/12/10 17/3/10
f 1/12/10 16/13/10 17/3/10
f 7/1/4 14/8/4 13/11/11 17/3/11
f 4/10/8 15/2/7 5/14/12
f 6/7/13 15/2/2 7/1/1
f 3/4/14 15/2/2 6/7/13
f 17/3/15 16/13/15 12/15/16 8/9/16
f 8/9/16 12/15/16 10/16/5 4/10/5
f 4/10/5 10/16/5 9/17/17 5/14/17
f 26/10/18 15/2/19 21/9/20
f 20/14/5 27/18/5 29/19/5 26/10/5
f 26/10/5 29/19/5 18/20/10 21/9/10
f 21/9/10 18/20/10 25/21/21 23/3/21
f 25/21/10 22/22/10 23/3/10
f 21/9/20 15/2/19 23/3/22
f 23/3/5 22/22/5 28/23/5 24/1/5
f 20/14/23 15/2/19 26/10/18
f 24/1/5 28/23/5 30/24/5 19/7/5
f 19/7/5 30/24/5 2/5/10 3/4/10
f 23/3/24 15/2/25 24/1/26
f 19/7/27 15/2/25 3/4/28
f 24/1/26 15/2/25 19/7/27
f 33/10/29 41/25/29 27/18/10 20/14/10
f 36/1/30 15/2/30 42/3/30
f 42/3/31 15/2/32 35/9/33
f 43/26/10 39/27/10 42/3/10
f 35/9/34 32/28/34 41/25/29 33/10/29
f 36/1/35 38/29/35 43/26/36 42/3/36
f 40/7/37 31/30/37 38/29/35 36/1/35
f 34/4/38 37/31/38 31/30/37 40/7/37
f 35/9/33 15/2/32 33/10/39
f 40/7/40 15/2/40 36/1/41
f 34/4/42 15/2/40 40/7/40
f 33/10/39 15/2/32 20/14/43
f 42/3/44 39/27/44 32/28/34 35/9/34
f 47/7/45 51/30/45 37/31/46 34/4/46
f 46/1/47 15/2/48 47/7/48
f 54/27/49 52/26/49 53/3/49
f 46/1/50 49/29/50 51/30/45 47/7/45
f 45/9/51 56/28/51 54/27/52 53/3/52
f 44/10/53 55/25/53 56/28/51 45/9/51
f 48/14/49 50/18/49 55/25/53 44/10/53
f 48/14/54 15/2/55 44/10/56
f 47/7/48 15/2/48 34/4/57
f 44/10/56 15/2/55 45/9/58
f 45/9/58 15/2/55 53/3/59
f 53/3/60 52/26/60 49/29/50 46/1/50
f 53/3/61 15/2/61 46/1/61
f 65/4/62 15/2/63 64/7/64
f 69/22/49 67/21/49 68/3/49
f 64/7/64 15/2/63 60/1/65
f 60/1/65 15/2/63 68/3/66
f 68/3/67 15/2/68 59/9/69
f 58/10/49 57/19/49 50/18/49 48/14/49
f 59/9/49 66/20/49 57/19/49 58/10/49
f 60/1/49 61/23/49 69/22/49 68/3/49
f 58/10/70 15/2/68 48/14/71
f 64/7/49 62/24/49 61/23/49 60/1/49
f 65/4/49 63/5/49 62/24/49 64/7/49
f 59/9/69 15/2/68 58/10/70
f 68/3/49 67/21/49 66/20/49 59/9/49
f 80/9/49 76/15/49 74/13/49 72/3/49
f 79/10/49 75/16/49 76/15/49 80/9/49
f 77/14/49 70/17/49 75/16/49 79/10/49
f 77/14/72 15/2/73 79/10/74
f 81/7/75 15/2/76 65/4/77
f 81/7/49 78/6/49 63/5/49 65/4/49
f 82/1/49 83/8/49 78/6/49 81/7/49
f 82/1/78 15/2/76 81/7/75
f 72/3/79 15/2/76 82/1/78
f 79/10/74 15/2/73 80/9/80
f 80/9/80 15/2/73 72/3/81
f 74/13/49 71/12/49 72/3/49
f 71/12/49 73/11/49 72/3/49
f 72/3/49 73/11/49 83/8/49 82/1/49
f 94/10/49 84/32/49 70/17/49 77/14/49
f 92/9/49 96/33/49 84/32/49 94/10/49
f 91/1/49 93/34/49 88/35/49 89/3/49
f 87/7/49 95/36/49 93/34/49 91/1/49
f 86/4/49 85/37/49 95/36/49 87/7/49
f 94/10/82 15/2/83 77/14/84
f 86/4/85 15/2/86 87/7/87
f 87/7/87 15/2/86 91/1/88
f 91/1/88 15/2/86 89/3/89
f 92/9/90 15/2/83 94/10/82
f 88/35/49 90/38/49 89/3/49
f 89/3/49 90/38/49 96/33/49 92/9/49
f 89/3/91 15/2/83 92/9/90
f 108/7/92 15/2/93 86/4/94
f 107/1/95 15/2/93 108/7/92
f 105/3/96 15/2/93 107/1/95
f 103/9/97 15/2/97 105/3/97
f 102/10/98 15/2/98 103/9/99
f 101/14/57 15/2/98 102/10/98
f 108/7/100 100/39/100 85/37/49 86/4/49
f 107/1/101 109/40/101 100/39/100 108/7/100
f 103/9/50 97/41/50 104/42/102 105/3/102
f 104/42/49 106/43/49 105/3/49
f 102/10/103 98/44/103 97/41/50 103/9/50
f 101/14/104 99/45/104 98/44/103 102/10/103
f 105/3/105 106/43/105 109/40/101 107/1/101
f 118/10/106 15/2/106 101/14/42
f 117/9/107 15/2/106 118/10/106
f 120/3/108 15/2/108 117/9/108
f 116/1/109 15/2/110 120/3/111
f 115/7/112 15/2/110 116/1/109
f 114/4/113 15/2/110 115/7/112
f 118/10/114 113/44/114 99/45/115 101/14/115
f 117/9/116 122/41/116 113/44/114 118/10/114
f 119/43/10 121/42/10 120/3/10
f 116/1/117 110/40/117 119/43/118 120/3/118
f 115/7/119 111/39/119 110/40/117 116/1/117
f 114/4/120 112/37/120 111/39/119 115/7/119
f 120/3/121 121/42/121 122/41/116 117/9/116
f 129/7/122 15/2/123 114/4/124
f 128/1/125 15/2/123 129/7/122
f 133/3/126 15/2/123 128/1/125
f 127/9/127 15/2/128 133/3/129
f 126/10/130 15/2/128 127/9/127
f 5/14/131 15/2/128 126/10/130
f 129/7/5 125/36/5 112/37/10 114/4/10
f 132/38/10 131/35/10 133/3/10
f 128/1/5 130/34/5 125/36/5 129/7/5
f 127/9/5 123/33/5 132/38/17 133/3/17
f 126/10/10 124/32/10 123/33/5 127/9/5
f 5/14/21 9/17/21 124/32/10 126/10/10
f 133/3/5 131/35/5 130/34/5 128/1/5

