# WaveFront *.obj file (generated by CINEMA 4D)

mtllib ./DecagonShape_8.mtl

v -0.00706948293373 0.00665543694049 -0.01478012278676
v -0.00534864095971 0.00490853423253 -0.01481425389647
v -0.00001173360852 0.00659927679226 -0.01492010802031
v -0.00001305180285 0.00660468777642 -0.01492008194327
v -0.00001167719256 0.00660688476637 -0.01492010895163
v -0.00001307548791 0.00660149380565 -0.01492008194327
v -0.00001503202384 0.00660276319832 -0.01492004282773
v -0.00001502694613 0.00660344772041 -0.01492004282773
v -0.0053229238838 0.00837661791593 -0.01481476426125
v -0.00532431853935 0.00837524328381 -0.01481473632157
v -0.00535001512617 0.00490992981941 -0.01481422688812
v -0.00532571366057 0.00837386772037 -0.01481470931321
v -0.00535276439041 0.0049127205275 -0.01481417194009
v -0.00535138975829 0.00491132494062 -0.01481419987977
v 0 0.00660299416631 -0.01492034085095
v -0.00532710878178 0.00837249401957 -0.01481468137354
v -0.00001694021375 0.0066031194292 -0.0149200046435
v -0.00300774211064 0.00253218505532 -0.01486068405211
v -0.00001155460541 0.00659669144079 -0.0149201117456
v -0.00000730818601 0.00659308861941 -0.01492019556463
v -0.00001202549265 0.00659396965057 -0.01492010243237
v -0.00534451706335 0.00490434840322 -0.01481433585286
v -0.00001377877197 0.00659313658252 -0.01492006797343
v -0.00001242376766 0.00659452658147 -0.01492009405047
v -0.00300898216665 0.00253344397061 -0.01486065983772
v -0.00000969671783 0.00659409305081 -0.0149201489985
v -0.00300526223145 0.0025296676904 -0.01486073341221
v -0.00534589169547 0.00490574399009 -0.01481430884451
v -0.00300650205463 0.00253092660569 -0.01486070919782
v -0.00534726632759 0.00490713911131 -0.01481428183615
v -0.00005441437315 -0.00046452030074 -0.01491926144809
v -0.00300278211944 0.00252715032548 -0.0148607827723
v -0.00000564394077 0.00659110210836 -0.01492022909224
v -0.00000009128455 0.00659068394452 -0.0149203389883
v -0.00000507513232 0.00658883992583 -0.01492024026811
v -0.00000442563078 0.00658862339333 -0.01492025330663
v -0.00005241017789 -0.00046481244499 -0.01491930149496
v -0.00005620141019 -0.00046373467194 -0.01491922605783
v -0.00300154229626 0.00252589141019 -0.01486080698669
v -0.00000261413243 0.00659009255469 -0.01492028869689
v -0.00300402217545 0.00252840877511 -0.01486075855792
v -0.00000535430672 0.00658691860735 -0.01492023468018
v -0.00005762878573 -0.00046260483214 -0.01491919811815
v 0.00000546696356 0.00659101968631 -0.01492044888437
v 0.00000486467115 0.00658876635134 -0.0149204377085
v 0.00000421203185 0.00658855959773 -0.01492042466998
v 0.0000024225169 0.00659005530179 -0.01492038927972
v 0.00000716048498 0.00659298105165 -0.0149204833433
v -0.00004860320769 -0.00046379116247 -0.01491937693208
v 0.00294452463277 0.00248553068377 -0.01497874315828
v -0.0000504020536 -0.00046454992844 -0.01491934154183
v -0.00004715934847 -0.00046268219012 -0.01491940580308
v 0.00000511532153 0.00658684084192 -0.01492044236511
v 0.00294074905105 0.00248181005009 -0.01497866865247
v 0.00294326618314 0.00248429039493 -0.01497871894389
v 0.00294200773351 0.00248305010609 -0.01497869379818
v 0.00294578331523 0.00248677097261 -0.01497876830399
v 0.00000956365511 0.00659395055845 -0.01492053084075
v 0.00001189034265 0.00659379223362 -0.01492057647556
v 0.00001229683403 0.00659434357658 -0.01492058485746
v 0.00532013364136 0.0048266206868 -0.01502586249262
v 0.00532152829692 0.00482799531892 -0.01502588950098
v 0.0053229238838 0.00482936995104 -0.01502591744065
v 0.00001145986425 0.0065965205431 -0.01492056809366
v 0.00001167719256 0.0065991031006 -0.01492057275027
v 0.00294704176486 0.00248801102862 -0.0149787934497
v 0.00294830021448 0.00248925131746 -0.01497881859541
v 0.00001363107094 0.00659293308854 -0.0149206109345
v 0.00531873852015 0.00482524558902 -0.01502583455294
v 0.00534864095971 0.00829745363444 -0.01502642780542
v 0.00706948293373 0.00655055092648 -0.01506055891514
v 0.00001694021375 0.00660286843777 -0.0149206770584
v 0.00532710878178 0.00483349431306 -0.01502600032836
v 0.00535276439041 0.00829326733947 -0.01502650976181
v 0.00535001512617 0.0082960575819 -0.01502645481378
v 0.00535138975829 0.00829466339201 -0.01502648182213
v 0.00001173360852 0.00660671107471 -0.01492057368159
v 0.00532431853935 0.00483074504882 -0.01502594538033
v 0.00001307548791 0.00660449406132 -0.01492060068995
v 0.00001503202384 0.00660322466865 -0.01492063887417
v 0.00001305180285 0.00660130009055 -0.01492059975863
v 0.00001502694613 0.00660254014656 -0.01492063887417
v 0.00532571366057 0.00483211968094 -0.01502597332001
v 0.00534726632759 0.00829884875566 -0.01502640079707
v 0.00300526223145 0.01067632064223 -0.01497994828969
v 0.00000730818601 0.00661289971322 -0.01492048613727
v 0.00000969671783 0.00661189481616 -0.01492053363472
v 0.00300898216665 0.01067254412919 -0.01498002186418
v 0.00001377877197 0.00661285128444 -0.01492061372846
v 0.00534451706335 0.00830163899809 -0.01502634584904
v 0.00001202549265 0.0066120182164 -0.01492057926953
v 0.00001242376766 0.0066114612855 -0.01492058765143
v 0.00300774211064 0.01067380327731 -0.01497999764979
v 0.00001155460541 0.00660929689184 -0.0149205699563
v 0.00300650205463 0.01067506149411 -0.01497997250408
v 0.00534589169547 0.00830024387687 -0.01502637285739
v 0.00005620141019 0.01366972271353 -0.01492145564407
v 0.00005441437315 0.01367050781846 -0.01492142025381
v 0.00005241017789 0.01367080025375 -0.01492138020694
v 0.00300402217545 0.01067757885903 -0.01497992407531
v 0.00000009128455 0.00661530438811 -0.01492034271359
v 0.00000261413243 0.00661589531228 -0.01492039300501
v 0.00000442563078 0.00661736447364 -0.01492042839527
v 0.00005762878573 0.01366859301925 -0.01492148358375
v 0.00000535430672 0.00661906925961 -0.01492044702172
v 0.00300154229626 0.01068009622395 -0.01497987471521
v 0.00000507513232 0.00661714794114 -0.01492044143379
v 0.00000564394077 0.00661488575861 -0.01492045260966
v 0.00300278211944 0.01067883800715 -0.0149798989296
v -0.00294200773351 0.01072293799371 -0.01486198790371
v -0.00294326618314 0.01072169747204 -0.014861962758
v -0.00294452463277 0.01072045695037 -0.01486193854362
v 0.0000504020536 0.01367053762078 -0.01492134016007
v -0.00000716048498 0.00661300681531 -0.01492019928992
v -0.00000546696356 0.00661496818066 -0.01492023281753
v -0.00000486467115 0.00661722198129 -0.0149202439934
v -0.00000421203185 0.0066174287349 -0.01492025703192
v -0.0000024225169 0.00661593303084 -0.01492029242218
v -0.00294074905105 0.01072417758405 -0.01486201304942
v -0.00000511532153 0.00661914702505 -0.01492023933679
v 0.00004715934847 0.01366867031902 -0.01492127589881
v 0.00004860320769 0.01366977952421 -0.01492130476981
v -0.00532013364136 0.00837936718017 -0.01481481920928
v -0.00532152829692 0.00837799254805 -0.01481479220092
v -0.00294578331523 0.01071921736002 -0.01486191339791
v -0.00001145986425 0.00660946732387 -0.01492011360824
v -0.00001229683403 0.00661164475605 -0.01492009684443
v -0.00001189034265 0.00661219563335 -0.01492010522634
v -0.00000956365511 0.00661203777418 -0.01492015086114
v -0.00294704176486 0.01071797683835 -0.0148618882522
v -0.00294830021448 0.01071673631668 -0.01486186310649
v -0.00531873852015 0.00838074274361 -0.01481484714895
v -0.00001363107094 0.00661305477843 -0.0149200707674
# 133 vertices

vn 0.01983042992651 0 0.99980336427689
vn -0.01983042992651 0 -0.99980336427689
# 2 normals

vt 0.49995157122612 0.00212597846985 0
vt 0.5 0 0
vt 0.5 0.00239622592926 0
vt 0.49946200847626 0.00165581703186 0
vt 0.2547627389431 0.75476276874542 0
vt 0.25495859980583 0.75495862960815 0
vt 0.49977412819862 0.00184786319733 0
vt 0.25515449047089 0.75515449047089 0
vt 0.50004839897156 0.00212597846985 0
vt 0.50022584199905 0.00184786319733 0
vt 0.25535038113594 0.75535035133362 0
vt 0.5 1 0
vt 0.74464964866638 0.75535035133362 0
vt 0.50053799152374 0.00165581703186 0
vt 0.74484550952911 0.75515449047089 0
vt 0.74504137039185 0.75495862960815 0
vt 0.74523729085922 0.75476276874542 0
vt 0.72123175859451 0.68088132143021 0
vt 0.7209849357605 0.68092042207718 0
vt 0.72073811292648 0.68095946311951 0
vt 0.72049129009247 0.68099856376648 0
vt 0.2555835545063 0.75463271141052 0
vt 0.25530993938446 0.75467610359192 0
vt 0.25503632426262 0.75471937656403 0
vt 0.72100907564163 0.68099474906921 0
vt 0.19191606342793 0.95058107376099 0
vt 0.72056376934052 0.68122166395187 0
vt 0.72078639268875 0.68110823631287 0
vt 0.19167397916317 0.95066893100739 0
vt 0.19139903783798 0.95069444179535 0
vt 0.19111704826355 0.95064401626587 0
vt 0.74496364593506 0.75471937656403 0
vt 0.74469006061554 0.75467610359192 0
vt 0.27926191687584 0.68095946311951 0
vt 0.27950873970985 0.68099856376648 0
vt 0.27901509404182 0.68092042207718 0
vt 0.27876827120781 0.68088132143021 0
vt 0.74441647529602 0.75463271141052 0
vt 0.27899092435837 0.68099474906921 0
vt 0.27921357750893 0.68110823631287 0
vt 0.80832600593567 0.95066893100739 0
vt 0.80808395147324 0.95058107376099 0
vt 0.27943626046181 0.68122166395187 0
vt 0.80860096216202 0.95069444179535 0
vt 0.80888295173645 0.95064401626587 0
# 45 texture coordinates

o Decagon_web
usemtl Mat
f 7/1/1 15/2/1 17/3/1
f 3/4/2 2/5/2 11/6/2 6/7/2
f 6/7/2 11/6/2 14/8/2 7/1/2
f 8/9/1 15/2/1 4/10/1
f 17/3/1 15/2/1 8/9/1
f 13/11/2 1/12/2 17/3/2
f 1/12/2 16/13/2 17/3/2
f 7/1/2 14/8/2 13/11/2 17/3/2
f 4/10/1 15/2/1 5/14/1
f 6/7/1 15/2/1 7/1/1
f 3/4/1 15/2/1 6/7/1
f 17/3/2 16/13/2 12/15/2 8/9/2
f 8/9/2 12/15/2 10/16/2 4/10/2
f 4/10/2 10/16/2 9/17/2 5/14/2
f 26/10/1 15/2/1 21/9/1
f 20/14/2 27/18/2 29/19/2 26/10/2
f 26/10/2 29/19/2 18/20/2 21/9/2
f 21/9/2 18/20/2 25/21/2 23/3/2
f 25/21/2 22/22/2 23/3/2
f 21/9/1 15/2/1 23/3/1
f 23/3/2 22/22/2 28/23/2 24/1/2
f 20/14/1 15/2/1 26/10/1
f 24/1/2 28/23/2 30/24/2 19/7/2
f 19/7/2 30/24/2 2/5/2 3/4/2
f 23/3/1 15/2/1 24/1/1
f 19/7/1 15/2/1 3/4/1
f 24/1/1 15/2/1 19/7/1
f 33/10/2 41/25/2 27/18/2 20/14/2
f 36/1/1 15/2/1 42/3/1
f 42/3/1 15/2/1 35/9/1
f 43/26/2 39/27/2 42/3/2
f 35/9/2 32/28/2 41/25/2 33/10/2
f 36/1/2 38/29/2 43/26/2 42/3/2
f 40/7/2 31/30/2 38/29/2 36/1/2
f 34/4/2 37/31/2 31/30/2 40/7/2
f 35/9/1 15/2/1 33/10/1
f 40/7/1 15/2/1 36/1/1
f 34/4/1 15/2/1 40/7/1
f 33/10/1 15/2/1 20/14/1
f 42/3/2 39/27/2 32/28/2 35/9/2
f 47/7/2 51/30/2 37/31/2 34/4/2
f 46/1/1 15/2/1 47/7/1
f 54/27/2 52/26/2 53/3/2
f 46/1/2 49/29/2 51/30/2 47/7/2
f 45/9/2 56/28/2 54/27/2 53/3/2
f 44/10/2 55/25/2 56/28/2 45/9/2
f 48/14/2 50/18/2 55/25/2 44/10/2
f 48/14/1 15/2/1 44/10/1
f 47/7/1 15/2/1 34/4/1
f 44/10/1 15/2/1 45/9/1
f 45/9/1 15/2/1 53/3/1
f 53/3/2 52/26/2 49/29/2 46/1/2
f 53/3/1 15/2/1 46/1/1
f 65/4/1 15/2/1 64/7/1
f 69/22/2 67/21/2 68/3/2
f 64/7/1 15/2/1 60/1/1
f 60/1/1 15/2/1 68/3/1
f 68/3/1 15/2/1 59/9/1
f 58/10/2 57/19/2 50/18/2 48/14/2
f 59/9/2 66/20/2 57/19/2 58/10/2
f 60/1/2 61/23/2 69/22/2 68/3/2
f 58/10/1 15/2/1 48/14/1
f 64/7/2 62/24/2 61/23/2 60/1/2
f 65/4/2 63/5/2 62/24/2 64/7/2
f 59/9/1 15/2/1 58/10/1
f 68/3/2 67/21/2 66/20/2 59/9/2
f 80/9/2 76/15/2 74/13/2 72/3/2
f 79/10/2 75/16/2 76/15/2 80/9/2
f 77/14/2 70/17/2 75/16/2 79/10/2
f 77/14/1 15/2/1 79/10/1
f 81/7/1 15/2/1 65/4/1
f 81/7/2 78/6/2 63/5/2 65/4/2
f 82/1/2 83/8/2 78/6/2 81/7/2
f 82/1/1 15/2/1 81/7/1
f 72/3/1 15/2/1 82/1/1
f 79/10/1 15/2/1 80/9/1
f 80/9/1 15/2/1 72/3/1
f 74/13/2 71/12/2 72/3/2
f 71/12/2 73/11/2 72/3/2
f 72/3/2 73/11/2 83/8/2 82/1/2
f 94/10/2 84/32/2 70/17/2 77/14/2
f 92/9/2 96/33/2 84/32/2 94/10/2
f 91/1/2 93/34/2 88/35/2 89/3/2
f 87/7/2 95/36/2 93/34/2 91/1/2
f 86/4/2 85/37/2 95/36/2 87/7/2
f 94/10/1 15/2/1 77/14/1
f 86/4/1 15/2/1 87/7/1
f 87/7/1 15/2/1 91/1/1
f 91/1/1 15/2/1 89/3/1
f 92/9/1 15/2/1 94/10/1
f 88/35/2 90/38/2 89/3/2
f 89/3/2 90/38/2 96/33/2 92/9/2
f 89/3/1 15/2/1 92/9/1
f 108/7/1 15/2/1 86/4/1
f 107/1/1 15/2/1 108/7/1
f 105/3/1 15/2/1 107/1/1
f 103/9/1 15/2/1 105/3/1
f 102/10/1 15/2/1 103/9/1
f 101/14/1 15/2/1 102/10/1
f 108/7/2 100/39/2 85/37/2 86/4/2
f 107/1/2 109/40/2 100/39/2 108/7/2
f 103/9/2 97/41/2 104/42/2 105/3/2
f 104/42/2 106/43/2 105/3/2
f 102/10/2 98/44/2 97/41/2 103/9/2
f 101/14/2 99/45/2 98/44/2 102/10/2
f 105/3/2 106/43/2 109/40/2 107/1/2
f 118/10/1 15/2/1 101/14/1
f 117/9/1 15/2/1 118/10/1
f 120/3/1 15/2/1 117/9/1
f 116/1/1 15/2/1 120/3/1
f 115/7/1 15/2/1 116/1/1
f 114/4/1 15/2/1 115/7/1
f 118/10/2 113/44/2 99/45/2 101/14/2
f 117/9/2 122/41/2 113/44/2 118/10/2
f 119/43/2 121/42/2 120/3/2
f 116/1/2 110/40/2 119/43/2 120/3/2
f 115/7/2 111/39/2 110/40/2 116/1/2
f 114/4/2 112/37/2 111/39/2 115/7/2
f 120/3/2 121/42/2 122/41/2 117/9/2
f 129/7/1 15/2/1 114/4/1
f 128/1/1 15/2/1 129/7/1
f 133/3/1 15/2/1 128/1/1
f 127/9/1 15/2/1 133/3/1
f 126/10/1 15/2/1 127/9/1
f 5/14/1 15/2/1 126/10/1
f 129/7/2 125/36/2 112/37/2 114/4/2
f 132/38/2 131/35/2 133/3/2
f 128/1/2 130/34/2 125/36/2 129/7/2
f 127/9/2 123/33/2 132/38/2 133/3/2
f 126/10/2 124/32/2 123/33/2 127/9/2
f 5/14/2 9/17/2 124/32/2 126/10/2
f 133/3/2 131/35/2 130/34/2 128/1/2

