# WaveFront *.obj file (generated by CINEMA 4D)

mtllib ./DecagonShape_89.mtl

v 0.00002811879676 0.01760369352996 0.00002840668094
v -0.00110194133595 0.01569487713277 0.00112358434126
v 0.00000700797227 0.00984493643045 0.00002587352355
v 0.00002822810529 0.00985040236264 0.0000268246913
v 0.00002705218139 0.00984945707023 0.00002477226735
v 0.00001768323091 0.00984711199999 0.00003137416206
v 0.00002525706441 0.00985124148428 0.00003034525616
v 0.00002754310844 0.00985209923238 0.00002872180812
v 0.0011360013159 0.0156993996352 -0.00107293832116
v 0.00113707780838 0.01570047996938 -0.00107165880036
v -0.00109490030445 0.01569656468928 0.00112832966261
v 0.00113736861385 0.01570182293653 -0.0010702299187
v -0.00108060543425 0.01570331864059 0.00112589460332
v -0.00108707358595 0.01569956168532 0.00112915830687
v 0.00001848026659 0.00983450002968 0.00002671163929
v 0.00113684299868 0.01570331864059 -0.00106908124872
v 0.00002811879676 0.00985456351191 0.00002840668094
v 0.00100609112997 0.01512436382473 -0.00098839972634
v 0.00000161635376 0.00984711199999 0.00001514278938
v 0.00000299696717 0.00984719395638 -0.00000765681398
v 0.00000437545759 0.0098520629108 0.00000512095721
v -0.00110297743231 0.01569774374366 0.00110117986333
v 0.00000468997587 0.00985456351191 0.00000473799264
v 0.00000271396016 0.00985124055296 0.00000757344833
v 0.00100393116008 0.01512577198446 -0.00098437652923
v 0.00000628310681 0.00984875578433 -0.00000126035854
v 0.00100315583404 0.01512324344367 -0.0009976796573
v -0.00110665906686 0.01569584570825 0.00110796326771
v 0.00100580195431 0.01512341015041 -0.0009932636749
v -0.00110626255628 0.01569470576942 0.00111614668276
v -0.0014066133881 0.01722086407244 0.00137563166209
v 0.0009941252647 0.01512551866472 -0.00100092613138
v -0.00000336568428 0.00984875578433 -0.00001100793543
v -0.00000831333637 0.00984945707023 -0.00000584157124
v -0.00000779463426 0.00985185429454 -0.00001050256924
v -0.00000915332475 0.00985228549689 -0.00000947725584
v -0.00140569743235 0.01722095534205 0.00137738091871
v -0.0014064371353 0.01722051762044 0.0013738515554
v 0.00099018984474 0.01512750517577 -0.00099891575519
v -0.00000948926026 0.00985040236264 -0.00000789399473
v 0.00099887652323 0.01512398757041 -0.00100047909655
v -0.00000937995173 0.00985456351191 -0.00000947598528
v -0.00140558124986 0.01721981912851 0.00137257564347
v -0.00000310695464 0.00985040236264 -0.0000048311822
v -0.00000439471341 0.00985246710479 -0.00000486837962
v -0.00000497610426 0.00985246431082 -0.00000461435138
v -0.00000627299687 0.00985040236264 -0.00000464480308
v -0.00000106661491 0.00984945707023 -0.00000363441382
v -0.00140217575245 0.01722051762044 0.00137815647759
v 0.00099909224082 0.01512550748885 -0.0009936572751
v -0.00140395760536 0.01722086407244 0.00137831456959
v -0.00140089122579 0.01721981912851 0.00137731363066
v -0.00000468997587 0.00985456351191 -0.00000473799264
v 0.0009948797524 0.01512750517577 -0.00099417765159
v 0.00099770235829 0.0151259470731 -0.00099462654907
v 0.00099615508225 0.01512665022165 -0.00099481176585
v 0.00099993788172 0.01512536965311 -0.00099214911461
v 0.00000010930915 0.00985040236264 -0.00000158198975
v -0.00000069592284 0.00985192507505 0.00000079247894
v -0.00000290286539 0.00985062588006 0.0000041050148
v -0.00111275247764 0.01569471508265 0.00110587116797
v -0.00111212662887 0.01569274626672 0.00111726112664
v -0.00110600481275 0.01569261401892 0.00112760660704
v -0.00000455744384 0.00984546449035 0.0000148211584
v 0.00000294439019 0.0098426733166 0.00002989592394
v 0.00099999771919 0.01512549538165 -0.00099049170967
v 0.00099924125243 0.01512577198446 -0.00098911451641
v 0 0.00985456351191 0
v -0.00110766745638 0.01569774374366 0.00109644187614
v 0.00114006502554 0.01569713652134 -0.00107696081977
v 0.00003280877354 0.01760369352996 0.00003314467176
v 0.00003280877354 0.00985456351191 0.00003314467176
v -0.00107591541018 0.01570331864059 0.0011306325905
v 0.00114153302275 0.01570331864059 -0.00106434326153
v 0.00114294199739 0.01569852046669 -0.00107277336065
v 0.00114346190821 0.01570069044828 -0.00106813781895
v 0.0000311157637 0.00984719395638 0.00002074986878
v -0.0010960745858 0.01569460518658 0.00113418221008
v 0.00003440190267 0.00984875578433 0.00002714632137
v 0.00003386001845 0.00985185336322 0.00003157592437
v 0.00001794196032 0.00984546449035 0.00003755091529
v 0.00003094067506 0.00985129643232 0.00003459871004
v -0.0010850437684 0.01569843105972 0.0011352726724
v 0.00113555474672 0.01569666154683 -0.00107953161933
v -0.00098502379842 0.01512551214546 0.00100785156246
v 0.00001513513507 0.00984946265817 0.00001782872459
v 0.00001716577208 0.00985040608793 0.00001902065742
v -0.00098050234374 0.01512577198446 0.00100804516114
v 0.00001873884503 0.00985456351191 0.00001893069748
v 0.00112640624866 0.01569774374366 -0.00107751123141
v 0.00001883850928 0.00985228363425 0.00001882602555
v 0.00002031821896 0.00985185336322 0.00001789548332
v -0.00098188116681 0.0151254972443 0.00100878451485
v 0.00002475311157 0.00984875578433 0.00001739874642
v -0.00098353077192 0.01512537430972 0.00100870837923
v 0.0011305725202 0.01569697447121 -0.00107975013088
v 0.00141112715937 0.01722051762044 -0.00136911356822
v 0.00141130341217 0.01722086407244 -0.0013708936749
v 0.00141038745642 0.01722095534205 -0.00137264293153
v -0.00098597479519 0.01512595172971 0.00100645842031
v 0.00001300331132 0.00984945707023 0.00001057956251
v 0.00001417923522 0.00985040236264 0.00001263198646
v 0.00001419718956 0.00985246431082 0.00001392834383
v 0.00141027115751 0.01721981912851 -0.00136783765629
v 0.00001406992669 0.00985456351191 0.0000142139761
v -0.00098549982067 0.01512750517577 0.00100365374237
v 0.0000139386193 0.00985246803612 0.00001450504351
v 0.00001396394873 0.00985040608793 0.00001578605224
v -0.0009861435974 0.01512665301561 0.00100491649937
v -0.00099223700818 0.01512552145869 0.00100282451604
v -0.00099183898419 0.01512399222702 0.00100757286418
v -0.00098908739164 0.0151232490316 0.00101187406108
v 0.00140864762943 0.01722086407244 -0.00137357658241
v 0.00001107155276 0.00984719954431 0.00002185112498
v 0.00000779015045 0.00984875950962 0.00001546442036
v 0.00000833935246 0.00985185522586 0.00001104791136
v 0.00000937708592 0.00985228549689 0.00000970180827
v 0.00001096297183 0.00985040236264 0.00000938279391
v -0.00099018984474 0.01512750517577 0.00099891575519
v 0.00000937995082 0.00985456351191 0.00000947598437
v 0.00140558124986 0.01721981912851 -0.00137257564347
v 0.00140686577652 0.01722051762044 -0.0013734184904
v 0.00113260245416 0.01569810695946 -0.00107363576535
v 0.00113438058179 0.01569862104952 -0.00107367918827
v -0.00098470493685 0.0151234138757 0.00101456081029
v 0.00002501184281 0.00985040236264 0.00002357549965
v 0.00002336589023 0.00985227897763 0.00002385890548
v 0.00002185714584 0.00985185336322 0.00002471106927
v 0.00001742449967 0.00984875950962 0.00002519740883
v -0.00097985134926 0.01512436568737 0.0010148989968
v -0.00097581243608 0.01512577198446 0.00101278326474
v 0.00113109627273 0.01569774374366 -0.00107277312782
v 0.00002342882181 0.00985456351191 0.0000236686883
# 133 vertices

vn 0.56839317083359 -0.45436710119247 0.68591529130936
vn 0.31352135539055 -0.5011647939682 0.80655950307846
vn 0.73549354076386 -0.48925858736038 0.4686952829361
vn 0.38417455554008 0.34644678235054 -0.85579466819763
vn 0.09887912124395 0.29267880320549 -0.95108467340469
vn -0.38817682862282 0.14420092105865 -0.91023337841034
vn 0.6404270529747 -0.48304989933968 0.59708958864212
vn -0.5989448428154 0.34656199812889 0.72191405296326
vn -0.70349633693695 0 -0.71069884300232
vn -0.56950801610947 0.06783032417297 -0.81918233633041
vn 0.75758397579193 -0.63580751419067 -0.14769995212555
vn 0.04228304326534 -0.44620445370674 0.89393162727356
vn -0.28982990980148 -0.46300715208054 0.83762937784195
vn -0.9642054438591 0.26371148228645 -0.02764296159148
vn -0.96113300323486 0.22656378149986 -0.15777282416821
vn -0.95881706476212 0.2810917198658 0.04070967435837
vn -0.85968410968781 0.34637266397476 0.37545868754387
vn -0.72127944231033 -0.6922715306282 -0.02271869406104
vn 0.85966050624847 -0.34641826152802 -0.37547066807747
vn 0.95649570226669 -0.28563296794891 -0.05941213667393
vn 0.85773086547852 -0.10093531757593 0.50409311056137
vn 0.70076650381088 0.00151050603017 0.7133891582489
vn 0.70349633693695 0 0.71069884300232
vn -0.73682701587677 0.27807241678238 0.6162480711937
vn 0.8128075003624 0.06741524487734 0.57861828804016
vn 0.90614253282547 0.14409391582012 0.39767158031464
vn -0.9180223941803 0.13275840878487 0.37364438176155
vn 0.95197993516922 0.29279267787933 -0.0894798412919
vn 0.85962754487991 0.3465156853199 -0.37545624375343
vn 0.05276820063591 -0.79360580444336 -0.60613971948624
vn -0.10989514738321 -0.84889560937881 -0.517009973526
vn -0.5574055314064 -0.82366132736206 0.10431271791458
vn -0.26258143782616 -0.87207049131393 -0.41296979784966
vn 0.09872276335955 -0.29264160990715 -0.95111232995987
vn 0.38420253992081 -0.34645074605942 -0.85578054189682
vn -0.82804828882217 -0.11895401775837 0.54789227247238
vn 0.69273191690445 0.69534605741501 -0.19135402143002
vn 0.42473882436752 0.90447962284088 0.03890459984541
vn 0.58380830287933 0.80811911821365 -0.07817496359348
vn -0.38799399137497 -0.14427264034748 -0.9103000164032
vn -0.90111178159714 -0.13913302123547 -0.41065752506256
vn -0.84524440765381 -0.09115068614483 -0.52654856443405
vn -0.9600288271904 -0.27831935882568 0.02971556968987
vn -0.86863595247269 -0.34369888901711 0.35685104131699
vn 0.27238208055496 0.95102095603943 0.14617505669594
vn -0.15547406673431 0.88029688596725 0.44822454452515
vn -0.34657356142998 0.75947588682175 0.55052983760834
vn 0.03064947761595 0.9440124630928 0.32848292589188
vn 0.07362930476665 0.96511727571487 0.25125169754028
vn -0.56892758607864 -0.06807278096676 -0.81956541538239
vn -0.06935275346041 -0.28563815355301 0.9558247923851
vn -0.36568024754524 -0.34369885921478 0.86495608091354
vn 0.6696263551712 -0.37304696440697 -0.64221221208572
vn 0.62602949142456 -0.4422892332077 -0.64223617315292
vn 0.54875981807709 -0.54424756765366 -0.63455277681351
vn 0.41749674081802 -0.13283856213093 0.89891624450684
vn 0.38959959149361 0.14369778335094 0.90970498323441
vn 0.57443714141846 0.0655789077282 0.81591749191284
vn -0.1005695015192 0.29304638504982 0.9507942199707
vn -0.38419571518898 0.34637266397476 0.85581517219543
vn -0.22134104371071 -0.94457763433456 -0.24244846403599
vn 0.53098714351654 -0.5663378238678 -0.63032859563828
vn -0.74312853813171 -0.63553434610367 0.20941840112209
vn -0.82285583019257 -0.44884884357452 0.3484867811203
vn -0.85293859243393 -0.2180128544569 0.47430595755577
vn 0.59104496240616 -0.05776307359338 0.80456775426865
vn 0.75390458106995 -0.20573543012142 -0.62393975257874
vn 0.35413843393326 0.93511813879013 -0.01183235645294
vn 0.17430083453655 0.93576639890671 0.30652964115143
vn 0.27322116494179 0.94454562664032 0.18216413259506
vn 0.07338555902243 0.88815480470657 0.4536469578743
vn -0.03843858838081 0.84520268440247 0.53306180238724
vn 0.55364578962326 -0.50966781377792 -0.65857046842575
vn -0.95779204368591 0.28320050239563 0.04931356012821
vn -0.85965925455093 0.34640908241272 0.3754820227623
vn -0.94454944133759 0.19148088991642 -0.26676088571548
vn -0.90613162517548 -0.14409540593624 -0.39769583940506
vn -0.81279134750366 -0.0674155652523 -0.57864093780518
vn 0.87635618448257 0.09297542273998 -0.47260490059853
vn -0.95198982954025 -0.29276603460312 0.08946185559034
vn -0.85963851213455 -0.3464832007885 0.37546107172966
vn 0.66619741916656 0.74354082345963 -0.05768934637308
vn -0.46762266755104 0.35710477828979 0.80858224630356
vn 0.90612709522247 -0.14412948489189 0.39769384264946
vn 0.81278944015503 -0.06744984537363 0.57863962650299
vn 0.95200425386429 -0.29272064566612 -0.08945655077696
vn 0.85965925455093 -0.34640908241272 -0.3754820227623
vn -0.54881274700165 0.83220309019089 0.07900975644588
vn -0.48727083206177 0.7546758055687 -0.4393535554409
vn -0.55326718091965 0.80597257614136 -0.21048429608345
vn -0.14942273497581 0.78042107820511 -0.60713732242584
vn 0.13217926025391 0.80296766757965 -0.58118116855621
vn -0.08287037909031 -0.28905043005943 0.95372027158737
vn -0.38417646288872 -0.34655731916428 0.85574907064438
vn 0.41353896260262 -0.13436757028103 0.90051698684692
vn -0.41515937447548 0.69677269458771 -0.58493626117706
vn -0.74579840898514 0.6631623506546 0.06324899941683
vn -0.40265882015228 0.63286918401718 -0.66131871938705
vn -0.26763555407524 0.51569938659668 -0.81389516592026
vn 0.58989703655243 -0.05807604268193 0.80538725852966
vn 0.09917288273573 -0.29275959730148 -0.95102918148041
vn -0.38841927051544 -0.14412797987461 -0.91014152765274
vn -0.42550647258759 0.12967871129513 -0.89561581611633
vn -0.61570864915848 0.04582367092371 -0.78664034605026
vn 0.08673272281885 0.28979510068893 -0.9531506896019
vn 0.38419571518898 0.34637266397476 -0.85581517219543
vn 0.13153798878193 0.62930744886398 0.7659438252449
vn 0.36671450734138 0.53758358955383 0.75929200649261
vn -0.15623258054256 0.73072445392609 0.66455489397049
vn -0.53296756744385 0.43839508295059 0.72370940446854
vn -0.39197358489037 0.48261874914169 0.78322148323059
vn -0.24537052214146 0.51389110088348 0.82201534509659
vn -0.97325283288956 -0.0482525229454 -0.22461226582527
vn 0.59008467197418 0.37349820137024 0.71575075387955
vn -0.57030791044235 -0.06744951754808 -0.81865710020065
vn 0.74792569875717 0.2650808095932 0.60855507850647
vn -0.84660243988037 0.19460794329643 0.49537065625191
vn 0.107691437006 -0.64082545042038 -0.76009559631348
vn 0.87558102607727 -0.17845453321934 -0.44890069961548
vn -0.98671144247055 -0.13177613914013 0.09505591541529
vn -0.98137432336807 -0.01877382583916 0.19118578732014
vn -0.98690074682236 -0.11985041201115 0.10799439251423
vn -0.97189033031464 0.03371852636337 0.23300686478615
vn -0.90252375602722 0.21317368745804 0.3741762638092
vn 0.9517650604248 0.29305222630501 -0.09090495109558
vn 0.85965925455093 0.34640908241272 -0.3754820227623
vn 0.90568941831589 0.14369778335094 0.39884540438652
vn 0.89462876319885 -0.13283729553223 0.42660707235336
vn 0.79847383499146 -0.05772925913334 0.59925526380539
vn 0.95647895336151 -0.28563794493675 -0.05965752527118
vn 0.86863595247269 -0.34369888901711 -0.35685104131699
vn 0.81002408266068 0.06557890027761 0.58271807432175
vn -0.00086375029059 0.81339299678802 0.58171391487122
vn 0.67433965206146 0.69115567207336 0.25994202494621
vn 0.88125723600388 -0.07580961287022 -0.46651756763458
vn 0.10940129309893 0.77581751346588 0.62140047550201
vn -0.16720846295357 0.68833637237549 0.70585715770721
vn 0.36102572083473 0.79351192712784 0.48989716172218
vn 0.8289515376091 0.49201118946075 -0.26601561903954
vn 0.03956025466323 -0.27835875749588 -0.95966213941574
vn 0.36568024754524 -0.34369885921478 -0.86495608091354
vn -0.40157788991928 -0.13909636437893 -0.90520018339157
vn -0.90628576278687 -0.1442699432373 -0.39728111028671
vn -0.8137099146843 -0.06810738146305 -0.57726734876633
vn -0.95207273960114 -0.29263576865196 0.08900466561317
vn -0.85966050624847 -0.34641826152802 0.37547066807747
vn -0.51821953058243 -0.09101258963346 -0.85039120912552
vn 0.14157505333424 -0.11815151572227 -0.98285132646561
vn -0.22937309741974 -0.08421791344881 -0.96968823671341
vn 0.42006295919418 -0.0839858353138 -0.90360027551651
vn -0.38337087631226 -0.06102474033833 -0.92157626152039
vn -0.4903236925602 -0.03408119082451 -0.87087380886078
vn -0.35518807172775 -0.09655393660069 -0.92979502677917
vn -0.33904504776001 -0.1041958257556 -0.9349821805954
vn 0.27893179655075 -0.43718832731247 -0.85502249002457
vn -0.09964817017317 -0.29288336634636 0.9509414434433
vn -0.38420253992081 -0.34645074605942 0.85578054189682
vn 0.38878479599953 -0.14398449659348 0.91000813245773
vn 0.3953862786293 0.14148409664631 0.90755271911621
vn 0.54841417074203 0.07754298299551 0.83260375261307
vn -0.07623068243265 0.287313580513 0.95479828119278
vn -0.38425171375275 0.34638053178787 0.85578685998917
vn 0.57166475057602 -0.06679152697325 0.81776422262192
# 163 normals

vt 0.49995157122612 0.00212597846985 0
vt 0.5 0 0
vt 0.5 0.00239622592926 0
vt 0.49946200847626 0.00165581703186 0
vt 0.2547627389431 0.75476276874542 0
vt 0.25495859980583 0.75495862960815 0
vt 0.49977412819862 0.00184786319733 0
vt 0.25515449047089 0.75515449047089 0
vt 0.50004839897156 0.00212597846985 0
vt 0.50022584199905 0.00184786319733 0
vt 0.25535038113594 0.75535035133362 0
vt 0.5 1 0
vt 0.74464964866638 0.75535035133362 0
vt 0.50053799152374 0.00165581703186 0
vt 0.74484550952911 0.75515449047089 0
vt 0.74504137039185 0.75495862960815 0
vt 0.74523729085922 0.75476276874542 0
vt 0.72123175859451 0.68088132143021 0
vt 0.7209849357605 0.68092042207718 0
vt 0.72073811292648 0.68095946311951 0
vt 0.72049129009247 0.68099856376648 0
vt 0.2555835545063 0.75463271141052 0
vt 0.25530993938446 0.75467610359192 0
vt 0.25503632426262 0.75471937656403 0
vt 0.72100907564163 0.68099474906921 0
vt 0.19191606342793 0.95058107376099 0
vt 0.72056376934052 0.68122166395187 0
vt 0.72078639268875 0.68110823631287 0
vt 0.19167397916317 0.95066893100739 0
vt 0.19139903783798 0.95069444179535 0
vt 0.19111704826355 0.95064401626587 0
vt 0.74496364593506 0.75471937656403 0
vt 0.74469006061554 0.75467610359192 0
vt 0.27926191687584 0.68095946311951 0
vt 0.27950873970985 0.68099856376648 0
vt 0.27901509404182 0.68092042207718 0
vt 0.27876827120781 0.68088132143021 0
vt 0.74441647529602 0.75463271141052 0
vt 0.27899092435837 0.68099474906921 0
vt 0.27921357750893 0.68110823631287 0
vt 0.80832600593567 0.95066893100739 0
vt 0.80808395147324 0.95058107376099 0
vt 0.27943626046181 0.68122166395187 0
vt 0.80860096216202 0.95069444179535 0
vt 0.80888295173645 0.95064401626587 0
# 45 texture coordinates

o Decagon_web
usemtl Mat
f 7/1/1 15/2/2 17/3/3
f 3/4/4 2/5/4 11/6/5 6/7/5
f 6/7/5 11/6/5 14/8/6 7/1/6
f 8/9/7 15/2/7 4/10/7
f 17/3/8 15/2/8 8/9/8
f 13/11/9 1/12/9 17/3/9
f 1/12/9 16/13/9 17/3/9
f 7/1/6 14/8/6 13/11/10 17/3/10
f 4/10/11 15/2/11 5/14/11
f 6/7/12 15/2/2 7/1/1
f 3/4/13 15/2/2 6/7/12
f 17/3/14 16/13/14 12/15/15 8/9/15
f 8/9/15 12/15/15 10/16/16 4/10/16
f 4/10/16 10/16/16 9/17/17 5/14/17
f 26/10/18 15/2/18 21/9/18
f 20/14/19 27/18/19 29/19/20 26/10/20
f 26/10/20 29/19/20 18/20/21 21/9/21
f 21/9/21 18/20/21 25/21/22 23/3/22
f 25/21/23 22/22/23 23/3/23
f 21/9/24 15/2/24 23/3/24
f 23/3/25 22/22/25 28/23/26 24/1/26
f 20/14/27 15/2/27 26/10/27
f 24/1/26 28/23/26 30/24/28 19/7/28
f 19/7/28 30/24/28 2/5/29 3/4/29
f 23/3/30 15/2/31 24/1/31
f 19/7/32 15/2/32 3/4/32
f 24/1/31 15/2/31 19/7/33
f 33/10/34 41/25/34 27/18/35 20/14/35
f 36/1/36 15/2/36 42/3/36
f 42/3/37 15/2/38 35/9/39
f 43/26/9 39/27/9 42/3/9
f 35/9/40 32/28/40 41/25/34 33/10/34
f 36/1/41 38/29/41 43/26/42 42/3/42
f 40/7/43 31/30/43 38/29/41 36/1/41
f 34/4/44 37/31/44 31/30/43 40/7/43
f 35/9/39 15/2/38 33/10/45
f 40/7/46 15/2/46 36/1/47
f 34/4/48 15/2/46 40/7/46
f 33/10/45 15/2/38 20/14/49
f 42/3/50 39/27/50 32/28/40 35/9/40
f 47/7/51 51/30/51 37/31/52 34/4/52
f 46/1/53 15/2/54 47/7/55
f 54/27/23 52/26/23 53/3/23
f 46/1/56 49/29/56 51/30/51 47/7/51
f 45/9/57 56/28/57 54/27/58 53/3/58
f 44/10/59 55/25/59 56/28/57 45/9/57
f 48/14/60 50/18/60 55/25/59 44/10/59
f 48/14/61 15/2/61 44/10/61
f 47/7/55 15/2/54 34/4/62
f 44/10/63 15/2/64 45/9/64
f 45/9/64 15/2/64 53/3/65
f 53/3/66 52/26/66 49/29/56 46/1/56
f 53/3/67 15/2/54 46/1/53
f 65/4/68 15/2/69 64/7/70
f 69/22/9 67/21/9 68/3/9
f 64/7/70 15/2/69 60/1/71
f 60/1/71 15/2/69 68/3/72
f 68/3/73 15/2/73 59/9/73
f 58/10/74 57/19/74 50/18/75 48/14/75
f 59/9/76 66/20/76 57/19/74 58/10/74
f 60/1/77 61/23/77 69/22/78 68/3/78
f 58/10/79 15/2/79 48/14/79
f 64/7/80 62/24/80 61/23/77 60/1/77
f 65/4/81 63/5/81 62/24/80 64/7/80
f 59/9/82 15/2/82 58/10/82
f 68/3/83 67/21/83 66/20/83 59/9/83
f 80/9/84 76/15/84 74/13/85 72/3/85
f 79/10/86 75/16/86 76/15/84 80/9/84
f 77/14/87 70/17/87 75/16/86 79/10/86
f 77/14/88 15/2/89 79/10/90
f 81/7/91 15/2/91 65/4/92
f 81/7/93 78/6/93 63/5/94 65/4/94
f 82/1/95 83/8/95 78/6/93 81/7/93
f 82/1/96 15/2/91 81/7/91
f 72/3/97 15/2/97 82/1/97
f 79/10/90 15/2/89 80/9/98
f 80/9/98 15/2/89 72/3/99
f 74/13/23 71/12/23 72/3/23
f 71/12/23 73/11/23 72/3/23
f 72/3/100 73/11/100 83/8/95 82/1/95
f 94/10/101 84/32/101 70/17/35 77/14/35
f 92/9/102 96/33/102 84/32/101 94/10/101
f 91/1/103 93/34/103 88/35/104 89/3/104
f 87/7/105 95/36/105 93/34/103 91/1/103
f 86/4/106 85/37/106 95/36/105 87/7/105
f 94/10/107 15/2/108 77/14/109
f 86/4/110 15/2/111 87/7/111
f 87/7/111 15/2/111 91/1/112
f 91/1/113 15/2/113 89/3/113
f 92/9/114 15/2/108 94/10/107
f 88/35/9 90/38/9 89/3/9
f 89/3/115 90/38/115 96/33/102 92/9/102
f 89/3/116 15/2/108 92/9/114
f 108/7/117 15/2/117 86/4/117
f 107/1/118 15/2/118 108/7/118
f 105/3/119 15/2/119 107/1/119
f 103/9/120 15/2/121 105/3/122
f 102/10/123 15/2/121 103/9/120
f 101/14/124 15/2/121 102/10/123
f 108/7/125 100/39/125 85/37/126 86/4/126
f 107/1/127 109/40/127 100/39/125 108/7/125
f 103/9/128 97/41/128 104/42/129 105/3/129
f 104/42/23 106/43/23 105/3/23
f 102/10/130 98/44/130 97/41/128 103/9/128
f 101/14/131 99/45/131 98/44/130 102/10/130
f 105/3/132 106/43/132 109/40/127 107/1/127
f 118/10/133 15/2/133 101/14/133
f 117/9/134 15/2/134 118/10/134
f 120/3/135 15/2/135 117/9/135
f 116/1/136 15/2/136 120/3/137
f 115/7/138 15/2/136 116/1/136
f 114/4/139 15/2/139 115/7/139
f 118/10/140 113/44/140 99/45/141 101/14/141
f 117/9/142 122/41/142 113/44/140 118/10/140
f 119/43/9 121/42/9 120/3/9
f 116/1/143 110/40/143 119/43/144 120/3/144
f 115/7/145 111/39/145 110/40/143 116/1/143
f 114/4/146 112/37/146 111/39/145 115/7/145
f 120/3/147 121/42/147 122/41/142 117/9/142
f 129/7/148 15/2/149 114/4/150
f 128/1/151 15/2/149 129/7/148
f 133/3/152 15/2/149 128/1/151
f 127/9/153 15/2/149 133/3/152
f 126/10/154 15/2/149 127/9/153
f 5/14/155 15/2/155 126/10/155
f 129/7/156 125/36/156 112/37/157 114/4/157
f 132/38/23 131/35/23 133/3/23
f 128/1/158 130/34/158 125/36/156 129/7/156
f 127/9/159 123/33/159 132/38/160 133/3/160
f 126/10/161 124/32/161 123/33/159 127/9/159
f 5/14/162 9/17/162 124/32/161 126/10/161
f 133/3/163 131/35/163 130/34/158 128/1/158

