# WaveFront *.obj file (generated by CINEMA 4D)

mtllib ./DecagonShape_27.mtl

v 0.0024083009921 0.00543416803703 -0.01413548178971
v 0.00333322631195 0.00320983794518 -0.01459483150393
v 0.00000962637932 -0.00118262448814 -0.0135886752978
v 0.00000554492817 -0.00117948860861 -0.01358675677329
v 0.00000349415791 -0.00118000409566 -0.01358538866043
v 0.00000816043757 -0.00118058861699 -0.01358802430332
v 0.00000774572527 -0.00117831281386 -0.01358774956316
v 0.00000717971943 -0.00117807718925 -0.01358750090003
v 0.00040737420204 0.00440365867689 -0.0134763084352
v 0.00038779285387 0.00440552737564 -0.01345691643655
v 0.00333248730749 0.00321161444299 -0.01459446456283
v 0.00036626198562 0.00440743518993 -0.0134397065267
v 0.00333100999705 0.00321516790427 -0.01459373068064
v 0.00333174853586 0.00321339117363 -0.01459409762174
v 0.00000127057046 -0.00119035528041 -0.01358863990754
v 0.00034302295535 0.00440937047824 -0.01342487242073
v 0.0000080869404 -0.00117640313692 -0.01358777936548
v 0.0045914221555 0.0001840343466 -0.01521969493479
v 0.00001181651078 -0.00118370330893 -0.01358954515308
v 0.00001348218939 -0.00118894258048 -0.01359043642879
v 0.00001435036302 -0.00118422252126 -0.01359051372856
v 0.00333544262685 0.00320450775325 -0.01459593232721
v 0.00001568434709 -0.00118287745863 -0.01359093934298
v 0.00001400335077 -0.00118365383241 -0.0135903544724
v 0.00459075532854 0.00018563712365 -0.01521936431527
v 0.00001343526219 -0.00118635571562 -0.01359028462321
v 0.00459275441244 0.00018082866154 -0.01522035710514
v 0.00333470362239 0.00320628448389 -0.01459556538612
v 0.0045920885168 0.00018243165687 -0.01522002648562
v 0.00333396485075 0.00320806098171 -0.01459519844502
v 0.00617727730423 -0.00363240228035 -0.01600894704461
v 0.00459408760071 0.00017762320931 -0.01522101927549
v 0.00001463544231 -0.00119119847659 -0.01359098218381
v 0.00001255451025 -0.00119464355521 -0.01359391398728
v 0.000016405118 -0.00119252677541 -0.01359171979129
v 0.0000163328732 -0.0011931945337 -0.01359184831381
v 0.00617665424943 -0.00363299320452 -0.01601075008512
v 0.00617746030912 -0.00363090727478 -0.01600773446262
v 0.00459475396201 0.00017602043226 -0.015221349895
v 0.00001420105127 -0.00119407195598 -0.01359207276255
v 0.00459342123941 0.00017922589905 -0.01522068772465
v 0.00001817914927 -0.00119294389151 -0.01359238941222
v 0.00617706030607 -0.0036292290315 -0.01600717939436
v 0.00001221336061 -0.001191032934 -0.01359732635319
v 0.0000140012562 -0.00119236251339 -0.01359801646322
v 0.00001402122689 -0.00119303655811 -0.01359790377319
v 0.00001256567066 -0.00119396019727 -0.01359635591507
v 0.00001102901297 -0.00118877482601 -0.01359686255455
v 0.0061752833426 -0.00363075872883 -0.01601343601942
v 0.00453533558175 0.00018475287652 -0.01537076290697
v 0.00617592874914 -0.00363231007941 -0.01601248048246
v 0.00617464398965 -0.00362906395458 -0.01601350679994
v 0.00001576300747 -0.00119277881458 -0.01359871868044
v 0.00453740404919 0.00017993984511 -0.01537157408893
v 0.00453602522612 0.00018314867339 -0.01537103392184
v 0.00453671487048 0.00018154426652 -0.01537130400538
v 0.00453464593738 0.00018635737069 -0.01537049282342
v 0.0000109377097 -0.00118618505076 -0.01359682623297
v 0.00001180969684 -0.0011840488296 -0.01359716802835
v 0.0000114552322 -0.00118347967509 -0.01359702926129
v 0.00323360809125 0.00321319373325 -0.01486037857831
v 0.00323284347542 0.0032149720937 -0.01486007962376
v 0.00323207932524 0.00321675068699 -0.01485977973789
v 0.00000928419195 -0.00118353019934 -0.01359617803246
v 0.00000709039114 -0.00118245114572 -0.01359531842172
v 0.00453395629302 0.00018796177756 -0.01537022273988
v 0.00453326664865 0.00018956598069 -0.01536995172501
v 0.00001311132382 -0.00118270155508 -0.01359767839313
v 0.00323437270708 0.00321141513996 -0.01486067846417
v 0.000200721086 0.00441538263112 -0.01366999093443
v 0.00227504270151 0.00544327497482 -0.014484542422
v 0.00000545156081 -0.00117622315884 -0.01359467580914
v 0.00322978617623 0.00322208600119 -0.01485888008028
v 0.00020712304104 0.00441776867956 -0.01367374695837
v 0.00020271928224 0.00441617984325 -0.01367146428674
v 0.00020486152789 0.00441697472706 -0.0136727206409
v -0.00000099136207 -0.00117974448949 -0.0135909030214
v 0.00323131494224 0.00321852904744 -0.01485947985202
v 0.00000191562208 -0.00117926776875 -0.01359295099974
v 0.00000420595143 -0.0011778838234 -0.01359414868057
v 0.00000559929231 -0.00118041352835 -0.01359473355114
v 0.00000503700858 -0.0011781307403 -0.01359451003373
v 0.00323055032641 0.0032203074079 -0.01485917996615
v 0.00019888843235 0.00441458262503 -0.01366831641644
v -0.00143673014827 0.00299308262765 -0.01112827844918
v -0.00000696399684 -0.00118177977856 -0.01358366943896
v -0.00000600076191 -0.00117985950783 -0.01358511857688
v -0.00143413408659 0.00299534061924 -0.01113231200725
v -0.00000567975667 -0.00117569137365 -0.0135854491964
v 0.00019579949731 0.00441296864301 -0.01366444583982
v -0.00000554871849 -0.00117762503214 -0.01358573604375
v -0.00000502752437 -0.00117744284216 -0.01358649600297
v -0.0014349995181 0.0029945881106 -0.01113096717745
v -0.00000350954406 -0.00117900862824 -0.01358845457435
v -0.0014358649496 0.00299383536913 -0.01112962234765
v 0.00019724202866 0.00441377796233 -0.0136664621532
v -0.0034944138024 0.00120298285037 -0.00793108157814
v -0.00349411391653 0.00120193045586 -0.00792948715389
v -0.00349278724752 0.00120139250066 -0.00792809575796
v -0.00143759546336 0.00299232988618 -0.01112693361938
v -0.00000640049575 -0.00118612905499 -0.01357854809612
v -0.00000843372072 -0.00118497398216 -0.01357952877879
v -0.00000963187995 -0.00118301191833 -0.01357924658805
v -0.00349383754656 0.00120392185636 -0.00793252140284
v -0.00001040231746 -0.00118157838006 -0.01357818953693
v -0.00143932632636 0.0029908248689 -0.01112424582243
v -0.00000949567311 -0.00118247850332 -0.01357965171337
v -0.00000827265467 -0.00118269154336 -0.01358162611723
v -0.00143846089486 0.00299157737754 -0.0111255897209
v -0.00130313332193 0.00298394751735 -0.0110388668254
v -0.00130221329164 0.00298469723202 -0.01104017626494
v -0.00130129337776 0.00298544671386 -0.01104148570448
v -0.00349093251862 0.00120175117627 -0.00792744942009
v -0.00000117760351 -0.00118210609071 -0.01357996091247
v -0.00000255960845 -0.00118301366456 -0.01357796508819
v -0.00000382560256 -0.0011827981798 -0.01357601862401
v -0.00000417931915 -0.00118331937119 -0.01357575226575
v -0.00000457629267 -0.00118519144598 -0.01357705704868
v -0.00130405311938 0.00298319780268 -0.01103755831718
v -0.0000047032795 -0.00118189968634 -0.01357453782111
v -0.00348813855089 0.0012036007829 -0.0079288687557
v -0.00348927965388 0.0012026935583 -0.00792779121548
v 0.00043521664338 0.00440035853535 -0.0135131245479
v 0.00042478716932 0.00440184120089 -0.01349766366184
v -0.00130037346389 0.00298619619571 -0.01104279514402
v 0.00000175534933 -0.00117930676788 -0.01358369737864
v 0.00000076061735 -0.00117776903789 -0.01358231622726
v 0.00000038249095 -0.00117795937695 -0.01358180027455
v -0.0000001096987 -0.00118019164074 -0.01358134392649
v -0.0012994534336 0.00298694567755 -0.01104410458356
v -0.00129853351973 0.00298769539222 -0.0110454140231
v 0.00043419684516 0.00439952779561 -0.013511672616
v 0.00000038932205 -0.00117603363469 -0.01358155999333
# 133 vertices

vn 0.09024612605572 0.02516327798367 -0.99560153484344
vn 0.00119601050392 0.07945305109024 -0.99683791399002
vn 0.24251526594162 -0.05874169245362 -0.96836757659912
vn 0.34782418608665 -0.04870524629951 0.93629384040833
vn 0.3481128513813 -0.048947121948 0.93617391586304
vn 0.34757649898529 -0.04847045987844 0.93639796972275
vn -0.78115522861481 0.41894638538361 -0.4629043340683
vn -0.72165685892105 0.40245631337166 -0.56324088573456
vn -0.60403960943222 0.3608138859272 -0.71059793233871
vn -0.87447065114975 0.43985852599144 -0.20451287925243
vn 0.34702485799789 -0.04837727174163 0.93660736083984
vn 0.34624111652374 -0.04807519167662 0.93691295385361
vn 0.34672585129738 -0.04777068644762 0.93674921989441
vn -0.57878458499908 0.35495603084564 -0.73417615890503
vn -0.11973397433758 0.1463840007782 -0.98195493221283
vn -0.17406928539276 0.18378072977066 -0.96743190288544
vn -0.88775289058685 0.04476889967918 0.45813816785812
vn -0.864985704422 0.04475253820419 0.49979689717293
vn -0.80661028623581 0.0437992811203 0.58945864439011
vn -0.77010941505432 0.04282942786813 0.63647240400314
vn -0.13367596268654 -0.00085697922623 -0.99102473258972
vn -0.08715263009071 -0.10538670420647 -0.99060487747192
vn -0.05361159145832 -0.18533056974411 -0.98121273517609
vn 0.00914647430182 -0.30992153286934 -0.95071816444397
vn -0.15154147148132 0.05525291338563 -0.98690539598465
vn -0.47701838612556 0.8411967754364 -0.25463989377022
vn -0.28603169322014 0.33120435476303 -0.89916050434113
vn -0.24357405304909 0.25904023647308 -0.93464958667755
vn -0.32614171504974 0.4006040096283 -0.85624063014984
vn 0.3481750190258 -0.05009144172072 0.93609029054642
vn -0.2443740516901 -0.2330256998539 -0.94126528501511
vn 0.03212379291654 0.88433426618576 -0.46574780344963
vn 0.34750434756279 -0.04737082123756 0.93648105859756
vn 0.19111849367619 -0.40370339155197 0.89470517635345
vn 0.28386235237122 -0.20975160598755 0.93564224243164
vn -0.05590940639377 -0.77058041095734 0.63488578796387
vn -0.19600588083267 -0.89425820112228 0.40234804153442
vn -0.14293332397938 0.32808938622475 -0.9337705373764
vn -0.1526535898447 0.2417619228363 -0.95825260877609
vn 0.0264189876616 0.72623729705811 -0.68693625926971
vn -0.09932761639357 0.46620127558708 -0.87908500432968
vn 0.14896485209465 0.89886224269867 -0.41213604807854
vn -0.16115048527718 0.15349899232388 -0.97491979598999
vn 0.34647670388222 -0.04326470196247 0.93706035614014
vn -0.47791308164597 -0.74174827337265 -0.47054076194763
vn -0.42967286705971 -0.87828266620636 -0.20976360142231
vn 0.60138732194901 0.29548504948616 0.74230843782425
vn -0.36502745747566 0 -0.93099677562714
vn -0.4603867828846 -0.35921573638916 -0.81179308891296
vn -0.36539220809937 0.00131682259962 -0.93085271120071
vn -0.36645808815956 0.00539726391435 -0.93041890859604
vn -0.36467000842094 -0.00136017368641 -0.9311358332634
vn 0.61928576231003 0.16708227992058 0.76718229055405
vn 0.60519003868103 0.29511660337448 0.73935866355896
vn 0.44196397066116 0.86331754922867 0.24361997842789
vn 0.58052808046341 0.41808530688286 0.69870728254318
vn 0.30513733625412 0.92755192518234 0.21572826802731
vn -0.41508713364601 -0.16199378669262 -0.89524334669113
vn 0.42244797945023 -0.53033989667892 0.73503559827805
vn 0.48117986321449 0.33134451508522 0.81158900260925
vn 0.39395445585251 0.43291413784027 0.81079298257828
vn 0.29962450265884 0.52671998739243 0.79548174142838
vn -0.24797675013542 0.87489610910416 0.41600999236107
vn 0.70655411481857 -0.48879709839821 0.51172131299973
vn 0.69541400671005 -0.21899785101414 0.68442624807358
vn 0.70535570383072 -0.33151257038116 0.62655627727509
vn 0.66306114196777 -0.07510985434055 0.74478751420975
vn 0.64312273263931 0.01208563242108 0.7656677365303
vn -0.44498798251152 0.00338674429804 -0.89553016424179
vn -0.40231877565384 0.00156440283172 -0.91549831628799
vn -0.53756713867188 0.00746402097866 -0.84318792819977
vn -0.586585521698 0.00969360675663 -0.80982929468155
vn 0.52113217115402 0.2827635705471 0.8052738904953
vn 0.20319308340549 0.37001803517342 0.90653145313263
vn 0.3990136384964 0.312017172575 0.86222583055496
vn 0.65959596633911 0.16254465281963 0.73383402824402
vn 0.80255746841431 0.04771921783686 0.59466326236725
vn 0.59633094072342 0.21442967653275 0.77356922626495
vn -0.36529409885406 0.00025955439196 -0.93089210987091
vn -0.36468800902367 -0.00032010886935 -0.93112969398499
vn 0.87808185815811 -0.04167540743947 0.47669219970703
vn 0.95685589313507 -0.18875035643578 0.22090736031532
vn 0.02985000237823 0.39795210957527 0.91692042350769
vn -0.21146088838577 0.43611970543861 0.87469071149826
vn -0.36374217271805 -0.00110721064266 -0.93149900436401
vn -0.72808891534805 0.01654140464962 -0.68528312444687
vn -0.68621814250946 0.01444486808032 -0.72725236415863
vn -0.79673343896866 0.02018696255982 -0.6039936542511
vn -0.84666305780411 0.02270423062146 -0.53164482116699
vn -0.84724408388138 0.02197486534715 -0.53074908256531
vn -0.8462690114975 0.02321694418788 -0.53224968910217
vn -0.84645891189575 0.02298202179372 -0.53195780515671
vn 0.79156571626663 0.32502198219299 0.51747888326645
vn 0.87274253368378 0.39598360657692 0.28551259636879
vn 0.70942437648773 0.28834196925163 0.64309871196747
vn 0.65855711698532 0.21422912180424 0.72139340639114
vn 0.4810491502285 0.06731840968132 0.87410521507263
vn 0.61182826757431 0.16429501771927 0.7737398147583
vn 0.37524089217186 -0.01045232638717 0.92686837911606
vn 0.16706590354443 -0.13341116905212 0.97687792778015
vn 0.90107536315918 0.42646613717079 0.07867553830147
vn -0.84644746780396 0.02299974486232 -0.53197526931763
vn -0.82427698373795 0.02170928753912 -0.56577044725418
vn 0.85913795232773 0.4572252035141 -0.22984156012535
vn 0.73455947637558 0.44943326711655 0.50836223363876
vn 0.71788120269775 0.335843116045 0.6097999215126
vn 0.73398715257645 0.5524850487709 0.39499765634537
vn 0.39328935742378 0.87157970666885 -0.29269826412201
vn 0.46558958292007 -0.34908375144005 0.81324464082718
vn 0.7367097735405 0.3681623339653 0.56719946861267
vn 0.49089807271957 0.87117755413055 0.0082944938913
vn -0.84706622362137 0.02219207584858 -0.53102380037308
vn -0.84579873085022 0.02379879541695 -0.53297102451324
vn -0.85793548822403 -0.33887335658073 -0.38614967465401
vn -0.86798095703125 -0.13976833224297 -0.47652271389961
vn -0.6753094792366 -0.72952592372894 -0.10839289426804
vn -0.48370066285133 -0.87241750955582 0.07015274465084
vn -0.84387522935867 0.02616078406572 -0.53590130805969
vn -0.39069637656212 0.75118362903595 -0.53205215930939
vn -0.64382606744766 0.54430639743805 -0.5377904176712
vn -0.09431758522987 0.89071363210678 -0.44467225670815
vn -0.82503932714462 0.27011394500732 -0.49633511900902
vn -0.92344403266907 -0.01274831686169 -0.38352128863335
vn 0.03712806478143 0.86392289400101 -0.50225365161896
vn -0.80338048934937 0.31533172726631 -0.5051195025444
vn -0.75516003370285 0.38132628798485 -0.53321999311447
vn -0.84560990333557 0.24694703519344 -0.4732451736927
vn 0.32009062170982 -0.78565084934235 0.5294286608696
vn 0.067362844944 -0.90348768234253 0.42328748106956
vn 0.67870187759399 -0.42551293969154 0.59858369827271
vn 0.83498823642731 -0.07180528342724 0.54556274414062
vn 0.83568465709686 -0.07101334631443 0.54459917545319
vn 0.83775824308395 -0.06860842555761 0.54171401262283
vn 0.83428651094437 -0.0726203545928 0.5465275645256
vn 0.835000872612 -0.07178691029549 0.54554575681686
vn 0.7806401848793 -0.23276342451572 0.58001899719238
vn -0.90610808134079 0.15853038430214 -0.392219632864
vn -0.93980485200882 0.11494955420494 -0.32179728150368
vn -0.8852362036705 0.18590696156025 -0.42637479305267
vn -0.96052622795105 0.07843796163797 -0.26690232753754
vn -0.98452806472778 0.02513846382499 -0.17341446876526
vn 0.32338520884514 0.43525093793869 -0.84022533893585
vn -0.54157650470734 0.3629951775074 -0.75824099779129
vn -0.50739353895187 0.37036728858948 -0.77806162834167
vn -0.57484692335129 0.35507166385651 -0.73720765113831
vn 0.83490163087845 -0.07191675156355 0.54568058252335
vn 0.83508104085922 -0.07171892374754 0.54543197154999
vn 0.82815390825272 -0.07141454517841 0.55593264102936
vn -0.64003473520279 0.03813681378961 0.76739889383316
vn -0.59682112932205 0.0362322293222 0.80155581235886
vn -0.68131440877914 0.0399352312088 0.73090070486069
vn 0.83536231517792 -0.07137103378773 0.5450467467308
# 152 normals

vt 0.49995157122612 0.00212597846985 0
vt 0.5 0 0
vt 0.5 0.00239622592926 0
vt 0.49946200847626 0.00165581703186 0
vt 0.2547627389431 0.75476276874542 0
vt 0.25495859980583 0.75495862960815 0
vt 0.49977412819862 0.00184786319733 0
vt 0.25515449047089 0.75515449047089 0
vt 0.50004839897156 0.00212597846985 0
vt 0.50022584199905 0.00184786319733 0
vt 0.25535038113594 0.75535035133362 0
vt 0.5 1 0
vt 0.74464964866638 0.75535035133362 0
vt 0.50053799152374 0.00165581703186 0
vt 0.74484550952911 0.75515449047089 0
vt 0.74504137039185 0.75495862960815 0
vt 0.74523729085922 0.75476276874542 0
vt 0.72123175859451 0.68088132143021 0
vt 0.7209849357605 0.68092042207718 0
vt 0.72073811292648 0.68095946311951 0
vt 0.72049129009247 0.68099856376648 0
vt 0.2555835545063 0.75463271141052 0
vt 0.25530993938446 0.75467610359192 0
vt 0.25503632426262 0.75471937656403 0
vt 0.72100907564163 0.68099474906921 0
vt 0.19191606342793 0.95058107376099 0
vt 0.72056376934052 0.68122166395187 0
vt 0.72078639268875 0.68110823631287 0
vt 0.19167397916317 0.95066893100739 0
vt 0.19139903783798 0.95069444179535 0
vt 0.19111704826355 0.95064401626587 0
vt 0.74496364593506 0.75471937656403 0
vt 0.74469006061554 0.75467610359192 0
vt 0.27926191687584 0.68095946311951 0
vt 0.27950873970985 0.68099856376648 0
vt 0.27901509404182 0.68092042207718 0
vt 0.27876827120781 0.68088132143021 0
vt 0.74441647529602 0.75463271141052 0
vt 0.27899092435837 0.68099474906921 0
vt 0.27921357750893 0.68110823631287 0
vt 0.80832600593567 0.95066893100739 0
vt 0.80808395147324 0.95058107376099 0
vt 0.27943626046181 0.68122166395187 0
vt 0.80860096216202 0.95069444179535 0
vt 0.80888295173645 0.95064401626587 0
# 45 texture coordinates

o Decagon_web
usemtl Mat
f 7/1/1 15/2/2 17/3/3
f 3/4/4 2/5/4 11/6/5 6/7/5
f 6/7/5 11/6/5 14/8/6 7/1/6
f 8/9/7 15/2/8 4/10/9
f 17/3/10 15/2/8 8/9/7
f 13/11/4 1/12/11 17/3/11
f 1/12/11 16/13/12 17/3/11
f 7/1/6 14/8/6 13/11/13 17/3/13
f 4/10/9 15/2/8 5/14/14
f 6/7/15 15/2/2 7/1/1
f 3/4/16 15/2/2 6/7/15
f 17/3/17 16/13/17 12/15/18 8/9/18
f 8/9/18 12/15/18 10/16/19 4/10/19
f 4/10/19 10/16/19 9/17/20 5/14/20
f 26/10/21 15/2/22 21/9/23
f 20/14/4 27/18/4 29/19/4 26/10/4
f 26/10/4 29/19/4 18/20/4 21/9/4
f 21/9/4 18/20/4 25/21/4 23/3/4
f 25/21/4 22/22/4 23/3/4
f 21/9/23 15/2/22 23/3/24
f 23/3/4 22/22/4 28/23/4 24/1/4
f 20/14/25 15/2/22 26/10/21
f 24/1/4 28/23/4 30/24/4 19/7/4
f 19/7/4 30/24/4 2/5/4 3/4/4
f 23/3/26 15/2/26 24/1/26
f 19/7/27 15/2/27 3/4/28
f 24/1/29 15/2/27 19/7/27
f 33/10/30 41/25/30 27/18/4 20/14/4
f 36/1/31 15/2/31 42/3/31
f 42/3/32 15/2/32 35/9/32
f 43/26/4 39/27/4 42/3/4
f 35/9/33 32/28/33 41/25/30 33/10/30
f 36/1/34 38/29/34 43/26/35 42/3/35
f 40/7/36 31/30/36 38/29/34 36/1/34
f 34/4/37 37/31/37 31/30/36 40/7/36
f 35/9/38 15/2/39 33/10/39
f 40/7/40 15/2/40 36/1/41
f 34/4/42 15/2/40 40/7/40
f 33/10/39 15/2/39 20/14/43
f 42/3/44 39/27/44 32/28/33 35/9/33
f 47/7/45 51/30/45 37/31/46 34/4/46
f 46/1/47 15/2/47 47/7/47
f 54/27/48 52/26/48 53/3/48
f 46/1/49 49/29/49 51/30/45 47/7/45
f 45/9/50 56/28/50 54/27/51 53/3/51
f 44/10/52 55/25/52 56/28/50 45/9/50
f 48/14/48 50/18/48 55/25/52 44/10/52
f 48/14/53 15/2/54 44/10/54
f 47/7/55 15/2/55 34/4/55
f 44/10/54 15/2/54 45/9/56
f 45/9/57 15/2/57 53/3/57
f 53/3/58 52/26/58 49/29/49 46/1/49
f 53/3/59 15/2/59 46/1/59
f 65/4/60 15/2/61 64/7/61
f 69/22/48 67/21/48 68/3/48
f 64/7/61 15/2/61 60/1/62
f 60/1/63 15/2/63 68/3/63
f 68/3/64 15/2/65 59/9/66
f 58/10/48 57/19/48 50/18/48 48/14/48
f 59/9/48 66/20/48 57/19/48 58/10/48
f 60/1/48 61/23/48 69/22/48 68/3/48
f 58/10/67 15/2/65 48/14/68
f 64/7/48 62/24/48 61/23/48 60/1/48
f 65/4/48 63/5/48 62/24/48 64/7/48
f 59/9/66 15/2/65 58/10/67
f 68/3/48 67/21/48 66/20/48 59/9/48
f 80/9/69 76/15/69 74/13/70 72/3/70
f 79/10/71 75/16/71 76/15/69 80/9/69
f 77/14/72 70/17/72 75/16/71 79/10/71
f 77/14/73 15/2/74 79/10/75
f 81/7/76 15/2/77 65/4/78
f 81/7/79 78/6/79 63/5/48 65/4/48
f 82/1/80 83/8/80 78/6/79 81/7/79
f 82/1/81 15/2/77 81/7/76
f 72/3/82 15/2/77 82/1/81
f 79/10/75 15/2/74 80/9/83
f 80/9/83 15/2/74 72/3/84
f 74/13/48 71/12/48 72/3/48
f 71/12/48 73/11/48 72/3/48
f 72/3/85 73/11/85 83/8/80 82/1/80
f 94/10/86 84/32/86 70/17/87 77/14/87
f 92/9/88 96/33/88 84/32/86 94/10/86
f 91/1/89 93/34/89 88/35/90 89/3/90
f 87/7/91 95/36/91 93/34/89 91/1/89
f 86/4/92 85/37/92 95/36/91 87/7/91
f 94/10/93 15/2/94 77/14/95
f 86/4/96 15/2/97 87/7/98
f 87/7/98 15/2/97 91/1/99
f 91/1/99 15/2/97 89/3/100
f 92/9/101 15/2/94 94/10/93
f 88/35/102 90/38/102 89/3/102
f 89/3/103 90/38/103 96/33/88 92/9/88
f 89/3/104 15/2/94 92/9/101
f 108/7/105 15/2/105 86/4/106
f 107/1/107 15/2/105 108/7/105
f 105/3/108 15/2/108 107/1/108
f 103/9/109 15/2/109 105/3/109
f 102/10/110 15/2/110 103/9/110
f 101/14/111 15/2/111 102/10/111
f 108/7/112 100/39/112 85/37/102 86/4/102
f 107/1/113 109/40/113 100/39/112 108/7/112
f 103/9/114 97/41/114 104/42/115 105/3/115
f 104/42/102 106/43/102 105/3/102
f 102/10/116 98/44/116 97/41/114 103/9/114
f 101/14/117 99/45/117 98/44/116 102/10/116
f 105/3/118 106/43/118 109/40/113 107/1/113
f 118/10/119 15/2/120 101/14/121
f 117/9/122 15/2/120 118/10/119
f 120/3/123 15/2/120 117/9/122
f 116/1/124 15/2/124 120/3/124
f 115/7/125 15/2/125 116/1/126
f 114/4/127 15/2/125 115/7/125
f 118/10/128 113/44/128 99/45/129 101/14/129
f 117/9/130 122/41/130 113/44/128 118/10/128
f 119/43/131 121/42/131 120/3/131
f 116/1/132 110/40/132 119/43/133 120/3/133
f 115/7/134 111/39/134 110/40/132 116/1/132
f 114/4/135 112/37/135 111/39/134 115/7/134
f 120/3/136 121/42/136 122/41/130 117/9/130
f 129/7/137 15/2/138 114/4/139
f 128/1/140 15/2/138 129/7/137
f 133/3/141 15/2/138 128/1/140
f 127/9/142 15/2/142 133/3/142
f 126/10/143 15/2/143 127/9/144
f 5/14/145 15/2/143 126/10/143
f 129/7/146 125/36/146 112/37/135 114/4/135
f 132/38/131 131/35/131 133/3/131
f 128/1/147 130/34/147 125/36/146 129/7/146
f 127/9/148 123/33/148 132/38/148 133/3/148
f 126/10/149 124/32/149 123/33/150 127/9/150
f 5/14/151 9/17/151 124/32/149 126/10/149
f 133/3/152 131/35/152 130/34/147 128/1/147

