# WaveFront *.obj file (generated by CINEMA 4D)

mtllib ./DecagonShape_56.mtl

v -0.00071070576087 0.00363752432168 -0.00398536259308
v 0.00102854962461 0.00212357286364 -0.00312068290077
v 0.00002084395055 -0.00337094441056 -0.00350435147993
v 0.00001232891464 -0.00336814764887 -0.00352504407056
v 0.00001083528332 -0.00336904847063 -0.00352320610546
v 0.00002144260543 -0.00336959608831 -0.00351632991806
v 0.00001693120794 -0.00336676556617 -0.00352337979712
v 0.0000143318166 -0.00336637836881 -0.00352508877404
v -0.00209041009657 0.00170792872086 -0.00460091745481
v -0.00208966480568 0.00170889799483 -0.00460242526606
v 0.00102998770308 0.00212479406036 -0.00312896864489
v -0.00208847387694 0.00171020010021 -0.00460323411971
v 0.00102107459679 0.00212915730663 -0.00314208958298
v 0.00102724984754 0.00212674727663 -0.00313677242957
v 0.00001765346678 -0.00338147161528 -0.00351489265449
v -0.00208724546246 0.0017117022071 -0.00460317311808
v 0.00001357342353 -0.00336424470879 -0.00352568039671
v -0.00198869220912 0.00121092016343 -0.00425128266215
v 0.00001263280137 -0.00336942519061 -0.00349563802592
v -0.0000093415274 -0.0033717751503 -0.00349087640643
v 0.00000122000552 -0.00336618209258 -0.00349467154592
v 0.00100701127667 0.00212417566217 -0.0031116802711
v 0.00000047054044 -0.00336399069056 -0.00349490530789
v 0.00000443883664 -0.00336652388796 -0.00349403358996
v -0.00198457413353 0.00121250085067 -0.00425068102777
v -0.00000454912151 -0.00336962589063 -0.00349452113733
v -0.00199620937929 0.00120891944971 -0.00424734596163
v 0.00101542985067 0.00212347367778 -0.00311075802892
v -0.00199279026128 0.00120964227244 -0.00425010360777
v 0.00102326110937 0.00212317286059 -0.00311404326931
v -0.00046799905249 0.00315812462941 -0.00084433786105
v -0.00199902523309 0.00120966450777 -0.00423912890255
v -0.00001209894617 -0.00337134883739 -0.00348512432538
v -0.00000740816859 -0.00337043427862 -0.00347960460931
v -0.00001241299378 -0.00336914579384 -0.00348085584119
v -0.00001172089014 -0.00336882960983 -0.00347939040512
v -0.00046614441089 0.00315872626379 -0.00084476382472
v -0.00046966152149 0.00315747153945 -0.00084507593419
v -0.00199799286202 0.00121109234169 -0.00423504086211
v -0.00000983035261 -0.00337023450993 -0.00347888772376
v -0.00199840241112 0.00120891246479 -0.00424347212538
v -0.00001229543705 -0.00336690386757 -0.0034790164791
v -0.00047064333921 0.00315672927536 -0.00084640632849
v -0.0000060382331 -0.00336862797849 -0.00348456786014
v -0.00000652943527 -0.00336695322767 -0.00348303327337
v -0.0000063430839 -0.0033669883851 -0.0034823671449
v -0.00000611752102 -0.00336901587434 -0.00348126096651
v -0.00000481622783 -0.003369131824 -0.0034867557697
v -0.00046474215924 0.00315908575431 -0.00084822013741
v -0.0019916840829 0.00121156265959 -0.0042432253249
v -0.00046493319678 0.00315913069062 -0.00084629748017
v -0.00046522927005 0.00315850647166 -0.00084986665752
v -0.00000688136197 -0.00336512713693 -0.00348247704096
v -0.00199257885106 0.00121286918875 -0.00423850119114
v -0.00199260585941 0.00121171306819 -0.00424173986539
v -0.00199291505851 0.0012121591717 -0.00424007046968
v -0.0019902838394 0.00121169153135 -0.00424427585676
v -0.0000030931792 -0.00336795602925 -0.00348823331296
v -0.00000056112816 -0.00336622702889 -0.00348823983222
v 0.00000377001629 -0.00336686358787 -0.00348740932532
v 0.00101634708699 0.0021228461992 -0.00310418452136
v 0.00102723378222 0.00212207832374 -0.00310880271718
v 0.0010345649207 0.00212229019962 -0.00311811128631
v 0.00001533393333 -0.0033703413792 -0.00348961236887
v 0.00002685934669 -0.00337222707458 -0.00350177986547
v -0.0019886191003 0.00121203740127 -0.00424471078441
v -0.00198694644496 0.00121250085067 -0.00424445047975
v -0.00000190157823 -0.00336399069056 -0.0034886749927
v 0.00100463919807 0.00212417566217 -0.00310544995591
v -0.00209589465521 0.00170511892065 -0.00460346089676
v -0.00070785894059 0.00363742304035 -0.00399138964713
v 0.0000164202429 -0.00336434599012 -0.00353170768358
v 0.00102392130066 0.00212905625813 -0.00314811686985
v -0.00208439887501 0.00171160092577 -0.00460920063779
v -0.00209299102426 0.00170641380828 -0.00460764113814
v -0.00208875071257 0.00170870753936 -0.00460972543806
v 0.00000535065601 -0.00337185827084 -0.00352574931458
v 0.0010365123162 0.00212364969775 -0.00312972138636
v 0.00001028939914 -0.00337026198395 -0.00353102851659
v 0.0000146694847 -0.00336703634821 -0.00353207415901
v 0.00002765272075 -0.00337058026344 -0.00351854576729
v 0.00001888795123 -0.00336696533486 -0.00353020033799
v 0.00103261996992 0.00212603365071 -0.00314065790735
v -0.00209659407847 0.00170495337807 -0.0045982580632
v 0.00091766065452 0.00158711429685 -0.00316346506588
v 0.00000881315918 -0.00336837861687 -0.00350949494168
v 0.00000902237662 -0.00336762750521 -0.00351189798675
v 0.00091589335352 0.00158690405078 -0.0031679130625
v 0.00000787978479 -0.00336404237896 -0.0035136253573
v -0.00209093699232 0.00170706643257 -0.00459009129554
v 0.00000794748212 -0.00336612109095 -0.00351355480962
v 0.00000644959982 -0.00336674414575 -0.00351467076689
v 0.00091723172227 0.00158686272334 -0.00316680036485
v 0.00000443257431 -0.00337005383335 -0.00351862818934
v 0.00091787090059 0.00158691394608 -0.00316518172622
v -0.00209481199272 0.00170574511867 -0.00459338119254
v -0.0027701407671 0.0030309939757 -0.00456371484324
v -0.00277199945413 0.00303112412803 -0.00456320121884
v -0.00277327676304 0.00303112878464 -0.00456166779622
v 0.00091666728258 0.00158748182002 -0.00316208344884
v 0.00000269974544 -0.00336884451099 -0.00350475683808
v 0.00000404221419 -0.00336790923029 -0.00350669166073
v 0.00000508870198 -0.00336592597887 -0.00350729236379
v -0.00276841176674 0.00303056440316 -0.00456338236108
v 0.00000521477705 -0.00336399069056 -0.00350736617111
v 0.00091352692107 0.00158858310897 -0.00316154002212
v 0.00000577567062 -0.00336584448814 -0.00350727164187
v 0.00000723054245 -0.00336759281345 -0.00350768957287
v 0.00091515679378 0.00158799171913 -0.00316138379276
v 0.00091607408831 0.00158736435696 -0.0031548102852
v 0.00092064001365 0.00158638739958 -0.00315684266388
v 0.00092367600882 0.00158583163284 -0.00316089345142
v -0.00277334265411 0.00303112412803 -0.00455967336893
v 0.00001482855441 -0.00336966151372 -0.00350692332722
v 0.00000993167214 -0.00336850900203 -0.00350166368298
v 0.00000510939208 -0.00336618325673 -0.00350066833198
v 0.00000328445617 -0.00336602493189 -0.00350113562308
v 0.00000241547696 -0.00336790923029 -0.00350241921842
v 0.00091115484247 0.00158858310897 -0.00315530970693
v 0.00000284265843 -0.00336399069056 -0.00350113562308
v -0.00277078384534 0.00303056440316 -0.00455715181306
v -0.00277229608037 0.0030309939757 -0.00455805379897
v -0.00208960426971 0.00170706224162 -0.00459732953459
v -0.00209042080678 0.00170733581763 -0.00459906924516
v 0.0009243953391 0.00158577004913 -0.00316593446769
v 0.00001037663969 -0.00336807826534 -0.00352091062814
v 0.0000111450654 -0.00336618255824 -0.00351952319033
v 0.00001263517061 -0.0033663304057 -0.00351832830347
v 0.00001523249193 -0.00336861191317 -0.00351411383599
v 0.00092260190286 0.001586148981 -0.0031706856098
v 0.00091874023201 0.00158680276945 -0.00317394034937
v -0.00208809017204 0.00170696550049 -0.00459611881524
v 0.00001072660416 -0.00336414366029 -0.003519652877
# 133 vertices

vn 0.5043917298317 -0.41288676857948 -0.7583624124527
vn 0.72858077287674 -0.41468968987465 -0.54516285657883
vn 0.22206725180149 -0.479178160429 -0.849161028862
vn -0.9789605140686 0.18554176390171 -0.08491475880146
vn -0.9663273692131 0.16339205205441 0.1987823843956
vn -0.75241327285767 0.09241177141666 0.65217661857605
vn 0.38551479578018 -0.45674586296082 -0.8017241358757
vn 0.87113654613495 0.39172723889351 0.29609271883965
vn -0.4269991517067 0.01516508404166 0.90412485599518
vn -0.59125065803528 0.05219301208854 0.80479723215103
vn -0.40052965283394 -0.65118658542633 -0.64461773633957
vn 0.89475065469742 -0.32282808423042 -0.30855023860931
vn 0.95307230949402 -0.30243730545044 0.01359642483294
vn 0.27398672699928 0.30701586604118 0.911412358284
vn 0.17923153936863 0.27481508255005 0.94464421272278
vn 0.38696005940437 0.34196791052818 0.856340944767
vn 0.64671093225479 0.40488958358765 0.64639723300934
vn 0.517733335495 -0.36241960525513 0.77498656511307
vn 0.36342486739159 -0.57686078548431 0.7315422296524
vn -0.50427156686783 -0.34918969869614 -0.78979539871216
vn -0.29699704051018 -0.27962428331375 -0.91301864385605
vn 0.15083764493465 -0.09702949970961 -0.9837851524353
vn 0.36385130882263 0.00400084024295 -0.93144845962524
vn 0.35581776499748 0 -0.93455535173416
vn 0.83911502361298 0.33284598588943 0.43023198843002
vn 0.17171517014503 0.03713340684772 -0.98444652557373
vn -0.05058187991381 0.07876067608595 -0.9956094622612
vn 0.63489472866058 -0.12197498232126 0.76290941238403
vn -0.52578639984131 0.15488050878048 -0.83639746904373
vn -0.73864430189133 0.18092562258244 -0.6493616104126
vn -0.5587317943573 -0.79985612630844 0.21920078992844
vn -0.39302888512611 -0.84698879718781 0.35796400904655
vn 0.45957893133163 -0.69410580396652 0.55407971143723
vn -0.20806449651718 -0.8526816368103 0.47921103239059
vn -0.88828158378601 -0.41708666086197 -0.19233952462673
vn -0.81108528375626 -0.4192142188549 -0.40792167186737
vn 0.78517442941666 0.11613721400499 0.6082871556282
vn -0.50828069448471 0.56203603744507 -0.65250766277313
vn -0.34800165891647 0.74011415243149 -0.57543540000916
vn -0.81210553646088 -0.2665179669857 0.51908838748932
vn -0.90914458036423 -0.35963243246078 0.21004907786846
vn -0.51770734786987 -0.3511917591095 0.78015601634979
vn -0.65440952777863 -0.32204738259315 0.68412983417511
vn -0.04735849797726 -0.37666916847229 0.92513650655746
vn 0.27646145224571 -0.34286186099052 0.89778327941895
vn -0.1656967997551 0.87132889032364 -0.46187722682953
vn 0.5576359629631 0.8120169043541 0.17225167155266
vn -0.01215489767492 0.95184355974197 -0.3063431084156
vn 0.45004284381866 0.88023114204407 0.15051445364952
vn -0.86992007493973 -0.31452533602715 0.37988528609276
vn 0.95108252763748 -0.05577903613448 0.303859770298
vn 0.8171478509903 -0.1654336899519 0.55217844247818
vn -0.82621371746063 -0.30455556511879 -0.47393751144409
vn -0.8327254652977 -0.19002178311348 -0.5200577378273
vn -0.83268767595291 -0.14937756955624 -0.53321439027786
vn 0.81210553646088 0.2665179669857 -0.51908838748932
vn 0.97333967685699 0.14128747582436 -0.18068693578243
vn 0.90886300802231 0.35920193791389 -0.21199516952038
vn 0.86749732494354 0.31232488155365 -0.38717123866081
vn 0.88781642913818 0.41718363761902 0.19426736235619
vn 0.81109660863876 0.41918721795082 0.40792691707611
vn -0.64355117082596 -0.74179196357727 -0.18864400684834
vn -0.80727583169937 0.04764708131552 -0.58824783563614
vn 0.61669605970383 -0.42577916383743 0.66211634874344
vn 0.71921813488007 -0.23601786792278 0.65346831083298
vn 0.78823393583298 -0.03523220121861 0.61436629295349
vn 0.89936918020248 0.21646229922771 -0.37984099984169
vn -0.82839447259903 -0.26857686042786 -0.49155774712563
vn -0.28883862495422 0.86616080999374 -0.40784519910812
vn 0.13744425773621 0.92565947771072 -0.35251045227051
vn -0.04612207785249 0.91268509626389 -0.4060525894165
vn -0.35581776499748 0 0.93455535173416
vn 0.34380549192429 0.89003354310989 -0.29939618706703
vn 0.47878196835518 0.85217916965485 -0.21108891069889
vn -0.85977637767792 -0.47504198551178 -0.18740236759186
vn -0.80891489982605 -0.53309494256973 -0.24792428314686
vn 0.29057803750038 0.27731591463089 0.9157840013504
vn 0.50430804491043 0.34919092059135 0.78977155685425
vn 0.05743951350451 0.18692341446877 0.98069381713867
vn 0.05055350065231 -0.07876538485289 0.99561053514481
vn -0.17177714407444 -0.03717115521431 0.98443430662155
vn -0.59139764308929 0.43344980478287 -0.67997801303864
vn -0.71574020385742 0.21314764022827 -0.66504442691803
vn 0.52574908733368 -0.15488508343697 0.8364200592041
vn 0.73862528800964 -0.18092367053032 0.6493838429451
vn -0.42908293008804 0.62591177225113 -0.65124672651291
vn -0.902363717556 -0.41241803765297 -0.1251042932272
vn 0.04296630248427 -0.19037382304668 -0.98077094554901
vn 0.25541785359383 -0.0984278023243 -0.96180748939514
vn -0.42745479941368 -0.35355803370476 -0.83203309774399
vn -0.64670133590698 -0.40491679310799 -0.64638978242874
vn 0.2382590919733 0.84519630670547 0.47840967774391
vn -0.32612144947052 0.73082220554352 0.5996196269989
vn -0.06029968708754 0.80667740106583 0.58790773153305
vn -0.64279466867447 0.69686216115952 0.31811654567719
vn -0.73080950975418 0.68181347846985 0.03236965835094
vn 0.96327257156372 -0.16185621917248 -0.21426269412041
vn 0.97894275188446 -0.18563871085644 0.08490777760744
vn 0.73326754570007 -0.0873738899827 -0.67430293560028
vn -0.49716851115227 0.64944404363632 0.57536590099335
vn 0.31138306856155 0.67710489034653 0.66676050424576
vn -0.57445597648621 0.5748285651207 0.58272844552994
vn -0.75930863618851 0.42723453044891 0.49083712697029
vn 0.4269991517067 -0.01516508404166 -0.90412485599518
vn 0.56930565834045 -0.04689524695277 -0.82078737020493
vn -0.91860675811768 -0.33611756563187 0.20781379938126
vn -0.91519415378571 -0.39540833234787 -0.07792259007692
vn -0.7325034737587 -0.16279862821102 0.66101080179214
vn -0.72360455989838 0.08486592024565 0.68497753143311
vn -0.53916245698929 0.04010222479701 0.84124648571014
vn -0.96406769752502 0.16213417053223 0.21044245362282
vn -0.97896981239319 0.18547566235065 -0.08495219051838
vn 0.65969234704971 0.62960773706436 -0.41036573052406
vn 0.5645534992218 0.52462601661682 -0.63721811771393
vn 0.66648495197296 0.73861300945282 -0.1012354940176
vn 0.84805178642273 0.48025527596474 0.22397105395794
vn 0.8536404967308 0.51403146982193 0.08408074826002
vn 0.84154719114304 0.53710448741913 -0.05759417265654
vn 0.19779461622238 0.03974129259586 0.97943753004074
vn 0.43831118941307 0.34594494104385 -0.82958143949509
vn -0.58172172307968 -0.06865164637566 0.81048554182053
vn 0.27020555734634 0.2196456193924 -0.9374138712883
vn 0.77839308977127 0.29769366979599 0.55270493030548
vn -0.72620952129364 -0.65451353788376 0.21031351387501
vn -0.73699057102203 -0.25483706593513 -0.62602156400681
vn 0.51323342323303 -0.00476660486311 0.85823583602905
vn 0.58803987503052 0.10455240309238 0.80204606056213
vn 0.51661747694016 -0.0010086519178 0.85621571540833
vn 0.62026852369308 0.15789641439915 0.76833307743073
vn 0.700738966465 0.31669136881828 0.63927417993546
vn -0.5269610285759 0.15499889850616 -0.83563596010208
vn -0.73864322900772 0.18082670867443 -0.64939039945602
vn -0.04920924082398 0.07853532582521 -0.99569606781006
vn -0.00001781887113 -0.1629363745451 -0.98663657903671
vn 0.20660720765591 -0.07152683287859 -0.97580599784851
vn -0.46505680680275 -0.33690133690834 -0.81866943836212
vn -0.6808922290802 -0.39696887135506 -0.61546850204468
vn 0.17724694311619 0.03613056242466 -0.98350298404694
vn 0.51087540388107 0.81777775287628 -0.26503947377205
vn -0.11953039467335 0.595987200737 -0.79404771327972
vn -0.76967489719391 -0.16716684401035 -0.61616218090057
vn 0.50080722570419 0.77308994531631 -0.38926085829735
vn 0.70310109853745 0.69889545440674 -0.13112585246563
vn 0.24189339578152 0.75987070798874 -0.60339385271072
vn -0.66349452733994 0.30291697382927 -0.68411719799042
vn -0.88471871614456 -0.32926759123802 0.32993280887604
vn -0.91780698299408 -0.39696884155273 0.00678801164031
vn -0.66736382246017 -0.16973578929901 0.72513121366501
vn 0.05104270204902 -0.07886646687984 0.99557757377625
vn -0.16988524794579 -0.03757495805621 0.98474723100662
vn 0.52536916732788 -0.1547908782959 0.8366761803627
vn 0.7386400103569 -0.18085610866547 0.64938586950302
vn -0.5656002163887 -0.11035598069429 0.8172624707222
vn -0.96374237537384 -0.19259974360466 0.18467798829079
vn -0.83952873945236 -0.13301745057106 0.52678066492081
vn -0.98037195205688 -0.17961241304874 -0.08130329102278
vn -0.75214189291 -0.10151174664497 0.65113586187363
vn -0.65690356492996 -0.05603201687336 0.75188970565796
vn -0.7520472407341 -0.12407773733139 0.64732503890991
vn -0.7719190120697 -0.14081862568855 0.61992835998535
vn -0.88261431455612 -0.46957692503929 0.02212443575263
vn 0.9664768576622 -0.16346789896488 -0.19799165427685
vn 0.97895765304565 -0.18554332852364 0.08494467288256
vn 0.75196146965027 -0.09229665994644 -0.65271377563477
vn 0.72769802808762 0.159573122859 -0.66707718372345
vn 0.60248100757599 0.08077135682106 -0.79403567314148
vn 0.9155353307724 0.33013790845871 -0.22979131340981
vn 0.91522008180618 0.39534571766853 0.07793544232845
vn 0.58883541822433 -0.05160093680024 -0.8066041469574
# 169 normals

vt 0.49995157122612 0.00212597846985 0
vt 0.5 0 0
vt 0.5 0.00239622592926 0
vt 0.49946200847626 0.00165581703186 0
vt 0.2547627389431 0.75476276874542 0
vt 0.25495859980583 0.75495862960815 0
vt 0.49977412819862 0.00184786319733 0
vt 0.25515449047089 0.75515449047089 0
vt 0.50004839897156 0.00212597846985 0
vt 0.50022584199905 0.00184786319733 0
vt 0.25535038113594 0.75535035133362 0
vt 0.5 1 0
vt 0.74464964866638 0.75535035133362 0
vt 0.50053799152374 0.00165581703186 0
vt 0.74484550952911 0.75515449047089 0
vt 0.74504137039185 0.75495862960815 0
vt 0.74523729085922 0.75476276874542 0
vt 0.72123175859451 0.68088132143021 0
vt 0.7209849357605 0.68092042207718 0
vt 0.72073811292648 0.68095946311951 0
vt 0.72049129009247 0.68099856376648 0
vt 0.2555835545063 0.75463271141052 0
vt 0.25530993938446 0.75467610359192 0
vt 0.25503632426262 0.75471937656403 0
vt 0.72100907564163 0.68099474906921 0
vt 0.19191606342793 0.95058107376099 0
vt 0.72056376934052 0.68122166395187 0
vt 0.72078639268875 0.68110823631287 0
vt 0.19167397916317 0.95066893100739 0
vt 0.19139903783798 0.95069444179535 0
vt 0.19111704826355 0.95064401626587 0
vt 0.74496364593506 0.75471937656403 0
vt 0.74469006061554 0.75467610359192 0
vt 0.27926191687584 0.68095946311951 0
vt 0.27950873970985 0.68099856376648 0
vt 0.27901509404182 0.68092042207718 0
vt 0.27876827120781 0.68088132143021 0
vt 0.74441647529602 0.75463271141052 0
vt 0.27899092435837 0.68099474906921 0
vt 0.27921357750893 0.68110823631287 0
vt 0.80832600593567 0.95066893100739 0
vt 0.80808395147324 0.95058107376099 0
vt 0.27943626046181 0.68122166395187 0
vt 0.80860096216202 0.95069444179535 0
vt 0.80888295173645 0.95064401626587 0
# 45 texture coordinates

o Decagon_web
usemtl Mat
f 7/1/1 15/2/2 17/3/3
f 3/4/4 2/5/4 11/6/5 6/7/5
f 6/7/5 11/6/5 14/8/6 7/1/6
f 8/9/7 15/2/7 4/10/7
f 17/3/8 15/2/8 8/9/8
f 13/11/9 1/12/9 17/3/9
f 1/12/9 16/13/9 17/3/9
f 7/1/6 14/8/6 13/11/10 17/3/10
f 4/10/11 15/2/11 5/14/11
f 6/7/12 15/2/2 7/1/1
f 3/4/13 15/2/2 6/7/12
f 17/3/14 16/13/14 12/15/15 8/9/15
f 8/9/15 12/15/15 10/16/16 4/10/16
f 4/10/16 10/16/16 9/17/17 5/14/17
f 26/10/18 15/2/18 21/9/19
f 20/14/20 27/18/20 29/19/21 26/10/21
f 26/10/21 29/19/21 18/20/22 21/9/22
f 21/9/22 18/20/22 25/21/23 23/3/23
f 25/21/24 22/22/24 23/3/24
f 21/9/25 15/2/25 23/3/25
f 23/3/26 22/22/26 28/23/27 24/1/27
f 20/14/28 15/2/18 26/10/18
f 24/1/27 28/23/27 30/24/29 19/7/29
f 19/7/29 30/24/29 2/5/30 3/4/30
f 23/3/31 15/2/32 24/1/32
f 19/7/33 15/2/33 3/4/33
f 24/1/32 15/2/32 19/7/34
f 33/10/35 41/25/35 27/18/36 20/14/36
f 36/1/37 15/2/37 42/3/37
f 42/3/38 15/2/39 35/9/39
f 43/26/40 39/27/40 42/3/40
f 35/9/41 32/28/41 41/25/35 33/10/35
f 36/1/42 38/29/42 43/26/43 42/3/43
f 40/7/44 31/30/44 38/29/42 36/1/42
f 34/4/45 37/31/45 31/30/44 40/7/44
f 35/9/39 15/2/39 33/10/46
f 40/7/47 15/2/47 36/1/47
f 34/4/48 15/2/48 40/7/48
f 33/10/49 15/2/49 20/14/49
f 42/3/50 39/27/50 32/28/41 35/9/41
f 47/7/51 51/30/51 37/31/52 34/4/52
f 46/1/53 15/2/54 47/7/55
f 54/27/56 52/26/56 53/3/56
f 46/1/57 49/29/57 51/30/51 47/7/51
f 45/9/58 56/28/58 54/27/59 53/3/59
f 44/10/60 55/25/60 56/28/58 45/9/58
f 48/14/61 50/18/61 55/25/60 44/10/60
f 48/14/62 15/2/62 44/10/62
f 47/7/55 15/2/54 34/4/63
f 44/10/64 15/2/65 45/9/65
f 45/9/65 15/2/65 53/3/66
f 53/3/67 52/26/67 49/29/57 46/1/57
f 53/3/68 15/2/54 46/1/53
f 65/4/69 15/2/70 64/7/71
f 69/22/72 67/21/72 68/3/72
f 64/7/71 15/2/70 60/1/73
f 60/1/73 15/2/70 68/3/74
f 68/3/75 15/2/76 59/9/75
f 58/10/77 57/19/77 50/18/78 48/14/78
f 59/9/79 66/20/79 57/19/77 58/10/77
f 60/1/80 61/23/80 69/22/81 68/3/81
f 58/10/82 15/2/82 48/14/83
f 64/7/84 62/24/84 61/23/80 60/1/80
f 65/4/85 63/5/85 62/24/84 64/7/84
f 59/9/86 15/2/82 58/10/82
f 68/3/75 67/21/87 66/20/87 59/9/75
f 80/9/88 76/15/88 74/13/89 72/3/89
f 79/10/90 75/16/90 76/15/88 80/9/88
f 77/14/91 70/17/91 75/16/90 79/10/90
f 77/14/92 15/2/93 79/10/94
f 81/7/95 15/2/95 65/4/96
f 81/7/97 78/6/97 63/5/98 65/4/98
f 82/1/99 83/8/99 78/6/97 81/7/97
f 82/1/100 15/2/95 81/7/95
f 72/3/101 15/2/101 82/1/101
f 79/10/94 15/2/93 80/9/102
f 80/9/102 15/2/93 72/3/103
f 74/13/104 71/12/104 72/3/104
f 71/12/104 73/11/104 72/3/104
f 72/3/105 73/11/105 83/8/99 82/1/99
f 94/10/106 84/32/106 70/17/107 77/14/107
f 92/9/108 96/33/108 84/32/106 94/10/106
f 91/1/109 93/34/109 88/35/110 89/3/110
f 87/7/111 95/36/111 93/34/109 91/1/109
f 86/4/112 85/37/112 95/36/111 87/7/111
f 94/10/113 15/2/114 77/14/115
f 86/4/116 15/2/117 87/7/117
f 87/7/117 15/2/117 91/1/118
f 91/1/119 15/2/119 89/3/119
f 92/9/120 15/2/114 94/10/113
f 88/35/9 90/38/9 89/3/9
f 89/3/121 90/38/121 96/33/108 92/9/108
f 89/3/122 15/2/114 92/9/120
f 108/7/123 15/2/123 86/4/123
f 107/1/124 15/2/124 108/7/124
f 105/3/125 15/2/125 107/1/125
f 103/9/126 15/2/127 105/3/128
f 102/10/129 15/2/127 103/9/126
f 101/14/130 15/2/127 102/10/129
f 108/7/131 100/39/131 85/37/132 86/4/132
f 107/1/133 109/40/133 100/39/131 108/7/131
f 103/9/134 97/41/134 104/42/135 105/3/135
f 104/42/24 106/43/24 105/3/24
f 102/10/136 98/44/136 97/41/134 103/9/134
f 101/14/137 99/45/137 98/44/136 102/10/136
f 105/3/138 106/43/138 109/40/133 107/1/133
f 118/10/139 15/2/139 101/14/139
f 117/9/140 15/2/140 118/10/140
f 120/3/141 15/2/141 117/9/141
f 116/1/142 15/2/142 120/3/143
f 115/7/144 15/2/142 116/1/142
f 114/4/145 15/2/145 115/7/145
f 118/10/146 113/44/146 99/45/147 101/14/147
f 117/9/148 122/41/148 113/44/146 118/10/146
f 119/43/72 121/42/72 120/3/72
f 116/1/149 110/40/149 119/43/150 120/3/150
f 115/7/151 111/39/151 110/40/149 116/1/149
f 114/4/152 112/37/152 111/39/151 115/7/151
f 120/3/153 121/42/153 122/41/148 117/9/148
f 129/7/154 15/2/155 114/4/156
f 128/1/157 15/2/155 129/7/154
f 133/3/158 15/2/155 128/1/157
f 127/9/159 15/2/155 133/3/158
f 126/10/160 15/2/155 127/9/159
f 5/14/161 15/2/161 126/10/161
f 129/7/162 125/36/162 112/37/163 114/4/163
f 132/38/104 131/35/104 133/3/104
f 128/1/164 130/34/164 125/36/162 129/7/162
f 127/9/165 123/33/165 132/38/166 133/3/166
f 126/10/167 124/32/167 123/33/165 127/9/165
f 5/14/168 9/17/168 124/32/167 126/10/167
f 133/3/169 131/35/169 130/34/164 128/1/164

