# WaveFront *.obj file (generated by CINEMA 4D)

mtllib ./DecagonShape_62.mtl

v -0.00031189605943 0.00357953202911 -0.00110561132897
v 0.00149716809392 0.00192214839626 -0.0008939615218
v 0.00001669405174 -0.00347554986365 -0.00105346227065
v 0.00000226962834 -0.00347129767761 -0.00107071083039
v 0.0000013934357 -0.00347218755633 -0.00106850604061
v 0.00001373452869 -0.00347375660203 -0.00106526643503
v 0.00000733308843 -0.0034703060519 -0.00107057963032
v 0.00000429949341 -0.00346966343932 -0.0010713635711
v -0.00195531127974 0.00176987866871 -0.00127931404859
v -0.00195502792485 0.00177086819895 -0.00128095981199
v 0.0014961566776 0.00192359881476 -0.00090244453168
v -0.00195407238789 0.00177212932613 -0.00128208403476
v 0.00148369732779 0.00192914868239 -0.00091216090368
v 0.00149120308924 0.00192607718054 -0.00090910843574
v 0.00000971642203 -0.00348541745916 -0.00106293044519
v -0.00195278401952 0.00177354796324 -0.001282394398
v 0.00000352380948 -0.003467454575 -0.00107162923086
v -0.00176786992233 0.00125458557159 -0.00122777186334
v 0.00001128813983 -0.00347375660203 -0.00104255927727
v -0.0000091739621 -0.00347459502518 -0.00103028537706
v 0.00000061428148 -0.00346970045939 -0.00103849789593
v 0.00147871905938 0.00192400498781 -0.00087920110673
v -0.00000004352971 -0.003467454575 -0.00103851745371
v 0.00000390242622 -0.00347030651756 -0.00103872094769
v -0.00176317221485 0.0012560156174 -0.00122847023886
v -0.00000579883681 -0.00347292539664 -0.0010363003239
v -0.00177392188925 0.00125321303494 -0.00122041255236
v 0.00148717314005 0.00192264793441 -0.00088053412037
v -0.00177174794953 0.00125355040655 -0.00122485798784
v 0.00149390287697 0.00192188436631 -0.00088593928376
v 0.0016850035172 0.00329661462456 0.00003447266499
v -0.00177172594704 0.00125499349087 -0.00121121061966
v -0.00000851166897 -0.0034734159708 -0.00102331896778
v -0.00000103931893 -0.00347251957282 -0.00102143618278
v -0.00000580898222 -0.00347067625262 -0.00101965398062
v -0.00000417913225 -0.00347025692463 -0.0010189084569
v 0.00168617616873 0.00329685932957 0.00003287658546
v 0.00168322527315 0.0032961582765 0.0000350773189
v -0.00176791497506 0.00125681550708 -0.00120861118194
v -0.00000241599128 -0.003471855307 -0.0010194152128
v -0.00177390570752 0.00125371292233 -0.0012154779397
v -0.00000420667538 -0.00346820731647 -0.00101859588176
v 0.00168158055749 0.00329544115812 0.00003482434477
v -0.00000298577288 -0.00347148161381 -0.00102650746703
v -0.00000238730308 -0.00346962432377 -0.00102525297552
v -0.00000182651843 -0.00346961757168 -0.00102484365925
v -0.00000104694061 -0.00347151909955 -0.00102376425639
v -0.00000307808091 -0.0034722648561 -0.00102892331779
v 0.0016850392567 0.00329660344869 0.0000293150988
v -0.00176782603376 0.00125554343686 -0.00121905060951
v 0.00168613402639 0.00329689215869 0.00003088161975
v 0.00168357684743 0.00329593149945 0.0000284824655
v -0.00000221031746 -0.00346771720797 -0.00102493772283
v -0.00176591856871 0.001257305732 -0.00121495302301
v -0.00176788319368 0.00125588593073 -0.00121733546257
v -0.00176718551666 0.00125650130212 -0.00121585326269
v -0.00176700449083 0.00125549256336 -0.00122059497517
v -0.00000203916352 -0.00347131048329 -0.0010310371872
v 0.00000051641172 -0.00346980104223 -0.00103182590101
v 0.00000494932465 -0.0034707877785 -0.00103215454146
v 0.00148974952754 0.00192176154815 -0.00087444961537
v 0.00149907928426 0.00192034896463 -0.00088202895131
v 0.00150355754886 0.00192037574016 -0.000893273158
v 0.00001544889165 -0.00347504694946 -0.00103751267307
v 0.00002308368676 -0.003477322869 -0.00105277379043
v -0.00176558841486 0.0012556851143 -0.0012216049945
v -0.00176388630643 0.0012560156174 -0.00122184189968
v -0.00000075763882 -0.003467454575 -0.00103188911453
v 0.00147800496779 0.00192400498781 -0.00087257276755
v -0.00196151668206 0.00176753522828 -0.00127998262178
v -0.00031118196785 0.00357953202911 -0.00111223966815
v 0.00000423791835 -0.003467454575 -0.00107825745363
v 0.00148441141937 0.00192914868239 -0.00091878918465
v -0.00195206992794 0.00177354796324 -0.00128902273718
v -0.00196004495956 0.00176883884706 -0.00128485297319
v -0.00195655669086 0.00177095783874 -0.00128815858625
v -0.00000481196685 -0.00347453076392 -0.0010691746138
v 0.0015020474093 0.00192206387874 -0.00090516248019
v -0.00000175703644 -0.00347300292924 -0.00107574288268
v 0.00000226961356 -0.00347001105547 -0.00107809202746
v 0.00001887471444 -0.00347504694946 -0.00106931093615
v 0.00000692972662 -0.00347030814737 -0.00107768503949
v 0.00149501627311 0.00192519079428 -0.00091450451873
v -0.00196049455553 0.00176717387512 -0.00127484358381
v 0.00133915094193 0.00139616837259 -0.00091098569101
v 0.00000391478261 -0.00347200408578 -0.00105483899824
v 0.0000034541556 -0.00347117590718 -0.00105717743281
v 0.00133610668126 0.00139625114389 -0.00091465126025
v 0.0000020955913 -0.003467454575 -0.00105837255251
v -0.00195234757848 0.00176855258178 -0.00126893690322
v 0.00000202879369 -0.00346953445114 -0.00105837546289
v 0.00000020770048 -0.00347001105547 -0.00105895346496
v 0.00133772240952 0.00139607640449 -0.00091403000988
v -0.00000322618871 -0.00347300292924 -0.00106210634112
v 0.00133882951923 0.00139602017589 -0.0009126891382
v -0.00195716880262 0.00176762789488 -0.00127080385573
v -0.00246388674714 0.00313302711584 -0.00131706660613
v -0.00246554031037 0.00313327391632 -0.00131609698292
v -0.00246638455428 0.00313332723454 -0.00131428951863
v 0.00133862020448 0.0013965528924 -0.0009093740955
v -0.00000074568601 -0.00347218755633 -0.00104865094181
v 0.00000013050676 -0.00347129767761 -0.00105085561518
v 0.00000113701731 -0.00346937752329 -0.00105168658774
v -0.00246216706 0.00313246808946 -0.00131718779448
v 0.00000138468829 -0.003467454575 -0.00105177401565
v 0.00133583438583 0.00139784999192 -0.00090800545877
v 0.00000181053963 -0.003469344927 -0.00105184328277
v 0.00000296663666 -0.00347117590718 -0.00105265236925
v 0.00133739912417 0.00139714241959 -0.00090828404063
v 0.00133997551166 0.00139625603333 -0.00090219953563
v 0.00134379684459 0.00139501760714 -0.00090546376305
v 0.0013455406297 0.00139439525083 -0.00091029732721
v -0.0024659447372 0.00313327391632 -0.00131234375294
v 0.00001030441763 -0.00347377709113 -0.00105415063445
v 0.00000712738847 -0.00347246625461 -0.00104760576505
v 0.00000285456053 -0.00346982455812 -0.00104529771488
v 0.00000095747794 -0.00346951768734 -0.00104527419899
v -0.0000003592107 -0.00347129767761 -0.00104631017894
v 0.00133512029424 0.00139784999192 -0.00090137711959
v 0.00000067057925 -0.003467454575 -0.00104514567647
v -0.00246288115159 0.00313246808946 -0.00131055945531
v -0.00246453541331 0.00313302711584 -0.00131104409229
v -0.00195344770327 0.00176879938226 -0.00127620983403
v -0.00195476366207 0.0017692031106 -0.0012775787618
v 0.00134472013451 0.00139448477421 -0.00091540708672
v 0.00000177991103 -0.00347129767761 -0.00106616527773
v 0.00000310907444 -0.00346952304244 -0.00106506003067
v 0.00000491882656 -0.00346982618794 -0.00106440670788
v 0.00000859434203 -0.00347246625461 -0.00106122193392
v 0.00134153559338 0.00139519001823 -0.00091942609288
v 0.00133682077285 0.00139625114389 -0.00092127954122
v -0.0019516334869 0.00176855258178 -0.00127556524239
v 0.00000280970039 -0.003467454575 -0.00106500089169
# 133 vertices

vn 0.20358030498028 -0.41640850901604 -0.88609200716019
vn 0.48882931470871 -0.44206753373146 -0.75207859277725
vn -0.10322858393192 -0.46211341023445 -0.88079231977463
vn -0.94349879026413 0.25251460075378 0.214584171772
vn -0.84555697441101 0.21754512190819 0.48755261301994
vn -0.49916183948517 0.11146699637175 0.8593093752861
vn 0.07624593377113 -0.45005452632904 -0.88974010944366
vn 0.94276291131973 0.33304825425148 0.01664143428206
vn -0.10711636394262 0 0.99424648284912
vn -0.29609459638596 0.05297144502401 0.953688621521
vn -0.62777882814407 -0.60259884595871 -0.49271529912949
vn 0.73151445388794 -0.36715862154961 -0.57452690601349
vn 0.88963937759399 -0.36224716901779 -0.27806249260902
vn 0.62054014205933 0.26151973009109 0.73928165435791
vn 0.51947331428528 0.22714857757092 0.82374209165573
vn 0.66814792156219 0.27720579504967 0.69046020507812
vn 0.84992706775665 0.33365374803543 0.40779799222946
vn 0.51480823755264 -0.62086778879166 0.59118151664734
vn -0.81387609243393 -0.32326835393906 -0.48280769586563
vn -0.63931691646576 -0.26764699816704 -0.72085988521576
vn -0.14698193967342 -0.09447527676821 -0.98461705446243
vn 0.12550869584084 0.00693379947916 -0.99206829071045
vn 0.10711636394262 0 -0.99424648284912
vn 0.94481575489044 0.27820873260498 0.17298276722431
vn -0.08509986847639 0.05264339223504 -0.99498075246811
vn -0.30440777540207 0.11138439923525 -0.94600707292557
vn 0.86884659528732 0.02503816783428 0.49444791674614
vn -0.72248959541321 0.21763142943382 -0.65623569488525
vn -0.87613981962204 0.25257489085197 -0.41059103608131
vn -0.5367579460144 -0.76761698722839 0.35022148489952
vn -0.34629628062248 -0.83093756437302 0.43545567989349
vn 0.53443449735641 -0.75065535306931 0.38845372200012
vn -0.13938403129578 -0.85472720861435 0.50001347064972
vn -0.87944746017456 -0.31392452120781 0.35780382156372
vn -0.93405133485794 -0.34501585364342 0.09226120263338
vn 0.94954597949982 -0.03476383537054 0.31169527769089
vn -0.65312528610229 0.6138619184494 -0.4433970451355
vn -0.27050849795341 0.88579118251801 -0.37709298729897
vn -0.49640104174614 0.75173419713974 -0.43414479494095
vn -0.299450725317 -0.07350672036409 0.95127600431442
vn -0.62431997060776 -0.2026478946209 0.75442588329315
vn 0.09594924002886 -0.17648437619209 0.97961574792862
vn -0.05373600870371 -0.14056716859341 0.98861181735992
vn 0.53663295507431 -0.25884702801704 0.80313342809677
vn 0.77124327421188 -0.28118252754211 0.57106935977936
vn -0.04603141546249 0.94995027780533 -0.30899125337601
vn 0.66328823566437 0.74683433771133 -0.04782412201166
vn 0.04038292914629 0.95707273483276 -0.28702080249786
vn 0.2301652431488 0.95567631721497 -0.18359391391277
vn -0.46034291386604 -0.13649766147137 0.87718456983566
vn 0.91871637105942 -0.17374789714813 -0.35464334487915
vn 0.97065991163254 -0.23223063349724 -0.06235628202558
vn -0.93630719184875 -0.31633451581001 -0.15251642465591
vn -0.9353688955307 -0.32121142745018 -0.14801456034184
vn -0.91822850704193 -0.37801325321198 -0.11816235631704
vn 0.299450725317 0.07350672036409 -0.95127600431442
vn 0.63367331027985 -0.0375841781497 -0.77268725633621
vn 0.6229419708252 0.2021112293005 -0.75570785999298
vn 0.4539986550808 0.13400787115097 -0.88086724281311
vn 0.88007915019989 0.31418618559837 -0.35601654648781
vn 0.93407183885574 0.34495997428894 -0.09226264804602
vn -0.1419054120779 -0.94003647565842 0.31015193462372
vn -0.93337965011597 -0.33084025979042 -0.13909386098385
vn 0.71232664585114 -0.53574723005295 0.45339348912239
vn 0.83952975273132 -0.34934774041176 0.41610810160637
vn 0.92280864715576 -0.14466822147369 0.35706490278244
vn 0.45231530070305 0.026113236323 -0.89147573709488
vn -0.95723164081573 -0.20350079238415 -0.20565737783909
vn -0.32098269462585 0.90003395080566 -0.29480335116386
vn 0.107751339674 0.92694008350372 -0.35940462350845
vn -0.0832963436842 0.92911744117737 -0.36028119921684
vn 0.31741774082184 0.87457710504532 -0.36655274033546
vn 0.46673375368118 0.824602663517 -0.31967172026634
vn -0.87842321395874 -0.47746005654335 -0.02011407539248
vn 0.63283962011337 0.26551374793053 0.72733515501022
vn 0.81388473510742 0.32324001193047 0.48281213641167
vn 0.39110907912254 0.18233415484428 0.90210193395615
vn 0.30438053607941 -0.11138718575239 0.94601553678513
vn 0.08506932854652 -0.05264510586858 0.99498325586319
vn -0.77440476417542 0.42147576808929 -0.47186380624771
vn -0.91162794828415 0.12532734870911 -0.39144283533096
vn 0.72248041629791 -0.2176086306572 0.65625339746475
vn 0.87614643573761 -0.25254598259926 0.41059464216232
vn -0.54968851804733 0.66999387741089 -0.49894967675209
vn 0.9315442442894 0.3432434797287 -0.12003829330206
vn -0.29280215501785 -0.14726532995701 -0.94476443529129
vn -0.07959575206041 -0.06963981688023 -0.99439167976379
vn -0.6998730301857 -0.28755006194115 -0.65382927656174
vn -0.84992951154709 -0.33368521928787 -0.4077670276165
vn 0.43789374828339 0.8091367483139 0.39185044169426
vn -0.06303444504738 0.72427421808243 0.68662476539612
vn 0.18891178071499 0.78438651561737 0.59080463647842
vn -0.46173539757729 0.72351008653641 0.51316034793854
vn -0.63768619298935 0.72437399625778 0.26198971271515
vn 0.83787608146667 -0.21514140069485 -0.50167500972748
vn 0.94347852468491 -0.25261229276657 -0.21455824375153
vn 0.47372290492058 -0.10404618084431 -0.87450611591339
vn -0.24233493208885 0.65458309650421 0.71609687805176
vn 0.55428737401962 0.63158148527145 0.54209810495377
vn -0.31342312693596 0.58479005098343 0.74818885326386
vn -0.52742666006088 0.45262497663498 0.7189936041832
vn 0.26982352137566 -0.04536561667919 -0.96184051036835
vn -0.82308173179626 -0.28758415579796 0.48972627520561
vn -0.91726499795914 -0.33372136950493 0.21738217771053
vn -0.4873428940773 -0.14726491272449 0.86070317029953
vn -0.46140813827515 0.10050001740456 0.88147735595703
vn -0.23538663983345 0.03584712743759 0.9712405204773
vn -0.83976984024048 0.21560430526733 0.4982984662056
vn -0.94351774454117 0.25244826078415 0.21457900106907
vn 0.53916752338409 0.60123866796494 -0.58975458145142
vn 0.37087279558182 0.51084077358246 -0.7755611538887
vn 0.65106207132339 0.69848942756653 -0.29703652858734
vn 0.90996158123016 0.41339239478111 -0.03281302377582
vn 0.87394911050797 0.45418065786362 -0.17301118373871
vn 0.81815642118454 0.48471686244011 -0.30930513143539
vn 0.48383703827858 -0.01673047244549 0.87499815225601
vn 0.17843954265118 0.34774744510651 -0.92045152187347
vn -0.28960409760475 -0.06964080780745 0.95460969209671
vn -0.0221297647804 0.23704212903976 -0.9712473154068
vn 0.92396765947342 0.20473936200142 0.32305663824081
vn -0.69158715009689 -0.60856169462204 0.38905003666878
vn -0.90878438949585 -0.19111931324005 -0.37092363834381
vn 0.73694831132889 -0.07661061733961 0.67159360647202
vn 0.79672330617905 0.02268187329173 0.60391849279404
vn 0.74571639299393 -0.06587668508291 0.66299873590469
vn 0.81851553916931 0.06782280653715 0.57046681642532
vn 0.87281548976898 0.21997785568237 0.4356637597084
vn -0.72342044115067 0.21778939664364 -0.65515697002411
vn -0.87616604566574 0.25247964262962 -0.41059362888336
vn -0.30311524868011 0.11109470576048 -0.94645607471466
vn -0.26146510243416 -0.13599681854248 -0.95558404922485
vn -0.05244277045131 -0.05964595451951 -0.99684107303619
vn -0.68070644140244 -0.28126505017281 -0.67640864849091
vn -0.84205532073975 -0.33142066001892 -0.42556220293045
vn -0.07959681749344 0.05122862383723 -0.99550992250442
vn 0.48084595799446 0.79025232791901 -0.37985309958458
vn -0.29315006732941 0.63359785079956 -0.7159726023674
vn -0.92549926042557 -0.10602407902479 -0.36360701918602
vn 0.43614163994789 0.75157636404037 -0.4948872923851
vn 0.68892937898636 0.65476220846176 -0.31090635061264
vn 0.13664302229881 0.76788228750229 -0.62584781646729
vn -0.79516273736954 0.39024394750595 -0.46413993835449
vn -0.79440259933472 -0.27475783228874 0.54169422388077
vn -0.9133768081665 -0.3314206302166 0.23643855750561
vn -0.47464081645012 -0.14224740862846 0.86860913038254
vn 0.30483469367027 -0.11152087897062 0.94585353136063
vn 0.08690595626831 -0.05318893119693 0.99479562044144
vn 0.72218668460846 -0.21751615405083 0.65660727024078
vn 0.87615966796875 -0.25248816609383 0.41060188412666
vn -0.35147151350975 -0.09373240917921 0.93149447441101
vn -0.87198352813721 -0.13752599060535 0.46982055902481
vn -0.64033496379852 -0.0995030105114 0.761623442173
vn -0.97038978338242 -0.11228815466166 0.21385741233826
vn -0.50261002779007 -0.07308664917946 0.86141830682755
vn -0.38975930213928 -0.04382262006402 0.91987353563309
vn -0.52676779031754 -0.10597463697195 0.84337717294693
vn -0.54134851694107 -0.11340403556824 0.83311539888382
vn -0.85939437150955 -0.41444560885429 0.29945981502533
vn 0.84591555595398 -0.21768768131733 -0.48686647415161
vn 0.94350475072861 -0.25251710414886 -0.2145552188158
vn 0.49856096506119 -0.11130663007498 -0.85967886447906
vn 0.48064413666725 0.14462894201279 -0.86490672826767
vn 0.31617370247841 0.07997938245535 -0.94532400369644
vn 0.81242060661316 0.28275567293167 -0.50992357730865
vn 0.91729539632797 0.33366033434868 -0.21734744310379
vn 0.2933534681797 -0.05215990543365 -0.95458006858826
# 166 normals

vt 0.49995157122612 0.00212597846985 0
vt 0.5 0 0
vt 0.5 0.00239622592926 0
vt 0.49946200847626 0.00165581703186 0
vt 0.2547627389431 0.75476276874542 0
vt 0.25495859980583 0.75495862960815 0
vt 0.49977412819862 0.00184786319733 0
vt 0.25515449047089 0.75515449047089 0
vt 0.50004839897156 0.00212597846985 0
vt 0.50022584199905 0.00184786319733 0
vt 0.25535038113594 0.75535035133362 0
vt 0.5 1 0
vt 0.74464964866638 0.75535035133362 0
vt 0.50053799152374 0.00165581703186 0
vt 0.74484550952911 0.75515449047089 0
vt 0.74504137039185 0.75495862960815 0
vt 0.74523729085922 0.75476276874542 0
vt 0.72123175859451 0.68088132143021 0
vt 0.7209849357605 0.68092042207718 0
vt 0.72073811292648 0.68095946311951 0
vt 0.72049129009247 0.68099856376648 0
vt 0.2555835545063 0.75463271141052 0
vt 0.25530993938446 0.75467610359192 0
vt 0.25503632426262 0.75471937656403 0
vt 0.72100907564163 0.68099474906921 0
vt 0.19191606342793 0.95058107376099 0
vt 0.72056376934052 0.68122166395187 0
vt 0.72078639268875 0.68110823631287 0
vt 0.19167397916317 0.95066893100739 0
vt 0.19139903783798 0.95069444179535 0
vt 0.19111704826355 0.95064401626587 0
vt 0.74496364593506 0.75471937656403 0
vt 0.74469006061554 0.75467610359192 0
vt 0.27926191687584 0.68095946311951 0
vt 0.27950873970985 0.68099856376648 0
vt 0.27901509404182 0.68092042207718 0
vt 0.27876827120781 0.68088132143021 0
vt 0.74441647529602 0.75463271141052 0
vt 0.27899092435837 0.68099474906921 0
vt 0.27921357750893 0.68110823631287 0
vt 0.80832600593567 0.95066893100739 0
vt 0.80808395147324 0.95058107376099 0
vt 0.27943626046181 0.68122166395187 0
vt 0.80860096216202 0.95069444179535 0
vt 0.80888295173645 0.95064401626587 0
# 45 texture coordinates

o Decagon_web
usemtl Mat
f 7/1/1 15/2/2 17/3/3
f 3/4/4 2/5/4 11/6/5 6/7/5
f 6/7/5 11/6/5 14/8/6 7/1/6
f 8/9/7 15/2/7 4/10/7
f 17/3/8 15/2/8 8/9/8
f 13/11/9 1/12/9 17/3/9
f 1/12/9 16/13/9 17/3/9
f 7/1/6 14/8/6 13/11/10 17/3/10
f 4/10/11 15/2/11 5/14/11
f 6/7/12 15/2/2 7/1/1
f 3/4/13 15/2/2 6/7/12
f 17/3/14 16/13/14 12/15/15 8/9/15
f 8/9/15 12/15/15 10/16/16 4/10/16
f 4/10/16 10/16/16 9/17/17 5/14/17
f 26/10/18 15/2/18 21/9/18
f 20/14/19 27/18/19 29/19/20 26/10/20
f 26/10/20 29/19/20 18/20/21 21/9/21
f 21/9/21 18/20/21 25/21/22 23/3/22
f 25/21/23 22/22/23 23/3/23
f 21/9/24 15/2/24 23/3/24
f 23/3/25 22/22/25 28/23/26 24/1/26
f 20/14/27 15/2/27 26/10/27
f 24/1/26 28/23/26 30/24/28 19/7/28
f 19/7/28 30/24/28 2/5/29 3/4/29
f 23/3/30 15/2/31 24/1/31
f 19/7/32 15/2/32 3/4/32
f 24/1/31 15/2/31 19/7/33
f 33/10/34 41/25/34 27/18/35 20/14/35
f 36/1/36 15/2/36 42/3/36
f 42/3/37 15/2/38 35/9/39
f 43/26/40 39/27/40 42/3/40
f 35/9/41 32/28/41 41/25/34 33/10/34
f 36/1/42 38/29/42 43/26/43 42/3/43
f 40/7/44 31/30/44 38/29/42 36/1/42
f 34/4/45 37/31/45 31/30/44 40/7/44
f 35/9/39 15/2/38 33/10/46
f 40/7/47 15/2/47 36/1/47
f 34/4/48 15/2/48 40/7/48
f 33/10/46 15/2/38 20/14/49
f 42/3/50 39/27/50 32/28/41 35/9/41
f 47/7/51 51/30/51 37/31/52 34/4/52
f 46/1/53 15/2/54 47/7/55
f 54/27/56 52/26/56 53/3/56
f 46/1/57 49/29/57 51/30/51 47/7/51
f 45/9/58 56/28/58 54/27/59 53/3/59
f 44/10/60 55/25/60 56/28/58 45/9/58
f 48/14/61 50/18/61 55/25/60 44/10/60
f 48/14/62 15/2/62 44/10/62
f 47/7/55 15/2/54 34/4/63
f 44/10/64 15/2/65 45/9/65
f 45/9/65 15/2/65 53/3/66
f 53/3/67 52/26/67 49/29/57 46/1/57
f 53/3/68 15/2/54 46/1/53
f 65/4/69 15/2/70 64/7/71
f 69/22/9 67/21/9 68/3/9
f 64/7/71 15/2/70 60/1/72
f 60/1/72 15/2/70 68/3/73
f 68/3/74 15/2/74 59/9/74
f 58/10/75 57/19/75 50/18/76 48/14/76
f 59/9/77 66/20/77 57/19/75 58/10/75
f 60/1/78 61/23/78 69/22/79 68/3/79
f 58/10/80 15/2/80 48/14/81
f 64/7/82 62/24/82 61/23/78 60/1/78
f 65/4/83 63/5/83 62/24/82 64/7/82
f 59/9/84 15/2/80 58/10/80
f 68/3/85 67/21/85 66/20/85 59/9/85
f 80/9/86 76/15/86 74/13/87 72/3/87
f 79/10/88 75/16/88 76/15/86 80/9/86
f 77/14/89 70/17/89 75/16/88 79/10/88
f 77/14/90 15/2/91 79/10/92
f 81/7/93 15/2/93 65/4/94
f 81/7/95 78/6/95 63/5/96 65/4/96
f 82/1/97 83/8/97 78/6/95 81/7/95
f 82/1/98 15/2/93 81/7/93
f 72/3/99 15/2/99 82/1/99
f 79/10/92 15/2/91 80/9/100
f 80/9/100 15/2/91 72/3/101
f 74/13/23 71/12/23 72/3/23
f 71/12/23 73/11/23 72/3/23
f 72/3/102 73/11/102 83/8/97 82/1/97
f 94/10/103 84/32/103 70/17/104 77/14/104
f 92/9/105 96/33/105 84/32/103 94/10/103
f 91/1/106 93/34/106 88/35/107 89/3/107
f 87/7/108 95/36/108 93/34/106 91/1/106
f 86/4/109 85/37/109 95/36/108 87/7/108
f 94/10/110 15/2/111 77/14/112
f 86/4/113 15/2/114 87/7/114
f 87/7/114 15/2/114 91/1/115
f 91/1/116 15/2/116 89/3/116
f 92/9/117 15/2/111 94/10/110
f 88/35/9 90/38/9 89/3/9
f 89/3/118 90/38/118 96/33/105 92/9/105
f 89/3/119 15/2/111 92/9/117
f 108/7/120 15/2/120 86/4/120
f 107/1/121 15/2/121 108/7/121
f 105/3/122 15/2/122 107/1/122
f 103/9/123 15/2/124 105/3/125
f 102/10/126 15/2/124 103/9/123
f 101/14/127 15/2/124 102/10/126
f 108/7/128 100/39/128 85/37/129 86/4/129
f 107/1/130 109/40/130 100/39/128 108/7/128
f 103/9/131 97/41/131 104/42/132 105/3/132
f 104/42/23 106/43/23 105/3/23
f 102/10/133 98/44/133 97/41/131 103/9/131
f 101/14/134 99/45/134 98/44/133 102/10/133
f 105/3/135 106/43/135 109/40/130 107/1/130
f 118/10/136 15/2/136 101/14/136
f 117/9/137 15/2/137 118/10/137
f 120/3/138 15/2/138 117/9/138
f 116/1/139 15/2/139 120/3/140
f 115/7/141 15/2/139 116/1/139
f 114/4/142 15/2/142 115/7/142
f 118/10/143 113/44/143 99/45/144 101/14/144
f 117/9/145 122/41/145 113/44/143 118/10/143
f 119/43/9 121/42/9 120/3/9
f 116/1/146 110/40/146 119/43/147 120/3/147
f 115/7/148 111/39/148 110/40/146 116/1/146
f 114/4/149 112/37/149 111/39/148 115/7/148
f 120/3/150 121/42/150 122/41/145 117/9/145
f 129/7/151 15/2/152 114/4/153
f 128/1/154 15/2/152 129/7/151
f 133/3/155 15/2/152 128/1/154
f 127/9/156 15/2/152 133/3/155
f 126/10/157 15/2/152 127/9/156
f 5/14/158 15/2/158 126/10/158
f 129/7/159 125/36/159 112/37/160 114/4/160
f 132/38/23 131/35/23 133/3/23
f 128/1/161 130/34/161 125/36/159 129/7/159
f 127/9/162 123/33/162 132/38/163 133/3/163
f 126/10/164 124/32/164 123/33/162 127/9/162
f 5/14/165 9/17/165 124/32/164 126/10/164
f 133/3/166 131/35/166 130/34/161 128/1/161

