# WaveFront *.obj file (generated by CINEMA 4D)

mtllib ./DecagonShape_75.mtl

v 0.00000277929166 0.0034216796048 -0.00003987332093
v 0.00177114992402 0.0017120441189 0.0001000795819
v 0.00001648912075 -0.00352747086436 -0.00002222560215
v 0.00000136759593 -0.00352257490158 -0.00003892176028
v 0.00000052477571 -0.0035234214738 -0.00003668904901
v 0.00001310307198 -0.00352552207187 -0.00003390863276
v 0.00000655578469 -0.00352182355709 -0.00003897307397
v 0.0000034760867 -0.00352105498314 -0.00003964328062
v -0.00175413582474 0.00171609362587 -0.00015899422579
v -0.00175386795308 0.00171706150286 -0.00016064624651
v 0.00176985573489 0.00171355449129 0.00009164332005
v -0.00175288517494 0.00171826442238 -0.00016180079547
v 0.00175708392635 0.00171960366424 0.00008240703755
v 0.0017646800261 0.00171623995993 0.00008517282549
v 0.00000858616113 -0.00353681785055 -0.00003146385643
v -0.00175152532756 0.00171960366424 -0.00016215367941
v 0.00000277929166 -0.00351884844713 -0.00003987332093
v -0.00158561114222 0.0012010615319 -0.0001158617597
v 0.0000115150051 -0.00352552207187 -0.00001112530208
v -0.00000868421375 -0.00352544849738 0.00000273610522
v 0.00000102142519 -0.00352108757943 -0.00000666267943
v 0.00175309600309 0.00171461061109 0.00011551327771
v 0.0000004635622 -0.00351884844713 -0.00000665053085
v 0.00000432936213 -0.00352182425559 -0.00000700762439
v -0.00158060912509 0.00120232300833 -0.00011685609206
v -0.00000577342371 -0.00352405011654 -0.00000393538403
v -0.00159120885655 0.00120005873032 -0.00010757066775
v 0.00176155986264 0.00171291118022 0.0001138669104
v -0.00158948253375 0.00120020727627 -0.00011246246868
v 0.00176814058796 0.00171189033426 0.00010821587784
v 0.00221158773638 0.0030787975993 0.0001660707494
v -0.00158716202714 0.0012020963477 -0.00009860732825
v -0.00000672712076 -0.00352405011654 0.0000097469001
v 0.00000132739217 -0.0035234214738 0.00001011678614
v -0.00000297941051 -0.00352127454244 0.000012771402
v -0.00000109822554 -0.00352088874206 0.0000131302213
v 0.00221237097867 0.00307887862436 0.00016423323541
v 0.00220995931886 0.00307848677039 0.00016710118507
v -0.00158251961693 0.0012038750574 -0.00009694073378
v 0.00000048457173 -0.00352257490158 0.00001234949923
v -0.00159035099205 0.00120072485879 -0.00010249874322
v -0.00000092712435 -0.00351884844713 0.0000133010617
v 0.002208244754 0.00307786231861 0.00016728705668
v -0.00000172959494 -0.00352257490158 0.00000551232279
v -0.00000079468288 -0.00352072599344 0.00000651212122
v -0.0000001449643 -0.00352072832175 0.0000067864321
v 0.00000080247059 -0.00352257490158 0.000007788738
v -0.0000022545164 -0.0035234214738 0.00000318427465
v 0.0022103805095 0.00307848677039 0.00016105845862
v -0.00158477912191 0.00120208587032 -0.00010712249787
v 0.00221185036935 0.0030787975993 0.00016230484471
v 0.00220870831981 0.00307786231861 0.00016063652583
v -0.00000046356217 -0.00351884844713 0.00000665053085
v -0.00158205605112 0.0012038750574 -0.00010359126463
v -0.00158455094788 0.00120248028543 -0.00010543587996
v -0.00158354570158 0.00120310974307 -0.00010414276767
v -0.00158414593898 0.00120196270291 -0.00010874907457
v -0.00000141169608 -0.00352257490158 0.00000095156162
v 0.0000011882247 -0.0035212112125 0.00000000900951
v 0.00000562827609 -0.0035223744344 -0.00000048508997
v 0.00176437327173 0.00171189778484 0.0001198505197
v 0.00177347706631 0.00171013490763 0.00011192926468
v 0.00177757942583 0.00171001744457 0.00010052773723
v 0.0000158767325 -0.00352699728683 -0.00000623835695
v 0.00002291881719 -0.00352949788794 -0.00002177743227
v -0.00158279773314 0.00120207492728 -0.00010987814312
v -0.0015810726909 0.00120232300833 -0.00011020556121
v 0.00000000000001 -0.00351884844713 0
v 0.00175263255369 0.00171461061109 0.00012216380856
v -0.00176056555938 0.00171406648587 -0.00015944239567
v 0.00000324285384 0.0034216796048 -0.00004652385178
v 0.00000324285384 -0.00351884844713 -0.00004652385178
v 0.00175754749216 0.00171960366424 0.0000757565067
v -0.00175106176175 0.00171960366424 -0.00016880421026
v -0.00175920454785 0.00171530619264 -0.0001643596479
v -0.0017556984676 0.001717251027 -0.00016778439749
v -0.00000590492164 -0.00352544849738 -0.0000371372189
v 0.00177565589547 0.0017117994139 0.00008870619786
v -0.00000299413205 -0.00352405011654 -0.0000438087045
v 0.00000113557348 -0.00352127547376 -0.0000462944663
v 0.00001810059803 -0.00352699728683 -0.00003814320735
v 0.00000586658098 -0.00352177442983 -0.00004605947106
v 0.00176829635166 0.00171522656456 0.00007963738608
v -0.00175934250001 0.0017136419192 -0.00015434500528
v 0.00158615433611 0.0012020902941 0.0000871848315
v 0.00000362972833 -0.00352341705002 -0.00002312194192
v 0.00000310802193 -0.00352257164195 -0.00002543947812
v 0.00158292485867 0.00120232300833 0.00008363329835
v 0.00000185216732 -0.00351884844713 -0.00002657226287
v -0.00175078038592 0.00171461061109 -0.00014873607142
v 0.00000168941449 -0.00352088990621 -0.00002657931873
v -0.00000020291223 -0.00352127547376 -0.00002709177534
v 0.0015845807502 0.00120207725558 0.00008419438382
v -0.00000394782865 -0.00352405011654 -0.00003012642264
v 0.00158575433306 0.00120196689386 0.00008549373888
v -0.0017557881074 0.00171392271295 -0.00015042812447
v -0.00220949575305 0.00307848677039 -0.00017375171592
v -0.00221112417057 0.0030787975993 -0.00017272128025
v -0.00221190741286 0.00307887862436 -0.00017088376626
v 0.00158569682389 0.00120248401072 0.00008881615213
v -0.00000086383005 -0.0035234214738 -0.00001676731517
v -0.0000000210097 -0.00352257490158 -0.00001900002826
v 0.00000105512572 -0.00352072785608 -0.00001986123425
v -0.00220778118819 0.00307786231861 -0.00017393757298
v 0.00000139068641 -0.00351884844713 -0.00001995159073
v 0.00158298318274 0.0012038750574 0.00009029020293
v 0.00000173384944 -0.00352072482929 -0.0000200424347
v 0.00000279155029 -0.00352257164195 -0.00002089919326
v 0.0015845275484 0.00120311195496 0.0000899522056
v 0.00158734095749 0.00120209855959 0.0000959358149
v 0.00159103341866 0.0012007287005 0.00009252954624
v 0.00159258407075 0.0012000631541 0.00008763300139
v -0.00221138680354 0.0030787975993 -0.00016895537556
v 0.00001005942522 -0.0035254440736 -0.00002267377204
v 0.00000715327815 -0.00352404685691 -0.00001601224722
v 0.00000302908802 -0.00352127337828 -0.00001354059077
v 0.00000111908196 -0.0035208882764 -0.00001344654174
v -0.00000033890859 -0.00352257490158 -0.00001443926703
v 0.00158251961693 0.0012038750574 0.00009694073378
v 0.00000092712429 -0.00351884844713 -0.00001330105988
v -0.002208244754 0.00307786231861 -0.00016728704213
v -0.00220991694368 0.00307848677039 -0.00016770897491
v -0.00175217178185 0.00171493610833 -0.00015596355661
v -0.00175354245584 0.00171539734583 -0.0001572821493
v 0.00159155437723 0.00120021146722 0.00008255660214
v 0.00000104969718 -0.00352257490158 -0.00003436100087
v 0.0000025228253 -0.00352089456283 -0.00003329949323
v 0.00000437105746 -0.0035212750081 -0.00003271379683
v 0.00000810554775 -0.00352404685691 -0.00002967405271
v 0.00158819707576 0.00120106386021 0.00007865893713
v 0.00158338842448 0.00120232300833 0.00007698277477
v -0.00175031682011 0.00171461061109 -0.00015538660227
v 0.00000231572949 -0.00351884844713 -0.00003322279372
# 133 vertices

vn 0.1530963331461 -0.41516637802124 -0.89677107334137
vn 0.44663026928902 -0.45285856723785 -0.77164793014526
vn -0.16090652346611 -0.44660678505898 -0.88014286756516
vn -0.9261309504509 0.28522276878357 0.24683898687363
vn -0.82142746448517 0.2464871108532 0.51429659128189
vn -0.46645426750183 0.12714533507824 0.87535959482193
vn 0.02187070064247 -0.44291141629219 -0.89629858732224
vn 0.95929038524628 0.28193143010139 -0.01663377694786
vn -0.06953432410955 0 0.99757957458496
vn -0.26032787561417 0.06053920462728 0.96362048387527
vn -0.68181449174881 -0.56064134836197 -0.4699045419693
vn 0.69973856210709 -0.38859340548515 -0.5994673371315
vn 0.86733293533325 -0.39032074809074 -0.30884185433388
vn 0.66571658849716 0.22456575930119 0.71161198616028
vn 0.56670087575912 0.19540360569954 0.80041712522507
vn 0.71181088685989 0.23780092597008 0.66089028120041
vn 0.88295221328735 0.28515884280205 0.37293410301208
vn 0.5295398235321 -0.62891280651093 0.56925940513611
vn -0.88294899463654 -0.28519758582115 -0.37291207909584
vn -0.72373962402344 -0.24121810495853 -0.64654064178467
vn -0.21814639866352 -0.08970683068037 -0.97178435325623
vn 0.07384357601404 0.00135288620368 -0.99726891517639
vn 0.06953432410955 0 -0.99757957458496
vn 0.96443551778793 0.22431920468807 0.139803647995
vn -0.12306620180607 0.06017100811005 -0.9905726313591
vn -0.34024205803871 0.12705346941948 -0.93171495199203
vn 0.90669441223145 0.10750716179609 0.40785712003708
vn -0.7423055768013 0.24657738208771 -0.62304252386093
vn -0.8829260468483 0.28528133034706 -0.37290239334106
vn -0.56822580099106 -0.73560726642609 0.36878374218941
vn -0.37544074654579 -0.81071227788925 0.44921028614044
vn 0.52585786581039 -0.76683980226517 0.36800849437714
vn -0.16256591677666 -0.84595388174057 0.50787234306335
vn -0.82135081291199 -0.24645933508873 0.51443237066269
vn -0.92613768577576 -0.28522548079491 0.24681054055691
vn 0.96604126691818 -0.09514293819666 0.24023334681988
vn -0.67694658041 0.61946624517441 -0.39749830961227
vn -0.30862799286842 0.87427830696106 -0.374681442976
vn -0.52217268943787 0.75030028820038 -0.40544447302818
vn -0.46663743257523 -0.12720666825771 0.87525308132172
vn 0.32612633705139 -0.12280933558941 0.93731504678726
vn 0.19039064645767 -0.08112533390522 0.97835069894791
vn 0.70467180013657 -0.23569987714291 0.66924077272415
vn 0.87579017877579 -0.28329411149025 0.39081454277039
vn -0.08981990069151 0.9387372136116 -0.33272337913513
vn 0.52129477262497 0.83303618431091 -0.18520921468735
vn 0.72472316026688 0.68207949399948 -0.09769271314144
vn 0.27688258886337 0.92496001720428 -0.26035544276237
vn 0.17221066355705 0.95461362600327 -0.24301494657993
vn -0.26107528805733 -0.0607538819313 0.96340471506119
vn 0.80654817819595 -0.24121701717377 -0.53971695899963
vn 0.92153972387314 -0.28329411149025 -0.26553520560265
vn -0.94924211502075 -0.3043207526207 -0.07955016195774
vn -0.92972898483276 -0.36483299732208 -0.05000859126449
vn -0.88874399662018 -0.45840322971344 -0.00074430037057
vn 0.43645787239075 -0.11740228533745 -0.89203208684921
vn 0.46502107381821 0.12671667337418 -0.87618392705917
vn 0.25396743416786 0.05854346230626 -0.96543937921524
vn 0.82226079702377 0.24675776064396 -0.51283311843872
vn 0.92615193128586 0.28515884280205 -0.24683405458927
vn -0.041558008641 -0.93224442005157 0.35943469405174
vn -0.8774761557579 -0.47952872514725 0.00936799123883
vn 0.71808189153671 -0.55719846487045 0.41699910163879
vn 0.850093126297 -0.37543258070946 0.36931297183037
vn 0.93658775091171 -0.17608451843262 0.30298125743866
vn 0.23221008479595 -0.05160405114293 -0.971295773983
vn -0.97544956207275 -0.16489215195179 -0.14597524702549
vn -0.29980659484863 0.91094720363617 -0.28335696458817
vn 0.13933421671391 0.920474588871 -0.36511981487274
vn -0.05712864175439 0.93156576156616 -0.35905641317368
vn 0.35112515091896 0.85616427659988 -0.3790697157383
vn 0.50198215246201 0.79684662818909 -0.33622813224792
vn -0.90458190441132 -0.42617133259773 0.01046657841653
vn 0.71733337640762 0.23939077556133 0.65431255102158
vn 0.88295513391495 0.28518947958946 0.37290367484093
vn 0.47142457962036 0.16688632965088 0.86597216129303
vn 0.3402147591114 -0.12705509364605 0.93172472715378
vn 0.12303527444601 -0.06017137691379 0.99057644605637
vn -0.9451602101326 0.07462204992771 -0.31796815991402
vn 0.74229806661606 -0.24655483663082 0.62306040525436
vn 0.88293367624283 -0.28525340557098 0.37290561199188
vn -0.55899691581726 0.67891949415207 -0.4760155081749
vn 0.94280898571014 0.29263284802437 -0.15961576998234
vn -0.34021344780922 -0.12708528339863 -0.93172109127045
vn -0.12303505092859 -0.06020199507475 -0.99057465791702
vn -0.74230152368546 -0.24651578068733 -0.62307178974152
vn -0.88295513391495 -0.28518947958946 -0.37290367484093
vn 0.49940764904022 0.77846848964691 0.38023525476456
vn -0.00392084056512 0.71740216016769 0.69664818048477
vn 0.25279667973518 0.76614165306091 0.59086447954178
vn -0.41802236437798 0.73378419876099 0.53555393218994
vn -0.60583865642548 0.74142479896545 0.28852859139442
vn 0.81342929601669 -0.2437948435545 -0.52810686826706
vn 0.92610859870911 -0.28531733155251 -0.24681335687637
vn 0.440578520298 -0.11871668696404 -0.88982969522476
vn -0.18910674750805 0.65505021810532 0.73153799772263
vn 0.61199623346329 0.59326362609863 0.52297121286392
vn -0.26319491863251 0.58794903755188 0.76488190889359
vn -0.48646879196167 0.46492648124695 0.73972392082214
vn 0.23374417424202 -0.05188098549843 -0.97091299295425
vn -0.82156962156296 -0.24654877185822 0.51403993368149
vn -0.46620875597 -0.12708365917206 0.87549936771393
vn -0.42805629968643 0.11468083411455 0.89644640684128
vn -0.19890981912613 0.04097625985742 0.97916078567505
vn -0.81540280580521 0.24433167278767 0.52480500936508
vn -0.92615193128586 0.28515884280205 0.24683405458927
vn 0.55194079875946 0.57071822881699 -0.60798192024231
vn 0.36994943022728 0.49062824249268 -0.78893685340881
vn 0.68091708421707 0.65944528579712 -0.31856527924538
vn 0.92990660667419 0.36217173933983 -0.06407309323549
vn 0.89191955327988 0.40481001138687 -0.20151515305042
vn 0.83386951684952 0.43862682580948 -0.33506438136101
vn 0.52179563045502 -0.04165101051331 0.85205310583115
vn 0.16095061600208 0.3389039337635 -0.92695146799088
vn -0.25929981470108 -0.06020162627101 0.96391874551773
vn -0.04992870241404 0.23873737454414 -0.96979975700378
vn 0.94550758600235 0.15672348439693 0.28540006279945
vn -0.71261030435562 -0.56832736730576 0.41132783889771
vn -0.93181908130646 -0.1440054923296 -0.33313006162643
vn 0.76276510953903 -0.10976035892963 0.63729280233383
vn 0.82321441173553 -0.01543170958757 0.56752079725266
vn 0.77152478694916 -0.09963518381119 0.62834888696671
vn 0.84532076120377 0.02759766578674 0.53354585170746
vn 0.90054869651794 0.17339026927948 0.39868265390396
vn -0.7431783080101 0.24676211178303 -0.62192797660828
vn -0.88295513391495 0.28518947958946 -0.37290367484093
vn -0.33896949887276 0.12671667337418 -0.93222451210022
vn -0.30851182341576 -0.11740089207888 -0.94394779205322
vn -0.09515254199505 -0.05157393962145 -0.99412578344345
vn -0.72390222549438 -0.24121563136578 -0.6463595032692
vn -0.87579017877579 -0.28329411149025 -0.39081454277039
vn -0.1175741776824 0.05854346230626 -0.99133694171906
vn 0.51193422079086 0.76177155971527 -0.39702323079109
vn -0.29819366335869 0.64215594530106 -0.7061984539032
vn -0.94380974769592 -0.06084086745977 -0.32484078407288
vn 0.45997950434685 0.72606182098389 -0.51112926006317
vn 0.71559602022171 0.6138174533844 -0.33339247107506
vn 0.15040490031242 0.75867813825607 -0.63386577367783
vn -0.80065953731537 0.41728380322456 -0.42990523576736
vn -0.79073584079742 -0.23573213815689 0.5649488568306
vn -0.92153972387314 -0.28329411149025 0.26553520560265
vn -0.45288452506065 -0.12277820706367 0.88307482004166
vn 0.34066036343575 -0.1272047162056 0.93154144287109
vn 0.12486444413662 -0.06078486889601 0.99031007289886
vn 0.74202483892441 -0.2464549690485 0.62342530488968
vn 0.88294899463654 -0.28519758582115 0.37291207909584
vn -0.32391053438187 -0.08100391924381 0.94261354207993
vn -0.86301809549332 -0.09795657545328 0.49558478593826
vn -0.6211051940918 -0.07286801934242 0.78033238649368
vn -0.96707582473755 -0.06769213825464 0.24532042443752
vn -0.4780800640583 -0.05365997180343 0.87667554616928
vn -0.36075153946877 -0.03024399280548 0.93217146396637
vn -0.50457072257996 -0.08472491800785 0.85920315980911
vn -0.51994848251343 -0.09129718691111 0.84930461645126
vn -0.87087899446487 -0.36749270558357 0.32637229561806
vn 0.82180058956146 -0.24664248526096 -0.51362562179565
vn 0.92613768577576 -0.28522548079491 -0.24681054055691
vn 0.46584230661392 -0.1269609183073 -0.87571221590042
vn 0.45918187499046 0.12482345849276 -0.87952893972397
vn 0.28703337907791 0.06913404166698 -0.95542258024216
vn 0.81008094549179 0.24247647821903 -0.53382956981659
vn 0.92616540193558 0.28516429662704 -0.24677719175816
vn 0.25755396485329 -0.05961816012859 -0.96442294120789
# 163 normals

vt 0.49995157122612 0.00212597846985 0
vt 0.5 0 0
vt 0.5 0.00239622592926 0
vt 0.49946200847626 0.00165581703186 0
vt 0.2547627389431 0.75476276874542 0
vt 0.25495859980583 0.75495862960815 0
vt 0.49977412819862 0.00184786319733 0
vt 0.25515449047089 0.75515449047089 0
vt 0.50004839897156 0.00212597846985 0
vt 0.50022584199905 0.00184786319733 0
vt 0.25535038113594 0.75535035133362 0
vt 0.5 1 0
vt 0.74464964866638 0.75535035133362 0
vt 0.50053799152374 0.00165581703186 0
vt 0.74484550952911 0.75515449047089 0
vt 0.74504137039185 0.75495862960815 0
vt 0.74523729085922 0.75476276874542 0
vt 0.72123175859451 0.68088132143021 0
vt 0.7209849357605 0.68092042207718 0
vt 0.72073811292648 0.68095946311951 0
vt 0.72049129009247 0.68099856376648 0
vt 0.2555835545063 0.75463271141052 0
vt 0.25530993938446 0.75467610359192 0
vt 0.25503632426262 0.75471937656403 0
vt 0.72100907564163 0.68099474906921 0
vt 0.19191606342793 0.95058107376099 0
vt 0.72056376934052 0.68122166395187 0
vt 0.72078639268875 0.68110823631287 0
vt 0.19167397916317 0.95066893100739 0
vt 0.19139903783798 0.95069444179535 0
vt 0.19111704826355 0.95064401626587 0
vt 0.74496364593506 0.75471937656403 0
vt 0.74469006061554 0.75467610359192 0
vt 0.27926191687584 0.68095946311951 0
vt 0.27950873970985 0.68099856376648 0
vt 0.27901509404182 0.68092042207718 0
vt 0.27876827120781 0.68088132143021 0
vt 0.74441647529602 0.75463271141052 0
vt 0.27899092435837 0.68099474906921 0
vt 0.27921357750893 0.68110823631287 0
vt 0.80832600593567 0.95066893100739 0
vt 0.80808395147324 0.95058107376099 0
vt 0.27943626046181 0.68122166395187 0
vt 0.80860096216202 0.95069444179535 0
vt 0.80888295173645 0.95064401626587 0
# 45 texture coordinates

o Decagon_web
usemtl Mat
f 7/1/1 15/2/2 17/3/3
f 3/4/4 2/5/4 11/6/5 6/7/5
f 6/7/5 11/6/5 14/8/6 7/1/6
f 8/9/7 15/2/7 4/10/7
f 17/3/8 15/2/8 8/9/8
f 13/11/9 1/12/9 17/3/9
f 1/12/9 16/13/9 17/3/9
f 7/1/6 14/8/6 13/11/10 17/3/10
f 4/10/11 15/2/11 5/14/11
f 6/7/12 15/2/2 7/1/1
f 3/4/13 15/2/2 6/7/12
f 17/3/14 16/13/14 12/15/15 8/9/15
f 8/9/15 12/15/15 10/16/16 4/10/16
f 4/10/16 10/16/16 9/17/17 5/14/17
f 26/10/18 15/2/18 21/9/18
f 20/14/19 27/18/19 29/19/20 26/10/20
f 26/10/20 29/19/20 18/20/21 21/9/21
f 21/9/21 18/20/21 25/21/22 23/3/22
f 25/21/23 22/22/23 23/3/23
f 21/9/24 15/2/24 23/3/24
f 23/3/25 22/22/25 28/23/26 24/1/26
f 20/14/27 15/2/27 26/10/27
f 24/1/26 28/23/26 30/24/28 19/7/28
f 19/7/28 30/24/28 2/5/29 3/4/29
f 23/3/30 15/2/31 24/1/31
f 19/7/32 15/2/32 3/4/32
f 24/1/31 15/2/31 19/7/33
f 33/10/34 41/25/34 27/18/35 20/14/35
f 36/1/36 15/2/36 42/3/36
f 42/3/37 15/2/38 35/9/39
f 43/26/9 39/27/9 42/3/9
f 35/9/40 32/28/40 41/25/34 33/10/34
f 36/1/41 38/29/41 43/26/42 42/3/42
f 40/7/43 31/30/43 38/29/41 36/1/41
f 34/4/44 37/31/44 31/30/43 40/7/43
f 35/9/39 15/2/38 33/10/45
f 40/7/46 15/2/46 36/1/47
f 34/4/48 15/2/46 40/7/46
f 33/10/45 15/2/38 20/14/49
f 42/3/50 39/27/50 32/28/40 35/9/40
f 47/7/51 51/30/51 37/31/52 34/4/52
f 46/1/53 15/2/54 47/7/55
f 54/27/23 52/26/23 53/3/23
f 46/1/56 49/29/56 51/30/51 47/7/51
f 45/9/57 56/28/57 54/27/58 53/3/58
f 44/10/59 55/25/59 56/28/57 45/9/57
f 48/14/60 50/18/60 55/25/59 44/10/59
f 48/14/61 15/2/61 44/10/61
f 47/7/55 15/2/54 34/4/62
f 44/10/63 15/2/64 45/9/64
f 45/9/64 15/2/64 53/3/65
f 53/3/66 52/26/66 49/29/56 46/1/56
f 53/3/67 15/2/54 46/1/53
f 65/4/68 15/2/69 64/7/70
f 69/22/9 67/21/9 68/3/9
f 64/7/70 15/2/69 60/1/71
f 60/1/71 15/2/69 68/3/72
f 68/3/73 15/2/73 59/9/73
f 58/10/74 57/19/74 50/18/75 48/14/75
f 59/9/76 66/20/76 57/19/74 58/10/74
f 60/1/77 61/23/77 69/22/78 68/3/78
f 58/10/79 15/2/79 48/14/79
f 64/7/80 62/24/80 61/23/77 60/1/77
f 65/4/81 63/5/81 62/24/80 64/7/80
f 59/9/82 15/2/82 58/10/82
f 68/3/83 67/21/83 66/20/83 59/9/83
f 80/9/84 76/15/84 74/13/85 72/3/85
f 79/10/86 75/16/86 76/15/84 80/9/84
f 77/14/87 70/17/87 75/16/86 79/10/86
f 77/14/88 15/2/89 79/10/90
f 81/7/91 15/2/91 65/4/92
f 81/7/93 78/6/93 63/5/94 65/4/94
f 82/1/95 83/8/95 78/6/93 81/7/93
f 82/1/96 15/2/91 81/7/91
f 72/3/97 15/2/97 82/1/97
f 79/10/90 15/2/89 80/9/98
f 80/9/98 15/2/89 72/3/99
f 74/13/23 71/12/23 72/3/23
f 71/12/23 73/11/23 72/3/23
f 72/3/100 73/11/100 83/8/95 82/1/95
f 94/10/101 84/32/101 70/17/35 77/14/35
f 92/9/102 96/33/102 84/32/101 94/10/101
f 91/1/103 93/34/103 88/35/104 89/3/104
f 87/7/105 95/36/105 93/34/103 91/1/103
f 86/4/106 85/37/106 95/36/105 87/7/105
f 94/10/107 15/2/108 77/14/109
f 86/4/110 15/2/111 87/7/111
f 87/7/111 15/2/111 91/1/112
f 91/1/113 15/2/113 89/3/113
f 92/9/114 15/2/108 94/10/107
f 88/35/9 90/38/9 89/3/9
f 89/3/115 90/38/115 96/33/102 92/9/102
f 89/3/116 15/2/108 92/9/114
f 108/7/117 15/2/117 86/4/117
f 107/1/118 15/2/118 108/7/118
f 105/3/119 15/2/119 107/1/119
f 103/9/120 15/2/121 105/3/122
f 102/10/123 15/2/121 103/9/120
f 101/14/124 15/2/121 102/10/123
f 108/7/125 100/39/125 85/37/126 86/4/126
f 107/1/127 109/40/127 100/39/125 108/7/125
f 103/9/128 97/41/128 104/42/129 105/3/129
f 104/42/23 106/43/23 105/3/23
f 102/10/130 98/44/130 97/41/128 103/9/128
f 101/14/131 99/45/131 98/44/130 102/10/130
f 105/3/132 106/43/132 109/40/127 107/1/127
f 118/10/133 15/2/133 101/14/133
f 117/9/134 15/2/134 118/10/134
f 120/3/135 15/2/135 117/9/135
f 116/1/136 15/2/136 120/3/137
f 115/7/138 15/2/136 116/1/136
f 114/4/139 15/2/139 115/7/139
f 118/10/140 113/44/140 99/45/141 101/14/141
f 117/9/142 122/41/142 113/44/140 118/10/140
f 119/43/9 121/42/9 120/3/9
f 116/1/143 110/40/143 119/43/144 120/3/144
f 115/7/145 111/39/145 110/40/143 116/1/143
f 114/4/146 112/37/146 111/39/145 115/7/145
f 120/3/147 121/42/147 122/41/142 117/9/142
f 129/7/148 15/2/149 114/4/150
f 128/1/151 15/2/149 129/7/148
f 133/3/152 15/2/149 128/1/151
f 127/9/153 15/2/149 133/3/152
f 126/10/154 15/2/149 127/9/153
f 5/14/155 15/2/155 126/10/155
f 129/7/156 125/36/156 112/37/157 114/4/157
f 132/38/23 131/35/23 133/3/23
f 128/1/158 130/34/158 125/36/156 129/7/156
f 127/9/159 123/33/159 132/38/160 133/3/160
f 126/10/161 124/32/161 123/33/159 127/9/159
f 5/14/162 9/17/162 124/32/161 126/10/161
f 133/3/163 131/35/163 130/34/158 128/1/158

