# WaveFront *.obj file (generated by CINEMA 4D)

mtllib ./DecagonShape_22.mtl

v 0.00420413631946 0.00531739508733 -0.01267966534942
v 0.00456712814048 0.00298714544624 -0.01335220318288
v 0.00001070860435 -0.00017047676374 -0.01414014585316
v 0.00000719103764 -0.00016636456712 -0.01413888297975
v 0.00000462070147 -0.000166171827 -0.01413874980062
v 0.00000974308023 -0.00016817056166 -0.01413946598768
v 0.00000990707667 -0.00016593262262 -0.01413883268833
v 0.00000936046854 -0.00016554565809 -0.01413870789111
v 0.00180580909364 0.00494465185329 -0.01272895094007
v 0.00180774636101 0.00494494102895 -0.01272894348949
v 0.0045668380335 0.00298900669441 -0.01335166580975
v 0.00180968362838 0.00494523020461 -0.01272893510759
v 0.00456625828519 0.00299272919074 -0.0133505910635
v 0.00456654839218 0.00299086794257 -0.01335112843663
v 0.00000152128791 -0.00017535421648 -0.01414452213794
v 0.00181162101217 0.00494551938027 -0.01272892765701
v 0.00001076721219 -0.00016425324429 -0.01413837540895
v 0.00506091397256 -0.00018274312606 -0.0142670692876
v 0.00001266784693 -0.0001720952132 -0.01414065528661
v 0.00001299766245 -0.00017744016077 -0.0141421854496
v 0.00001512595827 -0.00017328906688 -0.01414105482399
v 0.00456799799576 0.00298156146891 -0.01335381437093
v 0.00001684500967 -0.00017241084424 -0.01414084713906
v 0.00001491994863 -0.00017266238865 -0.01414087135345
v 0.00506065227091 -0.00018106398056 -0.01426658499986
v 0.00001362884177 -0.00017501860566 -0.01414151117206
v 0.00506143691018 -0.00018610124243 -0.0142680387944
v 0.00456770788878 0.00298342271708 -0.0133532769978
v 0.00506117520854 -0.00018442209694 -0.01426755357534
v 0.00456741824746 0.00298528419808 -0.013352740556
v 0.00568300671875 -0.00418051099405 -0.01542221941054
v 0.00506195984781 -0.00018945935881 -0.0142690083012
v 0.00001358615555 -0.00017986381135 -0.01414289046079
v 0.00001143629197 -0.00018233788433 -0.0141467731446
v 0.000015052663 -0.00018159567844 -0.01414342876524
v 0.00001483852157 -0.00018218666082 -0.01414369884878
v 0.00568268727511 -0.00418082950637 -0.01542416960001
v 0.00568326702341 -0.00417923741043 -0.01542078331113
v 0.00506222154945 -0.00019113851886 -0.01426949258894
v 0.00001269011682 -0.0001823437342 -0.0141445575282
v 0.00506169861183 -0.00018778040248 -0.01426852308214
v 0.00001675627573 -0.00018248251581 -0.01414371374995
v 0.00568320648745 -0.00417758943513 -0.01542002800852
v 0.0000126640216 -0.00017882566317 -0.01415023393929
v 0.00001415717088 -0.00018058752175 -0.01415056083351
v 0.00001399465236 -0.00018123662448 -0.01415041927248
v 0.00001211456492 -0.00018169576651 -0.01414914149791
v 0.00001200566658 -0.00017632335948 -0.014150085859
v 0.00568248238415 -0.00417835498229 -0.01542702782899
v 0.00493695354089 -0.0000459569892 -0.01525938417763
v 0.00568253453821 -0.00417997967452 -0.01542597543448
v 0.00568229705095 -0.00417656591162 -0.01542726531625
v 0.00001584748497 -0.00018145939976 -0.01415095105767
v 0.00493789417669 -0.00005116980174 -0.01525959558785
v 0.0049372673966 -0.0000476945097 -0.01525945495814
v 0.00493758078665 -0.00004943215754 -0.01525952480733
v 0.00493664015085 -0.00004421925405 -0.01525931339711
v 0.0000125371489 -0.00017378956545 -0.01415020506829
v 0.00001393740331 -0.00017195098917 -0.01415052078664
v 0.00001371464987 -0.00017130545166 -0.01415047049522
v 0.00434509804472 0.0032340392936 -0.01512607373297
v 0.0043447506614 0.00323596526869 -0.01512599550188
v 0.00434440327808 0.00323789170943 -0.01512591727078
v 0.00001149804575 -0.00017077825032 -0.01414997130632
v 0.00000953055769 -0.00016915050219 -0.01414952799678
v 0.0049363267608 -0.00004248160985 -0.01525924261659
v 0.00493601290509 -0.00004074408935 -0.01525917183608
v 0.00001558375698 -0.00017099091201 -0.01415089145303
v 0.0043454458937 0.00323211308569 -0.01512615196407
v 0.00155669206288 0.00520333927125 -0.01449799071997
v 0.0039092679508 0.0056493608281 -0.01502790767699
v 0.00000936756442 -0.00016268061881 -0.01414949074388
v 0.00434336066246 0.00324367010035 -0.01512568257749
v 0.00156237347983 0.00520439306274 -0.01449929084629
v 0.00155858497601 0.00520369037986 -0.01449842844158
v 0.00156047858763 0.00520404195413 -0.0144988624379
v 0.00000337070969 -0.0001648239413 -0.01414811890572
v 0.0043440554291 0.00323981768452 -0.01512583903968
v 0.00000591601338 -0.00016496253374 -0.01414870843291
v 0.00000802735121 -0.00016405864153 -0.01414918899536
v 0.00000850760716 -0.00016678040265 -0.0141492979601
v 0.00000858369276 -0.000164448531 -0.01414931472391
v 0.00434370758012 0.00324174389243 -0.01512576080859
v 0.00155480008107 0.00520298769698 -0.01449754741043
v -0.00163632980548 0.00459585385397 -0.01373086869717
v -0.00000407701236 -0.00016500563652 -0.01414634566754
v -0.00000196478322 -0.00016359050642 -0.01414684858173
v -0.0016312613152 0.0045968182385 -0.01373208686709
v -0.00000050605956 -0.00015967311629 -0.01414718199521
v 0.00155101960991 0.00520228501409 -0.01449664868414
v -0.00000079027728 -0.0001615932124 -0.01414712239057
v -0.00000011862258 -0.00016157737991 -0.01414728350937
v -0.00163295085076 0.00459649693221 -0.01373168081045
v 0.00000116604826 -0.00016351569502 -0.01414759736508
v -0.00163464038633 0.00459617516026 -0.01373127475381
v 0.00155290961266 0.00520263658836 -0.01449710037559
v -0.00565422978252 0.00383118446916 -0.0127652650699
v -0.00565539952368 0.00383043009788 -0.01276391837746
v -0.00565566448495 0.00382988643833 -0.0127620100975
v -0.00163801945746 0.00459553254768 -0.01373046264052
v -0.00000836611525 -0.00016836941359 -0.01414213143289
v -0.00000869946598 -0.00016702624271 -0.01414426788688
v -0.00000921124411 -0.00016488332767 -0.01414499152452
v -0.00565262464806 0.00383170577697 -0.01276593003422
v -0.00001010711094 -0.00016316545953 -0.01414488255978
v -0.00164139841218 0.00459488946944 -0.01372965145856
v -0.00000871150496 -0.00016447357484 -0.01414521597326
v -0.0000065835834 -0.00016527056869 -0.01414574217051
v -0.00163970887661 0.00459521077573 -0.0137300575152
v -0.00150056136772 0.00445074029267 -0.01274214591831
v -0.00149881374091 0.00445100152865 -0.01274213846773
v -0.00149706599768 0.00445126229897 -0.01274213194847
v -0.00565487192944 0.00382988224737 -0.01276017166674
v -0.00000296723078 -0.00016615787172 -0.01413846667856
v -0.00000555195948 -0.00016634166241 -0.01413841824979
v -0.00000770968472 -0.00016551371664 -0.01413810346276
v -0.00000826717678 -0.00016586351558 -0.01413828972727
v -0.00000805557556 -0.00016769475769 -0.01413969602436
v -0.00150230911095 0.00445047952235 -0.01274215243757
v -0.00000909041319 -0.0001642210409 -0.01413766480982
v -0.00565160764381 0.00383064989001 -0.01275871228427
v -0.00565335247666 0.00383027363569 -0.01275903638452
v 0.00180193432607 0.00494407303631 -0.01272896584123
v 0.00180387170985 0.00494436221197 -0.01272895839065
v -0.00149531848729 0.00445152353495 -0.01274212542921
v 0.00000244064154 -0.00016486417735 -0.0141382990405
v 0.00000121943924 -0.00016297424736 -0.01413770858198
v 0.00000053691912 -0.00016297301045 -0.01413768157363
v -0.00000074346707 -0.00016485853121 -0.01413817703724
v -0.00149357074406 0.00445178477094 -0.01274211797863
v -0.00149182300083 0.00445204600692 -0.01274211052805
v 0.00179999717511 0.00494378339499 -0.01272897422314
v 0.00000090494831 -0.00016113810125 -0.0141371646896
# 133 vertices

vn 0.52112174034119 0.0506641343236 -0.85197728872299
vn 0.43290275335312 0.16080677509308 -0.88698160648346
vn 0.65391284227371 -0.13213565945625 -0.74494171142578
vn 0.02352632209659 -0.2738236784935 0.96149212121964
vn 0.02349738031626 -0.27383181452751 0.96149051189423
vn 0.02348735928535 -0.27380400896072 0.96149867773056
vn -0.36121842265129 0.67190873622894 -0.64657551050186
vn -0.24463158845901 0.63814342021942 -0.73001945018768
vn -0.08294694125652 0.56656259298325 -0.81983333826065
vn -0.53738552331924 0.70438557863235 -0.46374320983887
vn 0.02310662157834 -0.27354356646538 0.96158200502396
vn 0.02267689071596 -0.27323558926582 0.96167981624603
vn 0.02348350919783 -0.27376815676689 0.96150898933411
vn -0.00387807795778 0.53312748670578 -0.84602600336075
vn 0.29692634940147 0.29855442047119 -0.90702813863754
vn 0.2356440871954 0.36440870165825 -0.90093183517456
vn 0.03081557154655 -0.27585288882256 0.96070575714111
vn 0.03134312108159 -0.27602753043175 0.96063852310181
vn 0.03264104947448 -0.27643024921417 0.96047949790955
vn 0.03342141211033 -0.2766860127449 0.96037900447845
vn 0.23606908321381 0.12677247822285 -0.96343141794205
vn 0.25713646411896 -0.02821737155318 -0.96596306562424
vn 0.26507189869881 -0.14637941122055 -0.95305299758911
vn 0.02349353209138 -0.27379593253136 0.96150082349777
vn 0.28011876344681 -0.33512619137764 -0.89956873655319
vn 0.02353634312749 -0.27385145425797 0.9614839553833
vn 0.23087479174137 0.20464660227299 -0.95121848583221
vn -0.12189834564924 0.95812344551086 -0.25911426544189
vn 0.04479624330997 0.73410755395889 -0.67755401134491
vn -0.01994177699089 0.83825200796127 -0.54491817951202
vn 0.12435751408339 0.55254817008972 -0.82415151596069
vn 0.16333810985088 0.47036018967628 -0.86722660064697
vn 0.02350200340152 -0.27509349584579 0.96113020181656
vn -0.03700638562441 -0.19033570587635 -0.98102134466171
vn 0.42342472076416 0.88104432821274 -0.21088482439518
vn 0.02351276390254 -0.27262523770332 0.96183294057846
vn -0.1853252351284 -0.52768516540527 0.82897704839706
vn -0.06997006386518 -0.39227068424225 0.91718477010727
vn -0.42152351140976 -0.75722897052765 0.49892103672028
vn -0.51872909069061 -0.81659191846848 0.25317534804344
vn 0.29820883274078 0.50460886955261 -0.81021070480347
vn 0.27320170402527 0.41721406579018 -0.86677175760269
vn 0.42669072747231 0.684834420681 -0.59070879220963
vn 0.29598417878151 0.47713968157768 -0.82748478651047
vn 0.50780272483826 0.81287944316864 -0.28524279594421
vn 0.24508175253868 0.32504767179489 -0.91338872909546
vn 0.0235475320369 -0.26888352632523 0.96288484334946
vn -0.5556298494339 -0.60630881786346 -0.56891566514969
vn -0.59232634305954 -0.7337532043457 -0.33279985189438
vn 0.50499600172043 0.23964966833591 0.82918459177017
vn 0.58159458637238 0.50985443592072 0.63387393951416
vn -0.21973565220833 0 -0.97555947303772
vn -0.3988122344017 -0.28744906187057 -0.87081676721573
vn -0.21977689862251 0.00124461774249 -0.97554934024811
vn -0.21987149119377 0.00508763780817 -0.97551560401916
vn -0.21968388557434 -0.0012740798993 -0.97557026147842
vn 0.47267982363701 0.07233708351851 0.87826025485992
vn 0.49180734157562 0.17545001208782 0.85284394025803
vn 0.59013891220093 0.72039967775345 0.36436292529106
vn 0.50519293546677 0.27656057476997 0.81749272346497
vn 0.49183878302574 0.80514311790466 0.33141985535622
vn -0.30367207527161 -0.12917050719261 -0.9439799785614
vn 0.19389367103577 -0.4583113193512 0.86738455295563
vn 0.38632780313492 0.22329629957676 0.89492434263229
vn 0.23329189419746 0.52531492710114 0.81830257177353
vn 0.34039202332497 0.31343844532967 0.88650417327881
vn 0.1411982178688 0.65946966409683 0.7383514046669
vn -0.02359176427126 0.84825432300568 0.52906334400177
vn 0.47957825660706 -0.56217765808105 0.67376625537872
vn 0.48491284251213 -0.28441780805588 0.8270223736763
vn 0.48513805866241 -0.3950562775135 0.78011000156403
vn 0.46929705142975 -0.13441383838654 0.87275034189224
vn 0.46396058797836 -0.05556269735098 0.88411164283752
vn -0.22175136208534 0.00059490528656 -0.97510308027267
vn -0.22063709795475 0.00026979210088 -0.97535592317581
vn -0.22421209514141 0.00135936657898 -0.97453939914703
vn -0.2255769520998 0.0017588257324 -0.97422379255295
vn 0.23085896670818 0.27793863415718 0.93244528770447
vn -0.02722053416073 0.4026272892952 0.914959192276
vn 0.14754055440426 0.31519711017609 0.93748736381531
vn 0.52040094137192 0.05070365592837 0.85241538286209
vn 0.64415246248245 -0.07344354689121 0.76136302947998
vn 0.46169081330299 0.11374524235725 0.87971794605255
vn 0.71775442361832 -0.16785569489002 0.67576110363007
vn 0.81415688991547 -0.31208300590515 0.48964551091194
vn -0.15966530144215 0.45408925414085 0.87653291225433
vn -0.372149258852 0.52935206890106 0.76242464780808
vn -0.22991174459457 0.00310091511346 -0.97320652008057
vn -0.22853833436966 0.00267202709801 -0.9735312461853
vn -0.2323572486639 0.00383590487763 -0.97262293100357
vn -0.23440526425838 0.0044498317875 -0.97212880849838
vn -0.23437660932541 0.00446025375277 -0.97213566303253
vn 0.4515967965126 0.2369470000267 0.86018395423889
vn 0.65356916189194 0.22997443377972 0.72108191251755
vn 0.35851949453354 0.24472427368164 0.90087389945984
vn 0.08565984666348 0.21761529147625 0.97226846218109
vn -0.14615665376186 0.16640666127205 0.97516512870789
vn 0.00922408234328 0.19660139083862 0.98044008016586
vn -0.26125371456146 0.13666062057018 0.95554715394974
vn -0.44485461711884 0.09356947243214 0.89070147275925
vn 0.77795988321304 0.21121825277805 0.59174764156342
vn -0.23346839845181 0.00416107010096 -0.97235548496246
vn 0.93446445465088 0.17355394363403 0.31089416146278
vn 0.2784249484539 0.33280232548714 0.90095627307892
vn 0.19772170484066 0.27282977104187 0.94152539968491
vn 0.35585579276085 0.38886007666588 0.84979671239853
vn 0.69162917137146 0.66795289516449 0.2747508585453
vn -0.20721264183521 -0.16916514933109 0.96355909109116
vn 0.48817154765129 0.5791717171669 0.65287721157074
vn 0.3242714703083 0.3713846206665 0.87001234292984
vn 0.59486752748489 0.71908575296402 0.35923290252686
vn -0.23558011651039 0.00402263458818 -0.97184658050537
vn -0.23323048651218 0.00487716030329 -0.97240924835205
vn -0.41216960549355 -0.28322392702103 -0.86596792936325
vn -0.31798326969147 -0.12471678107977 -0.93985766172409
vn -0.56474024057388 -0.6032702922821 -0.56314599514008
vn -0.5979830622673 -0.73174947500229 -0.32704585790634
vn -0.22970332205296 0.00615897309035 -0.97324120998383
vn 0.31857112050056 0.75741738080978 -0.56993979215622
vn 0.5045393705368 0.81333518028259 -0.28969967365265
vn 0.09557311981916 0.61340838670731 -0.78396171331406
vn -0.45980295538902 0.10484892129898 -0.88180947303772
vn 0.61613345146179 0.74490362405777 -0.25592601299286
vn 0.03643349185586 0.57984471321106 -0.81391197443008
vn 0.12601846456528 0.62220072746277 -0.77264845371246
vn -0.05354861915112 0.53081887960434 -0.84579187631607
vn -0.41470211744308 -0.75902211666107 0.50190389156342
vn -0.51565337181091 -0.81720507144928 0.25744408369064
vn -0.17337845265865 -0.53114491701126 0.82935214042664
vn 0.03770032525063 -0.27804934978485 0.95982664823532
vn 0.03890623897314 -0.27766716480255 0.95988917350769
vn 0.04260919615626 -0.27653735876083 0.96005809307098
vn 0.03647106140852 -0.27843108773232 0.9597635269165
vn -0.05655957013369 -0.3961686193943 0.91643410921097
vn -0.24616160988808 0.46195635199547 -0.85205680131912
vn -0.39321729540825 0.42621687054634 -0.81468969583511
vn -0.1703272163868 0.48260843753815 -0.85911452770233
vn -0.49858236312866 0.38851821422577 -0.77489948272705
vn -0.65756422281265 0.32362940907478 -0.68034791946411
vn 0.60564309358597 0.39497184753418 -0.69079208374023
vn 0.45252731442451 0.44471976161003 -0.77294462919235
vn 0.83006584644318 0.28430244326591 -0.47975289821625
vn 0.22010672092438 0.48333317041397 -0.84731465578079
vn 0.12165004760027 0.49847820401192 -0.85832440853119
vn 0.03773511946201 -0.27803298830986 0.95983004570007
vn 0.03710082173347 -0.27782860398293 0.95991396903992
vn 0.03758341446519 -0.27799087762833 0.95984822511673
vn 0.03591008484364 -0.27745848894119 0.96006625890732
vn 0.03520771488547 -0.27724236249924 0.96015471220016
vn 0.03767128288746 -0.27805757522583 0.95982545614243
# 150 normals

vt 0.49995157122612 0.00212597846985 0
vt 0.5 0 0
vt 0.5 0.00239622592926 0
vt 0.49946200847626 0.00165581703186 0
vt 0.2547627389431 0.75476276874542 0
vt 0.25495859980583 0.75495862960815 0
vt 0.49977412819862 0.00184786319733 0
vt 0.25515449047089 0.75515449047089 0
vt 0.50004839897156 0.00212597846985 0
vt 0.50022584199905 0.00184786319733 0
vt 0.25535038113594 0.75535035133362 0
vt 0.5 1 0
vt 0.74464964866638 0.75535035133362 0
vt 0.50053799152374 0.00165581703186 0
vt 0.74484550952911 0.75515449047089 0
vt 0.74504137039185 0.75495862960815 0
vt 0.74523729085922 0.75476276874542 0
vt 0.72123175859451 0.68088132143021 0
vt 0.7209849357605 0.68092042207718 0
vt 0.72073811292648 0.68095946311951 0
vt 0.72049129009247 0.68099856376648 0
vt 0.2555835545063 0.75463271141052 0
vt 0.25530993938446 0.75467610359192 0
vt 0.25503632426262 0.75471937656403 0
vt 0.72100907564163 0.68099474906921 0
vt 0.19191606342793 0.95058107376099 0
vt 0.72056376934052 0.68122166395187 0
vt 0.72078639268875 0.68110823631287 0
vt 0.19167397916317 0.95066893100739 0
vt 0.19139903783798 0.95069444179535 0
vt 0.19111704826355 0.95064401626587 0
vt 0.74496364593506 0.75471937656403 0
vt 0.74469006061554 0.75467610359192 0
vt 0.27926191687584 0.68095946311951 0
vt 0.27950873970985 0.68099856376648 0
vt 0.27901509404182 0.68092042207718 0
vt 0.27876827120781 0.68088132143021 0
vt 0.74441647529602 0.75463271141052 0
vt 0.27899092435837 0.68099474906921 0
vt 0.27921357750893 0.68110823631287 0
vt 0.80832600593567 0.95066893100739 0
vt 0.80808395147324 0.95058107376099 0
vt 0.27943626046181 0.68122166395187 0
vt 0.80860096216202 0.95069444179535 0
vt 0.80888295173645 0.95064401626587 0
# 45 texture coordinates

o Decagon_web
usemtl Mat
f 7/1/1 15/2/2 17/3/3
f 3/4/4 2/5/4 11/6/5 6/7/5
f 6/7/5 11/6/5 14/8/6 7/1/6
f 8/9/7 15/2/8 4/10/9
f 17/3/10 15/2/8 8/9/7
f 13/11/5 1/12/11 17/3/11
f 1/12/11 16/13/12 17/3/11
f 7/1/6 14/8/6 13/11/13 17/3/13
f 4/10/9 15/2/8 5/14/14
f 6/7/15 15/2/2 7/1/1
f 3/4/16 15/2/2 6/7/15
f 17/3/17 16/13/17 12/15/18 8/9/18
f 8/9/18 12/15/18 10/16/19 4/10/19
f 4/10/19 10/16/19 9/17/20 5/14/20
f 26/10/21 15/2/22 21/9/23
f 20/14/5 27/18/5 29/19/5 26/10/5
f 26/10/5 29/19/5 18/20/5 21/9/5
f 21/9/5 18/20/5 25/21/24 23/3/24
f 25/21/5 22/22/5 23/3/5
f 21/9/23 15/2/22 23/3/25
f 23/3/26 22/22/26 28/23/4 24/1/4
f 20/14/27 15/2/22 26/10/21
f 24/1/4 28/23/4 30/24/5 19/7/5
f 19/7/5 30/24/5 2/5/26 3/4/26
f 23/3/28 15/2/29 24/1/30
f 19/7/31 15/2/29 3/4/32
f 24/1/30 15/2/29 19/7/31
f 33/10/33 41/25/33 27/18/5 20/14/5
f 36/1/34 15/2/34 42/3/34
f 42/3/35 15/2/35 35/9/35
f 43/26/5 39/27/5 42/3/5
f 35/9/36 32/28/36 41/25/33 33/10/33
f 36/1/37 38/29/37 43/26/38 42/3/38
f 40/7/39 31/30/39 38/29/37 36/1/37
f 34/4/40 37/31/40 31/30/39 40/7/39
f 35/9/41 15/2/42 33/10/42
f 40/7/43 15/2/43 36/1/44
f 34/4/45 15/2/43 40/7/43
f 33/10/42 15/2/42 20/14/46
f 42/3/47 39/27/47 32/28/36 35/9/36
f 47/7/48 51/30/48 37/31/49 34/4/49
f 46/1/50 15/2/51 47/7/51
f 54/27/52 52/26/52 53/3/52
f 46/1/53 49/29/53 51/30/48 47/7/48
f 45/9/54 56/28/54 54/27/55 53/3/55
f 44/10/56 55/25/56 56/28/54 45/9/54
f 48/14/52 50/18/52 55/25/56 44/10/56
f 48/14/57 15/2/58 44/10/58
f 47/7/51 15/2/51 34/4/59
f 44/10/58 15/2/58 45/9/60
f 45/9/61 15/2/61 53/3/61
f 53/3/62 52/26/62 49/29/53 46/1/53
f 53/3/63 15/2/63 46/1/63
f 65/4/64 15/2/65 64/7/66
f 69/22/52 67/21/52 68/3/52
f 64/7/66 15/2/65 60/1/67
f 60/1/67 15/2/65 68/3/68
f 68/3/69 15/2/70 59/9/71
f 58/10/52 57/19/52 50/18/52 48/14/52
f 59/9/52 66/20/52 57/19/52 58/10/52
f 60/1/52 61/23/52 69/22/52 68/3/52
f 58/10/72 15/2/70 48/14/73
f 64/7/52 62/24/52 61/23/52 60/1/52
f 65/4/52 63/5/52 62/24/52 64/7/52
f 59/9/71 15/2/70 58/10/72
f 68/3/52 67/21/52 66/20/52 59/9/52
f 80/9/74 76/15/74 74/13/75 72/3/75
f 79/10/76 75/16/76 76/15/74 80/9/74
f 77/14/77 70/17/77 75/16/76 79/10/76
f 77/14/78 15/2/79 79/10/80
f 81/7/81 15/2/82 65/4/83
f 81/7/52 78/6/52 63/5/52 65/4/52
f 82/1/52 83/8/52 78/6/52 81/7/52
f 82/1/84 15/2/82 81/7/81
f 72/3/85 15/2/82 82/1/84
f 79/10/80 15/2/79 80/9/86
f 80/9/86 15/2/79 72/3/87
f 74/13/52 71/12/52 72/3/52
f 71/12/52 73/11/52 72/3/52
f 72/3/52 73/11/52 83/8/52 82/1/52
f 94/10/88 84/32/88 70/17/89 77/14/89
f 92/9/90 96/33/90 84/32/88 94/10/88
f 91/1/91 93/34/91 88/35/91 89/3/91
f 87/7/92 95/36/92 93/34/91 91/1/91
f 86/4/92 85/37/92 95/36/92 87/7/92
f 94/10/93 15/2/94 77/14/95
f 86/4/96 15/2/97 87/7/98
f 87/7/98 15/2/97 91/1/99
f 91/1/99 15/2/97 89/3/100
f 92/9/101 15/2/94 94/10/93
f 88/35/92 90/38/92 89/3/92
f 89/3/102 90/38/102 96/33/90 92/9/90
f 89/3/103 15/2/94 92/9/101
f 108/7/104 15/2/104 86/4/105
f 107/1/106 15/2/104 108/7/104
f 105/3/107 15/2/107 107/1/107
f 103/9/108 15/2/108 105/3/108
f 102/10/109 15/2/109 103/9/110
f 101/14/111 15/2/109 102/10/109
f 108/7/112 100/39/112 85/37/92 86/4/92
f 107/1/113 109/40/113 100/39/112 108/7/112
f 103/9/114 97/41/114 104/42/115 105/3/115
f 104/42/92 106/43/92 105/3/92
f 102/10/116 98/44/116 97/41/114 103/9/114
f 101/14/117 99/45/117 98/44/116 102/10/116
f 105/3/118 106/43/118 109/40/113 107/1/113
f 118/10/119 15/2/119 101/14/120
f 117/9/121 15/2/119 118/10/119
f 120/3/122 15/2/122 117/9/122
f 116/1/123 15/2/123 120/3/123
f 115/7/124 15/2/124 116/1/125
f 114/4/126 15/2/124 115/7/124
f 118/10/127 113/44/127 99/45/128 101/14/128
f 117/9/129 122/41/129 113/44/127 118/10/127
f 119/43/130 121/42/130 120/3/130
f 116/1/131 110/40/131 119/43/132 120/3/132
f 115/7/133 111/39/133 110/40/131 116/1/131
f 114/4/130 112/37/130 111/39/133 115/7/133
f 120/3/134 121/42/134 122/41/129 117/9/129
f 129/7/135 15/2/136 114/4/137
f 128/1/138 15/2/136 129/7/135
f 133/3/139 15/2/136 128/1/138
f 127/9/140 15/2/141 133/3/142
f 126/10/143 15/2/141 127/9/140
f 5/14/144 15/2/141 126/10/143
f 129/7/145 125/36/145 112/37/145 114/4/145
f 132/38/130 131/35/130 133/3/130
f 128/1/130 130/34/130 125/36/145 129/7/145
f 127/9/146 123/33/146 132/38/147 133/3/147
f 126/10/148 124/32/148 123/33/146 127/9/146
f 5/14/149 9/17/149 124/32/148 126/10/148
f 133/3/150 131/35/150 130/34/130 128/1/130

