# WaveFront *.obj file (generated by CINEMA 4D)

mtllib ./DecagonShape_86.mtl

v 0.00003975826621 0.01656611636281 -0.00000410930625
v 0.00018651357095 0.01467073336244 0.00157774076797
v 0.00002456701804 0.00886195432395 0.00001087907185
v 0.00003859282879 0.00886738207191 -0.00000519718833
v 0.00003625591125 0.00886644329876 -0.00000557285148
v 0.0000355400116 0.00886411499232 0.00000597236522
v 0.0000394787894 0.00886821560562 -0.00000063221535
v 0.00003964366624 0.00886906776577 -0.00000345723515
v -0.00012569062528 0.01467522233725 -0.00157243444119
v -0.00012401875574 0.01467629522085 -0.00157246994786
v 0.00019462242199 0.0146724069491 0.00157521222718
v -0.00012272226741 0.01467762887478 -0.00157179369126
v 0.0002016719518 0.01467911340296 0.00156243436504
v 0.00020016825874 0.01467538438737 0.0015695852926
v 0.00003240244041 0.00885159149766 0.00000239285737
v -0.0001221554121 0.01467911340296 -0.00157065293752
v 0.00003975826621 0.00887151341885 -0.00000410930625
v -0.00014107959578 0.01410423312336 -0.00141678366344
v 0.00001282242374 0.00886411499232 0.00000832039314
v -0.00000409578843 0.00886419601738 -0.00000720508115
v 0.00000673314207 0.00886903144419 -0.00000019563679
v 0.00016839068849 0.0146735785529 0.00156436511315
v 0.00000663134051 0.00887151341885 -0.00000068539725
v 0.0000076058468 0.00886821467429 0.00000266358143
v -0.00013929387205 0.01410563196987 -0.00141253788024
v 0.00000295025461 0.00886574666947 -0.00000573668285
v -0.00015015501413 0.01410312112421 -0.00142035412136
v 0.00017137662508 0.01467169448733 0.00157155515626
v -0.00014505426225 0.0141032859683 -0.0014196371194
v 0.00017800752539 0.01467056199908 0.0015764265554
v 0.00019237042579 0.01618598215282 0.00197684462182
v -0.00015834030637 0.01410538051277 -0.00141531240661
v -0.00001069254904 0.00886574666947 -0.00000432659954
v -0.00000976032243 0.00886644329876 0.00000283434065
v -0.00001307094317 0.00886882375926 -0.00000052543629
v -0.00001312180211 0.00886925216764 0.00000119186438
v 0.00019430810062 0.01618607155979 0.00197723275051
v 0.00019109231653 0.01618563756347 0.00197557872161
v -0.00015923587489 0.01410735212266 -0.00141094590072
v -0.00001209724087 0.00886738207191 0.00000245867727
v -0.00015501726011 0.01410385966301 -0.00141876365524
v -0.00001326268102 0.00887151341885 0.00000137079451
v 0.00019063299987 0.01618494465947 0.00197409791872
v -0.00000571304145 0.00886738207191 -0.00000061785505
v -0.00000654819905 0.0088694319129 0.000000370744
v -0.0000067140254 0.00886942911893 0.00000098859903
v -0.00000754963958 0.00886738207191 0.0000019886495
v -0.00000350235882 0.00886644329876 -0.00000146354603
v 0.00019711762434 0.01618563756347 0.00197495589964
v -0.00014956158702 0.01410536840558 -0.00141461263411
v 0.00019612547476 0.01618598215282 0.00197645649314
v 0.0001972643513 0.01618494465947 0.0019734124653
v -0.00000663134051 0.00887151341885 0.00000068539725
v -0.00015260453802 0.01410735212266 -0.00141163123772
v -0.00015118766169 0.01410580612719 -0.00141413405072
v -0.00015230067947 0.0141065036878 -0.0014130352065
v -0.00014785601525 0.01410523243248 -0.00141432206146
v -0.00000116544015 0.00886738207191 -0.00000108788265
v 0.00000018243924 0.00886889453977 0.00000104890808
v 0.00000138448104 0.00886760465801 0.00000488155456
v 0.00016593042528 0.01467057038099 0.00157501944341
v 0.00017520577239 0.01466861646622 0.00158174149692
v 0.0001871069835 0.01466848608106 0.00158348213881
v 0.0000087067292 0.00886247958988 0.00001296919345
v 0.00002516044879 0.00885970704257 0.0000166206064
v -0.00014652579557 0.01410535629839 -0.0014133193763
v -0.00014592522348 0.01410563196987 -0.00141185242683
v 0 0.00887151341885 0.00000000000001
v 0.00016175935161 0.0146735785529 0.00156505056657
v -0.00012628405239 0.01467297505587 -0.00157817592844
v 0.00004638960672 0.01656611636281 -0.00000479470327
v 0.00004638960672 0.00887151341885 -0.00000479470327
v 0.00020830328867 0.01467911340296 0.00156174902804
v -0.00011552406795 0.01467911340296 -0.00157133839093
v -0.00012121702457 0.01467434968799 -0.00157778512221
v -0.00011727606034 0.01467650569975 -0.00157525786199
v 0.00003566248051 0.00886419601738 -0.00001131438694
v 0.00019845203497 0.01467046141624 0.00157984194811
v 0.00004270852151 0.00886574666947 -0.00000984598773
v 0.00004582415568 0.00886882282794 -0.00000661454624
v 0.00004051951692 0.00886247958988 0.00000968110999
v 0.00004635423829 0.00886826962233 -0.00000240548252
v 0.00020620788564 0.01467426121235 0.00157186249271
v -0.00013111258158 0.01467250473797 -0.00157625926659
v 0.00016943938681 0.01410537399352 0.00141254509799
v 0.0000233801602 0.00886644888669 -0.000000603996
v 0.00002558099732 0.0088673857972 -0.00000144512353
v 0.00017242081231 0.01410563196987 0.00140911398921
v 0.00002649558883 0.00887151341885 -0.00000273851174
v -0.00013526376279 0.0146735785529 -0.00156778900418
v 0.00002647634028 0.008869250305 -0.00000288314004
v 0.00002667687295 0.00886882282794 -0.00000463553579
v 0.00017213427054 0.01410535909235 0.00141066592187
v 0.00002906571899 0.00886574666947 -0.00000843590533
v 0.00017104222206 0.0141052370891 0.00141191435978
v -0.00013440191105 0.01467281579971 -0.00157248170581
v -0.00018446097965 0.01618563756347 -0.00197626417503
v -0.00018573907437 0.01618598215282 -0.00197753007524
v -0.00018767676374 0.01618607155979 -0.00197791820392
v 0.00016775741824 0.01410580985248 0.00141241017263
v 0.00001639166112 0.00886644329876 -0.00000351973767
v 0.00001872857865 0.00886738207191 -0.0000031440743
v 0.0000197509089 0.00886943005025 -0.00000233712626
v -0.000184001663 0.01618494465947 -0.00197478337213
v 0.00001989401972 0.00887151341885 -0.00000205619153
v 0.00016586721176 0.01410735212266 0.0014102604473
v 0.00002003883856 0.00886943377554 -0.00000176863603
v 0.00002105381282 0.0088673857972 -0.00000097720624
v 0.0001664491283 0.01410650648177 0.00141156627797
v 0.00016100292851 0.01410538237542 0.00141503068153
v 0.00016495567979 0.01410386431962 0.00141772523057
v 0.00017003282846 0.01410312578082 0.00141828670166
v -0.00018949412333 0.01618598215282 -0.00197714194655
v 0.00002397358912 0.00886420160532 0.00000513753912
v 0.00001693811828 0.00886575039476 0.00000367159373
v 0.00001383727886 0.0088688256219 0.00000044269362
v 0.00001343701661 0.00886925216764 -0.00000122551478
v 0.00001418097781 0.00886738207191 -0.00000267404653
v 0.00015923587489 0.01410735212266 0.00141094590072
v 0.00001326268011 0.00887151341885 -0.00000137079439
v -0.00019063299987 0.01618494465947 -0.00197409791872
v -0.00019048627291 0.01618563756347 -0.00197564135306
v -0.00012836228416 0.01467393897474 -0.0015702045057
v -0.00012728299771 0.01467445027083 -0.00157162966207
v 0.00017487180594 0.01410329062492 0.00141654384788
v 0.00003404522795 0.00886738207191 -0.00000472716101
v 0.00003323589044 0.00886924564838 -0.00000325397014
v 0.00003295604984 0.00886882375926 -0.00000152839584
v 0.00003056050264 0.00886575039476 0.00000226362135
v 0.00017817389744 0.01410423591733 0.00141294323839
v 0.00017905214918 0.01410563196987 0.0014084285358
v -0.00012863242591 0.0146735785529 -0.0015684744576
v 0.00003312692934 0.00887151341885 -0.00000342390877
# 133 vertices

vn 0.8920351266861 -0.45179772377014 -0.01233462337404
vn 0.82585752010345 -0.4979502260685 0.2645845413208
vn 0.82707595825195 -0.48645967245102 -0.28160664439201
vn -0.42423933744431 0.34180197119713 -0.83856564760208
vn -0.67677420377731 0.2892846763134 -0.67697197198868
vn -0.95186603069305 0.14302557706833 -0.27109909057617
vn 0.86802113056183 -0.48043194413185 -0.1253973543644
vn 0.18671827018261 0.34157520532608 0.9211203455925
vn -0.99470102787018 0 0.10280958563089
vn -0.99518698453903 0.06733626872301 -0.0711944103241
vn 0.35865703225136 -0.63063460588455 -0.68823337554932
vn 0.72222310304642 -0.44216734170914 0.53186637163162
vn 0.46974244713783 -0.45767521858215 0.75490093231201
vn -0.62282818555832 0.26087948679924 0.73758184909821
vn -0.72273218631744 0.22434933483601 0.65370142459869
vn -0.56606531143188 0.27793085575104 0.77609568834305
vn -0.24375602602959 0.34172853827476 0.90763682126999
vn -0.46971645951271 -0.68809074163437 0.5530800819397
vn 0.24373213946819 -0.34177362918854 -0.90762627124786
vn 0.55001711845398 -0.28238201141357 -0.78596538305283
vn 0.92960029840469 -0.10017001628876 -0.35469606518745
vn 0.99509030580521 0.00149987707846 -0.09896001964808
vn 0.99470102787018 0 -0.10280958563089
vn 0.01922489143908 0.27387493848801 0.96157312393188
vn 0.9598782658577 0.06692439317703 -0.27231380343437
vn 0.87643092870712 0.14291965961456 -0.45982906222343
vn -0.28105813264847 0.13079705834389 0.95073574781418
vn 0.52373898029327 0.28939667344093 -0.80121600627899
vn 0.24372304975986 0.34187006950378 -0.90759235620499
vn -0.44076457619667 -0.78988707065582 -0.42638596892357
vn -0.47406566143036 -0.84654748439789 -0.24211384356022
vn -0.26829305291176 -0.82004129886627 0.5055205821991
vn -0.48903641104698 -0.8704981803894 -0.05546402931213
vn -0.67689388990402 -0.28924822807312 -0.6768679022789
vn -0.42421090602875 -0.34180581569672 -0.83857852220535
vn -0.09023130685091 -0.11707182228565 0.9890159368515
vn 0.28430461883545 0.69020015001297 -0.66542816162109
vn 0.29773011803627 0.90265434980392 -0.31076020002365
vn 0.30525007843971 0.80442088842392 -0.50963658094406
vn -0.95180255174637 -0.14309656620026 -0.27128446102142
vn -0.88347017765045 -0.13800981640816 0.44769829511642
vn -0.93938744068146 -0.09046872705221 0.33070626854897
vn -0.57540583610535 -0.27521204948425 0.7701730132103
vn -0.26376965641975 -0.33912381529808 0.90300643444061
vn 0.28632074594498 0.95029956102371 -0.12227497249842
vn 0.2532023191452 0.87735521793365 0.40759831666946
vn 0.21247079968452 0.75428801774979 0.62121307849884
vn 0.27700573205948 0.94288289546967 0.18503952026367
vn 0.24361549317837 0.96450251340866 0.10191364586353
vn -0.99512046575546 -0.06757681816816 -0.07189290970564
vn 0.69900405406952 -0.28238660097122 0.65700161457062
vn 0.44288522005081 -0.33912378549576 0.82996851205826
vn -0.0811148956418 -0.36776515841484 -0.92637419700623
vn -0.10832963138819 -0.43642982840538 -0.8931930065155
vn -0.1506971269846 -0.53794372081757 -0.82940155267715
vn 0.96154677867889 -0.13177828490734 0.24096120893955
vn 0.95235216617584 0.14252777397633 0.26965010166168
vn 0.99574267864227 0.06510233134031 0.06525494903326
vn 0.6754869222641 0.28964433073997 0.67810291051865
vn 0.42424169182777 0.34172853827476 0.83859443664551
vn -0.32972675561905 -0.94385290145874 0.02054254896939
vn -0.15855830907822 -0.56001073122025 -0.81317108869553
vn -0.30140772461891 -0.63009971380234 0.71563100814819
vn -0.24206347763538 -0.4434033036232 0.86301726102829
vn -0.16269761323929 -0.21474422514439 0.96302360296249
vn 0.99733877182007 -0.05734629184008 0.04502007365227
vn -0.01456329692155 -0.20251643657684 -0.97917056083679
vn 0.2136395573616 0.93367367982864 -0.28742229938507
vn 0.35031962394714 0.93486386537552 0.05749502778053
vn 0.31508073210716 0.94378226995468 -0.09999556839466
vn 0.4017134308815 0.88621366024017 0.23076333105564
vn 0.39306026697159 0.84217590093613 0.36911162734032
vn -0.16620291769505 -0.50347262620926 -0.84787493944168
vn -0.55870866775513 0.27999812364578 0.78067004680634
vn -0.24372252821922 0.34176450967789 0.90763229131699
vn -0.7977768778801 0.18975846469402 0.57231438159943
vn -0.87644320726395 -0.14292116463184 0.45980525016785
vn -0.95988595485687 -0.06692472100258 0.27228677272797
vn 0.17845882475376 0.09153172373772 -0.97968077659607
vn -0.52375906705856 -0.28937032818794 0.80121237039566
vn -0.24372607469559 -0.34183794260025 0.90760368108749
vn 0.37255302071571 0.73930811882019 -0.56091690063477
vn 0.33561912178993 0.35218131542206 0.87368649244308
vn 0.87643885612488 -0.14295497536659 -0.45980298519135
vn 0.95988374948502 -0.06695874780416 -0.2722861468792
vn 0.52377206087112 -0.2893254160881 -0.80122011899948
vn 0.24372252821922 -0.34176450967789 -0.90763229131699
vn -0.282774746418 0.82880252599716 0.48283004760742
vn -0.65030092000961 0.752366065979 0.10513797402382
vn -0.51255995035172 0.80350601673126 0.30275472998619
vn -0.56894737482071 0.77748876810074 -0.2679740190506
vn -0.37132772803307 0.79900079965591 -0.47298356890678
vn 0.68887716531754 -0.28573203086853 0.66618728637695
vn 0.42420327663422 -0.34191137552261 0.83853930234909
vn 0.96029722690582 -0.13329209387302 0.24507635831833
vn -0.71846848726273 0.69414663314819 -0.04431120306253
vn -0.41751417517662 0.65844893455505 0.62620037794113
vn -0.7697890996933 0.62999415397644 -0.10262573510408
vn -0.80271208286285 0.51231008768082 -0.30527317523956
vn 0.99725568294525 -0.05765678733587 0.04644092172384
vn -0.67654675245285 -0.28936389088631 -0.67716544866562
vn -0.95194751024246 -0.14295345544815 -0.27085101604462
vn -0.96402776241302 0.12864944338799 -0.23259374499321
vn -0.99886232614517 0.04549606889486 -0.01428678724915
vn -0.68600761890411 0.28645971417427 -0.66883057355881
vn -0.42424169182777 0.34172853827476 -0.83859443664551
vn 0.68033903837204 0.62543052434921 0.38206735253334
vn 0.82285302877426 0.53450214862823 0.19292569160461
vn 0.42074421048164 0.72597819566727 0.54399448633194
vn 0.22939859330654 0.43264129757881 0.87189322710037
vn 0.36369922757149 0.47687056660652 0.8001983165741
vn 0.48579695820808 0.50846648216248 0.71095931529999
vn -0.78233444690704 -0.0477838665247 0.62102293968201
vn 0.92849051952362 0.37120822072029 -0.01047964673489
vn -0.99528080224991 -0.06695841997862 -0.07023350149393
vn 0.94321572780609 0.26331838965416 -0.20250310003757
vn -0.14242962002754 0.19164231419563 0.97107517719269
vn -0.52505558729172 -0.63587641716003 -0.5656658411026
vn 0.19639925658703 -0.17576552927494 -0.9646418094635
vn -0.54057478904724 -0.13013279438019 0.83117043972015
vn -0.46218559145927 -0.01851964555681 0.88658982515335
vn -0.53057396411896 -0.11833736300468 0.83933758735657
vn -0.42373222112656 0.03325019031763 0.90517699718475
vn -0.271121352911 0.21010294556618 0.93933486938477
vn 0.52249300479889 0.2896500825882 -0.80193758010864
vn 0.24372252821922 0.34176450967789 -0.90763229131699
vn 0.877068400383 0.14252777397633 -0.45873400568962
vn 0.89192467927933 -0.13177700340748 -0.43255656957626
vn 0.96706330776215 -0.05731272697449 -0.24799953401089
vn 0.5498149394989 -0.282386302948 -0.78610527515411
vn 0.26376965641975 -0.33912381529808 -0.90300643444061
vn 0.96134650707245 0.06510233134031 -0.26753434538841
vn 0.45454633235931 0.81013077497482 0.37023743987083
vn 0.62645655870438 0.68802130222321 -0.36630430817604
vn 0.18620683252811 -0.07463203370571 -0.979671895504
vn 0.55480444431305 0.77266877889633 0.30850434303284
vn 0.4457249045372 0.68328946828842 0.57831197977066
vn 0.610755443573 0.79137116670609 0.02663607336581
vn 0.31019353866577 0.48657640814781 -0.81671500205994
vn -0.72071176767349 -0.27525088191032 -0.63624799251556
vn -0.44288522005081 -0.33912378549576 -0.82996851205826
vn -0.95640021562576 -0.13797354698181 -0.25741398334503
vn -0.87621432542801 -0.14309392869473 0.46018755435944
vn -0.95938527584076 -0.06761118769646 0.27387708425522
vn -0.52416729927063 -0.28924250602722 0.80099153518677
vn -0.24373213946819 -0.34177362918854 0.90762627124786
vn -0.98722761869431 -0.09033177793026 -0.13123187422752
vn -0.67398130893707 -0.11663419008255 -0.72948318719864
vn -0.89762967824936 -0.08341482281685 -0.43278503417969
vn -0.43817937374115 -0.08271177858114 -0.89507406949997
vn -0.9575063586235 -0.06051525473595 -0.28199192881584
vn -0.98553228378296 -0.03381910175085 -0.16607962548733
vn -0.94614481925964 -0.09573325514793 -0.30926540493965
vn -0.93999308347702 -0.10329911857843 -0.32518047094345
vn -0.48992609977722 -0.43205460906029 -0.75716656446457
vn 0.67618012428284 -0.28948524594307 0.67747968435287
vn 0.42421090602875 -0.34180581569672 0.83857852220535
vn 0.95207422971725 -0.14281146228313 0.27048024535179
vn 0.95432657003403 0.14033691585064 0.2637542784214
vn 0.99237549304962 0.07697234302759 0.09626081585884
vn 0.69388514757156 0.28402867913246 0.66170316934586
vn 0.42418482899666 0.34173619747162 0.83862006664276
vn 0.9954382777214 -0.06630551815033 0.06860221922398
# 163 normals

vt 0.49995157122612 0.00212597846985 0
vt 0.5 0 0
vt 0.5 0.00239622592926 0
vt 0.49946200847626 0.00165581703186 0
vt 0.2547627389431 0.75476276874542 0
vt 0.25495859980583 0.75495862960815 0
vt 0.49977412819862 0.00184786319733 0
vt 0.25515449047089 0.75515449047089 0
vt 0.50004839897156 0.00212597846985 0
vt 0.50022584199905 0.00184786319733 0
vt 0.25535038113594 0.75535035133362 0
vt 0.5 1 0
vt 0.74464964866638 0.75535035133362 0
vt 0.50053799152374 0.00165581703186 0
vt 0.74484550952911 0.75515449047089 0
vt 0.74504137039185 0.75495862960815 0
vt 0.74523729085922 0.75476276874542 0
vt 0.72123175859451 0.68088132143021 0
vt 0.7209849357605 0.68092042207718 0
vt 0.72073811292648 0.68095946311951 0
vt 0.72049129009247 0.68099856376648 0
vt 0.2555835545063 0.75463271141052 0
vt 0.25530993938446 0.75467610359192 0
vt 0.25503632426262 0.75471937656403 0
vt 0.72100907564163 0.68099474906921 0
vt 0.19191606342793 0.95058107376099 0
vt 0.72056376934052 0.68122166395187 0
vt 0.72078639268875 0.68110823631287 0
vt 0.19167397916317 0.95066893100739 0
vt 0.19139903783798 0.95069444179535 0
vt 0.19111704826355 0.95064401626587 0
vt 0.74496364593506 0.75471937656403 0
vt 0.74469006061554 0.75467610359192 0
vt 0.27926191687584 0.68095946311951 0
vt 0.27950873970985 0.68099856376648 0
vt 0.27901509404182 0.68092042207718 0
vt 0.27876827120781 0.68088132143021 0
vt 0.74441647529602 0.75463271141052 0
vt 0.27899092435837 0.68099474906921 0
vt 0.27921357750893 0.68110823631287 0
vt 0.80832600593567 0.95066893100739 0
vt 0.80808395147324 0.95058107376099 0
vt 0.27943626046181 0.68122166395187 0
vt 0.80860096216202 0.95069444179535 0
vt 0.80888295173645 0.95064401626587 0
# 45 texture coordinates

o Decagon_web
usemtl Mat
f 7/1/1 15/2/2 17/3/3
f 3/4/4 2/5/4 11/6/5 6/7/5
f 6/7/5 11/6/5 14/8/6 7/1/6
f 8/9/7 15/2/7 4/10/7
f 17/3/8 15/2/8 8/9/8
f 13/11/9 1/12/9 17/3/9
f 1/12/9 16/13/9 17/3/9
f 7/1/6 14/8/6 13/11/10 17/3/10
f 4/10/11 15/2/11 5/14/11
f 6/7/12 15/2/2 7/1/1
f 3/4/13 15/2/2 6/7/12
f 17/3/14 16/13/14 12/15/15 8/9/15
f 8/9/15 12/15/15 10/16/16 4/10/16
f 4/10/16 10/16/16 9/17/17 5/14/17
f 26/10/18 15/2/18 21/9/18
f 20/14/19 27/18/19 29/19/20 26/10/20
f 26/10/20 29/19/20 18/20/21 21/9/21
f 21/9/21 18/20/21 25/21/22 23/3/22
f 25/21/23 22/22/23 23/3/23
f 21/9/24 15/2/24 23/3/24
f 23/3/25 22/22/25 28/23/26 24/1/26
f 20/14/27 15/2/27 26/10/27
f 24/1/26 28/23/26 30/24/28 19/7/28
f 19/7/28 30/24/28 2/5/29 3/4/29
f 23/3/30 15/2/31 24/1/31
f 19/7/32 15/2/32 3/4/32
f 24/1/31 15/2/31 19/7/33
f 33/10/34 41/25/34 27/18/35 20/14/35
f 36/1/36 15/2/36 42/3/36
f 42/3/37 15/2/38 35/9/39
f 43/26/9 39/27/9 42/3/9
f 35/9/40 32/28/40 41/25/34 33/10/34
f 36/1/41 38/29/41 43/26/42 42/3/42
f 40/7/43 31/30/43 38/29/41 36/1/41
f 34/4/44 37/31/44 31/30/43 40/7/43
f 35/9/39 15/2/38 33/10/45
f 40/7/46 15/2/46 36/1/47
f 34/4/48 15/2/46 40/7/46
f 33/10/45 15/2/38 20/14/49
f 42/3/50 39/27/50 32/28/40 35/9/40
f 47/7/51 51/30/51 37/31/52 34/4/52
f 46/1/53 15/2/54 47/7/55
f 54/27/23 52/26/23 53/3/23
f 46/1/56 49/29/56 51/30/51 47/7/51
f 45/9/57 56/28/57 54/27/58 53/3/58
f 44/10/59 55/25/59 56/28/57 45/9/57
f 48/14/60 50/18/60 55/25/59 44/10/59
f 48/14/61 15/2/61 44/10/61
f 47/7/55 15/2/54 34/4/62
f 44/10/63 15/2/64 45/9/64
f 45/9/64 15/2/64 53/3/65
f 53/3/66 52/26/66 49/29/56 46/1/56
f 53/3/67 15/2/54 46/1/53
f 65/4/68 15/2/69 64/7/70
f 69/22/9 67/21/9 68/3/9
f 64/7/70 15/2/69 60/1/71
f 60/1/71 15/2/69 68/3/72
f 68/3/73 15/2/73 59/9/73
f 58/10/74 57/19/74 50/18/75 48/14/75
f 59/9/76 66/20/76 57/19/74 58/10/74
f 60/1/77 61/23/77 69/22/78 68/3/78
f 58/10/79 15/2/79 48/14/79
f 64/7/80 62/24/80 61/23/77 60/1/77
f 65/4/81 63/5/81 62/24/80 64/7/80
f 59/9/82 15/2/82 58/10/82
f 68/3/83 67/21/83 66/20/83 59/9/83
f 80/9/84 76/15/84 74/13/85 72/3/85
f 79/10/86 75/16/86 76/15/84 80/9/84
f 77/14/87 70/17/87 75/16/86 79/10/86
f 77/14/88 15/2/89 79/10/90
f 81/7/91 15/2/91 65/4/92
f 81/7/93 78/6/93 63/5/94 65/4/94
f 82/1/95 83/8/95 78/6/93 81/7/93
f 82/1/96 15/2/91 81/7/91
f 72/3/97 15/2/97 82/1/97
f 79/10/90 15/2/89 80/9/98
f 80/9/98 15/2/89 72/3/99
f 74/13/23 71/12/23 72/3/23
f 71/12/23 73/11/23 72/3/23
f 72/3/100 73/11/100 83/8/95 82/1/95
f 94/10/101 84/32/101 70/17/35 77/14/35
f 92/9/102 96/33/102 84/32/101 94/10/101
f 91/1/103 93/34/103 88/35/104 89/3/104
f 87/7/105 95/36/105 93/34/103 91/1/103
f 86/4/106 85/37/106 95/36/105 87/7/105
f 94/10/107 15/2/108 77/14/109
f 86/4/110 15/2/111 87/7/111
f 87/7/111 15/2/111 91/1/112
f 91/1/113 15/2/113 89/3/113
f 92/9/114 15/2/108 94/10/107
f 88/35/9 90/38/9 89/3/9
f 89/3/115 90/38/115 96/33/102 92/9/102
f 89/3/116 15/2/108 92/9/114
f 108/7/117 15/2/117 86/4/117
f 107/1/118 15/2/118 108/7/118
f 105/3/119 15/2/119 107/1/119
f 103/9/120 15/2/121 105/3/122
f 102/10/123 15/2/121 103/9/120
f 101/14/124 15/2/121 102/10/123
f 108/7/125 100/39/125 85/37/126 86/4/126
f 107/1/127 109/40/127 100/39/125 108/7/125
f 103/9/128 97/41/128 104/42/129 105/3/129
f 104/42/23 106/43/23 105/3/23
f 102/10/130 98/44/130 97/41/128 103/9/128
f 101/14/131 99/45/131 98/44/130 102/10/130
f 105/3/132 106/43/132 109/40/127 107/1/127
f 118/10/133 15/2/133 101/14/133
f 117/9/134 15/2/134 118/10/134
f 120/3/135 15/2/135 117/9/135
f 116/1/136 15/2/136 120/3/137
f 115/7/138 15/2/136 116/1/136
f 114/4/139 15/2/139 115/7/139
f 118/10/140 113/44/140 99/45/141 101/14/141
f 117/9/142 122/41/142 113/44/140 118/10/140
f 119/43/9 121/42/9 120/3/9
f 116/1/143 110/40/143 119/43/144 120/3/144
f 115/7/145 111/39/145 110/40/143 116/1/143
f 114/4/146 112/37/146 111/39/145 115/7/145
f 120/3/147 121/42/147 122/41/142 117/9/142
f 129/7/148 15/2/149 114/4/150
f 128/1/151 15/2/149 129/7/148
f 133/3/152 15/2/149 128/1/151
f 127/9/153 15/2/149 133/3/152
f 126/10/154 15/2/149 127/9/153
f 5/14/155 15/2/155 126/10/155
f 129/7/156 125/36/156 112/37/157 114/4/157
f 132/38/23 131/35/23 133/3/23
f 128/1/158 130/34/158 125/36/156 129/7/156
f 127/9/159 123/33/159 132/38/160 133/3/160
f 126/10/161 124/32/161 123/33/159 127/9/159
f 5/14/162 9/17/162 124/32/161 126/10/161
f 133/3/163 131/35/163 130/34/158 128/1/158

