# WaveFront *.obj file (generated by CINEMA 4D)

mtllib ./DecagonShape_28.mtl

v 0.00204226444475 0.00538119534031 -0.01412540115416
v 0.00305697205476 0.00320433080196 -0.01462114322931
v 0.00000930549868 -0.00134573178366 -0.01345450244844
v 0.00000517795752 -0.00134280254133 -0.0134523306042
v 0.00000334022138 -0.00134342780802 -0.01345069985837
v 0.0000077692448 -0.00134376960341 -0.01345378998667
v 0.00000724914253 -0.00134151650127 -0.01345349941403
v 0.00000668106486 -0.00134130916558 -0.01345321629196
v 0.00008504871221 0.00425424007699 -0.0133419604972
v 0.00007171559992 0.00425500702113 -0.01332745421678
v 0.00305616157129 0.00320606934838 -0.01462074741721
v 0.00005644157864 0.00425576791167 -0.01331499777734
v 0.00305454037152 0.00320954690687 -0.01461995579302
v 0.00305535108782 0.00320780812763 -0.01462035160512
v 0.00000125104395 -0.00135387002956 -0.01345368009061
v 0.00003953951455 0.00425652507693 -0.01330484915525
v 0.00000749339551 -0.001339592156 -0.01345355156809
v 0.00443730037659 0.00024309490982 -0.01529551297426
v 0.0000115058192 -0.00134670257103 -0.01345546822995
v 0.00001339279788 -0.00135185511317 -0.01345642190427
v 0.00001401623285 -0.00134709756821 -0.01345654949546
v 0.00305940350518 0.00319911423139 -0.01462233159691
v 0.00001525966582 -0.0013456888264 -0.01345703843981
v 0.00001364838772 -0.00134654645808 -0.01345637626946
v 0.00443656928837 0.00024466356263 -0.01529515534639
v 0.00001322175376 -0.00134927325416 -0.01345627382398
v 0.0044387630187 0.00023995776428 -0.01529622729868
v 0.00305859278888 0.00320085301064 -0.01462193578482
v 0.00443803146482 0.00024152648984 -0.01529587060213
v 0.0030577823054 0.00320259178989 -0.0146215390414
v 0.00617715250701 -0.00349195627496 -0.01614716462791
v 0.00444022519514 0.00023682070605 -0.01529694162309
v 0.00001463298486 -0.00135405233596 -0.01345701422542
v 0.0000126000441 -0.00135758740362 -0.01345985662192
v 0.00001643243195 -0.00135529297404 -0.01345782913268
v 0.0000163880959 -0.00135596387554 -0.01345795299858
v 0.00617648195475 -0.00349256861955 -0.01614894159138
v 0.0061773150228 -0.00349045475014 -0.01614595763385
v 0.00444095628336 0.00023525205324 -0.01529729925096
v 0.00001429426266 -0.00135694490746 -0.01345808431506
v 0.00443949410692 0.0002383893443 -0.01529658492655
v 0.00001819317731 -0.00135562301148 -0.01345857791603
v 0.00617685727775 -0.00348879699595 -0.01614538580179
v 0.0000119663091 -0.0013539622305 -0.01346319820732
v 0.0000137805182 -0.00135520345066 -0.01346397865564
v 0.00001383322797 -0.00135587761179 -0.0134638780728
v 0.00001248090939 -0.001356883673 -0.01346228923649
v 0.00001070747294 -0.00135176442564 -0.01346264965832
v 0.00617490662262 -0.00349037349224 -0.01615154370666
v 0.00440311199054 0.00024116132408 -0.01537890080363
v 0.00617565587163 -0.00349190575071 -0.01615063473582
v 0.00617419369519 -0.00348870689049 -0.01615156233311
v 0.00001553006405 -0.00135553313885 -0.01346475351602
v 0.00440534716472 0.00023645424517 -0.01537987589836
v 0.00440385751426 0.000239592453 -0.0153792258352
v 0.00440460210666 0.00023802334908 -0.01537955086678
v 0.00440236693248 0.00024273051531 -0.01537857577205
v 0.00001050981427 -0.00134918163531 -0.01346256304532
v 0.00001127843734 -0.00134700513445 -0.01346289832145
v 0.00001090612204 -0.0013464539079 -0.01346273627132
v 0.00299674784765 0.00320294103585 -0.01476535387337
v 0.00299592176452 0.00320468028076 -0.01476499345154
v 0.00299509614706 0.0032064197585 -0.0147646330297
v 0.00000877302864 -0.00134661025368 -0.01346180494875
v 0.00000657050805 -0.00134563946631 -0.01346084475517
v 0.00440162234008 0.00024429961923 -0.01537825074047
v 0.00440087681636 0.00024586849031 -0.01537792570889
v 0.00001250246351 -0.00134559581056 -0.01346343196929
v 0.00299757369794 0.00320120179094 -0.01476571429521
v -0.00003643590026 0.00425583822653 -0.01344020850956
v 0.00196112995036 0.00538393436 -0.01431354973465
v 0.00000469934866 -0.00133949785959 -0.01346002798527
v 0.00299261859618 0.00321163749322 -0.01476355176419
v -0.00002993777161 0.00425855908543 -0.0134449172765
v -0.00003450364602 0.00425674440339 -0.01344208512455
v -0.00003232244489 0.00425765151158 -0.01344366557896
v -0.00000179190681 -0.00134335493203 -0.01345532294363
v 0.00299427029677 0.00320815900341 -0.01476427260786
v 0.00000108315294 -0.00134272000287 -0.01345793996006
v 0.00000343265106 -0.00134121917654 -0.01345941703767
v 0.00000501916566 -0.00134367670398 -0.01346016768366
v 0.00000433713058 -0.00134142395109 -0.01345986500382
v 0.00299344421364 0.00320989824831 -0.01476391218603
v -0.00003807956818 0.00425493298098 -0.01343807391822
v -0.00090511952294 0.00272663449869 -0.01059853192419
v -0.00000631929925 -0.00134575820994 -0.01344641391188
v -0.00000583733845 -0.00134377670474 -0.01344801299274
v -0.00090374430874 0.00272906175815 -0.01060304045677
v -0.00000576882985 -0.00133959425148 -0.013448308222
v -0.00004037272083 0.00425312714651 -0.01343321241438
v -0.00000563196681 -0.00134151580278 -0.01344870496541
v -0.00000529027329 -0.00134129950311 -0.01344965212047
v -0.00090420275228 0.00272825267166 -0.01060153730214
v -0.00000407463995 -0.00134276750032 -0.0134521657601
v -0.00090466125403 0.00272744358517 -0.01060003507882
v -0.00003940133683 0.00425402913243 -0.01343572605401
v -0.00199490925297 0.00080215797061 -0.00702511239797
v -0.00199416000396 0.00080110115232 -0.00702367722988
v -0.00199249200523 0.00080061686458 -0.00702269375324
v -0.00090557796648 0.0027258254122 -0.01059702970088
v -0.000004268677 -0.00135013216641 -0.01344172842801
v -0.00000653752295 -0.00134907034226 -0.01344211678952
v -0.00000769996677 -0.0013471696293 -0.01344148442149
v -0.00199476419948 0.0008031417965 -0.0070266276598
v -0.00000822389757 -0.00134578661527 -0.01344022806734
v -0.00090649456251 0.00272420700639 -0.01059402432293
v -0.0000076944425 -0.00134662503842 -0.01344189792871
v -0.00000701840418 -0.00134675577283 -0.01344412658364
v -0.0009060362936 0.00272501609288 -0.01059552747756
v -0.00082016724627 0.00272427499294 -0.01056868210435
v -0.00081967539154 0.00272508361377 -0.01057017408311
v -0.00081918359501 0.00272589270025 -0.01057166606188
v -0.00199055322446 0.00080107024405 -0.0070225498639
v 0.00000015367785 -0.00134581408929 -0.01344439014792
v -0.00000059038166 -0.00134681118652 -0.01344211678952
v -0.00000130200192 -0.00134668021929 -0.01343989931047
v -0.0000015414555 -0.0013472228311 -0.01343955937773
v -0.00000216643161 -0.00134910806082 -0.0134407505393
v -0.00082065915922 0.00272346590646 -0.01056719012558
v -0.00000180446091 -0.00134584202897 -0.01343822199851
v -0.00198834436014 0.00080308614997 -0.00702462065965
v -0.00198910338804 0.0008021077374 -0.00702329725027
v 0.000104848099 0.00425267638639 -0.01337589416653
v 0.00009616834723 0.00425346381962 -0.01335821859539
v -0.00081869174028 0.00272670132108 -0.01057315804064
v 0.00000189337516 -0.00134283199441 -0.01344869937748
v 0.00000114601505 -0.00134135899134 -0.01344709470868
v 0.00000092121951 -0.00134157342836 -0.01344649866223
v 0.00000069979069 -0.00134383316617 -0.01344596967101
v -0.00081819982734 0.00272751017474 -0.01057465001941
v -0.00081770803081 0.00272831902839 -0.01057614292949
v 0.00010866772209 0.00425184052438 -0.01338661741465
v 0.00000087740591 -0.00133965164423 -0.01344623044133
# 133 vertices

vn -0.02123493142426 0.02497036196291 -0.99946266412735
vn -0.09891664236784 0.0678513944149 -0.99277979135513
vn 0.11513617634773 -0.04134498164058 -0.99248892068863
vn 0.39192542433739 -0.0267171766609 0.91960895061493
vn 0.39229393005371 -0.0270017310977 0.91944348812103
vn 0.39161378145218 -0.02646438404918 0.91974902153015
vn -0.8305771946907 0.37429204583168 -0.41236755251884
vn -0.78875809907913 0.36011105775833 -0.49817734956741
vn -0.69305658340454 0.3244409263134 -0.64374738931656
vn -0.90407413244247 0.3967157304287 -0.1589547097683
vn 0.39186853170395 -0.02668541111052 0.91963416337967
vn 0.39178827404976 -0.02667216211557 0.91966873407364
vn 0.39056441187859 -0.02564242295921 0.92021840810776
vn -0.68724572658539 0.32320427894592 -0.65056306123734
vn -0.20398080348969 0.1210752427578 -0.97145903110504
vn -0.2501802444458 0.15102188289165 -0.95634835958481
vn -0.88193297386169 -0.00395753839985 0.47135823965073
vn -0.85006326436996 -0.00377978454344 0.52666705846786
vn -0.76557242870331 -0.00363948266022 0.64333945512772
vn -0.71148574352264 -0.00370718631893 0.70269078016281
vn -0.20931148529053 -0.00665454939008 -0.97782635688782
vn -0.16555462777615 -0.09500371664762 -0.98161393404007
vn -0.13345970213413 -0.16262401640415 -0.97762054204941
vn -0.07330796867609 -0.26867744326591 -0.96043652296066
vn -0.22650445997715 0.04075871780515 -0.97315692901611
vn -0.53207063674927 0.81042790412903 -0.24516822397709
vn -0.35091999173164 0.27911645174026 -0.89383953809738
vn -0.31153574585915 0.21488896012306 -0.92561775445938
vn -0.38792499899864 0.34151229262352 -0.85608619451523
vn 0.39233681559563 -0.02808358520269 0.91939282417297
vn -0.29040768742561 -0.183005169034 -0.9392403960228
vn -0.0635624602437 0.84934562444687 -0.52399599552155
vn 0.3915468454361 -0.02540100179613 0.91980749368668
vn 0.25039836764336 -0.39202606678009 0.88522100448608
vn 0.33579272031784 -0.1920470893383 0.92215031385422
vn 0.00859722215682 -0.77345168590546 0.63379693031311
vn -0.13640849292278 -0.90403944253922 0.40509921312332
vn -0.22845043241978 0.28056755661964 -0.93225115537643
vn -0.23407936096191 0.20351094007492 -0.95067876577377
vn -0.05104615166783 0.74152475595474 -0.66898083686829
vn -0.17434202134609 0.48655614256859 -0.85607707500458
vn 0.0781147480011 0.91104996204376 -0.40482839941978
vn -0.23823288083076 0.12517587840557 -0.96310752630234
vn 0.39034554362297 -0.02130796201527 0.92042183876038
vn -0.46309852600098 -0.75752776861191 -0.46009933948517
vn -0.39777359366417 -0.89520168304443 -0.20097303390503
vn 0.63007074594498 0.29023286700249 0.72026085853577
vn -0.39986836910248 0 -0.91657257080078
vn -0.47589272260666 -0.36753687262535 -0.79902613162994
vn -0.40028190612793 0.00129764317535 -0.91639113426208
vn -0.40151026844978 0.00539043685421 -0.91583865880966
vn -0.39944311976433 -0.0013664981816 -0.91675698757172
vn 0.65281176567078 0.19074383378029 0.73311227560043
vn 0.62981241941452 0.3241014778614 0.70589983463287
vn 0.41528323292732 0.87908911705017 0.23397053778172
vn 0.59479570388794 0.45128884911537 0.66524910926819
vn 0.26769179105759 0.94170892238617 0.20377783477306
vn -0.4420083463192 -0.16579937934875 -0.88155496120453
vn 0.46729129552841 -0.55732250213623 0.68631660938263
vn 0.50184440612793 0.36013478040695 0.78641921281815
vn 0.40345937013626 0.46432209014893 0.78843235969543
vn 0.29677554965019 0.5589793920517 0.77425211668015
vn -0.29285997152328 0.86880427598953 0.3992645740509
vn 0.74919348955154 -0.47626033425331 0.46030995249748
vn 0.74063849449158 -0.20594236254692 0.63956421613693
vn 0.75055694580078 -0.32004112005234 0.57813316583633
vn 0.70712274312973 -0.0620369464159 0.70436412096024
vn 0.68456995487213 0.02806100435555 0.72840684652328
vn -0.5053778886795 -0.00078490347369 -0.86289781332016
vn -0.44936627149582 -0.00037040945608 -0.89334756135941
vn -0.62398624420166 -0.00175618042704 -0.78143340349197
vn -0.68462097644806 -0.00229171710089 -0.72889560461044
vn 0.60805177688599 0.29128989577293 0.73852771520615
vn 0.27776983380318 0.37479293346405 0.88451915979385
vn 0.47718039155006 0.3198863863945 0.8185179233551
vn 0.68939328193665 0.19001621007919 0.69902127981186
vn 0.83492183685303 0.0736350491643 0.5454204082489
vn 0.62694215774536 0.23994891345501 0.74119365215302
vn -0.40027248859406 0.00033499038545 -0.9163960814476
vn -0.39927598834038 -0.00045547896298 -0.91683065891266
vn 0.90815669298172 -0.01734066009521 0.41827112436295
vn 0.97497314214706 -0.17137029767036 0.1416320502758
vn 0.09244384616613 0.39794531464577 0.91273963451386
vn -0.15561074018478 0.43008852005005 0.88927453756332
vn -0.39779987931252 -0.00163786753546 -0.9174707531929
vn -0.84658801555634 -0.00380811071955 -0.5322350859642
vn -0.80121546983719 -0.00336298928596 -0.59836649894714
vn -0.91421192884445 -0.00456377817318 -0.4052107334137
vn -0.95587921142578 -0.00559080578387 -0.29370677471161
vn -0.95634776353836 -0.00676915468648 -0.29215249419212
vn -0.95555943250656 -0.00475916313007 -0.29476007819176
vn -0.95570439100266 -0.00515638571233 -0.29428315162659
vn 0.85836356878281 0.36216908693314 0.36338075995445
vn 0.88695359230042 0.44655787944794 0.11789555102587
vn 0.7965881228447 0.3114567399025 0.51811391115189
vn 0.79653984308243 0.2504768371582 0.55025959014893
vn 0.66255855560303 0.07904615998268 0.74482744932175
vn 0.76666021347046 0.19494266808033 0.61174297332764
vn 0.57098960876465 -0.01250207424164 0.82086211442947
vn 0.37037500739098 -0.16201467812061 0.91464394330978
vn 0.86890262365341 0.48455718159676 -0.10105744749308
vn -0.95570331811905 -0.0051127159968 -0.29428735375404
vn -0.93819826841354 -0.00486611295491 -0.34606400132179
vn 0.75974732637405 0.52033042907715 -0.38992345333099
vn 0.80038964748383 0.51237374544144 0.3112066090107
vn 0.8199228644371 0.38884794712067 0.42014729976654
vn 0.75879913568497 0.62185996770859 0.19368542730808
vn 0.22867022454739 0.89711612462997 -0.37801140546799
vn 0.64139890670776 -0.3682356774807 0.67306011915207
vn 0.83354783058166 0.37476634979248 0.40589186549187
vn 0.43377977609634 0.89742958545685 -0.0803442671895
vn -0.95603865385056 -0.00598132656887 -0.2931797504425
vn -0.95569157600403 -0.00509417057037 -0.29432570934296
vn -0.95537883043289 -0.00430629961193 -0.29535186290741
vn -0.91457730531692 -0.37200134992599 -0.15862965583801
vn -0.95591431856155 -0.17081896960735 -0.23884864151478
vn -0.64765328168869 -0.76001399755478 0.05407431349158
vn -0.4079372882843 -0.89628028869629 0.17397952079773
vn -0.95435267686844 -0.00176917924546 -0.29867678880692
vn -0.53999346494675 0.73346281051636 -0.41284307837486
vn -0.76269292831421 0.52927511930466 -0.37170869112015
vn -0.24901281297207 0.88562768697739 -0.39199009537697
vn -0.91535621881485 0.26305708289146 -0.3048343360424
vn -0.98082309961319 0.00193568621762 -0.19489043951035
vn -0.16709530353546 0.86109417676926 -0.48020413517952
vn -0.93711322546005 0.21100051701069 -0.27802446484566
vn -0.91270816326141 0.26765847206116 -0.30874380469322
vn -0.95707482099533 0.15328876674175 -0.24598842859268
vn 0.48944002389908 -0.76987129449844 0.40956884622574
vn 0.22209642827511 -0.9017117023468 0.37093019485474
vn 0.83606421947479 -0.38716360926628 0.38871705532074
vn 0.95293879508972 -0.02159046567976 0.30239301919937
vn 0.95328933000565 -0.02076520584524 0.30134406685829
vn 0.95436871051788 -0.01825308613479 0.29807251691818
vn 0.95256668329239 -0.02243373543024 0.30350187420845
vn 0.91891807317734 -0.18697676062584 0.34731730818748
vn -0.98050493001938 0.08298809826374 -0.17810975015163
vn -0.9913170337677 0.04833324998617 -0.12228823453188
vn -0.97307425737381 0.10441371053457 -0.20548537373543
vn -0.99658894538879 0.02002080157399 -0.08006049692631
vn -0.99972730875015 -0.02153092063963 -0.00904264487326
vn 0.30988904833794 0.16219262778759 -0.93683636188507
vn 0.12204533815384 0.46314945816994 -0.87783682346344
vn 0.23714615404606 0.2415269613266 -0.94097101688385
vn -0.71398550271988 0.32209438085556 -0.62167513370514
vn -0.70801359415054 0.32429355382919 -0.62733596563339
vn -0.71990621089935 0.31986030936241 -0.61597436666489
vn 0.95285928249359 -0.02178900502622 0.30262926220894
vn 0.95293170213699 -0.02159002237022 0.30241543054581
vn 0.95301431417465 -0.02141633071005 0.30216735601425
vn 0.38902670145035 0.00366273475811 -0.92121917009354
vn 0.33654370903969 0.00385570828803 -0.94165992736816
vn 0.44028767943382 0.00345770595595 -0.89785009622574
vn -0.5780571103096 -0.00390659412369 0.81598699092865
vn 0.95324444770813 -0.02088340744376 0.30147787928581
# 155 normals

vt 0.49995157122612 0.00212597846985 0
vt 0.5 0 0
vt 0.5 0.00239622592926 0
vt 0.49946200847626 0.00165581703186 0
vt 0.2547627389431 0.75476276874542 0
vt 0.25495859980583 0.75495862960815 0
vt 0.49977412819862 0.00184786319733 0
vt 0.25515449047089 0.75515449047089 0
vt 0.50004839897156 0.00212597846985 0
vt 0.50022584199905 0.00184786319733 0
vt 0.25535038113594 0.75535035133362 0
vt 0.5 1 0
vt 0.74464964866638 0.75535035133362 0
vt 0.50053799152374 0.00165581703186 0
vt 0.74484550952911 0.75515449047089 0
vt 0.74504137039185 0.75495862960815 0
vt 0.74523729085922 0.75476276874542 0
vt 0.72123175859451 0.68088132143021 0
vt 0.7209849357605 0.68092042207718 0
vt 0.72073811292648 0.68095946311951 0
vt 0.72049129009247 0.68099856376648 0
vt 0.2555835545063 0.75463271141052 0
vt 0.25530993938446 0.75467610359192 0
vt 0.25503632426262 0.75471937656403 0
vt 0.72100907564163 0.68099474906921 0
vt 0.19191606342793 0.95058107376099 0
vt 0.72056376934052 0.68122166395187 0
vt 0.72078639268875 0.68110823631287 0
vt 0.19167397916317 0.95066893100739 0
vt 0.19139903783798 0.95069444179535 0
vt 0.19111704826355 0.95064401626587 0
vt 0.74496364593506 0.75471937656403 0
vt 0.74469006061554 0.75467610359192 0
vt 0.27926191687584 0.68095946311951 0
vt 0.27950873970985 0.68099856376648 0
vt 0.27901509404182 0.68092042207718 0
vt 0.27876827120781 0.68088132143021 0
vt 0.74441647529602 0.75463271141052 0
vt 0.27899092435837 0.68099474906921 0
vt 0.27921357750893 0.68110823631287 0
vt 0.80832600593567 0.95066893100739 0
vt 0.80808395147324 0.95058107376099 0
vt 0.27943626046181 0.68122166395187 0
vt 0.80860096216202 0.95069444179535 0
vt 0.80888295173645 0.95064401626587 0
# 45 texture coordinates

o Decagon_web
usemtl Mat
f 7/1/1 15/2/2 17/3/3
f 3/4/4 2/5/4 11/6/5 6/7/5
f 6/7/5 11/6/5 14/8/6 7/1/6
f 8/9/7 15/2/8 4/10/9
f 17/3/10 15/2/8 8/9/7
f 13/11/4 1/12/11 17/3/11
f 1/12/11 16/13/12 17/3/11
f 7/1/6 14/8/6 13/11/13 17/3/13
f 4/10/9 15/2/8 5/14/14
f 6/7/15 15/2/2 7/1/1
f 3/4/16 15/2/2 6/7/15
f 17/3/17 16/13/17 12/15/18 8/9/18
f 8/9/18 12/15/18 10/16/19 4/10/19
f 4/10/19 10/16/19 9/17/20 5/14/20
f 26/10/21 15/2/22 21/9/23
f 20/14/4 27/18/4 29/19/4 26/10/4
f 26/10/4 29/19/4 18/20/4 21/9/4
f 21/9/4 18/20/4 25/21/4 23/3/4
f 25/21/4 22/22/4 23/3/4
f 21/9/23 15/2/22 23/3/24
f 23/3/4 22/22/4 28/23/4 24/1/4
f 20/14/25 15/2/22 26/10/21
f 24/1/4 28/23/4 30/24/4 19/7/4
f 19/7/4 30/24/4 2/5/4 3/4/4
f 23/3/26 15/2/26 24/1/26
f 19/7/27 15/2/27 3/4/28
f 24/1/29 15/2/27 19/7/27
f 33/10/30 41/25/30 27/18/4 20/14/4
f 36/1/31 15/2/31 42/3/31
f 42/3/32 15/2/32 35/9/32
f 43/26/4 39/27/4 42/3/4
f 35/9/33 32/28/33 41/25/30 33/10/30
f 36/1/34 38/29/34 43/26/35 42/3/35
f 40/7/36 31/30/36 38/29/34 36/1/34
f 34/4/37 37/31/37 31/30/36 40/7/36
f 35/9/38 15/2/39 33/10/39
f 40/7/40 15/2/40 36/1/41
f 34/4/42 15/2/40 40/7/40
f 33/10/39 15/2/39 20/14/43
f 42/3/44 39/27/44 32/28/33 35/9/33
f 47/7/45 51/30/45 37/31/46 34/4/46
f 46/1/47 15/2/47 47/7/47
f 54/27/48 52/26/48 53/3/48
f 46/1/49 49/29/49 51/30/45 47/7/45
f 45/9/50 56/28/50 54/27/51 53/3/51
f 44/10/52 55/25/52 56/28/50 45/9/50
f 48/14/48 50/18/48 55/25/52 44/10/52
f 48/14/53 15/2/54 44/10/54
f 47/7/55 15/2/55 34/4/55
f 44/10/54 15/2/54 45/9/56
f 45/9/57 15/2/57 53/3/57
f 53/3/58 52/26/58 49/29/49 46/1/49
f 53/3/59 15/2/59 46/1/59
f 65/4/60 15/2/61 64/7/61
f 69/22/48 67/21/48 68/3/48
f 64/7/61 15/2/61 60/1/62
f 60/1/63 15/2/63 68/3/63
f 68/3/64 15/2/65 59/9/66
f 58/10/48 57/19/48 50/18/48 48/14/48
f 59/9/48 66/20/48 57/19/48 58/10/48
f 60/1/48 61/23/48 69/22/48 68/3/48
f 58/10/67 15/2/65 48/14/68
f 64/7/48 62/24/48 61/23/48 60/1/48
f 65/4/48 63/5/48 62/24/48 64/7/48
f 59/9/66 15/2/65 58/10/67
f 68/3/48 67/21/48 66/20/48 59/9/48
f 80/9/69 76/15/69 74/13/70 72/3/70
f 79/10/71 75/16/71 76/15/69 80/9/69
f 77/14/72 70/17/72 75/16/71 79/10/71
f 77/14/73 15/2/74 79/10/75
f 81/7/76 15/2/77 65/4/78
f 81/7/79 78/6/79 63/5/48 65/4/48
f 82/1/80 83/8/80 78/6/79 81/7/79
f 82/1/81 15/2/77 81/7/76
f 72/3/82 15/2/77 82/1/81
f 79/10/75 15/2/74 80/9/83
f 80/9/83 15/2/74 72/3/84
f 74/13/48 71/12/48 72/3/48
f 71/12/48 73/11/48 72/3/48
f 72/3/85 73/11/85 83/8/80 82/1/80
f 94/10/86 84/32/86 70/17/87 77/14/87
f 92/9/88 96/33/88 84/32/86 94/10/86
f 91/1/89 93/34/89 88/35/90 89/3/90
f 87/7/91 95/36/91 93/34/89 91/1/89
f 86/4/92 85/37/92 95/36/91 87/7/91
f 94/10/93 15/2/94 77/14/95
f 86/4/96 15/2/97 87/7/98
f 87/7/98 15/2/97 91/1/99
f 91/1/99 15/2/97 89/3/100
f 92/9/101 15/2/94 94/10/93
f 88/35/102 90/38/102 89/3/102
f 89/3/103 90/38/103 96/33/88 92/9/88
f 89/3/104 15/2/94 92/9/101
f 108/7/105 15/2/105 86/4/106
f 107/1/107 15/2/105 108/7/105
f 105/3/108 15/2/108 107/1/108
f 103/9/109 15/2/109 105/3/109
f 102/10/110 15/2/110 103/9/110
f 101/14/111 15/2/111 102/10/111
f 108/7/112 100/39/112 85/37/113 86/4/113
f 107/1/114 109/40/114 100/39/112 108/7/112
f 103/9/115 97/41/115 104/42/116 105/3/116
f 104/42/102 106/43/102 105/3/102
f 102/10/117 98/44/117 97/41/115 103/9/115
f 101/14/118 99/45/118 98/44/117 102/10/117
f 105/3/119 106/43/119 109/40/114 107/1/114
f 118/10/120 15/2/121 101/14/122
f 117/9/123 15/2/121 118/10/120
f 120/3/124 15/2/121 117/9/123
f 116/1/125 15/2/125 120/3/125
f 115/7/126 15/2/126 116/1/127
f 114/4/128 15/2/126 115/7/126
f 118/10/129 113/44/129 99/45/130 101/14/130
f 117/9/131 122/41/131 113/44/129 118/10/129
f 119/43/132 121/42/132 120/3/132
f 116/1/133 110/40/133 119/43/134 120/3/134
f 115/7/135 111/39/135 110/40/133 116/1/133
f 114/4/132 112/37/132 111/39/135 115/7/135
f 120/3/136 121/42/136 122/41/131 117/9/131
f 129/7/137 15/2/138 114/4/139
f 128/1/140 15/2/138 129/7/137
f 133/3/141 15/2/138 128/1/140
f 127/9/142 15/2/143 133/3/144
f 126/10/145 15/2/145 127/9/146
f 5/14/147 15/2/145 126/10/145
f 129/7/148 125/36/148 112/37/149 114/4/149
f 132/38/132 131/35/132 133/3/132
f 128/1/150 130/34/150 125/36/148 129/7/148
f 127/9/142 123/33/151 132/38/152 133/3/144
f 126/10/153 124/32/153 123/33/151 127/9/142
f 5/14/154 9/17/154 124/32/154 126/10/154
f 133/3/155 131/35/155 130/34/150 128/1/150

