# WaveFront *.obj file (generated by CINEMA 4D)

mtllib ./DecagonShape_78.mtl

v 0.0000094361676 0.00611713621765 -0.00003884025136
v 0.00165003840812 0.00432753236964 0.00037687717122
v 0.00001932249688 -0.00115706131328 -0.0000193023061
v 0.00000794460175 -0.00115193636157 -0.00003812473369
v 0.00000676937771 -0.00115282263141 -0.00003605784514
v 0.00001813356539 -0.00115502136759 -0.0000313426317
v 0.0000128369411 -0.00115114997607 -0.00003736007784
v 0.00001005270315 -0.00115034519695 -0.00003850416397
v -0.00162394635845 0.00433177128434 -0.00043223725515
v -0.00162341166288 0.0043327845633 -0.00043382248259
v 0.0016502632061 0.00432911328971 0.00036836371874
v -0.00162228918634 0.00433404371142 -0.00043480537715
v 0.00163982110098 0.0043354453519 0.00035725880298
v 0.00164649810176 0.00433192448691 0.00036117676063
v 0.000013463703 -0.001166845439 -0.00002964414853
v -0.00162094878033 0.0043354453519 -0.00043493928388
v 0.0000094361676 -0.00114803551696 -0.00003884025136
v -0.00147269421723 0.00379264866933 -0.00036327025737
v 0.00001274180704 -0.00115502136759 -0.0000091495931
v -0.0000086423106 -0.00115494441707 0.00000133066271
v 0.00000210105827 -0.00115037942305 -0.00000640253484
v 0.00163040484767 0.00433021923527 0.00038924327237
v 0.00000157387251 -0.00114803551696 -0.00000647822299
v 0.00000527376915 -0.00115115067456 -0.00000622255675
v -0.00146781571675 0.00379396905191 -0.00036346373963
v -0.00000476131481 -0.00115348061081 -0.00000478368111
v -0.00147938146256 0.00379159883596 -0.00035598271643
v 0.00163865322247 0.00432843994349 0.00038895141915
v -0.00147691974416 0.00379175436683 -0.00036053007352
v 0.00164581416175 0.00432737125084 0.00038441893412
v 0.00205332855694 0.00575821613893 0.00051108573098
v -0.00147710531019 0.00379373179749 -0.00034651756869
v -0.00000799927784 -0.00115348061081 0.00000854411064
v -0.0000004809541 -0.00115282263141 0.00001017404156
v -0.00000498893587 -0.00115057523362 0.00001211224026
v -0.00000327957878 -0.00115017127246 0.00001276127659
v 0.00205438002013 0.00575830088928 0.00050939875655
v 0.00205161958002 0.00575789064169 0.00051184487529
v -0.00147302052937 0.00379559374414 -0.00034414645052
v -0.0000016561786 -0.00115193636157 0.00001224093103
v -0.00147944141645 0.00379229616374 -0.00035085185664
v -0.00000314774502 -0.00114803551696 0.00001295644597
v 0.0020499737002 0.00575723685324 0.00051175855333
v -0.00000257088709 -0.00115193636157 0.00000515811189
v -0.00000186187731 -0.00115000107326 0.00000628985572
v -0.00000129722616 -0.00115000340156 0.00000666215192
v -0.00000057685781 -0.00115193636157 0.00000779833408
v -0.00000266679081 -0.00115282263141 0.00000278240441
v 0.00205304962583 0.00575789064169 0.000505958742
v -0.00147340586409 0.00379372085445 -0.00035453095916
v 0.00205421983264 0.00575821613893 0.00050741742598
v 0.00205154763535 0.00575723685324 0.00050528033171
v -0.00000157387251 -0.00114803551696 0.00000647822299
v -0.00147144659422 0.00379559374414 -0.00035062467214
v -0.00147347955499 0.00379413366318 -0.00035283371108
v -0.00147275452036 0.0037947925739 -0.00035140200634
v -0.00147253158502 0.0037935920991 -0.00035603370634
v -0.00000149156619 -0.00115193636157 0.00000071551472
v 0.00000111691679 -0.00115050887689 0.00000019557625
v 0.00000538078166 -0.00115172646474 0.00000040651619
v 0.00164027803112 0.00432737916708 0.00039528758498
v 0.00165020220447 0.0043255337514 0.0003889152722
v 0.00165601377375 0.00432541081682 0.00037832887028
v 0.000016011556 -0.00115656561684 -0.00000365039796
v 0.00002529801714 -0.00115918309893 -0.00001785056338
v -0.001471069525 0.00379370944574 -0.00035693406244
v -0.0014693896519 0.00379396905191 -0.00035698551801
v 0.00000000000001 -0.00114803551696 0
v 0.00162883091252 0.00433021923527 0.00039572149399
v -0.00162992195692 0.00432964926586 -0.00043368901243
v 0.00001101004 0.00611713621765 -0.00004531847298
v 0.00001101004 -0.00114803551696 -0.00004531847298
v 0.00164139503613 0.0043354453519 0.00035078058136
v -0.00161937496159 0.0043354453519 -0.0004414175055
v -0.00162779982202 0.00433094706386 -0.00043831887888
v -0.00162391376216 0.00433298293501 -0.00044114151387
v 0.00000079385808 -0.00115494441707 -0.00003750958786
v 0.00165622530039 0.00432727625594 0.0003663818934
v 0.00000467485233 -0.00115348061081 -0.00004362392792
v 0.00000898725375 -0.00115057604853 -0.00004542362512
v 0.00002356195546 -0.00115656561684 -0.00003472862954
v 0.00001340028484 -0.00115109840408 -0.00004444877777
v 0.00165084889159 0.00433086371049 0.00035629232298
v -0.00162964256015 0.00432920502499 -0.00042847567238
v 0.00147811055649 0.00379372551106 0.00033510758658
v 0.00000737146001 -0.00115281785838 -0.0000222057879
v 0.0000072767848 -0.00115193286911 -0.00002457063601
v 0.00147567805834 0.00379396905191 0.00033110173536
v 0.00000628842326 -0.00114803551696 -0.00002588380448
v -0.00162254250608 0.00433021923527 -0.00042160530575
v 0.00000613643351 -0.00115017243661 -0.00002591632983
v 0.00000444286752 -0.00115057604853 -0.00002671845505
v 0.00147714081686 0.00379371177405 0.00033191460534
v 0.00000143689044 -0.00115348061081 -0.00003029613981
v 0.001478023245 0.00379359629005 0.00033337893547
v -0.00162696687039 0.00432949885726 -0.00042405890417
v -0.00205004564486 0.00575789064169 -0.00051832309691
v -0.00205175462179 0.00575821613893 -0.0005175639526
v -0.00205280608498 0.00575830088928 -0.00051587697817
v 0.00147740088869 0.0037941376213 0.00033664260991
v 0.00000205482615 -0.00115282263141 -0.00001665226227
v 0.00000323005042 -0.00115193636157 -0.00001871915083
v 0.00000439030418 -0.00115000305232 -0.00001939838876
v -0.00204839999788 0.00575723685324 -0.00051823677495
v 0.00000472161673 -0.00114803551696 -0.00001943466668
v 0.00147459434811 0.00379559374414 0.00033766822889
v 0.00000506016931 -0.00114999979269 -0.00001947023338
v 0.00000620231003 -0.00115193286911 -0.0000201479852
v 0.00147610588465 0.00379479490221 0.00033757794881
v 0.0014777306933 0.00379373412579 0.00034391414374
v 0.00148178893141 0.00379230012186 0.00034113897709
v 0.00148408615496 0.00379160349257 0.00033655934385
v -0.00205264589749 0.00575821613893 -0.0005138956476
v 0.00001334697936 -0.00115493964404 -0.000020754047
v 0.00000947205808 -0.00115347711835 -0.00001464878824
v 0.00000516726141 -0.00115057395305 -0.00001286211955
v 0.00000335331492 -0.0011501708068 -0.00001306958893
v 0.00000215072964 -0.00115193636157 -0.00001427655479
v 0.00147302052937 0.00379559374414 0.00034414645052
v 0.00000314774456 -0.00114803551696 -0.00001295644506
v -0.0020499737002 0.00575723685324 -0.00051175855333
v -0.00205147569068 0.00575789064169 -0.00051243696362
v -0.00162261608057 0.00433055963367 -0.00042894334183
v -0.00162368069869 0.00433104252443 -0.00043045755592
v 0.00148398510646 0.00379175879061 0.00033139705192
v 0.00000686528119 -0.00115193636157 -0.00003368213947
v 0.0000080703503 -0.00115017732605 -0.00003240504157
v 0.00000970988367 -0.00115057569928 -0.00003153769649
v 0.00001270517441 -0.00115347711835 -0.00002795663204
v 0.00148149160668 0.00379265099764 0.00032703016768
v 0.00147725199349 0.00379396905191 0.00032462351373
v -0.00162096868735 0.00433021923527 -0.00042808352737
v 0.00000786229521 -0.00114803551696 -0.0000323620261
# 133 vertices

vn 0.29517567157745 -0.43119931221008 -0.85260689258575
vn 0.55078172683716 -0.47265973687172 -0.68791878223419
vn -0.0009097023285 -0.46410164237022 -0.88578146696091
vn -0.94570499658585 0.30892983078957 0.10101696848869
vn -0.88320577144623 0.26462054252625 0.38719961047173
vn -0.59269469976425 0.13397505879402 0.79420632123947
vn 0.17229455709457 -0.45936852693558 -0.87137544155121
vn 0.94149315357208 0.30674442648888 0.13963712751865
vn -0.23608085513115 0 0.97173339128494
vn -0.41047567129135 0.06346559524536 0.90966027975082
vn -0.56581026315689 -0.5914677977562 -0.57447761297226
vn 0.77056866884232 -0.41178274154663 -0.48647603392601
vn 0.89148277044296 -0.41903656721115 -0.17224057018757
vn 0.51555562019348 0.24002495408058 0.82255113124847
vn 0.40280240774155 0.2077839076519 0.89138996601105
vn 0.57020854949951 0.25483801960945 0.78097361326218
vn 0.79396492242813 0.30886173248291 0.52366411685944
vn 0.39929986000061 -0.655408680439 0.64109206199646
vn -0.79396450519562 -0.308903247118 -0.52364033460617
vn -0.58462488651276 -0.25868079066277 -0.76895904541016
vn -0.03924902901053 -0.09421085566282 -0.99477827548981
vn 0.24008412659168 0.00141616852488 -0.9707510471344
vn 0.23608085513115 0 -0.97173339128494
vn 0.92148780822754 0.24479822814465 0.30155268311501
vn 0.05366962775588 0.063078597188 -0.99656444787979
vn -0.16196663677692 0.13387717306614 -0.9776725769043
vn 0.81572109460831 0.11713444441557 0.56646150350571
vn -0.60731559991837 0.26471987366676 -0.74906021356583
vn -0.79394024610519 0.30899253487587 -0.52362436056137
vn -0.59045243263245 -0.76037269830704 0.27055364847183
vn -0.41939350962639 -0.82725632190704 0.37383958697319
vn 0.425876557827 -0.79126358032227 0.43878370523453
vn -0.23222760856152 -0.85724240541458 0.4595713019371
vn -0.88315057754517 -0.26458922028542 0.38734692335129
vn -0.94570714235306 -0.30893298983574 0.10098695755005
vn 0.90785032510757 -0.10413808375597 0.40615648031235
vn -0.57138538360596 0.65091985464096 -0.49982205033302
vn -0.21959021687508 0.8875669836998 -0.40497523546219
vn -0.41661038994789 0.77506250143051 -0.47509354352951
vn -0.59285360574722 -0.13404053449631 0.79407662153244
vn 0.14756216108799 -0.12934777140617 0.98055827617645
vn 0.0119033427909 -0.08514766395092 0.99629724025726
vn 0.5616347193718 -0.2524821460247 0.78792077302933
vn 0.7834660410881 -0.30670160055161 0.54047673940659
vn -0.02655313163996 0.94414293766022 -0.32846468687057
vn 0.5113964676857 0.85369044542313 -0.09841889888048
vn 0.69939893484116 0.71451342105865 0.01765468344092
vn 0.29419255256653 0.93343508243561 -0.20530392229557
vn 0.19551667571068 0.95928514003754 -0.20382642745972
vn -0.41114822030067 -0.06369140744209 0.90934073925018
vn 0.87235391139984 -0.25868192315102 -0.41482809185982
vn 0.94411337375641 -0.30670160055161 -0.12076453864574
vn -0.91366100311279 -0.33077785372734 -0.23624062538147
vn -0.89621275663376 -0.39495438337326 -0.20202405750751
vn -0.85835325717926 -0.49241974949837 -0.14405705034733
vn 0.566585958004 -0.12358716130257 -0.81468188762665
vn 0.59144949913025 0.13351678848267 -0.7952111363411
vn 0.40475130081177 0.06136731058359 -0.91236531734467
vn 0.88380855321884 0.26492762565613 -0.38561087846756
vn 0.94572812318802 0.30886173248291 -0.10100889950991
vn -0.09665712714195 -0.93763303756714 0.33391863107681
vn -0.84755671024323 -0.51408952474594 -0.1317557990551
vn 0.61077111959457 -0.58922004699707 0.52894079685211
vn 0.75815623998642 -0.40426856279373 0.51163077354431
vn 0.86459654569626 -0.19205640256405 0.46431365609169
vn 0.38512587547302 -0.05407631769776 -0.9212783575058
vn -0.93333697319031 -0.18035964667797 -0.31040692329407
vn -0.22592757642269 0.92169719934464 -0.31532675027847
vn 0.18629959225655 0.92717498540878 -0.32502153515816
vn 0.00734303286299 0.93725317716599 -0.34857219457626
vn 0.38385584950447 0.87016433477402 -0.30898016691208
vn 0.51963984966278 0.81778699159622 -0.2473840713501
vn -0.87799906730652 -0.45904010534286 -0.13564582169056
vn 0.57686805725098 0.25662449002266 0.77547866106033
vn 0.79397255182266 0.30889466404915 0.52363312244415
vn 0.29902216792107 0.17669929563999 0.9377436041832
vn 0.16193896532059 -0.13387875258923 0.97767698764801
vn -0.05369940772653 -0.06307894736528 0.99656277894974
vn -0.87227135896683 0.08157195150852 -0.48217079043388
vn 0.60730522871017 -0.26469570398331 0.74907714128494
vn 0.79394835233688 -0.3089627623558 0.52362966537476
vn -0.4419332742691 0.70616543292999 -0.55319559574127
vn 0.9482039809227 0.31752243638039 -0.0094205820933
vn -0.16193826496601 -0.13391050696373 -0.97767275571823
vn 0.05369929596782 -0.06311102956533 -0.99656075239182
vn -0.60730731487274 -0.26465409994125 -0.7490901350975
vn -0.79397255182266 -0.30889466404915 -0.52363312244415
vn 0.39846384525299 0.80163508653641 0.44565430283546
vn -0.1199386715889 0.73317664861679 0.66937786340714
vn 0.13368813693523 0.78321808576584 0.60720413923264
vn -0.47597968578339 0.75369548797607 0.45319584012032
vn -0.61291414499283 0.76770865917206 0.1869749724865
vn 0.87738877534866 -0.26157569885254 -0.40220278501511
vn 0.94567441940308 -0.30903086066246 -0.10099399089813
vn 0.57018202543259 -0.12498708814383 -0.81195485591888
vn -0.29733046889305 0.67257612943649 0.67766946554184
vn 0.4875516295433 0.62221282720566 0.61249053478241
vn -0.3731672167778 0.60666823387146 0.70192581415176
vn -0.58332180976868 0.4857502579689 0.65098571777344
vn 0.3865142762661 -0.05436769127846 -0.92067956924438
vn -0.8833070397377 -0.26468944549561 0.38692140579224
vn -0.59248107671738 -0.13390891253948 0.79437685012817
vn -0.55924677848816 0.12069091945887 0.8201687335968
vn -0.35495173931122 0.04292220622301 0.93389880657196
vn -0.87884366512299 0.26219037175179 0.39861005544662
vn -0.94572812318802 0.30886173248291 0.10100889950991
vn 0.62104594707489 0.59503883123398 -0.51012814044952
vn 0.47977855801582 0.50997251272202 -0.71396118402481
vn 0.69442313909531 0.68929606676102 -0.20651249587536
vn 0.91602450609207 0.39184188842773 0.08578495681286
vn 0.8982030749321 0.43547052145004 -0.05997183546424
vn 0.85969430208206 0.46867036819458 -0.20315964519978
vn 0.35072040557861 -0.04426821693778 0.9354333281517
vn 0.30848488211632 0.35296642780304 -0.88331860303879
vn -0.40955102443695 -0.06311067938805 0.91010165214539
vn 0.1186303421855 0.24937830865383 -0.96111255884171
vn 0.87740194797516 0.1711193472147 0.44820082187653
vn -0.74517631530762 -0.59816372394562 0.29480901360512
vn -0.85479110479355 -0.15711262822151 -0.49461880326271
vn 0.62711805105209 -0.11831753700972 0.76988559961319
vn 0.70151549577713 -0.01671851240098 0.71245807409286
vn 0.63765186071396 -0.10748175531626 0.76278948783875
vn 0.73025059700012 0.0299475248903 0.68252271413803
vn 0.81006127595901 0.18862120807171 0.55517810583115
vn -0.60838651657104 0.26493254303932 -0.74811536073685
vn -0.79397255182266 0.30889466404915 -0.52363312244415
vn -0.16066652536392 0.13351678848267 -0.97793638706207
vn -0.12966918945312 -0.12358582019806 -0.98382538557053
vn 0.08055993169546 -0.05404471606016 -0.99528348445892
vn -0.58481979370117 -0.25868093967438 -0.76881074905396
vn -0.7834660410881 -0.30670160055161 -0.54047673940659
vn 0.05897285416722 0.0613673068583 -0.9963715672493
vn 0.54050850868225 0.78395020961761 -0.30540564656258
vn -0.15764833986759 0.66274929046631 -0.73205900192261
vn -0.86972975730896 -0.06650828570127 -0.48902636766434
vn 0.51167303323746 0.74728238582611 -0.42398077249527
vn 0.73307603597641 0.64470273256302 -0.21669769287109
vn 0.24349273741245 0.7735179066658 -0.58513361215591
vn -0.6959325671196 0.44696027040482 -0.56205368041992
vn -0.86056339740753 -0.25251719355583 0.44234117865562
vn -0.94411337375641 -0.30670160055161 0.12076453864574
vn -0.58090078830719 -0.12931446731091 0.80363672971725
vn 0.1623949855566 -0.13403828442097 0.97757947444916
vn -0.05193090066314 -0.06372384727001 0.99661546945572
vn 0.6069678068161 -0.26458430290222 0.74938994646072
vn 0.79396450519562 -0.308903247118 0.52364033460617
vn -0.46736580133438 -0.08501956611872 0.87996637821198
vn -0.92548286914825 -0.10578121989965 0.3637193441391
vn -0.72844070196152 -0.07737401872873 0.68072563409805
vn -0.9928719997406 -0.07388087362051 0.09352411329746
vn -0.60458648204803 -0.05660317093134 0.79452580213547
vn -0.50095003843307 -0.03178163990378 0.86489248275757
vn -0.62725055217743 -0.08945016562939 0.77366364002228
vn -0.64052951335907 -0.09644728899002 0.76185292005539
vn -0.8989309668541 -0.39494636654854 0.18957968056202
vn 0.88347220420837 -0.26479455828667 -0.38647210597992
vn 0.94570714235306 -0.30893298983574 -0.10098695755005
vn 0.5921630859375 -0.13377793133259 -0.79463595151901
vn 0.5863773226738 0.13149605691433 -0.79929369688034
vn 0.43444269895554 0.07250864803791 -0.89777618646622
vn 0.8749515414238 0.26009872555733 -0.40842196345329
vn 0.94573241472244 0.30886808037758 -0.1009488850832
vn 0.40798053145409 -0.06249731779099 -0.91084903478622
# 163 normals

vt 0.49995157122612 0.00212597846985 0
vt 0.5 0 0
vt 0.5 0.00239622592926 0
vt 0.49946200847626 0.00165581703186 0
vt 0.2547627389431 0.75476276874542 0
vt 0.25495859980583 0.75495862960815 0
vt 0.49977412819862 0.00184786319733 0
vt 0.25515449047089 0.75515449047089 0
vt 0.50004839897156 0.00212597846985 0
vt 0.50022584199905 0.00184786319733 0
vt 0.25535038113594 0.75535035133362 0
vt 0.5 1 0
vt 0.74464964866638 0.75535035133362 0
vt 0.50053799152374 0.00165581703186 0
vt 0.74484550952911 0.75515449047089 0
vt 0.74504137039185 0.75495862960815 0
vt 0.74523729085922 0.75476276874542 0
vt 0.72123175859451 0.68088132143021 0
vt 0.7209849357605 0.68092042207718 0
vt 0.72073811292648 0.68095946311951 0
vt 0.72049129009247 0.68099856376648 0
vt 0.2555835545063 0.75463271141052 0
vt 0.25530993938446 0.75467610359192 0
vt 0.25503632426262 0.75471937656403 0
vt 0.72100907564163 0.68099474906921 0
vt 0.19191606342793 0.95058107376099 0
vt 0.72056376934052 0.68122166395187 0
vt 0.72078639268875 0.68110823631287 0
vt 0.19167397916317 0.95066893100739 0
vt 0.19139903783798 0.95069444179535 0
vt 0.19111704826355 0.95064401626587 0
vt 0.74496364593506 0.75471937656403 0
vt 0.74469006061554 0.75467610359192 0
vt 0.27926191687584 0.68095946311951 0
vt 0.27950873970985 0.68099856376648 0
vt 0.27901509404182 0.68092042207718 0
vt 0.27876827120781 0.68088132143021 0
vt 0.74441647529602 0.75463271141052 0
vt 0.27899092435837 0.68099474906921 0
vt 0.27921357750893 0.68110823631287 0
vt 0.80832600593567 0.95066893100739 0
vt 0.80808395147324 0.95058107376099 0
vt 0.27943626046181 0.68122166395187 0
vt 0.80860096216202 0.95069444179535 0
vt 0.80888295173645 0.95064401626587 0
# 45 texture coordinates

o Decagon_web
usemtl Mat
f 7/1/1 15/2/2 17/3/3
f 3/4/4 2/5/4 11/6/5 6/7/5
f 6/7/5 11/6/5 14/8/6 7/1/6
f 8/9/7 15/2/7 4/10/7
f 17/3/8 15/2/8 8/9/8
f 13/11/9 1/12/9 17/3/9
f 1/12/9 16/13/9 17/3/9
f 7/1/6 14/8/6 13/11/10 17/3/10
f 4/10/11 15/2/11 5/14/11
f 6/7/12 15/2/2 7/1/1
f 3/4/13 15/2/2 6/7/12
f 17/3/14 16/13/14 12/15/15 8/9/15
f 8/9/15 12/15/15 10/16/16 4/10/16
f 4/10/16 10/16/16 9/17/17 5/14/17
f 26/10/18 15/2/18 21/9/18
f 20/14/19 27/18/19 29/19/20 26/10/20
f 26/10/20 29/19/20 18/20/21 21/9/21
f 21/9/21 18/20/21 25/21/22 23/3/22
f 25/21/23 22/22/23 23/3/23
f 21/9/24 15/2/24 23/3/24
f 23/3/25 22/22/25 28/23/26 24/1/26
f 20/14/27 15/2/27 26/10/27
f 24/1/26 28/23/26 30/24/28 19/7/28
f 19/7/28 30/24/28 2/5/29 3/4/29
f 23/3/30 15/2/31 24/1/31
f 19/7/32 15/2/32 3/4/32
f 24/1/31 15/2/31 19/7/33
f 33/10/34 41/25/34 27/18/35 20/14/35
f 36/1/36 15/2/36 42/3/36
f 42/3/37 15/2/38 35/9/39
f 43/26/9 39/27/9 42/3/9
f 35/9/40 32/28/40 41/25/34 33/10/34
f 36/1/41 38/29/41 43/26/42 42/3/42
f 40/7/43 31/30/43 38/29/41 36/1/41
f 34/4/44 37/31/44 31/30/43 40/7/43
f 35/9/39 15/2/38 33/10/45
f 40/7/46 15/2/46 36/1/47
f 34/4/48 15/2/46 40/7/46
f 33/10/45 15/2/38 20/14/49
f 42/3/50 39/27/50 32/28/40 35/9/40
f 47/7/51 51/30/51 37/31/52 34/4/52
f 46/1/53 15/2/54 47/7/55
f 54/27/23 52/26/23 53/3/23
f 46/1/56 49/29/56 51/30/51 47/7/51
f 45/9/57 56/28/57 54/27/58 53/3/58
f 44/10/59 55/25/59 56/28/57 45/9/57
f 48/14/60 50/18/60 55/25/59 44/10/59
f 48/14/61 15/2/61 44/10/61
f 47/7/55 15/2/54 34/4/62
f 44/10/63 15/2/64 45/9/64
f 45/9/64 15/2/64 53/3/65
f 53/3/66 52/26/66 49/29/56 46/1/56
f 53/3/67 15/2/54 46/1/53
f 65/4/68 15/2/69 64/7/70
f 69/22/9 67/21/9 68/3/9
f 64/7/70 15/2/69 60/1/71
f 60/1/71 15/2/69 68/3/72
f 68/3/73 15/2/73 59/9/73
f 58/10/74 57/19/74 50/18/75 48/14/75
f 59/9/76 66/20/76 57/19/74 58/10/74
f 60/1/77 61/23/77 69/22/78 68/3/78
f 58/10/79 15/2/79 48/14/79
f 64/7/80 62/24/80 61/23/77 60/1/77
f 65/4/81 63/5/81 62/24/80 64/7/80
f 59/9/82 15/2/82 58/10/82
f 68/3/83 67/21/83 66/20/83 59/9/83
f 80/9/84 76/15/84 74/13/85 72/3/85
f 79/10/86 75/16/86 76/15/84 80/9/84
f 77/14/87 70/17/87 75/16/86 79/10/86
f 77/14/88 15/2/89 79/10/90
f 81/7/91 15/2/91 65/4/92
f 81/7/93 78/6/93 63/5/94 65/4/94
f 82/1/95 83/8/95 78/6/93 81/7/93
f 82/1/96 15/2/91 81/7/91
f 72/3/97 15/2/97 82/1/97
f 79/10/90 15/2/89 80/9/98
f 80/9/98 15/2/89 72/3/99
f 74/13/23 71/12/23 72/3/23
f 71/12/23 73/11/23 72/3/23
f 72/3/100 73/11/100 83/8/95 82/1/95
f 94/10/101 84/32/101 70/17/35 77/14/35
f 92/9/102 96/33/102 84/32/101 94/10/101
f 91/1/103 93/34/103 88/35/104 89/3/104
f 87/7/105 95/36/105 93/34/103 91/1/103
f 86/4/106 85/37/106 95/36/105 87/7/105
f 94/10/107 15/2/108 77/14/109
f 86/4/110 15/2/111 87/7/111
f 87/7/111 15/2/111 91/1/112
f 91/1/113 15/2/113 89/3/113
f 92/9/114 15/2/108 94/10/107
f 88/35/9 90/38/9 89/3/9
f 89/3/115 90/38/115 96/33/102 92/9/102
f 89/3/116 15/2/108 92/9/114
f 108/7/117 15/2/117 86/4/117
f 107/1/118 15/2/118 108/7/118
f 105/3/119 15/2/119 107/1/119
f 103/9/120 15/2/121 105/3/122
f 102/10/123 15/2/121 103/9/120
f 101/14/124 15/2/121 102/10/123
f 108/7/125 100/39/125 85/37/126 86/4/126
f 107/1/127 109/40/127 100/39/125 108/7/125
f 103/9/128 97/41/128 104/42/129 105/3/129
f 104/42/23 106/43/23 105/3/23
f 102/10/130 98/44/130 97/41/128 103/9/128
f 101/14/131 99/45/131 98/44/130 102/10/130
f 105/3/132 106/43/132 109/40/127 107/1/127
f 118/10/133 15/2/133 101/14/133
f 117/9/134 15/2/134 118/10/134
f 120/3/135 15/2/135 117/9/135
f 116/1/136 15/2/136 120/3/137
f 115/7/138 15/2/136 116/1/136
f 114/4/139 15/2/139 115/7/139
f 118/10/140 113/44/140 99/45/141 101/14/141
f 117/9/142 122/41/142 113/44/140 118/10/140
f 119/43/9 121/42/9 120/3/9
f 116/1/143 110/40/143 119/43/144 120/3/144
f 115/7/145 111/39/145 110/40/143 116/1/143
f 114/4/146 112/37/146 111/39/145 115/7/145
f 120/3/147 121/42/147 122/41/142 117/9/142
f 129/7/148 15/2/149 114/4/150
f 128/1/151 15/2/149 129/7/148
f 133/3/152 15/2/149 128/1/151
f 127/9/153 15/2/149 133/3/152
f 126/10/154 15/2/149 127/9/153
f 5/14/155 15/2/155 126/10/155
f 129/7/156 125/36/156 112/37/157 114/4/157
f 132/38/23 131/35/23 133/3/23
f 128/1/158 130/34/158 125/36/156 129/7/156
f 127/9/159 123/33/159 132/38/160 133/3/160
f 126/10/161 124/32/161 123/33/159 127/9/159
f 5/14/162 9/17/162 124/32/161 126/10/161
f 133/3/163 131/35/163 130/34/158 128/1/158

