# WaveFront *.obj file (generated by CINEMA 4D)

mtllib ./DecagonShape_11.mtl

v -0.00684844236821 0.00252460828051 -0.01454283390194
v -0.00474348338321 0.00126946473029 -0.01463166996837
v -0.00001040604093 0.00425450643525 -0.01483142003417
v -0.00001304703437 0.00425940845162 -0.01483130920678
v -0.0000122727788 0.00426188157871 -0.01483134180307
v -0.00001226333916 0.00425631226972 -0.01483134180307
v -0.00001447556042 0.00425704568624 -0.01483124867082
v -0.00001464356137 0.00425770971924 -0.01483124122024
v -0.00559441559017 0.00463144155219 -0.01459575723857
v -0.0055954172276 0.00462975911796 -0.01459571532905
v -0.00474516442046 0.00127046753187 -0.01463159918785
v -0.00559641886503 0.00462807621807 -0.01459567341954
v -0.00474852696061 0.00127247243654 -0.0146314566955
v -0.0047468454577 0.0012714699842 -0.01463152747601
v 0 0.00426106946543 -0.01483185961843
v -0.00559742050245 0.00462639331818 -0.0145956305787
v -0.00001641054769 0.00425690831617 -0.01483116671443
v -0.00188006134704 -0.00043793389341 -0.01475251559168
v -0.00000958004875 0.00425205007195 -0.01483145542443
v -0.00000456454973 0.00424963794649 -0.01483166683465
v -0.00000934810123 0.00424929801375 -0.01483146473765
v -0.00473843934014 0.00126645748969 -0.01463188230991
v -0.00001083282132 0.00424804864451 -0.01483140233904
v -0.00000987381918 0.00424973620102 -0.01483144331723
v -0.00188157812227 -0.00043702937546 -0.01475245133042
v -0.00000712766587 0.00425000628456 -0.01483155880123
v -0.00187702779658 -0.00043974260916 -0.01475264318287
v -0.00474012037739 0.00126745994203 -0.0146318115294
v -0.00187854457181 -0.00043883806211 -0.01475257892162
v -0.0047418018803 0.00126846227795 -0.01463174074888
v 0.00173215242103 -0.00259072054178 -0.01490496192127
v -0.00187399424613 -0.00044155129581 -0.01475277077407
v -0.00000245380897 0.0042481366545 -0.01483175624162
v 0.00000302044441 0.00424913549796 -0.01483198720962
v -0.00000133261335 0.00424609193578 -0.01483180373907
v -0.000000649985 0.00424604676664 -0.01483183261007
v 0.00173416396137 -0.0025904965587 -0.01490504667163
v 0.00173022621311 -0.002590412274 -0.01490488089621
v -0.00187247758731 -0.00044245584286 -0.01475283503532
v 0.00000073053269 0.00424792570993 -0.01483189035207
v -0.00187551113777 -0.00044064712711 -0.01475270744413
v -0.0000011173247 0.00424416223541 -0.01483181212097
v 0.00172856089193 -0.0025896797888 -0.0149048101157
v 0.00000830969293 0.0042508658953 -0.01483221072704
v 0.00000829640339 0.00424853339791 -0.01483220979571
v 0.00000771760551 0.00424816831946 -0.01483218558133
v 0.00000560970193 0.00424916297197 -0.01483209617436
v 0.00000945173178 0.00425319187343 -0.01483225822449
v 0.00173758692108 -0.00258854590356 -0.01490519102663
v 0.00388672808185 0.00102168996818 -0.01499589160085
v 0.00173603929579 -0.00258973496966 -0.01490512583405
v 0.00173870287836 -0.00258710794151 -0.01490523852408
v 0.0000090249514 0.0042467340827 -0.01483224052936
v 0.00388401723467 0.00101713568438 -0.01499577704817
v 0.00388582469895 0.00102017179597 -0.01499585341662
v 0.0038849208504 0.00101865374018 -0.0149958152324
v 0.00388763169758 0.00102320802398 -0.01499592978507
v 0.00001153049652 0.00425473693758 -0.01483234670013
v 0.00001381996117 0.00425517233089 -0.01483244262636
v 0.00001407384752 0.0042558084242 -0.01483245380223
v 0.00559241231531 0.00388733111322 -0.01506787724793
v 0.00559341348708 0.00388901401311 -0.01506791915745
v 0.00559441559017 0.003890696913 -0.01506796199828
v 0.00001271483234 0.00425770319998 -0.01483239606023
v 0.0000122727788 0.00426025688648 -0.01483237743378
v 0.00388853554614 0.00102472607978 -0.0149959679693
v 0.00388943892904 0.00102624425199 -0.01499600615352
v 0.00001572000292 0.0042547811754 -0.0148325227201
v 0.00559141067788 0.00388564821333 -0.01506783440709
v 0.00474348338321 0.0072526736185 -0.01503204926848
v 0.00684844236821 0.00599753018469 -0.01512088533491
v 0.00001641054769 0.00426523014903 -0.01483255252242
v 0.00559742050245 0.00389574514702 -0.01506808865815
v 0.00474852696061 0.0072496663779 -0.01503226254135
v 0.00474516442046 0.00725167104974 -0.01503212098032
v 0.0047468454577 0.00725066848099 -0.01503219176084
v 0.00001040604093 0.00426763202995 -0.01483229920268
v 0.0055954172276 0.00389237958007 -0.0150680039078
v 0.00001226333916 0.00426582619548 -0.01483237743378
v 0.00001447556042 0.00426509277895 -0.01483247056603
v 0.00001304703437 0.00426273001358 -0.01483241003007
v 0.00001464356137 0.00426442921162 -0.01483247801661
v 0.00559641886503 0.00389406247996 -0.01506804581732
v 0.0047418018803 0.00725367618725 -0.01503197848797
v 0.00187702779658 0.00896188151091 -0.01491107605398
v 0.00000456454973 0.00427250051871 -0.0148320524022
v 0.00000712766587 0.00427213218063 -0.01483216043562
v 0.00188157812227 0.00895916763693 -0.01491126790643
v 0.00001083282132 0.00427409028634 -0.01483231689781
v 0.00473843934014 0.00725568132475 -0.01503183692694
v 0.00000934810123 0.00427284045145 -0.0148322544992
v 0.00000987381918 0.00427240226418 -0.01483227591962
v 0.00188006134704 0.00896007288247 -0.01491120457649
v 0.00000958004875 0.00427008839324 -0.01483226381242
v 0.00187854457181 0.00896097626537 -0.01491114031523
v 0.00474012037739 0.007254678756 -0.01503190770745
v -0.00173022621311 0.01111255120486 -0.01475883834064
v -0.00173215242103 0.01111285947263 -0.01475875731558
v -0.00173416396137 0.01111263502389 -0.01475867256522
v 0.00187551113777 0.00896278582513 -0.01491101179272
v -0.00000302044441 0.00427300296724 -0.01483173202723
v -0.00000073053269 0.00427421275526 -0.01483182888478
v 0.000000649985 0.00427609216422 -0.0148318875581
v -0.00172856089193 0.01111181825399 -0.01475890912116
v 0.0000011173247 0.00427797622979 -0.01483190711588
v 0.00187247758731 0.00896459445357 -0.01491088420153
v 0.00000133261335 0.00427604699507 -0.01483191549778
v 0.00000245380897 0.0042740018107 -0.01483196299523
v 0.00187399424613 0.00896369013935 -0.01491094846278
v -0.0038849208504 0.00750348484144 -0.01466790400445
v -0.00388582469895 0.00750196678564 -0.01466786582023
v -0.00388672808185 0.00750044872984 -0.014667827636
v -0.00173603929579 0.01111187320203 -0.0147585934028
v -0.00000945173178 0.00426894659176 -0.01483146101236
v -0.00000830969293 0.00427127303556 -0.01483150850981
v -0.00000829640339 0.00427360506728 -0.01483150944114
v -0.00000771760551 0.00427397014573 -0.01483153365552
v -0.00000560970193 0.00427297549322 -0.01483162306249
v -0.00388401723467 0.00750500289723 -0.01466794218868
v -0.0000090249514 0.00427540484816 -0.01483147870749
v -0.00173870287836 0.01110924687237 -0.01475848071277
v -0.00173758692108 0.01111068483442 -0.01475852821022
v -0.00559241231531 0.00463480735198 -0.01459584198892
v -0.00559341348708 0.00463312445208 -0.01459580007941
v -0.00388763169758 0.00749893067405 -0.01466778945178
v -0.00001271483234 0.00426443526521 -0.01483132317662
v -0.00001407384752 0.00426633004099 -0.01483126543462
v -0.00001381996117 0.00426696613431 -0.01483127661049
v -0.00001153049652 0.00426740152761 -0.01483137346804
v -0.00388853554614 0.00749741261825 -0.01466775126755
v -0.00388943892904 0.00749589409679 -0.01466771308333
v -0.00559141067788 0.00463649025187 -0.01459588482976
v -0.00001572000292 0.00426735728979 -0.01483119651675
# 133 vertices

vn 0.04216561838984 0 0.99911063909531
vn -0.04216561838984 0 -0.99911063909531
# 2 normals

vt 0.49995157122612 0.00212597846985 0
vt 0.5 0 0
vt 0.5 0.00239622592926 0
vt 0.49946200847626 0.00165581703186 0
vt 0.2547627389431 0.75476276874542 0
vt 0.25495859980583 0.75495862960815 0
vt 0.49977412819862 0.00184786319733 0
vt 0.25515449047089 0.75515449047089 0
vt 0.50004839897156 0.00212597846985 0
vt 0.50022584199905 0.00184786319733 0
vt 0.25535038113594 0.75535035133362 0
vt 0.5 1 0
vt 0.74464964866638 0.75535035133362 0
vt 0.50053799152374 0.00165581703186 0
vt 0.74484550952911 0.75515449047089 0
vt 0.74504137039185 0.75495862960815 0
vt 0.74523729085922 0.75476276874542 0
vt 0.72123175859451 0.68088132143021 0
vt 0.7209849357605 0.68092042207718 0
vt 0.72073811292648 0.68095946311951 0
vt 0.72049129009247 0.68099856376648 0
vt 0.2555835545063 0.75463271141052 0
vt 0.25530993938446 0.75467610359192 0
vt 0.25503632426262 0.75471937656403 0
vt 0.72100907564163 0.68099474906921 0
vt 0.19191606342793 0.95058107376099 0
vt 0.72056376934052 0.68122166395187 0
vt 0.72078639268875 0.68110823631287 0
vt 0.19167397916317 0.95066893100739 0
vt 0.19139903783798 0.95069444179535 0
vt 0.19111704826355 0.95064401626587 0
vt 0.74496364593506 0.75471937656403 0
vt 0.74469006061554 0.75467610359192 0
vt 0.27926191687584 0.68095946311951 0
vt 0.27950873970985 0.68099856376648 0
vt 0.27901509404182 0.68092042207718 0
vt 0.27876827120781 0.68088132143021 0
vt 0.74441647529602 0.75463271141052 0
vt 0.27899092435837 0.68099474906921 0
vt 0.27921357750893 0.68110823631287 0
vt 0.80832600593567 0.95066893100739 0
vt 0.80808395147324 0.95058107376099 0
vt 0.27943626046181 0.68122166395187 0
vt 0.80860096216202 0.95069444179535 0
vt 0.80888295173645 0.95064401626587 0
# 45 texture coordinates

o Decagon_web
usemtl Mat
f 7/1/1 15/2/1 17/3/1
f 3/4/2 2/5/2 11/6/2 6/7/2
f 6/7/2 11/6/2 14/8/2 7/1/2
f 8/9/1 15/2/1 4/10/1
f 17/3/1 15/2/1 8/9/1
f 13/11/2 1/12/2 17/3/2
f 1/12/2 16/13/2 17/3/2
f 7/1/2 14/8/2 13/11/2 17/3/2
f 4/10/1 15/2/1 5/14/1
f 6/7/1 15/2/1 7/1/1
f 3/4/1 15/2/1 6/7/1
f 17/3/2 16/13/2 12/15/2 8/9/2
f 8/9/2 12/15/2 10/16/2 4/10/2
f 4/10/2 10/16/2 9/17/2 5/14/2
f 26/10/1 15/2/1 21/9/1
f 20/14/2 27/18/2 29/19/2 26/10/2
f 26/10/2 29/19/2 18/20/2 21/9/2
f 21/9/2 18/20/2 25/21/2 23/3/2
f 25/21/2 22/22/2 23/3/2
f 21/9/1 15/2/1 23/3/1
f 23/3/2 22/22/2 28/23/2 24/1/2
f 20/14/1 15/2/1 26/10/1
f 24/1/2 28/23/2 30/24/2 19/7/2
f 19/7/2 30/24/2 2/5/2 3/4/2
f 23/3/1 15/2/1 24/1/1
f 19/7/1 15/2/1 3/4/1
f 24/1/1 15/2/1 19/7/1
f 33/10/2 41/25/2 27/18/2 20/14/2
f 36/1/1 15/2/1 42/3/1
f 42/3/1 15/2/1 35/9/1
f 43/26/2 39/27/2 42/3/2
f 35/9/2 32/28/2 41/25/2 33/10/2
f 36/1/2 38/29/2 43/26/2 42/3/2
f 40/7/2 31/30/2 38/29/2 36/1/2
f 34/4/2 37/31/2 31/30/2 40/7/2
f 35/9/1 15/2/1 33/10/1
f 40/7/1 15/2/1 36/1/1
f 34/4/1 15/2/1 40/7/1
f 33/10/1 15/2/1 20/14/1
f 42/3/2 39/27/2 32/28/2 35/9/2
f 47/7/2 51/30/2 37/31/2 34/4/2
f 46/1/1 15/2/1 47/7/1
f 54/27/2 52/26/2 53/3/2
f 46/1/2 49/29/2 51/30/2 47/7/2
f 45/9/2 56/28/2 54/27/2 53/3/2
f 44/10/2 55/25/2 56/28/2 45/9/2
f 48/14/2 50/18/2 55/25/2 44/10/2
f 48/14/1 15/2/1 44/10/1
f 47/7/1 15/2/1 34/4/1
f 44/10/1 15/2/1 45/9/1
f 45/9/1 15/2/1 53/3/1
f 53/3/2 52/26/2 49/29/2 46/1/2
f 53/3/1 15/2/1 46/1/1
f 65/4/1 15/2/1 64/7/1
f 69/22/2 67/21/2 68/3/2
f 64/7/1 15/2/1 60/1/1
f 60/1/1 15/2/1 68/3/1
f 68/3/1 15/2/1 59/9/1
f 58/10/2 57/19/2 50/18/2 48/14/2
f 59/9/2 66/20/2 57/19/2 58/10/2
f 60/1/2 61/23/2 69/22/2 68/3/2
f 58/10/1 15/2/1 48/14/1
f 64/7/2 62/24/2 61/23/2 60/1/2
f 65/4/2 63/5/2 62/24/2 64/7/2
f 59/9/1 15/2/1 58/10/1
f 68/3/2 67/21/2 66/20/2 59/9/2
f 80/9/2 76/15/2 74/13/2 72/3/2
f 79/10/2 75/16/2 76/15/2 80/9/2
f 77/14/2 70/17/2 75/16/2 79/10/2
f 77/14/1 15/2/1 79/10/1
f 81/7/1 15/2/1 65/4/1
f 81/7/2 78/6/2 63/5/2 65/4/2
f 82/1/2 83/8/2 78/6/2 81/7/2
f 82/1/1 15/2/1 81/7/1
f 72/3/1 15/2/1 82/1/1
f 79/10/1 15/2/1 80/9/1
f 80/9/1 15/2/1 72/3/1
f 74/13/2 71/12/2 72/3/2
f 71/12/2 73/11/2 72/3/2
f 72/3/2 73/11/2 83/8/2 82/1/2
f 94/10/2 84/32/2 70/17/2 77/14/2
f 92/9/2 96/33/2 84/32/2 94/10/2
f 91/1/2 93/34/2 88/35/2 89/3/2
f 87/7/2 95/36/2 93/34/2 91/1/2
f 86/4/2 85/37/2 95/36/2 87/7/2
f 94/10/1 15/2/1 77/14/1
f 86/4/1 15/2/1 87/7/1
f 87/7/1 15/2/1 91/1/1
f 91/1/1 15/2/1 89/3/1
f 92/9/1 15/2/1 94/10/1
f 88/35/2 90/38/2 89/3/2
f 89/3/2 90/38/2 96/33/2 92/9/2
f 89/3/1 15/2/1 92/9/1
f 108/7/1 15/2/1 86/4/1
f 107/1/1 15/2/1 108/7/1
f 105/3/1 15/2/1 107/1/1
f 103/9/1 15/2/1 105/3/1
f 102/10/1 15/2/1 103/9/1
f 101/14/1 15/2/1 102/10/1
f 108/7/2 100/39/2 85/37/2 86/4/2
f 107/1/2 109/40/2 100/39/2 108/7/2
f 103/9/2 97/41/2 104/42/2 105/3/2
f 104/42/2 106/43/2 105/3/2
f 102/10/2 98/44/2 97/41/2 103/9/2
f 101/14/2 99/45/2 98/44/2 102/10/2
f 105/3/2 106/43/2 109/40/2 107/1/2
f 118/10/1 15/2/1 101/14/1
f 117/9/1 15/2/1 118/10/1
f 120/3/1 15/2/1 117/9/1
f 116/1/1 15/2/1 120/3/1
f 115/7/1 15/2/1 116/1/1
f 114/4/1 15/2/1 115/7/1
f 118/10/2 113/44/2 99/45/2 101/14/2
f 117/9/2 122/41/2 113/44/2 118/10/2
f 119/43/2 121/42/2 120/3/2
f 116/1/2 110/40/2 119/43/2 120/3/2
f 115/7/2 111/39/2 110/40/2 116/1/2
f 114/4/2 112/37/2 111/39/2 115/7/2
f 120/3/2 121/42/2 122/41/2 117/9/2
f 129/7/1 15/2/1 114/4/1
f 128/1/1 15/2/1 129/7/1
f 133/3/1 15/2/1 128/1/1
f 127/9/1 15/2/1 133/3/1
f 126/10/1 15/2/1 127/9/1
f 5/14/1 15/2/1 126/10/1
f 129/7/2 125/36/2 112/37/2 114/4/2
f 132/38/2 131/35/2 133/3/2
f 128/1/2 130/34/2 125/36/2 129/7/2
f 127/9/2 123/33/2 132/38/2 133/3/2
f 126/10/2 124/32/2 123/33/2 127/9/2
f 5/14/2 9/17/2 124/32/2 126/10/2
f 133/3/2 131/35/2 130/34/2 128/1/2

