# WaveFront *.obj file (generated by CINEMA 4D)

mtllib ./DecagonShape_3.mtl

v -0.00610901555046 0.01630463823676 -0.01498455461115
v -0.00548411626369 0.0139332190156 -0.01498550362885
v -0.00001203080865 0.01274637132883 -0.01499381382018
v -0.00001048454578 0.01275172177702 -0.01499381568283
v -0.00000819937668 0.01275294460356 -0.01499381940812
v -0.00001209306265 0.01274896226823 -0.01499381288886
v -0.0000131599727 0.01275103632361 -0.01499381195754
v -0.00001281515415 0.01275162771344 -0.01499381195754
v -0.00373759865761 0.01692953892052 -0.01498815603554
v -0.00373949273489 0.01692903973162 -0.01498815324157
v -0.00548461498693 0.01393511332572 -0.01498550269753
v -0.00374138681218 0.01692854054272 -0.01498815044761
v -0.00548561336473 0.01393890101463 -0.0149855017662
v -0.00548511417583 0.01393700763583 -0.0149855017662
v 0 0.01274376176298 -0.01499383151531
v -0.0037432811223 0.01692804135382 -0.01498814765364
v -0.00001463869921 0.01275229454041 -0.01499380916357
v -0.00463405158371 0.01070732530206 -0.01498679444194
v -0.0000131608831 0.0127440392971 -0.01499381195754
v -0.00001126688039 0.01273880153894 -0.01499381475151
v -0.00001492249339 0.01274191215634 -0.01499380916357
v -0.00548261823133 0.01392753701657 -0.0149855054915
v -0.00001685836651 0.01274206116796 -0.0149938063696
v -0.00001499124392 0.01274259295315 -0.01499380916357
v -0.00463450187817 0.01070903427899 -0.01498679351062
v -0.0000128401698 0.01274086069316 -0.01499381195754
v -0.00463315099478 0.01070390827954 -0.01498679630458
v -0.00548311788589 0.01392943039536 -0.0149855054915
v -0.00463360128924 0.01070561725646 -0.01498679537326
v -0.00548361660913 0.01393132470548 -0.01498550456017
v -0.00356092210859 0.00663863914087 -0.01498842425644
v -0.00463225040585 0.01070049125701 -0.01498679723591
v -0.00001081020946 0.01273625064641 -0.01499381568283
v -0.00000619938692 0.01273312605917 -0.01499382220209
v -0.00001144118869 0.01273400522768 -0.01499381382018
v -0.00001098512803 0.01273349393159 -0.01499381475151
v -0.00355932815 0.00663738930598 -0.01498842611909
v -0.00356208230369 0.00664020935073 -0.0149884223938
v -0.00463180011138 0.01069878228009 -0.01498679816723
v -0.00000868276857 0.01273386739194 -0.0149938184768
v -0.00463270070031 0.01070219930261 -0.01498679630458
v -0.00001263870945 0.01273247692734 -0.01499381288886
v -0.0035627593752 0.00664189970121 -0.01498842146248
v -0.0000012088442 0.01273065432906 -0.01499382965267
v -0.00000285181704 0.01272899843752 -0.0149938268587
v -0.00000352098664 0.01272914372385 -0.01499382592738
v -0.00000433040395 0.01273133046925 -0.01499382499605
v 0.00000123606185 0.0127315139398 -0.01499383337796
v -0.00355551647954 0.00663638208061 -0.01498843263835
v 0.00050829147222 0.00770701933652 -0.01499460358173
v -0.00355745479465 0.00663661817089 -0.01498842984438
v -0.00355371227488 0.00663662655279 -0.01498843543231
v -0.0000035914959 0.0127272028476 -0.01499382592738
v 0.00050316523993 0.00770566845313 -0.01499459613115
v 0.00050658284454 0.0077065685764 -0.01499460078776
v 0.00050487404224 0.00770611874759 -0.01499459799379
v 0.00051000039093 0.00770746916533 -0.01499460637569
v 0.0000038034691 0.01273116003722 -0.01499383710325
v 0.0000057441116 0.01272986549884 -0.01499383989722
v 0.00000637079029 0.01273014117032 -0.01499384175986
v 0.00373381027021 0.00855698715895 -0.01499950140715
v 0.00373570434749 0.00855748634785 -0.01499950420111
v 0.00373759865761 0.00855798460543 -0.01499950699508
v 0.00000672681699 0.01273244712502 -0.01499384175986
v 0.00000819937668 0.01273457985371 -0.01499384362251
v 0.00051170919323 0.00770791945979 -0.01499460823834
v 0.00051341782091 0.00770837021992 -0.01499461103231
v 0.00000682754717 0.01272825431079 -0.01499384175986
v 0.00373191596009 0.00855648797005 -0.01499949861318
v 0.00548411626369 0.01155430544168 -0.01500215940177
v 0.00610901555046 0.00918288528919 -0.01500310841948
v 0.00001463869921 0.01273522898555 -0.01499385386705
v 0.0037432811223 0.00855948217213 -0.01499951630831
v 0.00548561336473 0.01154862251133 -0.01500216219574
v 0.00548461498693 0.01155241113156 -0.0150021603331
v 0.00548511417583 0.01155051682144 -0.01500216126442
v 0.00001203080865 0.01274115312845 -0.01499385014176
v 0.00373949273489 0.00855848379433 -0.01499951072037
v 0.00001209306265 0.01273856218904 -0.01499385014176
v 0.0000131599727 0.01273648720235 -0.01499385200441
v 0.00001048454578 0.01273580174893 -0.0149938473478
v 0.00001281515415 0.01273589581251 -0.01499385107309
v 0.00374138681218 0.00855898298323 -0.01499951351434
v 0.00548361660913 0.01155619975179 -0.01500215847045
v 0.00463315099478 0.01478361617774 -0.01500086765736
v 0.00001126688039 0.01274872291833 -0.01499384921044
v 0.0000128401698 0.0127466628328 -0.01499385107309
v 0.00463450187817 0.01477848924696 -0.01500086952001
v 0.00001685836651 0.01274546328932 -0.01499385759234
v 0.00548261823133 0.01155998744071 -0.01500215753913
v 0.00001492249339 0.01274561230093 -0.01499385386705
v 0.00001499124392 0.01274493057281 -0.01499385479838
v 0.00463405158371 0.01478019822389 -0.01500086858869
v 0.0000131608831 0.01274348516017 -0.01499385200441
v 0.00463360128924 0.01478190720081 -0.01500086765736
v 0.00548311788589 0.01155809313059 -0.01500215847045
v 0.00356208230369 0.01884731464088 -0.01499924063683
v 0.00356092210859 0.01884888485074 -0.01499923877418
v 0.00355932815 0.01885013468564 -0.01499923691154
v 0.00463270070031 0.01478532422334 -0.01500086672604
v 0.00000619938692 0.01275439746678 -0.01499384082854
v 0.00000868276857 0.01275365613401 -0.01499384455383
v 0.00001098512803 0.01275402959436 -0.01499384827912
v 0.0035627593752 0.01884562522173 -0.01499924156815
v 0.00001263870945 0.01275504752994 -0.01499385107309
v 0.00463180011138 0.01478874217719 -0.0150008648634
v 0.00001144118869 0.01275351922959 -0.01499384921044
v 0.00001081020946 0.01275127381086 -0.01499384827912
v 0.00463225040585 0.01478703320026 -0.01500086579472
v -0.00050487404224 0.01778140477836 -0.01499306503683
v -0.00050658284454 0.01778095588088 -0.01499306224287
v -0.00050829147222 0.01778050512075 -0.0149930594489
v 0.00355745479465 0.01885090582073 -0.01499923411757
v -0.00000123606185 0.01275601051748 -0.01499382965267
v 0.0000012088442 0.01275687012821 -0.01499383337796
v 0.00000285181704 0.01275852601975 -0.01499383617193
v 0.00000352098664 0.01275838073343 -0.01499383710325
v 0.00000433040395 0.0127561930567 -0.01499383803457
v -0.00050316523993 0.01778185553849 -0.0149930678308
v 0.0000035914959 0.01276032067835 -0.01499383710325
v 0.00355371227488 0.01885089837015 -0.01499922852963
v 0.00355551647954 0.01885114237666 -0.0149992313236
v -0.00373381027021 0.01693053729832 -0.01498816162348
v -0.00373570434749 0.01693003810942 -0.01498815882951
v -0.00051000039093 0.01778005436063 -0.01499305758625
v -0.00000672681699 0.01275507733226 -0.01499382127076
v -0.00000637079029 0.01275738235563 -0.01499382220209
v -0.0000057441116 0.01275765802711 -0.01499382313341
v -0.0000038034691 0.01275636442006 -0.01499382592738
v -0.00051170919323 0.01777960546315 -0.01499305479228
v -0.00051341782091 0.01777915470302 -0.01499305199832
v -0.00373191596009 0.01693103648722 -0.01498816441745
v -0.00000682754717 0.01275926921517 -0.01499382127076
# 133 vertices

vn 0.00151856150478 0 0.99999886751175
vn -0.00151856150478 0 -0.99999886751175
# 2 normals

vt 0.49995157122612 0.00212597846985 0
vt 0.5 0 0
vt 0.5 0.00239622592926 0
vt 0.49946200847626 0.00165581703186 0
vt 0.2547627389431 0.75476276874542 0
vt 0.25495859980583 0.75495862960815 0
vt 0.49977412819862 0.00184786319733 0
vt 0.25515449047089 0.75515449047089 0
vt 0.50004839897156 0.00212597846985 0
vt 0.50022584199905 0.00184786319733 0
vt 0.25535038113594 0.75535035133362 0
vt 0.5 1 0
vt 0.74464964866638 0.75535035133362 0
vt 0.50053799152374 0.00165581703186 0
vt 0.74484550952911 0.75515449047089 0
vt 0.74504137039185 0.75495862960815 0
vt 0.74523729085922 0.75476276874542 0
vt 0.72123175859451 0.68088132143021 0
vt 0.7209849357605 0.68092042207718 0
vt 0.72073811292648 0.68095946311951 0
vt 0.72049129009247 0.68099856376648 0
vt 0.2555835545063 0.75463271141052 0
vt 0.25530993938446 0.75467610359192 0
vt 0.25503632426262 0.75471937656403 0
vt 0.72100907564163 0.68099474906921 0
vt 0.19191606342793 0.95058107376099 0
vt 0.72056376934052 0.68122166395187 0
vt 0.72078639268875 0.68110823631287 0
vt 0.19167397916317 0.95066893100739 0
vt 0.19139903783798 0.95069444179535 0
vt 0.19111704826355 0.95064401626587 0
vt 0.74496364593506 0.75471937656403 0
vt 0.74469006061554 0.75467610359192 0
vt 0.27926191687584 0.68095946311951 0
vt 0.27950873970985 0.68099856376648 0
vt 0.27901509404182 0.68092042207718 0
vt 0.27876827120781 0.68088132143021 0
vt 0.74441647529602 0.75463271141052 0
vt 0.27899092435837 0.68099474906921 0
vt 0.27921357750893 0.68110823631287 0
vt 0.80832600593567 0.95066893100739 0
vt 0.80808395147324 0.95058107376099 0
vt 0.27943626046181 0.68122166395187 0
vt 0.80860096216202 0.95069444179535 0
vt 0.80888295173645 0.95064401626587 0
# 45 texture coordinates

o Decagon_web
usemtl Mat
f 7/1/1 15/2/1 17/3/1
f 3/4/2 2/5/2 11/6/2 6/7/2
f 6/7/2 11/6/2 14/8/2 7/1/2
f 8/9/1 15/2/1 4/10/1
f 17/3/1 15/2/1 8/9/1
f 13/11/2 1/12/2 17/3/2
f 1/12/2 16/13/2 17/3/2
f 7/1/2 14/8/2 13/11/2 17/3/2
f 4/10/1 15/2/1 5/14/1
f 6/7/1 15/2/1 7/1/1
f 3/4/1 15/2/1 6/7/1
f 17/3/2 16/13/2 12/15/2 8/9/2
f 8/9/2 12/15/2 10/16/2 4/10/2
f 4/10/2 10/16/2 9/17/2 5/14/2
f 26/10/1 15/2/1 21/9/1
f 20/14/2 27/18/2 29/19/2 26/10/2
f 26/10/2 29/19/2 18/20/2 21/9/2
f 21/9/2 18/20/2 25/21/2 23/3/2
f 25/21/2 22/22/2 23/3/2
f 21/9/1 15/2/1 23/3/1
f 23/3/2 22/22/2 28/23/2 24/1/2
f 20/14/1 15/2/1 26/10/1
f 24/1/2 28/23/2 30/24/2 19/7/2
f 19/7/2 30/24/2 2/5/2 3/4/2
f 23/3/1 15/2/1 24/1/1
f 19/7/1 15/2/1 3/4/1
f 24/1/1 15/2/1 19/7/1
f 33/10/2 41/25/2 27/18/2 20/14/2
f 36/1/1 15/2/1 42/3/1
f 42/3/1 15/2/1 35/9/1
f 43/26/2 39/27/2 42/3/2
f 35/9/2 32/28/2 41/25/2 33/10/2
f 36/1/2 38/29/2 43/26/2 42/3/2
f 40/7/2 31/30/2 38/29/2 36/1/2
f 34/4/2 37/31/2 31/30/2 40/7/2
f 35/9/1 15/2/1 33/10/1
f 40/7/1 15/2/1 36/1/1
f 34/4/1 15/2/1 40/7/1
f 33/10/1 15/2/1 20/14/1
f 42/3/2 39/27/2 32/28/2 35/9/2
f 47/7/2 51/30/2 37/31/2 34/4/2
f 46/1/1 15/2/1 47/7/1
f 54/27/2 52/26/2 53/3/2
f 46/1/2 49/29/2 51/30/2 47/7/2
f 45/9/2 56/28/2 54/27/2 53/3/2
f 44/10/2 55/25/2 56/28/2 45/9/2
f 48/14/2 50/18/2 55/25/2 44/10/2
f 48/14/1 15/2/1 44/10/1
f 47/7/1 15/2/1 34/4/1
f 44/10/1 15/2/1 45/9/1
f 45/9/1 15/2/1 53/3/1
f 53/3/2 52/26/2 49/29/2 46/1/2
f 53/3/1 15/2/1 46/1/1
f 65/4/1 15/2/1 64/7/1
f 69/22/2 67/21/2 68/3/2
f 64/7/1 15/2/1 60/1/1
f 60/1/1 15/2/1 68/3/1
f 68/3/1 15/2/1 59/9/1
f 58/10/2 57/19/2 50/18/2 48/14/2
f 59/9/2 66/20/2 57/19/2 58/10/2
f 60/1/2 61/23/2 69/22/2 68/3/2
f 58/10/1 15/2/1 48/14/1
f 64/7/2 62/24/2 61/23/2 60/1/2
f 65/4/2 63/5/2 62/24/2 64/7/2
f 59/9/1 15/2/1 58/10/1
f 68/3/2 67/21/2 66/20/2 59/9/2
f 80/9/2 76/15/2 74/13/2 72/3/2
f 79/10/2 75/16/2 76/15/2 80/9/2
f 77/14/2 70/17/2 75/16/2 79/10/2
f 77/14/1 15/2/1 79/10/1
f 81/7/1 15/2/1 65/4/1
f 81/7/2 78/6/2 63/5/2 65/4/2
f 82/1/2 83/8/2 78/6/2 81/7/2
f 82/1/1 15/2/1 81/7/1
f 72/3/1 15/2/1 82/1/1
f 79/10/1 15/2/1 80/9/1
f 80/9/1 15/2/1 72/3/1
f 74/13/2 71/12/2 72/3/2
f 71/12/2 73/11/2 72/3/2
f 72/3/2 73/11/2 83/8/2 82/1/2
f 94/10/2 84/32/2 70/17/2 77/14/2
f 92/9/2 96/33/2 84/32/2 94/10/2
f 91/1/2 93/34/2 88/35/2 89/3/2
f 87/7/2 95/36/2 93/34/2 91/1/2
f 86/4/2 85/37/2 95/36/2 87/7/2
f 94/10/1 15/2/1 77/14/1
f 86/4/1 15/2/1 87/7/1
f 87/7/1 15/2/1 91/1/1
f 91/1/1 15/2/1 89/3/1
f 92/9/1 15/2/1 94/10/1
f 88/35/2 90/38/2 89/3/2
f 89/3/2 90/38/2 96/33/2 92/9/2
f 89/3/1 15/2/1 92/9/1
f 108/7/1 15/2/1 86/4/1
f 107/1/1 15/2/1 108/7/1
f 105/3/1 15/2/1 107/1/1
f 103/9/1 15/2/1 105/3/1
f 102/10/1 15/2/1 103/9/1
f 101/14/1 15/2/1 102/10/1
f 108/7/2 100/39/2 85/37/2 86/4/2
f 107/1/2 109/40/2 100/39/2 108/7/2
f 103/9/2 97/41/2 104/42/2 105/3/2
f 104/42/2 106/43/2 105/3/2
f 102/10/2 98/44/2 97/41/2 103/9/2
f 101/14/2 99/45/2 98/44/2 102/10/2
f 105/3/2 106/43/2 109/40/2 107/1/2
f 118/10/1 15/2/1 101/14/1
f 117/9/1 15/2/1 118/10/1
f 120/3/1 15/2/1 117/9/1
f 116/1/1 15/2/1 120/3/1
f 115/7/1 15/2/1 116/1/1
f 114/4/1 15/2/1 115/7/1
f 118/10/2 113/44/2 99/45/2 101/14/2
f 117/9/2 122/41/2 113/44/2 118/10/2
f 119/43/2 121/42/2 120/3/2
f 116/1/2 110/40/2 119/43/2 120/3/2
f 115/7/2 111/39/2 110/40/2 116/1/2
f 114/4/2 112/37/2 111/39/2 115/7/2
f 120/3/2 121/42/2 122/41/2 117/9/2
f 129/7/1 15/2/1 114/4/1
f 128/1/1 15/2/1 129/7/1
f 133/3/1 15/2/1 128/1/1
f 127/9/1 15/2/1 133/3/1
f 126/10/1 15/2/1 127/9/1
f 5/14/1 15/2/1 126/10/1
f 129/7/2 125/36/2 112/37/2 114/4/2
f 132/38/2 131/35/2 133/3/2
f 128/1/2 130/34/2 125/36/2 129/7/2
f 127/9/2 123/33/2 132/38/2 133/3/2
f 126/10/2 124/32/2 123/33/2 127/9/2
f 5/14/2 9/17/2 124/32/2 126/10/2
f 133/3/2 131/35/2 130/34/2 128/1/2

