# WaveFront *.obj file (generated by CINEMA 4D)

mtllib ./DecagonShape_24.mtl

v 0.00354708265513 0.00548092741519 -0.01360777765512
v 0.00414352444932 0.00315460469574 -0.01410437747836
v 0.00001048271315 -0.00061951350654 -0.01394192501903
v 0.00000668727489 -0.00061577412998 -0.01394052989781
v 0.0000042279853 -0.00061590276891 -0.01393993571401
v 0.00000929808812 -0.00061728566652 -0.01394133269787
v 0.00000923887546 -0.00061499065487 -0.01394094247371
v 0.00000868116786 -0.00061466731131 -0.01394077669829
v 0.00134841818362 0.0047842701897 -0.01332080177963
v 0.00135022855829 0.00478480197489 -0.01332132797688
v 0.00414304807782 0.00315646268427 -0.01410398073494
v 0.00135203893296 0.00478533376008 -0.01332185324281
v 0.00414209533483 0.00316017912701 -0.01410318724811
v 0.00414257170632 0.00315832090564 -0.01410358399153
v 0.00000148923493 -0.00062577647623 -0.0139443827793
v 0.00135384930763 0.00478586554527 -0.01332237944007
v 0.00000990116951 -0.00061317486688 -0.01394077017903
v 0.00495487637818 -0.00000994249513 -0.01477991230786
v 0.00001256789983 -0.00062091893051 -0.01394255179912
v 0.00001344384418 -0.00062631681794 -0.01394360791892
v 0.00001509743743 -0.00062183092814 -0.0139431823045
v 0.00414495356381 0.00314903026447 -0.01410556770861
v 0.00001668915684 -0.00062072556466 -0.01394330244511
v 0.00001483094456 -0.00062121864175 -0.01394303143024
v 0.00495444703847 -0.00000826610722 -0.01477955467999
v 0.00001381104539 -0.00062377512222 -0.01394325867295
v 0.00495573598891 -0.00001329501993 -0.0147806275636
v 0.00414447719231 0.003150888253 -0.01410517096519
v 0.00495530664921 -0.00001161871842 -0.01478026993573
v 0.00414400082082 0.00315274624154 -0.01410477422178
v 0.00597732421011 -0.0040011596866 -0.01563317142427
v 0.00495659606531 -0.00001664738011 -0.01478134375066
v 0.00001427067127 -0.00062871037517 -0.01394415926188
v 0.00001206918751 -0.00063169846544 -0.01394755020738
v 0.00001588397754 -0.00063029292505 -0.01394473668188
v 0.00001572141991 -0.00063093070639 -0.01394492201507
v 0.00597685622051 -0.0040016239509 -0.01563505828381
v 0.00597757473588 -0.00399975292385 -0.01563186571002
v 0.00495702540502 -0.00001832376802 -0.01478170137852
v 0.00001352903928 -0.00063142366707 -0.01394548919052
v 0.00495616579428 -0.00001497124322 -0.01478098612279
v 0.00001764457375 -0.00063098449027 -0.01394517440349
v 0.00597738195211 -0.00399805698544 -0.01563125476241
v 0.00001264219372 -0.00062813994009 -0.01395105477422
v 0.00001428452651 -0.00062973267632 -0.01395150925964
v 0.0000141980936 -0.00063039711677 -0.01395137235522
v 0.00001246983084 -0.00063105265144 -0.01394997444004
v 0.00001174507997 -0.00062572176103 -0.01395080052316
v 0.00597614934668 -0.00399925326928 -0.01563790254295
v 0.00482979556546 0.00003081990144 -0.01531388424337
v 0.0059764534235 -0.00400085467845 -0.01563685946167
v 0.0059757665731 -0.00399749120697 -0.01563809253275
v 0.00001602952034 -0.00063041877002 -0.01395201310515
v 0.00483124144375 0.00002573618804 -0.01531429309398
v 0.00483027752489 0.00002912544187 -0.01531402021646
v 0.00483075948432 0.00002743081495 -0.01531415618956
v 0.00482931360602 0.00003251461385 -0.01531374733895
v 0.00001201197756 -0.00062314496608 -0.01395087689161
v 0.00001320091906 -0.00062116660411 -0.01395121309906
v 0.00001291757962 -0.00062054843875 -0.01395113300532
v 0.00391981331632 0.0032295845449 -0.01505643874407
v 0.00391927873716 0.0032314627897 -0.01505628786981
v 0.00391874462366 0.00323334150016 -0.01505613699555
v 0.00001069024893 -0.00062026124215 -0.01395050249994
v 0.00000859676675 -0.00061885290779 -0.01394991017878
v 0.00482883164659 0.00003420924259 -0.01531361136585
v 0.0048283492215 0.00003590370397 -0.01531347446144
v 0.00001471949781 -0.00062003562925 -0.01395164243877
v 0.00392034742981 0.00322770583443 -0.01505659054965
v 0.00098637875635 0.00488989753649 -0.01422631088644
v 0.00324972067028 0.00558508839458 -0.01486686244607
v 0.0000077871282 -0.00061243574601 -0.01394968107343
v 0.00391714135185 0.00323897670023 -0.01505568344146
v 0.0009922144236 0.00489147240296 -0.01422818750143
v 0.00098830915522 0.00489042280242 -0.01422698237002
v 0.00099025457166 0.00489094760269 -0.01422760728747
v 0.00000175166065 -0.00061512779212 -0.01394774764776
v 0.0039182100445 0.00323521974497 -0.01505598518997
v 0.0000044238941 -0.00061503186589 -0.01394866872579
v 0.00000653766756 -0.00061393517535 -0.01394932065159
v 0.00000735527738 -0.00061660516076 -0.01394955907017
v 0.00000717422017 -0.00061427371111 -0.01394950691611
v 0.00391767546535 0.0032370982226 -0.01505583431572
v 0.00098446535412 0.00488937180489 -0.01422559376806
v -0.00194135878701 0.00393696408719 -0.0129317715764
v -0.00000566757853 -0.00061603588983 -0.0139446593821
v -0.00000381893142 -0.00061439839192 -0.01394544634968
v -0.00193671206944 0.00393847702071 -0.012933826074
v -0.00000279691744 -0.00061034556711 -0.0139457853511
v 0.00098069221713 0.00488831661642 -0.01422402635217
v -0.00000287515627 -0.00061228912091 -0.01394580863416
v -0.00000219705635 -0.00061221024953 -0.01394610572606
v -0.00193826097529 0.00393797270954 -0.01293314155191
v -0.00000067153769 -0.00061402557185 -0.01394679304212
v -0.00193980988115 0.00393746839836 -0.0129324560985
v 0.00098256918136 0.00488884467632 -0.01422483194619
v -0.00562475016341 0.00273748626933 -0.01130251213908
v -0.00562553945929 0.00273659056984 -0.01130098942667
v -0.00562532339245 0.00273603387177 -0.01129908114672
v -0.00194290757645 0.00393645977601 -0.01293108612299
v -0.00000866521623 -0.00061986356741 -0.01393988914788
v -0.00000959331373 -0.00061857432593 -0.01394187193364
v -0.00001044514829 -0.00061648065457 -0.01394238416106
v -0.00562335783616 0.00273819011636 -0.01130343601108
v -0.00001145454553 -0.00061486667255 -0.01394200790673
v -0.00194600538816 0.00393545115367 -0.01292971614748
v -0.00001003675334 -0.00061601452762 -0.01394267287105
v -0.00000798387737 -0.00061657337938 -0.01394362840801
v -0.00194445648231 0.00393595546484 -0.0129304016009
v -0.0017414803151 0.00387676968239 -0.01242348458618
v -0.00173984700814 0.00387724931352 -0.01242395862937
v -0.00173821381759 0.00387772894464 -0.01242443267256
v -0.00562413455918 0.00273618078791 -0.01129748113453
v -0.00000292743448 -0.0006168349064 -0.01393781602383
v -0.00000535710751 -0.00061733933399 -0.01393706910312
v -0.00000745680563 -0.00061676680343 -0.01393622998148
v -0.00000798798919 -0.00061719713267 -0.01393624767661
v -0.0000078847861 -0.0006190725253 -0.0139376046136
v -0.00174311350565 0.00387629005127 -0.01242300961167
v -0.00000884942801 -0.00061562628252 -0.01393550168723
v -0.00562075292692 0.00273743015714 -0.01129692979157
v -0.00562245119363 0.00273681571707 -0.01129676960409
v 0.00134479720145 0.00478320708498 -0.01331975031644
v 0.00134660769254 0.00478373840451 -0.0133202765137
v -0.00173658051062 0.0038782088086 -0.01242490764707
v 0.00000206908453 -0.00061485136393 -0.01393911335617
v 0.00000079439394 -0.00061309116427 -0.01393835805357
v 0.00000016026975 -0.00061317638028 -0.01393815781921
v -0.00000091699638 -0.00061524461489 -0.0139381987974
v -0.00173494720366 0.00387868843973 -0.01242538169026
v -0.00173331401311 0.00387916807085 -0.01242585573345
v 0.00134298636112 0.00478267529979 -0.01331922505051
v 0.00000038018308 -0.00061127200024 -0.01393785048276
# 133 vertices

vn 0.3722175359726 0.02844554372132 -0.92770951986313
vn 0.27181455492973 0.11830979585648 -0.95504957437515
vn 0.53135842084885 -0.11404412984848 -0.83943563699722
vn 0.18409575521946 -0.15983261168003 0.96982592344284
vn 0.18416067957878 -0.15990294516087 0.96980196237564
vn 0.18398101627827 -0.1597146987915 0.96986711025238
vn -0.56451505422592 0.56175535917282 -0.6047757267952
vn -0.46073195338249 0.5357785820961 -0.70757853984833
vn -0.30302536487579 0.47551482915878 -0.82587003707886
vn -0.71526789665222 0.58643335103989 -0.38011553883553
vn 0.18408341705799 -0.15980492532253 0.96983283758163
vn 0.17986083030701 -0.15742646157742 0.97101336717606
vn 0.17565885186195 -0.15503627061844 0.97216653823853
vn 0.18372121453285 -0.15943333506584 0.96996265649796
vn -0.23184691369534 0.45218420028687 -0.86126446723938
vn 0.12789106369019 0.22895748913288 -0.96499860286713
vn 0.06152687594295 0.28675156831741 -0.95602720975876
vn 0.25660967826843 -0.17277920246124 0.95094627141953
vn 0.26200616359711 -0.17396359145641 0.94925731420517
vn 0.27489346265793 -0.17672470211983 0.94509363174438
vn 0.28237554430962 -0.1783013343811 0.94258826971054
vn 0.08239434659481 0.05131508782506 -0.99527782201767
vn 0.11997470259666 -0.09075979143381 -0.98861962556839
vn 0.14323119819164 -0.19923517107964 -0.96942776441574
vn 0.18408627808094 -0.1598000228405 0.96983307600021
vn 0.18703512847424 -0.3681922852993 -0.91074270009994
vn 0.06976272165775 0.12588845193386 -0.98958843946457
vn -0.28436627984047 0.91614526510239 -0.28251308202744
vn -0.06041127070785 0.46960809826851 -0.8808057308197
vn -0.01706303656101 0.38635718822479 -0.92219138145447
vn -0.10312327742577 0.54793137311935 -0.83014267683029
vn 0.18423181772232 -0.16118958592415 0.96957546472549
vn -0.13270302116871 -0.26635181903839 -0.9546971321106
vn 0.27649784088135 0.90631407499313 -0.31959933042526
vn 0.18395881354809 -0.15853849053383 0.9700642824173
vn -0.01298666466027 -0.46599298715591 0.88469308614731
vn 0.09863322973251 -0.30048221349716 0.94867378473282
vn -0.26593041419983 -0.76462733745575 0.58704859018326
vn -0.38608625531197 -0.85578840970993 0.3443306684494
vn 0.11734964698553 0.44369906187057 -0.88845944404602
vn 0.09611739963293 0.34785997867584 -0.93260651826859
vn 0.12839236855507 0.44725430011749 -0.88514345884323
vn 0.36573261022568 0.85280871391296 -0.37276929616928
vn 0.07376816868782 0.24799171090126 -0.96594947576523
vn 0.18357498943806 -0.15451534092426 0.97078585624695
vn -0.52708107233047 -0.6731653213501 -0.51868492364883
vn -0.53008902072906 -0.80535304546356 -0.26535269618034
vn 0.53847640752792 0.27731087803841 0.79570209980011
vn -0.27222698926926 0 -0.96223306655884
vn -0.42201176285744 -0.32275840640068 -0.84719127416611
vn -0.27239111065865 0.00130325579084 -0.96218574047089
vn -0.27290493249893 0.00533924438059 -0.96202617883682
vn -0.27204945683479 -0.00133146939334 -0.96228235960007
vn 0.52705025672913 0.10704997181892 0.84306484460831
vn 0.53473210334778 0.22001670300961 0.81587636470795
vn 0.53270155191422 0.7917452454567 0.29894563555717
vn 0.5351625084877 0.32998648285866 0.77763104438782
vn 0.41903093457222 0.86647999286652 0.27134010195732
vn -0.34449383616447 -0.14531582593918 -0.92747360467911
vn 0.2857793867588 -0.47395712137222 0.83288341760635
vn 0.42130929231644 0.2609581053257 0.8685616850853
vn 0.36111813783646 0.35458582639694 0.8624746799469
vn 0.29648175835609 0.44379621744156 0.84566158056259
vn -0.1088909432292 0.86665421724319 0.48688113689423
vn 0.5729199051857 -0.53269934654236 0.62289184331894
vn 0.56649744510651 -0.25874149799347 0.78238958120346
vn 0.57235199213028 -0.36956459283829 0.73200762271881
vn 0.54192978143692 -0.11151923984289 0.83299195766449
vn 0.5303720831871 -0.03011566959321 0.84722989797592
vn -0.29185658693314 0.00378774804994 -0.9564545750618
vn -0.28130188584328 0.00173209339846 -0.95961773395538
vn -0.31557661294937 0.00844313576818 -0.94886255264282
vn -0.32870811223984 0.01101446617395 -0.9443673491478
vn 0.30372998118401 0.28029477596283 0.91059482097626
vn 0.0228126514703 0.3854618370533 0.92244172096252
vn 0.20810763537884 0.31285351514816 0.92672210931778
vn 0.57458519935608 0.09153912216425 0.81330955028534
vn 0.70704931020737 -0.02541590668261 0.70670735836029
vn 0.51153343915939 0.15033620595932 0.84600979089737
vn -0.27225285768509 0.00005642563701 -0.96222573518753
vn -0.27220112085342 -0.00005642563701 -0.96224039793015
vn 0.78392231464386 -0.11564750224352 0.60999298095703
vn 0.87907314300537 -0.25502985715866 0.40272837877274
vn -0.12303810566664 0.42623433470726 0.89620637893677
vn -0.34861427545547 0.48350238800049 0.80292809009552
vn -0.27202916145325 -0.00021359918173 -0.96228897571564
vn -0.37007442116737 0.01918045431376 -0.92880409955978
vn -0.35715633630753 0.01662410609424 -0.93389666080475
vn -0.39305570721626 0.02377703413367 -0.91920721530914
vn -0.41185146570206 0.02750707231462 -0.91083574295044
vn -0.4120346903801 0.02741311304271 -0.91075569391251
vn -0.41171935200691 0.02757394127548 -0.91089344024658
vn -0.41177472472191 0.02754770405591 -0.91086918115616
vn 0.55081009864807 0.26373210549355 0.79186719655991
vn 0.73060691356659 0.28681692481041 0.61963665485382
vn 0.45356506109238 0.25838389992714 0.85294580459595
vn 0.23090797662735 0.19678463041782 0.95286792516708
vn 0.00286489189602 0.1132962629199 0.99355709552765
vn 0.15828642249107 0.16483280062675 0.97353762388229
vn -0.1137870028615 0.06795770674944 0.99117821455002
vn -0.30718788504601 0.00119404413272 0.95164811611176
vn 0.83825820684433 0.28671926259995 0.46380516886711
vn -0.40316325426102 0.02580340765417 -0.91476422548294
vn 0.94753247499466 0.27760764956474 0.15848097205162
vn 0.40904101729393 0.35208293795586 0.84185689687729
vn 0.3374140560627 0.27354237437248 0.90073657035828
vn 0.47462770342827 0.42542394995689 0.7705472111702
vn 0.65135765075684 0.75367510318756 0.0877897515893
vn -0.02620335482061 -0.24214141070843 0.96988707780838
vn 0.4301078915596 0.37567362189293 0.82089984416962
vn 0.56673258543015 0.78630131483078 0.24605771899223
vn -0.41292083263397 0.0269559957087 -0.9103679060936
vn -0.41068664193153 0.02813955023885 -0.9113422036171
vn -0.5459480881691 -0.29733255505562 -0.78328412771225
vn -0.4794916510582 -0.11819750070572 -0.86954993009567
vn -0.60446828603745 -0.65593528747559 -0.45206964015961
vn -0.57117426395416 -0.79490733146667 -0.20465181767941
vn -0.40729257464409 0.02988714538515 -0.91280859708786
vn 0.31923723220825 0.85647141933441 -0.40564066171646
vn -0.17144086956978 0.57153135538101 -0.80247110128403
vn -0.64841532707214 0.00557417608798 -0.76126635074615
vn 0.45402798056602 0.80201822519302 -0.38810485601425
vn -0.25941115617752 0.50374150276184 -0.82398444414139
vn -0.16945804655552 0.56342732906342 -0.80859982967377
vn -0.34627109766006 0.43810501694679 -0.82955425977707
vn -0.18321068584919 -0.77877789735794 0.59994900226593
vn -0.33883339166641 -0.86265498399734 0.37552401423454
vn 0.11377637833357 -0.48978826403618 0.86438554525375
vn 0.32424601912498 -0.18703439831734 0.92729860544205
vn 0.32540678977966 -0.18649768829346 0.92699998617172
vn 0.32901167869568 -0.18479199707508 0.92606872320175
vn 0.32302978634834 -0.18759733438492 0.92760926485062
vn 0.2352152466774 -0.32668060064316 0.91539806127548
vn -0.51291221380234 0.34447821974754 -0.78629243373871
vn -0.62774813175201 0.29628697037697 -0.71982383728027
vn -0.44971093535423 0.37357792258263 -0.81129503250122
vn -0.70714038610458 0.2518102824688 -0.66071480512619
vn -0.8190535902977 0.18233621120453 -0.54397124052048
vn 0.70665377378464 0.33476576209068 -0.62335568666458
vn -0.03280797973275 0.43554356694222 -0.89956957101822
vn 0.06137805432081 0.43090438842773 -0.90030777454376
vn -0.12669432163239 0.43630716204643 -0.89083367586136
vn 0.32421860098839 -0.18704769015312 0.9273054599762
vn 0.31774911284447 -0.18569859862328 0.92981261014938
vn 0.32210779190063 -0.18659938871861 0.92813104391098
vn 0.30628874897957 -0.18334460258484 0.93411558866501
vn 0.29920324683189 -0.18187144398689 0.93669641017914
# 147 normals

vt 0.49995157122612 0.00212597846985 0
vt 0.5 0 0
vt 0.5 0.00239622592926 0
vt 0.49946200847626 0.00165581703186 0
vt 0.2547627389431 0.75476276874542 0
vt 0.25495859980583 0.75495862960815 0
vt 0.49977412819862 0.00184786319733 0
vt 0.25515449047089 0.75515449047089 0
vt 0.50004839897156 0.00212597846985 0
vt 0.50022584199905 0.00184786319733 0
vt 0.25535038113594 0.75535035133362 0
vt 0.5 1 0
vt 0.74464964866638 0.75535035133362 0
vt 0.50053799152374 0.00165581703186 0
vt 0.74484550952911 0.75515449047089 0
vt 0.74504137039185 0.75495862960815 0
vt 0.74523729085922 0.75476276874542 0
vt 0.72123175859451 0.68088132143021 0
vt 0.7209849357605 0.68092042207718 0
vt 0.72073811292648 0.68095946311951 0
vt 0.72049129009247 0.68099856376648 0
vt 0.2555835545063 0.75463271141052 0
vt 0.25530993938446 0.75467610359192 0
vt 0.25503632426262 0.75471937656403 0
vt 0.72100907564163 0.68099474906921 0
vt 0.19191606342793 0.95058107376099 0
vt 0.72056376934052 0.68122166395187 0
vt 0.72078639268875 0.68110823631287 0
vt 0.19167397916317 0.95066893100739 0
vt 0.19139903783798 0.95069444179535 0
vt 0.19111704826355 0.95064401626587 0
vt 0.74496364593506 0.75471937656403 0
vt 0.74469006061554 0.75467610359192 0
vt 0.27926191687584 0.68095946311951 0
vt 0.27950873970985 0.68099856376648 0
vt 0.27901509404182 0.68092042207718 0
vt 0.27876827120781 0.68088132143021 0
vt 0.74441647529602 0.75463271141052 0
vt 0.27899092435837 0.68099474906921 0
vt 0.27921357750893 0.68110823631287 0
vt 0.80832600593567 0.95066893100739 0
vt 0.80808395147324 0.95058107376099 0
vt 0.27943626046181 0.68122166395187 0
vt 0.80860096216202 0.95069444179535 0
vt 0.80888295173645 0.95064401626587 0
# 45 texture coordinates

o Decagon_web
usemtl Mat
f 7/1/1 15/2/2 17/3/3
f 3/4/4 2/5/4 11/6/5 6/7/5
f 6/7/5 11/6/5 14/8/6 7/1/6
f 8/9/7 15/2/8 4/10/9
f 17/3/10 15/2/8 8/9/7
f 13/11/11 1/12/12 17/3/12
f 1/12/12 16/13/13 17/3/12
f 7/1/6 14/8/6 13/11/14 17/3/14
f 4/10/9 15/2/8 5/14/15
f 6/7/16 15/2/2 7/1/1
f 3/4/17 15/2/2 6/7/16
f 17/3/18 16/13/18 12/15/19 8/9/19
f 8/9/19 12/15/19 10/16/20 4/10/20
f 4/10/20 10/16/20 9/17/21 5/14/21
f 26/10/22 15/2/23 21/9/24
f 20/14/25 27/18/25 29/19/11 26/10/11
f 26/10/11 29/19/11 18/20/11 21/9/11
f 21/9/11 18/20/11 25/21/11 23/3/11
f 25/21/11 22/22/11 23/3/11
f 21/9/24 15/2/23 23/3/26
f 23/3/25 22/22/25 28/23/11 24/1/11
f 20/14/27 15/2/23 26/10/22
f 24/1/11 28/23/11 30/24/25 19/7/25
f 19/7/25 30/24/25 2/5/25 3/4/25
f 23/3/28 15/2/28 24/1/28
f 19/7/29 15/2/29 3/4/30
f 24/1/31 15/2/29 19/7/29
f 33/10/32 41/25/32 27/18/4 20/14/4
f 36/1/33 15/2/33 42/3/33
f 42/3/34 15/2/34 35/9/34
f 43/26/11 39/27/11 42/3/11
f 35/9/35 32/28/35 41/25/32 33/10/32
f 36/1/36 38/29/36 43/26/37 42/3/37
f 40/7/38 31/30/38 38/29/36 36/1/36
f 34/4/39 37/31/39 31/30/38 40/7/38
f 35/9/40 15/2/41 33/10/41
f 40/7/42 15/2/42 36/1/42
f 34/4/43 15/2/43 40/7/43
f 33/10/41 15/2/41 20/14/44
f 42/3/45 39/27/45 32/28/35 35/9/35
f 47/7/46 51/30/46 37/31/47 34/4/47
f 46/1/48 15/2/48 47/7/48
f 54/27/49 52/26/49 53/3/49
f 46/1/50 49/29/50 51/30/46 47/7/46
f 45/9/51 56/28/51 54/27/52 53/3/52
f 44/10/53 55/25/53 56/28/51 45/9/51
f 48/14/49 50/18/49 55/25/53 44/10/53
f 48/14/54 15/2/55 44/10/55
f 47/7/56 15/2/56 34/4/56
f 44/10/55 15/2/55 45/9/57
f 45/9/58 15/2/58 53/3/58
f 53/3/59 52/26/59 49/29/50 46/1/50
f 53/3/60 15/2/60 46/1/60
f 65/4/61 15/2/62 64/7/62
f 69/22/49 67/21/49 68/3/49
f 64/7/62 15/2/62 60/1/63
f 60/1/64 15/2/64 68/3/64
f 68/3/65 15/2/66 59/9/67
f 58/10/49 57/19/49 50/18/49 48/14/49
f 59/9/49 66/20/49 57/19/49 58/10/49
f 60/1/49 61/23/49 69/22/49 68/3/49
f 58/10/68 15/2/66 48/14/69
f 64/7/49 62/24/49 61/23/49 60/1/49
f 65/4/49 63/5/49 62/24/49 64/7/49
f 59/9/67 15/2/66 58/10/68
f 68/3/49 67/21/49 66/20/49 59/9/49
f 80/9/70 76/15/70 74/13/71 72/3/71
f 79/10/72 75/16/72 76/15/70 80/9/70
f 77/14/73 70/17/73 75/16/72 79/10/72
f 77/14/74 15/2/75 79/10/76
f 81/7/77 15/2/78 65/4/79
f 81/7/80 78/6/80 63/5/49 65/4/49
f 82/1/81 83/8/81 78/6/80 81/7/80
f 82/1/82 15/2/78 81/7/77
f 72/3/83 15/2/78 82/1/82
f 79/10/76 15/2/75 80/9/84
f 80/9/84 15/2/75 72/3/85
f 74/13/49 71/12/49 72/3/49
f 71/12/49 73/11/49 72/3/49
f 72/3/86 73/11/86 83/8/81 82/1/81
f 94/10/87 84/32/87 70/17/88 77/14/88
f 92/9/89 96/33/89 84/32/87 94/10/87
f 91/1/90 93/34/90 88/35/91 89/3/91
f 87/7/92 95/36/92 93/34/90 91/1/90
f 86/4/93 85/37/93 95/36/92 87/7/92
f 94/10/94 15/2/95 77/14/96
f 86/4/97 15/2/98 87/7/99
f 87/7/99 15/2/98 91/1/100
f 91/1/100 15/2/98 89/3/101
f 92/9/102 15/2/95 94/10/94
f 88/35/93 90/38/93 89/3/93
f 89/3/103 90/38/103 96/33/89 92/9/89
f 89/3/104 15/2/95 92/9/102
f 108/7/105 15/2/105 86/4/106
f 107/1/107 15/2/105 108/7/105
f 105/3/108 15/2/108 107/1/108
f 103/9/109 15/2/109 105/3/109
f 102/10/110 15/2/110 103/9/110
f 101/14/111 15/2/111 102/10/111
f 108/7/112 100/39/112 85/37/93 86/4/93
f 107/1/113 109/40/113 100/39/112 108/7/112
f 103/9/114 97/41/114 104/42/115 105/3/115
f 104/42/93 106/43/93 105/3/93
f 102/10/116 98/44/116 97/41/114 103/9/114
f 101/14/117 99/45/117 98/44/116 102/10/116
f 105/3/118 106/43/118 109/40/113 107/1/113
f 118/10/119 15/2/119 101/14/119
f 117/9/120 15/2/120 118/10/120
f 120/3/121 15/2/121 117/9/121
f 116/1/122 15/2/122 120/3/122
f 115/7/123 15/2/123 116/1/124
f 114/4/125 15/2/123 115/7/123
f 118/10/126 113/44/126 99/45/127 101/14/127
f 117/9/128 122/41/128 113/44/126 118/10/126
f 119/43/129 121/42/129 120/3/129
f 116/1/130 110/40/130 119/43/131 120/3/131
f 115/7/132 111/39/132 110/40/130 116/1/130
f 114/4/129 112/37/129 111/39/132 115/7/132
f 120/3/133 121/42/133 122/41/128 117/9/128
f 129/7/134 15/2/135 114/4/136
f 128/1/137 15/2/135 129/7/134
f 133/3/138 15/2/135 128/1/137
f 127/9/139 15/2/139 133/3/139
f 126/10/140 15/2/140 127/9/141
f 5/14/142 15/2/140 126/10/140
f 129/7/129 125/36/129 112/37/143 114/4/143
f 132/38/129 131/35/129 133/3/129
f 128/1/129 130/34/129 125/36/129 129/7/129
f 127/9/144 123/33/144 132/38/145 133/3/145
f 126/10/146 124/32/146 123/33/144 127/9/144
f 5/14/147 9/17/147 124/32/146 126/10/146
f 133/3/129 131/35/129 130/34/129 128/1/129

