# WaveFront *.obj file (generated by CINEMA 4D)

mtllib ./DecagonShape_17.mtl

v 0.00240963324904 0.00261431187391 -0.00801593158394
v 0.00289485394023 0.00094155780971 -0.00974236987531
v 0.00000533221692 0.00131187809166 -0.01452420186251
v 0.00000244265584 0.00131634413265 -0.01452255155891
v 0.00000060948867 0.00131781678647 -0.01452364120632
v 0.00000442535747 0.00131385098211 -0.0145227862522
v 0.0000043168634 0.00131519220304 -0.01452088169754
v 0.00000389183106 0.00131572666578 -0.01452083047479
v 0.00074204849079 0.00364865455776 -0.00948679167777
v 0.0007433804567 0.00364782847464 -0.00948561634868
v 0.00289446604438 0.00094289390836 -0.00974099058658
v 0.0007447124226 0.00364700215869 -0.00948444195092
v 0.002893691184 0.00094556616386 -0.00973823200911
v 0.00289407861419 0.00094423006522 -0.00973961129785
v 0.00000083397003 0.0013141852105 -0.01453490648419
v 0.00074604444671 0.00364617607556 -0.00948326662183
v 0.00000475589513 0.00131581129972 -0.01451909448951
v 0.00355490972288 -0.00133392540738 -0.01209087949246
v 0.0000068686827 0.00130982452538 -0.01452457439154
v 0.0000076283759 0.00130625034217 -0.01452877838165
v 0.00000871372231 0.00130778073799 -0.01452436018735
v 0.00289601646364 0.00093754951376 -0.00974650681019
v 0.00000983480913 0.00130744173657 -0.01452281139791
v 0.0000085070742 0.00130828714464 -0.01452394854277
v 0.00355456001125 -0.00133272004314 -0.0120896352455
v 0.00000783265932 0.00130746187642 -0.01452649571002
v 0.0035556089133 -0.00133633613586 -0.01209336798638
v 0.00289562903345 0.00093888561241 -0.00974512752146
v 0.00355525920168 -0.00133513077162 -0.01209212373942
v 0.00289524137042 0.00094022171106 -0.00974374823272
v 0.00438751652837 -0.00420309696347 -0.01505388412625
v 0.00355630810373 -0.00133874663152 -0.01209585554898
v 0.00000828126304 0.00130440038629 -0.01453047152609
v 0.00000847550473 0.00130457617342 -0.0145358145237
v 0.00000948751949 0.00130253401585 -0.01453118026257
v 0.00000944657131 0.00130229059141 -0.01453181821853
v 0.00438815960661 -0.00420276261866 -0.01505576446652
v 0.00438708392903 -0.00420262524858 -0.01505204662681
v 0.00355665781535 -0.00133995199576 -0.01209709979594
v 0.00000835047467 0.00130347616505 -0.01453349366784
v 0.0035559583921 -0.00133754150011 -0.01209461130202
v 0.00001076731769 0.00130107766017 -0.01453107502311
v 0.00438674399629 -0.00420159939677 -0.01505058538169
v 0.00001171455915 0.00130788760725 -0.01453848928213
v 0.0000126628729 0.00130575930234 -0.0145385954529
v 0.00001230061389 0.00130518956576 -0.01453848276287
v 0.00001013043766 0.001305284095 -0.01453765016049
v 0.00001179079209 0.00131047819741 -0.01453849766403
v 0.00438965344802 -0.0042000147514 -0.01505804713815
v 0.00484859291464 -0.00002303867223 -0.01511271670461
v 0.00438895216212 -0.00420163851231 -0.01505723688751
v 0.00439003761858 -0.00419825315475 -0.01505827717483
v 0.0000140613638 0.00130442355294 -0.01453876774758
v 0.00484801456332 -0.00002830776975 -0.01511264778674
v 0.00484840059653 -0.00002479502655 -0.01511269342154
v 0.0048482073471 -0.00002655139906 -0.0151126710698
v 0.00484878616408 -0.00002128220513 -0.01511273905635
v 0.00001303556746 0.00131274654996 -0.01453864574432
v 0.00001492753836 0.00131409219466 -0.01453887019306
v 0.00001489564056 0.00131477613468 -0.01453886646777
v 0.0052127186209 0.00329237733968 -0.01515594497323
v 0.00521293235943 0.00329432426952 -0.01515597011894
v 0.00521314656362 0.00329627143219 -0.01515599619597
v 0.00001288677231 0.0013159372611 -0.01453862804919
v 0.00001143636746 0.00131807813887 -0.01453845575452
v 0.00484897941351 -0.00001952583443 -0.01511276233941
v 0.00484917173162 -0.00001776948011 -0.01511278562248
v 0.00001680733112 0.00131452374626 -0.01453909371048
v 0.00521250488237 0.00329043040983 -0.01515591982752
v 0.00306034111418 0.00600336818025 -0.01490041799843
v 0.00548085337505 0.0057337814942 -0.01518777757883
v 0.0000131334682 0.00132432044484 -0.01453865692019
v 0.00521378824487 0.00330211222172 -0.0151560716331
v 0.00306614115834 0.00600272230804 -0.01490110624582
v 0.00306227453984 0.00600315257907 -0.01490064710379
v 0.00306420773268 0.00600293744355 -0.01490087714046
v 0.00000671363932 0.00132401683368 -0.01453789509833
v 0.00521336030215 0.0032982181292 -0.01515602134168
v 0.00000913667736 0.0013231432531 -0.014538182877
v 0.00001143959526 0.00132339308038 -0.01453845668584
v 0.00001111937945 0.00132065010257 -0.01453841850162
v 0.0000118646276 0.00132285861764 -0.01453850697726
v 0.00521357404068 0.00330016529188 -0.01515604648739
v 0.00305840768851 0.00600358331576 -0.01490018796176
v -0.00023582183348 0.00637048156932 -0.01450910139829
v -0.00000057347074 0.0013260259293 -0.01453702989966
v 0.00000189668208 0.00132675340865 -0.01453732326627
v -0.00023058945953 0.00636989856139 -0.01450972259045
v 0.00000444306806 0.00133007147815 -0.0145376259461
v 0.00305454107001 0.00600401405245 -0.01489972881973
v 0.00000361401339 0.00132831861265 -0.01453752722591
v 0.00000426983297 0.00132813781966 -0.01453760545701
v -0.00023233359389 0.00637009320781 -0.01450951583683
v 0.00000495596578 0.00132590997964 -0.01453768648207
v -0.00023407769913 0.0063702869229 -0.01450930908322
v 0.00305647449568 0.00600379891694 -0.0148999588564
v -0.00438369531184 0.00683224294335 -0.01401648763567
v -0.00438535492867 0.00683182477951 -0.01401556283236
v -0.00438649160787 0.0068311332725 -0.01401404943317
v -0.00023756596784 0.00637067575008 -0.01450889464468
v -0.00000680756466 0.00132379424758 -0.014533999376
v -0.00000590995523 0.00132545444649 -0.01453574560583
v -0.00000558002193 0.0013276739046 -0.01453636027873
v -0.00438192114234 0.00683225691319 -0.01401688251644
v -0.00000594443372 0.00132958032191 -0.01453639287502
v -0.00024105422199 0.00637106411159 -0.01450848020613
v -0.00000495507766 0.00132791337091 -0.0145365037024
v -0.00000310045812 0.00132651708554 -0.01453673001379
v -0.00023931008764 0.00637086993083 -0.01450868789107
v -0.00153120944742 0.00505867460743 -0.01149187237024
v -0.00153000792488 0.0050579290837 -0.01149081252515
v -0.00152880616952 0.00505718402565 -0.01148975268006
v -0.00438679102808 0.00683036632836 -0.01401221007109
v -0.00000473588671 0.00132179807406 -0.01452730968595
v -0.00000653375309 0.00132302986458 -0.01452871318907
v -0.00000813043152 0.00132468808442 -0.01452908851206
v -0.00000843406451 0.00132477504667 -0.01452969573438
v -0.00000768991868 0.00132364651654 -0.01453158911318
v -0.00153241096996 0.00505941966549 -0.01149293221533
v -0.00000923847983 0.00132623442914 -0.01452870015055
v -0.00438521476462 0.00682891113684 -0.01400918979198
v -0.00438626483083 0.00682963291183 -0.01401048712432
v 0.00073938450078 0.00365030695684 -0.00948914140463
v 0.00074071646668 0.00364948087372 -0.00948796607554
v -0.00152760464698 0.00505643850192 -0.01148869283497
v -0.00000106212406 0.00131979736034 -0.01452363282442
v -0.00000211873385 0.00132164882962 -0.01452268660069
v -0.00000259980266 0.00132200715598 -0.0145230172202
v -0.00000330622606 0.00132146885153 -0.01452517323196
v -0.00152640312444 0.00505569344386 -0.01148763298988
v -0.00152520136908 0.00505494792014 -0.01148657314479
v 0.00073805253487 0.00365113303997 -0.0094903158024
v -0.00000252945301 0.00132298946846 -0.01452134363353
# 133 vertices

vn 0.94285476207733 0.22036229074001 -0.24993060529232
vn 0.91101205348968 0.33160418272018 -0.24514426290989
vn 0.97032737731934 0.00942227523774 -0.24161121249199
vn -0.70601975917816 -0.5973796248436 0.38035997748375
vn -0.70603358745575 -0.59735888242722 0.38036680221558
vn 0.40694043040276 0.89425283670425 -0.18630988895893
vn 0.50788205862045 0.83853131532669 -0.19728401303291
vn 0.63697135448456 0.74105215072632 -0.21238934993744
vn 0.20956112444401 0.96601986885071 -0.15129342675209
vn 0.68535310029984 0.69697487354279 -0.21099090576172
vn 0.8447842001915 0.47973129153252 -0.2370602786541
vn 0.81329965591431 0.53608423471451 -0.22617986798286
vn 0.83422040939331 0.417037576437 -0.36077132821083
vn 0.8449399471283 0.30023902654648 -0.4426431953907
vn 0.84036087989807 0.21320369839668 -0.49833500385284
vn -0.70602339506149 -0.5973533987999 0.38039436936378
vn 0.81406825780869 0.04852030426264 -0.57873886823654
vn -0.70606136322021 -0.59732520580292 0.38036817312241
vn 0.82746070623398 0.46189519762993 -0.3193142414093
vn 0.39360231161118 0.89578503370285 0.20651011168957
vn 0.64486688375473 0.76352655887604 -0.03426171094179
vn 0.56501597166061 0.82370030879974 0.0476937443018
vn 0.73749947547913 0.65776312351227 -0.15310835838318
vn 0.76885050535202 0.6100566983223 -0.19157174229622
vn -0.70594209432602 -0.59789907932281 0.37968724966049
vn 0.77918809652328 0.45121037960052 -0.43505758047104
vn 0.82725358009338 0.52865487337112 -0.19019860029221
vn 0.66293203830719 0.30213445425034 -0.68500792980194
vn 0.68283957242966 0.62705898284912 0.37486943602562
vn 0.80476403236389 0.59356379508972 0.00607757037506
vn 0.7740889787674 0.61834955215454 0.13575740158558
vn -0.7060968875885 -0.59685969352722 0.38103243708611
vn -0.76646757125854 -0.62390393018723 0.15254953503609
vn -0.73788237571716 -0.61339938640594 0.28155079483986
vn -0.7799745798111 -0.605224609375 -0.15919435024261
vn -0.7528230547905 -0.56713658571243 -0.33408614993095
vn 0.82032161951065 0.54312974214554 -0.1791160851717
vn 0.80992066860199 0.57999384403229 0.08738246560097
vn 0.75763702392578 0.57302087545395 0.31246319413185
vn 0.82180911302567 0.51436728239059 -0.24506340920925
vn -0.70633244514465 -0.59525239467621 0.38310441374779
vn -0.50661432743073 -0.32758888602257 -0.7975133061409
vn -0.60614776611328 -0.41815319657326 -0.67655956745148
vn 0.17702336609364 -0.16036728024483 0.97105360031128
vn 0.34402206540108 0.03781711682677 0.93819969892502
vn 0.490607380867 0.25566163659096 0.83303153514862
vn -0.1178907752037 0 -0.9930265545845
vn -0.29709276556969 -0.14719131588936 -0.94343554973602
vn -0.11767913401127 0.00079214212019 -0.99305135011673
vn -0.11701853573322 0.0032948825974 -0.99312424659729
vn -0.11810087412596 -0.00082335865591 -0.99300128221512
vn 0.30965012311935 -0.00577795878053 0.95083302259445
vn 0.43240764737129 0.21535412967205 0.87558335065842
vn 0.34190759062767 0.05724068358541 0.93798863887787
vn 0.59463447332382 0.4074544608593 0.69310224056244
vn 0.48413532972336 0.32382759451866 0.8128644824028
vn 0.56409692764282 0.50645405054092 0.65214949846268
vn -0.19847176969051 -0.06550474464893 -0.97791516780853
vn -0.02364251762629 -0.39522081613541 0.91828185319901
vn 0.278250426054 0.11177872121334 0.9539822936058
vn 0.24397179484367 0.35630831122398 0.90195465087891
vn 0.2663359940052 0.1792144626379 0.94707304239273
vn 0.22024357318878 0.47350934147835 0.85280811786652
vn 0.17416173219681 0.67289793491364 0.71894091367722
vn 0.22224847972393 -0.55257761478424 0.80328297615051
vn 0.26143473386765 -0.29239442944527 0.91986811161041
vn 0.2469444423914 -0.38946783542633 0.88731801509857
vn 0.27297919988632 -0.15298970043659 0.94977706670761
vn 0.28173300623894 -0.09238688647747 0.95503467321396
vn 0.18136584758759 0.18506518006325 0.96584540605545
vn 0.02147234417498 0.34448277950287 0.93854701519012
vn 0.13308674097061 0.22924582660198 0.96422731876373
vn 0.34089663624763 -0.03203878551722 0.9395546913147
vn 0.42460179328918 -0.16242587566376 0.89069139957428
vn 0.3093129992485 0.02420969679952 0.95065206289291
vn 0.47512781620026 -0.25468534231186 0.84225231409073
vn 0.55771219730377 -0.40969753265381 0.72187602519989
vn -0.06076120585203 0.41916227340698 0.90587586164474
vn -0.20300549268723 0.54692846536636 0.81219333410263
vn 0.32141616940498 0.10995708405972 0.9405323266983
vn 0.48373961448669 0.05476503819227 0.87349689006805
vn 0.25943583250046 0.13547803461552 0.95621061325073
vn 0.06249509006739 0.1833481490612 0.98105955123901
vn -0.13918444514275 0.21140639483929 0.96743732690811
vn 0.00127045821864 0.18868480622768 0.9820368885994
vn -0.23957805335522 0.222332701087 0.94507700204849
vn -0.41099166870117 0.24370470643044 0.87846106290817
vn 0.58738797903061 0.01186912320554 0.80921846628189
vn 0.75777989625931 -0.0609565526247 0.64965677261353
vn 0.21970111131668 0.21091836690903 0.95249402523041
vn 0.38798514008522 0.27122375369072 0.88085478544235
vn 0.15239478647709 0.19195218384266 0.96949994564056
vn 0.49922329187393 0.30483394861221 0.81108099222183
vn 0.67981648445129 0.36092063784599 0.63842451572418
vn -0.0259435493499 0.09489508718252 0.9951491355896
vn 0.2014174759388 0.2171580940485 0.9551300406456
vn -0.30439555644989 -0.04217724129558 0.95161151885986
vn 0.43651044368744 0.32371187210083 0.83944582939148
vn -0.11872769892216 -0.00003958223169 -0.99292683601379
vn -0.11708476394415 0.00003811622446 -0.99312192201614
vn -0.6061492562294 -0.41818898916245 -0.67653608322144
vn -0.11451122909784 0.00015979407181 -0.9934219121933
vn 0.75581294298172 0.64803385734558 0.09380242973566
vn 0.68463987112045 0.70798796415329 -0.17326655983925
vn 0.57618182897568 0.70649302005768 -0.41095262765884
vn 0.38218039274216 0.65517544746399 -0.65167731046677
vn 0.78919792175293 0.59935027360916 0.13396206498146
vn 0.76033645868301 0.64943021535873 0.01135121937841
vn 0.79857659339905 0.48151996731758 0.36112868785858
vn 0.69811141490936 0.6968104839325 -0.16460730135441
vn 0.66453367471695 0.71213805675507 -0.22639432549477
vn -0.77997696399689 -0.60522931814194 -0.15916456282139
vn -0.75284761190414 -0.56717658042908 -0.33396285772324
vn -0.70547193288803 -0.59764498472214 0.38095900416374
vn -0.70382916927338 -0.59842014312744 0.38277649879456
vn -0.70656704902649 -0.5971137881279 0.37976065278053
vn -0.70600581169128 -0.59739255905151 0.38036549091339
vn -0.73788899183273 -0.61337554454803 0.28158539533615
vn 0.56248664855957 0.75874102115631 -0.32851308584213
vn 0.44426521658897 0.80407702922821 -0.39508044719696
vn 0.60818856954575 0.73762631416321 -0.29328149557114
vn 0.35377976298332 0.82506722211838 -0.44057235121727
vn 0.18081201612949 0.84483337402344 -0.50355094671249
vn 0.93216007947922 0.36202311515808 0.00410611508414
vn 0.88466638326645 0.46198523044586 -0.0627302005887
vn 0.97722214460373 0.16188225150108 0.13722631335258
vn 0.79256194829941 0.58852303028107 -0.15964385867119
vn 0.75000506639481 0.63375461101532 -0.18933428823948
vn -0.70602995157242 -0.59738510847092 0.38033241033554
# 129 normals

vt 0.49995157122612 0.00212597846985 0
vt 0.5 0 0
vt 0.5 0.00239622592926 0
vt 0.49946200847626 0.00165581703186 0
vt 0.2547627389431 0.75476276874542 0
vt 0.25495859980583 0.75495862960815 0
vt 0.49977412819862 0.00184786319733 0
vt 0.25515449047089 0.75515449047089 0
vt 0.50004839897156 0.00212597846985 0
vt 0.50022584199905 0.00184786319733 0
vt 0.25535038113594 0.75535035133362 0
vt 0.5 1 0
vt 0.74464964866638 0.75535035133362 0
vt 0.50053799152374 0.00165581703186 0
vt 0.74484550952911 0.75515449047089 0
vt 0.74504137039185 0.75495862960815 0
vt 0.74523729085922 0.75476276874542 0
vt 0.72123175859451 0.68088132143021 0
vt 0.7209849357605 0.68092042207718 0
vt 0.72073811292648 0.68095946311951 0
vt 0.72049129009247 0.68099856376648 0
vt 0.2555835545063 0.75463271141052 0
vt 0.25530993938446 0.75467610359192 0
vt 0.25503632426262 0.75471937656403 0
vt 0.72100907564163 0.68099474906921 0
vt 0.19191606342793 0.95058107376099 0
vt 0.72056376934052 0.68122166395187 0
vt 0.72078639268875 0.68110823631287 0
vt 0.19167397916317 0.95066893100739 0
vt 0.19139903783798 0.95069444179535 0
vt 0.19111704826355 0.95064401626587 0
vt 0.74496364593506 0.75471937656403 0
vt 0.74469006061554 0.75467610359192 0
vt 0.27926191687584 0.68095946311951 0
vt 0.27950873970985 0.68099856376648 0
vt 0.27901509404182 0.68092042207718 0
vt 0.27876827120781 0.68088132143021 0
vt 0.74441647529602 0.75463271141052 0
vt 0.27899092435837 0.68099474906921 0
vt 0.27921357750893 0.68110823631287 0
vt 0.80832600593567 0.95066893100739 0
vt 0.80808395147324 0.95058107376099 0
vt 0.27943626046181 0.68122166395187 0
vt 0.80860096216202 0.95069444179535 0
vt 0.80888295173645 0.95064401626587 0
# 45 texture coordinates

o Decagon_web
usemtl Mat
f 7/1/1 15/2/2 17/3/3
f 3/4/4 2/5/4 11/6/5 6/7/5
f 6/7/5 11/6/5 14/8/5 7/1/5
f 8/9/6 15/2/7 4/10/8
f 17/3/9 15/2/7 8/9/6
f 13/11/4 1/12/4 17/3/4
f 1/12/4 16/13/4 17/3/4
f 7/1/5 14/8/5 13/11/4 17/3/4
f 4/10/8 15/2/7 5/14/10
f 6/7/11 15/2/2 7/1/1
f 3/4/12 15/2/2 6/7/11
f 17/3/4 16/13/4 12/15/4 8/9/4
f 8/9/4 12/15/4 10/16/4 4/10/4
f 4/10/4 10/16/4 9/17/4 5/14/4
f 26/10/13 15/2/14 21/9/15
f 20/14/5 27/18/5 29/19/16 26/10/16
f 26/10/16 29/19/16 18/20/16 21/9/16
f 21/9/16 18/20/16 25/21/4 23/3/4
f 25/21/4 22/22/4 23/3/4
f 21/9/15 15/2/14 23/3/17
f 23/3/18 22/22/18 28/23/5 24/1/5
f 20/14/19 15/2/14 26/10/13
f 24/1/5 28/23/5 30/24/4 19/7/4
f 19/7/4 30/24/4 2/5/5 3/4/5
f 23/3/20 15/2/21 24/1/22
f 19/7/23 15/2/21 3/4/24
f 24/1/22 15/2/21 19/7/23
f 33/10/25 41/25/25 27/18/16 20/14/16
f 36/1/26 15/2/27 42/3/28
f 42/3/29 15/2/30 35/9/31
f 43/26/4 39/27/4 42/3/4
f 35/9/32 32/28/32 41/25/25 33/10/25
f 36/1/33 38/29/33 43/26/34 42/3/34
f 40/7/35 31/30/35 38/29/33 36/1/33
f 34/4/36 37/31/36 31/30/35 40/7/35
f 35/9/31 15/2/30 33/10/37
f 40/7/38 15/2/27 36/1/26
f 34/4/39 15/2/27 40/7/38
f 33/10/37 15/2/30 20/14/40
f 42/3/41 39/27/41 32/28/32 35/9/32
f 47/7/42 51/30/42 37/31/43 34/4/43
f 46/1/44 15/2/45 47/7/46
f 54/27/47 52/26/47 53/3/47
f 46/1/48 49/29/48 51/30/42 47/7/42
f 45/9/49 56/28/49 54/27/50 53/3/50
f 44/10/51 55/25/51 56/28/49 45/9/49
f 48/14/47 50/18/47 55/25/51 44/10/51
f 48/14/52 15/2/53 44/10/54
f 47/7/46 15/2/45 34/4/55
f 44/10/54 15/2/53 45/9/56
f 45/9/56 15/2/53 53/3/57
f 53/3/58 52/26/58 49/29/48 46/1/48
f 53/3/59 15/2/45 46/1/44
f 65/4/60 15/2/61 64/7/62
f 69/22/47 67/21/47 68/3/47
f 64/7/62 15/2/61 60/1/63
f 60/1/63 15/2/61 68/3/64
f 68/3/65 15/2/66 59/9/67
f 58/10/47 57/19/47 50/18/47 48/14/47
f 59/9/47 66/20/47 57/19/47 58/10/47
f 60/1/47 61/23/47 69/22/47 68/3/47
f 58/10/68 15/2/66 48/14/69
f 64/7/47 62/24/47 61/23/47 60/1/47
f 65/4/47 63/5/47 62/24/47 64/7/47
f 59/9/67 15/2/66 58/10/68
f 68/3/47 67/21/47 66/20/47 59/9/47
f 80/9/47 76/15/47 74/13/47 72/3/47
f 79/10/47 75/16/47 76/15/47 80/9/47
f 77/14/47 70/17/47 75/16/47 79/10/47
f 77/14/70 15/2/71 79/10/72
f 81/7/73 15/2/74 65/4/75
f 81/7/47 78/6/47 63/5/47 65/4/47
f 82/1/47 83/8/47 78/6/47 81/7/47
f 82/1/76 15/2/74 81/7/73
f 72/3/77 15/2/74 82/1/76
f 79/10/72 15/2/71 80/9/78
f 80/9/78 15/2/71 72/3/79
f 74/13/47 71/12/47 72/3/47
f 71/12/47 73/11/47 72/3/47
f 72/3/47 73/11/47 83/8/47 82/1/47
f 94/10/47 84/32/47 70/17/47 77/14/47
f 92/9/47 96/33/47 84/32/47 94/10/47
f 91/1/47 93/34/47 88/35/47 89/3/47
f 87/7/47 95/36/47 93/34/47 91/1/47
f 86/4/47 85/37/47 95/36/47 87/7/47
f 94/10/80 15/2/81 77/14/82
f 86/4/83 15/2/84 87/7/85
f 87/7/85 15/2/84 91/1/86
f 91/1/86 15/2/84 89/3/87
f 92/9/88 15/2/81 94/10/80
f 88/35/47 90/38/47 89/3/47
f 89/3/47 90/38/47 96/33/47 92/9/47
f 89/3/89 15/2/81 92/9/88
f 108/7/90 15/2/91 86/4/92
f 107/1/93 15/2/91 108/7/90
f 105/3/94 15/2/91 107/1/93
f 103/9/95 15/2/96 105/3/97
f 102/10/98 15/2/96 103/9/95
f 101/14/55 15/2/96 102/10/98
f 108/7/99 100/39/99 85/37/47 86/4/47
f 107/1/100 109/40/100 100/39/99 108/7/99
f 103/9/48 97/41/48 104/42/58 105/3/58
f 104/42/47 106/43/47 105/3/47
f 102/10/42 98/44/42 97/41/48 103/9/48
f 101/14/101 99/45/101 98/44/42 102/10/42
f 105/3/102 106/43/102 109/40/100 107/1/100
f 118/10/103 15/2/104 101/14/39
f 117/9/105 15/2/104 118/10/103
f 120/3/106 15/2/104 117/9/105
f 116/1/107 15/2/108 120/3/109
f 115/7/110 15/2/108 116/1/107
f 114/4/111 15/2/108 115/7/110
f 118/10/112 113/44/112 99/45/113 101/14/113
f 117/9/33 122/41/33 113/44/112 118/10/112
f 119/43/4 121/42/4 120/3/4
f 116/1/114 110/40/114 119/43/115 120/3/115
f 115/7/116 111/39/116 110/40/114 116/1/114
f 114/4/117 112/37/117 111/39/116 115/7/116
f 120/3/118 121/42/118 122/41/33 117/9/33
f 129/7/119 15/2/120 114/4/121
f 128/1/122 15/2/120 129/7/119
f 133/3/123 15/2/120 128/1/122
f 127/9/124 15/2/125 133/3/126
f 126/10/127 15/2/125 127/9/124
f 5/14/128 15/2/125 126/10/127
f 129/7/4 125/36/4 112/37/129 114/4/129
f 132/38/4 131/35/4 133/3/4
f 128/1/4 130/34/4 125/36/4 129/7/4
f 127/9/4 123/33/4 132/38/117 133/3/117
f 126/10/4 124/32/4 123/33/4 127/9/4
f 5/14/4 9/17/4 124/32/4 126/10/4
f 133/3/4 131/35/4 130/34/4 128/1/4

