# WaveFront *.obj file (generated by CINEMA 4D)

mtllib ./DecagonShape_69.mtl

v -0.00001648866601 0.0035378204193 -0.00007935290341
v 0.00173245847691 0.00180432002526 -0.00005507347669
v 0.00001474339297 -0.00352501287125 -0.00006256483903
v -0.00000118150263 -0.0035200745333 -0.0000782387142
v -0.00000186380646 -0.00352093670517 -0.0000759557588
v 0.00001066656478 -0.00352304195985 -0.00007400202594
v 0.00000390630066 -0.00351929897442 -0.00007862847997
v 0.00000083840365 -0.00351852481253 -0.00007909630222
v -0.0017446767306 0.00180024153087 -0.00008355657337
v -0.0017445217818 0.001801225706 -0.00008522257849
v 0.00173064414412 0.00180585077032 -0.00006340731488
v -0.00174363399856 0.00180245039519 -0.00008643880574
v 0.00171750073787 0.00181196781341 -0.00007179057138
v 0.00172514258884 0.00180856708903 -0.0000695263152
v 0.00000641626639 -0.00353453261778 -0.00007126759738
v -0.00174232490826 0.00180381454993 -0.00008687968511
v 0.00000013438863 -0.00351628381759 -0.00007928040577
v -0.0015752435429 0.00127718085423 -0.00005151371079
v 0.00001056696146 -0.00352304195985 -0.00005116363536
v -0.00000838237429 -0.00352301448584 -0.00003604903031
v 0.00000054167862 -0.00351855834015 -0.00004602583067
v 0.00171571865212 0.00180688931141 -0.00003849462519
v -0.00000001085396 -0.00351628381759 -0.0000459773255
v 0.00000376819207 -0.00351929967292 -0.00004658588296
v -0.00157040788326 0.00127847166732 -0.00005282619531
v -0.00000593826417 -0.00352158187889 -0.00004287479896
v -0.00158022157848 0.00127614452504 -0.0000429041902
v 0.00172392558306 0.00180518126581 -0.00004068975613
v -0.00157882529311 0.0012763037812 -0.00004788394654
v 0.00173002597876 0.00180415797513 -0.0000467581558
v 0.00216536666267 0.00319439242594 0.00001917656118
v -0.00157573691104 0.00127820752095 -0.0000342088133
v -0.00000605628156 -0.003521600971 -0.00002917818711
v 0.00000186509169 -0.00352094578557 -0.00002927940113
v -0.00000221786649 -0.00351877976209 -0.00002637623766
v -0.00000035449409 -0.00351838488132 -0.00002612559365
v 0.00216603348963 0.00319448183291 0.00001729770156
v 0.00216382509097 0.0031940699555 0.00002029708776
v -0.00157109659631 0.00128002022393 -0.00003281035242
v 0.00000115930823 -0.00352009315975 -0.00002699999823
v -0.00157908338588 0.00127681531012 -0.00003790143455
v -0.00000018334082 -0.00351631175727 -0.00002595922888
v 0.00216215290129 0.00319343130104 0.0000205784454
v -0.00000139674535 -0.00352008128539 -0.000033697459
v -0.00000042595019 -0.00351820210926 -0.00003274957271
v 0.0000002275016 -0.00351820350625 -0.00003251299495
v 0.00000121815253 -0.0035200805869 -0.00003157142783
v -0.00000204712387 -0.00352093949914 -0.00003599155025
v 0.00216390332207 0.0031940867193 0.00001424021957
v -0.00157388637308 0.00127821939532 -0.00004284671013
v 0.00216541509144 0.00319440313615 0.00001540183439
v 0.0021622388158 0.00319344969466 0.00001391235583
v -0.00000009753367 -0.00351629313082 -0.00003262531754
v -0.00157101079822 0.00128003861755 -0.00003947643927
v -0.00157356355339 0.00127861846704 -0.00004117620119
v -0.00157250312623 0.00127925840206 -0.00003994323197
v -0.00157336273696 0.00127809785772 -0.00004450953929
v -0.00000135733126 -0.00352007499896 -0.00003827168985
v 0.00000113270642 -0.00351868267171 -0.00003937924339
v 0.00000546233923 -0.00351985474117 -0.00004016200546
v 0.00172707298771 0.00180415879004 -0.000034902474
v 0.00173550646286 0.00180238683242 -0.00004340088708
v 0.00173880346119 0.00180227507371 -0.00005504580258
v 0.00001516511747 -0.00352453044616 -0.00004657171303
v 0.00002108854642 -0.00352705805562 -0.00006253716128
v -0.00157210917678 0.00127821555361 -0.00004572151374
v -0.00157043698709 0.00127847166732 -0.00004615959188
v -0.00000003992859 -0.00351628381759 -0.00003931072206
v 0.00171568954829 0.00180688931141 -0.00003182802175
v -0.00175101216882 0.00179816631135 -0.00008358420746
v -0.00001645959128 0.0035378204193 -0.00008601950685
v 0.00000016346324 -0.00351628381759 -0.00008594700921
v 0.0017175298417 0.00181196781341 -0.00007845717482
v -0.00174229592085 0.00180381454993 -0.00009354628855
v -0.00174999411684 0.00179942860268 -0.00008857981447
v -0.00174677639734 0.00180141301826 -0.00009222606604
v -0.00000819925117 -0.00352301169187 -0.00007598338561
v 0.00173615384847 0.00180407997686 -0.00006671665324
v -0.00000577259243 -0.00352158467285 -0.00008283060743
v -0.0000018846041 -0.0035187555477 -0.00008558057743
v 0.00001530459849 -0.00352453044616 -0.00007855366857
v 0.0000027757485 -0.00351925147697 -0.00008565479948
v 0.0017283402849 0.00180754461326 -0.00007528592687
v -0.0017494839849 0.00179773848504 -0.00007857749006
v 0.00155125651509 0.00128559139557 -0.00005586374027
v 0.00000205308766 -0.0035209225025 -0.00006262017996
v 0.00000139049905 -0.00352006498724 -0.00006489874067
v 0.00154785823543 0.00128581980243 -0.00005919696196
v 0.00000007623937 -0.00351628381759 -0.00006594719889
v -0.00174072221853 0.00179874384776 -0.00007353923138
v -0.00000007908655 -0.00351835903712 -0.00006594360457
v -0.00000196855399 -0.0035187555477 -0.00006633147859
v 0.00154952018056 0.00128557393327 -0.00005874512863
v -0.00000583240808 -0.00352158467285 -0.00006911525998
v 0.00155075581279 0.00128546461929 -0.00005752512152
v -0.00174574472476 0.00179803266656 -0.00007490089774
v -0.00219588074833 0.00318387383595 -0.00006858284905
v -0.00219741393812 0.00318418606184 -0.00006744835264
v -0.00219806516543 0.00318426708691 -0.00006556364679
v 0.001550910878 0.00128599070013 -0.00005420604793
v -0.00000195090024 -0.00352093670517 -0.00005598587813
v -0.00000126859641 -0.0035200745333 -0.00005826883717
v -0.00000027181267 -0.00351819489151 -0.00005919844989
v -0.00219420786016 0.00318324309774 -0.00006888019561
v 0.00000004729528 -0.00351628381759 -0.00005931052874
v 0.00154833809938 0.0012873983942 -0.000052558069
v 0.00000038283036 -0.0035181902349 -0.00005942355347
v 0.0000013706499 -0.00352006498724 -0.00006034748367
v 0.00154983438551 0.0012866264442 -0.00005299612167
v 0.00155298179016 0.00128560385201 -0.00004720883953
v 0.00155639147852 0.00128421955742 -0.00005084877921
v 0.00155760161579 0.00128354597837 -0.00005583606617
v -0.0021974304691 0.00318418606184 -0.00006367333845
v 0.00000839824133 -0.00352296768688 -0.00006259250949
v 0.00000596880591 -0.00352155347355 -0.00005575556133
v 0.00000207204039 -0.00351874367334 -0.0000530200814
v 0.00000020221984 -0.00351835670881 -0.00005280160258
v -0.00000128853503 -0.0035200745333 -0.00005369705468
v 0.00154830899555 0.0012873983942 -0.00004589146556
v 0.00000001822066 -0.00351628381759 -0.0000526439253
v -0.00219423696399 0.00318324309774 -0.00006221359217
v -0.00219590705819 0.00318387383595 -0.00006252551248
v -0.00174255180173 0.0017990701599 -0.00008066053124
v -0.00174398289528 0.00179953558836 -0.00008188686479
v 0.00155626540072 0.00128369347658 -0.00006083445987
v -0.00000120144125 -0.0035200745333 -0.00007366693171
v 0.00000030859377 -0.00351836299524 -0.00007270383503
v 0.00000216130229 -0.00351874553598 -0.00007223998546
v 0.00000602853243 -0.00352155347355 -0.00006945038331
v 0.00155271799304 0.00128455134109 -0.00006450474029
v 0.00154788722284 0.00128581980243 -0.00006586356176
v -0.0017406931147 0.00179874384776 -0.00008020583482
v 0.000000105314 -0.00351628381759 -0.00007261380233
# 133 vertices

vn 0.09358601272106 -0.42061144113541 -0.90240108966827
vn 0.38973394036293 -0.45894595980644 -0.79842096567154
vn -0.21272461116314 -0.45329841971397 -0.86560314893723
vn -0.90485423803329 0.2912849187851 0.31047040224075
vn -0.78098094463348 0.25095093250275 0.5719199180603
vn -0.40308141708374 0.12859407067299 0.90608441829681
vn -0.03476753458381 -0.4488146007061 -0.8929483294487
vn 0.95282131433487 0.29272145032883 -0.08028497546911
vn -0.00436119409278 0 0.99999046325684
vn -0.19407491385937 0.0611161403358 0.97908109426498
vn -0.70016181468964 -0.57320082187653 -0.42569267749786
vn 0.65233844518662 -0.39519906044006 -0.64673972129822
vn 0.84013396501541 -0.39834582805634 -0.36809712648392
vn 0.70374971628189 0.23161269724369 0.67163378000259
vn 0.61051708459854 0.20116975903511 0.76602846384048
vn 0.7467178106308 0.24549010396004 0.61818051338196
vn 0.90075147151947 0.29547452926636 0.31834200024605
vn 0.55655151605606 -0.63739854097366 0.5328916311264
vn -0.89966326951981 -0.29516580700874 -0.32168793678284
vn -0.75626701116562 -0.24860617518425 -0.60519021749496
vn -0.27543178200722 -0.09159833192825 -0.95694673061371
vn 0.0092324083671 0.00160526263062 -0.9999560713768
vn 0.00436119409278 0 -0.99999046325684
vn 0.96918678283691 0.23379318416119 0.0775737836957
vn -0.18449527025223 0.06074379384518 -0.98095446825027
vn -0.39491149783134 0.12850069999695 -0.90968811511993
vn 0.928646504879 0.10744575411081 0.35506489872932
vn -0.77611923217773 0.25104394555092 -0.57845991849899
vn -0.90210443735123 0.29134494066238 -0.31831708550453
vn -0.53018361330032 -0.74577403068542 0.4033936560154
vn -0.33484929800034 -0.81749671697617 0.46858841180801
vn 0.53901696205139 -0.77439254522324 0.33132594823837
vn -0.12360467016697 -0.85032707452774 0.5115327835083
vn -0.78306180238724 -0.25569233298302 0.56695294380188
vn -0.9050520658493 -0.29607838392258 0.30531677603722
vn 0.97887176275253 -0.09531846642494 0.18089896440506
vn -0.69143146276474 0.62978762388229 -0.35396337509155
vn -0.32327383756638 0.87922060489655 -0.34995028376579
vn -0.5365177989006 0.75873374938965 -0.36942082643509
vn -0.01285462733358 -0.0027700853534 0.99991351366043
vn -0.40928971767426 -0.13270696997643 0.90270191431046
vn 0.37329921126366 -0.12667512893677 0.91902184486389
vn 0.24127362668514 -0.08445530384779 0.96677523851395
vn 0.7359271645546 -0.24154569208622 0.63250839710236
vn 0.89315247535706 -0.29021114110947 0.34359306097031
vn -0.10728976130486 0.94101184606552 -0.32091370224953
vn 0.48653876781464 0.84598058462143 -0.21816703677177
vn 0.70300817489624 0.6965149641037 -0.14368839561939
vn 0.23370280861855 0.9322235584259 -0.27630093693733
vn 0.15289853513241 0.95648050308228 -0.2485298961401
vn -0.20233251154423 -0.06481146067381 0.97716993093491
vn 0.76933830976486 -0.243826135993 -0.59048062562943
vn 0.9017082452774 -0.28835409879684 -0.32213991880417
vn -0.94923025369644 -0.31399163603783 -0.01926513947546
vn -0.9275906085968 -0.37350609898567 0.00829865224659
vn -0.88256710767746 -0.46702495217323 0.05443359166384
vn 0.01285462733358 0.0027700853534 -0.99991351366043
vn 0.38016620278358 -0.11614856868982 -0.91759639978409
vn 0.40761250257492 0.13220481574535 -0.90353411436081
vn 0.19522003829479 0.06251350790262 -0.97876513004303
vn 0.78407520055771 0.25600385665894 -0.56540966033936
vn 0.90507453680038 0.29601302742958 -0.30531364679337
vn -0.02003551833332 -0.93453770875931 0.35529968142509
vn -0.87184637784958 -0.48575356602669 0.06266854703426
vn 0.73540079593658 -0.56702822446823 0.37103193998337
vn 0.86737078428268 -0.38380858302116 0.31679469347
vn 0.95257329940796 -0.1798509657383 0.24547445774078
vn 0.17428627610207 -0.04931942000985 -0.98345911502838
vn -0.98149794340134 -0.1719406992197 -0.08425074070692
vn -0.3109059035778 0.91416317224503 -0.26008307933807
vn 0.10968366265297 0.92317283153534 -0.36840388178825
vn -0.08017690479755 0.93344753980637 -0.34963890910149
vn 0.31508469581604 0.86200571060181 -0.39707401394844
vn 0.46615907549858 0.80553567409515 -0.36579778790474
vn -0.89539164304733 -0.43971252441406 0.07019083946943
vn 0.75030332803726 0.24665628373623 0.61335605382919
vn 0.89966249465942 0.2951343357563 0.32171893119812
vn 0.51865780353546 0.17114420235157 0.83767759799957
vn 0.39488515257835 -0.128502368927 0.90969932079315
vn 0.18446511030197 -0.06074422597885 0.98096013069153
vn -0.962073802948 0.07876294851303 -0.26117113232613
vn 0.77611291408539 -0.25102087855339 0.57847845554352
vn 0.90211260318756 -0.29131636023521 0.3183199763298
vn -0.57923102378845 0.68764740228653 -0.43775847554207
vn 0.92632150650024 0.30343800783157 -0.22327971458435
vn -0.39427343010902 -0.13041146099567 -0.90969294309616
vn -0.18417631089687 -0.06166422739625 -0.98095697164536
vn -0.7749257683754 -0.2546478509903 -0.57848471403122
vn -0.90075212717056 -0.29550597071648 -0.31831094622612
vn 0.50989919900894 0.78805762529373 0.34491738677025
vn 0.03872763365507 0.72315257787704 0.68960171937943
vn 0.28183487057686 0.77297186851501 0.56840437650681
vn -0.37534588575363 0.74007540941238 0.55803567171097
vn -0.57595980167389 0.7495408654213 0.3262802362442
vn 0.77200001478195 -0.24815946817398 -0.58517760038376
vn 0.90483260154724 -0.29138180613518 -0.31044256687164
vn 0.37655597925186 -0.12003269046545 -0.91858464479446
vn -0.13940522074699 0.66098779439926 0.73733389377594
vn 0.63343185186386 0.60504579544067 0.48237293958664
vn -0.20973193645477 0.59412395954132 0.77654957771301
vn -0.43103927373886 0.47128030657768 0.76948034763336
vn 0.16745382547379 -0.0523668192327 -0.98448812961578
vn -0.77994960546494 -0.25468164682388 0.57167810201645
vn -0.90348011255264 -0.29554277658463 0.31044825911522
vn -0.40221929550171 -0.13040991127491 0.90620797872543
vn -0.36375284194946 0.11593610793352 0.9242525100708
vn -0.13267086446285 0.04135484993458 0.99029701948166
vn -0.77420902252197 0.24871760606766 0.58201366662979
vn -0.90487641096115 0.29121950268745 0.31046724319458
vn 0.50089174509048 0.58053833246231 -0.64193671941757
vn 0.31070876121521 0.49820196628571 -0.80947816371918
vn 0.64629417657852 0.67162299156189 -0.36225175857544
vn 0.91856932640076 0.37460830807686 -0.12609115242958
vn 0.87012267112732 0.41752552986145 -0.26183772087097
vn 0.80198228359222 0.45102033019066 -0.39166960120201
vn 0.56997108459473 -0.04121166840196 0.82063055038452
vn 0.09764005988836 0.34407237172127 -0.93385255336761
vn -0.19275562465191 -0.06166393682361 0.97930729389191
vn -0.11161977797747 0.24219837784767 -0.96378469467163
vn 0.96013754606247 0.16392676532269 0.22641535103321
vn -0.67328733205795 -0.58047980070114 0.45795994997025
vn -0.949383020401 -0.15074393153191 -0.27558690309525
vn 0.79807537794113 -0.11083405464888 0.59227657318115
vn 0.85476243495941 -0.01385570224375 0.51883447170258
vn 0.8063639998436 -0.1004421710968 0.58282798528671
vn 0.87490856647491 0.03047351166606 0.48332843184471
vn 0.92151463031769 0.1808048337698 0.34368649125099
vn -0.77692675590515 0.25123631954193 -0.57729119062424
vn -0.90213483572006 0.29125091433525 -0.31831696629524
vn -0.39368548989296 0.12815855443478 -0.91026759147644
vn -0.36376139521599 -0.12043165415525 -0.9236741065979
vn -0.15701724588871 -0.05281883105636 -0.98618239164352
vn -0.75792860984802 -0.24907766282558 -0.60291337966919
vn -0.89465743303299 -0.29349592328072 -0.33682078123093
vn -0.17914098501205 0.05909954756498 -0.98204672336578
vn 0.47254028916359 0.77089327573776 -0.42711731791496
vn -0.33784732222557 0.64871257543564 -0.68193197250366
vn -0.96161633729935 -0.06505113840103 -0.26657521724701
vn 0.4146528840065 0.73467189073563 -0.53695458173752
vn 0.68063902854919 0.62639427185059 -0.37994834780693
vn 0.1042585670948 0.76425164937973 -0.63643503189087
vn -0.82126063108444 0.42570212483406 -0.37987986207008
vn -0.74556547403336 -0.24331946671009 0.62042546272278
vn -0.89756125211716 -0.29349592328072 0.32900449633598
vn -0.38857033848763 -0.12597131729126 0.91276741027832
vn 0.39531418681145 -0.12865446507931 0.90949147939682
vn 0.18624791502953 -0.06136452034116 0.9805845618248
vn 0.77586126327515 -0.25091764330864 0.57886064052582
vn 0.90212899446487 -0.2912592291832 0.31832584738731
vn -0.25763973593712 -0.08300657570362 0.96266901493073
vn -0.82419699430466 -0.10259683430195 0.55693197250366
vn -0.56240111589432 -0.0757562816143 0.82338690757751
vn -0.94720041751862 -0.07204357534647 0.31244367361069
vn -0.41415700316429 -0.05565540120006 0.90850234031677
vn -0.29475638270378 -0.03146670013666 0.95505422353744
vn -0.44141912460327 -0.08740749955177 0.89303362369537
vn -0.45727980136871 -0.09416545927525 0.88432347774506
vn -0.84098070859909 -0.37902057170868 0.38612806797028
vn 0.78140169382095 -0.25111168622971 -0.5712742805481
vn 0.90486299991608 -0.29128777980804 -0.3104422390461
vn 0.40245312452316 -0.1284067183733 -0.90639019012451
vn 0.3950180709362 0.12807938456535 -0.90970128774643
vn 0.22055460512638 0.07082486897707 -0.97279983758926
vn 0.76707488298416 0.25040152668953 -0.59067350625992
vn 0.90351134538651 0.29548034071922 -0.31041684746742
vn 0.19129383563995 -0.0601851195097 -0.97968590259552
# 166 normals

vt 0.49995157122612 0.00212597846985 0
vt 0.5 0 0
vt 0.5 0.00239622592926 0
vt 0.49946200847626 0.00165581703186 0
vt 0.2547627389431 0.75476276874542 0
vt 0.25495859980583 0.75495862960815 0
vt 0.49977412819862 0.00184786319733 0
vt 0.25515449047089 0.75515449047089 0
vt 0.50004839897156 0.00212597846985 0
vt 0.50022584199905 0.00184786319733 0
vt 0.25535038113594 0.75535035133362 0
vt 0.5 1 0
vt 0.74464964866638 0.75535035133362 0
vt 0.50053799152374 0.00165581703186 0
vt 0.74484550952911 0.75515449047089 0
vt 0.74504137039185 0.75495862960815 0
vt 0.74523729085922 0.75476276874542 0
vt 0.72123175859451 0.68088132143021 0
vt 0.7209849357605 0.68092042207718 0
vt 0.72073811292648 0.68095946311951 0
vt 0.72049129009247 0.68099856376648 0
vt 0.2555835545063 0.75463271141052 0
vt 0.25530993938446 0.75467610359192 0
vt 0.25503632426262 0.75471937656403 0
vt 0.72100907564163 0.68099474906921 0
vt 0.19191606342793 0.95058107376099 0
vt 0.72056376934052 0.68122166395187 0
vt 0.72078639268875 0.68110823631287 0
vt 0.19167397916317 0.95066893100739 0
vt 0.19139903783798 0.95069444179535 0
vt 0.19111704826355 0.95064401626587 0
vt 0.74496364593506 0.75471937656403 0
vt 0.74469006061554 0.75467610359192 0
vt 0.27926191687584 0.68095946311951 0
vt 0.27950873970985 0.68099856376648 0
vt 0.27901509404182 0.68092042207718 0
vt 0.27876827120781 0.68088132143021 0
vt 0.74441647529602 0.75463271141052 0
vt 0.27899092435837 0.68099474906921 0
vt 0.27921357750893 0.68110823631287 0
vt 0.80832600593567 0.95066893100739 0
vt 0.80808395147324 0.95058107376099 0
vt 0.27943626046181 0.68122166395187 0
vt 0.80860096216202 0.95069444179535 0
vt 0.80888295173645 0.95064401626587 0
# 45 texture coordinates

o Decagon_web
usemtl Mat
f 7/1/1 15/2/2 17/3/3
f 3/4/4 2/5/4 11/6/5 6/7/5
f 6/7/5 11/6/5 14/8/6 7/1/6
f 8/9/7 15/2/7 4/10/7
f 17/3/8 15/2/8 8/9/8
f 13/11/9 1/12/9 17/3/9
f 1/12/9 16/13/9 17/3/9
f 7/1/6 14/8/6 13/11/10 17/3/10
f 4/10/11 15/2/11 5/14/11
f 6/7/12 15/2/2 7/1/1
f 3/4/13 15/2/2 6/7/12
f 17/3/14 16/13/14 12/15/15 8/9/15
f 8/9/15 12/15/15 10/16/16 4/10/16
f 4/10/16 10/16/16 9/17/17 5/14/17
f 26/10/18 15/2/18 21/9/18
f 20/14/19 27/18/19 29/19/20 26/10/20
f 26/10/20 29/19/20 18/20/21 21/9/21
f 21/9/21 18/20/21 25/21/22 23/3/22
f 25/21/23 22/22/23 23/3/23
f 21/9/24 15/2/24 23/3/24
f 23/3/25 22/22/25 28/23/26 24/1/26
f 20/14/27 15/2/27 26/10/27
f 24/1/26 28/23/26 30/24/28 19/7/28
f 19/7/28 30/24/28 2/5/29 3/4/29
f 23/3/30 15/2/31 24/1/31
f 19/7/32 15/2/32 3/4/32
f 24/1/31 15/2/31 19/7/33
f 33/10/34 41/25/34 27/18/35 20/14/35
f 36/1/36 15/2/36 42/3/36
f 42/3/37 15/2/38 35/9/39
f 43/26/40 39/27/40 42/3/40
f 35/9/41 32/28/41 41/25/34 33/10/34
f 36/1/42 38/29/42 43/26/43 42/3/43
f 40/7/44 31/30/44 38/29/42 36/1/42
f 34/4/45 37/31/45 31/30/44 40/7/44
f 35/9/39 15/2/38 33/10/46
f 40/7/47 15/2/47 36/1/48
f 34/4/49 15/2/47 40/7/47
f 33/10/46 15/2/38 20/14/50
f 42/3/51 39/27/51 32/28/41 35/9/41
f 47/7/52 51/30/52 37/31/53 34/4/53
f 46/1/54 15/2/55 47/7/56
f 54/27/57 52/26/57 53/3/57
f 46/1/58 49/29/58 51/30/52 47/7/52
f 45/9/59 56/28/59 54/27/60 53/3/60
f 44/10/61 55/25/61 56/28/59 45/9/59
f 48/14/62 50/18/62 55/25/61 44/10/61
f 48/14/63 15/2/63 44/10/63
f 47/7/56 15/2/55 34/4/64
f 44/10/65 15/2/66 45/9/66
f 45/9/66 15/2/66 53/3/67
f 53/3/68 52/26/68 49/29/58 46/1/58
f 53/3/69 15/2/55 46/1/54
f 65/4/70 15/2/71 64/7/72
f 69/22/9 67/21/9 68/3/9
f 64/7/72 15/2/71 60/1/73
f 60/1/73 15/2/71 68/3/74
f 68/3/75 15/2/75 59/9/75
f 58/10/76 57/19/76 50/18/77 48/14/77
f 59/9/78 66/20/78 57/19/76 58/10/76
f 60/1/79 61/23/79 69/22/80 68/3/80
f 58/10/81 15/2/81 48/14/81
f 64/7/82 62/24/82 61/23/79 60/1/79
f 65/4/83 63/5/83 62/24/82 64/7/82
f 59/9/84 15/2/84 58/10/84
f 68/3/85 67/21/85 66/20/85 59/9/85
f 80/9/86 76/15/86 74/13/87 72/3/87
f 79/10/88 75/16/88 76/15/86 80/9/86
f 77/14/89 70/17/89 75/16/88 79/10/88
f 77/14/90 15/2/91 79/10/92
f 81/7/93 15/2/93 65/4/94
f 81/7/95 78/6/95 63/5/96 65/4/96
f 82/1/97 83/8/97 78/6/95 81/7/95
f 82/1/98 15/2/93 81/7/93
f 72/3/99 15/2/99 82/1/99
f 79/10/92 15/2/91 80/9/100
f 80/9/100 15/2/91 72/3/101
f 74/13/23 71/12/23 72/3/23
f 71/12/23 73/11/23 72/3/23
f 72/3/102 73/11/102 83/8/97 82/1/97
f 94/10/103 84/32/103 70/17/104 77/14/104
f 92/9/105 96/33/105 84/32/103 94/10/103
f 91/1/106 93/34/106 88/35/107 89/3/107
f 87/7/108 95/36/108 93/34/106 91/1/106
f 86/4/109 85/37/109 95/36/108 87/7/108
f 94/10/110 15/2/111 77/14/112
f 86/4/113 15/2/114 87/7/114
f 87/7/114 15/2/114 91/1/115
f 91/1/116 15/2/116 89/3/116
f 92/9/117 15/2/111 94/10/110
f 88/35/9 90/38/9 89/3/9
f 89/3/118 90/38/118 96/33/105 92/9/105
f 89/3/119 15/2/111 92/9/117
f 108/7/120 15/2/120 86/4/120
f 107/1/121 15/2/121 108/7/121
f 105/3/122 15/2/122 107/1/122
f 103/9/123 15/2/124 105/3/125
f 102/10/126 15/2/124 103/9/123
f 101/14/127 15/2/124 102/10/126
f 108/7/128 100/39/128 85/37/129 86/4/129
f 107/1/130 109/40/130 100/39/128 108/7/128
f 103/9/131 97/41/131 104/42/132 105/3/132
f 104/42/23 106/43/23 105/3/23
f 102/10/133 98/44/133 97/41/131 103/9/131
f 101/14/134 99/45/134 98/44/133 102/10/133
f 105/3/135 106/43/135 109/40/130 107/1/130
f 118/10/136 15/2/136 101/14/136
f 117/9/137 15/2/137 118/10/137
f 120/3/138 15/2/138 117/9/138
f 116/1/139 15/2/139 120/3/140
f 115/7/141 15/2/139 116/1/139
f 114/4/142 15/2/142 115/7/142
f 118/10/143 113/44/143 99/45/144 101/14/144
f 117/9/145 122/41/145 113/44/143 118/10/143
f 119/43/9 121/42/9 120/3/9
f 116/1/146 110/40/146 119/43/147 120/3/147
f 115/7/148 111/39/148 110/40/146 116/1/146
f 114/4/149 112/37/149 111/39/148 115/7/148
f 120/3/150 121/42/150 122/41/145 117/9/145
f 129/7/151 15/2/152 114/4/153
f 128/1/154 15/2/152 129/7/151
f 133/3/155 15/2/152 128/1/154
f 127/9/156 15/2/152 133/3/155
f 126/10/157 15/2/152 127/9/156
f 5/14/158 15/2/158 126/10/158
f 129/7/159 125/36/159 112/37/160 114/4/160
f 132/38/23 131/35/23 133/3/23
f 128/1/161 130/34/161 125/36/159 129/7/159
f 127/9/162 123/33/162 132/38/163 133/3/163
f 126/10/164 124/32/164 123/33/162 127/9/162
f 5/14/165 9/17/165 124/32/164 126/10/164
f 133/3/166 131/35/166 130/34/161 128/1/161

