# WaveFront *.obj file (generated by CINEMA 4D)

mtllib ./DecagonShape_45.mtl

v 0.00150878448039 0.003796919249 -0.00788276270032
v -0.00001163854358 0.00262857740745 -0.00941763631999
v 0.00000861201625 -0.00296786543913 -0.00923928804696
v 0.00001488003363 -0.00296781980433 -0.00923208612949
v 0.00001678616172 -0.00296888360754 -0.00923337321728
v 0.00001091085687 -0.00296711968258 -0.00923530105501
v 0.00001293197147 -0.00296554761007 -0.00923273898661
v 0.00001380554932 -0.00296572386287 -0.00923193525523
v 0.00229382631369 0.00164221192244 -0.00701858708635
v 0.00229273852892 0.00164323206991 -0.00701734423637
v -0.0000101144924 0.00262956134975 -0.00941484980285
v 0.00229153479449 0.00164468062576 -0.00701687438414
v -0.00000619104549 0.00263151433319 -0.00940985884517
v -0.00000829137116 0.00263054086827 -0.00941224675626
v 0.00001237420747 -0.00297940243036 -0.00923666451126
v 0.00229063350707 0.00164636678528 -0.00701721012592
v 0.00001405541298 -0.00296379299834 -0.00923154689372
v -0.00034348282497 0.00101913954131 -0.01232566125691
v 0.00000696927555 -0.00296739931218 -0.00924362614751
v 0.00000498853251 -0.00297138886526 -0.00925135798752
v 0.00000601096235 -0.00296639022417 -0.00924821663648
v -0.00001425175651 0.00262560811825 -0.00942675489932
v 0.00000597540293 -0.00296436599456 -0.00924861151725
v 0.00000621936942 -0.00296602305025 -0.00924689229578
v -0.00034319362021 0.00102026876993 -0.01232377719134
v 0.00000571210148 -0.00296898442321 -0.00924932584167
v -0.000344501168 0.00101690541487 -0.01232934743166
v -0.00001371970848 0.00262659951113 -0.00942362565547
v -0.00034391929512 0.00101801613346 -0.01232752110809
v -0.00001284512018 0.00262758997269 -0.0094205737114
v -0.00236840872094 -0.00080260547111 -0.01553517393768
v -0.00034608997521 0.00101474567782 -0.0123328724876
v 0.00000388326453 -0.00297279073857 -0.00925405044109
v -0.00000059881086 -0.00297566177323 -0.00925423763692
v 0.00000283467898 -0.00297293043695 -0.00925654452294
v 0.00000237931386 -0.00297352508642 -0.0092569263652
v -0.00237035844475 -0.00080259941751 -0.01553474739194
v -0.00236668228172 -0.0008018744993 -0.01553470548242
v -0.00034708972089 0.00101370865013 -0.01233455631882
v 0.00000151280756 -0.00297519587912 -0.00925555918366
v -0.00034522579517 0.00101581332274 -0.01233113370836
v 0.00000219407912 -0.00297223590314 -0.00925838015974
v -0.00236555933952 -0.00080101343337 -0.01553357299417
v -0.00000226375732 -0.00297157349996 -0.00925177522004
v -0.00000310037603 -0.00297144707292 -0.00925394892693
v -0.00000327788393 -0.00297200144269 -0.00925431028008
v -0.00000249501272 -0.00297408294864 -0.00925366114825
v -0.00000137773702 -0.00297055998817 -0.00924956146628
v -0.00237199221738 -0.00080039992463 -0.01553219091147
v -0.00035086742719 0.00101773429196 -0.01232755091041
v -0.00237171817571 -0.00080168637214 -0.01553360745311
v -0.00237140362151 -0.00079939007992 -0.0155308060348
v -0.00000365014921 -0.00297061284073 -0.00925561320037
v -0.00035293397377 0.00101533194538 -0.01233178935945
v -0.00035144656431 0.00101691216696 -0.01232900377363
v -0.00035213647061 0.00101611006539 -0.01233041845262
v -0.00035040162038 0.00101857096888 -0.01232606638223
v -0.00000081210686 -0.00296855228953 -0.00924802478403
v -0.00000057751851 -0.00296626938507 -0.00924720428884
v -0.00000035050999 -0.00296601071022 -0.00924576073885
v -0.00002022175067 0.0026266227942 -0.00942215323448
v -0.00001914698805 0.00262763630599 -0.00941839907318
v -0.00001766450987 0.00262864632532 -0.00941478554159
v 0.0000005691877 -0.0029673629906 -0.00924175977707
v 0.00000258604769 -0.00296779652126 -0.00923643726856
v -0.00035005121026 0.00101941742469 -0.01232455577701
v -0.00034981773933 0.00102026876993 -0.0123230246827
v -0.00000064870051 -0.00296436599456 -0.00924785993993
v -0.00002087585926 0.00262560811825 -0.00942600239068
v 0.00229758745991 0.00163843249902 -0.00701458565891
v 0.00150400295388 0.00379704986699 -0.00787811819464
v 0.00000927393285 -0.00296366238035 -0.00922690331936
v -0.00001097251788 0.00263164471835 -0.00940521527082
v 0.00228585186414 0.00164649728686 -0.0070125660859
v 0.00229360559024 0.00164002703968 -0.00701156258583
v 0.00228927587159 0.00164290645625 -0.00701085850596
v 0.00002054755532 -0.00297266314737 -0.00922937132418
v -0.00001579219497 0.00262965238653 -0.00941135641187
v 0.0000143393936 -0.00297047803178 -0.00922599621117
v 0.00001038073697 -0.00296661653556 -0.00922621786594
v 0.00000540963492 -0.00296701979823 -0.00923153664917
v 0.00000854849986 -0.00296571245417 -0.00922766141593
v -0.00001355254335 0.00263065239415 -0.00940815359354
v 0.00230006151833 0.0016383533366 -0.0070192120038
v 0.00001489307579 0.00207922700793 -0.0094117410481
v 0.00002069739276 -0.0029680300504 -0.0092449625954
v 0.00002194394619 -0.0029673462268 -0.009242804721
v 0.00001530990266 0.00207841931842 -0.00941110122949
v 0.00002365169712 -0.00296408077702 -0.00924081355333
v 0.00229805987328 0.0016416850267 -0.00702858716249
v 0.00002329752715 -0.0029661138542 -0.00924107991159
v 0.00002421134923 -0.00296701933257 -0.0092395991087
v 0.00001512407744 0.00207868800499 -0.00941132754087
v 0.00002418761142 -0.00297076464631 -0.00923552457243
v 0.00001499749396 0.00207895762287 -0.00941152870655
v 0.00230026966892 0.00163961516228 -0.00702430168167
v -0.0004381268227 0.0026031746529 -0.01355209201574
v -0.00043943006312 0.00260295649059 -0.01355350296944
v -0.00044137565419 0.00260282075033 -0.01355392578989
v 0.00001481193794 0.00207949616015 -0.00941196363419
v 0.00001591764703 -0.00296943262219 -0.00925001595169
v 0.00001822994091 -0.00296840025112 -0.00924992468208
v 0.00001918724047 -0.00296629872173 -0.00924973469228
v -0.00043762938003 0.00260314368643 -0.01355034951121
v 0.00001927682388 -0.00296439230442 -0.00925008393824
v 0.00001472237 0.00208003423177 -0.00941242557019
v 0.00001939573849 -0.0029660735745 -0.00924912374467
v 0.00001980910383 -0.00296749826521 -0.00924732908607
v 0.0000147548626 0.00207976531237 -0.00941219273955
v 0.00000825568259 0.00207980745472 -0.00941070821136
v 0.00000851427649 0.00207956158556 -0.00940977782011
v 0.00000887260921 0.00207931478508 -0.00940887909383
v -0.00044318259461 0.00260296603665 -0.01355309132487
v 0.00001466294179 -0.00296794320457 -0.00924213044345
v 0.00001340346262 -0.00296744448133 -0.00924548320472
v 0.00001284325754 -0.00296604377218 -0.00924801453948
v 0.00001282270114 -0.00296627823263 -0.00924892071635
v 0.00001368536778 -0.00296838837676 -0.0092494264245
v 0.00000809973881 0.00208005285822 -0.00941166095436
v 0.00001265047013 -0.00296437460929 -0.0092493519187
v -0.00044425629312 0.00260316138156 -0.0135496230796
v -0.00044414808508 0.00260319048539 -0.01355143170804
v 0.00229423912242 0.00164163066074 -0.00702229747549
v 0.0022944107186 0.00164169725031 -0.00702036498114
v 0.00000932654257 0.00207906682044 -0.00940802507102
v 0.00001816601434 -0.00296791549772 -0.00923526566476
v 0.00001850010449 -0.00296585541219 -0.00923631619662
v 0.00001797514051 -0.00296567659825 -0.00923707801849
v 0.00001643152063 -0.00296722864732 -0.00923905707896
v 0.00000987077601 0.00207881769165 -0.00940722506493
v 0.00001051094205 0.00207856763154 -0.00940647628158
v 0.00229326100089 0.0016418332234 -0.00702396221459
v 0.00001885273377 -0.00296393269673 -0.00923618860543
# 133 vertices

vn -0.63625913858414 -0.18650023639202 0.7485933303833
vn -0.71312266588211 -0.17876070737839 0.67786478996277
vn -0.53860360383987 -0.20955701172352 0.81608331203461
vn 0.87324005365372 -0.01236152555794 -0.48713350296021
vn 0.84129869937897 -0.01417967583984 -0.54038459062576
vn 0.77778363227844 -0.01721462979913 -0.62829631567001
vn -0.39106181263924 -0.2639074921608 0.88171625137329
vn -0.97304254770279 0.15943388640881 -0.16664038598537
vn 0.71723145246506 -0.0195955503732 -0.6965594291687
vn 0.74779891967773 -0.0184542723 -0.66366875171661
vn 0.34305784106255 -0.40856462717056 0.84580510854721
vn -0.78725415468216 -0.15989090502262 0.59553825855255
vn -0.84243541955948 -0.1575710773468 0.5152416229248
vn 0.57686448097229 0.10427152365446 -0.81015729904175
vn 0.41679707169533 0.21804259717464 -0.88246113061905
vn -0.03753359615803 0.44767338037491 -0.89340907335281
vn -0.31008666753769 0.53170126676559 -0.78812438249588
vn -0.90665197372437 -0.07527574151754 0.41510927677155
vn -0.88435554504395 -0.01862899772823 0.4664421081543
vn -0.87068700790405 0.0107896681875 0.491719186306
vn 0.96610772609711 -0.09925107657909 -0.23829612135887
vn 0.97496682405472 -0.07586719840765 -0.20900698006153
vn 0.98739832639694 -0.03293781355023 -0.15478904545307
vn 0.9914163351059 -0.01347342226654 -0.13004642724991
vn 0.99361544847488 0 -0.11281987279654
vn -0.82286936044693 0.09500060230494 0.56023293733597
vn 0.98803472518921 -0.00134857860394 -0.15422564744949
vn 0.97934806346893 -0.00290407706052 -0.20216055214405
vn -0.90704125165939 -0.0769365504384 0.41395285725594
vn 0.95120114088058 -0.00638851849362 -0.30850541591644
vn 0.93050634860992 -0.00830305367708 -0.36618170142174
vn -0.49419829249382 -0.6599594950676 -0.56588113307953
vn -0.93177992105484 -0.31024000048637 0.18851336836815
vn -0.91878443956375 -0.22603273391724 0.32364231348038
vn -0.92098987102509 -0.38654553890228 0.04858182743192
vn 0.92855203151703 -0.17234569787979 -0.32876753807068
vn 0.94212961196899 -0.14914391934872 -0.30024641752243
vn -0.6574581861496 0.57216304540634 0.4902837574482
vn -0.4885191321373 0.75459218025208 0.43810921907425
vn -0.74002587795258 0.45359537005424 0.49660137295723
vn 0.33719369769096 -0.83552879095078 -0.43381100893021
vn 0.87663841247559 -0.24344630539417 -0.4150168299675
vn 0.902472615242 -0.21080577373505 -0.37563827633858
vn 0.67458158731461 -0.58089703321457 -0.45551976561546
vn 0.79976123571396 -0.40596437454224 -0.442238509655
vn 0.25456342101097 -0.88018983602524 -0.40057870745659
vn -0.03300993517041 -0.94830083847046 -0.31565150618553
vn -0.90969181060791 -0.14175248146057 0.39034217596054
vn -0.90897846221924 -0.11009237170219 0.40204206109047
vn -0.32563355565071 0.86579549312592 0.37994864583015
vn -0.05780558288097 0.96690803766251 0.24849019944668
vn -0.9072242975235 -0.07834825664759 0.41328635811806
vn 0.89074552059174 -0.22618186473846 -0.39422604441643
vn -0.80176866054535 -0.58944761753082 0.09858229011297
vn -0.61675536632538 -0.78617459535599 -0.03927259892225
vn 0.68370127677917 -0.21604935824871 -0.69704753160477
vn 0.76316249370575 0.08743652701378 -0.64026385545731
vn -0.87663841247559 0.24344630539417 0.4150168299675
vn -0.94162654876709 -0.13308566808701 0.30923718214035
vn -0.90138363838196 0.21228398382664 0.37741631269455
vn -0.88608348369598 0.23202210664749 0.40127521753311
vn -0.92950016260147 0.17080128192902 0.32688894867897
vn -0.94213974475861 0.14913438260555 0.30021938681602
vn 0.74867594242096 0.43605425953865 -0.49934062361717
vn 0.69844323396683 0.62170869112015 -0.35447898507118
vn 0.57144629955292 0.77972155809402 -0.25589725375175
vn 0.60771095752716 0.77131831645966 -0.18909114599228
vn -0.0638866648078 0.88357990980148 0.46390202641487
vn -0.92336440086365 0.07898662984371 0.37571167945862
vn 0.5347518324852 -0.49754044413567 -0.68300366401672
vn 0.74176406860352 0.63007491827011 -0.22976435720921
vn 0.65544766187668 0.7431508898735 0.13459245860577
vn 0.72766691446304 0.68184381723404 -0.07476531714201
vn -0.99361544847488 0 0.11281987279654
vn 0.57163453102112 0.75743889808655 0.31546834111214
vn 0.40858262777328 0.74572378396988 0.52626633644104
vn 0.41735884547234 -0.28179705142975 -0.86394560337067
vn 0.65707272291183 0.05147528648376 -0.75206768512726
vn 0.59329271316528 -0.05923554301262 -0.80280441045761
vn -0.97502267360687 0.07569431513548 0.2088088542223
vn -0.96610772609711 0.09925107657909 0.23829612135887
vn -0.98760783672333 0.03201916441321 0.15364095568657
vn -0.97934806346893 0.00290407706052 0.20216055214405
vn -0.98803925514221 0.00133797572926 0.15419663488865
vn 0.73293834924698 0.21490426361561 -0.64545911550522
vn 0.74431198835373 0.26080697774887 -0.61480033397675
vn -0.9512100815773 0.00637795124203 0.30847799777985
vn -0.93050634860992 0.00830305367708 0.36618170142174
vn -0.99169385433197 0.01192221883684 0.12806704640388
vn -0.41458442807198 -0.21943554282188 0.88315784931183
vn -0.59097892045975 -0.0929984152317 0.80130845308304
vn 0.04919892549515 -0.45208984613419 0.89061450958252
vn 0.31008270382881 -0.53173816204071 0.78810101747513
vn -0.07208848744631 0.77150958776474 -0.63212037086487
vn 0.6065034866333 0.57048290967941 -0.55380755662918
vn 0.66784864664078 0.57255476713181 -0.47556200623512
vn -0.83906358480453 0.01427996251732 0.54384595155716
vn -0.87324005365372 0.01236152555794 0.48713350296021
vn -0.77659577131271 0.01725365407765 0.62976288795471
vn 0.5391651391983 0.56273728609085 -0.62660014629364
vn -0.37221857905388 0.43512052297592 -0.81983137130737
vn 0.5846374630928 0.56604027748108 -0.58120340108871
vn 0.79294675588608 0.45486772060394 -0.40537732839584
vn 0.9325315952301 0.30425894260406 -0.19445133209229
vn -0.71723145246506 0.0195955503732 0.6965594291687
vn -0.75075060129166 0.01833526603878 0.66033124923706
vn 0.87452989816666 -0.47615218162537 0.09206834435463
vn 0.76120948791504 -0.54489439725876 0.35163941979408
vn 0.88921594619751 -0.25738456845284 -0.37821704149246
vn 0.77091974020004 -0.02024313062429 -0.63661056756973
vn 0.72303211688995 -0.02212012931705 -0.69046014547348
vn 0.84876227378845 -0.01652967184782 -0.52851623296738
vn 0.87953048944473 -0.01472308672965 -0.47561466693878
vn -0.58159816265106 0.80793386697769 -0.09479667246342
vn -0.7149418592453 0.66974073648453 0.20076224207878
vn -0.73180592060089 0.66242784261703 0.16015462577343
vn -0.74720877408981 0.65380734205246 0.11922659724951
vn -0.56941014528275 0.20344366133213 -0.79648149013519
vn -0.34466022253036 0.51537895202637 0.78459787368774
vn -0.51745218038559 0.63147938251495 0.57747477293015
vn 0.71983987092972 -0.02224916219711 -0.69378352165222
vn 0.81701999902725 -0.13401870429516 -0.5608184337616
vn -0.14216387271881 0.35484200716019 0.92405444383621
vn -0.43170979619026 0.73636335134506 0.52095651626587
vn -0.59090840816498 0.71083384752274 0.38150039315224
vn -0.25290930271149 0.7284089922905 0.6367552280426
vn 0.46032673120499 0.46457812190056 0.75648295879364
vn -0.93607515096664 0.19392260909081 -0.29352560639381
vn -0.86363941431046 -0.05119602009654 -0.50150364637375
vn -0.90687388181686 0.4179712831974 -0.05366372317076
vn -0.3712859749794 0.78852587938309 0.49027913808823
vn 0.95474112033844 -0.00877550896257 -0.29730865359306
vn 0.93522208929062 -0.01062087155879 -0.35390236973763
vn 0.98219698667526 -0.00517601706088 -0.1877825409174
vn 0.88192498683929 -0.24065655469894 -0.40533035993576
vn 0.96363133192062 -0.10926049947739 -0.24387867748737
vn 0.99403691291809 -0.00260493857786 -0.10901306569576
vn 0.52635854482651 -0.49226275086403 -0.69327056407928
vn 0.24825094640255 -0.57928860187531 -0.77639949321747
vn 0.99078834056854 -0.00348235992715 -0.13537482917309
vn 0.71550798416138 0.49083033204079 0.49712565541267
vn 0.83500015735626 0.37882587313652 0.39908105134964
vn 0.46264207363129 0.64710128307343 0.60598868131638
vn 0.94373863935471 0.20789881050587 0.25716823339462
vn 0.97680920362473 0.12733660638332 0.17213141918182
vn -0.24138712882996 -0.62340927124023 -0.74370235204697
vn 0.8543958067894 -0.35401922464371 -0.38036581873894
vn 0.85023301839828 -0.35785868763924 -0.38605830073357
vn 0.85850268602371 -0.3501703441143 -0.37463834881783
vn -0.67208749055862 -0.48638862371445 -0.55832296609879
vn -0.41358935832977 -0.57755655050278 -0.70382684469223
vn -0.95053005218506 -0.23494419455528 -0.20320874452591
vn -0.99403691291809 0.00260493857786 0.10901306569576
vn -0.97978502511978 0.00555833010003 0.1999759376049
vn -0.98790293931961 0.00409659463912 0.15501937270164
vn -0.95249372720718 0.00899422820657 0.3044253885746
vn -0.93165469169617 0.0109354481101 0.36318027973175
vn -0.99307012557983 -0.1110987663269 -0.038325432688
vn 0.84695839881897 -0.35928386449814 -0.39188852906227
vn 0.87436020374298 -0.36757785081863 -0.31682929396629
vn 0.84247255325317 -0.35959881544113 -0.40115922689438
vn 0.88768583536148 -0.37047883868217 -0.27342140674591
vn 0.91217160224915 -0.37703973054886 -0.16057413816452
vn -0.14963640272617 0.09298620373011 -0.98435890674591
vn 0.82059103250504 -0.35963517427444 -0.44417661428452
vn 0.8142157793045 -0.45452624559402 0.36119052767754
vn -0.84398317337036 0.01675703562796 0.53610783815384
vn -0.87477272748947 0.0150067973882 0.48430097103119
vn -0.71983987092972 0.02224916219711 0.69378352165222
vn -0.77852445840836 0.0199166238308 0.6272981762886
vn -0.88854962587357 0.25587841868401 0.38079622387886
vn -0.81936585903168 0.13732089102268 0.55658113956451
vn -0.87612330913544 0.47424271702766 -0.08661312609911
vn -0.76126444339752 0.5448192358017 -0.35163676738739
vn -0.74481076002121 0.02130981348455 0.66693538427353
# 175 normals

vt 0.49995157122612 0.00212597846985 0
vt 0.5 0 0
vt 0.5 0.00239622592926 0
vt 0.49946200847626 0.00165581703186 0
vt 0.2547627389431 0.75476276874542 0
vt 0.25495859980583 0.75495862960815 0
vt 0.49977412819862 0.00184786319733 0
vt 0.25515449047089 0.75515449047089 0
vt 0.50004839897156 0.00212597846985 0
vt 0.50022584199905 0.00184786319733 0
vt 0.25535038113594 0.75535035133362 0
vt 0.5 1 0
vt 0.74464964866638 0.75535035133362 0
vt 0.50053799152374 0.00165581703186 0
vt 0.74484550952911 0.75515449047089 0
vt 0.74504137039185 0.75495862960815 0
vt 0.74523729085922 0.75476276874542 0
vt 0.72123175859451 0.68088132143021 0
vt 0.7209849357605 0.68092042207718 0
vt 0.72073811292648 0.68095946311951 0
vt 0.72049129009247 0.68099856376648 0
vt 0.2555835545063 0.75463271141052 0
vt 0.25530993938446 0.75467610359192 0
vt 0.25503632426262 0.75471937656403 0
vt 0.72100907564163 0.68099474906921 0
vt 0.19191606342793 0.95058107376099 0
vt 0.72056376934052 0.68122166395187 0
vt 0.72078639268875 0.68110823631287 0
vt 0.19167397916317 0.95066893100739 0
vt 0.19139903783798 0.95069444179535 0
vt 0.19111704826355 0.95064401626587 0
vt 0.74496364593506 0.75471937656403 0
vt 0.74469006061554 0.75467610359192 0
vt 0.27926191687584 0.68095946311951 0
vt 0.27950873970985 0.68099856376648 0
vt 0.27901509404182 0.68092042207718 0
vt 0.27876827120781 0.68088132143021 0
vt 0.74441647529602 0.75463271141052 0
vt 0.27899092435837 0.68099474906921 0
vt 0.27921357750893 0.68110823631287 0
vt 0.80832600593567 0.95066893100739 0
vt 0.80808395147324 0.95058107376099 0
vt 0.27943626046181 0.68122166395187 0
vt 0.80860096216202 0.95069444179535 0
vt 0.80888295173645 0.95064401626587 0
# 45 texture coordinates

o Decagon_web
usemtl Mat
f 7/1/1 15/2/2 17/3/3
f 3/4/4 2/5/4 11/6/5 6/7/5
f 6/7/5 11/6/5 14/8/6 7/1/6
f 8/9/7 15/2/7 4/10/7
f 17/3/8 15/2/8 8/9/8
f 13/11/9 1/12/9 17/3/9
f 1/12/9 16/13/9 17/3/9
f 7/1/6 14/8/6 13/11/10 17/3/10
f 4/10/11 15/2/11 5/14/11
f 6/7/12 15/2/2 7/1/1
f 3/4/13 15/2/2 6/7/12
f 17/3/14 16/13/14 12/15/15 8/9/15
f 8/9/15 12/15/15 10/16/16 4/10/16
f 4/10/16 10/16/16 9/17/17 5/14/17
f 26/10/18 15/2/19 21/9/20
f 20/14/21 27/18/21 29/19/22 26/10/22
f 26/10/22 29/19/22 18/20/23 21/9/23
f 21/9/23 18/20/23 25/21/24 23/3/24
f 25/21/25 22/22/25 23/3/25
f 21/9/20 15/2/19 23/3/26
f 23/3/27 22/22/27 28/23/28 24/1/28
f 20/14/29 15/2/19 26/10/18
f 24/1/28 28/23/28 30/24/30 19/7/30
f 19/7/30 30/24/30 2/5/31 3/4/31
f 23/3/32 15/2/32 24/1/32
f 19/7/33 15/2/33 3/4/34
f 24/1/35 15/2/33 19/7/33
f 33/10/36 41/25/36 27/18/37 20/14/37
f 36/1/38 15/2/39 42/3/40
f 42/3/41 15/2/41 35/9/41
f 43/26/42 39/27/42 42/3/42
f 35/9/43 32/28/43 41/25/36 33/10/36
f 36/1/44 38/29/44 43/26/45 42/3/45
f 40/7/46 31/30/46 38/29/44 36/1/44
f 34/4/47 37/31/47 31/30/46 40/7/46
f 35/9/48 15/2/49 33/10/49
f 40/7/50 15/2/39 36/1/38
f 34/4/51 15/2/39 40/7/50
f 33/10/49 15/2/49 20/14/52
f 42/3/53 39/27/53 32/28/43 35/9/43
f 47/7/54 51/30/54 37/31/55 34/4/55
f 46/1/56 15/2/56 47/7/57
f 54/27/58 52/26/58 53/3/58
f 46/1/59 49/29/59 51/30/54 47/7/54
f 45/9/60 56/28/60 54/27/61 53/3/61
f 44/10/62 55/25/62 56/28/60 45/9/60
f 48/14/63 50/18/63 55/25/62 44/10/62
f 48/14/64 15/2/65 44/10/65
f 47/7/66 15/2/66 34/4/66
f 44/10/65 15/2/65 45/9/67
f 45/9/68 15/2/68 53/3/68
f 53/3/69 52/26/69 49/29/59 46/1/59
f 53/3/70 15/2/56 46/1/56
f 65/4/71 15/2/72 64/7/73
f 69/22/74 67/21/74 68/3/74
f 64/7/73 15/2/72 60/1/75
f 60/1/75 15/2/72 68/3/76
f 68/3/77 15/2/78 59/9/79
f 58/10/80 57/19/80 50/18/81 48/14/81
f 59/9/82 66/20/82 57/19/80 58/10/80
f 60/1/83 61/23/83 69/22/84 68/3/84
f 58/10/85 15/2/78 48/14/86
f 64/7/87 62/24/87 61/23/83 60/1/83
f 65/4/88 63/5/88 62/24/87 64/7/87
f 59/9/79 15/2/78 58/10/85
f 68/3/89 67/21/89 66/20/82 59/9/82
f 80/9/90 76/15/90 74/13/91 72/3/91
f 79/10/92 75/16/92 76/15/90 80/9/90
f 77/14/93 70/17/93 75/16/92 79/10/92
f 77/14/94 15/2/94 79/10/94
f 81/7/95 15/2/95 65/4/96
f 81/7/97 78/6/97 63/5/98 65/4/98
f 82/1/99 83/8/99 78/6/97 81/7/97
f 82/1/100 15/2/95 81/7/95
f 72/3/101 15/2/101 82/1/101
f 79/10/102 15/2/103 80/9/103
f 80/9/103 15/2/103 72/3/104
f 74/13/105 71/12/105 72/3/105
f 71/12/105 73/11/105 72/3/105
f 72/3/106 73/11/106 83/8/99 82/1/99
f 94/10/107 84/32/107 70/17/108 77/14/108
f 92/9/109 96/33/109 84/32/107 94/10/107
f 91/1/110 93/34/110 88/35/111 89/3/111
f 87/7/112 95/36/112 93/34/110 91/1/110
f 86/4/113 85/37/113 95/36/112 87/7/112
f 94/10/114 15/2/114 77/14/114
f 86/4/115 15/2/116 87/7/116
f 87/7/116 15/2/116 91/1/117
f 91/1/118 15/2/118 89/3/118
f 92/9/119 15/2/119 94/10/120
f 88/35/121 90/38/121 89/3/121
f 89/3/122 90/38/122 96/33/109 92/9/109
f 89/3/123 15/2/119 92/9/119
f 108/7/124 15/2/124 86/4/125
f 107/1/126 15/2/124 108/7/124
f 105/3/127 15/2/127 107/1/127
f 103/9/128 15/2/128 105/3/129
f 102/10/130 15/2/128 103/9/128
f 101/14/131 15/2/131 102/10/131
f 108/7/132 100/39/132 85/37/133 86/4/133
f 107/1/134 109/40/134 100/39/132 108/7/132
f 103/9/135 97/41/135 104/42/136 105/3/136
f 104/42/137 106/43/137 105/3/137
f 102/10/138 98/44/138 97/41/135 103/9/135
f 101/14/139 99/45/139 98/44/138 102/10/138
f 105/3/140 106/43/140 109/40/134 107/1/134
f 118/10/141 15/2/142 101/14/143
f 117/9/144 15/2/142 118/10/141
f 120/3/145 15/2/142 117/9/144
f 116/1/146 15/2/146 120/3/146
f 115/7/147 15/2/147 116/1/148
f 114/4/149 15/2/147 115/7/147
f 118/10/150 113/44/150 99/45/151 101/14/151
f 117/9/152 122/41/152 113/44/150 118/10/150
f 119/43/153 121/42/153 120/3/153
f 116/1/154 110/40/154 119/43/155 120/3/155
f 115/7/156 111/39/156 110/40/154 116/1/154
f 114/4/157 112/37/157 111/39/156 115/7/156
f 120/3/158 121/42/158 122/41/152 117/9/152
f 129/7/159 15/2/160 114/4/161
f 128/1/162 15/2/160 129/7/159
f 133/3/163 15/2/160 128/1/162
f 127/9/164 15/2/164 133/3/164
f 126/10/165 15/2/165 127/9/165
f 5/14/166 15/2/166 126/10/166
f 129/7/167 125/36/167 112/37/168 114/4/168
f 132/38/169 131/35/169 133/3/169
f 128/1/170 130/34/170 125/36/167 129/7/167
f 127/9/171 123/33/171 132/38/172 133/3/172
f 126/10/173 124/32/173 123/33/171 127/9/171
f 5/14/174 9/17/174 124/32/173 126/10/173
f 133/3/175 131/35/175 130/34/170 128/1/170

