# WaveFront *.obj file (generated by CINEMA 4D)

mtllib ./DecagonShape_19.mtl

v 0.00430148188025 0.0043374733068 -0.01017083320767
v 0.00447363220155 0.00222109933384 -0.01139780320227
v 0.00000933988758 0.00064591894625 -0.01438800245523
v 0.00000634415665 0.000650398375 -0.01438659522682
v 0.00000395574989 0.0006512288237 -0.01438716333359
v 0.00000860453201 0.00064816919621 -0.01438694726676
v 0.00000891288619 0.00065007235389 -0.01438563503325
v 0.00000842832924 0.00065055023879 -0.0143855586648
v 0.00201933062635 0.00464153569192 -0.01101550180465
v 0.00202115345746 0.00464129261672 -0.01101482659578
v 0.00447349483147 0.00222278968431 -0.01139682345092
v 0.00202297628857 0.00464105000719 -0.01101415231824
v 0.00447321962565 0.00222617061809 -0.0113948630169
v 0.00447335746139 0.00222448003478 -0.01139584276825
v 0.00000122582469 0.00064441910945 -0.01439608633518
v 0.00202479911968 0.00464080739766 -0.01101347710937
v 0.00000983333393 0.00065130996518 -0.01438445504755
v 0.00470781279728 -0.00065785023617 -0.01306687667966
v 0.00001104798139 0.00064401194686 -0.01438840571791
v 0.0000109749908 0.0006392862997 -0.01439135242254
v 0.00001325046287 0.00064234586898 -0.01438843645155
v 0.00447404477745 0.00221602781676 -0.01140074338764
v 0.00001491250441 0.00064266828122 -0.01438748650253
v 0.00001310330845 0.00064294278855 -0.01438813470304
v 0.00470768846571 -0.00065632519545 -0.01306599285454
v 0.00001173443161 0.00064122740878 -0.014389812015
v 0.00470806052908 -0.00066090008477 -0.01306864526123
v 0.00447390740737 0.00221771840006 -0.01139976363629
v 0.00470793666318 -0.00065937521867 -0.0130677614361
v 0.00447377003729 0.00221940875053 -0.01139878295362
v 0.00500289304182 -0.00428834324703 -0.01517319492996
v 0.00470830872655 -0.00066395004978 -0.01307041291147
v 0.00001135033745 0.00063703110209 -0.01439257245511
v 0.00000993754111 0.00063582760049 -0.01439744327217
v 0.00001259472901 0.00063515332295 -0.01439317781478
v 0.00001238361619 0.00063471158501 -0.01439365558326
v 0.00500298850238 -0.00428832741454 -0.01517520099878
v 0.00500295544043 -0.0042874449864 -0.01517147570848
v 0.00470843305811 -0.00066547514871 -0.01307129766792
v 0.00001059740225 0.00063524331199 -0.01439504139125
v 0.00470818486065 -0.00066242518369 -0.01306952908635
v 0.00001411409085 0.00063394545577 -0.01439322531223
v 0.0050029377453 -0.00428604101762 -0.01517032459378
v 0.00001227671873 0.00063924043206 -0.01440061349422
v 0.00001347192483 0.00063724542269 -0.01440079137683
v 0.00001319051989 0.00063663598849 -0.01440065912902
v 0.00001112354403 0.00063649809454 -0.01439960859716
v 0.00001203771808 0.00064182083588 -0.01440057624131
v 0.00500369351357 -0.0042856852524 -0.01517788041383
v 0.00495013361797 -0.00008357243496 -0.01516977325082
v 0.00500332098454 -0.00428732344881 -0.01517690811306
v 0.00500383786857 -0.00428389385343 -0.01517813932151
v 0.00001501443239 0.00063609267818 -0.01440104003996
v 0.00495020160452 -0.00008887321746 -0.01516978442669
v 0.00495015643537 -0.00008533932123 -0.01516977697611
v 0.00495017878711 -0.00008710626571 -0.0151697807014
v 0.00495011126623 -0.00008180538862 -0.01516977045685
v 0.00001299173073 0.00064422597643 -0.0144007243216
v 0.00001469680228 0.00064579525497 -0.01440099067986
v 0.000014582326 0.00064647011459 -0.01440097298473
v 0.00490748882294 0.00325178029016 -0.01516313105822
v 0.00490746367723 0.00325373886153 -0.01516312733293
v 0.00490743853152 0.00325569766574 -0.01516312267631
v 0.00001245771909 0.00064737407956 -0.01440064143389
v 0.00001076571971 0.0006493194378 -0.01440037786961
v 0.00495008891448 -0.00008003843686 -0.01516976673156
v 0.00495006563142 -0.00007827155787 -0.01516976300627
v 0.00001650072227 0.00064645608654 -0.01440127100796
v 0.00490751396865 0.00324982148595 -0.01516313478351
v 0.00245313695632 0.00567613402382 -0.01478082127869
v 0.00487608555704 0.00570786511526 -0.01515823882073
v 0.00001168429662 0.00065572437597 -0.01440052129328
v 0.00490736356005 0.00326157361269 -0.01516311150044
v 0.00245894282125 0.00567621039227 -0.01478172559291
v 0.00245507224463 0.00567615916952 -0.01478112302721
v 0.00245700730011 0.0056761847809 -0.0147814238444
v 0.00000538158201 0.00065462931525 -0.01439953967929
v 0.00490741338581 0.00325765623711 -0.01516311895102
v 0.00000788029502 0.00065406196518 -0.01439992897213
v 0.00001012411758 0.00065459456528 -0.01440027821809
v 0.00001014067038 0.00065183278639 -0.01440028101206
v 0.00001060867453 0.00065411668038 -0.01440035365522
v 0.0049073882401 0.00325961480848 -0.01516311522573
v 0.00245120143518 0.00567610887811 -0.01478051953018
v -0.00084634416271 0.00563292391598 -0.01426686812192
v -0.00000205813672 0.00065572216408 -0.01439838018268
v 0.00000029286596 0.00065674958751 -0.01439874712378
v -0.00084110652097 0.00563299283385 -0.0142676839605
v 0.0000024048677 0.00066035741474 -0.01439907588065
v 0.00244733109139 0.00567605765536 -0.01477991696447
v 0.00000179883955 0.00065851525869 -0.01439898088574
v 0.0000024683934 0.00065841694595 -0.01439908519387
v -0.00084285240155 0.00563297001645 -0.01426741201431
v 0.00000341621785 0.00065629079472 -0.01439923327416
v -0.00084459822392 0.00563294673339 -0.01426714006811
v 0.0024492663797 0.00567608326674 -0.01478021871299
v -0.00499834585935 0.00557834329084 -0.01361988298595
v -0.00499981176108 0.00557778310031 -0.01361874025315
v -0.00500053633004 0.00557716563344 -0.01361697167158
v -0.00084809004329 0.00563290109858 -0.01426659617573
v -0.00000748589218 0.00065301061841 -0.01439472939819
v -0.00000716327713 0.00065453263232 -0.0143967596814
v -0.00000719426453 0.00065673945937 -0.01439748425037
v -0.00499661685899 0.00557857193053 -0.01362038776278
v -0.00000779313996 0.00065858557355 -0.01439748704433
v -0.00085158180445 0.00563285546377 -0.01426605228335
v -0.00000661338663 0.00065705354791 -0.0143976630643
v -0.00000461311356 0.00065589719452 -0.01439798250794
v -0.00084983586567 0.00563287828118 -0.01426632422954
v -0.00109170610085 0.00505603430793 -0.01216695643961
v -0.00109006173443 0.00505581544712 -0.01216634828597
v -0.00108841713518 0.00505559612066 -0.01216573920101
v -0.0050002397038 0.00557676283643 -0.01361502707005
v -0.00000312086354 0.0006531876279 -0.0143891563639
v -0.0000055394944 0.00065368786454 -0.01438994146883
v -0.00000749058336 0.00065496150637 -0.01439004857093
v -0.00000800116959 0.0006548150559 -0.01439047977328
v -0.00000768941845 0.00065327779157 -0.01439219340682
v -0.00109335046727 0.00505625363439 -0.01216756552458
v -0.00000869348059 0.00065643829294 -0.01438967231661
v -0.00499751698226 0.00557642476633 -0.01361257303506
v -0.00499908393249 0.00557658309117 -0.01361347734928
v 0.00201568496414 0.00464202137664 -0.01101685035974
v 0.00201750779524 0.00464177876711 -0.01101617608219
v -0.00108677276876 0.00505537725985 -0.01216513104737
v 0.00000200647946 0.00065292866202 -0.01438699662685
v 0.00000098937551 0.0006548895617 -0.0143862478435
v 0.00000035250008 0.00065506587271 -0.01438642758876
v -0.00000096443353 0.00065375101985 -0.01438783388585
v -0.00108512840234 0.00505515793338 -0.0121645219624
v -0.0010834839195 0.00505493907258 -0.01216391380876
v 0.0020138619002 0.00464226445183 -0.0110175255686
v 0.00000081664984 0.00065656966763 -0.0143852904439
# 133 vertices

vn 0.7573316693306 0.14667598903179 -0.63634490966797
vn 0.70492196083069 0.26960900425911 -0.65604573488235
vn 0.82182729244232 -0.07272239774466 -0.56507641077042
vn -0.35927018523216 -0.48976895213127 0.7943874001503
vn -0.35926043987274 -0.48979359865189 0.79437661170959
vn 0.04442477971315 0.84975743293762 -0.5252987742424
vn 0.16286560893059 0.8041986823082 -0.57161110639572
vn 0.31700098514557 0.71597784757614 -0.62200164794922
vn -0.16132383048534 0.89681684970856 -0.41193956136703
vn -0.3592571914196 -0.48975777626038 0.79440015554428
vn 0.38436484336853 0.67339599132538 -0.63150733709335
vn 0.60967111587524 0.42735624313354 -0.66758352518082
vn 0.56602483987808 0.49423286318779 -0.65981036424637
vn -0.3592669069767 -0.48973309993744 0.79441094398499
vn 0.55485808849335 0.3058257997036 -0.77369439601898
vn 0.55401319265366 0.15790542960167 -0.81739544868469
vn 0.54181808233261 0.04578611627221 -0.83924776315689
vn 0.51245909929276 -0.14844554662704 -0.84578341245651
vn 0.55656313896179 0.3717964887619 -0.74297028779984
vn 0.17969655990601 0.9799143075943 -0.08647041767836
vn 0.39983367919922 0.8060114979744 -0.43643841147423
vn 0.32629519701004 0.88857132196426 -0.32244756817818
vn 0.48038384318352 0.65841174125671 -0.57941806316376
vn 0.51215147972107 0.59058797359467 -0.62362384796143
vn -0.35935571789742 -0.49067971110344 0.79378640651703
vn 0.26954174041748 0.06932594627142 -0.96049004793167
vn 0.62241625785828 0.78079235553741 0.05441766232252
vn 0.64088350534439 0.64678305387497 -0.41344892978668
vn 0.64922428131104 0.7160821557045 -0.25638687610626
vn -0.35919544100761 -0.48884320259094 0.79499113559723
vn -0.52476674318314 -0.62363332509995 0.57939738035202
vn -0.43742513656616 -0.55528676509857 0.7073301076889
vn -0.66783910989761 -0.71161198616028 0.21817266941071
vn -0.7029442191124 -0.71117305755615 -0.01011746190488
vn 0.59369051456451 0.52252149581909 -0.61196637153625
vn 0.68305999040604 0.66264140605927 -0.30714067816734
vn 0.60683369636536 0.55500096082687 -0.56896996498108
vn 0.7005512714386 0.71335029602051 -0.01895346306264
vn 0.57226830720901 0.46199288964272 -0.67754822969437
vn -0.35893642902374 -0.4861159324646 0.79677850008011
vn -0.5639865398407 -0.46394765377045 -0.68313378095627
vn -0.64657485485077 -0.57676190137863 -0.49928614497185
vn 0.43933445215225 0.15552900731564 0.88475757837296
vn 0.56284439563751 0.3759828209877 0.7360999584198
vn -0.15391197800636 0 -0.98808455467224
vn -0.35307103395462 -0.21415315568447 -0.91075754165649
vn -0.15377475321293 0.00103848881554 -0.98810535669327
vn -0.1532915532589 0.00429298123345 -0.9881716966629
vn -0.15404380857944 -0.00106928916648 -0.98806345462799
vn 0.3880230486393 0.02267245948315 0.9213707447052
vn 0.50013738870621 0.31112790107727 0.80812257528305
vn 0.41930916905403 0.10666206479073 0.90155589580536
vn 0.63798362016678 0.56412297487259 0.52415853738785
vn 0.53748178482056 0.44958853721619 0.71343076229095
vn 0.57336485385895 0.66377508640289 0.48026591539383
vn -0.24474877119064 -0.09576777368784 -0.96484535932541
vn 0.05568251386285 -0.44075721502304 0.89589762687683
vn 0.33332008123398 0.16413767635822 0.92841613292694
vn 0.25082835555077 0.45069372653961 0.85671484470367
vn 0.30776932835579 0.24671193957329 0.9189185500145
vn 0.19842875003815 0.5835976600647 0.78742605447769
vn 0.10002516955137 0.7899055480957 0.60501581430435
vn 0.32958936691284 -0.58454900979996 0.74139952659607
vn 0.3583051264286 -0.3087557554245 0.88107168674469
vn 0.34830421209335 -0.41568374633789 0.84017330408096
vn 0.35980218648911 -0.1593404263258 0.91932207345963
vn 0.36411765217781 -0.08712451905012 0.92726892232895
vn 0.20216342806816 0.23889255523682 0.94976854324341
vn -0.00882942415774 0.39467778801918 0.91877716779709
vn 0.13598436117172 0.28427854180336 0.94904899597168
vn 0.42865073680878 -0.00430179061368 0.90346002578735
vn 0.53319627046585 -0.13989113271236 0.8343454003334
vn 0.38384300470352 0.05975688248873 0.92146277427673
vn 0.59565013647079 -0.23886623978615 0.76690536737442
vn 0.6864058971405 -0.39565750956535 0.61016565561295
vn -0.11721079051495 0.46417850255966 0.87795215845108
vn -0.29667684435844 0.57389885187149 0.76329743862152
vn 0.38656106591225 0.16898791491985 0.90664964914322
vn 0.57843017578125 0.12759527564049 0.80569100379944
vn 0.30645442008972 0.19063884019852 0.93259990215302
vn 0.05804708227515 0.21472695469856 0.9749476313591
vn -0.16807167232037 0.21039408445358 0.96306085586548
vn -0.01452528778464 0.20983147621155 0.97762966156006
vn -0.28005936741829 0.20401048660278 0.93805462121964
vn -0.4622437953949 0.19637750089169 0.86473494768143
vn 0.69900053739548 0.08996534347534 0.70943957567215
vn 0.87446767091751 0.02617819979787 0.48437696695328
vn 0.24533972144127 0.27822145819664 0.92865562438965
vn 0.4326319694519 0.37771701812744 0.8186326622963
vn 0.16548258066177 0.24210794270039 0.95603311061859
vn 0.55455327033997 0.43276527523994 0.71076357364655
vn 0.72966420650482 0.50963020324707 0.45592454075813
vn -0.2956854403019 -0.0942367836833 0.95062589645386
vn 0.48533126711845 0.45243617892265 0.74816781282425
vn 0.29098328948021 0.30183297395706 0.90786868333817
vn -0.15497705340385 -0.00018506920605 -0.98791807889938
vn -0.15287715196609 0.00017978152027 -0.98824518918991
vn -0.5639653801918 -0.46394997835159 -0.68314969539642
vn -0.64658200740814 -0.57677257061005 -0.49926453828812
vn -0.14968031644821 0.00073498266283 -0.98873418569565
vn 0.60554331541061 0.73909044265747 -0.29506385326386
vn 0.70055419206619 0.71334826946259 -0.0189225319773
vn 0.45848247408867 0.7013047337532 -0.54586219787598
vn -0.08182860910892 0.415821403265 -0.90575748682022
vn 0.66630744934082 0.69923412799835 -0.25904819369316
vn 0.57335734367371 0.71337616443634 -0.40293401479721
vn 0.77874737977982 0.62661677598953 0.03006647340953
vn 0.41974174976349 0.69408231973648 -0.5848645567894
vn 0.34972068667412 0.68146544694901 -0.64288437366486
vn -0.66782170534134 -0.71162980794907 0.2181678712368
vn -0.70293754339218 -0.71118092536926 -0.01002493966371
vn -0.52481132745743 -0.623644053936 0.57934546470642
vn -0.35828304290771 -0.48975756764412 0.79484009742737
vn -0.35530480742455 -0.48971375823021 0.79620283842087
vn -0.36025840044022 -0.4897900223732 0.79392671585083
vn -0.35929441452026 -0.48976576328278 0.79437839984894
vn -0.43746045231819 -0.5552921295166 0.70730406045914
vn 0.18049778044224 0.6750196814537 -0.71538031101227
vn 0.02758039906621 0.6770715713501 -0.73540014028549
vn 0.25045290589333 0.67367994785309 -0.69529032707214
vn -0.08657196164131 0.66548103094101 -0.74137729406357
vn -0.27938362956047 0.63248461484909 -0.72243201732636
vn 0.82687449455261 0.39489829540253 -0.40041720867157
vn 0.72742629051208 0.48293760418892 -0.48746511340141
vn 0.95414137840271 0.2161535769701 -0.20710347592831
vn 0.55919969081879 0.58068722486496 -0.59169083833694
vn 0.48527124524117 0.61710852384567 -0.61942625045776
vn -0.35932835936546 -0.48973792791367 0.79438018798828
vn -0.35922321677208 -0.48978561162949 0.79439836740494
# 129 normals

vt 0.49995157122612 0.00212597846985 0
vt 0.5 0 0
vt 0.5 0.00239622592926 0
vt 0.49946200847626 0.00165581703186 0
vt 0.2547627389431 0.75476276874542 0
vt 0.25495859980583 0.75495862960815 0
vt 0.49977412819862 0.00184786319733 0
vt 0.25515449047089 0.75515449047089 0
vt 0.50004839897156 0.00212597846985 0
vt 0.50022584199905 0.00184786319733 0
vt 0.25535038113594 0.75535035133362 0
vt 0.5 1 0
vt 0.74464964866638 0.75535035133362 0
vt 0.50053799152374 0.00165581703186 0
vt 0.74484550952911 0.75515449047089 0
vt 0.74504137039185 0.75495862960815 0
vt 0.74523729085922 0.75476276874542 0
vt 0.72123175859451 0.68088132143021 0
vt 0.7209849357605 0.68092042207718 0
vt 0.72073811292648 0.68095946311951 0
vt 0.72049129009247 0.68099856376648 0
vt 0.2555835545063 0.75463271141052 0
vt 0.25530993938446 0.75467610359192 0
vt 0.25503632426262 0.75471937656403 0
vt 0.72100907564163 0.68099474906921 0
vt 0.19191606342793 0.95058107376099 0
vt 0.72056376934052 0.68122166395187 0
vt 0.72078639268875 0.68110823631287 0
vt 0.19167397916317 0.95066893100739 0
vt 0.19139903783798 0.95069444179535 0
vt 0.19111704826355 0.95064401626587 0
vt 0.74496364593506 0.75471937656403 0
vt 0.74469006061554 0.75467610359192 0
vt 0.27926191687584 0.68095946311951 0
vt 0.27950873970985 0.68099856376648 0
vt 0.27901509404182 0.68092042207718 0
vt 0.27876827120781 0.68088132143021 0
vt 0.74441647529602 0.75463271141052 0
vt 0.27899092435837 0.68099474906921 0
vt 0.27921357750893 0.68110823631287 0
vt 0.80832600593567 0.95066893100739 0
vt 0.80808395147324 0.95058107376099 0
vt 0.27943626046181 0.68122166395187 0
vt 0.80860096216202 0.95069444179535 0
vt 0.80888295173645 0.95064401626587 0
# 45 texture coordinates

o Decagon_web
usemtl Mat
f 7/1/1 15/2/2 17/3/3
f 3/4/4 2/5/4 11/6/5 6/7/5
f 6/7/5 11/6/5 14/8/5 7/1/5
f 8/9/6 15/2/7 4/10/8
f 17/3/9 15/2/7 8/9/6
f 13/11/4 1/12/4 17/3/4
f 1/12/4 16/13/4 17/3/4
f 7/1/5 14/8/5 13/11/10 17/3/10
f 4/10/8 15/2/7 5/14/11
f 6/7/12 15/2/2 7/1/1
f 3/4/13 15/2/2 6/7/12
f 17/3/5 16/13/5 12/15/5 8/9/5
f 8/9/5 12/15/5 10/16/10 4/10/10
f 4/10/10 10/16/10 9/17/14 5/14/14
f 26/10/15 15/2/16 21/9/17
f 20/14/5 27/18/5 29/19/10 26/10/10
f 26/10/10 29/19/10 18/20/10 21/9/10
f 21/9/10 18/20/10 25/21/4 23/3/4
f 25/21/4 22/22/4 23/3/4
f 21/9/17 15/2/16 23/3/18
f 23/3/5 22/22/5 28/23/4 24/1/4
f 20/14/19 15/2/16 26/10/15
f 24/1/4 28/23/4 30/24/10 19/7/10
f 19/7/10 30/24/10 2/5/4 3/4/4
f 23/3/20 15/2/21 24/1/22
f 19/7/23 15/2/21 3/4/24
f 24/1/22 15/2/21 19/7/23
f 33/10/25 41/25/25 27/18/10 20/14/10
f 36/1/26 15/2/26 42/3/26
f 42/3/27 15/2/28 35/9/29
f 43/26/4 39/27/4 42/3/4
f 35/9/30 32/28/30 41/25/25 33/10/25
f 36/1/31 38/29/31 43/26/32 42/3/32
f 40/7/33 31/30/33 38/29/31 36/1/31
f 34/4/34 37/31/34 31/30/33 40/7/33
f 35/9/29 15/2/28 33/10/35
f 40/7/36 15/2/36 36/1/37
f 34/4/38 15/2/36 40/7/36
f 33/10/35 15/2/28 20/14/39
f 42/3/40 39/27/40 32/28/30 35/9/30
f 47/7/41 51/30/41 37/31/42 34/4/42
f 46/1/43 15/2/44 47/7/44
f 54/27/45 52/26/45 53/3/45
f 46/1/46 49/29/46 51/30/41 47/7/41
f 45/9/47 56/28/47 54/27/48 53/3/48
f 44/10/49 55/25/49 56/28/47 45/9/47
f 48/14/45 50/18/45 55/25/49 44/10/49
f 48/14/50 15/2/51 44/10/52
f 47/7/44 15/2/44 34/4/53
f 44/10/52 15/2/51 45/9/54
f 45/9/54 15/2/51 53/3/55
f 53/3/56 52/26/56 49/29/46 46/1/46
f 53/3/57 15/2/57 46/1/57
f 65/4/58 15/2/59 64/7/60
f 69/22/45 67/21/45 68/3/45
f 64/7/60 15/2/59 60/1/61
f 60/1/61 15/2/59 68/3/62
f 68/3/63 15/2/64 59/9/65
f 58/10/45 57/19/45 50/18/45 48/14/45
f 59/9/45 66/20/45 57/19/45 58/10/45
f 60/1/45 61/23/45 69/22/45 68/3/45
f 58/10/66 15/2/64 48/14/67
f 64/7/45 62/24/45 61/23/45 60/1/45
f 65/4/45 63/5/45 62/24/45 64/7/45
f 59/9/65 15/2/64 58/10/66
f 68/3/45 67/21/45 66/20/45 59/9/45
f 80/9/45 76/15/45 74/13/45 72/3/45
f 79/10/45 75/16/45 76/15/45 80/9/45
f 77/14/45 70/17/45 75/16/45 79/10/45
f 77/14/68 15/2/69 79/10/70
f 81/7/71 15/2/72 65/4/73
f 81/7/45 78/6/45 63/5/45 65/4/45
f 82/1/45 83/8/45 78/6/45 81/7/45
f 82/1/74 15/2/72 81/7/71
f 72/3/75 15/2/72 82/1/74
f 79/10/70 15/2/69 80/9/76
f 80/9/76 15/2/69 72/3/77
f 74/13/45 71/12/45 72/3/45
f 71/12/45 73/11/45 72/3/45
f 72/3/45 73/11/45 83/8/45 82/1/45
f 94/10/45 84/32/45 70/17/45 77/14/45
f 92/9/45 96/33/45 84/32/45 94/10/45
f 91/1/45 93/34/45 88/35/45 89/3/45
f 87/7/45 95/36/45 93/34/45 91/1/45
f 86/4/45 85/37/45 95/36/45 87/7/45
f 94/10/78 15/2/79 77/14/80
f 86/4/81 15/2/82 87/7/83
f 87/7/83 15/2/82 91/1/84
f 91/1/84 15/2/82 89/3/85
f 92/9/86 15/2/79 94/10/78
f 88/35/45 90/38/45 89/3/45
f 89/3/45 90/38/45 96/33/45 92/9/45
f 89/3/87 15/2/79 92/9/86
f 108/7/88 15/2/89 86/4/90
f 107/1/91 15/2/89 108/7/88
f 105/3/92 15/2/89 107/1/91
f 103/9/93 15/2/93 105/3/93
f 102/10/94 15/2/94 103/9/95
f 101/14/53 15/2/94 102/10/94
f 108/7/96 100/39/96 85/37/45 86/4/45
f 107/1/97 109/40/97 100/39/96 108/7/96
f 103/9/46 97/41/46 104/42/56 105/3/56
f 104/42/45 106/43/45 105/3/45
f 102/10/98 98/44/98 97/41/46 103/9/46
f 101/14/99 99/45/99 98/44/98 102/10/98
f 105/3/100 106/43/100 109/40/97 107/1/97
f 118/10/101 15/2/101 101/14/102
f 117/9/103 15/2/101 118/10/101
f 120/3/104 15/2/104 117/9/104
f 116/1/105 15/2/106 120/3/107
f 115/7/108 15/2/106 116/1/105
f 114/4/109 15/2/106 115/7/108
f 118/10/110 113/44/110 99/45/111 101/14/111
f 117/9/112 122/41/112 113/44/110 118/10/110
f 119/43/4 121/42/4 120/3/4
f 116/1/113 110/40/113 119/43/114 120/3/114
f 115/7/115 111/39/115 110/40/113 116/1/113
f 114/4/116 112/37/116 111/39/115 115/7/115
f 120/3/117 121/42/117 122/41/112 117/9/112
f 129/7/118 15/2/119 114/4/120
f 128/1/121 15/2/119 129/7/118
f 133/3/122 15/2/119 128/1/121
f 127/9/123 15/2/124 133/3/125
f 126/10/126 15/2/124 127/9/123
f 5/14/127 15/2/124 126/10/126
f 129/7/4 125/36/4 112/37/4 114/4/4
f 132/38/4 131/35/4 133/3/4
f 128/1/4 130/34/4 125/36/4 129/7/4
f 127/9/116 123/33/116 132/38/128 133/3/128
f 126/10/129 124/32/129 123/33/116 127/9/116
f 5/14/129 9/17/129 124/32/129 126/10/129
f 133/3/10 131/35/10 130/34/4 128/1/4

