# WaveFront *.obj file (generated by CINEMA 4D)

mtllib ./DecagonShape_13.mtl

v -0.00637401128188 0.00034167559352 -0.01337974984199
v -0.00413466338068 -0.00058347173035 -0.01375863794237
v -0.00000908552283 0.00307019427419 -0.01474996190518
v -0.00001241635164 0.00307464040816 -0.01474956702441
v -0.00001205238459 0.00307719781995 -0.01474977657199
v -0.00001117080046 0.00307169998996 -0.01474964432418
v -0.00001343251461 0.00307209417224 -0.01474923267961
v -0.00001369952406 0.00307272444479 -0.0147492159158
v -0.00548707600683 0.00260903174058 -0.01367398444563
v -0.00548778427765 0.00260722078383 -0.01367374975234
v -0.00413645198569 -0.00058273260947 -0.01375833526254
v -0.00548849301413 0.00260540982708 -0.01367351505905
v -0.00414002966136 -0.00058125465875 -0.01375772990286
v -0.00413824105635 -0.00058199383784 -0.0137580325827
v 0.00000001507327 0.00307823508047 -0.01475196424872
v -0.00548920128495 0.00260359863751 -0.01367327943444
v -0.00001528877328 0.00307166948915 -0.0147488527
v -0.00108843075577 -0.00184196932241 -0.01427404768765
v -0.00000789917976 0.00306789227761 -0.01475006341934
v -0.00000265407334 0.00306625897065 -0.01475098077208
v -0.00000724299662 0.00306520960294 -0.01475004293025
v -0.00412929756567 -0.00058568833629 -0.01375954598188
v -0.00000848809123 0.00306375417858 -0.01474972441792
v -0.00000782180905 0.00306556373835 -0.01474995072931
v -0.00109004438855 -0.00184130296111 -0.01427377481014
v -0.00000519912055 0.00306624011137 -0.0147504908964
v -0.00108520360664 -0.00184330262709 -0.014274594374
v -0.00413108617067 -0.00058494956465 -0.01375924330205
v -0.001086817123 -0.00184263591655 -0.01427432056516
v -0.00413287477568 -0.00058421050198 -0.01375894062221
v 0.00275423936546 -0.00342847732827 -0.01492419745773
v -0.0010819764575 -0.00184463593177 -0.01427514012903
v -0.00000037056301 0.0030650915578 -0.01475135423243
v 0.00000481555662 0.00306690321304 -0.01475226413459
v 0.00000103788318 0.00306324008852 -0.01475152280182
v 0.00000170834471 0.00306329759769 -0.01475164946169
v 0.00275617442094 -0.00342795089819 -0.01492448337376
v 0.00275231222622 -0.00342846289277 -0.01492388546467
v -0.00108036282472 -0.00184530252591 -0.01427541300654
v 0.00000276128821 0.00306536094286 -0.01475192047656
v -0.00108358997386 -0.00184396922123 -0.01427486725152
v 0.00000154897941 0.00306136696599 -0.01475151907653
v 0.00275057856925 -0.00342798908241 -0.01492359209806
v 0.00000975848707 0.00306941964664 -0.01475275494158
v 0.00001010085725 0.00306711252779 -0.01475277543068
v 0.00000958542114 0.00306666316465 -0.01475273817778
v 0.00000735607136 0.00306732440367 -0.01475255563855
v 0.00001053145479 0.00307189277373 -0.01475280337036
v 0.00275924196467 -0.00342550198548 -0.01492484286427
v 0.0043307300657 0.00047085323604 -0.01502322219312
v 0.00275789946318 -0.00342691317201 -0.01492470409721
v 0.00276012369432 -0.0034239103552 -0.01492491178215
v 0.00001109429468 0.00306544546038 -0.01475283782929
v 0.00432874821126 0.00046593809384 -0.01502309832722
v 0.004330069758 0.0004692148068 -0.01502318121493
v 0.00432940898463 0.00046757643577 -0.01502314023674
v 0.00433139083907 0.00047249169438 -0.01502326410264
v 0.00001234815591 0.00307373772375 -0.01475291699171
v 0.00001454201083 0.00307451793924 -0.01475305389613
v 0.00001469575454 0.00307518523186 -0.01475306320935
v 0.00557790324092 0.00356357148848 -0.01510128844529
v 0.00557863526046 0.00356538756751 -0.0151013340801
v 0.00557936821133 0.00356720364653 -0.01510138064623
v 0.00001306534159 0.00307684997097 -0.01475296169519
v 0.00001223976778 0.00307930610143 -0.01475290954113
v 0.0043320520781 0.00047413006541 -0.01502330508083
v 0.0043327123858 0.00047576849465 -0.01502334699035
v 0.00001647741192 0.00307442154735 -0.01475317496806
v 0.00557717075571 0.00356175517663 -0.01510124281049
v 0.00422695558518 0.00675970735028 -0.01501672714949
v 0.00649629533291 0.00584098510444 -0.01515877433121
v 0.00001556671668 0.00308485375717 -0.01475311815739
v 0.00558156520128 0.00357265211642 -0.01510151755065
v 0.00423239311203 0.00675750570372 -0.01501706708223
v 0.00422876793891 0.00675897300243 -0.01501684077084
v 0.00423058029264 0.00675823958591 -0.01501695346087
v 0.00000927290603 0.00308630964719 -0.01475272420794
v 0.00558010023087 0.00356901995838 -0.01510142628103
v 0.00001138168045 0.00308480882086 -0.01475285645574
v 0.00001367740333 0.00308442208916 -0.01475299987942
v 0.00001262723254 0.00308186863549 -0.01475293375552
v 0.00001394441279 0.00308379181661 -0.01475301664323
v 0.00558083271608 0.00357083627023 -0.01510147191584
v 0.00422514276579 0.00676044123247 -0.01501661352813
v 0.00113665300887 0.00801078882068 -0.01482329145074
v 0.00000276410879 0.00309022841975 -0.01475231721997
v 0.00000535060371 0.0030902561266 -0.01475247833878
v 0.00114155863412 0.00800880230963 -0.01482359878719
v 0.00000871006523 0.00309275719337 -0.01475268881768
v 0.00422151759267 0.00676190853119 -0.01501638628542
v 0.00000743474902 0.00309129524976 -0.01475260872394
v 0.00000802052182 0.00309094274417 -0.01475264597684
v 0.00113992346451 0.00800946447998 -0.01482349634171
v 0.00000808313507 0.00308861094527 -0.01475264970213
v 0.00113828817848 0.00801012665033 -0.01482339389622
v 0.00422333041206 0.006761174649 -0.01501649990678
v -0.00275225797668 0.00958493817598 -0.01457985490561
v -0.00275420234539 0.00958494842052 -0.01457967795432
v -0.00275614415295 0.00958442129195 -0.01457944419235
v 0.00113501783926 0.00801145099103 -0.01482318900526
v -0.00000478541051 0.00308956718072 -0.01475166343153
v -0.00000272065517 0.00309111154638 -0.01475192513317
v -0.00000164736161 0.00309317931533 -0.01475203502923
v -0.00275050313212 0.0095844687894 -0.01457997784019
v -0.00000147353501 0.00309511297382 -0.01475205179304
v 0.00113174738362 0.00801277440041 -0.01482298504561
v -0.00000096690565 0.00309323891997 -0.01475208252668
v 0.0000004515546 0.00309138954617 -0.01475217193365
v 0.00113338255323 0.00801211223006 -0.01482308655977
v -0.00427800277248 0.00569989997894 -0.01407508738339
v -0.00427864212543 0.00569826643914 -0.01407487504184
v -0.00427928101271 0.00569663243368 -0.0140746627003
v -0.00275786290877 0.00958338472992 -0.01457917131484
v -0.00001042141866 0.00308459438384 -0.01475049462169
v -0.00000967749565 0.00308706145734 -0.01475077215582
v -0.00001002987938 0.00308936648071 -0.01475082989782
v -0.00000952443861 0.00308981351554 -0.01475094631314
v -0.00000731543787 0.00308914808556 -0.01475128997117
v -0.00427736388519 0.00570153398439 -0.01407529879361
v -0.00001101885027 0.00309103447944 -0.01475073210895
v -0.00276004825719 0.00958039052784 -0.0145786581561
v -0.00275918771513 0.00958197750151 -0.01457889657468
v -0.00548565899953 0.0026126538869 -0.01367445476353
v -0.00548636773601 0.00261084293015 -0.01367422007024
v -0.00427992036566 0.00569499889389 -0.01407445129007
v -0.00001288138719 0.00307965325192 -0.01474975142628
v -0.00001449704268 0.00308132125065 -0.0147495334968
v -0.00001435025933 0.00308198691346 -0.01474959775805
v -0.0000121966732 0.00308275851421 -0.01475005317479
v -0.00428055925295 0.00569336488843 -0.01407423894852
v -0.00428119814023 0.00569173134863 -0.01407402660698
v -0.00548495072871 0.00261446507648 -0.01367468945682
v -0.000016255437 0.0030820898246 -0.01474923826754
# 133 vertices

vn 0.19302122294903 0.0136759178713 0.98109924793243
vn 0.17752833664417 0.04915264993906 0.98288744688034
vn 0.17847326397896 0.04954106360674 0.9826967716217
vn -0.18807812035084 -0.05368116497993 -0.98068594932556
vn 0.16281811892986 0.08500112593174 0.98298782110214
vn 0.17197872698307 0.06092238798738 0.98321503400803
vn -0.18810784816742 -0.05367394909263 -0.98068064451218
vn 0.17340855300426 0.05597568303347 0.98325794935226
vn 0.18214021623135 0.03695472702384 0.98257786035538
vn 0.1795646250248 0.04143387451768 0.98287320137024
vn 0.19295845925808 0.03648521751165 0.98052835464478
vn 0.18220835924149 0.04370410740376 0.98228818178177
vn 0.21511849761009 0.02410114370286 0.97629052400589
vn 0.18272896111012 0.04460771381855 0.98215085268021
vn 0.18832963705063 0.03862177580595 0.98134618997574
vn 0.14961615204811 0.06416967511177 0.98665964603424
vn 0.17094445228577 0.04997988417745 0.98401218652725
vn 0.17496091127396 0.04680009931326 0.98346245288849
vn -0.18801864981651 -0.05369560047984 -0.98069655895233
vn 0.2026207447052 0.04356127232313 0.97828793525696
vn 0.1718198210001 0.03993528336287 0.98431861400604
vn 0.18179628252983 0.04245248064399 0.98241943120956
vn 0.15156273543835 0.0393922328949 0.9876623749733
vn -0.18813759088516 -0.05366672948003 -0.98067533969879
vn -0.17227952182293 -0.04688097909093 -0.98393189907074
vn -0.18110826611519 -0.05065812543035 -0.98215758800507
vn -0.15128408372402 -0.03788578510284 -0.98776406049728
vn -0.13912250101566 -0.03269965946674 -0.98973512649536
vn 0.17628705501556 0.04043373093009 0.9835079908371
vn 0.15732938051224 0.0368967615068 0.98685669898987
vn 0.14067371189594 0.03336406871676 0.98949366807938
vn 0.18151892721653 0.04024143889546 0.98256373405457
vn -0.18831987679005 -0.05362508818507 -0.98064261674881
vn -0.09975147992373 -0.01586733199656 -0.99488586187363
vn -0.11198770999908 -0.0210774410516 -0.99348604679108
vn 0.05943496152759 -0.01758135296404 0.99807733297348
vn 0.0838715210557 0.00235860515386 0.99647378921509
vn 0.09622390568256 0.01078495755792 0.99530130624771
vn -0.06247200071812 0 -0.99804669618607
vn -0.07853737473488 -0.00683296751231 -0.99688774347305
vn -0.06246498599648 0.00003044891855 -0.99804717302322
vn -0.06236210092902 0.00019908171089 -0.99805355072021
vn -0.06247901916504 -0.00003044891855 -0.99804627895355
vn 0.07682979106903 -0.00447781104594 0.99703419208527
vn 0.08035053312778 -0.00057827273849 0.99676650762558
vn 0.11043152958155 0.02041233889759 0.99367409944534
vn 0.0984749943018 0.0167084094137 0.99499922990799
vn 0.07502937316895 -0.0031307679601 0.9971764087677
vn -0.06956545263529 -0.00300902756862 -0.9975728392601
vn 0.07669296115637 0.00479074055329 0.99704325199127
vn 0.07383367419243 -0.00262941792607 0.99726712703705
vn 0.07723330706358 0.00992519874126 0.99696362018585
vn 0.08191069960594 0.03526198118925 0.99601566791534
vn 0.07280796766281 -0.00235988455825 0.99734318256378
vn 0.06452307105064 -0.04019162803888 0.99710649251938
vn 0.07139530777931 -0.01540902908891 0.99732905626297
vn 0.07315655052662 -0.01055569667369 0.99726462364197
vn 0.07115568965673 0.01229380536824 0.99738943576813
vn 0.073182284832 0.00454526487738 0.9973081946373
vn 0.0685913041234 0.01673541218042 0.99750447273254
vn 0.07876020669937 -0.0072022639215 0.99686759710312
vn 0.07733499258757 -0.00228546350263 0.99700254201889
vn 0.08772653341293 -0.03132026642561 0.99565207958221
vn 0.0722289532423 0.00415646238253 0.99737942218781
vn 0.05751653015614 0.0399753190577 0.99754387140274
vn 0.07987191528082 0.00373405311257 0.99679815769196
vn 0.0684839785099 0.00999410171062 0.99760216474533
vn 0.07580719143152 0.00692000519484 0.99709850549698
vn 0.06231470033526 0.01504470128566 0.99794316291809
vn 0.05761313810945 0.01715829409659 0.99819153547287
vn 0.03501735627651 0.02943169698119 0.99895322322845
vn 0.06795615702868 0.00908983871341 0.99764692783356
vn 0.10127868503332 -0.01043264847249 0.99480336904526
vn 0.07448665052652 0.01328676380217 0.99713349342346
vn 0.07901965081692 0.01380845252424 0.99677741527557
vn 0.06918279081583 0.01345582306385 0.99751323461533
vn 0.09947754442692 0.01439171563834 0.9949357509613
vn 0.06892953068018 0.01123765669763 0.99755823612213
vn 0.04774689674377 0.01004335749894 0.9988089799881
vn 0.09365536272526 0.01686363294721 0.99546182155609
vn -0.06253278255463 0.00001406070078 -0.9980428814888
vn -0.06244161352515 -0.00000703035039 -0.9980486035347
vn -0.11195747554302 -0.02108450047672 -0.99348926544189
vn -0.06222888082266 -0.00005624279947 -0.99806189537048
vn 0.15476082265377 0.04297531396151 0.98701679706573
vn 0.16696141660213 0.05135466903448 0.98462510108948
vn 0.19090908765793 0.07122361660004 0.97902035713196
vn 0.17567346990108 0.05685859546065 0.98280513286591
vn 0.15252833068371 0.0370522364974 0.98760432004929
vn 0.17041645944118 0.05426809564233 0.98387664556503
vn 0.17390935122967 0.05819858238101 0.98304039239883
vn -0.18812094628811 -0.05373457819223 -0.98067480325699
vn -0.18822352588177 -0.05390368774533 -0.98064583539963
vn -0.18806503713131 -0.05362053960562 -0.98069179058075
vn 0.17915962636471 0.06911969184875 0.98138898611069
vn 0.17685861885548 0.05632773786783 0.98262310028076
vn 0.17746460437775 0.06425958126783 0.98202699422836
vn 0.18559640645981 0.09379304945469 0.97813946008682
vn 0.17787709832191 0.05605764314532 0.98245471715927
vn 0.16898357868195 0.01847567223012 0.9854456782341
vn 0.17354626953602 0.0437655299902 0.98385274410248
vn 0.17406821250916 0.04889891669154 0.9835187792778
vn -0.18807157874107 -0.05365084856749 -0.98068886995316
# 103 normals

vt 0.49995157122612 0.00212597846985 0
vt 0.5 0 0
vt 0.5 0.00239622592926 0
vt 0.49946200847626 0.00165581703186 0
vt 0.2547627389431 0.75476276874542 0
vt 0.25495859980583 0.75495862960815 0
vt 0.49977412819862 0.00184786319733 0
vt 0.25515449047089 0.75515449047089 0
vt 0.50004839897156 0.00212597846985 0
vt 0.50022584199905 0.00184786319733 0
vt 0.25535038113594 0.75535035133362 0
vt 0.5 1 0
vt 0.74464964866638 0.75535035133362 0
vt 0.50053799152374 0.00165581703186 0
vt 0.74484550952911 0.75515449047089 0
vt 0.74504137039185 0.75495862960815 0
vt 0.74523729085922 0.75476276874542 0
vt 0.72123175859451 0.68088132143021 0
vt 0.7209849357605 0.68092042207718 0
vt 0.72073811292648 0.68095946311951 0
vt 0.72049129009247 0.68099856376648 0
vt 0.2555835545063 0.75463271141052 0
vt 0.25530993938446 0.75467610359192 0
vt 0.25503632426262 0.75471937656403 0
vt 0.72100907564163 0.68099474906921 0
vt 0.19191606342793 0.95058107376099 0
vt 0.72056376934052 0.68122166395187 0
vt 0.72078639268875 0.68110823631287 0
vt 0.19167397916317 0.95066893100739 0
vt 0.19139903783798 0.95069444179535 0
vt 0.19111704826355 0.95064401626587 0
vt 0.74496364593506 0.75471937656403 0
vt 0.74469006061554 0.75467610359192 0
vt 0.27926191687584 0.68095946311951 0
vt 0.27950873970985 0.68099856376648 0
vt 0.27901509404182 0.68092042207718 0
vt 0.27876827120781 0.68088132143021 0
vt 0.74441647529602 0.75463271141052 0
vt 0.27899092435837 0.68099474906921 0
vt 0.27921357750893 0.68110823631287 0
vt 0.80832600593567 0.95066893100739 0
vt 0.80808395147324 0.95058107376099 0
vt 0.27943626046181 0.68122166395187 0
vt 0.80860096216202 0.95069444179535 0
vt 0.80888295173645 0.95064401626587 0
# 45 texture coordinates

o Decagon_web
usemtl Mat
f 7/1/1 15/2/2 17/3/3
f 3/4/4 2/5/4 11/6/4 6/7/4
f 6/7/4 11/6/4 14/8/4 7/1/4
f 8/9/5 15/2/2 4/10/6
f 17/3/3 15/2/2 8/9/5
f 13/11/4 1/12/4 17/3/4
f 1/12/4 16/13/4 17/3/4
f 7/1/4 14/8/4 13/11/7 17/3/7
f 4/10/6 15/2/2 5/14/8
f 6/7/9 15/2/2 7/1/1
f 3/4/10 15/2/2 6/7/9
f 17/3/4 16/13/4 12/15/4 8/9/4
f 8/9/4 12/15/4 10/16/4 4/10/4
f 4/10/4 10/16/4 9/17/4 5/14/4
f 26/10/11 15/2/12 21/9/13
f 20/14/7 27/18/7 29/19/7 26/10/7
f 26/10/7 29/19/7 18/20/4 21/9/4
f 21/9/4 18/20/4 25/21/4 23/3/4
f 25/21/4 22/22/4 23/3/4
f 21/9/13 15/2/12 23/3/14
f 23/3/4 22/22/4 28/23/4 24/1/4
f 20/14/15 15/2/12 26/10/11
f 24/1/4 28/23/4 30/24/4 19/7/4
f 19/7/4 30/24/4 2/5/4 3/4/4
f 23/3/14 15/2/12 24/1/16
f 19/7/17 15/2/12 3/4/18
f 24/1/16 15/2/12 19/7/17
f 33/10/19 41/25/19 27/18/4 20/14/4
f 36/1/20 15/2/21 42/3/22
f 42/3/22 15/2/21 35/9/23
f 43/26/4 39/27/4 42/3/4
f 35/9/24 32/28/24 41/25/19 33/10/19
f 36/1/25 38/29/25 43/26/26 42/3/26
f 40/7/27 31/30/27 38/29/25 36/1/25
f 34/4/28 37/31/28 31/30/27 40/7/27
f 35/9/23 15/2/21 33/10/29
f 40/7/30 15/2/21 36/1/20
f 34/4/31 15/2/21 40/7/30
f 33/10/29 15/2/21 20/14/32
f 42/3/33 39/27/33 32/28/24 35/9/24
f 47/7/34 51/30/34 37/31/35 34/4/35
f 46/1/36 15/2/37 47/7/38
f 54/27/39 52/26/39 53/3/39
f 46/1/40 49/29/40 51/30/34 47/7/34
f 45/9/41 56/28/41 54/27/42 53/3/42
f 44/10/43 55/25/43 56/28/41 45/9/41
f 48/14/39 50/18/39 55/25/43 44/10/43
f 48/14/44 15/2/37 44/10/45
f 47/7/38 15/2/37 34/4/46
f 44/10/45 15/2/37 45/9/47
f 45/9/47 15/2/37 53/3/48
f 53/3/49 52/26/49 49/29/40 46/1/40
f 53/3/48 15/2/37 46/1/36
f 65/4/50 15/2/51 64/7/52
f 69/22/39 67/21/39 68/3/39
f 64/7/52 15/2/51 60/1/53
f 60/1/53 15/2/51 68/3/54
f 68/3/54 15/2/51 59/9/55
f 58/10/39 57/19/39 50/18/39 48/14/39
f 59/9/39 66/20/39 57/19/39 58/10/39
f 60/1/39 61/23/39 69/22/39 68/3/39
f 58/10/56 15/2/51 48/14/57
f 64/7/39 62/24/39 61/23/39 60/1/39
f 65/4/39 63/5/39 62/24/39 64/7/39
f 59/9/55 15/2/51 58/10/56
f 68/3/39 67/21/39 66/20/39 59/9/39
f 80/9/39 76/15/39 74/13/39 72/3/39
f 79/10/39 75/16/39 76/15/39 80/9/39
f 77/14/39 70/17/39 75/16/39 79/10/39
f 77/14/58 15/2/59 79/10/60
f 81/7/61 15/2/59 65/4/62
f 81/7/39 78/6/39 63/5/39 65/4/39
f 82/1/39 83/8/39 78/6/39 81/7/39
f 82/1/63 15/2/59 81/7/61
f 72/3/64 15/2/59 82/1/63
f 79/10/60 15/2/59 80/9/65
f 80/9/65 15/2/59 72/3/64
f 74/13/39 71/12/39 72/3/39
f 71/12/39 73/11/39 72/3/39
f 72/3/39 73/11/39 83/8/39 82/1/39
f 94/10/39 84/32/39 70/17/39 77/14/39
f 92/9/39 96/33/39 84/32/39 94/10/39
f 91/1/39 93/34/39 88/35/39 89/3/39
f 87/7/39 95/36/39 93/34/39 91/1/39
f 86/4/39 85/37/39 95/36/39 87/7/39
f 94/10/66 15/2/67 77/14/68
f 86/4/69 15/2/67 87/7/70
f 87/7/70 15/2/67 91/1/71
f 91/1/71 15/2/67 89/3/72
f 92/9/73 15/2/67 94/10/66
f 88/35/39 90/38/39 89/3/39
f 89/3/39 90/38/39 96/33/39 92/9/39
f 89/3/72 15/2/67 92/9/73
f 108/7/74 15/2/75 86/4/76
f 107/1/77 15/2/75 108/7/74
f 105/3/78 15/2/75 107/1/77
f 103/9/79 15/2/75 105/3/78
f 102/10/80 15/2/75 103/9/79
f 101/14/46 15/2/75 102/10/80
f 108/7/81 100/39/81 85/37/39 86/4/39
f 107/1/82 109/40/82 100/39/81 108/7/81
f 103/9/40 97/41/40 104/42/49 105/3/49
f 104/42/39 106/43/39 105/3/39
f 102/10/34 98/44/34 97/41/40 103/9/40
f 101/14/83 99/45/83 98/44/34 102/10/34
f 105/3/84 106/43/84 109/40/82 107/1/82
f 118/10/85 15/2/86 101/14/31
f 117/9/87 15/2/86 118/10/85
f 120/3/88 15/2/86 117/9/87
f 116/1/89 15/2/86 120/3/88
f 115/7/90 15/2/86 116/1/89
f 114/4/91 15/2/86 115/7/90
f 118/10/27 113/44/27 99/45/28 101/14/28
f 117/9/25 122/41/25 113/44/27 118/10/27
f 119/43/4 121/42/4 120/3/4
f 116/1/92 110/40/92 119/43/93 120/3/93
f 115/7/94 111/39/94 110/40/92 116/1/92
f 114/4/4 112/37/4 111/39/94 115/7/94
f 120/3/26 121/42/26 122/41/25 117/9/25
f 129/7/95 15/2/96 114/4/97
f 128/1/98 15/2/96 129/7/95
f 133/3/99 15/2/96 128/1/98
f 127/9/100 15/2/96 133/3/99
f 126/10/101 15/2/96 127/9/100
f 5/14/102 15/2/96 126/10/101
f 129/7/4 125/36/4 112/37/4 114/4/4
f 132/38/4 131/35/4 133/3/4
f 128/1/103 130/34/103 125/36/4 129/7/4
f 127/9/4 123/33/4 132/38/4 133/3/4
f 126/10/103 124/32/103 123/33/4 127/9/4
f 5/14/4 9/17/4 124/32/103 126/10/103
f 133/3/103 131/35/103 130/34/103 128/1/103

