# WaveFront *.obj file (generated by CINEMA 4D)

mtllib ./DecagonShape_21.mtl

v 0.00442026183009 0.00512314774096 -0.01200138218701
v 0.00468242028728 0.00282553373836 -0.01281770132482
v 0.00001057945065 0.00008065807924 -0.01422906666994
v 0.00000723590801 0.00008492819325 -0.01422779913992
v 0.0000046734408 0.0000853067686 -0.01422788482159
v 0.00000971537611 0.00008297657769 -0.01422829553485
v 0.00000997047846 0.0000851470686 -0.01422747969627
v 0.00000943895429 0.00008556543617 -0.0142273735255
v 0.00199022865854 0.00494458852336 -0.01227920781821
v 0.00199216976762 0.00494473101571 -0.01227898616344
v 0.0046822107397 0.00282736914232 -0.01281704939902
v 0.00199411064386 0.00494487397373 -0.01227876450866
v 0.0046817921102 0.00283103948459 -0.01281574554741
v 0.00468200165778 0.00282920431346 -0.01281639747322
v 0.0000014601045 0.00007669060142 -0.01423454470932
v 0.00199605175294 0.00494501646608 -0.01227854192257
v 0.00001089933539 0.00008672075637 -0.01422682404518
v 0.00503903999925 -0.00029995926889 -0.01392815727741
v 0.00001246148622 0.00007893767179 -0.01422953046858
v 0.00001256213181 0.00007370429375 -0.0142314331606
v 0.00001485838948 0.00007759467553 -0.01422981079668
v 0.00468304893002 0.00282002822496 -0.01281965803355
v 0.00001660764428 0.00007832513074 -0.0142293907702
v 0.0000146799548 0.0000782204952 -0.01422959845513
v 0.00503885094076 -0.00029830390122 -0.01392756961286
v 0.00001329385759 0.00007601832476 -0.01423052418977
v 0.00503941765055 -0.0003032705572 -0.01392933446914
v 0.00468283938244 0.00282186339609 -0.01281900517642
v 0.00503922905773 -0.00030161489849 -0.01392874587327
v 0.00468262983486 0.00282369856723 -0.01281835325062
v 0.00548824761063 -0.00424162857234 -0.01532999239862
v 0.00503979576752 -0.00030658155447 -0.01393051072955
v 0.0000130448625 0.00007129918959 -0.01423226948828
v 0.00001101622911 0.00006916886923 -0.01423645671457
v 0.00001443224028 0.00006950477109 -0.01423281338066
v 0.00001420265926 0.00006895011029 -0.0142331412062
v 0.00548803200945 -0.00424185255542 -0.01533197239041
v 0.00548848230392 -0.00424045277759 -0.01532847061753
v 0.00503998436034 -0.00030823718407 -0.0139310983941
v 0.00001212194002 0.00006899327855 -0.01423416659236
v 0.00503960670903 -0.00030492607038 -0.01392992213368
v 0.00001609006176 0.00006851551007 -0.01423302013427
v 0.0054884692654 -0.00423885602504 -0.01532760821283
v 0.00001259265628 0.00007265283057 -0.01423985697329
v 0.0000139962558 0.00007080985961 -0.01424012798816
v 0.00001379460537 0.00007017159078 -0.01423998735845
v 0.000011847108 0.00006981597107 -0.01423877757043
v 0.00001206635898 0.00007518835628 -0.01423975173384
v 0.00548810465261 -0.00423932261765 -0.01533480454236
v 0.00496191112325 -0.00007126042328 -0.01522982213646
v 0.00548802269623 -0.00424095569178 -0.01533376332372
v 0.00548802549019 -0.00423752749339 -0.01533505599946
v 0.0000156461756 0.00006984424544 -0.0142404679209
v 0.00496257515624 -0.00007651823398 -0.01522995531559
v 0.00496213277802 -0.00007301295409 -0.01522986683995
v 0.00496235396713 -0.00007476559404 -0.01522991061211
v 0.00496168993413 -0.00006950768875 -0.0152297783643
v 0.00001273591261 0.00007768849173 -0.01423988584429
v 0.0000142400404 0.00007944565732 -0.01424018666148
v 0.00001405116291 0.0000801027345 -0.01424014847726
v 0.00454413937405 0.00323705095798 -0.01514625921845
v 0.00454389397055 0.00323899369687 -0.01514620985836
v 0.00454364903271 0.00324093666859 -0.01514616142958
v 0.00001185483143 0.00008075364894 -0.014239708893
v 0.00000996765357 0.00008248945232 -0.01423933170736
v 0.00496146874502 -0.0000677550488 -0.01522973366082
v 0.00496124709025 -0.000066002518 -0.01522968988866
v 0.00001594396053 0.00008031182369 -0.01424052752554
v 0.00454438477755 0.00323510798626 -0.01514630857855
v 0.00185145705473 0.00535999145359 -0.01460766792297
v 0.00423650071025 0.00567322317511 -0.0150847248733
v 0.00001015169528 0.0000889587609 -0.01423936896026
v 0.00454291282222 0.00324676488526 -0.01514601428062
v 0.00185717211571 0.00536074163392 -0.01460881065577
v 0.00185336230788 0.00536024104804 -0.01460804883391
v 0.00185526697896 0.00536049157381 -0.01460842974484
v 0.00000406164372 0.0000871381344 -0.01423815079033
v 0.00454340362921 0.00324287917465 -0.01514611206949
v 0.00000658886438 0.00008686507499 -0.01423865556717
v 0.0000087408971 0.00008765501843 -0.01423908676952
v 0.00000906833247 0.00008491345216 -0.0142391519621
v 0.00000927242218 0.00008723665087 -0.01423919294029
v 0.00454315822572 0.00324482214637 -0.01514606270939
v 0.00184955191799 0.00535974092782 -0.01460728608072
v -0.00139640632551 0.00493344385177 -0.01395802851766
v -0.00000339577605 0.00008735877782 -0.01423665881157
v -0.00000119382537 0.00008865274867 -0.01423709932715
v -0.00139125052374 0.00493412092328 -0.01395905949175
v 0.0000004818267 0.00009248224524 -0.01423743460327
v 0.00184574211016 0.00535924034193 -0.01460652425885
v 0.00000009190649 0.00009058181604 -0.01423735637218
v 0.00000076305344 0.00009056195995 -0.01423749048263
v -0.00139296916313 0.00493389507756 -0.01395871583372
v 0.00000193695791 0.00008856011846 -0.01423772517592
v -0.00139468768612 0.00493366923183 -0.01395837217569
v 0.00184764713049 0.0053594908677 -0.01460690516979
v -0.00548341032118 0.00439648097381 -0.01314027607441
v -0.00548469135538 0.0043957917951 -0.01313899550587
v -0.00548511184752 0.00439523393288 -0.01313711795956
v -0.00139812484849 0.00493321800604 -0.01395768485963
v -0.00000809601988 0.0000842123336 -0.0142326336354
v -0.0000082122142 0.00008560488641 -0.01423476543278
v -0.00000856603128 0.00008777189942 -0.01423551514745
v -0.00548175163567 0.00439690845087 -0.01314087491482
v -0.0000093720837 0.00008953640645 -0.01423546392471
v -0.00140156201087 0.00493276678026 -0.01395699661225
v -0.00000803588136 0.00008815160254 -0.01423572190106
v -0.00000593426921 0.00008723558858 -0.01423615124077
v -0.00139984337147 0.00493299216032 -0.01395734027028
v -0.00132240180392 0.00470117619261 -0.01265794038773
v -0.00132065068465 0.00470130471513 -0.01265774015337
v -0.00131889979821 0.0047014337033 -0.01265753991902
v -0.00548446644098 0.00439511938021 -0.01313522458076
v -0.00000290000298 0.0000858747153 -0.01422834023833
v -0.00000548206299 0.00008588194032 -0.01422856375575
v -0.00000759989643 0.00008684651402 -0.01422840636224
v -0.00000815797739 0.00008655041893 -0.01422866806388
v -0.00000793738127 0.00008478220116 -0.01423015445471
v -0.00132415269036 0.0047010476701 -0.01265814062208
v -0.00000892819753 0.00008820766379 -0.01422801520675
v -0.0054813073948 0.00439557991922 -0.0131334271282
v -0.00548303266987 0.00439535127953 -0.01313394214958
v 0.00198634667322 0.00494430307299 -0.01227965205908
v 0.00198828754947 0.004944446031 -0.01227942947298
v -0.00131714879535 0.00470156222582 -0.01265733968467
v 0.00000254361248 0.0000867441413 -0.0142275467515
v 0.00000139184499 0.00008867972065 -0.0142269404605
v 0.00000071025636 0.00008873083425 -0.0142269814387
v -0.00000063588033 0.00008698258171 -0.01422773767263
v -0.0013153977925 0.004701691214 -0.01265713945031
v -0.00131364678964 0.00470181973651 -0.01265693921596
v 0.00198440579697 0.00494416058064 -0.01227987371385
v 0.00000114551142 0.00009049555229 -0.01422629877925
# 133 vertices

vn 0.59169065952301 0.07515693455935 -0.80265408754349
vn 0.51426422595978 0.19210542738438 -0.83583956956863
vn 0.70370537042618 -0.1236576884985 -0.69964814186096
vn -0.08188734948635 -0.3419600725174 0.93613982200623
vn -0.08189662545919 -0.34193277359009 0.93614900112152
vn -0.24361617863178 0.73259252309799 -0.63557797670364
vn -0.12477966398001 0.69509625434875 -0.70800513029099
vn 0.03575775027275 0.6180328130722 -0.78533869981766
vn -0.43029671907425 0.76894110441208 -0.47283643484116
vn 0.11284812539816 0.58095836639404 -0.80607235431671
vn 0.38961085677147 0.33951276540756 -0.85611593723297
vn 0.33364403247833 0.40717619657516 -0.8502289056778
vn -0.08192513883114 -0.34193783998489 0.93614464998245
vn 0.32564637064934 0.17935258150101 -0.92832487821579
vn 0.33758181333542 0.02319127134979 -0.94101047515869
vn 0.33734741806984 -0.09577140212059 -0.93649590015411
vn 0.33615532517433 -0.2899959385395 -0.89604794979095
vn 0.3240595459938 0.25543433427811 -0.91089993715286
vn -0.02880096063018 0.97410023212433 -0.22427503764629
vn 0.15331128239632 0.76460421085358 -0.62600004673004
vn 0.08640052378178 0.86297184228897 -0.49780973792076
vn 0.23124554753304 0.59158164262772 -0.7723708152771
vn 0.26734006404877 0.51241391897202 -0.81606447696686
vn -0.08195681124926 -0.34312722086906 0.93570655584335
vn 0.03585343435407 -0.12088868767023 -0.99201840162277
vn 0.49408656358719 0.85772037506104 -0.14210653305054
vn -0.08184628933668 -0.34079745411873 0.93656730651855
vn -0.28713300824165 -0.56192934513092 0.77575129270554
vn -0.17513793706894 -0.44560009241104 0.87793350219727
vn -0.50364428758621 -0.74917602539062 0.43020665645599
vn -0.58447629213333 -0.78979712724686 0.18603222072124
vn 0.39480128884315 0.53215819597244 -0.748959004879
vn 0.37017312645912 0.45306140184402 -0.81099146604538
vn 0.51110726594925 0.68222975730896 -0.52281153202057
vn 0.39048033952713 0.50291347503662 -0.77110517024994
vn 0.57637304067612 0.78760695457458 -0.21787469089031
vn 0.34155949950218 0.3690955042839 -0.86435270309448
vn -0.08165446668863 -0.33727350831032 0.93785881996155
vn -0.56508558988571 -0.56520628929138 -0.60101592540741
vn -0.61809468269348 -0.6891673207283 -0.37816306948662
vn 0.48690029978752 0.21427309513092 0.84676748514175
vn 0.58178871870041 0.47061401605606 0.66335839033127
vn -0.19613549113274 0 -0.98057681322098
vn -0.38603901863098 -0.26596447825432 -0.88331013917923
vn -0.19612221419811 0.00117630534805 -0.98057878017426
vn -0.19600607454777 0.00489027565345 -0.98059046268463
vn -0.19616064429283 -0.00124507420696 -0.98057097196579
vn 0.44629248976707 0.05557050928473 0.89316010475159
vn 0.47030213475227 0.15331396460533 0.86908614635468
vn 0.61366748809814 0.67593723535538 0.40806990861893
vn 0.48923116922379 0.249451354146 0.83571940660477
vn 0.52468651533127 0.76615399122238 0.37109586596489
vn -0.28419867157936 -0.11931957304478 -0.95131170749664
vn 0.1473682820797 -0.45456287264824 0.87843906879425
vn 0.36995342373848 0.20515403151512 0.90611606836319
vn 0.24003222584724 0.50499540567398 0.82907426357269
vn 0.33070704340935 0.29380026459694 0.89683568477631
vn 0.16085228323936 0.64012467861176 0.75124359130859
vn 0.01719484850764 0.83633935451508 0.54794234037399
vn 0.4310514330864 -0.57404571771622 0.69617968797684
vn 0.44406563043594 -0.29559320211411 0.84583115577698
vn 0.44087329506874 -0.40569967031479 0.80064880847931
vn 0.43395203351974 -0.14487048983574 0.88921213150024
vn 0.43192008137703 -0.06749233603477 0.89938300848007
vn 0.21680200099945 0.26978445053101 0.93819677829742
vn -0.02812539972365 0.40579795837402 0.91352993249893
vn 0.1386216878891 0.31012400984764 0.94053554534912
vn 0.49246752262115 0.03163197264075 0.86975580453873
vn 0.61091494560242 -0.09720128029585 0.78570657968521
vn 0.43760588765144 0.09597815573215 0.8940297961235
vn 0.68156903982162 -0.19392532110214 0.70558953285217
vn 0.77687865495682 -0.34270197153091 0.52821868658066
vn -0.15369427204132 0.46353355050087 0.87264811992645
vn -0.35713121294975 0.54989016056061 0.75503516197205
vn 0.4270296394825 0.2179936170578 0.87756735086441
vn 0.62963211536407 0.19834001362324 0.75114887952805
vn 0.33713510632515 0.23100171983242 0.9126763343811
vn 0.06417706608772 0.22199419140816 0.97293365001678
vn -0.16761536896229 0.18585923314095 0.96817427873611
vn -0.01210673339665 0.20622812211514 0.97842901945114
vn -0.28226986527443 0.163494810462 0.94530057907104
vn -0.46514403820038 0.13135752081871 0.87543487548828
vn 0.7553004026413 0.17225521802902 0.63233649730682
vn 0.9218875169754 0.12428242713213 0.36698406934738
vn 0.25846028327942 0.32005885243416 0.91146069765091
vn 0.17642784118652 0.26795727014542 0.94713890552521
vn 0.33771920204163 0.36871385574341 0.86602300405502
vn 0.70858830213547 0.62140136957169 0.33430966734886
vn -0.24969248473644 -0.14205501973629 0.95784866809845
vn 0.48698255419731 0.54524320363998 0.68231797218323
vn 0.30749979615211 0.35547989606857 0.88265389204025
vn -0.19731159508228 -0.00035164409201 -0.98034077882767
vn -0.1950179040432 0.00033406191505 -0.98079961538315
vn -0.56507933139801 -0.56519395112991 -0.60103338956833
vn -0.61807554960251 -0.68916308879852 -0.37820211052895
vn -0.19151636958122 0.00138018757571 -0.98148846626282
vn 0.41628232598305 0.75686377286911 -0.50385147333145
vn 0.21107828617096 0.64412200450897 -0.73522293567657
vn -0.36114850640297 0.19163317978382 -0.91260534524918
vn 0.67798888683319 0.71297204494476 -0.17889076471329
vn 0.15834119915962 0.61978513002396 -0.76863151788712
vn 0.24329383671284 0.65141761302948 -0.71865373849869
vn 0.07169224321842 0.58150851726532 -0.81037527322769
vn -0.50359326601028 -0.74916243553162 0.43028995394707
vn -0.5844275355339 -0.78982043266296 0.18608640134335
vn -0.08073347806931 -0.34167012572289 0.93634587526321
vn -0.07710906118155 -0.34086319804192 0.93694525957108
vn -0.08311668783426 -0.34220504760742 0.93594193458557
vn -0.17519198358059 -0.44564187526703 0.87790155410767
vn -0.12044913321733 0.53047400712967 -0.83910030126572
vn -0.27412483096123 0.50463283061981 -0.8186582326889
vn -0.04374749213457 0.54493522644043 -0.83733612298965
vn -0.38580018281937 0.47342666983604 -0.79184937477112
vn -0.56002312898636 0.41542506217957 -0.71679574251175
vn 0.68087559938431 0.39504840970039 -0.61672133207321
vn 0.54294842481613 0.45791840553284 -0.70393019914627
vn 0.8758584856987 0.26203867793083 -0.40522536635399
vn 0.32754200696945 0.51577335596085 -0.79164016246796
vn 0.23452016711235 0.53825807571411 -0.80949276685715
# 119 normals

vt 0.49995157122612 0.00212597846985 0
vt 0.5 0 0
vt 0.5 0.00239622592926 0
vt 0.49946200847626 0.00165581703186 0
vt 0.2547627389431 0.75476276874542 0
vt 0.25495859980583 0.75495862960815 0
vt 0.49977412819862 0.00184786319733 0
vt 0.25515449047089 0.75515449047089 0
vt 0.50004839897156 0.00212597846985 0
vt 0.50022584199905 0.00184786319733 0
vt 0.25535038113594 0.75535035133362 0
vt 0.5 1 0
vt 0.74464964866638 0.75535035133362 0
vt 0.50053799152374 0.00165581703186 0
vt 0.74484550952911 0.75515449047089 0
vt 0.74504137039185 0.75495862960815 0
vt 0.74523729085922 0.75476276874542 0
vt 0.72123175859451 0.68088132143021 0
vt 0.7209849357605 0.68092042207718 0
vt 0.72073811292648 0.68095946311951 0
vt 0.72049129009247 0.68099856376648 0
vt 0.2555835545063 0.75463271141052 0
vt 0.25530993938446 0.75467610359192 0
vt 0.25503632426262 0.75471937656403 0
vt 0.72100907564163 0.68099474906921 0
vt 0.19191606342793 0.95058107376099 0
vt 0.72056376934052 0.68122166395187 0
vt 0.72078639268875 0.68110823631287 0
vt 0.19167397916317 0.95066893100739 0
vt 0.19139903783798 0.95069444179535 0
vt 0.19111704826355 0.95064401626587 0
vt 0.74496364593506 0.75471937656403 0
vt 0.74469006061554 0.75467610359192 0
vt 0.27926191687584 0.68095946311951 0
vt 0.27950873970985 0.68099856376648 0
vt 0.27901509404182 0.68092042207718 0
vt 0.27876827120781 0.68088132143021 0
vt 0.74441647529602 0.75463271141052 0
vt 0.27899092435837 0.68099474906921 0
vt 0.27921357750893 0.68110823631287 0
vt 0.80832600593567 0.95066893100739 0
vt 0.80808395147324 0.95058107376099 0
vt 0.27943626046181 0.68122166395187 0
vt 0.80860096216202 0.95069444179535 0
vt 0.80888295173645 0.95064401626587 0
# 45 texture coordinates

o Decagon_web
usemtl Mat
f 7/1/1 15/2/2 17/3/3
f 3/4/4 2/5/4 11/6/4 6/7/4
f 6/7/4 11/6/4 14/8/5 7/1/5
f 8/9/6 15/2/7 4/10/8
f 17/3/9 15/2/7 8/9/6
f 13/11/5 1/12/5 17/3/5
f 1/12/5 16/13/5 17/3/5
f 7/1/5 14/8/5 13/11/4 17/3/4
f 4/10/8 15/2/7 5/14/10
f 6/7/11 15/2/2 7/1/1
f 3/4/12 15/2/2 6/7/11
f 17/3/13 16/13/13 12/15/5 8/9/5
f 8/9/5 12/15/5 10/16/4 4/10/4
f 4/10/4 10/16/4 9/17/5 5/14/5
f 26/10/14 15/2/15 21/9/16
f 20/14/5 27/18/5 29/19/5 26/10/5
f 26/10/5 29/19/5 18/20/5 21/9/5
f 21/9/5 18/20/5 25/21/4 23/3/4
f 25/21/5 22/22/5 23/3/5
f 21/9/16 15/2/15 23/3/17
f 23/3/4 22/22/4 28/23/4 24/1/4
f 20/14/18 15/2/15 26/10/14
f 24/1/4 28/23/4 30/24/5 19/7/5
f 19/7/5 30/24/5 2/5/4 3/4/4
f 23/3/19 15/2/20 24/1/21
f 19/7/22 15/2/20 3/4/23
f 24/1/21 15/2/20 19/7/22
f 33/10/24 41/25/24 27/18/5 20/14/5
f 36/1/25 15/2/25 42/3/25
f 42/3/26 15/2/26 35/9/26
f 43/26/5 39/27/5 42/3/5
f 35/9/27 32/28/27 41/25/24 33/10/24
f 36/1/28 38/29/28 43/26/29 42/3/29
f 40/7/30 31/30/30 38/29/28 36/1/28
f 34/4/31 37/31/31 31/30/30 40/7/30
f 35/9/32 15/2/33 33/10/33
f 40/7/34 15/2/34 36/1/35
f 34/4/36 15/2/34 40/7/34
f 33/10/33 15/2/33 20/14/37
f 42/3/38 39/27/38 32/28/27 35/9/27
f 47/7/39 51/30/39 37/31/40 34/4/40
f 46/1/41 15/2/42 47/7/42
f 54/27/43 52/26/43 53/3/43
f 46/1/44 49/29/44 51/30/39 47/7/39
f 45/9/45 56/28/45 54/27/46 53/3/46
f 44/10/47 55/25/47 56/28/45 45/9/45
f 48/14/43 50/18/43 55/25/47 44/10/47
f 48/14/48 15/2/49 44/10/49
f 47/7/42 15/2/42 34/4/50
f 44/10/49 15/2/49 45/9/51
f 45/9/52 15/2/52 53/3/52
f 53/3/53 52/26/53 49/29/44 46/1/44
f 53/3/54 15/2/54 46/1/54
f 65/4/55 15/2/56 64/7/57
f 69/22/43 67/21/43 68/3/43
f 64/7/57 15/2/56 60/1/58
f 60/1/58 15/2/56 68/3/59
f 68/3/60 15/2/61 59/9/62
f 58/10/43 57/19/43 50/18/43 48/14/43
f 59/9/43 66/20/43 57/19/43 58/10/43
f 60/1/43 61/23/43 69/22/43 68/3/43
f 58/10/63 15/2/61 48/14/64
f 64/7/43 62/24/43 61/23/43 60/1/43
f 65/4/43 63/5/43 62/24/43 64/7/43
f 59/9/62 15/2/61 58/10/63
f 68/3/43 67/21/43 66/20/43 59/9/43
f 80/9/43 76/15/43 74/13/43 72/3/43
f 79/10/43 75/16/43 76/15/43 80/9/43
f 77/14/43 70/17/43 75/16/43 79/10/43
f 77/14/65 15/2/66 79/10/67
f 81/7/68 15/2/69 65/4/70
f 81/7/43 78/6/43 63/5/43 65/4/43
f 82/1/43 83/8/43 78/6/43 81/7/43
f 82/1/71 15/2/69 81/7/68
f 72/3/72 15/2/69 82/1/71
f 79/10/67 15/2/66 80/9/73
f 80/9/73 15/2/66 72/3/74
f 74/13/43 71/12/43 72/3/43
f 71/12/43 73/11/43 72/3/43
f 72/3/43 73/11/43 83/8/43 82/1/43
f 94/10/43 84/32/43 70/17/43 77/14/43
f 92/9/43 96/33/43 84/32/43 94/10/43
f 91/1/43 93/34/43 88/35/43 89/3/43
f 87/7/43 95/36/43 93/34/43 91/1/43
f 86/4/43 85/37/43 95/36/43 87/7/43
f 94/10/75 15/2/76 77/14/77
f 86/4/78 15/2/79 87/7/80
f 87/7/80 15/2/79 91/1/81
f 91/1/81 15/2/79 89/3/82
f 92/9/83 15/2/76 94/10/75
f 88/35/43 90/38/43 89/3/43
f 89/3/43 90/38/43 96/33/43 92/9/43
f 89/3/84 15/2/76 92/9/83
f 108/7/85 15/2/85 86/4/86
f 107/1/87 15/2/85 108/7/85
f 105/3/88 15/2/88 107/1/88
f 103/9/89 15/2/89 105/3/89
f 102/10/90 15/2/90 103/9/91
f 101/14/50 15/2/90 102/10/90
f 108/7/92 100/39/92 85/37/43 86/4/43
f 107/1/93 109/40/93 100/39/92 108/7/92
f 103/9/44 97/41/44 104/42/53 105/3/53
f 104/42/43 106/43/43 105/3/43
f 102/10/94 98/44/94 97/41/44 103/9/44
f 101/14/95 99/45/95 98/44/94 102/10/94
f 105/3/96 106/43/96 109/40/93 107/1/93
f 118/10/97 15/2/97 101/14/36
f 117/9/98 15/2/97 118/10/97
f 120/3/99 15/2/99 117/9/99
f 116/1/100 15/2/100 120/3/100
f 115/7/101 15/2/101 116/1/102
f 114/4/103 15/2/101 115/7/101
f 118/10/104 113/44/104 99/45/105 101/14/105
f 117/9/28 122/41/28 113/44/104 118/10/104
f 119/43/5 121/42/5 120/3/5
f 116/1/106 110/40/106 119/43/107 120/3/107
f 115/7/108 111/39/108 110/40/106 116/1/106
f 114/4/5 112/37/5 111/39/108 115/7/108
f 120/3/109 121/42/109 122/41/28 117/9/28
f 129/7/110 15/2/111 114/4/112
f 128/1/113 15/2/111 129/7/110
f 133/3/114 15/2/111 128/1/113
f 127/9/115 15/2/116 133/3/117
f 126/10/118 15/2/116 127/9/115
f 5/14/119 15/2/116 126/10/118
f 129/7/5 125/36/5 112/37/13 114/4/13
f 132/38/5 131/35/5 133/3/5
f 128/1/5 130/34/5 125/36/5 129/7/5
f 127/9/4 123/33/4 132/38/13 133/3/13
f 126/10/4 124/32/4 123/33/4 127/9/4
f 5/14/5 9/17/5 124/32/4 126/10/4
f 133/3/13 131/35/13 130/34/5 128/1/5

