# WaveFront *.obj file (generated by CINEMA 4D)

mtllib ./DecagonShape_41.mtl

v -0.00025374477264 0.00422707386315 -0.00948741100729
v 0.00025858351728 0.00281464192085 -0.01142606325448
v 0.00000683526969 -0.00272772205062 -0.01067027635872
v 0.00000624747327 -0.00272713368759 -0.01066453289241
v 0.00000824315975 -0.00272816815414 -0.0106633529067
v 0.00000610948791 -0.00272673368454 -0.01066778972745
v 0.00000566963809 -0.00272499164566 -0.01066614501178
v 0.00000558667489 -0.00272509781644 -0.01066542882472
v -0.00063489278546 0.00222314801067 -0.00812894292176
v -0.00063645379851 0.00222419854254 -0.00812942627817
v 0.00025809774525 0.00281578861177 -0.01142440456897
v -0.00063740037149 0.00222558318637 -0.00813040696084
v 0.00025717844255 0.00281808199361 -0.01142107136548
v 0.0002576293773 0.00281693553552 -0.01142274029553
v 0.00000747887589 -0.00273894355632 -0.01066594664007
v -0.00063752406277 0.00222715409473 -0.00813154317439
v 0.00000548128446 -0.00272315763868 -0.01066543813795
v 0.00112033076584 0.00089259090601 -0.01401341706514
v 0.0000076520264 -0.00272750295699 -0.01067291758955
v 0.00000903626369 -0.00273113348521 -0.01067714206874
v 0.00000851212098 -0.00272661983036 -0.01067556813359
v 0.00026014467585 0.00281120161526 -0.01143100764602
v 0.00000868739971 -0.00272475625388 -0.01067609526217
v 0.00000830507361 -0.00272631086409 -0.01067493949085
v 0.00111987430137 0.00089360872516 -0.01401204615831
v 0.00000859973261 -0.00272894068621 -0.01067583169788
v 0.0011212436948 0.00089055445278 -0.01401615794748
v 0.00025960706989 0.00281234853901 -0.011429364793
v 0.00112078723032 0.00089157267939 -0.01401478704065
v 0.00025908660609 0.00281349546276 -0.01142771728337
v 0.00220565730706 -0.00153198640328 -0.01727630570531
v 0.00112215650734 0.00088851840701 -0.0140188978985
v 0.00000974149862 -0.00273245153949 -0.01067925989628
v 0.00000689335957 -0.0027359877713 -0.01068125665188
v 0.00001046612033 -0.00273264315911 -0.0106814680621
v 0.00001045778572 -0.00273323780857 -0.0106818061322
v 0.00220398418605 -0.00153251644224 -0.01727725565434
v 0.00220642634667 -0.00153078278527 -0.01727500371635
v 0.00112261297181 0.0008875002386 -0.01402026880533
v 0.00000920317507 -0.00273498962633 -0.01068095769733
v 0.00112170015927 0.00088953657541 -0.01401752792299
v 0.00001106077616 -0.00273205433041 -0.01068321987987
v 0.00220629153773 -0.00152960198466 -0.01727363653481
v 0.00000341648956 -0.00273245153949 -0.01068136654794
v 0.00000416108469 -0.00273264315911 -0.01068356819451
v 0.00000437019207 -0.00273323780857 -0.01068383362144
v 0.00000486564841 -0.00273498962633 -0.01068240310997
v 0.00000271125532 -0.00273113348521 -0.01067924965173
v 0.0022006793879 -0.00153078278527 -0.01727691851556
v 0.00111491861753 0.00089055445278 -0.01401826459914
v 0.00220207567327 -0.00153198640328 -0.01727749966085
v 0.0021999666933 -0.00152960198466 -0.01727574318647
v 0.00000473576756 -0.00273205433041 -0.01068532746285
v 0.00111628801096 0.0008875002386 -0.01402237545699
v 0.00111537508201 0.00088953657541 -0.01401963457465
v 0.00111583154649 0.00088851840701 -0.01402100455016
v 0.00111446215305 0.00089157267939 -0.01401689369231
v 0.00000227472333 -0.00272894068621 -0.01067793834955
v 0.00000218405876 -0.00272661843337 -0.01067766547203
v 0.00000196956626 -0.00272630597465 -0.01067701447755
v 0.00025326217292 0.00281235785224 -0.01143141184002
v 0.00025272252969 0.00281351385638 -0.0114297028631
v 0.00025220072712 0.0028146696277 -0.01142798736691
v 0.00000129635714 -0.00272748875432 -0.01067492924631
v 0.00000045246006 -0.00272769457661 -0.01067220140249
v 0.00111400580499 0.00089259090601 -0.01401552371681
v 0.00111354934052 0.00089360872516 -0.0140141537413
v 0.00000236239043 -0.00272475625388 -0.01067820191383
v 0.00025381968589 0.00281120161526 -0.01143311522901
v -0.00063686992507 0.00222004554234 -0.00812338385731
v -0.0002601799788 0.00422712881118 -0.00948915071785
v -0.00000095396001 -0.00272310245782 -0.01066717877984
v 0.00025074317819 0.00281813694164 -0.01142281200737
v -0.00064395938534 0.00222720927559 -0.00813328288496
v -0.0006412283401 0.0022216020152 -0.0081255659461
v -0.00064379407559 0.00222413358279 -0.00812919717282
v 0.00000626604742 -0.00273127062246 -0.01065779384226
v 0.00025169691071 0.00281582563184 -0.01142626721412
v 0.00000057791851 -0.00272928713821 -0.01066176500171
v -0.0000010391376 -0.00272585288621 -0.0106656095013
v -0.00000029921932 -0.00272669293918 -0.01066962629557
v -0.00000087064723 -0.00272517208941 -0.01066743675619
v 0.00025121099316 0.00281698140316 -0.01142454240471
v -0.00063176912954 0.00221965415403 -0.00812328886241
v 0.00061100267339 0.00225547282025 -0.011225534603
v 0.00001970400081 -0.0027283988893 -0.01066517364234
v 0.0000188406666 -0.00272742984816 -0.01066293660551
v 0.00060903845588 0.00225541903637 -0.01122061070055
v 0.00001823913044 -0.00272388081066 -0.01066078804433
v -0.0006241533556 0.00222171237692 -0.00812930706888
v 0.00001815680662 -0.00272593647242 -0.0106610422954
v 0.00001716710904 -0.00272659119219 -0.01065954659134
v 0.00060969317565 0.00225543696433 -0.01122225262225
v 0.00001332519969 -0.00272980402224 -0.01065752003342
v 0.00061034795363 0.00225545512512 -0.01122389361262
v -0.00062715954846 0.00222033006139 -0.0081254048273
v 0.00238126073964 0.00230402988382 -0.01501241698861
v 0.00238084397279 0.00230370298959 -0.01501427590847
v 0.00237938365899 0.00230360566638 -0.01501563284546
v 0.00061165733496 0.00225549074821 -0.01122717559338
v 0.0000187709702 -0.00273024057969 -0.0106715913862
v 0.00002080687227 -0.00272931042127 -0.01067040208727
v 0.00002174107613 -0.00272724754177 -0.01066991966218
v 0.00238079437986 0.00230418425053 -0.01501067262143
v 0.00002218683585 -0.00272540212609 -0.01067031919956
v 0.0006129668327 0.00225552660413 -0.01123045850545
v 0.00002161226621 -0.0027269590646 -0.01066931709647
v 0.00002074071381 -0.0027281625662 -0.01066752802581
v 0.00061231205473 0.00225550844334 -0.01122881658375
v 0.00060613272944 0.00225596502423 -0.01123127713799
v 0.00060547806788 0.0022559473291 -0.01122963614762
v 0.0006048232899 0.00225592963398 -0.01122799515724
v 0.00237742881291 0.00230393046513 -0.01501586753875
v 0.00001358898771 -0.00272796722129 -0.01066779717803
v 0.00001466111371 -0.0027277439367 -0.01067023444921
v 0.00001557764153 -0.00272655091248 -0.01067207287997
v 0.00001592368244 -0.00272685661912 -0.01067260000855
v 0.00001666572825 -0.00272903311998 -0.01067232061177
v 0.00060678750742 0.00225598318502 -0.01123291812837
v 0.0000161463322 -0.0027249972336 -0.01067311316729
v 0.00237476313487 0.00230458658189 -0.01501348428428
v 0.00237578060478 0.00230439472944 -0.01501497160643
v -0.00063143018633 0.00222221203148 -0.00813016481698
v -0.00063307728851 0.00222249701619 -0.0081291757524
v 0.00060416862834 0.00225591170602 -0.01122635323554
v 0.0000106166699 -0.00272731087171 -0.01066307816654
v 0.00001182160213 -0.00272534810938 -0.01066333148628
v 0.00001218275429 -0.00272524962202 -0.01066392567009
v 0.0000126912264 -0.00272698537447 -0.01066547539085
v 0.00060351385036 0.00225589354523 -0.01122471224517
v 0.0006028591888 0.00225587561727 -0.01122307125479
v -0.00063033268088 0.00222216895781 -0.00813176762313
v 0.00001205981516 -0.00272342422977 -0.01066324766725
# 133 vertices

vn -0.9912052154541 -0.12896050512791 -0.02968828193843
vn -0.98638933897018 -0.13392615318298 -0.09539310634136
vn -0.98959535360336 -0.12738174200058 0.06689479202032
vn 0.95908111333847 -0.00495265889913 0.28308820724487
vn 0.96094113588333 -0.00592801393941 0.27668932080269
vn 0.96286404132843 -0.00695682084188 0.26989707350731
vn -0.92142307758331 -0.13949911296368 0.36265617609024
vn -0.77421206235886 -0.15419083833694 0.6138573884964
vn -0.45708307623863 -0.02925498411059 -0.88894271850586
vn 0.96527951955795 -0.00823691673577 0.26108926534653
vn 0.96298056840897 -0.00699568167329 0.26948004961014
vn -0.56121641397476 -0.1558204293251 0.81286907196045
vn -0.9750257730484 -0.13587622344494 -0.17567694187164
vn -0.96396815776825 -0.14206548035145 -0.22490628063679
vn 0.9923467040062 0.08132083714008 0.09292437136173
vn 0.97809255123138 0.1802983880043 -0.10405517369509
vn 0.7730473279953 0.36574849486351 -0.51829129457474
vn 0.56894201040268 0.43209964036942 -0.69971060752869
vn -0.98522996902466 -0.05110037699342 -0.163433983922
vn -0.99470454454422 -0.00092930678511 -0.10277185589075
vn -0.99759536981583 0.03881613537669 -0.05741742998362
vn 0.94875127077103 0 0.31602376699448
vn 0.94872903823853 0.00006940494495 0.31609052419662
vn -0.99484097957611 0.09937354922295 0.0204033497721
vn 0.94989436864853 -0.00053454656154 0.31257066130638
vn 0.95120602846146 -0.00114900013432 0.30855438113213
vn -0.97814124822617 -0.0800426825881 -0.19191901385784
vn 0.9541295170784 -0.00253770197742 0.29938331246376
vn 0.95571392774582 -0.00328432489187 0.29427886009216
vn -0.14185832440853 -0.56788325309753 -0.8107927441597
vn -0.90655159950256 -0.20953452587128 -0.36641436815262
vn -0.93715941905975 -0.17107443511486 -0.30408182740211
vn -0.87021970748901 -0.2466706186533 -0.42646366357803
vn 0.94907927513123 -0.00099927315023 0.31503582000732
vn -0.84912198781967 0.52733111381531 0.03022838570178
vn -0.73141366243362 0.67643404006958 0.08643499016762
vn -0.89438915252686 0.44723322987556 -0.00710461568087
vn -0.39113345742226 -0.82407784461975 -0.40976858139038
vn 0.94843477010727 0.00094365351833 0.3169709444046
vn 0.89502590894699 -0.38321176171303 0.22820477187634
vn 0.94348967075348 -0.17291803658009 0.28271287679672
vn 0.61261701583862 -0.78807842731476 0.06027241796255
vn 0.36666896939278 -0.92914551496506 -0.04735490307212
vn -0.92518126964569 -0.2546449303627 -0.28141716122627
vn -0.94569009542465 -0.1984378695488 -0.25747349858284
vn -0.62229758501053 0.77161341905594 0.131751537323
vn -0.40996262431145 0.8925194144249 0.18798853456974
vn -0.96225386857986 -0.14142601191998 -0.23252123594284
vn 0.94743764400482 0.00396945746616 0.3199158012867
vn -0.52641415596008 -0.78806364536285 -0.31912985444069
vn -0.26503506302834 -0.92913961410522 -0.25779056549072
vn 0.97634106874466 0.18596927821636 -0.11033379286528
vn -0.94875127077103 0 -0.31602376699448
vn -0.85309588909149 -0.38321176171303 -0.35408487915993
vn -0.94906598329544 0.00094365357654 -0.31507602334023
vn -0.95003390312195 0.00396945746616 -0.31212145090103
vn -0.94842129945755 -0.00099927315023 -0.31701105833054
vn 0.86798763275146 0.49619328975677 -0.01974056102335
vn 0.56797230243683 0.80557596683502 0.16868548095226
vn 0.76739090681076 0.63774007558823 0.06632332503796
vn 0.35968950390816 0.91862004995346 0.16358676552773
vn 0.35925868153572 0.89815813302994 0.25346627831459
vn 0.04149268195033 0.94326770305634 0.3294303715229
vn -0.92456555366516 -0.17291803658009 -0.33952593803406
vn 0.70897579193115 -0.62683063745499 -0.32316672801971
vn 0.73927170038223 0.61468142271042 0.27503475546837
vn 0.40220686793327 0.70538103580475 0.58366709947586
vn 0.62141817808151 0.66289627552032 0.41762185096741
vn 0.18928720057011 0.69233947992325 0.69630193710327
vn -0.12272271513939 0.62305849790573 0.7724876999855
vn 0.75963169336319 -0.24609544873238 -0.60199391841888
vn 0.92061966657639 0.04153299704194 -0.38824534416199
vn 0.87040036916733 -0.08688803762197 -0.48461708426476
vn -0.95120602846146 0.00114900013432 -0.30855438113213
vn -0.94989436864853 0.00053454656154 -0.31257066130638
vn 0.94844931364059 0.18427745997906 -0.2578481733799
vn 0.94257855415344 0.28834635019302 -0.16852912306786
vn -0.9541295170784 0.00253770197742 -0.29938331246376
vn -0.95571392774582 0.00328432489187 -0.29427886009216
vn -0.94872903823853 -0.00006940494495 -0.31609052419662
vn -0.97801029682159 -0.1804977953434 0.104481741786
vn -0.99228608608246 -0.08069850504398 -0.09410679340363
vn -0.77231043577194 -0.36608663201332 0.51915043592453
vn -0.56889402866364 -0.43210822343826 0.69974428415298
vn 0.57866698503494 0.63511353731155 -0.51163983345032
vn 0.84959053993225 0.52535456418991 -0.04688808694482
vn 0.83911240100861 0.54290986061096 0.03375310078263
vn -0.96147626638412 0.00622244784608 -0.27481743693352
vn -0.95908111333847 0.00495265889913 -0.28308820724487
vn -0.96063554286957 0.00576783018187 -0.27775177359581
vn 0.85419881343842 0.5041412115097 -0.12722447514534
vn 0.3769748210907 0.12933078408241 -0.9171496629715
vn 0.83252781629562 0.53834116458893 0.1307143419981
vn 0.75951009988785 0.48296171426773 0.43576645851135
vn 0.60942929983139 0.37860631942749 0.69660115242004
vn -0.96527951955795 0.00823691673577 -0.26108926534653
vn -0.95733547210693 0.0040714526549 -0.28895020484924
vn 0.27860280871391 -0.40872693061829 0.86909306049347
vn 0.00345025979914 -0.45533627271652 0.89031285047531
vn 0.70443612337112 -0.24873720109463 0.66475528478622
vn 0.93053841590881 -0.06999952346087 0.35944166779518
vn 0.93686431646347 -0.07268464565277 0.34205591678619
vn 0.92392885684967 -0.0672740265727 0.37660273909569
vn 0.92397546768188 -0.06729947030544 0.37648382782936
vn -0.12153048813343 0.71374368667603 -0.68978279829025
vn -0.5467517375946 0.67058938741684 -0.50137048959732
vn -0.50105941295624 0.64522641897202 -0.57673418521881
vn -0.45113864541054 0.61441522836685 -0.6472772359848
vn 0.30677056312561 0.10485236346722 -0.94599038362503
vn -0.79629766941071 0.60354387760162 0.04055563732982
vn -0.69524383544922 0.67427355051041 -0.24898037314415
vn 0.92689895629883 -0.06848967820406 0.36900874972343
vn 0.84198528528214 -0.15507660806179 0.51673209667206
vn -0.81847870349884 0.47303727269173 0.3260802924633
vn -0.62991189956665 0.77658098936081 0.01153219863772
vn -0.5707945227623 0.77289551496506 0.27717518806458
vn -0.63209164142609 0.74774312973022 -0.20332331955433
vn -0.48580747842789 0.71453487873077 0.50341933965683
vn -0.32853090763092 0.59398645162582 0.73433476686478
vn -0.122688613832 -0.1818235963583 -0.97564733028412
vn -0.54460090398788 0.41687732934952 -0.72775208950043
vn -0.51535451412201 0.82320201396942 0.23821870982647
vn 0.9208105802536 -0.0660166144371 0.38438221812248
vn 0.92139494419098 -0.06625592708588 0.38293793797493
vn 0.91782993078232 -0.06481147557497 0.39164733886719
vn 0.93604731559753 -0.32715925574303 0.12954634428024
vn 0.9368662238121 -0.18126825988293 0.29903769493103
vn 0.90452545881271 -0.05980627611279 0.42220476269722
vn 0.75348651409149 -0.59490132331848 -0.27991166710854
vn 0.54940158128738 -0.67848336696625 -0.4876661002636
vn 0.91539984941483 -0.0638890042901 0.3974435031414
vn 0.19409303367138 0.39704889059067 0.89703959226608
vn 0.27383548021317 0.33159756660461 0.90280514955521
vn 0.01247501932085 0.53270196914673 0.84621095657349
vn 0.3931944668293 0.21713933348656 0.89344757795334
vn 0.4206351339817 0.19401724636555 0.88624113798141
vn 0.4139478802681 -0.6062086224556 -0.6790863275528
vn 0.85740196704864 -0.46722543239594 0.21578282117844
vn 0.85398811101913 -0.51180243492126 0.09360833466053
vn 0.84630191326141 -0.41473805904388 0.33431342244148
vn -0.33333536982536 -0.52147912979126 -0.7854597568512
vn -0.0535235106945 -0.63789463043213 -0.7682614326477
vn -0.73092949390411 -0.21590971946716 -0.64739871025085
vn -0.90452545881271 0.05980627611279 -0.42220476269722
vn -0.91885960102081 0.06522474437952 -0.38915655016899
vn -0.91970103979111 0.06554701179266 -0.38710924983025
vn -0.91969400644302 0.06557486206293 -0.38712120056152
vn -0.92136430740356 0.06621640175581 -0.38301852345467
vn -0.8437288403511 -0.06423219293356 -0.53291267156601
vn 0.76282370090485 -0.35380709171295 0.54122132062912
vn 0.67565846443176 -0.33695197105408 0.65570497512817
vn 0.8038033246994 -0.36875438690186 0.46681946516037
vn 0.59688311815262 -0.313960313797 0.7383491396904
vn 0.45926630496979 -0.28202772140503 0.84233891963959
vn 0.60463917255402 -0.04015691578388 -0.7954865694046
vn 0.69274687767029 -0.34327441453934 0.63424319028854
vn -0.02902895398438 -0.23194739222527 0.97229510545731
vn -0.92455238103867 0.06751416623592 -0.37502625584602
vn -0.92395609617233 0.06727176904678 -0.37653633952141
vn -0.92689895629883 0.06848967820406 -0.36900874972343
vn -0.92710191011429 0.06855553388596 -0.36848640441895
vn -0.7044506072998 0.24875298142433 -0.66473400592804
vn -0.84202057123184 0.15507856011391 -0.51667392253876
vn -0.27862510085106 0.4086808860302 -0.86910760402679
vn -0.00347539712675 0.45529362559319 -0.89033454656601
vn -0.92903685569763 0.06937282532454 -0.3634252846241
# 166 normals

vt 0.49995157122612 0.00212597846985 0
vt 0.5 0 0
vt 0.5 0.00239622592926 0
vt 0.49946200847626 0.00165581703186 0
vt 0.2547627389431 0.75476276874542 0
vt 0.25495859980583 0.75495862960815 0
vt 0.49977412819862 0.00184786319733 0
vt 0.25515449047089 0.75515449047089 0
vt 0.50004839897156 0.00212597846985 0
vt 0.50022584199905 0.00184786319733 0
vt 0.25535038113594 0.75535035133362 0
vt 0.5 1 0
vt 0.74464964866638 0.75535035133362 0
vt 0.50053799152374 0.00165581703186 0
vt 0.74484550952911 0.75515449047089 0
vt 0.74504137039185 0.75495862960815 0
vt 0.74523729085922 0.75476276874542 0
vt 0.72123175859451 0.68088132143021 0
vt 0.7209849357605 0.68092042207718 0
vt 0.72073811292648 0.68095946311951 0
vt 0.72049129009247 0.68099856376648 0
vt 0.2555835545063 0.75463271141052 0
vt 0.25530993938446 0.75467610359192 0
vt 0.25503632426262 0.75471937656403 0
vt 0.72100907564163 0.68099474906921 0
vt 0.19191606342793 0.95058107376099 0
vt 0.72056376934052 0.68122166395187 0
vt 0.72078639268875 0.68110823631287 0
vt 0.19167397916317 0.95066893100739 0
vt 0.19139903783798 0.95069444179535 0
vt 0.19111704826355 0.95064401626587 0
vt 0.74496364593506 0.75471937656403 0
vt 0.74469006061554 0.75467610359192 0
vt 0.27926191687584 0.68095946311951 0
vt 0.27950873970985 0.68099856376648 0
vt 0.27901509404182 0.68092042207718 0
vt 0.27876827120781 0.68088132143021 0
vt 0.74441647529602 0.75463271141052 0
vt 0.27899092435837 0.68099474906921 0
vt 0.27921357750893 0.68110823631287 0
vt 0.80832600593567 0.95066893100739 0
vt 0.80808395147324 0.95058107376099 0
vt 0.27943626046181 0.68122166395187 0
vt 0.80860096216202 0.95069444179535 0
vt 0.80888295173645 0.95064401626587 0
# 45 texture coordinates

o Decagon_web
usemtl Mat
f 7/1/1 15/2/2 17/3/3
f 3/4/4 2/5/4 11/6/5 6/7/5
f 6/7/5 11/6/5 14/8/6 7/1/6
f 8/9/7 15/2/8 4/10/8
f 17/3/9 15/2/9 8/9/9
f 13/11/10 1/12/10 17/3/10
f 1/12/10 16/13/10 17/3/10
f 7/1/6 14/8/6 13/11/11 17/3/11
f 4/10/8 15/2/8 5/14/12
f 6/7/13 15/2/2 7/1/1
f 3/4/14 15/2/2 6/7/13
f 17/3/15 16/13/15 12/15/16 8/9/16
f 8/9/16 12/15/16 10/16/17 4/10/17
f 4/10/17 10/16/17 9/17/18 5/14/18
f 26/10/19 15/2/20 21/9/21
f 20/14/22 27/18/22 29/19/22 26/10/22
f 26/10/22 29/19/22 18/20/22 21/9/22
f 21/9/22 18/20/22 25/21/23 23/3/23
f 25/21/22 22/22/22 23/3/22
f 21/9/21 15/2/20 23/3/24
f 23/3/25 22/22/25 28/23/26 24/1/26
f 20/14/27 15/2/20 26/10/19
f 24/1/26 28/23/26 30/24/28 19/7/28
f 19/7/28 30/24/28 2/5/29 3/4/29
f 23/3/30 15/2/30 24/1/30
f 19/7/31 15/2/31 3/4/32
f 24/1/33 15/2/31 19/7/31
f 33/10/34 41/25/34 27/18/22 20/14/22
f 36/1/35 15/2/36 42/3/37
f 42/3/38 15/2/38 35/9/38
f 43/26/22 39/27/22 42/3/22
f 35/9/39 32/28/39 41/25/34 33/10/34
f 36/1/40 38/29/40 43/26/41 42/3/41
f 40/7/42 31/30/42 38/29/40 36/1/40
f 34/4/43 37/31/43 31/30/42 40/7/42
f 35/9/44 15/2/45 33/10/45
f 40/7/46 15/2/36 36/1/35
f 34/4/47 15/2/36 40/7/46
f 33/10/45 15/2/45 20/14/48
f 42/3/49 39/27/49 32/28/39 35/9/39
f 47/7/50 51/30/50 37/31/51 34/4/51
f 46/1/52 15/2/52 47/7/52
f 54/27/53 52/26/53 53/3/53
f 46/1/54 49/29/54 51/30/50 47/7/50
f 45/9/55 56/28/55 54/27/56 53/3/56
f 44/10/57 55/25/57 56/28/55 45/9/55
f 48/14/53 50/18/53 55/25/57 44/10/57
f 48/14/58 15/2/59 44/10/60
f 47/7/61 15/2/61 34/4/61
f 44/10/60 15/2/59 45/9/62
f 45/9/62 15/2/59 53/3/63
f 53/3/64 52/26/64 49/29/54 46/1/54
f 53/3/65 15/2/65 46/1/65
f 65/4/66 15/2/67 64/7/68
f 69/22/53 67/21/53 68/3/53
f 64/7/68 15/2/67 60/1/69
f 60/1/69 15/2/67 68/3/70
f 68/3/71 15/2/72 59/9/73
f 58/10/53 57/19/53 50/18/53 48/14/53
f 59/9/53 66/20/53 57/19/53 58/10/53
f 60/1/74 61/23/74 69/22/75 68/3/75
f 58/10/76 15/2/72 48/14/77
f 64/7/78 62/24/78 61/23/74 60/1/74
f 65/4/79 63/5/79 62/24/78 64/7/78
f 59/9/73 15/2/72 58/10/76
f 68/3/80 67/21/80 66/20/53 59/9/53
f 80/9/81 76/15/81 74/13/82 72/3/82
f 79/10/83 75/16/83 76/15/81 80/9/81
f 77/14/84 70/17/84 75/16/83 79/10/83
f 77/14/85 15/2/85 79/10/85
f 81/7/86 15/2/86 65/4/87
f 81/7/88 78/6/88 63/5/89 65/4/89
f 82/1/90 83/8/90 78/6/88 81/7/88
f 82/1/91 15/2/86 81/7/86
f 72/3/92 15/2/92 82/1/92
f 79/10/93 15/2/94 80/9/94
f 80/9/94 15/2/94 72/3/95
f 74/13/96 71/12/96 72/3/96
f 71/12/96 73/11/96 72/3/96
f 72/3/97 73/11/97 83/8/90 82/1/90
f 94/10/98 84/32/98 70/17/99 77/14/99
f 92/9/100 96/33/100 84/32/98 94/10/98
f 91/1/101 93/34/101 88/35/102 89/3/102
f 87/7/103 95/36/103 93/34/101 91/1/101
f 86/4/104 85/37/104 95/36/103 87/7/103
f 94/10/105 15/2/105 77/14/105
f 86/4/106 15/2/107 87/7/107
f 87/7/107 15/2/107 91/1/108
f 91/1/109 15/2/109 89/3/109
f 92/9/110 15/2/110 94/10/111
f 88/35/112 90/38/112 89/3/112
f 89/3/113 90/38/113 96/33/100 92/9/100
f 89/3/114 15/2/110 92/9/110
f 108/7/115 15/2/116 86/4/117
f 107/1/118 15/2/116 108/7/115
f 105/3/119 15/2/116 107/1/118
f 103/9/120 15/2/120 105/3/120
f 102/10/121 15/2/121 103/9/121
f 101/14/122 15/2/122 102/10/122
f 108/7/123 100/39/123 85/37/124 86/4/124
f 107/1/125 109/40/125 100/39/123 108/7/123
f 103/9/126 97/41/126 104/42/127 105/3/127
f 104/42/128 106/43/128 105/3/128
f 102/10/129 98/44/129 97/41/126 103/9/126
f 101/14/130 99/45/130 98/44/129 102/10/129
f 105/3/131 106/43/131 109/40/125 107/1/125
f 118/10/132 15/2/133 101/14/134
f 117/9/135 15/2/133 118/10/132
f 120/3/136 15/2/133 117/9/135
f 116/1/137 15/2/137 120/3/137
f 115/7/138 15/2/138 116/1/139
f 114/4/140 15/2/138 115/7/138
f 118/10/141 113/44/141 99/45/142 101/14/142
f 117/9/143 122/41/143 113/44/141 118/10/141
f 119/43/144 121/42/144 120/3/144
f 116/1/145 110/40/145 119/43/146 120/3/146
f 115/7/147 111/39/147 110/40/145 116/1/145
f 114/4/148 112/37/148 111/39/147 115/7/147
f 120/3/149 121/42/149 122/41/143 117/9/143
f 129/7/150 15/2/151 114/4/152
f 128/1/153 15/2/151 129/7/150
f 133/3/154 15/2/151 128/1/153
f 127/9/155 15/2/155 133/3/155
f 126/10/156 15/2/156 127/9/156
f 5/14/157 15/2/157 126/10/157
f 129/7/158 125/36/158 112/37/159 114/4/159
f 132/38/160 131/35/160 133/3/160
f 128/1/161 130/34/161 125/36/158 129/7/158
f 127/9/162 123/33/162 132/38/163 133/3/163
f 126/10/164 124/32/164 123/33/162 127/9/162
f 5/14/165 9/17/165 124/32/164 126/10/164
f 133/3/166 131/35/166 130/34/161 128/1/161

