# WaveFront *.obj file (generated by CINEMA 4D)

mtllib ./DecagonShape_50.mtl

v 0.00098837271798 0.00360139762051 -0.00856195390224
v 0.00032423605444 0.00238789524883 -0.00652530882508
v 0.00002011455217 -0.0031913917046 -0.00688788108528
v 0.00003276564166 -0.00319142895751 -0.00690109981224
v 0.00003061441384 -0.0031922745984 -0.00690213777125
v 0.00002847778887 -0.00319095980376 -0.00689211999997
v 0.00003262370956 -0.00318935583346 -0.0068973870948
v 0.00003343762 -0.00318945827894 -0.00689965952188
v 0.00116748502478 0.00147854792885 -0.00977325905114
v 0.00116918398999 0.00147941755131 -0.00977290514857
v 0.00033030932536 0.0023886160925 -0.00652776006609
v 0.00117030891124 0.00148074189201 -0.00977203994989
v 0.0003380269336 0.00239064451307 -0.00653797993436
v 0.00033511148649 0.00238953367807 -0.0065321768634
v 0.00002539747948 -0.00320296990685 -0.00689370231703
v 0.00117060693447 0.00148236448877 -0.00977101642638
v 0.0000339670878 -0.00318751018494 -0.00690047862008
v -0.00167698354926 0.00113006867468 -0.00889541767538
v 0.00001080710172 -0.00319024641067 -0.00688827782869
v -0.00000410699113 -0.00319433375262 -0.00689588161185
v 0.00000299923659 -0.00318840891123 -0.00689324457198
v 0.00030640012119 0.00238659325987 -0.00653151236475
v 0.00000263014067 -0.00318624498323 -0.00689366552979
v 0.00000498036843 -0.00318824010901 -0.00689137121662
v -0.00167468958534 0.00113159092143 -0.00889335665852
v 0.00000002660479 -0.00319167459384 -0.00689514679834
v -0.00168296718039 0.00112746737432 -0.00889740977436
v 0.00031146060792 0.00238693668507 -0.00652730697766
v -0.00167980091646 0.00112865923438 -0.00889679510146
v 0.00031767203473 0.00238734995946 -0.00652514863759
v -0.00519452104345 0.0015839417465 -0.00662409234792
v -0.00168954965193 0.00112608389463 -0.00889627076685
v -0.0000089612804 -0.00319530791603 -0.00689545273781
v -0.00001166867332 -0.003195844125 -0.00688969064504
v -0.00001262547266 -0.00319459661841 -0.00689458381385
v -0.00001355473069 -0.00319480104372 -0.00689372839406
v -0.00519401906058 0.00158479833044 -0.00662236101925
v -0.00519393477589 0.00158353848383 -0.00662588933483
v -0.00169255631045 0.00112601113506 -0.00889460463077
v -0.0000128831507 -0.00319613702595 -0.00689189508557
v -0.00168628559913 0.00112658541184 -0.00889722909778
v -0.00001468510254 -0.00319324433804 -0.00689425505698
v -0.00519264815375 0.00158335082233 -0.00662715220824
v -0.00000784196254 -0.00319219287485 -0.00688966596499
v -0.00000995182836 -0.00319121545181 -0.00688952580094
v -0.00001047441765 -0.00319149461575 -0.00688917329535
v -0.00001054219592 -0.00319377495907 -0.00688875792548
v -0.00000527680777 -0.00319195515476 -0.00688976468518
v -0.00519083347172 0.00158666819334 -0.00662173284218
v -0.00168413703796 0.00112984608859 -0.00889129284769
v -0.00519258854911 0.00158589240164 -0.00662150187418
v -0.00518923485652 0.00158679543529 -0.00662257755175
v -0.0000112715079 -0.00318979960866 -0.00688968040049
v -0.00168914266396 0.0011294556316 -0.00889002997428
v -0.00168586755171 0.00112951430492 -0.00889125466347
v -0.00168757047504 0.00112937635276 -0.00889082252979
v -0.00168248370755 0.00113033491652 -0.00889092683792
v -0.0000032772798 -0.003190347692 -0.00688951043412
v -0.00000168133408 -0.00318827666342 -0.00688848970458
v 0.00000077042426 -0.00318834651262 -0.006886202842
v 0.00030819472158 0.00238673714921 -0.00652149831876
v 0.00031667065923 0.0023869771976 -0.00651856837794
v 0.0003256292548 0.00238739675842 -0.00651880865917
v 0.00000876788272 -0.00319054722786 -0.00688193785027
v 0.0000215077016 -0.00319188996218 -0.00688138045371
v -0.00168100767769 0.00113093445543 -0.00889017339796
v -0.001679797424 0.00113159092143 -0.00888907257468
v -0.00000247760318 -0.00318624498323 -0.00688938098028
v 0.00030129236984 0.00238659325987 -0.0065272282809
v 0.00116873206571 0.00147490052041 -0.00977869797498
v 0.00099478033371 0.00360093289055 -0.00856017321348
v 0.00004037467806 -0.00318797538057 -0.00689869746566
v 0.00034443457844 0.00239017955028 -0.0065361992456
v 0.00117701466661 0.00148189940955 -0.00976923573762
v 0.00117346760817 0.00147602672223 -0.00977672543377
v 0.00117648160085 0.0014785155654 -0.00977321714163
v 0.00003186142931 -0.00319592189044 -0.00690757716075
v 0.0003339163668 0.00238805706613 -0.00652218144387
v 0.00003806739551 -0.00319440220483 -0.00690383743495
v 0.00004017402171 -0.00319086178206 -0.00690013449639
v 0.00003293198461 -0.00319152302109 -0.00688719144091
v 0.00003943514821 -0.0031900992617 -0.00689646415412
v 0.00034046542714 0.0023889860604 -0.00652824249119
v 0.00116349523887 0.00147524056956 -0.00977848470211
v 0.00029161479324 0.00184155174065 -0.00657387869433
v 0.00001732825513 -0.00319039495662 -0.00690088188276
v 0.00001956939377 -0.00318983383477 -0.00690197618678
v 0.00029518682277 0.00184074940626 -0.00657733716071
v 0.00002115191091 -0.00318658025935 -0.00690403999761
v 0.00115670834202 0.00147884350736 -0.00977184157819
v 0.00002091624083 -0.00318861962296 -0.00690369913355
v 0.0000216727949 -0.00318951928057 -0.00690527632833
v 0.00029444182292 0.00184096547309 -0.00657576555386
v 0.00002488491918 -0.00319344550371 -0.00690750125796
v 0.00029319681926 0.00184123264626 -0.00657456181943
v 0.00115911196917 0.00147675641347 -0.00977601949126
v -0.00233217980713 0.00284713855945 -0.00969748664647
v -0.00233405642211 0.00284709851258 -0.00969794858247
v -0.00233591673896 0.0028470326215 -0.00969722960144
v 0.00028990273131 0.00184191775043 -0.0065738032572
v 0.00000972317775 -0.00319122476503 -0.00690076965839
v 0.00001177074137 -0.00319023337215 -0.00690188538283
v 0.00001283131405 -0.00318817840889 -0.00690206885338
v -0.00233080866747 0.0028469003737 -0.00969632621855
v 0.00001284562677 -0.00318624498323 -0.00690223416314
v 0.00028697066591 0.00184273754712 -0.00657542375848
v 0.00001339379196 -0.0031880273018 -0.00690169911832
v 0.00001488553971 -0.00318964454345 -0.00690095778555
v 0.00028828415088 0.00184231821913 -0.00657434202731
v 0.00028501820634 0.00184211903252 -0.00656853383407
v 0.00028890150134 0.0018415445229 -0.00656722253188
v 0.0002930079936 0.00184105325025 -0.00656737852842
v -0.00233694864437 0.00284709851258 -0.00969552248716
v 0.00001872140456 -0.0031908932142 -0.00689438125119
v 0.00001284632071 -0.00318994536065 -0.00689461780712
v 0.0000091973825 -0.00318813347258 -0.00689654704183
v 0.00000815672684 -0.00318820914254 -0.00689767347649
v 0.0000082679835 -0.00319023337215 -0.00689894752577
v 0.00028186291456 0.00184273754712 -0.00657113920897
v 0.00000773788361 -0.00318624498323 -0.00689794961363
v -0.0023359162733 0.0028469003737 -0.0096920421347
v -0.00233682082035 0.00284713855945 -0.00969359371811
v 0.00116403761785 0.00147817714605 -0.00977175775915
v 0.00116561900359 0.00147816643585 -0.00977288372815
v 0.0002968038898 0.00184067361988 -0.00656898319721
v 0.00002837148349 -0.00319110997953 -0.00690232077613
v 0.00002737920477 -0.00318899401464 -0.0069017210044
v 0.00002669094647 -0.00318884057924 -0.00690033705905
v 0.00002402359314 -0.00319039681926 -0.00689704809338
v 0.00029979582177 0.00184041785542 -0.00657183118165
v 0.00030159438029 0.00184028479271 -0.00657555600628
v 0.00116311595775 0.00147837854456 -0.00977006088942
v 0.00002755950118 -0.00318704522215 -0.00690225930884
# 133 vertices

vn 0.86514157056808 -0.36655479669571 0.34229764342308
vn 0.76489013433456 -0.33792641758919 0.54840570688248
vn 0.8899707198143 -0.43857064843178 0.12493150681257
vn -0.41791701316834 0.08161436021328 -0.90481185913086
vn -0.59198999404907 0.08437250554562 -0.80151677131653
vn -0.83865600824356 0.08068554103374 -0.53865194320679
vn 0.87825101613998 -0.43865379691124 0.19041529297829
vn 0.05835516378284 0.37344545125961 0.92581486701965
vn -0.96113967895508 0.06972874701023 -0.2671112716198
vn -0.91417741775513 0.07568814605474 -0.39818462729454
vn 0.51926153898239 -0.6708602309227 -0.5294468998909
vn 0.64017051458359 -0.25946652889252 0.7230898141861
vn 0.44945302605629 -0.22902928292751 0.86344516277313
vn -0.96385234594345 0.26253738999367 0.04541769623756
vn -0.93880194425583 0.31466564536095 0.14013010263443
vn -0.73035150766373 0.47783470153809 0.4881195127964
vn -0.47974136471748 0.54128789901733 0.69054734706879
vn -0.15700758993626 -0.22980639338493 0.96048820018768
vn -0.05272493138909 -0.08359390497208 0.99510407447815
vn -0.02484895847738 -0.06955422461033 0.99726861715317
vn 0.31641271710396 -0.29468560218811 -0.90168917179108
vn 0.44662472605705 -0.2272931188345 -0.86536937952042
vn 0.65616983175278 -0.09197121858597 -0.74898761510849
vn 0.73544877767563 -0.02783626690507 -0.67700833082199
vn 0.76616156101227 0 -0.64264804124832
vn 0.15921674668789 0.21458542346954 0.96364057064056
vn 0.67083436250687 0.01156786829233 -0.74151700735092
vn 0.54370653629303 0.0248512942344 -0.83890736103058
vn -0.1051511913538 -0.10977576673031 0.98837870359421
vn 0.21065394580364 0.05199651047587 -0.9761768579483
vn 0.0101416837424 0.0643477588892 -0.99787598848343
vn -0.58951443433762 -0.80229258537292 -0.09380490332842
vn -0.44485825300217 -0.76879388093948 0.45940953493118
vn -0.56198990345001 -0.80741339921951 0.17958548665047
vn -0.31081527471542 -0.65147513151169 0.69207948446274
vn -0.09644260257483 -0.48187524080276 0.87091624736786
vn -0.10395286232233 -0.45094817876816 -0.88647592067718
vn 0.0303497929126 -0.41034024953842 -0.91142731904984
vn 0.13088084757328 0.62655133008957 0.76831221580505
vn 0.07678072154522 0.36903497576714 0.92623859643936
vn 0.10585659742355 0.38418415188789 -0.9171679019928
vn -0.51205259561539 -0.51667982339859 -0.68618083000183
vn -0.33548831939697 -0.50004333257675 -0.79837602376938
vn -0.64467036724091 -0.67921364307404 -0.3508118391037
vn -0.59176421165466 -0.61217641830444 -0.52445703744888
vn -0.66562479734421 -0.73019927740097 0.1541190892458
vn -0.59037578105927 -0.66552710533142 0.45665097236633
vn 0.21187922358513 0.97242718935013 0.09742975234985
vn 0.17267988622189 0.82506954669952 0.53799802064896
vn 0.16159442067146 0.96271592378616 -0.21694548428059
vn 0.02124742791057 0.3122746348381 0.94975423812866
vn -0.43071886897087 -0.51160782575607 -0.74346399307251
vn -0.04906023293734 -0.10870274156332 0.99286293983459
vn -0.24951586127281 -0.32154276967049 0.91342878341675
vn -0.20693661272526 -0.27645671367645 -0.93848222494125
vn -0.15272562205791 -0.04651212319732 -0.98717349767685
vn -0.10240457952023 0.13005372881889 -0.98620450496674
vn 0.51205259561539 0.51667982339859 0.68618083000183
vn 0.29915717244148 0.2731359899044 0.91427659988403
vn 0.27937859296799 0.41676989197731 0.865014731884
vn 0.33739393949509 0.50034153461456 0.7973855137825
vn 0.43798312544823 0.51226907968521 0.73874974250793
vn 0.32900708913803 0.41145360469818 0.84997659921646
vn 0.14398673176765 0.42061975598335 0.89573812484741
vn 0.10191525518894 0.45037922263145 0.8870016336441
vn -0.03038909099996 0.4103077352047 0.91144067049026
vn -0.0558062940836 0.19467739760876 -0.97927850484848
vn -0.01775541715324 0.41881722211838 -0.90789693593979
vn 0.21757714450359 0.32759654521942 0.91942411661148
vn 0.42738530039787 0.41846087574959 0.80139398574829
vn -0.23404657840729 -0.37812855839729 -0.89567905664444
vn 0.10793897509575 0.75594937801361 -0.64566993713379
vn 0.36527872085571 0.87035918235779 -0.33022159337997
vn 0.26471740007401 0.82586306333542 -0.49787032604218
vn -0.76616156101227 0 0.64264804124832
vn 0.47147554159164 0.86950820684433 -0.14719469845295
vn 0.51820093393326 0.85452324151993 0.03546631708741
vn -0.41629460453987 -0.49707233905792 -0.76132643222809
vn -0.44943904876709 0.22572267055511 0.86432272195816
vn -0.31641271710396 0.29468560218811 0.90168917179108
vn -0.78998202085495 -0.02318898029625 0.61269134283066
vn -0.54373854398727 -0.024857878685 0.83888643980026
vn -0.67085981369019 -0.01157466787845 0.7414938211441
vn -0.0000981411431 0.31496542692184 -0.94910311698914
vn -0.04823676496744 0.21438877284527 -0.97555661201477
vn -0.21065977215767 -0.05196638777852 0.97617721557617
vn -0.0101416837424 -0.0643477588892 0.99787598848343
vn 0.04805774241686 0.41142264008522 -0.91017681360245
vn -0.91689366102219 -0.19511529803276 0.34818971157074
vn 0.95105963945389 -0.29257708787918 -0.09941960126162
vn 0.97915005683899 -0.17682331800461 0.09999354183674
vn 0.7057791352272 -0.48768326640129 -0.51384907960892
vn 0.47974136471748 -0.54128789901733 -0.69054734706879
vn -0.38030007481575 0.88400483131409 0.27185899019241
vn -0.62859201431274 0.73394548892975 -0.25728604197502
vn -0.55925798416138 0.8289920091629 0.00164670939557
vn -0.52991551160812 0.65510314702988 -0.53854376077652
vn -0.36783999204636 0.63072794675827 -0.68328326940536
vn 0.60113495588303 -0.08448050916195 0.79466962814331
vn 0.41793748736382 -0.08165415376425 0.90479880571365
vn 0.84937065839767 -0.08018866181374 0.52166968584061
vn -0.66666358709335 0.64815956354141 -0.3680337369442
vn -0.56077241897583 0.70483827590942 0.43443909287453
vn -0.66935276985168 0.55376601219177 -0.49528786540031
vn -0.61509418487549 0.38522061705589 -0.68794202804565
vn 0.96113967895508 -0.06972874701023 0.2671112716198
vn 0.92101091146469 -0.07494608312845 0.38225910067558
vn -0.39970079064369 -0.40746676921844 -0.82110297679901
vn -0.1246234998107 -0.49746224284172 -0.85848724842072
vn -0.79425495862961 -0.16594341397285 -0.58448427915573
vn -0.85724699497223 0.07975704967976 -0.50869083404541
vn -0.93522608280182 0.07346477359533 -0.34634527564049
vn -0.59781467914581 0.08440141379833 -0.79717874526978
vn -0.41791635751724 0.08158469200134 -0.9048148393631
vn 0.5823986530304 0.67896318435669 0.44701319932938
vn 0.77822071313858 0.55788785219193 0.28832906484604
vn 0.28741291165352 0.79323202371597 0.53682100772858
vn 0.23035730421543 0.58974879980087 0.77403610944748
vn 0.29605695605278 0.59964114427567 0.74349224567413
vn 0.36016446352005 0.60635787248611 0.70895111560822
vn -0.76341158151627 0.19134499132633 0.61691963672638
vn 0.92523813247681 0.35978192090988 0.12038019299507
vn -0.90493994951248 -0.04009737074375 -0.42364597320557
vn 0.97583496570587 0.20488905906677 -0.07593812048435
vn 0.28050625324249 0.62019014358521 0.73258477449417
vn 0.1464896351099 0.55967628955841 0.81566125154495
vn 0.40652287006378 0.66298669576645 0.62863963842392
vn 0.55735015869141 -0.06440114229918 -0.82777613401413
vn 0.42426365613937 -0.13809929788113 -0.89494633674622
vn 0.50683325529099 -0.03020859882236 -0.86151468753815
vn -0.40629932284355 0.16331721842289 0.89902633428574
vn -0.24446468055248 0.33703717589378 0.90919905900955
vn -0.48733708262444 0.07793200016022 0.86972939968109
vn -0.10489418357611 0.45571222901344 0.88392508029938
vn 0.11903919279575 0.62372756004334 0.77252417802811
vn 0.20923253893852 0.05205272883177 -0.97647953033447
vn 0.01012654323131 0.06430923193693 -0.9978786110878
vn 0.54489022493362 0.02474664151669 -0.83814215660095
vn 0.493094176054 -0.20048673450947 -0.84655964374542
vn 0.66042649745941 -0.08874145150185 -0.74562841653824
vn 0.01951913163066 -0.41391614079475 -0.91010570526123
vn -0.26354020833969 -0.48779278993607 -0.83222877979279
vn 0.67503845691681 0.01111701223999 -0.73769879341125
vn 0.59000265598297 0.80675774812698 0.03223081305623
vn 0.55628025531769 0.46431788802147 -0.6891742348671
vn 0.13255672156811 -0.11022295802832 -0.98502773046494
vn 0.59948754310608 0.721166908741 0.34717854857445
vn 0.58655363321304 0.52168744802475 -0.61951357126236
vn 0.03422300517559 -0.03726080060005 -0.998719394207
vn -0.90553522109985 -0.40710714459419 -0.11945590376854
vn -0.77367478609085 -0.48779278993607 -0.40433344244957
vn -0.92030739784241 -0.20250454545021 0.33470317721367
vn -0.54321789741516 -0.02491258829832 0.83922207355499
vn -0.66906422376633 -0.01178602781147 0.74311113357544
vn -0.21124149858952 -0.05191323906183 0.97605431079864
vn -0.01017006579787 -0.06431648880243 0.99787771701813
vn -0.86924719810486 -0.11498899757862 0.48081892728806
vn -0.55750072002411 -0.26983597874641 -0.78509968519211
vn -0.78241407871246 -0.18489247560501 -0.59467893838882
vn -0.41109818220139 -0.27608707547188 -0.86877739429474
vn -0.76038551330566 -0.21772138774395 -0.61189156770706
vn -0.9303622841835 -0.06735089421272 -0.36040243506432
vn -0.92186349630356 -0.08607467263937 -0.377834379673
vn -0.79587066173553 -0.21247129142284 -0.5669618844986
vn -0.21323826909065 -0.53880149126053 -0.81499838829041
vn 0.59118419885635 -0.0843568816781 0.80211293697357
vn 0.41791701316834 -0.08161436021328 0.90481185913086
vn 0.83917248249054 -0.08065938949585 0.53785091638565
vn 0.79864954948425 0.16191074252129 0.57960659265518
vn 0.89729535579681 0.05113336071372 0.43845918774605
vn 0.41545721888542 0.40082663297653 0.81653738021851
vn 0.12460938096046 0.49740412831306 0.85852295160294
vn 0.91573852300644 -0.07550837099552 0.39461559057236
# 173 normals

vt 0.49995157122612 0.00212597846985 0
vt 0.5 0 0
vt 0.5 0.00239622592926 0
vt 0.49946200847626 0.00165581703186 0
vt 0.2547627389431 0.75476276874542 0
vt 0.25495859980583 0.75495862960815 0
vt 0.49977412819862 0.00184786319733 0
vt 0.25515449047089 0.75515449047089 0
vt 0.50004839897156 0.00212597846985 0
vt 0.50022584199905 0.00184786319733 0
vt 0.25535038113594 0.75535035133362 0
vt 0.5 1 0
vt 0.74464964866638 0.75535035133362 0
vt 0.50053799152374 0.00165581703186 0
vt 0.74484550952911 0.75515449047089 0
vt 0.74504137039185 0.75495862960815 0
vt 0.74523729085922 0.75476276874542 0
vt 0.72123175859451 0.68088132143021 0
vt 0.7209849357605 0.68092042207718 0
vt 0.72073811292648 0.68095946311951 0
vt 0.72049129009247 0.68099856376648 0
vt 0.2555835545063 0.75463271141052 0
vt 0.25530993938446 0.75467610359192 0
vt 0.25503632426262 0.75471937656403 0
vt 0.72100907564163 0.68099474906921 0
vt 0.19191606342793 0.95058107376099 0
vt 0.72056376934052 0.68122166395187 0
vt 0.72078639268875 0.68110823631287 0
vt 0.19167397916317 0.95066893100739 0
vt 0.19139903783798 0.95069444179535 0
vt 0.19111704826355 0.95064401626587 0
vt 0.74496364593506 0.75471937656403 0
vt 0.74469006061554 0.75467610359192 0
vt 0.27926191687584 0.68095946311951 0
vt 0.27950873970985 0.68099856376648 0
vt 0.27901509404182 0.68092042207718 0
vt 0.27876827120781 0.68088132143021 0
vt 0.74441647529602 0.75463271141052 0
vt 0.27899092435837 0.68099474906921 0
vt 0.27921357750893 0.68110823631287 0
vt 0.80832600593567 0.95066893100739 0
vt 0.80808395147324 0.95058107376099 0
vt 0.27943626046181 0.68122166395187 0
vt 0.80860096216202 0.95069444179535 0
vt 0.80888295173645 0.95064401626587 0
# 45 texture coordinates

o Decagon_web
usemtl Mat
f 7/1/1 15/2/2 17/3/3
f 3/4/4 2/5/4 11/6/5 6/7/5
f 6/7/5 11/6/5 14/8/6 7/1/6
f 8/9/7 15/2/7 4/10/7
f 17/3/8 15/2/8 8/9/8
f 13/11/9 1/12/9 17/3/9
f 1/12/9 16/13/9 17/3/9
f 7/1/6 14/8/6 13/11/10 17/3/10
f 4/10/11 15/2/11 5/14/11
f 6/7/12 15/2/2 7/1/1
f 3/4/13 15/2/2 6/7/12
f 17/3/14 16/13/14 12/15/15 8/9/15
f 8/9/15 12/15/15 10/16/16 4/10/16
f 4/10/16 10/16/16 9/17/17 5/14/17
f 26/10/18 15/2/19 21/9/20
f 20/14/21 27/18/21 29/19/22 26/10/22
f 26/10/22 29/19/22 18/20/23 21/9/23
f 21/9/23 18/20/23 25/21/24 23/3/24
f 25/21/25 22/22/25 23/3/25
f 21/9/20 15/2/19 23/3/26
f 23/3/27 22/22/27 28/23/28 24/1/28
f 20/14/29 15/2/19 26/10/18
f 24/1/28 28/23/28 30/24/30 19/7/30
f 19/7/30 30/24/30 2/5/31 3/4/31
f 23/3/32 15/2/33 24/1/34
f 19/7/35 15/2/33 3/4/36
f 24/1/34 15/2/33 19/7/35
f 33/10/37 41/25/37 27/18/38 20/14/38
f 36/1/39 15/2/39 42/3/40
f 42/3/41 15/2/41 35/9/41
f 43/26/42 39/27/42 42/3/42
f 35/9/43 32/28/43 41/25/37 33/10/37
f 36/1/44 38/29/44 43/26/45 42/3/45
f 40/7/46 31/30/46 38/29/44 36/1/44
f 34/4/47 37/31/47 31/30/46 40/7/46
f 35/9/48 15/2/48 33/10/48
f 40/7/49 15/2/39 36/1/39
f 34/4/50 15/2/50 40/7/50
f 33/10/51 15/2/51 20/14/51
f 42/3/52 39/27/52 32/28/43 35/9/43
f 47/7/53 51/30/53 37/31/54 34/4/54
f 46/1/55 15/2/56 47/7/57
f 54/27/58 52/26/58 53/3/58
f 46/1/59 49/29/59 51/30/53 47/7/53
f 45/9/60 56/28/61 54/27/62 53/3/63
f 44/10/64 55/25/65 56/28/61 45/9/60
f 48/14/66 50/18/66 55/25/65 44/10/64
f 48/14/67 15/2/67 44/10/67
f 47/7/57 15/2/56 34/4/68
f 44/10/64 15/2/69 45/9/60
f 45/9/60 15/2/69 53/3/63
f 53/3/70 52/26/70 49/29/59 46/1/59
f 53/3/71 15/2/56 46/1/55
f 65/4/72 15/2/73 64/7/74
f 69/22/75 67/21/75 68/3/75
f 64/7/74 15/2/73 60/1/76
f 60/1/76 15/2/73 68/3/77
f 68/3/78 15/2/78 59/9/78
f 58/10/79 57/19/79 50/18/80 48/14/80
f 59/9/81 66/20/81 57/19/79 58/10/79
f 60/1/82 61/23/82 69/22/83 68/3/83
f 58/10/84 15/2/84 48/14/85
f 64/7/86 62/24/86 61/23/82 60/1/82
f 65/4/87 63/5/87 62/24/86 64/7/86
f 59/9/88 15/2/84 58/10/84
f 68/3/89 67/21/89 66/20/81 59/9/81
f 80/9/90 76/15/90 74/13/91 72/3/91
f 79/10/92 75/16/92 76/15/90 80/9/90
f 77/14/93 70/17/93 75/16/92 79/10/92
f 77/14/94 15/2/95 79/10/96
f 81/7/97 15/2/97 65/4/98
f 81/7/99 78/6/99 63/5/100 65/4/100
f 82/1/101 83/8/101 78/6/99 81/7/99
f 82/1/102 15/2/97 81/7/97
f 72/3/103 15/2/103 82/1/103
f 79/10/96 15/2/95 80/9/104
f 80/9/104 15/2/95 72/3/105
f 74/13/106 71/12/106 72/3/106
f 71/12/106 73/11/106 72/3/106
f 72/3/107 73/11/107 83/8/101 82/1/101
f 94/10/108 84/32/108 70/17/109 77/14/109
f 92/9/110 96/33/110 84/32/108 94/10/108
f 91/1/111 93/34/111 88/35/112 89/3/112
f 87/7/113 95/36/113 93/34/111 91/1/111
f 86/4/114 85/37/114 95/36/113 87/7/113
f 94/10/115 15/2/116 77/14/117
f 86/4/118 15/2/119 87/7/119
f 87/7/119 15/2/119 91/1/120
f 91/1/121 15/2/121 89/3/121
f 92/9/122 15/2/116 94/10/115
f 88/35/9 90/38/9 89/3/9
f 89/3/123 90/38/123 96/33/110 92/9/110
f 89/3/124 15/2/116 92/9/122
f 108/7/125 15/2/125 86/4/126
f 107/1/127 15/2/125 108/7/125
f 105/3/128 15/2/129 107/1/130
f 103/9/131 15/2/132 105/3/133
f 102/10/134 15/2/132 103/9/131
f 101/14/135 15/2/132 102/10/134
f 108/7/136 100/39/136 85/37/137 86/4/137
f 107/1/130 109/40/138 100/39/136 108/7/136
f 103/9/139 97/41/139 104/42/140 105/3/140
f 104/42/25 106/43/25 105/3/25
f 102/10/141 98/44/141 97/41/139 103/9/139
f 101/14/142 99/45/142 98/44/141 102/10/141
f 105/3/128 106/43/143 109/40/138 107/1/130
f 118/10/144 15/2/144 101/14/144
f 117/9/145 15/2/145 118/10/145
f 120/3/146 15/2/146 117/9/146
f 116/1/147 15/2/147 120/3/147
f 115/7/148 15/2/148 116/1/148
f 114/4/149 15/2/149 115/7/149
f 118/10/150 113/44/150 99/45/151 101/14/151
f 117/9/152 122/41/152 113/44/150 118/10/150
f 119/43/75 121/42/75 120/3/75
f 116/1/153 110/40/153 119/43/154 120/3/154
f 115/7/155 111/39/155 110/40/153 116/1/153
f 114/4/156 112/37/156 111/39/155 115/7/155
f 120/3/157 121/42/157 122/41/152 117/9/152
f 129/7/158 15/2/159 114/4/160
f 128/1/161 15/2/159 129/7/158
f 133/3/162 15/2/159 128/1/161
f 127/9/163 15/2/159 133/3/162
f 126/10/164 15/2/159 127/9/163
f 5/14/165 15/2/165 126/10/165
f 129/7/166 125/36/166 112/37/167 114/4/167
f 132/38/106 131/35/106 133/3/106
f 128/1/168 130/34/168 125/36/166 129/7/166
f 127/9/169 123/33/169 132/38/170 133/3/170
f 126/10/171 124/32/171 123/33/169 127/9/169
f 5/14/172 9/17/172 124/32/171 126/10/171
f 133/3/173 131/35/173 130/34/168 128/1/168

