# WaveFront *.obj file (generated by CINEMA 4D)

mtllib ./DecagonShape_65.mtl

v -0.0001427839743 0.00355589645915 -0.00045497293468
v 0.00163492350839 0.00185434264131 -0.00036063240259
v 0.00001549478475 -0.00350521272048 -0.00043138972251
v 0.00000011137532 -0.00350056472234 -0.00044768102816
v -0.0000006444053 -0.00350143876858 -0.00044542594696
v 0.00001183554286 -0.00350331678055 -0.00044297979912
v 0.00000519570494 -0.00349969719537 -0.0004478712217
v 0.00000213506246 -0.00349897868 -0.00044845981756
v -0.00183776405174 0.00178731710184 -0.00052569480613
v -0.00183756172191 0.00178830383811 -0.00052735424833
v 0.00163341057487 0.00185583962593 -0.00036903229193
v -0.00183664902579 0.00178954424337 -0.00052853557281
v 0.00162049836945 0.00186171708629 -0.00037793023512
v 0.00162810552865 0.00185845547821 -0.00037536484888
v 0.00000768958944 -0.00351488217711 -0.00044040539069
v -0.00183534855023 0.001790931914 -0.00052892579697
v 0.00000139841222 -0.0034967509564 -0.00044867320685
v -0.00166021834593 0.0012674353784 -0.00048665760551
v 0.00001083861207 -0.00350331678055 -0.00042016294901
v -0.00000874593115 -0.00350365648046 -0.00040611805161
v 0.00000054262966 -0.00349901407026 -0.00041542647523
v 0.0016175013734 0.00185660971329 -0.0003447260242
v -0.0000000553187 -0.0034967509564 -0.00041540156235
v 0.00000379864446 -0.00349969789386 -0.00041585881263
v -0.00165542936884 0.00126878987066 -0.00048772944137
v -0.00000592202377 -0.00350212887861 -0.00041264775791
v -0.00166564027313 0.00126626121346 -0.00047851234558
v 0.00162581773475 0.00185505044647 -0.00034659568337
v -0.00166392780375 0.00126649066806 -0.00048330123536
v 0.00163216947112 0.00185413728468 -0.00035241892328
v 0.00200971681625 0.00324665335938 0.00005383041935
v -0.00166203966364 0.00126823293976 -0.00046955313883
v -0.00000707071331 -0.00350232305937 -0.00039916380774
v 0.00000073632441 -0.00350155192427 -0.00039847884909
v -0.00000365286746 -0.0034995181486 -0.00039598761941
v -0.00000186458919 -0.00349910720252 -0.00039553525858
v 0.00201059016399 0.003246802371 0.00005204217814
v 0.00200806534849 0.00324627547525 0.00005476057777
v -0.00165768561419 0.00127006694674 -0.0004676564422
v -0.00000023993684 -0.0035007703118 -0.00039627499063
v -0.00166494434234 0.00126687122975 -0.00047350622481
v -0.00000176735409 -0.00349704059772 -0.00039530478534
v 0.00200638524257 0.00324560026638 0.0000548348653
v -0.00000203697505 -0.00350063573569 -0.00040319605614
v -0.00000120254015 -0.00349876005203 -0.00040211831219
v -0.0000005791357 -0.00349875586107 -0.00040181176155
v 0.00000033580778 -0.00350063922815 -0.00040080852341
v -0.0000024737742 -0.00350146903656 -0.00040555218584
v 0.00200882810168 0.00324644916691 0.00004875391824
v -0.00165936804842 0.00126844830811 -0.00047794650891
v 0.00201019225642 0.00324676115997 0.00005008698281
v 0.00200722459704 0.00324579165317 0.00004822403571
v -0.0000009277997 -0.00349684944376 -0.00040191560402
v -0.00165684602689 0.00127025833353 -0.00047426726087
v -0.00165919156279 0.00126882817131 -0.00047624882427
v -0.00165826489683 0.00126946298406 -0.00047490882571
v -0.0016587266 0.0012683540117 -0.00047957035713
v -0.00000164683581 -0.00350056984462 -0.00040777571849
v 0.00000087128586 -0.00349912815727 -0.00040876175626
v 0.00000524882216 -0.00350022176281 -0.00040937287849
v 0.0016287532635 0.00185408559628 -0.00034068842069
v 0.00163754494861 0.00185246590991 -0.00034884753404
v 0.00164129841141 0.00185241294093 -0.00036035384983
v 0.0000152789471 -0.00350472144783 -0.00041539277299
v 0.00002186990059 -0.00350714288652 -0.00043111116975
v -0.0016574067995 0.00126850244123 -0.00048070770572
v -0.00165572040714 0.00126878987066 -0.00048106911709
v -0.00000034632623 -0.0034967509564 -0.00040874123806
v 0.0016172103351 0.00185660971329 -0.00033806569991
v -0.00184405501932 0.00178512756247 -0.0005259696627
v -0.0001424929651 0.00355589645915 -0.00046163325896
v 0.00000168941972 -0.0034967509564 -0.00045533353114
v 0.00162078940775 0.00186171708629 -0.00038459055941
v -0.00183505751193 0.001790931914 -0.00053558609216
v -0.00184286443982 0.00178640766535 -0.00053092243616
v -0.00183954229578 0.00178844970651 -0.00053444103105
v -0.00000693530546 -0.00350362830795 -0.00044570083264
v 0.00163907720707 0.0018541686004 -0.00037212119787
v -0.00000426766746 -0.00350215821527 -0.00045244855573
v -0.00000032642953 -0.00349925924093 -0.00045504589798
v 0.00001667500874 -0.00350472144783 -0.00044734452968
v 0.00000434144977 -0.0034996708855 -0.00045493655489
v 0.00163154513575 0.00185749062803 -0.00038099355879
v -0.00184271729086 0.00178472790867 -0.00052090646932
v 0.00146330369171 0.00133241864387 -0.0003681309463
v 0.00000274455624 -0.00350135285407 -0.00043194679893
v 0.00000215661044 -0.00350050744601 -0.0004342503089
v 0.00146003544796 0.00133258535061 -0.00037159526255
v 0.00000081639723 -0.0034967509564 -0.00043535258737
v -0.00183417985681 0.00178589194547 -0.00051552866353
v 0.00000069860727 -0.00349882873707 -0.00043535346049
v -0.0000011666823 -0.00349925924093 -0.00043581495993
v 0.00146168260835 0.0013323695166 -0.00037107829121
v -0.00000486636372 -0.00350215821527 -0.00043874615221
v 0.00146287109237 0.00133228278719 -0.00036981061567
v -0.0018391313497 0.00178508996032 -0.00051708600949
v -0.00231415778399 0.00316255586222 -0.00052955222782
v -0.00231574010104 0.00316284038126 -0.00052847911138
v -0.00231646606699 0.0031629097648 -0.0005266215303
v 0.00146288610995 0.00133281189483 -0.00036648841342
v -0.00000151612187 -0.00350143876858 -0.00042547492194
v -0.00000076034109 -0.00350056472234 -0.00042773000314
v 0.00000023804566 -0.00349866738543 -0.00042862122064
v -0.00231246370822 0.00316195539199 -0.00052978313761
v 0.00000052669623 -0.0034967509564 -0.00042872218182
v 0.00146022543777 0.00133417290635 -0.00036494390224
v 0.0000009008362 -0.00349865085445 -0.00042882043635
v 0.00000195794109 -0.00350050744601 -0.00042970335926
v 0.00146175152622 0.00133342808113 -0.00036532222293
v 0.00146468705498 0.00133246311452 -0.00035941496026
v 0.00146826158743 0.00133114040364 -0.00036291702418
v 0.00146967882756 0.00133048847783 -0.00036785239354
v -0.0023159047123 0.00316284038126 -0.00052470766241
v 0.00000911967163 -0.00350328278728 -0.00043166827527
v 0.00000639827658 -0.00350191211328 -0.00042493315414
v 0.00000234685399 -0.00349917332642 -0.00042235510773
v 0.00000046320008 -0.00349882012233 -0.000422210549
v -0.00000095990652 -0.00350056472234 -0.0004231625353
v 0.00145993451588 0.00133417290635 -0.00035828357795
v 0.00000023568876 -0.0034967509564 -0.00042206185753
v -0.00231275474653 0.00316195539199 -0.00052312284242
v -0.0023144222796 0.00316255586222 -0.00052350061014
v -0.00183573376853 0.00178618461359 -0.00052271661116
v -0.00183712376747 0.00178662396502 -0.00052399857668
v 0.00146853749175 0.00133061141241 -0.00037289952161
v -0.00000008819 -0.00350056472234 -0.00044311356032
v 0.00000135163464 -0.00349882617593 -0.00044209323823
v 0.00000319129867 -0.00349917495623 -0.00044155665091
v 0.00000699607699 -0.00350191211328 -0.00043861506856
v 0.00146512221545 0.00133140466642 -0.00037670703023
v 0.00146032636985 0.00133258535061 -0.00037825558684
v -0.00183388881851 0.00178589194547 -0.00052218895871
v 0.00000110740473 -0.0034967509564 -0.00044201291166
# 133 vertices

vn 0.1365647315979 -0.4189196228981 -0.89769506454468
vn 0.42904290556908 -0.45187854766846 -0.78213042020798
vn -0.17031396925449 -0.45714336633682 -0.87293362617493
vn -0.9214751124382 0.27488142251968 0.27445191144943
vn -0.80726182460785 0.23681712150574 0.54059785604477
vn -0.44063386321068 0.12134769558907 0.88944733142853
vn 0.0084699485451 -0.4494409263134 -0.89326989650726
vn 0.94979017972946 0.30991578102112 -0.04302124679089
vn -0.04365112632513 0 0.9990468621254
vn -0.23347096145153 0.05767014622688 0.97065210342407
vn -0.67241245508194 -0.58581525087357 -0.45241788029671
vn 0.68428844213486 -0.38337630033493 -0.62029987573624
vn 0.8610160946846 -0.38310089707375 -0.3344920873642
vn 0.67251068353653 0.2443675249815 0.6985799074173
vn 0.57620674371719 0.21224926412106 0.78926295042038
vn 0.71728801727295 0.25901627540588 0.64684504270554
vn 0.88205546140671 0.31175726652145 0.35325002670288
vn 0.542425096035 -0.63019865751266 0.55553996562958
vn -0.86974346637726 -0.30800431966782 -0.38558992743492
vn -0.7131472826004 -0.25765350461006 -0.65194755792618
vn -0.22648604214191 -0.09339226782322 -0.96952664852142
vn 0.05381901562214 0.00352152646519 -0.99854451417923
vn 0.04365112632513 0 -0.9990468621254
vn 0.96077901124954 0.25260812044144 0.11442402005196
vn -0.14687517285347 0.05731653049588 -0.98749303817749
vn -0.36112022399902 0.12125886976719 -0.92460179328918
vn 0.90861296653748 0.07586243003607 0.41069138050079
vn -0.75720280408859 0.23690730333328 -0.60870254039764
vn -0.89402109384537 0.27494153380394 -0.35374200344086
vn -0.53205066919327 -0.75521773099899 0.38284236192703
vn -0.33816385269165 -0.82338738441467 0.45571744441986
vn 0.53949850797653 -0.7644819021225 0.35285809636116
vn -0.12821066379547 -0.85238492488861 0.50695359706879
vn -0.82619613409042 -0.27960807085037 0.48910048604012
vn -0.92166125774384 -0.31683507561684 0.22395557165146
vn 0.97015780210495 -0.07148073613644 0.23169885575771
vn -0.67832905054092 0.62342470884323 -0.38885894417763
vn -0.30498450994492 0.88103580474854 -0.36160802841187
vn -0.52278506755829 0.75551563501358 -0.39483147859573
vn -0.12593185901642 -0.02866370044649 0.99162471294403
vn -0.49746131896973 -0.15981629490852 0.85263764858246
vn 0.26782667636871 -0.14336389303207 0.95274114608765
vn 0.127476349473 -0.10381801426411 0.98639321327209
vn 0.66472619771957 -0.24509207904339 0.70573997497559
vn 0.85409873723984 -0.28350207209587 0.43605262041092
vn -0.08596650511026 0.94409912824631 -0.3182555437088
vn 0.42848378419876 0.88011872768402 -0.20443248748779
vn 0.68725842237473 0.71859413385391 -0.10629360377789
vn 0.12572717666626 0.95125931501389 -0.28159976005554
vn 0.18028655648232 0.95708215236664 -0.22691512107849
vn -0.3059002161026 -0.09180165827274 0.9476273059845
vn 0.8359699845314 -0.21526227891445 -0.50479334592819
vn 0.93798792362213 -0.26440098881721 -0.22421152889729
vn -0.9460397362709 -0.31628438830376 -0.07051977515221
vn -0.93342399597168 -0.35508495569229 -0.05132552981377
vn -0.90031683444977 -0.43510317802429 -0.01071584131569
vn 0.12593185901642 0.02866370044649 -0.99162471294403
vn 0.4839034974575 -0.08597018569708 -0.8708883523941
vn 0.49589261412621 0.15928418934345 -0.85365045070648
vn 0.29901441931725 0.08940783888102 -0.95005083084106
vn 0.82705849409103 0.27990886569023 -0.48746827244759
vn 0.92167347669601 0.31677588820457 -0.22398905456066
vn -0.06123377382755 -0.93738120794296 0.34288036823273
vn -0.90287733078003 -0.42969739437103 -0.01314183883369
vn 0.72771388292313 -0.55515277385712 0.40278765559196
vn 0.8581468462944 -0.37056973576546 0.35533377528191
vn 0.94281214475632 -0.16619752347469 0.28893533349037
vn 0.28561142086983 -0.02108512818813 -0.95811355113983
vn -0.97388875484467 -0.18525329232216 -0.13123236596584
vn -0.31692829728127 0.9083645939827 -0.27281901240349
vn 0.10736106336117 0.92497801780701 -0.36453977227211
vn -0.0832449644804 0.93181556463242 -0.35325634479523
vn 0.31480267643929 0.86753702163696 -0.38506990671158
vn 0.46552792191505 0.81381350755692 -0.34783804416656
vn -0.8893591761589 -0.45584389567375 0.0353072732687
vn 0.70695745944977 0.2556300163269 0.65944254398346
vn 0.86975198984146 0.30797585844994 0.38559344410896
vn 0.47049978375435 0.17661835253239 0.86454373598099
vn 0.36109349131584 -0.1212610155344 0.9246119260788
vn 0.14684481918812 -0.05731750652194 0.98749750852585
vn -0.94502276182175 0.09611712396145 -0.31255948543549
vn 0.757195353508 -0.23688432574272 0.60872077941895
vn 0.89402866363525 -0.27491283416748 0.35374522209167
vn -0.56995606422424 0.67994385957718 -0.46133115887642
vn 0.92930316925049 0.32036900520325 -0.18373712897301
vn -0.35579997301102 -0.13759931921959 -0.92437696456909
vn -0.14434257149696 -0.06506565213203 -0.9873862862587
vn -0.74686378240585 -0.26868003606796 -0.60828083753586
vn -0.88205677270889 -0.31178870797157 -0.35321900248528
vn 0.4816161096096 0.79718625545502 0.36406043171883
vn -0.00148474692833 0.7237896323204 0.69001913070679
vn 0.24525631964207 0.77799206972122 0.57842689752579
vn -0.41030699014664 0.7332034111023 0.54227381944656
vn -0.60179764032364 0.73901736736298 0.30280846357346
vn 0.79875975847244 -0.23418971896172 -0.55420035123825
vn 0.92145413160324 -0.27497866749763 -0.2744248509407
vn 0.41446962952614 -0.11326886713505 -0.90298676490784
vn -0.18020218610764 0.6584141254425 0.73076540231705
vn 0.6029417514801 0.61645156145096 0.50640761852264
vn -0.25079476833344 0.59029120206833 0.76724070310593
vn -0.4693954885006 0.46346086263657 0.75157958269119
vn 0.20692901313305 -0.04940459132195 -0.97710776329041
vn -0.79707723855972 -0.26871398091316 0.54079633951187
vn -0.909488260746 -0.31182524561882 0.27494743466377
vn -0.43509316444397 -0.13759824633598 0.88980937004089
vn -0.40182706713676 0.10940517485142 0.90915650129318
vn -0.17220771312714 0.03902455791831 0.98428732156754
vn -0.80085247755051 0.23470754921436 0.55095165967941
vn -0.92149591445923 0.27481555938721 0.27444788813591
vn 0.51514804363251 0.58945995569229 -0.62222135066986
vn 0.33321559429169 0.50368112325668 -0.79703998565674
vn 0.64777702093124 0.68318402767181 -0.33711203932762
vn 0.91588920354843 0.39116552472115 -0.09020239114761
vn 0.87204575538635 0.43318799138069 -0.22778135538101
vn 0.80846506357193 0.46543353796005 -0.36021640896797
vn 0.53793680667877 -0.03082211688161 0.84242153167725
vn 0.1280210763216 0.34570983052254 -0.92956727743149
vn -0.22994124889374 -0.06506591290236 0.97102701663971
vn -0.07802427560091 0.24006198346615 -0.96761691570282
vn 0.94737726449966 0.18129885196686 0.26383140683174
vn -0.6801540851593 -0.59253686666489 0.4316138625145
vn -0.93493908643723 -0.16792739927769 -0.31255289912224
vn 0.77605974674225 -0.09632181376219 0.62326031923294
vn 0.83382570743561 0.00166102696676 0.55202531814575
vn 0.78452390432358 -0.08578234165907 0.61413651704788
vn 0.85454642772675 0.04634487256408 0.5173032283783
vn 0.90387713909149 0.19748423993587 0.37948128581047
vn -0.75805902481079 0.23708508908749 -0.60756659507751
vn -0.8940497636795 0.27484700083733 -0.35374304652214
vn -0.35986638069153 0.12093893438578 -0.92513239383698
vn -0.32494762539864 -0.12706990540028 -0.93715649843216
vn -0.1171635761857 -0.05573046952486 -0.99154770374298
vn -0.72902339696884 -0.26280501484871 -0.63202726840973
vn -0.87527680397034 -0.30967012047768 -0.37147670984268
vn -0.14145322144032 0.05576939880848 -0.98837280273438
vn 0.47493925690651 0.77928751707077 -0.40883213281631
vn -0.32246735692024 0.64243644475937 -0.69519072771072
vn -0.94906485080719 -0.08246937394142 -0.30409646034241
vn 0.42207708954811 0.74201542139053 -0.52083021402359
vn 0.68360304832458 0.63858300447464 -0.35340994596481
vn 0.11534735560417 0.76596355438232 -0.63245141506195
vn -0.81326389312744 0.41073530912399 -0.41218730807304
vn -0.76484632492065 -0.25672736763954 0.59084784984589
vn -0.90434110164642 -0.30967012047768 0.29372027516365
vn -0.42179498076439 -0.13291276991367 0.89689642190933
vn 0.36153304576874 -0.12140531092882 0.92442125082016
vn 0.14865192770958 -0.05790545791388 0.98719274997711
vn 0.75692707300186 -0.23678563535213 0.60909271240234
vn 0.89404380321503 -0.27485537528992 0.35375162959099
vn -0.29372483491898 -0.08758094161749 0.95186936855316
vn -0.84345430135727 -0.11745622754097 0.5242030620575
vn -0.59285908937454 -0.08585983514786 0.80071604251862
vn -0.95728820562363 -0.08915397524834 0.27504706382751
vn -0.44846180081367 -0.06307190656662 0.89157384634018
vn -0.33143964409828 -0.03672202304006 0.94276148080826
vn -0.47451633214951 -0.09531354159117 0.87507116794586
vn -0.48989766836166 -0.10235819965601 0.86575001478195
vn -0.84851139783859 -0.39415198564529 0.35309013724327
vn 0.80765968561172 -0.23697017133236 -0.53993606567383
vn 0.92148280143738 -0.27488413453102 -0.27442336082458
vn 0.44001477956772 -0.12117174267769 -0.88977771997452
vn 0.42807805538177 0.13513746857643 -0.89358103275299
vn 0.25729283690453 0.07472909241915 -0.96343964338303
vn 0.78503841161728 0.26419997215271 -0.56027942895889
vn 0.90951937437058 0.31176340579987 -0.27491477131844
vn 0.23069941997528 -0.05678967386484 -0.97136640548706
# 166 normals

vt 0.49995157122612 0.00212597846985 0
vt 0.5 0 0
vt 0.5 0.00239622592926 0
vt 0.49946200847626 0.00165581703186 0
vt 0.2547627389431 0.75476276874542 0
vt 0.25495859980583 0.75495862960815 0
vt 0.49977412819862 0.00184786319733 0
vt 0.25515449047089 0.75515449047089 0
vt 0.50004839897156 0.00212597846985 0
vt 0.50022584199905 0.00184786319733 0
vt 0.25535038113594 0.75535035133362 0
vt 0.5 1 0
vt 0.74464964866638 0.75535035133362 0
vt 0.50053799152374 0.00165581703186 0
vt 0.74484550952911 0.75515449047089 0
vt 0.74504137039185 0.75495862960815 0
vt 0.74523729085922 0.75476276874542 0
vt 0.72123175859451 0.68088132143021 0
vt 0.7209849357605 0.68092042207718 0
vt 0.72073811292648 0.68095946311951 0
vt 0.72049129009247 0.68099856376648 0
vt 0.2555835545063 0.75463271141052 0
vt 0.25530993938446 0.75467610359192 0
vt 0.25503632426262 0.75471937656403 0
vt 0.72100907564163 0.68099474906921 0
vt 0.19191606342793 0.95058107376099 0
vt 0.72056376934052 0.68122166395187 0
vt 0.72078639268875 0.68110823631287 0
vt 0.19167397916317 0.95066893100739 0
vt 0.19139903783798 0.95069444179535 0
vt 0.19111704826355 0.95064401626587 0
vt 0.74496364593506 0.75471937656403 0
vt 0.74469006061554 0.75467610359192 0
vt 0.27926191687584 0.68095946311951 0
vt 0.27950873970985 0.68099856376648 0
vt 0.27901509404182 0.68092042207718 0
vt 0.27876827120781 0.68088132143021 0
vt 0.74441647529602 0.75463271141052 0
vt 0.27899092435837 0.68099474906921 0
vt 0.27921357750893 0.68110823631287 0
vt 0.80832600593567 0.95066893100739 0
vt 0.80808395147324 0.95058107376099 0
vt 0.27943626046181 0.68122166395187 0
vt 0.80860096216202 0.95069444179535 0
vt 0.80888295173645 0.95064401626587 0
# 45 texture coordinates

o Decagon_web
usemtl Mat
f 7/1/1 15/2/2 17/3/3
f 3/4/4 2/5/4 11/6/5 6/7/5
f 6/7/5 11/6/5 14/8/6 7/1/6
f 8/9/7 15/2/7 4/10/7
f 17/3/8 15/2/8 8/9/8
f 13/11/9 1/12/9 17/3/9
f 1/12/9 16/13/9 17/3/9
f 7/1/6 14/8/6 13/11/10 17/3/10
f 4/10/11 15/2/11 5/14/11
f 6/7/12 15/2/2 7/1/1
f 3/4/13 15/2/2 6/7/12
f 17/3/14 16/13/14 12/15/15 8/9/15
f 8/9/15 12/15/15 10/16/16 4/10/16
f 4/10/16 10/16/16 9/17/17 5/14/17
f 26/10/18 15/2/18 21/9/18
f 20/14/19 27/18/19 29/19/20 26/10/20
f 26/10/20 29/19/20 18/20/21 21/9/21
f 21/9/21 18/20/21 25/21/22 23/3/22
f 25/21/23 22/22/23 23/3/23
f 21/9/24 15/2/24 23/3/24
f 23/3/25 22/22/25 28/23/26 24/1/26
f 20/14/27 15/2/27 26/10/27
f 24/1/26 28/23/26 30/24/28 19/7/28
f 19/7/28 30/24/28 2/5/29 3/4/29
f 23/3/30 15/2/31 24/1/31
f 19/7/32 15/2/32 3/4/32
f 24/1/31 15/2/31 19/7/33
f 33/10/34 41/25/34 27/18/35 20/14/35
f 36/1/36 15/2/36 42/3/36
f 42/3/37 15/2/38 35/9/39
f 43/26/40 39/27/40 42/3/40
f 35/9/41 32/28/41 41/25/34 33/10/34
f 36/1/42 38/29/42 43/26/43 42/3/43
f 40/7/44 31/30/44 38/29/42 36/1/42
f 34/4/45 37/31/45 31/30/44 40/7/44
f 35/9/39 15/2/38 33/10/46
f 40/7/47 15/2/47 36/1/48
f 34/4/49 15/2/47 40/7/47
f 33/10/46 15/2/38 20/14/50
f 42/3/51 39/27/51 32/28/41 35/9/41
f 47/7/52 51/30/52 37/31/53 34/4/53
f 46/1/54 15/2/55 47/7/56
f 54/27/57 52/26/57 53/3/57
f 46/1/58 49/29/58 51/30/52 47/7/52
f 45/9/59 56/28/59 54/27/60 53/3/60
f 44/10/61 55/25/61 56/28/59 45/9/59
f 48/14/62 50/18/62 55/25/61 44/10/61
f 48/14/63 15/2/63 44/10/63
f 47/7/56 15/2/55 34/4/64
f 44/10/65 15/2/66 45/9/66
f 45/9/66 15/2/66 53/3/67
f 53/3/68 52/26/68 49/29/58 46/1/58
f 53/3/69 15/2/55 46/1/54
f 65/4/70 15/2/71 64/7/72
f 69/22/9 67/21/9 68/3/9
f 64/7/72 15/2/71 60/1/73
f 60/1/73 15/2/71 68/3/74
f 68/3/75 15/2/75 59/9/75
f 58/10/76 57/19/76 50/18/77 48/14/77
f 59/9/78 66/20/78 57/19/76 58/10/76
f 60/1/79 61/23/79 69/22/80 68/3/80
f 58/10/81 15/2/81 48/14/81
f 64/7/82 62/24/82 61/23/79 60/1/79
f 65/4/83 63/5/83 62/24/82 64/7/82
f 59/9/84 15/2/84 58/10/84
f 68/3/85 67/21/85 66/20/85 59/9/85
f 80/9/86 76/15/86 74/13/87 72/3/87
f 79/10/88 75/16/88 76/15/86 80/9/86
f 77/14/89 70/17/89 75/16/88 79/10/88
f 77/14/90 15/2/91 79/10/92
f 81/7/93 15/2/93 65/4/94
f 81/7/95 78/6/95 63/5/96 65/4/96
f 82/1/97 83/8/97 78/6/95 81/7/95
f 82/1/98 15/2/93 81/7/93
f 72/3/99 15/2/99 82/1/99
f 79/10/92 15/2/91 80/9/100
f 80/9/100 15/2/91 72/3/101
f 74/13/23 71/12/23 72/3/23
f 71/12/23 73/11/23 72/3/23
f 72/3/102 73/11/102 83/8/97 82/1/97
f 94/10/103 84/32/103 70/17/104 77/14/104
f 92/9/105 96/33/105 84/32/103 94/10/103
f 91/1/106 93/34/106 88/35/107 89/3/107
f 87/7/108 95/36/108 93/34/106 91/1/106
f 86/4/109 85/37/109 95/36/108 87/7/108
f 94/10/110 15/2/111 77/14/112
f 86/4/113 15/2/114 87/7/114
f 87/7/114 15/2/114 91/1/115
f 91/1/116 15/2/116 89/3/116
f 92/9/117 15/2/111 94/10/110
f 88/35/9 90/38/9 89/3/9
f 89/3/118 90/38/118 96/33/105 92/9/105
f 89/3/119 15/2/111 92/9/117
f 108/7/120 15/2/120 86/4/120
f 107/1/121 15/2/121 108/7/121
f 105/3/122 15/2/122 107/1/122
f 103/9/123 15/2/124 105/3/125
f 102/10/126 15/2/124 103/9/123
f 101/14/127 15/2/124 102/10/126
f 108/7/128 100/39/128 85/37/129 86/4/129
f 107/1/130 109/40/130 100/39/128 108/7/128
f 103/9/131 97/41/131 104/42/132 105/3/132
f 104/42/23 106/43/23 105/3/23
f 102/10/133 98/44/133 97/41/131 103/9/131
f 101/14/134 99/45/134 98/44/133 102/10/133
f 105/3/135 106/43/135 109/40/130 107/1/130
f 118/10/136 15/2/136 101/14/136
f 117/9/137 15/2/137 118/10/137
f 120/3/138 15/2/138 117/9/138
f 116/1/139 15/2/139 120/3/140
f 115/7/141 15/2/139 116/1/139
f 114/4/142 15/2/142 115/7/142
f 118/10/143 113/44/143 99/45/144 101/14/144
f 117/9/145 122/41/145 113/44/143 118/10/143
f 119/43/9 121/42/9 120/3/9
f 116/1/146 110/40/146 119/43/147 120/3/147
f 115/7/148 111/39/148 110/40/146 116/1/146
f 114/4/149 112/37/149 111/39/148 115/7/148
f 120/3/150 121/42/150 122/41/145 117/9/145
f 129/7/151 15/2/152 114/4/153
f 128/1/154 15/2/152 129/7/151
f 133/3/155 15/2/152 128/1/154
f 127/9/156 15/2/152 133/3/155
f 126/10/157 15/2/152 127/9/156
f 5/14/158 15/2/158 126/10/158
f 129/7/159 125/36/159 112/37/160 114/4/160
f 132/38/23 131/35/23 133/3/23
f 128/1/161 130/34/161 125/36/159 129/7/159
f 127/9/162 123/33/162 132/38/163 133/3/163
f 126/10/164 124/32/164 123/33/162 127/9/162
f 5/14/165 9/17/165 124/32/164 126/10/164
f 133/3/166 131/35/166 130/34/161 128/1/161

