# WaveFront *.obj file (generated by CINEMA 4D)

mtllib ./DecagonShape_57.mtl

v -0.00067391776247 0.00362870423123 -0.00329815899022
v 0.00112637528218 0.00208474788815 -0.0026350512635
v 0.00002006433351 -0.0033930526115 -0.00298457965255
v 0.00000966203061 -0.00338988774456 -0.00300455512479
v 0.00000835323772 -0.00339079857804 -0.00300258584321
v 0.00001965116644 -0.00339157320559 -0.0029966852162
v 0.00001446754868 -0.00338858738542 -0.00300332088955
v 0.0000116845822 -0.00338814221323 -0.00300477514975
v -0.00213188864291 0.00172240880784 -0.00379433529451
v -0.00213128980249 0.00172339112032 -0.00379589851946
v 0.00112713791896 0.00208604265936 -0.00264351326041
v -0.00213017198257 0.00172469206154 -0.00379680795595
v 0.0011169675272 0.00209069927223 -0.00265580741689
v 0.00112368457485 0.00208813324571 -0.00265110051259
v 0.00001586605322 -0.0034034231212 -0.00299502001144
v -0.00212892657146 0.00172618043143 -0.00379685359076
v 0.00001088104636 -0.00338598946109 -0.00300526479259
v -0.00196393975057 0.00122026843019 -0.00359318684787
v 0.00001246163993 -0.00339149450883 -0.00297516305
v -0.00000950169215 -0.0033935464453 -0.00296866102144
v 0.000001065986 -0.00338807376102 -0.00297342683189
v 0.00110534008127 0.00208559515886 -0.00262448959984
v 0.00000030797665 -0.00338587374426 -0.00297361379489
v 0.00000433558807 -0.00338847702369 -0.00297298445366
v -0.0019596638158 0.00122183002532 -0.00359284807928
v -0.0000049167229 -0.00339149287902 -0.00297286431305
v -0.00197127345018 0.00121838913765 -0.00358846411109
v 0.00111388356891 0.00208475277759 -0.00262408633716
v -0.00196804921143 0.00121903256513 -0.00359163037501
v 0.00112155044917 0.0020843599923 -0.00262794969603
v 0.00010969320283 0.00323340529576 -0.0005348304403
v -0.0019730895292 0.00121938833036 -0.00357978511602
v -0.00001160175634 -0.00339294178411 -0.00296248635277
v -0.00000613002112 -0.00339197483845 -0.00295759434812
v -0.00001125353629 -0.00339059066027 -0.00295817293227
v -0.00001032547425 -0.00339023629203 -0.00295680202544
v 0.00011147530313 0.00323393405415 -0.00053555658087
v 0.00010792123794 0.00323277851567 -0.00053528108401
v -0.00197139382362 0.00122094224207 -0.0035758423619
v -0.00000840772645 -0.00339167565107 -0.0029565251898
v -0.00197305367328 0.00121849926654 -0.00358426221646
v -0.00001077755223 -0.00338827632368 -0.0029564043507
v 0.00010672835197 0.0032320227474 -0.00053641683189
v -0.00000545883495 -0.00339036877267 -0.0029627836775
v -0.00000569557687 -0.00338864000514 -0.00296125002205
v -0.0000054134548 -0.00338865956292 -0.00296061742119
v -0.00000507286268 -0.00339065422304 -0.00295948120765
v -0.00000451360074 -0.00339094386436 -0.00296508474275
v 0.00011233959958 0.00323413219303 -0.00053919747006
v -0.0019662855193 0.00122099136934 -0.00358488759957
v 0.00011244692723 0.00323424814269 -0.00053727132035
v 0.00011159118003 0.00323351239786 -0.00054072710918
v -0.00000591463231 -0.00338678713888 -0.0029607147444
v -0.0019665309228 0.00122243142687 -0.00358015252277
v -0.00196702871472 0.00122118985746 -0.00358331133612
v -0.00196710880846 0.00122168415692 -0.00358163029887
v -0.0019649930764 0.00122107949574 -0.00358607037924
v -0.00000291750121 -0.00338981789537 -0.00296672899276
v -0.00000034714171 -0.00338813546114 -0.00296690501273
v 0.00000407131392 -0.00338884815574 -0.0029663334135
v 0.00111521803774 0.00208406895399 -0.00261759059504
v 0.00112587760668 0.00208317162469 -0.00262301950715
v 0.00113255972974 0.00208336650394 -0.00263298046775
v 0.00001556071038 -0.00339249148965 -0.0029693453107
v 0.00002624881563 -0.00339443376288 -0.00298250862397
v -0.00196336442605 0.00122139288578 -0.00358664104715
v -0.00196167221293 0.00122183002532 -0.00358649110422
v -0.00000170043836 -0.00338587374426 -0.00296725681983
v 0.00110333168413 0.00208559515886 -0.00261813262478
v -0.00213763699867 0.0017196922563 -0.00379634066485
v -0.00067170220427 0.0036286576651 -0.00330444658175
v 0.0000130965509 -0.00338603579439 -0.00301155238412
v 0.00111918302719 0.00209065293893 -0.00266209500842
v -0.00212671095505 0.00172613409813 -0.00380314118229
v -0.00213515991345 0.00172101554926 -0.00380077911541
v -0.00213112751953 0.0017232936807 -0.0038032559678
v 0.00000260497063 -0.00339351524599 -0.00300459144637
v 0.00113355694339 0.00208483124152 -0.00264484481886
v 0.00000699769407 -0.00339189660735 -0.00301032676362
v 0.00001128592976 -0.00338870240375 -0.00301177287474
v 0.00002562243753 -0.00339260161854 -0.00299946544692
v 0.0000157104987 -0.00338871008717 -0.00301031931303
v 0.00112865387928 0.00208740960807 -0.00265548541211
v -0.00213780347258 0.00171946058981 -0.0037910961546
v 0.00100547471084 0.0015501260059 -0.0026734827552
v 0.00000769537201 -0.00339029030874 -0.0029887217097
v 0.00000770862516 -0.00338951614685 -0.00299112452194
v 0.00100331392605 0.00154998630751 -0.00267774006352
v 0.0000064500382 -0.00338589702733 -0.00299268960953
v -0.002131317975 0.0017214003019 -0.00378352380358
v 0.00000649988669 -0.0033879771363 -0.00299265282229
v 0.00000488889782 -0.00338856875896 -0.00299361813813
v 0.00100475409999 0.00154991599265 -0.00267676566727
v 0.00000243968793 -0.00339180137962 -0.00299739115871
v 0.00100553815719 0.00154994113836 -0.00267521198839
v -0.00213552382775 0.00172016548458 -0.00378641718999
v -0.00273600732908 0.00305274850689 -0.0038517897483
v -0.00273783132434 0.00305290170945 -0.00385116925463
v -0.00273901759647 0.00305291614495 -0.00384956481867
v 0.00100459496025 0.00155049329624 -0.00267202686518
v 0.00000189565344 -0.00339070591144 -0.00298359943554
v 0.00000313742134 -0.00338977901265 -0.00298560434021
v 0.00000417581532 -0.00338780740276 -0.00298625556752
v -0.002734268317 0.00305229285732 -0.00385155994445
v 0.00000432480601 -0.00338587374426 -0.00298632774502
v 0.00100151647348 0.00155163207091 -0.00267127458937
v 0.0000048639713 -0.00338773545809 -0.00298627605662
v 0.00000626349993 -0.00338950031437 -0.00298679829575
v 0.00100314372685 0.00155101774726 -0.00267122196965
v 0.00100447819568 0.00155033380724 -0.00266472622752
v 0.00100892211776 0.00154930504505 -0.0026670966763
v 0.00101165927481 0.0015487447381 -0.00267141172662
v -0.0027389684692 0.00305290170945 -0.00384756969288
v 0.00001387985321 -0.00339167146012 -0.00298665068112
v 0.00000936257038 -0.00339049729519 -0.00298098055646
v 0.00000460096862 -0.00338810542598 -0.00297964597121
v 0.00000273589717 -0.00338791543618 -0.00298000383191
v 0.00000176010269 -0.00338977901265 -0.00298124505207
v 0.00099950807635 0.00155163207091 -0.00266491761431
v 0.00000231639115 -0.00338587374426 -0.00297997076996
v -0.00273627671413 0.00305229285732 -0.00384520296939
v -0.00273783202283 0.00305274850689 -0.00384601391852
v -0.00213073124178 0.00172148377169 -0.0037908598315
v -0.00213171751238 0.00172179017682 -0.00379250315018
v 0.0010119570652 0.00154872972053 -0.00267654377967
v 0.00000814269515 -0.00338985584676 -0.0030002433341
v 0.00000907812682 -0.00338798970915 -0.00299891387112
v 0.00001069370592 -0.00338817341253 -0.00299786636606
v 0.00001367989717 -0.00339054455981 -0.00299390475266
v 0.00100972328801 0.00154919212218 -0.00268115056679
v 0.00100552942604 0.00154994032346 -0.00268402765505
v -0.00212910235859 0.00172135396861 -0.00378981139511
v 0.00000866554274 -0.0033859431278 -0.00299897720106
# 133 vertices

vn 0.42213088274002 -0.41201058030128 -0.80749785900116
vn 0.66867673397064 -0.4189884364605 -0.61426389217377
vn 0.12778241932392 -0.47507923841476 -0.87061548233032
vn -0.9801921248436 0.19804885983467 -0.000104018196
vn -0.94281494617462 0.17223906517029 0.28536587953568
vn -0.68519055843353 0.0922524034977 0.72249799966812
vn 0.30020150542259 -0.45356217026711 -0.83914268016815
vn 0.8971836566925 0.38436192274094 0.21754856407642
vn -0.33229783177376 0.00693818833679 0.94314897060394
vn -0.50780242681503 0.04760865867138 0.86015701293945
vn -0.46727845072746 -0.64222371578217 -0.60761791467667
vn 0.85946297645569 -0.32945039868355 -0.39087834954262
vn 0.94730550050735 -0.31247279047966 -0.07052005082369
vn 0.39788776636124 0.30090066790581 0.86668568849564
vn 0.2924228310585 0.26479998230934 0.91889601945877
vn 0.47591158747673 0.32573309540749 0.8169492483139
vn 0.71407771110535 0.38903501629829 0.58201783895493
vn 0.57415986061096 -0.36282321810722 0.73396164178848
vn 0.40385261178017 -0.59187692403793 0.69755625724792
vn -0.58426070213318 -0.34713923931122 -0.73357599973679
vn -0.3790317773819 -0.27978739142418 -0.88207364082336
vn 0.09084220975637 -0.09459271281958 -0.99136263132095
vn 0.32328441739082 0.01034275256097 -0.94624531269073
vn 0.30126222968102 0 -0.95354133844376
vn 0.87144362926483 0.33099591732025 0.36197754740715
vn 0.11232940107584 0.04055136442184 -0.99284321069717
vn -0.11293467134237 0.08591753989458 -0.98988074064255
vn 0.69694089889526 -0.10369993001223 0.70959120988846
vn -0.58188778162003 0.16834832727909 -0.79565411806107
vn -0.78302502632141 0.19591994583607 -0.5903280377388
vn -0.552854180336 -0.79492998123169 0.24987718462944
vn -0.37986090779305 -0.84570002555847 0.37482956051826
vn 0.48593470454216 -0.70993119478226 0.50976973772049
vn -0.18859143555164 -0.85576599836349 0.48176538944244
vn -0.91446805000305 -0.39847847819328 -0.07044888287783
vn -0.86155104637146 -0.40728053450584 -0.30307149887085
vn 0.83509302139282 0.08229059726 0.54391902685165
vn -0.5499307513237 0.57558619976044 -0.60520797967911
vn -0.39031508564949 0.74162954092026 -0.54556369781494
vn -0.72944182157516 -0.22338382899761 0.64654022455215
vn -0.87915152311325 -0.3273868560791 0.34628090262413
vn -0.3994707763195 -0.30847051739693 0.86328965425491
vn -0.54596853256226 -0.27905142307281 0.78996753692627
vn 0.08455672115088 -0.34343263506889 0.93536311388016
vn 0.40195795893669 -0.32066226005554 0.85767447948456
vn -0.20862343907356 0.86569082736969 -0.45503368973732
vn 0.58419889211655 0.80214166641235 0.12361385673285
vn -0.0161218456924 0.95344692468643 -0.30112969875336
vn 0.40592369437218 0.91260629892349 0.04874093085527
vn -0.81201553344727 -0.27625942230225 0.51411235332489
vn 0.98468959331512 -0.07498430460691 0.15736521780491
vn 0.88767158985138 -0.17192657291889 0.42717722058296
vn -0.86266154050827 -0.30736297369003 -0.40167540311813
vn -0.87226927280426 -0.21481686830521 -0.43931770324707
vn -0.87409865856171 -0.1945720911026 -0.44507667422295
vn 0.72944182157516 0.22338382899761 -0.64654022455215
vn 0.93736898899078 0.10477624833584 -0.33220675587654
vn 0.87859487533569 0.32692494988441 -0.34812507033348
vn 0.80853193998337 0.27390339970589 -0.52081954479218
vn 0.91425597667694 0.39861264824867 0.07241483777761
vn 0.8615779876709 0.40721747279167 0.30307969450951
vn -0.52587002515793 -0.85055804252625 -0.00342495087534
vn -0.86502879858017 -0.02358148992062 -0.50116777420044
vn 0.64714026451111 -0.45443466305733 0.61212629079819
vn 0.75592201948166 -0.26497626304626 0.59863966703415
vn 0.82848101854324 -0.06284583359957 0.55647963285446
vn 0.83557665348053 0.17545109987259 -0.52060401439667
vn -0.86752992868423 -0.25440344214439 -0.42739990353584
vn -0.3043427169323 0.87512731552124 -0.37620162963867
vn 0.1259827464819 0.9277685880661 -0.35124599933624
vn -0.06075748056173 0.91811269521713 -0.39163458347321
vn -0.30126222968102 0 0.95354133844376
vn 0.33514660596848 0.8884471654892 -0.31358954310417
vn 0.47472003102303 0.84799945354462 -0.23566462099552
vn -0.82871401309967 -0.52569025754929 -0.19204905629158
vn 0.37246617674828 0.27747455239296 0.88559406995773
vn 0.58426070213318 0.34713923931122 0.73357599973679
vn 0.13354313373566 0.18764504790306 0.97311639785767
vn 0.1128938049078 -0.08591944724321 0.98988527059555
vn -0.11239260435104 -0.04058817028999 0.99283456802368
vn -0.63802409172058 0.43721359968185 -0.6338529586792
vn -0.76829063892364 0.20217426121235 -0.60733437538147
vn 0.58185213804245 -0.16835261881351 0.79567927122116
vn 0.78302502632141 -0.19591994583607 0.5903280377388
vn -0.46121907234192 0.64035338163376 -0.61418604850769
vn 0.91405469179153 0.39898401498795 0.07290923595428
vn -0.05958511680365 -0.17702205479145 -0.98240154981613
vn 0.15475407242775 -0.08756559342146 -0.98406475782394
vn -0.51427829265594 -0.33736449480057 -0.78848147392273
vn -0.71402424573898 -0.38906180858612 -0.58206552267075
vn 0.29315003752708 0.83762639760971 0.46091765165329
vn -0.25689765810966 0.72723335027695 0.63650238513947
vn 0.00689037470147 0.80073744058609 0.59897589683533
vn -0.6030330657959 0.70048779249191 0.38166478276253
vn -0.71793633699417 0.68875086307526 0.10094403475523
vn 0.93836033344269 -0.1704728603363 -0.30069741606712
vn 0.98017263412476 -0.19814550876617 0.00009762842092
vn 0.66373258829117 -0.08661548793316 -0.74293792247772
vn -0.43253514170647 0.64765655994415 0.62725937366486
vn 0.38216128945351 0.66800963878632 0.63852632045746
vn -0.50701147317886 0.57402104139328 0.64299237728119
vn -0.70144021511078 0.42925328016281 0.56896680593491
vn 0.33229783177376 -0.00693818833679 -0.94314897060394
vn 0.48400020599365 -0.04178106412292 -0.87406986951828
vn -0.89650398492813 -0.3294121325016 0.29625716805458
vn -0.92297565937042 -0.38470330834389 0.01092395372689
vn -0.66310691833496 -0.16443452239037 0.730240046978
vn -0.65313160419464 0.08387692272663 0.75258469581604
vn -0.45211187005043 0.03442421928048 0.89129668474197
vn -0.93948847055435 0.17080470919609 0.29696327447891
vn -0.98020541667938 0.1979832649231 -0.00014119778643
vn 0.62439477443695 0.62604075670242 -0.46712324023247
vn 0.50715529918671 0.52412331104279 -0.68416976928711
vn 0.66204690933228 0.7323796749115 -0.15910351276398
vn 0.87046992778778 0.4670706987381 0.15532889962196
vn 0.86399781703949 0.50334560871124 0.01228909566998
vn 0.83869183063507 0.52861815690994 -0.1309916973114
vn 0.28169396519661 0.02381395176053 0.95920872688293
vn 0.36129784584045 0.34859848022461 -0.86483693122864
vn -0.49674969911575 -0.07393991202116 0.86473846435547
vn 0.18306346237659 0.22553783655167 -0.95688056945801
vn 0.82207536697388 0.27138128876686 0.50054401159286
vn -0.72023272514343 -0.6460268497467 0.25281244516373
vn -0.79289001226425 -0.24506126344204 -0.55791610479355
vn 0.57980120182037 -0.02302747964859 0.81443250179291
vn 0.64883410930634 0.08196198940277 0.756502866745
vn 0.58683371543884 -0.01502391695976 0.80956810712814
vn 0.67654222249985 0.131068572402 0.7246458530426
vn 0.74926763772964 0.28715398907661 0.59677517414093
vn -0.58302330970764 0.16847884654999 -0.79479479789734
vn -0.78304469585419 0.19582326710224 -0.59033399820328
vn -0.1115328297019 0.08567617833614 -0.99006062746048
vn -0.05922987684608 -0.15766882896423 -0.98571413755417
vn 0.14900963008404 -0.06917511671782 -0.98641318082809
vn -0.51627206802368 -0.32602223753929 -0.79194229841232
vn -0.72085613012314 -0.38415032625198 -0.5768837928772
vn 0.11789932101965 0.03946583718061 -0.99224102497101
vn 0.50266075134277 0.8138934969902 -0.29139238595963
vn -0.17124298214912 0.60667288303375 -0.7762885093689
vn -0.81884622573853 -0.15929673612118 -0.55146658420563
vn 0.48432400822639 0.77107518911362 -0.41336819529533
vn 0.70059263706207 0.69159144163132 -0.17570218443871
vn 0.21503107249737 0.76607710123062 -0.60571241378784
vn -0.7041876912117 0.32905644178391 -0.62915945053101
vn -0.86868399381638 -0.3185450732708 0.37936413288116
vn -0.9214460849762 -0.38415032625198 0.05801416561008
vn -0.62742215394974 -0.164595708251 0.76108455657959
vn 0.11336272954941 -0.08603367954493 0.98982173204422
vn -0.11049103736877 -0.04101978242397 0.99303025007248
vn 0.5814927816391 -0.16825556755066 0.79596245288849
vn 0.78301560878754 -0.19585937261581 0.59036058187485
vn -0.52105474472046 -0.10785784572363 0.84668099880218
vn -0.94533187150955 -0.18378837406635 0.26938727498055
vn -0.78795003890991 -0.12911194562912 0.60205054283142
vn -0.98588365316391 -0.16742803156376 0.00114163209219
vn -0.68246603012085 -0.0962086468935 0.72455781698227
vn -0.58325672149658 -0.05678257346153 0.81030076742172
vn -0.6928962469101 -0.12559877336025 0.71001392602921
vn -0.70903766155243 -0.13730293512344 0.69167441129684
vn -0.88116717338562 -0.46072375774384 0.10619778931141
vn 0.94302773475647 -0.17234474420547 -0.28459802269936
vn 0.9801921248436 -0.19804885983467 0.000104018196
vn 0.68468022346497 -0.09210200607777 -0.72300082445145
vn 0.65766710042953 0.16135056316853 -0.73582601547241
vn 0.51957422494888 0.08582229912281 -0.85010421276093
vn 0.89107435941696 0.32373529672623 -0.31809109449387
vn 0.92299973964691 0.38464462757111 -0.01095187198371
vn 0.50525271892548 -0.04697274416685 -0.861692070961
# 168 normals

vt 0.49995157122612 0.00212597846985 0
vt 0.5 0 0
vt 0.5 0.00239622592926 0
vt 0.49946200847626 0.00165581703186 0
vt 0.2547627389431 0.75476276874542 0
vt 0.25495859980583 0.75495862960815 0
vt 0.49977412819862 0.00184786319733 0
vt 0.25515449047089 0.75515449047089 0
vt 0.50004839897156 0.00212597846985 0
vt 0.50022584199905 0.00184786319733 0
vt 0.25535038113594 0.75535035133362 0
vt 0.5 1 0
vt 0.74464964866638 0.75535035133362 0
vt 0.50053799152374 0.00165581703186 0
vt 0.74484550952911 0.75515449047089 0
vt 0.74504137039185 0.75495862960815 0
vt 0.74523729085922 0.75476276874542 0
vt 0.72123175859451 0.68088132143021 0
vt 0.7209849357605 0.68092042207718 0
vt 0.72073811292648 0.68095946311951 0
vt 0.72049129009247 0.68099856376648 0
vt 0.2555835545063 0.75463271141052 0
vt 0.25530993938446 0.75467610359192 0
vt 0.25503632426262 0.75471937656403 0
vt 0.72100907564163 0.68099474906921 0
vt 0.19191606342793 0.95058107376099 0
vt 0.72056376934052 0.68122166395187 0
vt 0.72078639268875 0.68110823631287 0
vt 0.19167397916317 0.95066893100739 0
vt 0.19139903783798 0.95069444179535 0
vt 0.19111704826355 0.95064401626587 0
vt 0.74496364593506 0.75471937656403 0
vt 0.74469006061554 0.75467610359192 0
vt 0.27926191687584 0.68095946311951 0
vt 0.27950873970985 0.68099856376648 0
vt 0.27901509404182 0.68092042207718 0
vt 0.27876827120781 0.68088132143021 0
vt 0.74441647529602 0.75463271141052 0
vt 0.27899092435837 0.68099474906921 0
vt 0.27921357750893 0.68110823631287 0
vt 0.80832600593567 0.95066893100739 0
vt 0.80808395147324 0.95058107376099 0
vt 0.27943626046181 0.68122166395187 0
vt 0.80860096216202 0.95069444179535 0
vt 0.80888295173645 0.95064401626587 0
# 45 texture coordinates

o Decagon_web
usemtl Mat
f 7/1/1 15/2/2 17/3/3
f 3/4/4 2/5/4 11/6/5 6/7/5
f 6/7/5 11/6/5 14/8/6 7/1/6
f 8/9/7 15/2/7 4/10/7
f 17/3/8 15/2/8 8/9/8
f 13/11/9 1/12/9 17/3/9
f 1/12/9 16/13/9 17/3/9
f 7/1/6 14/8/6 13/11/10 17/3/10
f 4/10/11 15/2/11 5/14/11
f 6/7/12 15/2/2 7/1/1
f 3/4/13 15/2/2 6/7/12
f 17/3/14 16/13/14 12/15/15 8/9/15
f 8/9/15 12/15/15 10/16/16 4/10/16
f 4/10/16 10/16/16 9/17/17 5/14/17
f 26/10/18 15/2/18 21/9/19
f 20/14/20 27/18/20 29/19/21 26/10/21
f 26/10/21 29/19/21 18/20/22 21/9/22
f 21/9/22 18/20/22 25/21/23 23/3/23
f 25/21/24 22/22/24 23/3/24
f 21/9/25 15/2/25 23/3/25
f 23/3/26 22/22/26 28/23/27 24/1/27
f 20/14/28 15/2/18 26/10/18
f 24/1/27 28/23/27 30/24/29 19/7/29
f 19/7/29 30/24/29 2/5/30 3/4/30
f 23/3/31 15/2/32 24/1/32
f 19/7/33 15/2/33 3/4/33
f 24/1/32 15/2/32 19/7/34
f 33/10/35 41/25/35 27/18/36 20/14/36
f 36/1/37 15/2/37 42/3/37
f 42/3/38 15/2/39 35/9/39
f 43/26/40 39/27/40 42/3/40
f 35/9/41 32/28/41 41/25/35 33/10/35
f 36/1/42 38/29/42 43/26/43 42/3/43
f 40/7/44 31/30/44 38/29/42 36/1/42
f 34/4/45 37/31/45 31/30/44 40/7/44
f 35/9/39 15/2/39 33/10/46
f 40/7/47 15/2/47 36/1/47
f 34/4/48 15/2/48 40/7/48
f 33/10/49 15/2/49 20/14/49
f 42/3/50 39/27/50 32/28/41 35/9/41
f 47/7/51 51/30/51 37/31/52 34/4/52
f 46/1/53 15/2/54 47/7/55
f 54/27/56 52/26/56 53/3/56
f 46/1/57 49/29/57 51/30/51 47/7/51
f 45/9/58 56/28/58 54/27/59 53/3/59
f 44/10/60 55/25/60 56/28/58 45/9/58
f 48/14/61 50/18/61 55/25/60 44/10/60
f 48/14/62 15/2/62 44/10/62
f 47/7/55 15/2/54 34/4/63
f 44/10/64 15/2/65 45/9/65
f 45/9/65 15/2/65 53/3/66
f 53/3/67 52/26/67 49/29/57 46/1/57
f 53/3/68 15/2/54 46/1/53
f 65/4/69 15/2/70 64/7/71
f 69/22/72 67/21/72 68/3/72
f 64/7/71 15/2/70 60/1/73
f 60/1/73 15/2/70 68/3/74
f 68/3/75 15/2/75 59/9/75
f 58/10/76 57/19/76 50/18/77 48/14/77
f 59/9/78 66/20/78 57/19/76 58/10/76
f 60/1/79 61/23/79 69/22/80 68/3/80
f 58/10/81 15/2/81 48/14/82
f 64/7/83 62/24/83 61/23/79 60/1/79
f 65/4/84 63/5/84 62/24/83 64/7/83
f 59/9/85 15/2/81 58/10/81
f 68/3/86 67/21/86 66/20/86 59/9/86
f 80/9/87 76/15/87 74/13/88 72/3/88
f 79/10/89 75/16/89 76/15/87 80/9/87
f 77/14/90 70/17/90 75/16/89 79/10/89
f 77/14/91 15/2/92 79/10/93
f 81/7/94 15/2/94 65/4/95
f 81/7/96 78/6/96 63/5/97 65/4/97
f 82/1/98 83/8/98 78/6/96 81/7/96
f 82/1/99 15/2/94 81/7/94
f 72/3/100 15/2/100 82/1/100
f 79/10/93 15/2/92 80/9/101
f 80/9/101 15/2/92 72/3/102
f 74/13/103 71/12/103 72/3/103
f 71/12/103 73/11/103 72/3/103
f 72/3/104 73/11/104 83/8/98 82/1/98
f 94/10/105 84/32/105 70/17/106 77/14/106
f 92/9/107 96/33/107 84/32/105 94/10/105
f 91/1/108 93/34/108 88/35/109 89/3/109
f 87/7/110 95/36/110 93/34/108 91/1/108
f 86/4/111 85/37/111 95/36/110 87/7/110
f 94/10/112 15/2/113 77/14/114
f 86/4/115 15/2/116 87/7/116
f 87/7/116 15/2/116 91/1/117
f 91/1/118 15/2/118 89/3/118
f 92/9/119 15/2/113 94/10/112
f 88/35/9 90/38/9 89/3/9
f 89/3/120 90/38/120 96/33/107 92/9/107
f 89/3/121 15/2/113 92/9/119
f 108/7/122 15/2/122 86/4/122
f 107/1/123 15/2/123 108/7/123
f 105/3/124 15/2/124 107/1/124
f 103/9/125 15/2/126 105/3/127
f 102/10/128 15/2/126 103/9/125
f 101/14/129 15/2/126 102/10/128
f 108/7/130 100/39/130 85/37/131 86/4/131
f 107/1/132 109/40/132 100/39/130 108/7/130
f 103/9/133 97/41/133 104/42/134 105/3/134
f 104/42/24 106/43/24 105/3/24
f 102/10/135 98/44/135 97/41/133 103/9/133
f 101/14/136 99/45/136 98/44/135 102/10/135
f 105/3/137 106/43/137 109/40/132 107/1/132
f 118/10/138 15/2/138 101/14/138
f 117/9/139 15/2/139 118/10/139
f 120/3/140 15/2/140 117/9/140
f 116/1/141 15/2/141 120/3/142
f 115/7/143 15/2/141 116/1/141
f 114/4/144 15/2/144 115/7/144
f 118/10/145 113/44/145 99/45/146 101/14/146
f 117/9/147 122/41/147 113/44/145 118/10/145
f 119/43/72 121/42/72 120/3/72
f 116/1/148 110/40/148 119/43/149 120/3/149
f 115/7/150 111/39/150 110/40/148 116/1/148
f 114/4/151 112/37/151 111/39/150 115/7/150
f 120/3/152 121/42/152 122/41/147 117/9/147
f 129/7/153 15/2/154 114/4/155
f 128/1/156 15/2/154 129/7/153
f 133/3/157 15/2/154 128/1/156
f 127/9/158 15/2/154 133/3/157
f 126/10/159 15/2/154 127/9/158
f 5/14/160 15/2/160 126/10/160
f 129/7/161 125/36/161 112/37/162 114/4/162
f 132/38/103 131/35/103 133/3/103
f 128/1/163 130/34/163 125/36/161 129/7/161
f 127/9/164 123/33/164 132/38/165 133/3/165
f 126/10/166 124/32/166 123/33/164 127/9/164
f 5/14/167 9/17/167 124/32/166 126/10/166
f 133/3/168 131/35/168 130/34/163 128/1/163

