# WaveFront *.obj file (generated by CINEMA 4D)

mtllib ./DecagonShape_9.mtl

v -0.00704512791708 0.00515567092225 -0.0147097883746
v -0.00517615769058 0.00356863858178 -0.01475886907429
v -0.00001135522325 0.00572706665844 -0.01489450223744
v -0.00001314872225 0.00573233934119 -0.01489445473999
v -0.00001197492657 0.0057346499525 -0.01489448547363
v -0.00001288855856 0.00572915561497 -0.01489446219057
v -0.00001494982189 0.00573024619371 -0.01489440817386
v -0.00001500559392 0.00573092885315 -0.01489440631121
v -0.00545864272863 0.00702528608963 -0.01475145108998
v -0.00545990979299 0.00702379271388 -0.01475141756237
v -0.00517765060067 0.00356990634464 -0.01475882995874
v -0.00546117732301 0.00702229933813 -0.01475138496608
v -0.00518063595518 0.00357244140469 -0.01475875172764
v -0.0051791430451 0.00357117387466 -0.01475879084319
v 0 0.00573181221262 -0.01489480026066
v -0.00546244438738 0.00702080596238 -0.01475135143846
v -0.00001688185512 0.0057304315269 -0.01489435695112
v -0.00263375672512 0.0014097642852 -0.01482563558966
v -0.00001094726304 0.005724507384 -0.01489451248199
v -0.00000639821064 0.00572129618376 -0.0148946326226
v -0.00001117445754 0.00572175486013 -0.01489450689405
v -0.00517167896032 0.00356483599171 -0.01475898735225
v -0.00001284650534 0.00572076905519 -0.01489446312189
v -0.0000116205747 0.00572227407247 -0.01489449478686
v -0.00263510341756 0.00141090794932 -0.0148256001994
v -0.00000886620364 0.00572208501399 -0.01489456743002
v -0.00263106334023 0.0014074773062 -0.01482570637017
v -0.00517317187041 0.00356610352173 -0.0147589482367
v -0.00263241003267 0.00140862097032 -0.01482567097992
v -0.0051746647805 0.00356737081893 -0.01475890818983
v 0.00057367089903 -0.0013125751866 -0.01490986533463
v -0.00262836972252 0.00140519021079 -0.01482577715069
v -0.00000456432053 0.00571946566924 -0.01489468012005
v 0.00000100270097 0.00571954250336 -0.0148948263377
v -0.0000037968905 0.00571726309136 -0.01489470060915
v -0.0000031308291 0.00571710523218 -0.01489471830428
v 0.00057569280034 -0.00131268810946 -0.01490991842002
v 0.00057182140881 -0.00131195154972 -0.01490981690586
v -0.0026270232629 0.00140404654667 -0.01482581254095
v -0.00000145726062 0.00571872945875 -0.01489476207644
v -0.00262971664779 0.00140633364208 -0.01482574176043
v -0.00000390422701 0.00571532454342 -0.01489469781518
v 0.00057029951131 -0.00131095305551 -0.01490977685899
v 0.00000650830634 0.00572037138045 -0.01489497162402
v 0.00000610866937 0.005718073342 -0.01489496044815
v 0.00000547707668 0.00571780931205 -0.01489494461566
v 0.00000356203714 0.00571913970634 -0.01489489432424
v 0.0000080206155 0.00572247570381 -0.01489501073956
v 0.00057939341059 -0.00131133245304 -0.01491001620889
v 0.00329822604544 0.00189236667939 -0.01498141512275
v 0.00057766935788 -0.00131224805955 -0.01490997057408
v 0.00058073288528 -0.00131009949837 -0.01491005066782
v 0.00000652933295 0.00571617763489 -0.01489497162402
v 0.00329479668289 0.00188832520507 -0.01498132478446
v 0.00329708307981 0.00189101940487 -0.01498138532043
v 0.00329593988135 0.00188967236318 -0.01498135458678
v 0.00329936947674 0.0018937139539 -0.01498144492507
v 0.00001032781711 0.00572365429252 -0.01489507127553
v 0.00001265898663 0.00572370411828 -0.01489513274282
v 0.00001301486373 0.00572428898886 -0.01489514205605
v 0.0054561085999 0.00443535204977 -0.01503808330745
v 0.00545737566426 0.00443684495986 -0.01503811590374
v 0.00545864272863 0.0044383383356 -0.01503814943135
v 0.00001198792143 0.00572638306767 -0.01489511504769
v 0.00001197492657 0.00572897447273 -0.01489511504769
v 0.0033005126752 0.00189506099559 -0.01498147472739
v 0.00330165564083 0.00189640827011 -0.01498150546104
v 0.00001446890928 0.00572300283238 -0.01489518024027
v 0.00545484106988 0.00443385820836 -0.01503804977983
v 0.00517615769058 0.00789498630911 -0.01503073144704
v 0.00704512791708 0.00630795350298 -0.01507981214672
v 0.00001688185512 0.00573319289833 -0.01489524357021
v 0.00546244438738 0.00444281846285 -0.01503824908286
v 0.00518063595518 0.00789118278772 -0.01503084879369
v 0.00517765060067 0.00789371784776 -0.01503077056259
v 0.0051791430451 0.00789245031774 -0.01503080967814
v 0.00001135522325 0.0057365577668 -0.01489509828389
v 0.00545990979299 0.00443983171135 -0.01503818295896
v 0.00001288855856 0.00573446881026 -0.01489513926208
v 0.00001494982189 0.00573337823153 -0.01489519327879
v 0.00001314872225 0.00573128508404 -0.01489514578134
v 0.00001500559392 0.00573269603774 -0.01489519421011
v 0.00546117732301 0.0044413250871 -0.01503821648657
v 0.0051746647805 0.00789625383914 -0.01503069233149
v 0.00263106334023 0.01005614735186 -0.01496389508247
v 0.00000639821064 0.00574232824147 -0.01489496883005
v 0.00000886620364 0.00574153987691 -0.01489503309131
v 0.00263510341756 0.0100527163595 -0.01496400032192
v 0.00001284650534 0.00574285537004 -0.01489513739944
v 0.00517167896032 0.00789878889918 -0.0150306141004
v 0.00001117445754 0.0057418695651 -0.01489509362727
v 0.0000116205747 0.00574135035276 -0.01489510573447
v 0.00263375672512 0.01005386002362 -0.01496396493167
v 0.00001094726304 0.00573911704123 -0.01489508803934
v 0.00263241003267 0.01005500368774 -0.01496392954141
v 0.00517317187041 0.00789752136916 -0.01503065321594
v -0.00057182140881 0.01277557574213 -0.01487978361547
v -0.00057367089903 0.01277619972825 -0.0148797351867
v -0.00057569280034 0.01277631241828 -0.01487968210131
v 0.00262971664779 0.01005729101598 -0.01496385969222
v -0.00000100270097 0.00574408192188 -0.01489477418363
v 0.00000145726062 0.00574489496648 -0.01489483844489
v 0.0000031308291 0.00574651919305 -0.01489488221705
v -0.00057029951131 0.01277457736433 -0.01487982366234
v 0.00000390422701 0.00574829988182 -0.01489490270615
v 0.0026270232629 0.01005957834423 -0.0149637889117
v 0.0000037968905 0.00574636133388 -0.01489489991218
v 0.00000456432053 0.00574415875599 -0.01489492040128
v 0.00262836972252 0.0100584346801 -0.01496382430196
v -0.00329593988135 0.00957395229489 -0.01480824593455
v -0.00329708307981 0.00957260467112 -0.01480821613222
v -0.00329822604544 0.00957125797868 -0.01480818539858
v -0.00057766935788 0.01277587283403 -0.01487962994725
v -0.0000080206155 0.00574114918709 -0.01489458978176
v -0.00000650830634 0.00574325351045 -0.01489462982863
v -0.00000610866937 0.0057455515489 -0.01489464007318
v -0.00000547707668 0.00574581511319 -0.01489465683699
v -0.00000356203714 0.00574448471889 -0.01489470712841
v -0.00329479668289 0.00957529898733 -0.01480827573687
v -0.00000652933295 0.00574744679034 -0.01489462889731
v -0.00058073288528 0.01277372427285 -0.0148795498535
v -0.00057939341059 0.01277495734394 -0.01487958524376
v -0.0054561085999 0.00702827284113 -0.01475151721388
v -0.00545737566426 0.00702677946538 -0.01475148461759
v -0.00329936947674 0.00956991035491 -0.01480815559626
v -0.00001198792143 0.00573724135756 -0.01489448547363
v -0.00001301486373 0.00573933543637 -0.01489445846528
v -0.00001265898663 0.00573992030695 -0.0148944677785
v -0.00001032781711 0.00573997013271 -0.01489452924579
v -0.0033005126752 0.00956856366247 -0.01480812579393
v -0.00330165564083 0.0095672160387 -0.01480809599161
v -0.00545484106988 0.00702976621687 -0.01475155074149
v -0.00001446890928 0.00574062159285 -0.01489442028105
# 133 vertices

vn 0.02625192329288 0 0.99965536594391
vn -0.02625192329288 0 -0.99965536594391
# 2 normals

vt 0.49995157122612 0.00212597846985 0
vt 0.5 0 0
vt 0.5 0.00239622592926 0
vt 0.49946200847626 0.00165581703186 0
vt 0.2547627389431 0.75476276874542 0
vt 0.25495859980583 0.75495862960815 0
vt 0.49977412819862 0.00184786319733 0
vt 0.25515449047089 0.75515449047089 0
vt 0.50004839897156 0.00212597846985 0
vt 0.50022584199905 0.00184786319733 0
vt 0.25535038113594 0.75535035133362 0
vt 0.5 1 0
vt 0.74464964866638 0.75535035133362 0
vt 0.50053799152374 0.00165581703186 0
vt 0.74484550952911 0.75515449047089 0
vt 0.74504137039185 0.75495862960815 0
vt 0.74523729085922 0.75476276874542 0
vt 0.72123175859451 0.68088132143021 0
vt 0.7209849357605 0.68092042207718 0
vt 0.72073811292648 0.68095946311951 0
vt 0.72049129009247 0.68099856376648 0
vt 0.2555835545063 0.75463271141052 0
vt 0.25530993938446 0.75467610359192 0
vt 0.25503632426262 0.75471937656403 0
vt 0.72100907564163 0.68099474906921 0
vt 0.19191606342793 0.95058107376099 0
vt 0.72056376934052 0.68122166395187 0
vt 0.72078639268875 0.68110823631287 0
vt 0.19167397916317 0.95066893100739 0
vt 0.19139903783798 0.95069444179535 0
vt 0.19111704826355 0.95064401626587 0
vt 0.74496364593506 0.75471937656403 0
vt 0.74469006061554 0.75467610359192 0
vt 0.27926191687584 0.68095946311951 0
vt 0.27950873970985 0.68099856376648 0
vt 0.27901509404182 0.68092042207718 0
vt 0.27876827120781 0.68088132143021 0
vt 0.74441647529602 0.75463271141052 0
vt 0.27899092435837 0.68099474906921 0
vt 0.27921357750893 0.68110823631287 0
vt 0.80832600593567 0.95066893100739 0
vt 0.80808395147324 0.95058107376099 0
vt 0.27943626046181 0.68122166395187 0
vt 0.80860096216202 0.95069444179535 0
vt 0.80888295173645 0.95064401626587 0
# 45 texture coordinates

o Decagon_web
usemtl Mat
f 7/1/1 15/2/1 17/3/1
f 3/4/2 2/5/2 11/6/2 6/7/2
f 6/7/2 11/6/2 14/8/2 7/1/2
f 8/9/1 15/2/1 4/10/1
f 17/3/1 15/2/1 8/9/1
f 13/11/2 1/12/2 17/3/2
f 1/12/2 16/13/2 17/3/2
f 7/1/2 14/8/2 13/11/2 17/3/2
f 4/10/1 15/2/1 5/14/1
f 6/7/1 15/2/1 7/1/1
f 3/4/1 15/2/1 6/7/1
f 17/3/2 16/13/2 12/15/2 8/9/2
f 8/9/2 12/15/2 10/16/2 4/10/2
f 4/10/2 10/16/2 9/17/2 5/14/2
f 26/10/1 15/2/1 21/9/1
f 20/14/2 27/18/2 29/19/2 26/10/2
f 26/10/2 29/19/2 18/20/2 21/9/2
f 21/9/2 18/20/2 25/21/2 23/3/2
f 25/21/2 22/22/2 23/3/2
f 21/9/1 15/2/1 23/3/1
f 23/3/2 22/22/2 28/23/2 24/1/2
f 20/14/1 15/2/1 26/10/1
f 24/1/2 28/23/2 30/24/2 19/7/2
f 19/7/2 30/24/2 2/5/2 3/4/2
f 23/3/1 15/2/1 24/1/1
f 19/7/1 15/2/1 3/4/1
f 24/1/1 15/2/1 19/7/1
f 33/10/2 41/25/2 27/18/2 20/14/2
f 36/1/1 15/2/1 42/3/1
f 42/3/1 15/2/1 35/9/1
f 43/26/2 39/27/2 42/3/2
f 35/9/2 32/28/2 41/25/2 33/10/2
f 36/1/2 38/29/2 43/26/2 42/3/2
f 40/7/2 31/30/2 38/29/2 36/1/2
f 34/4/2 37/31/2 31/30/2 40/7/2
f 35/9/1 15/2/1 33/10/1
f 40/7/1 15/2/1 36/1/1
f 34/4/1 15/2/1 40/7/1
f 33/10/1 15/2/1 20/14/1
f 42/3/2 39/27/2 32/28/2 35/9/2
f 47/7/2 51/30/2 37/31/2 34/4/2
f 46/1/1 15/2/1 47/7/1
f 54/27/2 52/26/2 53/3/2
f 46/1/2 49/29/2 51/30/2 47/7/2
f 45/9/2 56/28/2 54/27/2 53/3/2
f 44/10/2 55/25/2 56/28/2 45/9/2
f 48/14/2 50/18/2 55/25/2 44/10/2
f 48/14/1 15/2/1 44/10/1
f 47/7/1 15/2/1 34/4/1
f 44/10/1 15/2/1 45/9/1
f 45/9/1 15/2/1 53/3/1
f 53/3/2 52/26/2 49/29/2 46/1/2
f 53/3/1 15/2/1 46/1/1
f 65/4/1 15/2/1 64/7/1
f 69/22/2 67/21/2 68/3/2
f 64/7/1 15/2/1 60/1/1
f 60/1/1 15/2/1 68/3/1
f 68/3/1 15/2/1 59/9/1
f 58/10/2 57/19/2 50/18/2 48/14/2
f 59/9/2 66/20/2 57/19/2 58/10/2
f 60/1/2 61/23/2 69/22/2 68/3/2
f 58/10/1 15/2/1 48/14/1
f 64/7/2 62/24/2 61/23/2 60/1/2
f 65/4/2 63/5/2 62/24/2 64/7/2
f 59/9/1 15/2/1 58/10/1
f 68/3/2 67/21/2 66/20/2 59/9/2
f 80/9/2 76/15/2 74/13/2 72/3/2
f 79/10/2 75/16/2 76/15/2 80/9/2
f 77/14/2 70/17/2 75/16/2 79/10/2
f 77/14/1 15/2/1 79/10/1
f 81/7/1 15/2/1 65/4/1
f 81/7/2 78/6/2 63/5/2 65/4/2
f 82/1/2 83/8/2 78/6/2 81/7/2
f 82/1/1 15/2/1 81/7/1
f 72/3/1 15/2/1 82/1/1
f 79/10/1 15/2/1 80/9/1
f 80/9/1 15/2/1 72/3/1
f 74/13/2 71/12/2 72/3/2
f 71/12/2 73/11/2 72/3/2
f 72/3/2 73/11/2 83/8/2 82/1/2
f 94/10/2 84/32/2 70/17/2 77/14/2
f 92/9/2 96/33/2 84/32/2 94/10/2
f 91/1/2 93/34/2 88/35/2 89/3/2
f 87/7/2 95/36/2 93/34/2 91/1/2
f 86/4/2 85/37/2 95/36/2 87/7/2
f 94/10/1 15/2/1 77/14/1
f 86/4/1 15/2/1 87/7/1
f 87/7/1 15/2/1 91/1/1
f 91/1/1 15/2/1 89/3/1
f 92/9/1 15/2/1 94/10/1
f 88/35/2 90/38/2 89/3/2
f 89/3/2 90/38/2 96/33/2 92/9/2
f 89/3/1 15/2/1 92/9/1
f 108/7/1 15/2/1 86/4/1
f 107/1/1 15/2/1 108/7/1
f 105/3/1 15/2/1 107/1/1
f 103/9/1 15/2/1 105/3/1
f 102/10/1 15/2/1 103/9/1
f 101/14/1 15/2/1 102/10/1
f 108/7/2 100/39/2 85/37/2 86/4/2
f 107/1/2 109/40/2 100/39/2 108/7/2
f 103/9/2 97/41/2 104/42/2 105/3/2
f 104/42/2 106/43/2 105/3/2
f 102/10/2 98/44/2 97/41/2 103/9/2
f 101/14/2 99/45/2 98/44/2 102/10/2
f 105/3/2 106/43/2 109/40/2 107/1/2
f 118/10/1 15/2/1 101/14/1
f 117/9/1 15/2/1 118/10/1
f 120/3/1 15/2/1 117/9/1
f 116/1/1 15/2/1 120/3/1
f 115/7/1 15/2/1 116/1/1
f 114/4/1 15/2/1 115/7/1
f 118/10/2 113/44/2 99/45/2 101/14/2
f 117/9/2 122/41/2 113/44/2 118/10/2
f 119/43/2 121/42/2 120/3/2
f 116/1/2 110/40/2 119/43/2 120/3/2
f 115/7/2 111/39/2 110/40/2 116/1/2
f 114/4/2 112/37/2 111/39/2 115/7/2
f 120/3/2 121/42/2 122/41/2 117/9/2
f 129/7/1 15/2/1 114/4/1
f 128/1/1 15/2/1 129/7/1
f 133/3/1 15/2/1 128/1/1
f 127/9/1 15/2/1 133/3/1
f 126/10/1 15/2/1 127/9/1
f 5/14/1 15/2/1 126/10/1
f 129/7/2 125/36/2 112/37/2 114/4/2
f 132/38/2 131/35/2 133/3/2
f 128/1/2 130/34/2 125/36/2 129/7/2
f 127/9/2 123/33/2 132/38/2 133/3/2
f 126/10/2 124/32/2 123/33/2 127/9/2
f 5/14/2 9/17/2 124/32/2 126/10/2
f 133/3/2 131/35/2 130/34/2 128/1/2

