# WaveFront *.obj file (generated by CINEMA 4D)

mtllib ./DecagonShape_76.mtl

v 0.00000450249809 0.00353556778282 -0.00003971566184
v 0.00173646677285 0.00179795071017 0.0001733925892
v 0.00001719457578 -0.00352731952444 -0.00002151841545
v 0.00000307264804 -0.00352234346792 -0.00003882363308
v 0.00000214506917 -0.00352320400998 -0.00003662823292
v 0.00001438514573 -0.00352533883415 -0.00003332936831
v 0.00000817453747 -0.00352158001624 -0.00003865982217
v 0.00000517718127 -0.0035207986366 -0.00003945697972
v -0.00171712692827 0.00180206634104 -0.00023153921939
v -0.00171679025516 0.00180305016693 -0.00023317839077
v 0.00173556932714 0.0017994857626 0.0001649116748
v -0.00171577313449 0.00180427276064 -0.000234290972
v 0.00172342581209 0.00180563388858 0.00015515577979
v 0.00173076929059 0.00180221511982 0.00015823350986
v 0.00000983678729 -0.00353681948036 -0.00003107443627
v -0.0017144207377 0.00180563388858 -0.00023458710348
v 0.00000450249809 -0.00351855601184 -0.00003971566184
v -0.00155339494813 0.00127860484645 -0.00018146682123
v 0.0000118124517 -0.00352533883415 -0.00001063612581
v -0.00000865745096 -0.00352526409552 0.00000237320501
v 0.00000129985642 -0.00352083169855 -0.00000661324475
v 0.00171803578269 0.00180055922829 0.00018806147273
v 0.00000075097836 -0.00351855601184 -0.00000662423417
v 0.00000456663474 -0.00352158071473 -0.00000682069867
v -0.00154843414202 0.00127988692839 -0.00018225274107
v -0.00000550009554 -0.00352384289727 -0.00000417052024
v -0.00155926530715 0.00127758551389 -0.00017341659986
v 0.00172642816324 0.00179883185774 0.0001867677056
v -0.00155735109001 0.00127773662098 -0.00017823162489
v 0.00173314765561 0.00179779424798 0.00018139548774
v 0.00216645468026 0.00318707386032 0.00025757099502
v -0.001555685536 0.00127965654247 -0.00016429505195
v -0.00000704509966 -0.00352384289727 0.00000945766351
v 0.00000085547282 -0.00352320400998 0.00001016104034
v -0.00000349568359 -0.00352102192119 0.00001263429931
v -0.00000166255018 -0.00352062960155 0.00001307071761
v 0.0021673059091 0.00318715628237 0.00025576789631
v 0.00216480833478 0.00318675790913 0.00025853281841
v -0.00155119632836 0.001281464356 -0.000162437791
v -0.00000007210637 -0.00352234346792 0.00001235643867
v -0.00155864725821 0.00127826270182 -0.00016831450921
v -0.00000150195672 -0.00351855601184 0.00001324846835
v 0.00216311472468 0.0031861232128 0.00025864742929
v -0.00000194485165 -0.00352234346792 0.00000543475744
v -0.00000107029939 -0.0035204642918 0.00000647224624
v -0.00000044385484 -0.0035204666201 0.00000677319758
v 0.00000044289501 -0.00352234346792 0.00000781371091
v -0.00000235742937 -0.00352320400998 0.00000308742801
v 0.00216549052857 0.00318675790913 0.00025251400075
v -0.00155296525918 0.00127964583226 -0.00017270237731
v 0.00216687982902 0.00318707386032 0.00025381997693
v 0.00216386560351 0.0031861232128 0.00025202319375
v -0.00000075097836 -0.00351855601184 0.00000662423417
v -0.00155044533312 0.001281464356 -0.00016906202654
v -0.00155281578191 0.00128004676662 -0.00017100809782
v -0.00155188515782 0.00128068646882 -0.00016967469128
v -0.00155227060895 0.0012795208022 -0.00017430096341
v -0.00000142985016 -0.00352234346792 0.00000089202945
v 0.00000116753802 -0.0035209574271 0.00000005825545
v 0.00000555372571 -0.00352213974111 -0.00000025126434
v 0.00172892783303 0.00179780193139 0.00019286156748
v 0.00173822802026 0.00179601018317 0.00018532612012
v 0.00174276670441 0.00179589074105 0.0001741067972
v 0.00001588269697 -0.0035268382635 -0.0000055735768
v 0.00002349459646 -0.0035293798428 -0.0000208041929
v -0.00155089527834 0.0012796347728 -0.00017537295935
v -0.00154918502085 0.00127988692839 -0.00017562850553
v 0.00000000000001 -0.00351855601184 0
v 0.00171728490386 0.00180055922829 0.00019468570827
v -0.00172342697624 0.00180000602268 -0.00023225344194
v 0.00000525347605 0.00353556778282 -0.00004633989374
v 0.00000525347605 -0.00351855601184 -0.00004633989374
v 0.00172417669091 0.00180563388858 0.00014853154426
v -0.00171366974246 0.00180563388858 -0.00024121133902
v -0.00172187085263 0.00180126610212 -0.00023710905225
v -0.00171827257145 0.00180324283428 -0.00024038481934
v -0.00000415495197 -0.00352526409552 -0.00003734245547
v 0.00174140091985 0.00179770193063 0.00016221810074
v -0.00000099759734 -0.00352384289727 -0.0000438861789
v 0.00000317198715 -0.00352102261968 -0.00004619810716
v 0.00001948539466 -0.0035268382635 -0.00003735227438
v 0.00000781178642 -0.00352152972482 -0.00004576724677
v 0.00173456966877 0.00180118519347 0.00015285387053
v -0.00172245118301 0.00179957458749 -0.00022711078054
v 0.001555202296 0.00127965048887 0.00015284294204
v 0.00000459453531 -0.00352319935337 -0.00002294686237
v 0.00000418465106 -0.00352234020829 -0.00002528355617
v 0.00155218562577 0.00127988692839 0.00014916132204
v 0.00000300054148 -0.00351855601184 -0.0000264671944
v -0.00171428429894 0.00180055922829 -0.00022115289175
v 0.0000028408806 -0.00352063076571 -0.00002648099144
v 0.00000100361831 -0.00352102261968 -0.00002707134445
v 0.0015537883155 0.00127963710111 0.00014979044499
v -0.00000254260135 -0.00352384289727 -0.00003025799742
v 0.00155488424934 0.00127952499315 0.00015113706468
v -0.0017191314837 0.00179985992145 -0.00022305073799
v -0.00216405722313 0.00318675790913 -0.00026515705395
v -0.00216570356861 0.00318707386032 -0.00026419523056
v -0.00216655503027 0.00318715628237 -0.00026239213184
v 0.00155468017329 0.00128005060833 0.00015445356257
v -0.00000010449463 -0.00352320400998 -0.00001678527406
v 0.00000082308446 -0.00352234346792 -0.00001898067057
v 0.00000191909066 -0.00352046638727 -0.00001979635272
v -0.00216236361302 0.0031861232128 -0.00026527166483
v 0.00000225293479 -0.00351855601184 -0.00001987270116
v 0.00155194732361 0.001281464356 0.00015581355547
v 0.00000259427316 -0.00352046312764 -0.00001994922422
v 0.00000367196208 -0.00352234020829 -0.00002076122473
v 0.00155348039698 0.00128068879712 0.0001555399358
v 0.00155598006677 0.00127965887077 0.00016163379769
v 0.00155976065435 0.00127826642711 0.0001583842095
v 0.00156150234398 0.0012775901705 0.00015355716459
v -0.00216612895019 0.00318707386032 -0.00026044421247
v 0.00001089455691 -0.0035252594389 -0.00002223263982
v 0.00000774220734 -0.00352383940481 -0.00001569867345
v 0.0000035786702 -0.0035210205242 -0.00001340061044
v 0.00000169709733 -0.00352062936872 -0.00001338583661
v 0.00000030808306 -0.00352234346792 -0.00001443794281
v 0.00155119632836 0.001281464356 0.000162437791
v 0.00000150195649 -0.00351855601184 -0.00001324846744
v -0.00216311472468 0.0031861232128 -0.00025864742929
v -0.00216473964974 0.00318675790913 -0.00025913823629
v -0.0017153309891 0.00180088996422 -0.00022843037732
v -0.00171661970671 0.00180135876872 -0.00022980436916
v 0.00156071572565 0.00127774081193 0.00014844347606
v 0.00000255764689 -0.00352234346792 -0.00003428090713
v 0.00000395848565 -0.00352063565515 -0.00003315946378
v 0.00000574915384 -0.00352102238685 -0.00003249777365
v 0.00000928489862 -0.00352383940481 -0.00002930646042
v 0.00155758869369 0.00127860717475 0.00014441080566
v 0.00155293662101 0.00127988692839 0.0001425370865
v -0.0017135333037 0.00180055922829 -0.00022777712729
v 0.00000375151967 -0.00351855601184 -0.0000330914263
# 133 vertices

vn 0.18979139626026 -0.42082151770592 -0.88706731796265
vn 0.47284415364265 -0.45985487103462 -0.75163280963898
vn -0.11877852678299 -0.45278698205948 -0.88367164134979
vn -0.93247413635254 0.29341322183609 0.21071472764015
vn -0.83774256706238 0.25278472900391 0.48403227329254
vn -0.49854788184166 0.12953427433968 0.85712945461273
vn 0.06110343337059 -0.44872224330902 -0.89157992601395
vn 0.95659440755844 0.29047614336014 0.02346696145833
vn -0.1126467436552 0 0.99363511800766
vn -0.29883599281311 0.06156324967742 0.95231664180756
vn -0.65127527713776 -0.57154488563538 -0.49917632341385
vn 0.71762335300446 -0.39672854542732 -0.57238376140594
vn 0.87412577867508 -0.40032070875168 -0.27504080533981
vn 0.6274037361145 0.22994674742222 0.74396842718124
vn 0.52442449331284 0.19972261786461 0.82770156860352
vn 0.67594105005264 0.24372340738773 0.69548732042313
vn 0.86166131496429 0.29334783554077 0.41410973668098
vn 0.49456724524498 -0.63836389780045 0.5898260474205
vn -0.86165863275528 -0.29338753223419 -0.41408711671829
vn -0.68857598304749 -0.24728631973267 -0.68169832229614
vn -0.17147043347359 -0.09128287434578 -0.98095124959946
vn 0.11686865240335 0.0013750292128 -0.99314641952515
vn 0.1126467436552 0 -0.99363511800766
vn 0.95564132928848 0.23135082423687 0.18228107690811
vn -0.07701775431633 0.06118846684694 -0.99515038728714
vn -0.29375585913658 0.12944030761719 -0.94707584381104
vn 0.88546150922775 0.11081341654062 0.45130729675293
vn -0.70830899477005 0.25287812948227 -0.65905314683914
vn -0.86163491010666 0.29347321391106 -0.41407573223114
vn -0.5725017786026 -0.74452674388886 0.34339728951454
vn -0.38554647564888 -0.81671017408371 0.42934650182724
vn 0.4981444478035 -0.77566403150558 0.38755315542221
vn -0.18027348816395 -0.85003870725632 0.4949097931385
vn -0.83767092227936 -0.25275576114655 0.48417136073112
vn -0.93247973918915 -0.29341611266136 0.21068574488163
vn 0.95365232229233 -0.09822162240744 0.28442880511284
vn -0.64880633354187 0.63064420223236 -0.42583826184273
vn -0.28366959095001 0.87913310527802 -0.38295763731003
vn -0.49307790398598 0.75923132896423 -0.42478466033936
vn -0.49872472882271 -0.12959705293179 0.85701704025269
vn 0.27955442667007 -0.12509655952454 0.95194548368454
vn 0.14383339881897 -0.08253286778927 0.98615425825119
vn 0.66839402914047 -0.2415350228548 0.70349860191345
vn 0.85359704494476 -0.29138335585594 0.43181923031807
vn -0.07247942686081 0.94071090221405 -0.33137547969818
vn 0.51686090230942 0.84055840969086 -0.16222317516804
vn 0.71712201833725 0.69366270303726 -0.06758760660887
vn 0.28008764982224 0.92807310819626 -0.2454205006361
vn 0.17748081684113 0.9563290476799 -0.23223988711834
vn -0.29956275224686 -0.06178181990981 0.95207411050797
vn 0.82381099462509 -0.24728597700596 -0.51008343696594
vn 0.92860078811646 -0.29138338565826 -0.22977444529533
vn -0.94194340705872 -0.31344118714333 -0.12040463089943
vn -0.92258387804031 -0.37525767087936 -0.08955828845501
vn -0.88170969486237 -0.47026464343071 -0.03793627396226
vn 0.46956986188889 -0.11956600099802 -0.87476176023483
vn 0.49716368317604 0.12909528613091 -0.85799926519394
vn 0.29265111684799 0.05953162163496 -0.95436435937881
vn 0.83852177858353 0.25306779146194 -0.48253282904625
vn 0.93249595165253 0.29334783554077 -0.21070912480354
vn -0.05601259320974 -0.9342041015625 0.35231417417526
vn -0.87039297819138 -0.49160301685333 -0.0272502861917
vn 0.68996351957321 -0.56850922107697 0.44804865121841
vn 0.82749599218369 -0.38545122742653 0.40826189517975
vn 0.92032998800278 -0.18156813085079 0.3464472591877
vn 0.27148407697678 -0.05246917158365 -0.9610116481781
vn -0.96708804368973 -0.17019103467464 -0.18914483487606
vn -0.27876526117325 0.91489595174789 -0.29198515415192
vn 0.15110236406326 0.92291557788849 -0.35411143302917
vn -0.03964912518859 0.93363744020462 -0.35601830482483
vn 0.35825654864311 0.86126488447189 -0.36038175225258
vn 0.50492191314697 0.80443865060806 -0.31294137239456
vn -0.89875358343124 -0.43760204315186 -0.02732041105628
vn 0.68178647756577 0.24538061022758 0.68917018175125
vn 0.86166536808014 0.29337924718857 0.41407895088196
vn 0.42666694521904 0.17031483352184 0.88822758197784
vn 0.29372844099998 -0.1294419169426 0.94708412885666
vn 0.07698715478182 -0.0611888282001 0.99515271186829
vn -0.92888933420181 0.07700278609991 -0.36226388812065
vn 0.70830076932907 -0.2528550028801 0.65907084941864
vn 0.86164283752441 -0.29344466328621 0.41407951712608
vn -0.5272763967514 0.68867522478104 -0.49770075082779
vn 0.9457300901413 0.30122202634811 -0.12190119922161
vn -0.29372727870941 -0.12947264313698 -0.94708031415939
vn -0.07698700577021 -0.06121996417642 -0.99515080451965
vn -0.70830392837524 -0.2528150677681 -0.6590827703476
vn -0.86166536808014 -0.29337924718857 -0.41407895088196
vn 0.47138449549675 0.78685027360916 0.39832559227943
vn -0.03449934720993 0.72305220365524 0.68993139266968
vn 0.22042082250118 0.77229976654053 0.59579169750214
vn -0.43184587359428 0.74095213413239 0.5142947435379
vn -0.60615491867065 0.7508926987648 0.26217633485794
vn 0.83025699853897 -0.24997198581696 -0.49818399548531
vn 0.93244934082031 -0.29351007938385 -0.21068941056728
vn 0.47355255484581 -0.12091027200222 -0.87242686748505
vn -0.21689927577972 0.66130691766739 0.71807235479355
vn 0.5788733959198 0.60354650020599 0.54830396175385
vn -0.29121613502502 0.59460854530334 0.74942231178284
vn -0.51074284315109 0.47228682041168 0.71839189529419
vn 0.27297773957253 -0.05275115743279 -0.9605730175972
vn -0.83787506818771 -0.25284886360168 0.48376941680908
vn -0.49831068515778 -0.12947103381157 0.85727691650391
vn -0.46144825220108 0.11678346991539 0.87944704294205
vn -0.23905442655087 0.04165719076991 0.9701122045517
vn -0.83210897445679 0.25053536891937 0.49479961395264
vn -0.93249595165253 0.29334783554077 0.21070912480354
vn 0.56883251667023 0.57936292886734 -0.58375352621078
vn 0.39772292971611 0.4974767267704 -0.77093023061752
vn 0.68329912424088 0.67010188102722 -0.2899409532547
vn 0.92769718170166 0.3724439740181 -0.02575788646936
vn 0.89433914422989 0.4154766201973 -0.16594183444977
vn 0.84074068069458 0.44913318753242 -0.30238139629364
vn 0.47763550281525 -0.04256312549114 0.87752646207809
vn 0.19901868700981 0.34385094046593 -0.91769170761108
vn -0.29783645272255 -0.06121960282326 0.95265185832977
vn -0.00600599637255 0.24247063696384 -0.9701401591301
vn 0.93034660816193 0.16166141629219 0.32912120223045
vn -0.72028636932373 -0.57889628410339 0.38218662142754
vn -0.9142986536026 -0.14850346744061 -0.37683513760567
vn 0.72896766662598 -0.11272049695253 0.67520380020142
vn 0.79350286722183 -0.0158752463758 0.60835939645767
vn 0.73825526237488 -0.10234808176756 0.66671133041382
vn 0.81747996807098 0.02840673550963 0.57525610923767
vn 0.87928861379623 0.17862924933434 0.44152361154556
vn -0.70923793315887 0.25307235121727 -0.65797865390778
vn -0.86166536808014 0.29337924718857 -0.41407895088196
vn -0.29247507452965 0.12909528613091 -0.94751924276352
vn -0.26185712218285 -0.11956462264061 -0.95767176151276
vn -0.04940109699965 -0.05243853852153 -0.99740147590637
vn -0.68874788284302 -0.24728472530842 -0.68152523040771
vn -0.85359704494476 -0.29138335585594 -0.43181923031807
vn -0.07158051431179 0.05953162163496 -0.99565666913986
vn 0.51782608032227 0.76978200674057 -0.37321817874908
vn -0.26047825813293 0.64951390028 -0.71434080600739
vn -0.92723542451859 -0.06278217583895 -0.36917868256569
vn 0.4720912873745 0.73369824886322 -0.48868876695633
vn 0.71925264596939 0.62479251623154 -0.30382549762726
vn 0.17436814308167 0.76401042938232 -0.62119549512863
vn -0.77428442239761 0.42764014005661 -0.4664843082428
vn -0.80894666910172 -0.24156823754311 0.53595721721649
vn -0.92860078811646 -0.29138338565826 0.22977444529533
vn -0.48544213175774 -0.12506467103958 0.86527729034424
vn 0.29417711496353 -0.12959499657154 0.94692397117615
vn 0.07879868149757 -0.06181332096457 0.99497228860855
vn 0.70800942182541 -0.25275120139122 0.65942358970642
vn 0.86165863275528 -0.29338753223419 0.41408711671829
vn -0.3605865240097 -0.08240911364555 0.92907810211182
vn -0.87990868091583 -0.1006600484252 0.46435788273811
vn -0.6484512090683 -0.0744392350316 0.75760799646378
vn -0.97563552856445 -0.0698145031929 0.20799328386784
vn -0.51025158166885 -0.05468862131238 0.85828465223312
vn -0.39653924107552 -0.03078183345497 0.91750156879425
vn -0.53575217723846 -0.08637623488903 0.83994567394257
vn -0.55059188604355 -0.09309670329094 0.8295670747757
vn -0.87874072790146 -0.37704169750214 0.29266756772995
vn 0.83809053897858 -0.25294649600983 -0.48334494233131
vn 0.93247973918915 -0.29341611266136 -0.21068574488163
vn 0.49795684218407 -0.12934541702271 -0.85750144720078
vn 0.49152475595474 0.12715750932693 -0.86153024435043
vn 0.32478842139244 0.07031493633986 -0.94316929578781
vn 0.82712352275848 0.24859929084778 -0.50404864549637
vn 0.93250721693039 0.29335358738899 -0.2106511592865
vn 0.29613897204399 -0.06062567234039 -0.95321887731552
# 163 normals

vt 0.49995157122612 0.00212597846985 0
vt 0.5 0 0
vt 0.5 0.00239622592926 0
vt 0.49946200847626 0.00165581703186 0
vt 0.2547627389431 0.75476276874542 0
vt 0.25495859980583 0.75495862960815 0
vt 0.49977412819862 0.00184786319733 0
vt 0.25515449047089 0.75515449047089 0
vt 0.50004839897156 0.00212597846985 0
vt 0.50022584199905 0.00184786319733 0
vt 0.25535038113594 0.75535035133362 0
vt 0.5 1 0
vt 0.74464964866638 0.75535035133362 0
vt 0.50053799152374 0.00165581703186 0
vt 0.74484550952911 0.75515449047089 0
vt 0.74504137039185 0.75495862960815 0
vt 0.74523729085922 0.75476276874542 0
vt 0.72123175859451 0.68088132143021 0
vt 0.7209849357605 0.68092042207718 0
vt 0.72073811292648 0.68095946311951 0
vt 0.72049129009247 0.68099856376648 0
vt 0.2555835545063 0.75463271141052 0
vt 0.25530993938446 0.75467610359192 0
vt 0.25503632426262 0.75471937656403 0
vt 0.72100907564163 0.68099474906921 0
vt 0.19191606342793 0.95058107376099 0
vt 0.72056376934052 0.68122166395187 0
vt 0.72078639268875 0.68110823631287 0
vt 0.19167397916317 0.95066893100739 0
vt 0.19139903783798 0.95069444179535 0
vt 0.19111704826355 0.95064401626587 0
vt 0.74496364593506 0.75471937656403 0
vt 0.74469006061554 0.75467610359192 0
vt 0.27926191687584 0.68095946311951 0
vt 0.27950873970985 0.68099856376648 0
vt 0.27901509404182 0.68092042207718 0
vt 0.27876827120781 0.68088132143021 0
vt 0.74441647529602 0.75463271141052 0
vt 0.27899092435837 0.68099474906921 0
vt 0.27921357750893 0.68110823631287 0
vt 0.80832600593567 0.95066893100739 0
vt 0.80808395147324 0.95058107376099 0
vt 0.27943626046181 0.68122166395187 0
vt 0.80860096216202 0.95069444179535 0
vt 0.80888295173645 0.95064401626587 0
# 45 texture coordinates

o Decagon_web
usemtl Mat
f 7/1/1 15/2/2 17/3/3
f 3/4/4 2/5/4 11/6/5 6/7/5
f 6/7/5 11/6/5 14/8/6 7/1/6
f 8/9/7 15/2/7 4/10/7
f 17/3/8 15/2/8 8/9/8
f 13/11/9 1/12/9 17/3/9
f 1/12/9 16/13/9 17/3/9
f 7/1/6 14/8/6 13/11/10 17/3/10
f 4/10/11 15/2/11 5/14/11
f 6/7/12 15/2/2 7/1/1
f 3/4/13 15/2/2 6/7/12
f 17/3/14 16/13/14 12/15/15 8/9/15
f 8/9/15 12/15/15 10/16/16 4/10/16
f 4/10/16 10/16/16 9/17/17 5/14/17
f 26/10/18 15/2/18 21/9/18
f 20/14/19 27/18/19 29/19/20 26/10/20
f 26/10/20 29/19/20 18/20/21 21/9/21
f 21/9/21 18/20/21 25/21/22 23/3/22
f 25/21/23 22/22/23 23/3/23
f 21/9/24 15/2/24 23/3/24
f 23/3/25 22/22/25 28/23/26 24/1/26
f 20/14/27 15/2/27 26/10/27
f 24/1/26 28/23/26 30/24/28 19/7/28
f 19/7/28 30/24/28 2/5/29 3/4/29
f 23/3/30 15/2/31 24/1/31
f 19/7/32 15/2/32 3/4/32
f 24/1/31 15/2/31 19/7/33
f 33/10/34 41/25/34 27/18/35 20/14/35
f 36/1/36 15/2/36 42/3/36
f 42/3/37 15/2/38 35/9/39
f 43/26/9 39/27/9 42/3/9
f 35/9/40 32/28/40 41/25/34 33/10/34
f 36/1/41 38/29/41 43/26/42 42/3/42
f 40/7/43 31/30/43 38/29/41 36/1/41
f 34/4/44 37/31/44 31/30/43 40/7/43
f 35/9/39 15/2/38 33/10/45
f 40/7/46 15/2/46 36/1/47
f 34/4/48 15/2/46 40/7/46
f 33/10/45 15/2/38 20/14/49
f 42/3/50 39/27/50 32/28/40 35/9/40
f 47/7/51 51/30/51 37/31/52 34/4/52
f 46/1/53 15/2/54 47/7/55
f 54/27/23 52/26/23 53/3/23
f 46/1/56 49/29/56 51/30/51 47/7/51
f 45/9/57 56/28/57 54/27/58 53/3/58
f 44/10/59 55/25/59 56/28/57 45/9/57
f 48/14/60 50/18/60 55/25/59 44/10/59
f 48/14/61 15/2/61 44/10/61
f 47/7/55 15/2/54 34/4/62
f 44/10/63 15/2/64 45/9/64
f 45/9/64 15/2/64 53/3/65
f 53/3/66 52/26/66 49/29/56 46/1/56
f 53/3/67 15/2/54 46/1/53
f 65/4/68 15/2/69 64/7/70
f 69/22/9 67/21/9 68/3/9
f 64/7/70 15/2/69 60/1/71
f 60/1/71 15/2/69 68/3/72
f 68/3/73 15/2/73 59/9/73
f 58/10/74 57/19/74 50/18/75 48/14/75
f 59/9/76 66/20/76 57/19/74 58/10/74
f 60/1/77 61/23/77 69/22/78 68/3/78
f 58/10/79 15/2/79 48/14/79
f 64/7/80 62/24/80 61/23/77 60/1/77
f 65/4/81 63/5/81 62/24/80 64/7/80
f 59/9/82 15/2/82 58/10/82
f 68/3/83 67/21/83 66/20/83 59/9/83
f 80/9/84 76/15/84 74/13/85 72/3/85
f 79/10/86 75/16/86 76/15/84 80/9/84
f 77/14/87 70/17/87 75/16/86 79/10/86
f 77/14/88 15/2/89 79/10/90
f 81/7/91 15/2/91 65/4/92
f 81/7/93 78/6/93 63/5/94 65/4/94
f 82/1/95 83/8/95 78/6/93 81/7/93
f 82/1/96 15/2/91 81/7/91
f 72/3/97 15/2/97 82/1/97
f 79/10/90 15/2/89 80/9/98
f 80/9/98 15/2/89 72/3/99
f 74/13/23 71/12/23 72/3/23
f 71/12/23 73/11/23 72/3/23
f 72/3/100 73/11/100 83/8/95 82/1/95
f 94/10/101 84/32/101 70/17/35 77/14/35
f 92/9/102 96/33/102 84/32/101 94/10/101
f 91/1/103 93/34/103 88/35/104 89/3/104
f 87/7/105 95/36/105 93/34/103 91/1/103
f 86/4/106 85/37/106 95/36/105 87/7/105
f 94/10/107 15/2/108 77/14/109
f 86/4/110 15/2/111 87/7/111
f 87/7/111 15/2/111 91/1/112
f 91/1/113 15/2/113 89/3/113
f 92/9/114 15/2/108 94/10/107
f 88/35/9 90/38/9 89/3/9
f 89/3/115 90/38/115 96/33/102 92/9/102
f 89/3/116 15/2/108 92/9/114
f 108/7/117 15/2/117 86/4/117
f 107/1/118 15/2/118 108/7/118
f 105/3/119 15/2/119 107/1/119
f 103/9/120 15/2/121 105/3/122
f 102/10/123 15/2/121 103/9/120
f 101/14/124 15/2/121 102/10/123
f 108/7/125 100/39/125 85/37/126 86/4/126
f 107/1/127 109/40/127 100/39/125 108/7/125
f 103/9/128 97/41/128 104/42/129 105/3/129
f 104/42/23 106/43/23 105/3/23
f 102/10/130 98/44/130 97/41/128 103/9/128
f 101/14/131 99/45/131 98/44/130 102/10/130
f 105/3/132 106/43/132 109/40/127 107/1/127
f 118/10/133 15/2/133 101/14/133
f 117/9/134 15/2/134 118/10/134
f 120/3/135 15/2/135 117/9/135
f 116/1/136 15/2/136 120/3/137
f 115/7/138 15/2/136 116/1/136
f 114/4/139 15/2/139 115/7/139
f 118/10/140 113/44/140 99/45/141 101/14/141
f 117/9/142 122/41/142 113/44/140 118/10/140
f 119/43/9 121/42/9 120/3/9
f 116/1/143 110/40/143 119/43/144 120/3/144
f 115/7/145 111/39/145 110/40/143 116/1/143
f 114/4/146 112/37/146 111/39/145 115/7/145
f 120/3/147 121/42/147 122/41/142 117/9/142
f 129/7/148 15/2/149 114/4/150
f 128/1/151 15/2/149 129/7/148
f 133/3/152 15/2/149 128/1/151
f 127/9/153 15/2/149 133/3/152
f 126/10/154 15/2/149 127/9/153
f 5/14/155 15/2/155 126/10/155
f 129/7/156 125/36/156 112/37/157 114/4/157
f 132/38/23 131/35/23 133/3/23
f 128/1/158 130/34/158 125/36/156 129/7/156
f 127/9/159 123/33/159 132/38/160 133/3/160
f 126/10/161 124/32/161 123/33/159 127/9/159
f 5/14/162 9/17/162 124/32/161 126/10/161
f 133/3/163 131/35/163 130/34/158 128/1/158

