# WaveFront *.obj file (generated by CINEMA 4D)

mtllib ./DecagonShape_48.mtl

v 0.00209584715776 0.00359600223601 -0.00865596905351
v 0.00011899273522 0.00248366780579 -0.00770312640816
v 0.00001542897007 -0.00311099737883 -0.00790656358004
v 0.00003027993625 -0.00311139854603 -0.00790875963867
v 0.00002955576565 -0.00311233126558 -0.0079110013321
v 0.00002289168515 -0.00311055965722 -0.00790561083704
v 0.0000281933626 -0.00310913682915 -0.0079066362232
v 0.00002992668124 -0.00310934381559 -0.00790746696293
v 0.00304393470287 0.00141406571493 -0.00924428366125
v 0.00304485438392 0.00141497887671 -0.00924283824861
v 0.00012414185039 0.00248442706652 -0.0077021480538
v 0.00304502225481 0.00141636456829 -0.00924148969352
v 0.00013429722458 0.00248609553091 -0.00770424772054
v 0.0001293617388 0.00248523452319 -0.00770253129303
v 0.00002150705404 -0.00312268757261 -0.00790817569941
v 0.00304452190176 0.0014180438593 -0.0092406552285
v 0.00003075450149 -0.00310743437149 -0.0079076429829
v -0.00126633339096 0.00109129596967 -0.01041090302169
v 0.00000886103862 -0.00311013450846 -0.00791015662253
v -0.00000044026061 -0.00311445374973 -0.00791965983808
v 0.00000405881065 -0.00310876080766 -0.0079159643501
v 0.00010730979557 0.00248157884926 -0.00771315256134
v 0.00000386576176 -0.00310661992989 -0.00791635457426
v 0.00000524420875 -0.00310844206251 -0.00791406258941
v -0.00126491987612 0.00109269132372 -0.01040871068835
v 0.00000238719667 -0.00311178970151 -0.00791784655303
v -0.00127039116342 0.00108871422708 -0.01041430607438
v 0.00011028040899 0.0024822561536 -0.00770882098004
v -0.00126817636192 0.0010899528861 -0.01041278615594
v 0.00011426502169 0.0024829483591 -0.00770540162921
v -0.00544232083485 0.00055591727141 -0.01051827985793
v -0.0012756473152 0.00108673423529 -0.0104160849005
v -0.00000420187871 -0.00311578717083 -0.00792122725397
v -0.00000877712591 -0.00311729870737 -0.00791771430522
v -0.00000740658379 -0.00311560137197 -0.00792228337377
v -0.00000840545636 -0.00311603047885 -0.00792208313942
v -0.00544306309894 0.00055657635676 -0.01051654852927
v -0.00544077344239 0.00055590400007 -0.01051943842322
v -0.00127852254082 0.00108607299626 -0.0104162953794
v -0.00000848141917 -0.00311746587977 -0.00792022515088
v -0.00127290794626 0.00108762702439 -0.01041541621089
v -0.00000931972954 -0.00311461905949 -0.00792311970145
v -0.00543900532648 0.00055614573648 -0.01051975414157
v -0.0000065225131 -0.00311313080601 -0.00791556946933
v -0.00000856849692 -0.00311252498068 -0.00791650824249
v -0.00000911942425 -0.00311293685809 -0.00791650731117
v -0.00000886524867 -0.0031152269803 -0.00791625771672
v -0.00000423352549 -0.0031125487294 -0.00791451986879
v -0.00544128194451 0.00055887037888 -0.01051418110728
v -0.00127418444026 0.00109061924741 -0.01040916517377
v -0.00544263795018 0.00055776606314 -0.01051500439644
v -0.00543956505135 0.00055941042956 -0.01051396876574
v -0.00000987943076 -0.0031113543082 -0.00791733432561
v -0.00127908214927 0.00108933763113 -0.01041051000357
v -0.00127570237964 0.00109006976709 -0.01040987763554
v -0.00127735210117 0.00108963530511 -0.01041032932699
v -0.0012728451984 0.00109125848394 -0.01040821056813
v -0.00000262265735 -0.00311076478101 -0.00791356898844
v -0.00000161540072 -0.00310858525336 -0.00791246443987
v -0.00000022637748 -0.00310847931542 -0.00791025254875
v 0.00010532502347 0.00248218583874 -0.00770436180755
v 0.00011063380953 0.00248281215318 -0.00769981229678
v 0.00011693369015 0.00248347572051 -0.00769678875804
v 0.00000460652973 -0.00311024230905 -0.00790502503514
v 0.00001336993137 -0.00311118969694 -0.00790022592992
v -0.0012717259815 0.00109195918776 -0.01040703989565
v -0.00127086101566 0.00109269132372 -0.01040568668395
v -0.0000020753746 -0.00310661992989 -0.00791332963854
v 0.00010136865603 0.00248157884926 -0.00771012809128
v 0.00304866489023 0.00141015090048 -0.00924688111991
v 0.00209887884557 0.00359573028982 -0.00865003746003
v 0.00003378608017 -0.00310770631768 -0.00790171232074
v 0.00013732883963 0.00248582358472 -0.00769831659272
v 0.00304755335674 0.00141777226236 -0.00923472363502
v 0.00305046676658 0.00141145277303 -0.00924212206155
v 0.00305001274683 0.00141417176928 -0.00923765171319
v 0.00003428579657 -0.00311624608003 -0.00791359879076
v 0.00012379555847 0.00248419144191 -0.00769549468532
v 0.0000358014986 -0.00311443419196 -0.00790658220649
v 0.00003461949382 -0.00311066862196 -0.00790269579738
v 0.00002331917312 -0.00311080925167 -0.00789896212518
v 0.00003196646503 -0.00310972332954 -0.00790099054575
v 0.00013075189781 0.0024849716574 -0.00769601622596
v 0.00304496195167 0.00141042238101 -0.00925059523433
v 0.00011295094737 0.00193520390894 -0.00773575948551
v 0.00001954704749 -0.0031106127426 -0.00791923888028
v 0.00002203671102 -0.00311006023549 -0.00791890732944
v 0.00011800956418 0.00193429610226 -0.00773619487882
v 0.00002469134779 -0.00310689094476 -0.00791950616986
v 0.00303558632731 0.00141427433118 -0.00925124716014
v 0.00002422479884 -0.00310891261324 -0.00791934505105
v 0.00002586613846 -0.00310988374986 -0.00791982188821
v 0.00011637861462 0.00193458120339 -0.00773560302332
v 0.00002956456592 -0.00311387516558 -0.00791878532618
v 0.00011465299758 0.0019348844653 -0.00773545494303
v 0.0030402217526 0.00141200225335 -0.00925221480429
v -0.00175815587863 0.00276107597165 -0.01140632480383
v -0.0017598788254 0.0027609677054 -0.01140719372779
v -0.00176185183227 0.00276087364182 -0.01140690874308
v 0.00011138911213 0.00193553604186 -0.00773649569601
v 0.00001247547607 -0.00311163393781 -0.007921484299
v 0.00001470179177 -0.00311062321998 -0.00792214926332
v 0.0000157325394 -0.00310854637064 -0.00792217068374
v -0.00175707717426 0.00276091578417 -0.01140487752855
v 0.00001574803355 -0.00310661992989 -0.00792240351439
v 0.00010909698176 0.00193622393999 -0.00773903215304
v 0.00001617687303 -0.00310836732388 -0.00792167615145
v 0.0000173700555 -0.00310991890728 -0.00792041886598
v 0.00011007436842 0.00193587783724 -0.00773761188611
v 0.00010511901928 0.00193580752239 -0.00773315271363
v 0.00010775794362 0.00193539995234 -0.00773090636358
v 0.00011089195323 0.00193501147442 -0.00772942183539
v -0.00176324299537 0.0027609677054 -0.01140548102558
v 0.00001748800787 -0.00311080506071 -0.00791290123016
v 0.00001311554661 -0.00311002670787 -0.00791528727859
v 0.00001072369196 -0.00310840457678 -0.007917878218
v 0.0000101390051 -0.00310855708085 -0.00791902653873
v 0.00001062751471 -0.00311062321998 -0.00792007520795
v 0.0001031558495 0.00193622393999 -0.00773600768298
v 0.00000980689674 -0.00310661992989 -0.00791937857866
v -0.0017630183138 0.00276091578417 -0.01140185259283
v -0.00176355405711 0.00276107597165 -0.01140357647091
v 0.00304048205726 0.00141372426879 -0.0092457793653
v 0.00304238125682 0.00141367712058 -0.00924538075924
v 0.00011430674203 0.0019346489571 -0.00772880157456
v 0.0000282009587 -0.00311121204868 -0.00791282765567
v 0.00002724660044 -0.00310908234678 -0.00791329145432
v 0.00002601162487 -0.00310886837542 -0.00791290774941
v 0.00002246419899 -0.00311030982994 -0.0079122595489
v 0.00011776868632 0.00193431868684 -0.00772908842191
v 0.0001210411865 0.00193402415607 -0.007730263751
v 0.00303861778229 0.00141400226858 -0.00924531556666
v 0.00002772292464 -0.00310716265813 -0.00791357457638
# 133 vertices

vn 0.39604952931404 -0.29424265027046 0.86980807781219
vn 0.23182764649391 -0.26874828338623 0.93489587306976
vn 0.5355538725853 -0.35150429606438 0.76787161827087
vn 0.15333236753941 0.03307588025928 -0.98762094974518
vn 0.00686953216791 0.03622328862548 -0.99932008981705
vn -0.25247877836227 0.03982289135456 -0.9667826294899
vn 0.5390939116478 -0.38007920980453 0.75160998106003
vn -0.56276512145996 0.31449523568153 0.76445287466049
vn -0.45471140742302 0.04076094180346 -0.88970559835434
vn -0.36187222599983 0.04053832218051 -0.93134588003159
vn 0.78961539268494 -0.61360204219818 0.00021680822829
vn 0.06623835861683 -0.21370930969715 0.97464907169342
vn -0.11307097971439 -0.19322545826435 0.97461730241776
vn -0.63249111175537 0.20088243484497 -0.74806499481201
vn -0.71539092063904 0.28906762599945 -0.6361255645752
vn -0.8406029343605 0.49512511491776 -0.21963104605675
vn -0.81647843122482 0.57030445337296 0.09008782356977
vn -0.51149582862854 -0.1459949016571 0.84679245948792
vn -0.44940829277039 -0.04986137896776 0.89193385839462
vn -0.43069365620613 -0.03527373820543 0.90180861949921
vn 0.65169984102249 -0.23173804581165 -0.72220826148987
vn 0.72342854738235 -0.17742185294628 -0.66721260547638
vn 0.83261853456497 -0.07417292892933 -0.54885774850845
vn 0.87195706367493 -0.02665358409286 -0.48885631561279
vn 0.89117044210434 0 -0.45366868376732
vn -0.3051749765873 0.14408354461193 0.94133317470551
vn 0.84151196479797 0.00402328325436 -0.54022347927094
vn 0.77302920818329 0.00873545743525 -0.63431024551392
vn -0.48509195446968 -0.07824033498764 0.87095594406128
vn 0.58151131868362 0.01883391290903 -0.8133202791214
vn 0.45647701621056 0.02393262647092 -0.88941323757172
vn -0.57957547903061 -0.77087217569351 -0.26428842544556
vn -0.66213953495026 -0.66874861717224 0.33815166354179
vn -0.66836029291153 -0.74212074279785 0.05051123723388
vn -0.60803890228271 -0.5175753235817 0.60200035572052
vn -0.48357889056206 -0.36138710379601 0.79721438884735
vn 0.3914261162281 -0.37933650612831 -0.83838498592377
vn 0.47938561439514 -0.33628430962563 -0.81061846017838
vn -0.20880199968815 0.6279536485672 0.74971723556519
vn -0.29982450604439 0.43088507652283 0.85114234685898
vn 0.46488764882088 0.16517955064774 -0.86982482671738
vn 0.08394238352776 -0.48971647024155 -0.86783146858215
vn 0.22702945768833 -0.44539868831635 -0.86607021093369
vn -0.16723993420601 -0.72214901447296 -0.67121648788452
vn -0.03953263536096 -0.61539226770401 -0.78722900152206
vn -0.45036762952805 -0.85290712118149 -0.26404243707657
vn -0.56826239824295 -0.82245051860809 0.02555258758366
vn -0.20964270830154 0.63121592998505 0.74673718214035
vn -0.32834666967392 0.39737552404404 0.85690206289291
vn -0.10581590980291 0.78897380828857 0.60524648427963
vn 0.1881977468729 0.98118031024933 -0.04320621490479
vn -0.42046856880188 0.13140924274921 0.89774036407471
vn 0.15330331027508 -0.46967434883118 -0.86942744255066
vn -0.55616062879562 -0.26554796099663 0.78750848770142
vn -0.62417697906494 -0.4964442551136 0.60327953100204
vn 0.17832884192467 -0.2524186372757 -0.95104348659515
vn 0.25310465693474 0.02003188617527 -0.9672315120697
vn 0.30590179562569 0.25033044815063 -0.91856342554092
vn -0.08394238352776 0.48971647024155 0.86783146858215
vn -0.32283863425255 0.17977030575275 0.92922431230545
vn -0.16804964840412 0.4779834151268 0.86214333772659
vn -0.22490549087524 0.4461607336998 0.86623215675354
vn -0.14457048475742 0.47234916687012 0.8694743514061
vn -0.09877698123455 0.50468879938126 0.8576318025589
vn -0.39345273375511 0.37839758396149 0.83786052465439
vn -0.47938561439514 0.33628430962563 0.81061846017838
vn 0.33608037233353 0.29325112700462 -0.8950160741806
vn 0.33833169937134 0.55084270238876 -0.76295739412308
vn 0.36448365449905 0.90750062465668 -0.20879246294498
vn -0.0526437535882 0.53535634279251 0.84298413991928
vn -0.19245664775372 0.3608033657074 0.91256856918335
vn 0.11249635368586 -0.4171727001667 -0.90183782577515
vn 0.40137022733688 0.69586795568466 -0.59554153680801
vn 0.52065247297287 0.82284164428711 -0.22771167755127
vn 0.48436573147774 0.76517421007156 -0.42414420843124
vn -0.89117044210434 0 0.45366868376732
vn 0.54868340492249 0.83565354347229 -0.02509333193302
vn 0.52508699893951 0.8304181098938 0.18625105917454
vn -0.0877078473568 -0.4186224937439 -0.90391510725021
vn -0.72449856996536 0.17656521499157 0.66627812385559
vn -0.65169984102249 0.23173804581165 0.72220826148987
vn -0.84173613786697 0.06385420262814 0.5360996723175
vn -0.77304780483246 -0.00874395016581 0.63428747653961
vn -0.84152811765671 -0.00403173221275 0.5401982665062
vn 0.32832527160645 0.25282290577888 -0.91010057926178
vn 0.31176617741585 0.21207223832607 -0.92618960142136
vn -0.58153939247131 -0.01881260052323 0.81330072879791
vn -0.45648345351219 -0.02390267141163 0.88941079378128
vn 0.34413775801659 0.29301849007607 -0.892025411129
vn -0.88581669330597 0.00766970496625 0.46397197246552
vn 0.71021807193756 -0.28307554125786 0.64456075429916
vn 0.58641457557678 -0.15638341009617 0.79477179050446
vn 0.84193652868271 -0.5038885474205 0.19297467172146
vn 0.81646627187729 -0.57032334804535 -0.09007854014635
vn -0.48655462265015 0.86558943986893 -0.11840406805277
vn -0.2620387673378 0.69655758142471 -0.66793954372406
vn -0.41206249594688 0.79847466945648 -0.43891081213951
vn -0.08857931941748 0.6188999414444 -0.78045922517776
vn 0.07763969153166 0.60362446308136 -0.79347944259644
vn 0.00156087835785 -0.03640919551253 0.99933576583862
vn -0.15334469079971 -0.03311494737864 0.98761773109436
vn 0.26537185907364 -0.03992688655853 0.96331906318665
vn -0.25229677557945 0.61681014299393 -0.74558132886887
vn -0.75406861305237 0.65205079317093 -0.07880526036024
vn -0.10712783783674 0.5068656206131 -0.85534250736237
vn 0.08472653478384 0.3353756070137 -0.93826681375504
vn 0.45471140742302 -0.04076094180346 0.88970559835434
vn 0.37104293704033 -0.04053430259228 0.92773061990738
vn 0.3189155459404 -0.4570104777813 -0.83032178878784
vn 0.53054869174957 -0.54470634460449 -0.64947140216827
vn -0.11553595215082 -0.20908358693123 -0.97104865312576
vn -0.2805969119072 0.04004483669996 -0.95898997783661
vn -0.40828037261963 0.04071090742946 -0.91194832324982
vn 0.00286127510481 0.03629229217768 -0.99933713674545
vn 0.15334971249104 0.03308511525393 -0.98761796951294
vn 0.10512743890285 0.72425431013107 0.68147188425064
vn 0.37140986323357 0.61008322238922 0.69989514350891
vn -0.18342658877373 0.82015544176102 0.54194068908691
vn -0.23870038986206 0.63465774059296 0.73500454425812
vn -0.21301582455635 0.63789820671082 0.74007439613342
vn -0.18718302249908 0.64066743850708 0.74465274810791
vn -0.97264331579208 0.22799503803253 0.04453309252858
vn 0.60545164346695 0.41277927160263 0.68047159910202
vn -0.30497360229492 -0.07646734267473 -0.94928598403931
vn 0.78530544042587 0.2484178096056 0.56708371639252
vn 0.01417710538954 0.69440996646881 0.71943992376328
vn -0.19489231705666 0.64519131183624 0.73874562978744
vn 0.22257442772388 0.7113436460495 0.66667151451111
vn 0.9180428981781 0.07295279204845 -0.38971158862114
vn 0.96267610788345 0.13981558382511 -0.23174625635147
vn 0.85784643888474 0.05392481386662 -0.51106905937195
vn -0.81187570095062 0.20821765065193 0.54543858766556
vn -0.63520443439484 0.41854947805405 0.64910066127777
vn -0.90019178390503 0.05934305861592 0.43143150210381
vn -0.43157625198364 0.56814563274384 0.70068001747131
vn -0.12323077023029 0.72067761421204 0.68223017454147
vn 0.58033227920532 0.01886633038521 -0.81416124105453
vn 0.45646184682846 0.02389381825924 -0.88942211866379
vn 0.77392756938934 0.0086684813723 -0.63321477174759
vn 0.67487627267838 -0.21504428982735 -0.70590227842331
vn 0.81256610155106 -0.09570863097906 -0.57495754957199
vn 0.23258285224438 -0.44347190856934 -0.86558526754379
vn -0.05936983972788 -0.52268809080124 -0.85045421123505
vn 0.84459745883942 0.00380629324354 -0.53538829088211
vn 0.59708470106125 0.76775354146957 0.23247426748276
vn 0.79277694225311 0.19411467015743 -0.57777518033981
vn 0.84148287773132 0.38916972279549 -0.37477126717567
vn 0.67935317754745 -0.01683081127703 -0.73361843824387
vn 0.39652106165886 0.70156562328339 0.59209525585175
vn 0.63454276323318 -0.01352389995009 -0.77276945114136
vn 0.77517127990723 0.17236475646496 -0.60778278112412
vn 0.44216564297676 -0.19826586544514 -0.87474578619003
vn -0.84442329406738 -0.43809300661087 -0.30825927853584
vn -0.65273928642273 -0.52268803119659 -0.54838728904724
vn -0.96786612272263 -0.21505023539066 0.13034008443356
vn -0.77259802818298 -0.00877743307501 0.63483476638794
vn -0.83997040987015 -0.00417026365176 0.54261618852615
vn -0.58211761713028 -0.01879203133285 0.81288743019104
vn -0.94949251413345 -0.11314402520657 0.29268145561218
vn 0.05257137864828 -0.31648162007332 -0.9471407532692
vn 0.01222706213593 -0.31257882714272 -0.9498131275177
vn 0.15248890221119 -0.32020941376686 -0.93499362468719
vn -0.0579999871552 -0.30640283226967 -0.95013332366943
vn -0.06810886412859 -0.30323040485382 -0.95048016309738
vn -0.7912734746933 0.10750937461853 -0.60193687677383
vn -0.17149546742439 -0.28248828649521 -0.94381654262543
vn 0.47011262178421 -0.55300462245941 -0.68788081407547
vn -0.00809928774834 -0.03618606925011 0.99931222200394
vn -0.15333236753941 -0.03307588025928 0.98762094974518
vn 0.25358903408051 -0.03982470557094 0.96649187803268
vn 0.12092365324497 0.20554308593273 0.97114855051041
vn 0.29381316900253 0.08480370789766 0.95209354162216
vn -0.30833593010902 0.45189505815506 0.83709007501602
vn -0.53057056665421 0.54464787244797 0.64950257539749
vn 0.36631593108177 -0.04054102301598 0.92960691452026
# 175 normals

vt 0.49995157122612 0.00212597846985 0
vt 0.5 0 0
vt 0.5 0.00239622592926 0
vt 0.49946200847626 0.00165581703186 0
vt 0.2547627389431 0.75476276874542 0
vt 0.25495859980583 0.75495862960815 0
vt 0.49977412819862 0.00184786319733 0
vt 0.25515449047089 0.75515449047089 0
vt 0.50004839897156 0.00212597846985 0
vt 0.50022584199905 0.00184786319733 0
vt 0.25535038113594 0.75535035133362 0
vt 0.5 1 0
vt 0.74464964866638 0.75535035133362 0
vt 0.50053799152374 0.00165581703186 0
vt 0.74484550952911 0.75515449047089 0
vt 0.74504137039185 0.75495862960815 0
vt 0.74523729085922 0.75476276874542 0
vt 0.72123175859451 0.68088132143021 0
vt 0.7209849357605 0.68092042207718 0
vt 0.72073811292648 0.68095946311951 0
vt 0.72049129009247 0.68099856376648 0
vt 0.2555835545063 0.75463271141052 0
vt 0.25530993938446 0.75467610359192 0
vt 0.25503632426262 0.75471937656403 0
vt 0.72100907564163 0.68099474906921 0
vt 0.19191606342793 0.95058107376099 0
vt 0.72056376934052 0.68122166395187 0
vt 0.72078639268875 0.68110823631287 0
vt 0.19167397916317 0.95066893100739 0
vt 0.19139903783798 0.95069444179535 0
vt 0.19111704826355 0.95064401626587 0
vt 0.74496364593506 0.75471937656403 0
vt 0.74469006061554 0.75467610359192 0
vt 0.27926191687584 0.68095946311951 0
vt 0.27950873970985 0.68099856376648 0
vt 0.27901509404182 0.68092042207718 0
vt 0.27876827120781 0.68088132143021 0
vt 0.74441647529602 0.75463271141052 0
vt 0.27899092435837 0.68099474906921 0
vt 0.27921357750893 0.68110823631287 0
vt 0.80832600593567 0.95066893100739 0
vt 0.80808395147324 0.95058107376099 0
vt 0.27943626046181 0.68122166395187 0
vt 0.80860096216202 0.95069444179535 0
vt 0.80888295173645 0.95064401626587 0
# 45 texture coordinates

o Decagon_web
usemtl Mat
f 7/1/1 15/2/2 17/3/3
f 3/4/4 2/5/4 11/6/5 6/7/5
f 6/7/5 11/6/5 14/8/6 7/1/6
f 8/9/7 15/2/7 4/10/7
f 17/3/8 15/2/8 8/9/8
f 13/11/9 1/12/9 17/3/9
f 1/12/9 16/13/9 17/3/9
f 7/1/6 14/8/6 13/11/10 17/3/10
f 4/10/11 15/2/11 5/14/11
f 6/7/12 15/2/2 7/1/1
f 3/4/13 15/2/2 6/7/12
f 17/3/14 16/13/14 12/15/15 8/9/15
f 8/9/15 12/15/15 10/16/16 4/10/16
f 4/10/16 10/16/16 9/17/17 5/14/17
f 26/10/18 15/2/19 21/9/20
f 20/14/21 27/18/21 29/19/22 26/10/22
f 26/10/22 29/19/22 18/20/23 21/9/23
f 21/9/23 18/20/23 25/21/24 23/3/24
f 25/21/25 22/22/25 23/3/25
f 21/9/20 15/2/19 23/3/26
f 23/3/27 22/22/27 28/23/28 24/1/28
f 20/14/29 15/2/19 26/10/18
f 24/1/28 28/23/28 30/24/30 19/7/30
f 19/7/30 30/24/30 2/5/31 3/4/31
f 23/3/32 15/2/33 24/1/34
f 19/7/35 15/2/33 3/4/36
f 24/1/34 15/2/33 19/7/35
f 33/10/37 41/25/37 27/18/38 20/14/38
f 36/1/39 15/2/39 42/3/40
f 42/3/41 15/2/41 35/9/41
f 43/26/42 39/27/42 42/3/42
f 35/9/43 32/28/43 41/25/37 33/10/37
f 36/1/44 38/29/44 43/26/45 42/3/45
f 40/7/46 31/30/46 38/29/44 36/1/44
f 34/4/47 37/31/47 31/30/46 40/7/46
f 35/9/48 15/2/49 33/10/49
f 40/7/50 15/2/39 36/1/39
f 34/4/51 15/2/51 40/7/51
f 33/10/49 15/2/49 20/14/52
f 42/3/53 39/27/53 32/28/43 35/9/43
f 47/7/54 51/30/54 37/31/55 34/4/55
f 46/1/56 15/2/57 47/7/58
f 54/27/59 52/26/59 53/3/59
f 46/1/60 49/29/60 51/30/54 47/7/54
f 45/9/61 56/28/62 54/27/63 53/3/64
f 44/10/65 55/25/65 56/28/62 45/9/61
f 48/14/66 50/18/66 55/25/65 44/10/65
f 48/14/67 15/2/67 44/10/67
f 47/7/58 15/2/57 34/4/68
f 44/10/69 15/2/69 45/9/69
f 45/9/61 15/2/70 53/3/64
f 53/3/71 52/26/71 49/29/60 46/1/60
f 53/3/72 15/2/57 46/1/56
f 65/4/73 15/2/74 64/7/75
f 69/22/76 67/21/76 68/3/76
f 64/7/75 15/2/74 60/1/77
f 60/1/77 15/2/74 68/3/78
f 68/3/79 15/2/79 59/9/79
f 58/10/80 57/19/80 50/18/81 48/14/81
f 59/9/82 66/20/82 57/19/80 58/10/80
f 60/1/83 61/23/83 69/22/84 68/3/84
f 58/10/85 15/2/85 48/14/86
f 64/7/87 62/24/87 61/23/83 60/1/83
f 65/4/88 63/5/88 62/24/87 64/7/87
f 59/9/89 15/2/85 58/10/85
f 68/3/90 67/21/90 66/20/82 59/9/82
f 80/9/91 76/15/91 74/13/92 72/3/92
f 79/10/93 75/16/93 76/15/91 80/9/91
f 77/14/94 70/17/94 75/16/93 79/10/93
f 77/14/95 15/2/96 79/10/97
f 81/7/98 15/2/98 65/4/99
f 81/7/100 78/6/100 63/5/101 65/4/101
f 82/1/102 83/8/102 78/6/100 81/7/100
f 82/1/103 15/2/98 81/7/98
f 72/3/104 15/2/104 82/1/104
f 79/10/97 15/2/96 80/9/105
f 80/9/105 15/2/96 72/3/106
f 74/13/107 71/12/107 72/3/107
f 71/12/107 73/11/107 72/3/107
f 72/3/108 73/11/108 83/8/102 82/1/102
f 94/10/109 84/32/109 70/17/110 77/14/110
f 92/9/111 96/33/111 84/32/109 94/10/109
f 91/1/112 93/34/112 88/35/113 89/3/113
f 87/7/114 95/36/114 93/34/112 91/1/112
f 86/4/115 85/37/115 95/36/114 87/7/114
f 94/10/116 15/2/117 77/14/118
f 86/4/119 15/2/120 87/7/120
f 87/7/120 15/2/120 91/1/121
f 91/1/122 15/2/122 89/3/122
f 92/9/123 15/2/117 94/10/116
f 88/35/9 90/38/9 89/3/9
f 89/3/124 90/38/124 96/33/111 92/9/111
f 89/3/125 15/2/117 92/9/123
f 108/7/126 15/2/126 86/4/127
f 107/1/128 15/2/126 108/7/126
f 105/3/129 15/2/130 107/1/131
f 103/9/132 15/2/133 105/3/134
f 102/10/135 15/2/133 103/9/132
f 101/14/136 15/2/133 102/10/135
f 108/7/137 100/39/137 85/37/138 86/4/138
f 107/1/131 109/40/139 100/39/137 108/7/137
f 103/9/140 97/41/140 104/42/141 105/3/141
f 104/42/25 106/43/25 105/3/25
f 102/10/142 98/44/142 97/41/140 103/9/140
f 101/14/143 99/45/143 98/44/142 102/10/142
f 105/3/129 106/43/144 109/40/139 107/1/131
f 118/10/145 15/2/145 101/14/145
f 117/9/146 15/2/146 118/10/147
f 120/3/148 15/2/146 117/9/146
f 116/1/149 15/2/149 120/3/149
f 115/7/150 15/2/150 116/1/151
f 114/4/152 15/2/150 115/7/150
f 118/10/153 113/44/153 99/45/154 101/14/154
f 117/9/155 122/41/155 113/44/153 118/10/153
f 119/43/76 121/42/76 120/3/76
f 116/1/156 110/40/156 119/43/157 120/3/157
f 115/7/158 111/39/158 110/40/156 116/1/156
f 114/4/88 112/37/88 111/39/158 115/7/158
f 120/3/159 121/42/159 122/41/155 117/9/155
f 129/7/160 15/2/161 114/4/162
f 128/1/163 15/2/161 129/7/160
f 133/3/164 15/2/161 128/1/163
f 127/9/165 15/2/165 133/3/165
f 126/10/166 15/2/166 127/9/166
f 5/14/167 15/2/167 126/10/167
f 129/7/168 125/36/168 112/37/169 114/4/169
f 132/38/107 131/35/107 133/3/107
f 128/1/170 130/34/170 125/36/168 129/7/168
f 127/9/171 123/33/171 132/38/172 133/3/172
f 126/10/173 124/32/173 123/33/171 127/9/171
f 5/14/174 9/17/174 124/32/173 126/10/173
f 133/3/175 131/35/175 130/34/170 128/1/170

