# WaveFront *.obj file (generated by CINEMA 4D)

mtllib ./DecagonShape_25.mtl

v 0.00317061366513 0.00549156917259 -0.01388641726226
v 0.00388378603384 0.0031901539769 -0.01434358861297
v 0.00001023471577 -0.00082061049761 -0.01383196469396
v 0.0000063255975 -0.00081706908531 -0.01383043732494
v 0.00000396955284 -0.00081733713159 -0.01382959540933
v 0.00000894673576 -0.00081843987573 -0.0138313760981
v 0.00000876629747 -0.00081614084775 -0.01383105386049
v 0.00000820609603 -0.00081584765576 -0.01383086387068
v 0.00107220723294 0.00466787489131 -0.01347851846367
v 0.0010738564888 0.00466851517558 -0.01347935944796
v 0.00388321653008 0.00319199240766 -0.01434322353452
v 0.00107550551184 0.00466915592551 -0.01348020043224
v 0.00388207705691 0.00319566880353 -0.01434249337763
v 0.0038826467935 0.0031938306056 -0.01434285845608
v 0.0000014187691 -0.00082741928054 -0.01383356098086
v 0.00107715488411 0.00466979620978 -0.0134810404852
v 0.00000931921386 -0.00081428285921 -0.01383097469807
v 0.00485392939299 0.00005948943726 -0.01496548950672
v 0.00001236671687 -0.00082190718967 -0.01383266504854
v 0.00001352049821 -0.00082727486733 -0.01383360102773
v 0.00001491045987 -0.00082268472761 -0.01383340824395
v 0.00388549477793 0.00318463915028 -0.01434468477964
v 0.00001642093957 -0.00082148937508 -0.01383365131915
v 0.00001461474767 -0.00082208495587 -0.01383326109499
v 0.00485341530293 0.0000611478099 -0.01496515981853
v 0.0000137461584 -0.00082470505731 -0.01383335143328
v 0.00485495710745 0.00005617286661 -0.01496614795178
v 0.00388492550701 0.00318647758104 -0.01434431970119
v 0.00485444301739 0.00005783115193 -0.01496581826359
v 0.00388435577042 0.00318831577897 -0.01434395462275
v 0.00607658550143 -0.00388907268643 -0.01575107313693
v 0.00485598482192 0.00005285621228 -0.01496680639684
v 0.00001446450096 -0.00082963122986 -0.01383412349969
v 0.00001229024838 -0.00083280727267 -0.01383732631803
v 0.00001614002031 -0.00083113159053 -0.01383474096656
v 0.00001600758151 -0.00083178351633 -0.0138348992914
v 0.0060760602355 -0.00388959026895 -0.01575293019414
v 0.00607681553811 -0.00388762378134 -0.01574981212616
v 0.00485649891198 0.00005119792695 -0.01496713608503
v 0.00001382335267 -0.00083241838729 -0.0138353407383
v 0.00485547073185 0.00005451458128 -0.01496647763997
v 0.00001791414979 -0.00083172938321 -0.01383525598794
v 0.0060765510425 -0.0038859245833 -0.01574923843145
v 0.0000125514016 -0.000829229597 -0.013840819709
v 0.00001425295977 -0.00083073537098 -0.01384134683758
v 0.00001420317676 -0.00083140464267 -0.01384121645242
v 0.00001255970255 -0.00083215307677 -0.01383976452053
v 0.00001154856363 -0.00082686083624 -0.01384050305933
v 0.00607512285933 -0.00388726824895 -0.01575573720038
v 0.00474898424 0.00007842233026 -0.01533710490912
v 0.00607554521412 -0.00388885405846 -0.01575471460819
v 0.00607464881614 -0.00388552527875 -0.01575589552522
v 0.00001601228905 -0.00083133007865 -0.01384191308171
v 0.004750657361 0.00007341984019 -0.01533763296902
v 0.00474954210222 0.00007675495726 -0.01533728092909
v 0.00475009996444 0.00007508740237 -0.01533745694906
v 0.00474842684343 0.00008008997247 -0.01533692888916
v 0.00001169026109 -0.0008242733893 -0.01384054776281
v 0.00001277298725 -0.00082223594654 -0.01384089048952
v 0.00001246317515 -0.00082163320621 -0.01384079270065
v 0.00369631289504 0.00322607764974 -0.01500455569476
v 0.00369569472969 0.00322792609222 -0.01500436011702
v 0.00369507679716 0.00322977476753 -0.0150041654706
v 0.00001024503854 -0.00082146172645 -0.01384009141475
v 0.00000810609436 -0.00082016357919 -0.01383941620588
v 0.00474786898121 0.00008175752737 -0.01533675286919
v 0.00474731111899 0.00008342490764 -0.0153365759179
v 0.00001422224341 -0.00082102773013 -0.0138413477689
v 0.00369693129323 0.00322422920726 -0.0150047512725
v 0.00071374612162 0.00473243696615 -0.01406188961118
v 0.00292114727199 0.00554394582286 -0.01475967373699
v 0.00000699978546 -0.00081379635958 -0.01383906602859
v 0.00369322230108 0.00323531986214 -0.0150035796687
v 0.00071975740138 0.00473426142707 -0.0140642337501
v 0.0007157145883 0.00473304605111 -0.01406275853515
v 0.00071771978401 0.00473365373909 -0.01406353991479
v 0.00000084370288 -0.00081674708053 -0.01383667625487
v 0.00369445839897 0.00323162297718 -0.01500396989286
v 0.00000361100797 -0.00081653572852 -0.01383787579834
v 0.00000576781804 -0.00081534904893 -0.01383866369724
v 0.00000677051412 -0.00081798294559 -0.01383899431676
v 0.00000646079889 -0.00081566098379 -0.01383889466524
v 0.00369384023361 0.00323347141966 -0.01500377431512
v 0.00071181787644 0.00473182601854 -0.01406093500555
v -0.00194121734239 0.00361226452515 -0.01237241085619
v -0.00000641777979 -0.00081801635679 -0.01383248344064
v -0.00000477759886 -0.00081627565669 -0.01383348181844
v -0.00193700438831 0.00361404311843 -0.01237509213388
v -0.00000398000839 -0.00081217312254 -0.01383382547647
v 0.00070809852332 0.00473059667274 -0.01405877806246
v -0.00000396662426 -0.00081411935389 -0.0138339176774
v -0.00000329995009 -0.0008140084683 -0.01383433584124
v -0.00193840870634 0.00361345033161 -0.01237419806421
v -0.00000168399538 -0.00081575289369 -0.01383534818888
v -0.00193981314078 0.00361285754479 -0.01237330492586
v 0.00070993416011 0.00473121274263 -0.0140598975122
v -0.00528075173497 0.00220229313709 -0.0102463606745
v -0.0052812481299 0.00220133014955 -0.01024475879967
v -0.00528069538996 0.00220076413825 -0.0102429240942
v -0.00194262166042 0.00361167197116 -0.01237151678652
v -0.00000845311843 -0.00082206394291 -0.01382743660361
v -0.00000975342482 -0.00082080077846 -0.01382921356708
v -0.00001076674289 -0.00081874034368 -0.0138295236975
v -0.00527954986319 0.00220308429562 -0.01024746336043
v -0.00001177051399 -0.00081718497677 -0.01382894162089
v -0.00194543029647 0.00361048616469 -0.01236972864717
v -0.00001042745498 -0.00081824837252 -0.01382985617965
v -0.00000852539688 -0.00081868673442 -0.0138311330229
v -0.00194402609486 0.00361107918434 -0.01237062271684
v -0.00174234423321 0.00357477972284 -0.01204336993396
v -0.00174085644539 0.00357535737567 -0.01204412896186
v -0.00173936889041 0.00357593526132 -0.01204488705844
v -0.00527926627547 0.00220097322017 -0.01024154294282
v -0.00000266179291 -0.00081869238056 -0.01382638886571
v -0.00000488147543 -0.00081934256013 -0.01382522005588
v -0.0000068331301 -0.00081889529247 -0.01382402330637
v -0.00000732985654 -0.00081935891649 -0.01382394693792
v -0.00000734652212 -0.00082123401808 -0.0138253076002
v -0.00174383190461 0.00357420183718 -0.01204261183739
v -0.00000814799569 -0.00081783696078 -0.01382306404412
v -0.00527592748404 0.00220243213698 -0.01024158578366
v -0.00527752749622 0.00220171269029 -0.0102411294356
v 0.00106890930329 0.00466659385711 -0.0134768364951
v 0.00107055809349 0.00466723414138 -0.01347767747939
v -0.0017378811026 0.00357651291415 -0.01204564608634
v 0.00000188730337 -0.0008164087194 -0.01382851600647
v 0.00000064262906 -0.00081472215243 -0.01382758934051
v 0.0000000629306 -0.00081484572729 -0.01382728572935
v -0.00000086168797 -0.00081698049325 -0.01382712833583
v -0.0017363934312 0.00357709103264 -0.01204640418291
v -0.00173490564339 0.00357766868547 -0.01204716321081
v 0.00106726004742 0.00466595357284 -0.01347599551082
v 0.00000020789382 -0.00081292685354 -0.01382703054696
# 133 vertices

vn 0.28745085000992 0.02556607685983 -0.95745414495468
vn 0.18681205809116 0.10366738587618 -0.97691059112549
vn 0.45100662112236 -0.09656228125095 -0.88728165626526
vn 0.24610921740532 -0.11487308889627 0.96241074800491
vn 0.24627175927162 -0.1150620803237 0.96234655380249
vn 0.24598912894726 -0.11476224660873 0.96245467662811
vn -0.64874720573425 0.51180297136307 -0.56319153308868
vn -0.55681270360947 0.48949185013771 -0.6710866689682
vn -0.40743374824524 0.43538874387741 -0.80276668071747
vn -0.78234761953354 0.5337250828743 -0.32104480266571
vn 0.24612279236317 -0.11490032821894 0.96240401268005
vn 0.23761038482189 -0.11061423271894 0.96504187583923
vn 0.22910740971565 -0.10634393244982 0.96757465600967
vn 0.24552860856056 -0.11431861668825 0.96262502670288
vn -0.34747689962387 0.41800507903099 -0.83936375379562
vn 0.04605597630143 0.1995470225811 -0.97880530357361
vn -0.01879572495818 0.25121891498566 -0.96774780750275
vn 0.37644255161285 -0.13185501098633 0.91700887680054
vn 0.38611498475075 -0.13350301980972 0.91273880004883
vn 0.40901577472687 -0.1373296380043 0.90213447809219
vn 0.4222167134285 -0.13951480388641 0.89569449424744
vn 0.01103560160846 0.02693735249341 -0.99957621097565
vn 0.05423896759748 -0.10475834459066 -0.99301755428314
vn 0.08308269828558 -0.20533826947212 -0.97515815496445
vn 0.1372599452734 -0.36132261157036 -0.9222828745842
vn 0.24608218669891 -0.11488755047321 0.96241593360901
vn -0.00443818513304 0.09688657522202 -0.99528551101685
vn -0.35454255342484 0.89271873235703 -0.27812376618385
vn -0.1412949860096 0.42593955993652 -0.89365047216415
vn -0.09703815728426 0.34453764557838 -0.9337437748909
vn -0.18414229154587 0.50303041934967 -0.84442406892776
vn 0.24630673229694 -0.11626091599464 0.96219354867935
vn -0.16907146573067 -0.2748381793499 -0.94650876522064
vn 0.19967605173588 0.90850275754929 -0.36708617210388
vn 0.24592670798302 -0.11357765644789 0.96261113882065
vn 0.06071228161454 -0.44079661369324 0.89555144309998
vn 0.16711816191673 -0.26382926106453 0.9499819278717
vn -0.19298805296421 -0.76660180091858 0.61243551969528
vn -0.32113644480705 -0.87059301137924 0.37274545431137
vn 0.03008218854666 0.40928411483765 -0.91191095113754
vn 0.01222142484039 0.31351378560066 -0.94950497150421
vn 0.05115161836147 0.44521310925484 -0.89396244287491
vn 0.29352012276649 0.86963683366776 -0.39696055650711
vn -0.00575787480921 0.21436306834221 -0.97673708200455
vn 0.24531838297844 -0.1095192283392 0.96323645114899
vn -0.51061183214188 -0.69986379146576 -0.49946594238281
vn -0.4965748488903 -0.83373546600342 -0.24145093560219
vn 0.55649393796921 0.28891688585281 0.77900034189224
vn -0.30123552680016 0 -0.95354974269867
vn -0.43384593725204 -0.33696186542511 -0.83560419082642
vn -0.30147397518158 0.00132063275669 -0.953473508358
vn -0.30217584967613 0.00539463851601 -0.95323693752289
vn -0.30098238587379 -0.00134814158082 -0.953628718853
vn 0.55610758066177 0.12556286156178 0.82157063484192
vn 0.55722916126251 0.24338887631893 0.79388761520386
vn 0.50178700685501 0.81994789838791 0.27549088001251
vn 0.55018788576126 0.35762712359428 0.75458341836929
vn 0.38114050030708 0.89033955335617 0.24905306100845
vn -0.36650434136391 -0.15180017054081 -0.91794949769974
vn 0.33143463730812 -0.48789745569229 0.80753153562546
vn 0.44037339091301 0.28192606568336 0.85240191221237
vn 0.3722003698349 0.3778612613678 0.84775453805923
vn 0.29883989691734 0.46855601668358 0.83135432004929
vn -0.15425710380077 0.87289476394653 0.46288165450096
vn 0.61817580461502 -0.51722913980484 0.59188908338547
vn 0.60822808742523 -0.24533937871456 0.75489550828934
vn 0.61609625816345 -0.35632774233818 0.70246416330338
vn 0.58032363653183 -0.09964053332806 0.80826741456985
vn 0.5658552646637 -0.0167132075876 0.82433515787125
vn -0.33689919114113 0.00506475940347 -0.9415271282196
vn -0.31776374578476 0.00234565301798 -0.94816702604294
vn -0.37966710329056 0.01122208405286 -0.9250550866127
vn -0.40312227606773 0.01464999374002 -0.91502887010574
vn 0.36381712555885 0.27903175354004 0.88869476318359
vn 0.07148163020611 0.37669694423676 0.92357444763184
vn 0.26035407185555 0.31004700064659 0.91437768936157
vn 0.60204118490219 0.11359440535307 0.79034346342087
vn 0.73829126358032 -0.00137404003181 0.67448061704636
vn 0.53827548027039 0.16994149982929 0.82545709609985
vn -0.30131831765175 0.00009520371532 -0.95352363586426
vn -0.30115273594856 -0.00009520371532 -0.95357590913773
vn 0.81555962562561 -0.09043960273266 0.57156199216843
vn 0.90776109695435 -0.23016850650311 0.3507025539875
vn -0.08200144767761 0.41299295425415 0.90703505277634
vn -0.31262788176537 0.46321693062782 0.82927310466766
vn -0.30082359910011 -0.00040618714411 -0.95367974042892
vn -0.47596392035484 0.02547751553357 -0.8790956735611
vn -0.45341736078262 0.02206837758422 -0.89102506637573
vn -0.51566421985626 0.03149817511439 -0.85621160268784
vn -0.54761129617691 0.03631522879004 -0.83594441413879
vn -0.54795378446579 0.03610848262906 -0.83572894334793
vn -0.54738402366638 0.03649115934968 -0.83608555793762
vn -0.54749196767807 0.03638953343034 -0.83601933717728
vn 0.62483149766922 0.277960896492 0.72960489988327
vn 0.7813201546669 0.31731802225113 0.5374459028244
vn 0.52791649103165 0.26407495141029 0.80719798803329
vn 0.35468226671219 0.19074006378651 0.91532438993454
vn 0.13399232923985 0.08852065354586 0.98702085018158
vn 0.28713357448578 0.15294760465622 0.94560104608536
vn 0.01764998957515 0.03397435322404 0.99926686286926
vn -0.18312488496304 -0.04780358821154 0.98192673921585
vn 0.87130916118622 0.32769665122032 0.36528784036636
vn -0.5329042673111 0.03413698077202 -0.84548664093018
vn 0.94106036424637 0.33415967226028 0.05237087979913
vn 0.51413786411285 0.37033259868622 0.77363812923431
vn 0.45311608910561 0.2806921005249 0.84610742330551
vn 0.56641232967377 0.45367422699928 0.68800926208496
vn 0.60422277450562 0.79590290784836 -0.03812404721975
vn 0.11470639705658 -0.28205755352974 0.95251560211182
vn 0.51948571205139 0.37133175134659 0.76957607269287
vn 0.55153226852417 0.81537353992462 0.17600597441196
vn -0.54854995012283 0.03573695197701 -0.83535367250442
vn -0.5464962720871 0.03704031929374 -0.8366419672966
vn -0.64862287044525 -0.30375728011131 -0.69786810874939
vn -0.60310679674149 -0.11618139594793 -0.78915405273438
vn -0.63745307922363 -0.67817777395248 -0.36568900942802
vn -0.55635589361191 -0.82139325141907 -0.12562358379364
vn -0.54339897632599 0.0390503667295 -0.83856582641602
vn 0.19860348105431 0.87377631664276 -0.44392743706703
vn -0.32589086890221 0.55723267793655 -0.76373219490051
vn -0.74543613195419 -0.01422082353383 -0.66642534732819
vn 0.34297916293144 0.82811236381531 -0.44339054822922
vn -0.43793445825577 0.45754951238632 -0.77386164665222
vn -0.35504931211472 0.52315098047256 -0.77476000785828
vn -0.51592320203781 0.38686954975128 -0.7643004655838
vn -0.03244414553046 -0.78708350658417 0.61599266529083
vn -0.22222578525543 -0.88156479597092 0.41648435592651
vn 0.29335841536522 -0.47329449653625 0.83062213659286
vn 0.49500185251236 -0.15122948586941 0.85563004016876
vn 0.49607914686203 -0.15059077739716 0.85511863231659
vn 0.49938416481018 -0.14863136410713 0.85353630781174
vn 0.4938936829567 -0.15187871456146 0.85615527629852
vn 0.49505069851875 -0.1511987298727 0.85560721158981
vn 0.41325601935387 -0.29912689328194 0.86008286476135
vn -0.65455150604248 0.28780028223991 -0.69909465312958
vn -0.74427837133408 0.23767586052418 -0.62414729595184
vn -0.60320454835892 0.31875902414322 -0.73112034797668
vn -0.80498200654984 0.19317126274109 -0.56097137928009
vn -0.88704144954681 0.12601782381535 -0.44415870308876
vn 0.61365538835526 0.36643782258034 -0.69939285516739
vn -0.18777720630169 0.4156785607338 -0.88991630077362
vn -0.10563759505749 0.41788467764854 -0.90233755111694
vn -0.26859757304192 0.41063636541367 -0.87133985757828
vn 0.494977414608 -0.15124486386776 0.85564148426056
vn 0.49502629041672 -0.15121410787106 0.85561865568161
vn 0.48355028033257 -0.14941604435444 0.86246967315674
vn 0.49104228615761 -0.15059743821621 0.85801976919174
vn 0.4638606607914 -0.14628250896931 0.87374752759933
vn 0.45158377289772 -0.14431445300579 0.88048022985458
vn 0.49512395262718 -0.15115256607533 0.85557299852371
# 150 normals

vt 0.49995157122612 0.00212597846985 0
vt 0.5 0 0
vt 0.5 0.00239622592926 0
vt 0.49946200847626 0.00165581703186 0
vt 0.2547627389431 0.75476276874542 0
vt 0.25495859980583 0.75495862960815 0
vt 0.49977412819862 0.00184786319733 0
vt 0.25515449047089 0.75515449047089 0
vt 0.50004839897156 0.00212597846985 0
vt 0.50022584199905 0.00184786319733 0
vt 0.25535038113594 0.75535035133362 0
vt 0.5 1 0
vt 0.74464964866638 0.75535035133362 0
vt 0.50053799152374 0.00165581703186 0
vt 0.74484550952911 0.75515449047089 0
vt 0.74504137039185 0.75495862960815 0
vt 0.74523729085922 0.75476276874542 0
vt 0.72123175859451 0.68088132143021 0
vt 0.7209849357605 0.68092042207718 0
vt 0.72073811292648 0.68095946311951 0
vt 0.72049129009247 0.68099856376648 0
vt 0.2555835545063 0.75463271141052 0
vt 0.25530993938446 0.75467610359192 0
vt 0.25503632426262 0.75471937656403 0
vt 0.72100907564163 0.68099474906921 0
vt 0.19191606342793 0.95058107376099 0
vt 0.72056376934052 0.68122166395187 0
vt 0.72078639268875 0.68110823631287 0
vt 0.19167397916317 0.95066893100739 0
vt 0.19139903783798 0.95069444179535 0
vt 0.19111704826355 0.95064401626587 0
vt 0.74496364593506 0.75471937656403 0
vt 0.74469006061554 0.75467610359192 0
vt 0.27926191687584 0.68095946311951 0
vt 0.27950873970985 0.68099856376648 0
vt 0.27901509404182 0.68092042207718 0
vt 0.27876827120781 0.68088132143021 0
vt 0.74441647529602 0.75463271141052 0
vt 0.27899092435837 0.68099474906921 0
vt 0.27921357750893 0.68110823631287 0
vt 0.80832600593567 0.95066893100739 0
vt 0.80808395147324 0.95058107376099 0
vt 0.27943626046181 0.68122166395187 0
vt 0.80860096216202 0.95069444179535 0
vt 0.80888295173645 0.95064401626587 0
# 45 texture coordinates

o Decagon_web
usemtl Mat
f 7/1/1 15/2/2 17/3/3
f 3/4/4 2/5/4 11/6/5 6/7/5
f 6/7/5 11/6/5 14/8/6 7/1/6
f 8/9/7 15/2/8 4/10/9
f 17/3/10 15/2/8 8/9/7
f 13/11/11 1/12/12 17/3/12
f 1/12/12 16/13/13 17/3/12
f 7/1/6 14/8/6 13/11/14 17/3/14
f 4/10/9 15/2/8 5/14/15
f 6/7/16 15/2/2 7/1/1
f 3/4/17 15/2/2 6/7/16
f 17/3/18 16/13/18 12/15/19 8/9/19
f 8/9/19 12/15/19 10/16/20 4/10/20
f 4/10/20 10/16/20 9/17/21 5/14/21
f 26/10/22 15/2/23 21/9/24
f 20/14/11 27/18/11 29/19/11 26/10/11
f 26/10/11 29/19/11 18/20/11 21/9/11
f 21/9/11 18/20/11 25/21/11 23/3/11
f 25/21/11 22/22/11 23/3/11
f 21/9/24 15/2/23 23/3/25
f 23/3/26 22/22/26 28/23/11 24/1/11
f 20/14/27 15/2/23 26/10/22
f 24/1/11 28/23/11 30/24/11 19/7/11
f 19/7/11 30/24/11 2/5/11 3/4/11
f 23/3/28 15/2/28 24/1/28
f 19/7/29 15/2/29 3/4/30
f 24/1/31 15/2/29 19/7/29
f 33/10/32 41/25/32 27/18/11 20/14/11
f 36/1/33 15/2/33 42/3/33
f 42/3/34 15/2/34 35/9/34
f 43/26/11 39/27/11 42/3/11
f 35/9/35 32/28/35 41/25/32 33/10/32
f 36/1/36 38/29/36 43/26/37 42/3/37
f 40/7/38 31/30/38 38/29/36 36/1/36
f 34/4/39 37/31/39 31/30/38 40/7/38
f 35/9/40 15/2/41 33/10/41
f 40/7/42 15/2/42 36/1/42
f 34/4/43 15/2/43 40/7/43
f 33/10/41 15/2/41 20/14/44
f 42/3/45 39/27/45 32/28/35 35/9/35
f 47/7/46 51/30/46 37/31/47 34/4/47
f 46/1/48 15/2/48 47/7/48
f 54/27/49 52/26/49 53/3/49
f 46/1/50 49/29/50 51/30/46 47/7/46
f 45/9/51 56/28/51 54/27/52 53/3/52
f 44/10/53 55/25/53 56/28/51 45/9/51
f 48/14/49 50/18/49 55/25/53 44/10/53
f 48/14/54 15/2/55 44/10/55
f 47/7/56 15/2/56 34/4/56
f 44/10/55 15/2/55 45/9/57
f 45/9/58 15/2/58 53/3/58
f 53/3/59 52/26/59 49/29/50 46/1/50
f 53/3/60 15/2/60 46/1/60
f 65/4/61 15/2/62 64/7/62
f 69/22/49 67/21/49 68/3/49
f 64/7/62 15/2/62 60/1/63
f 60/1/64 15/2/64 68/3/64
f 68/3/65 15/2/66 59/9/67
f 58/10/49 57/19/49 50/18/49 48/14/49
f 59/9/49 66/20/49 57/19/49 58/10/49
f 60/1/49 61/23/49 69/22/49 68/3/49
f 58/10/68 15/2/66 48/14/69
f 64/7/49 62/24/49 61/23/49 60/1/49
f 65/4/49 63/5/49 62/24/49 64/7/49
f 59/9/67 15/2/66 58/10/68
f 68/3/49 67/21/49 66/20/49 59/9/49
f 80/9/70 76/15/70 74/13/71 72/3/71
f 79/10/72 75/16/72 76/15/70 80/9/70
f 77/14/73 70/17/73 75/16/72 79/10/72
f 77/14/74 15/2/75 79/10/76
f 81/7/77 15/2/78 65/4/79
f 81/7/80 78/6/80 63/5/49 65/4/49
f 82/1/81 83/8/81 78/6/80 81/7/80
f 82/1/82 15/2/78 81/7/77
f 72/3/83 15/2/78 82/1/82
f 79/10/76 15/2/75 80/9/84
f 80/9/84 15/2/75 72/3/85
f 74/13/49 71/12/49 72/3/49
f 71/12/49 73/11/49 72/3/49
f 72/3/86 73/11/86 83/8/81 82/1/81
f 94/10/87 84/32/87 70/17/88 77/14/88
f 92/9/89 96/33/89 84/32/87 94/10/87
f 91/1/90 93/34/90 88/35/91 89/3/91
f 87/7/92 95/36/92 93/34/90 91/1/90
f 86/4/93 85/37/93 95/36/92 87/7/92
f 94/10/94 15/2/95 77/14/96
f 86/4/97 15/2/98 87/7/99
f 87/7/99 15/2/98 91/1/100
f 91/1/100 15/2/98 89/3/101
f 92/9/102 15/2/95 94/10/94
f 88/35/93 90/38/93 89/3/93
f 89/3/103 90/38/103 96/33/89 92/9/89
f 89/3/104 15/2/95 92/9/102
f 108/7/105 15/2/105 86/4/106
f 107/1/107 15/2/105 108/7/105
f 105/3/108 15/2/108 107/1/108
f 103/9/109 15/2/109 105/3/109
f 102/10/110 15/2/110 103/9/110
f 101/14/111 15/2/111 102/10/111
f 108/7/112 100/39/112 85/37/93 86/4/93
f 107/1/113 109/40/113 100/39/112 108/7/112
f 103/9/114 97/41/114 104/42/115 105/3/115
f 104/42/93 106/43/93 105/3/93
f 102/10/116 98/44/116 97/41/114 103/9/114
f 101/14/117 99/45/117 98/44/116 102/10/116
f 105/3/118 106/43/118 109/40/113 107/1/113
f 118/10/119 15/2/119 101/14/119
f 117/9/120 15/2/120 118/10/120
f 120/3/121 15/2/121 117/9/121
f 116/1/122 15/2/122 120/3/122
f 115/7/123 15/2/123 116/1/124
f 114/4/125 15/2/123 115/7/123
f 118/10/126 113/44/126 99/45/127 101/14/127
f 117/9/128 122/41/128 113/44/126 118/10/126
f 119/43/129 121/42/129 120/3/129
f 116/1/130 110/40/130 119/43/131 120/3/131
f 115/7/132 111/39/132 110/40/130 116/1/130
f 114/4/133 112/37/133 111/39/132 115/7/132
f 120/3/134 121/42/134 122/41/128 117/9/128
f 129/7/135 15/2/136 114/4/137
f 128/1/138 15/2/136 129/7/135
f 133/3/139 15/2/136 128/1/138
f 127/9/140 15/2/140 133/3/140
f 126/10/141 15/2/141 127/9/142
f 5/14/143 15/2/141 126/10/141
f 129/7/144 125/36/144 112/37/129 114/4/129
f 132/38/129 131/35/129 133/3/129
f 128/1/145 130/34/145 125/36/144 129/7/144
f 127/9/146 123/33/146 132/38/147 133/3/147
f 126/10/148 124/32/148 123/33/146 127/9/146
f 5/14/149 9/17/149 124/32/148 126/10/148
f 133/3/150 131/35/150 130/34/145 128/1/145

