# WaveFront *.obj file (generated by CINEMA 4D)

mtllib ./DecagonShape_85.mtl

v 0.00003770534022 0.01596219837666 -0.00001326324673
v 0.00055162562057 0.0140739614144 0.00149791326839
v 0.0000264471073 0.00828708615154 0.00000491285664
v 0.00003631653817 0.00829249341041 -0.00001405489093
v 0.00003395546082 0.00829155836254 -0.00001387824705
v 0.00003596826718 0.00828923843801 -0.00000243314071
v 0.00003824941814 0.00829332321882 -0.00000980144887
v 0.0000377468823 0.00829417258501 -0.00001259957662
v -0.00049122300697 0.0140784336254 -0.00150687852874
v -0.00048960524146 0.01407950278372 -0.00150730228052
v 0.00055891909869 0.01407562941313 0.00149355677422
v -0.00048818558571 0.01408083178103 -0.00150694313925
v 0.00056277727708 0.01408231072128 0.0014794341987
v 0.00056299270364 0.01407859567553 0.00148676976096
v 0.00003207667032 0.00827676337212 -0.00000520009189
v -0.00048736657482 0.01408231072128 -0.00150596071035
v 0.00003770534022 0.00829660985619 -0.00001326324673
v -0.0004696669057 0.01350959762931 -0.00135124288499
v 0.00001442370831 0.00828923843801 0.00000514538306
v -0.00000567431925 0.0082893203944 -0.00000608588198
v 0.0000065028662 0.00829413626343 -0.00000175742946
v 0.00053086038679 0.01407679636031 0.00148906244431
v 0.0000062889294 0.00829660985619 -0.0000022121967
v 0.00000802259456 0.00829332321882 0.00000083273784
v -0.00046693382319 0.01351099088788 -0.00134751049336
v 0.0000015233486 0.00829086452723 -0.00000629049782
v -0.00047933164751 0.01350849028677 -0.001352619729
v 0.00053545169067 0.014074918814 0.00149539182894
v -0.00047420230112 0.01350865419954 -0.00135310576297
v 0.00054304412333 0.01407379191369 0.00149860815145
v 0.00065097241895 0.01558349654078 0.00188643706497
v -0.000486109755 0.01351074036211 -0.00134579022415
v -0.00001141500525 0.00829086452723 -0.00000173929664
v -0.0000088279794 0.00829155836254 0.00000503939373
v -0.00001283632446 0.00829392950982 0.00000252735413
v -0.00001248282297 0.00829435605556 0.00000421682353
v 0.00065294810338 0.01558358594775 0.00188636535313
v 0.00064943224424 0.01558315288275 0.00188549770974
v -0.00048595617409 0.01351270545274 -0.00134131626692
v -0.00001118905766 0.00829249341041 0.00000521603715
v -0.0004836875305 0.0135092260316 -0.00134993484244
v -0.0000125778588 0.00829660985619 0.00000442439341
v 0.00064863805892 0.01558246370405 0.0018841578858
v -0.00000570158545 0.00829249341041 0.00000072542292
v -0.00000628189855 0.00829453580081 0.00000188546971
v -0.00000629820352 0.00829453300685 0.00000252763039
v -0.00000687627335 0.00829249341041 0.00000369897043
v -0.0000037498794 0.00829155836254 -0.0000006150006
v 0.00065514643211 0.01558315288275 0.00188348768279
v -0.00047740721493 0.01351072918624 -0.00134714879096
v 0.00065453362186 0.01558349654078 0.00188518443611
v 0.00065492698923 0.01558246370405 0.00188194564544
v -0.0000062889294 0.00829660985619 0.0000022121967
v -0.00047966724378 0.01351270545274 -0.00134352839086
v -0.0004788764636 0.0135111650452 -0.00134630291723
v -0.00047970114974 0.01351185981184 -0.00134497054387
v -0.00047568013542 0.01351059321314 -0.0013472615974
v -0.00000138880091 0.00829249341041 -0.00000079164414
v 0.00000042357146 0.00829400029033 0.00000098224223
v 0.00000249203481 0.00829271506518 0.00000444674288
v 0.00053096754709 0.01407379936427 0.00150004308671
v 0.00054156623082 0.01407185290009 0.00150445208419
v 0.00055355002405 0.01407172251493 0.00150338409003
v 0.00001151155902 0.00828760955483 0.00001064423668
v 0.00002837154716 0.00828484725207 0.00001038373739
v -0.00047415107838 0.01351071707904 -0.00134659151081
v -0.0004732227535 0.01351099088788 -0.001345298253
v 0 0.00829660985619 0
v 0.00052457145648 0.01407679636031 0.00149127468467
v -0.00049314746866 0.01407619472593 -0.00151234946679
v 0.00004399426689 0.01596219837666 -0.00001547544343
v 0.00004399426689 0.00829660985619 -0.00001547544343
v 0.00056906620739 0.01408231072128 0.00147722195834
v -0.00048107764451 0.01408231072128 -0.00150817283429
v -0.00048812746536 0.01407756377012 -0.00151314632967
v -0.00048370138393 0.0140797123313 -0.0015115942806
v 0.00003203102096 0.0082893203944 -0.00001934912871
v 0.0005637301947 0.01407369133085 0.00149718869943
v 0.00003922868564 0.00829086452723 -0.00001955374319
v 0.00004301726949 0.0082939285785 -0.00001712171616
v 0.0000416816838 0.00828760955483 0.00000003157976
v 0.00004452050052 0.00829337816685 -0.00001313317625
v 0.00056940130889 0.01407747622579 0.00148758944124
v -0.00049739400856 0.01407572627068 -0.00150935375132
v 0.00049625558313 0.01351073384285 0.00134050485212
v 0.00002259822759 0.00829156395048 -0.00000602890441
v 0.0000245414285 0.0082924971357 -0.00000736257925
v 0.00049835024402 0.01351099088788 0.00133645941969
v 0.00002512748142 0.00829660985619 -0.00000883885423
v -0.00049944396596 0.01407679636031 -0.00150011351798
v 0.0000250748235 0.00829435512424 -0.00000897566497
v 0.00002485866207 0.0082939285785 -0.00001073423664
v 0.00049843569286 0.01351071894169 0.00133804220241
v 0.00002629033406 0.00829086452723 -0.00001500254348
v 0.00049766647862 0.01351059786975 0.00133951578755
v -0.00049970683176 0.01407603640109 -0.00150489830412
v -0.00064314331394 0.01558315288275 -0.00188770983368
v -0.00064468348864 0.01558349654078 -0.00188864930533
v -0.00064665917307 0.01558358594775 -0.00188857759349
v 0.00049458799185 0.01351116877049 0.00134076434188
v 0.00001511690789 0.00829155836254 -0.00000725158998
v 0.00001747798524 0.00829249341041 -0.0000074282334
v 0.00001866167258 0.00829453393817 -0.00000687774445
v -0.00064234912861 0.01558246370405 -0.00188637012616
v 0.00001886678729 0.00829660985619 -0.00000663658921
v 0.0004922451335 0.01351270545274 0.00133910402656
v 0.00001907511432 0.00829453673214 -0.00000638936353
v 0.00002024800779 0.0082924971357 -0.00000585232374
v 0.00049311749171 0.01351186260581 0.00134024431463
v 0.00048863334814 0.01351074315608 0.0013448955724
v 0.00049311015755 0.01350922975689 0.00134660839103
v 0.00049817998661 0.01350849494338 0.00134597579017
v -0.00064824469155 0.01558349654078 -0.00188739667647
v 0.00002452266745 0.00828932505101 -0.00000055802303
v 0.00001733585668 0.00829086825252 -0.00000035346957
v 0.00001356226039 0.00829393137246 -0.00000278645643
v 0.00001278151103 0.00829435698688 -0.00000432302431
v 0.00001316520047 0.00829249341041 -0.00000591116623
v 0.00048595617409 0.01351270545274 0.00134131626692
v 0.00001257785789 0.00829660985619 -0.00000442439296
v -0.00064863805892 0.01558246370405 -0.0018841578858
v -0.0006488575018 0.01558315288275 -0.00188569980673
v -0.00049329828471 0.01407715585083 -0.00150407862384
v -0.00049258297076 0.01407766528428 -0.00150572194252
v 0.00050247757463 0.01350865885615 0.00134314759634
v 0.00003200375431 0.00829249341041 -0.00001253782375
v 0.0000315622674 0.0082943495363 -0.00001091038484
v 0.00003169499541 0.00829392950982 -0.00000915956571
v 0.00003025484693 0.00829086825252 -0.00000489785907
v 0.00050484429812 0.01350960042328 0.00133886188269
v 0.00050463917432 0.01351099088788 0.00133424729574
v -0.00049315503566 0.01407679636031 -0.00150232564192
v 0.00003141640991 0.00829660985619 -0.00001105105093
# 133 vertices

vn 0.86535388231277 -0.45042675733566 -0.21972352266312
vn 0.865638256073 -0.49625000357628 0.06638064980507
vn 0.73887395858765 -0.48496970534325 -0.46783512830734
vn -0.60743987560272 0.33942157030106 -0.7181990146637
vn -0.81521570682526 0.28753101825714 -0.50274175405502
vn -0.98885715007782 0.14240585267544 -0.04338350892067
vn 0.81553184986114 -0.47903379797935 -0.32470664381981
vn 0.39627683162689 0.33902877569199 0.85324335098267
vn -0.943339407444 0 0.33182948827744
vn -0.98451888561249 0.06707395613194 0.16193702816963
vn 0.18724817037582 -0.62794482707977 -0.75539618730545
vn 0.82642942667007 -0.44006299972534 0.35122498869896
vn 0.63259887695312 -0.45492851734161 0.62678444385529
vn -0.43189010024071 0.25940990447998 0.86381560564041
vn -0.54878962039948 0.22319407761097 0.80561429262161
vn -0.36767068505287 0.27629491686821 0.88796359300613
vn -0.02402579598129 0.33934849500656 0.94035387039185
vn -0.32726502418518 -0.6858976483345 0.64995545148849
vn 0.02400512620807 -0.33939334750175 -0.94033819437027
vn 0.34975999593735 -0.28070056438446 -0.89379817247391
vn 0.82068866491318 -0.09976470470428 -0.56259858608246
vn 0.9446212053299 0.00149422138929 -0.32815936207771
vn 0.943339407444 0 -0.33182948827744
vn 0.24334156513214 0.2717350423336 0.93109875917435
vn 0.86958789825439 0.06666377186775 -0.48925745487213
vn 0.74411296844482 0.14230048656464 -0.65272235870361
vn -0.0500741712749 0.12979482114315 0.99027568101883
vn 0.32065176963806 0.28764206171036 -0.90246576070786
vn 0.02400424145162 0.33948931097984 -0.94030356407166
vn -0.52943682670593 -0.78793442249298 -0.31441378593445
vn -0.51909166574478 -0.84530073404312 -0.12653271853924
vn -0.14253331720829 -0.81814259290695 0.55706995725632
vn -0.49003374576569 -0.86965346336365 0.05974754691124
vn -0.81530797481537 -0.28749495744705 -0.50261276960373
vn -0.60741525888443 -0.33942532539368 -0.71821802854538
vn 0.14367401599884 -0.1161135584116 0.98278963565826
vn 0.12036285549402 0.68752259016037 -0.71611833572388
vn 0.21724414825439 0.90168672800064 -0.37385299801826
vn 0.17754639685154 0.80248039960861 -0.56965118646622
vn -0.98883837461472 -0.14247646927834 -0.04357923939824
vn -0.75382965803146 -0.1374172270298 0.64253979921341
vn -0.83587539196014 -0.09010723978281 0.54147303104401
vn -0.37813833355904 -0.27360317111015 0.88439399003983
vn -0.0445141941309 -0.33677819371223 0.94053119421005
vn 0.25063174962997 0.94991183280945 -0.1866849064827
vn 0.34260275959969 0.87581127882004 0.33996760845184
vn 0.35249069333076 0.7515914440155 0.55754870176315
vn 0.31382468342781 0.94228279590607 0.11669280380011
vn 0.26175704598427 0.96417379379272 0.04303596541286
vn -0.98461711406708 -0.06731349974871 0.1612391024828
vn 0.83220118284225 -0.28070488572121 0.47816941142082
vn 0.62353605031967 -0.33677819371223 0.70553755760193
vn -0.29520833492279 -0.36506688594818 -0.88293725252151
vn -0.3139716386795 -0.43343025445938 -0.8447248339653
vn -0.34041991829872 -0.53470414876938 -0.77343761920929
vn 0.99128431081772 -0.13121850788593 0.01170858275145
vn 0.98899412155151 0.14191082119942 0.04185591638088
vn 0.9836739897728 0.06484925746918 -0.16786924004555
vn 0.81422626972198 0.28788673877716 0.50413966178894
vn 0.6074486374855 0.33934852480888 0.71822613477707
vn -0.31694185733795 -0.94346165657043 0.09709747135639
vn -0.34432154893875 -0.55675601959229 -0.75595331192017
vn -0.12514197826385 -0.62727952003479 0.76867407560349
vn -0.03284288197756 -0.44060415029526 0.89710050821304
vn 0.06746064126492 -0.21307629346848 0.97470384836197
vn 0.98050433397293 -0.05712486803532 -0.18801064789295
vn -0.242870002985 -0.20087742805481 -0.94903236627579
vn 0.14076137542725 0.93290913105011 -0.33146160840988
vn 0.35537448525429 0.93437856435776 -0.02540936134756
vn 0.2839363515377 0.94337111711502 -0.17155478894711
vn 0.44602701067924 0.88518291711807 0.13232970237732
vn 0.46979403495789 0.84058213233948 0.26965764164925
vn -0.35968589782715 -0.50029295682907 -0.78761219978333
vn -0.35944819450378 0.27834120392799 0.89068692922592
vn -0.02399438619614 0.33938425779343 0.94034177064896
vn -0.6410014629364 0.1888555586338 0.7439426779747
vn -0.74413049221039 -0.14230200648308 0.65270203351974
vn -0.86960172653198 -0.0666640996933 0.48923283815384
vn -0.05607007443905 0.09079586714506 -0.99428981542587
vn -0.32067209482193 -0.2876158952713 0.90246689319611
vn -0.02400453574955 -0.3394573032856 0.94031512737274
vn 0.23091046512127 0.73709112405777 -0.63511973619461
vn 0.52963662147522 0.34966212511063 0.77280104160309
vn 0.74412685632706 -0.14233566820621 -0.65269881486893
vn 0.8695997595787 -0.06669799238443 -0.48923170566559
vn 0.32068285346031 -0.28757119178772 -0.90247732400894
vn 0.02399438619614 -0.33938425779343 -0.94034177064896
vn -0.16199724376202 0.82701641321182 0.53833138942719
vn -0.60911828279495 0.75112593173981 0.25452840328217
vn -0.42839929461479 0.80219197273254 0.41588714718819
vn -0.6173443198204 0.77593404054642 -0.12966245412827
vn -0.47270116209984 0.79692357778549 -0.37612023949623
vn 0.82448363304138 -0.28401651978493 0.48945000767708
vn 0.60739904642105 -0.33953034877777 0.71818214654922
vn 0.99102354049683 -0.1327243745327 0.01601711288095
vn -0.71043533086777 0.69274067878723 0.12406439334154
vn -0.25915145874023 0.65598809719086 0.70888656377792
vn -0.77382761240006 0.62845987081528 0.07892394065857
vn -0.85260277986526 0.5105208158493 -0.11152118444443
vn 0.98075515031815 -0.05743405967951 -0.18660305440426
vn -0.81503945589066 -0.28760948777199 -0.50298261642456
vn -0.98887890577316 -0.14233414828777 -0.04312239959836
vn -0.99175608158112 0.12810584902763 -0.00296147470362
vn -0.9748078584671 0.04532192647457 0.21839311718941
vn -0.82230579853058 0.28473567962646 -0.49268528819084
vn -0.6074486374855 0.33934852480888 -0.71822613477707
vn 0.75174593925476 0.62339019775391 0.21508763730526
vn 0.84619438648224 0.53286617994308 -0.00295009696856
vn 0.53706628084183 0.72350192070007 0.43371051549912
vn 0.42640256881714 0.42969426512718 0.79595458507538
vn 0.54018938541412 0.47391551733017 0.69541323184967
vn 0.63820588588715 0.50566464662552 0.58051401376724
vn -0.6143513917923 -0.04753892496228 0.78759914636612
vn 0.90104365348816 0.36998769640923 -0.22633928060532
vn -0.98438596725464 -0.06669766455889 0.16289764642715
vn 0.87005257606506 0.26238033175468 -0.41733092069626
vn 0.08896519243717 0.19013004004955 0.97771966457367
vn -0.64322930574417 -0.63329815864563 -0.43033644556999
vn -0.03519011288881 -0.17439329624176 -0.98404705524445
vn -0.32982739806175 -0.12928546965122 0.93514657020569
vn -0.24069562554359 -0.01838910579681 0.97042644023895
vn -0.31819114089012 -0.1175576671958 0.94070959091187
vn -0.19903600215912 0.03300999850035 0.97943603992462
vn -0.04312020167708 0.2085325717926 0.97706437110901
vn 0.31927201151848 0.28789237141609 -0.90287506580353
vn 0.02399438619614 0.33938425779343 -0.94034177064896
vn 0.74499213695526 0.14191082119942 -0.65180367231369
vn 0.76563477516174 -0.13121722638607 -0.62975031137466
vn 0.88230937719345 -0.05709144100547 -0.4671944975853
vn 0.34953066706657 -0.28070455789566 -0.89388662576675
vn 0.0445141941309 -0.33677819371223 -0.94053119421005
vn 0.87214320898056 0.06484925746918 -0.48493385314941
vn 0.52985244989395 0.80841237306595 0.25637048482895
vn 0.52405893802643 0.68635696172714 -0.5042582154274
vn -0.0485642850399 -0.07403180003166 -0.99607270956039
vn 0.61299604177475 0.7710035443306 0.17259608209133
vn 0.56917858123779 0.68066149950027 0.46123278141022
vn 0.60167878866196 0.79022186994553 -0.11632745712996
vn 0.10983648151159 0.48377332091331 -0.86827373504639
vn -0.84850215911865 -0.273641705513 -0.45295062661171
vn -0.62353605031967 -0.33677819371223 -0.70553755760193
vn -0.99009454250336 -0.13738118112087 -0.02896901033819
vn -0.74381750822067 -0.14247384667397 0.65302121639252
vn -0.8687396645546 -0.06734772771597 0.49066862463951
vn -0.32112047076225 -0.28748926520348 0.90234780311584
vn -0.02400512620807 -0.33939334750175 0.94033819437027
vn -0.99076575040817 -0.08997090905905 0.10143207758665
vn -0.82427132129669 -0.1158529818058 -0.55421555042267
vn -0.97336637973785 -0.08299475908279 -0.21370477974415
vn -0.63359904289246 -0.08206152915955 -0.76929718255997
vn -0.99679124355316 -0.06024680286646 -0.05270194262266
vn -0.99718469381332 -0.03368035331368 0.06699529290199
vn -0.99206840991974 -0.09530133754015 -0.08196273446083
vn -0.98976796865463 -0.10282753407955 -0.09892335534096
vn -0.65263915061951 -0.42941093444824 -0.62423425912857
vn 0.81475591659546 -0.28772959113121 0.50337308645248
vn 0.60741525888443 -0.33942532539368 0.71821802854538
vn 0.98891621828079 -0.14219291508198 0.04273095726967
vn 0.98954772949219 0.13973185420036 0.03564109280705
vn 0.9876281619072 0.07666955888271 -0.13679344952106
vn 0.82831335067749 0.28233009576797 0.4839283823967
vn 0.60739940404892 0.33935606479645 0.71826416254044
vn 0.98415863513947 -0.06604745239019 -0.16452805697918
# 163 normals

vt 0.49995157122612 0.00212597846985 0
vt 0.5 0 0
vt 0.5 0.00239622592926 0
vt 0.49946200847626 0.00165581703186 0
vt 0.2547627389431 0.75476276874542 0
vt 0.25495859980583 0.75495862960815 0
vt 0.49977412819862 0.00184786319733 0
vt 0.25515449047089 0.75515449047089 0
vt 0.50004839897156 0.00212597846985 0
vt 0.50022584199905 0.00184786319733 0
vt 0.25535038113594 0.75535035133362 0
vt 0.5 1 0
vt 0.74464964866638 0.75535035133362 0
vt 0.50053799152374 0.00165581703186 0
vt 0.74484550952911 0.75515449047089 0
vt 0.74504137039185 0.75495862960815 0
vt 0.74523729085922 0.75476276874542 0
vt 0.72123175859451 0.68088132143021 0
vt 0.7209849357605 0.68092042207718 0
vt 0.72073811292648 0.68095946311951 0
vt 0.72049129009247 0.68099856376648 0
vt 0.2555835545063 0.75463271141052 0
vt 0.25530993938446 0.75467610359192 0
vt 0.25503632426262 0.75471937656403 0
vt 0.72100907564163 0.68099474906921 0
vt 0.19191606342793 0.95058107376099 0
vt 0.72056376934052 0.68122166395187 0
vt 0.72078639268875 0.68110823631287 0
vt 0.19167397916317 0.95066893100739 0
vt 0.19139903783798 0.95069444179535 0
vt 0.19111704826355 0.95064401626587 0
vt 0.74496364593506 0.75471937656403 0
vt 0.74469006061554 0.75467610359192 0
vt 0.27926191687584 0.68095946311951 0
vt 0.27950873970985 0.68099856376648 0
vt 0.27901509404182 0.68092042207718 0
vt 0.27876827120781 0.68088132143021 0
vt 0.74441647529602 0.75463271141052 0
vt 0.27899092435837 0.68099474906921 0
vt 0.27921357750893 0.68110823631287 0
vt 0.80832600593567 0.95066893100739 0
vt 0.80808395147324 0.95058107376099 0
vt 0.27943626046181 0.68122166395187 0
vt 0.80860096216202 0.95069444179535 0
vt 0.80888295173645 0.95064401626587 0
# 45 texture coordinates

o Decagon_web
usemtl Mat
f 7/1/1 15/2/2 17/3/3
f 3/4/4 2/5/4 11/6/5 6/7/5
f 6/7/5 11/6/5 14/8/6 7/1/6
f 8/9/7 15/2/7 4/10/7
f 17/3/8 15/2/8 8/9/8
f 13/11/9 1/12/9 17/3/9
f 1/12/9 16/13/9 17/3/9
f 7/1/6 14/8/6 13/11/10 17/3/10
f 4/10/11 15/2/11 5/14/11
f 6/7/12 15/2/2 7/1/1
f 3/4/13 15/2/2 6/7/12
f 17/3/14 16/13/14 12/15/15 8/9/15
f 8/9/15 12/15/15 10/16/16 4/10/16
f 4/10/16 10/16/16 9/17/17 5/14/17
f 26/10/18 15/2/18 21/9/18
f 20/14/19 27/18/19 29/19/20 26/10/20
f 26/10/20 29/19/20 18/20/21 21/9/21
f 21/9/21 18/20/21 25/21/22 23/3/22
f 25/21/23 22/22/23 23/3/23
f 21/9/24 15/2/24 23/3/24
f 23/3/25 22/22/25 28/23/26 24/1/26
f 20/14/27 15/2/27 26/10/27
f 24/1/26 28/23/26 30/24/28 19/7/28
f 19/7/28 30/24/28 2/5/29 3/4/29
f 23/3/30 15/2/31 24/1/31
f 19/7/32 15/2/32 3/4/32
f 24/1/31 15/2/31 19/7/33
f 33/10/34 41/25/34 27/18/35 20/14/35
f 36/1/36 15/2/36 42/3/36
f 42/3/37 15/2/38 35/9/39
f 43/26/9 39/27/9 42/3/9
f 35/9/40 32/28/40 41/25/34 33/10/34
f 36/1/41 38/29/41 43/26/42 42/3/42
f 40/7/43 31/30/43 38/29/41 36/1/41
f 34/4/44 37/31/44 31/30/43 40/7/43
f 35/9/39 15/2/38 33/10/45
f 40/7/46 15/2/46 36/1/47
f 34/4/48 15/2/46 40/7/46
f 33/10/45 15/2/38 20/14/49
f 42/3/50 39/27/50 32/28/40 35/9/40
f 47/7/51 51/30/51 37/31/52 34/4/52
f 46/1/53 15/2/54 47/7/55
f 54/27/23 52/26/23 53/3/23
f 46/1/56 49/29/56 51/30/51 47/7/51
f 45/9/57 56/28/57 54/27/58 53/3/58
f 44/10/59 55/25/59 56/28/57 45/9/57
f 48/14/60 50/18/60 55/25/59 44/10/59
f 48/14/61 15/2/61 44/10/61
f 47/7/55 15/2/54 34/4/62
f 44/10/63 15/2/64 45/9/64
f 45/9/64 15/2/64 53/3/65
f 53/3/66 52/26/66 49/29/56 46/1/56
f 53/3/67 15/2/54 46/1/53
f 65/4/68 15/2/69 64/7/70
f 69/22/9 67/21/9 68/3/9
f 64/7/70 15/2/69 60/1/71
f 60/1/71 15/2/69 68/3/72
f 68/3/73 15/2/73 59/9/73
f 58/10/74 57/19/74 50/18/75 48/14/75
f 59/9/76 66/20/76 57/19/74 58/10/74
f 60/1/77 61/23/77 69/22/78 68/3/78
f 58/10/79 15/2/79 48/14/79
f 64/7/80 62/24/80 61/23/77 60/1/77
f 65/4/81 63/5/81 62/24/80 64/7/80
f 59/9/82 15/2/82 58/10/82
f 68/3/83 67/21/83 66/20/83 59/9/83
f 80/9/84 76/15/84 74/13/85 72/3/85
f 79/10/86 75/16/86 76/15/84 80/9/84
f 77/14/87 70/17/87 75/16/86 79/10/86
f 77/14/88 15/2/89 79/10/90
f 81/7/91 15/2/91 65/4/92
f 81/7/93 78/6/93 63/5/94 65/4/94
f 82/1/95 83/8/95 78/6/93 81/7/93
f 82/1/96 15/2/91 81/7/91
f 72/3/97 15/2/97 82/1/97
f 79/10/90 15/2/89 80/9/98
f 80/9/98 15/2/89 72/3/99
f 74/13/23 71/12/23 72/3/23
f 71/12/23 73/11/23 72/3/23
f 72/3/100 73/11/100 83/8/95 82/1/95
f 94/10/101 84/32/101 70/17/35 77/14/35
f 92/9/102 96/33/102 84/32/101 94/10/101
f 91/1/103 93/34/103 88/35/104 89/3/104
f 87/7/105 95/36/105 93/34/103 91/1/103
f 86/4/106 85/37/106 95/36/105 87/7/105
f 94/10/107 15/2/108 77/14/109
f 86/4/110 15/2/111 87/7/111
f 87/7/111 15/2/111 91/1/112
f 91/1/113 15/2/113 89/3/113
f 92/9/114 15/2/108 94/10/107
f 88/35/9 90/38/9 89/3/9
f 89/3/115 90/38/115 96/33/102 92/9/102
f 89/3/116 15/2/108 92/9/114
f 108/7/117 15/2/117 86/4/117
f 107/1/118 15/2/118 108/7/118
f 105/3/119 15/2/119 107/1/119
f 103/9/120 15/2/121 105/3/122
f 102/10/123 15/2/121 103/9/120
f 101/14/124 15/2/121 102/10/123
f 108/7/125 100/39/125 85/37/126 86/4/126
f 107/1/127 109/40/127 100/39/125 108/7/125
f 103/9/128 97/41/128 104/42/129 105/3/129
f 104/42/23 106/43/23 105/3/23
f 102/10/130 98/44/130 97/41/128 103/9/128
f 101/14/131 99/45/131 98/44/130 102/10/130
f 105/3/132 106/43/132 109/40/127 107/1/127
f 118/10/133 15/2/133 101/14/133
f 117/9/134 15/2/134 118/10/134
f 120/3/135 15/2/135 117/9/135
f 116/1/136 15/2/136 120/3/137
f 115/7/138 15/2/136 116/1/136
f 114/4/139 15/2/139 115/7/139
f 118/10/140 113/44/140 99/45/141 101/14/141
f 117/9/142 122/41/142 113/44/140 118/10/140
f 119/43/9 121/42/9 120/3/9
f 116/1/143 110/40/143 119/43/144 120/3/144
f 115/7/145 111/39/145 110/40/143 116/1/143
f 114/4/146 112/37/146 111/39/145 115/7/145
f 120/3/147 121/42/147 122/41/142 117/9/142
f 129/7/148 15/2/149 114/4/150
f 128/1/151 15/2/149 129/7/148
f 133/3/152 15/2/149 128/1/151
f 127/9/153 15/2/149 133/3/152
f 126/10/154 15/2/149 127/9/153
f 5/14/155 15/2/155 126/10/155
f 129/7/156 125/36/156 112/37/157 114/4/157
f 132/38/23 131/35/23 133/3/23
f 128/1/158 130/34/158 125/36/156 129/7/156
f 127/9/159 123/33/159 132/38/160 133/3/160
f 126/10/161 124/32/161 123/33/159 127/9/159
f 5/14/162 9/17/162 124/32/161 126/10/161
f 133/3/163 131/35/163 130/34/158 128/1/158

