# WaveFront *.obj file (generated by CINEMA 4D)

mtllib ./DecagonShape_14.mtl

v -0.0055712684989 -0.00039743335219 -0.01152041368186
v -0.00341617339291 -0.00121239037253 -0.01236038003117
v -0.00000761361207 0.00256363255903 -0.01470041554421
v -0.0000111410227 0.00256786844693 -0.01469962019473
v -0.00001107466414 0.00257040304132 -0.01470015756786
v -0.00000968800032 0.00256502605043 -0.01469972915947
v -0.00001180796062 0.00256531685591 -0.01469880063087
v -0.00001211944618 0.0025659261737 -0.0146987773478
v -0.00499385641888 0.00187392253429 -0.01224268041551
v -0.00499431788921 0.0018721082015 -0.01224210392684
v -0.00341789470986 -0.00121173937805 -0.01235970947891
v -0.00499477889389 0.00187029398512 -0.01224152743816
v -0.00342133734375 -0.00121043727268 -0.01235836744308
v -0.0034196160268 -0.00121108838357 -0.01235903799534
v 0.0000000700569 0.00257201283239 -0.01470507774502
v -0.00499524036422 0.00186847988516 -0.01224095001817
v -0.00001346946465 0.00256481906399 -0.01469792798162
v -0.0004845514195 -0.00232099322602 -0.0135030047968
v -0.0000062819272 0.0025614160113 -0.0147005924955
v -0.0000012901138 0.00256003276445 -0.0147026386112
v -0.0000053975773 0.00255880202167 -0.01470048166811
v -0.00341100920923 -0.00121434300672 -0.01236239261925
v -0.00000638929805 0.00255731516518 -0.01469972357154
v -0.00000596667496 0.00255912588909 -0.01470028143376
v -0.00048610431259 -0.00232040625997 -0.01350239943713
v -0.00000362718788 0.00255990494043 -0.01470152568072
v -0.00048144569155 -0.00232216785662 -0.01350421458483
v -0.00341273052618 -0.00121369201224 -0.012361722067
v -0.00048299855553 -0.00232158065774 -0.01350361015648
v -0.00341445207596 -0.00121304136701 -0.01236105151474
v 0.00321350106969 -0.00371840363368 -0.01494433172047
v -0.00047833993449 -0.00232334225439 -0.01350542530417
v 0.00000093095764 0.00255898130126 -0.01470346190035
v 0.00000567015513 0.00256105768494 -0.01470549497753
v 0.00000242002443 0.00255721830763 -0.01470380183309
v 0.00000303533011 0.00255730608478 -0.01470408868045
v 0.00321532133967 -0.00371776125394 -0.0149449435994
v 0.00321167637594 -0.0037184949033 -0.01494364440441
v -0.0004767870123 -0.00232392945327 -0.01350603066385
v 0.00000382818826 0.00255940179341 -0.01470473594964
v -0.00047989276936 -0.0023227550555 -0.0135048199445
v 0.00000308566996 0.00255539524369 -0.01470374874771
v 0.00321001978591 -0.0037181081716 -0.01494299434125
v 0.00001035976311 0.00256391218863 -0.01470637042075
v 0.00001086718112 0.00256163580343 -0.01470640674233
v 0.00001038678693 0.00256115058437 -0.01470635551959
v 0.00000812780127 0.00256165023893 -0.01470606215298
v 0.00001095196785 0.00256643490866 -0.01470641419291
v 0.0032181495335 -0.00371510954574 -0.01494564022869
v 0.00450365291908 0.00028477926389 -0.01504158228636
v 0.00321692810394 -0.00371661153622 -0.01494538877159
v 0.00321891112253 -0.00371345854364 -0.01494573708624
v 0.00001197718757 0.00256004487164 -0.01470649056137
v 0.00450203148648 0.0002797335037 -0.01504146121442
v 0.00450311275199 0.00028309729532 -0.01504154130816
v 0.00450257211924 0.00028141541407 -0.01504150126129
v 0.00450419355184 0.00028646126157 -0.01504162233323
v 0.00001262958176 0.00256840628572 -0.01470653899014
v 0.00001475973113 0.00256934319623 -0.0147066982463
v 0.00001486490055 0.00257001980208 -0.01470670569688
v 0.00552382878959 0.00345966336317 -0.01511768996716
v 0.00552442809567 0.00346152763814 -0.01511773467064
v 0.00552502740175 0.00346339214593 -0.01511777937412
v 0.00001312018048 0.00257156230509 -0.01470657624304
v 0.00001212055759 0.00257395231165 -0.01470650173724
v 0.00450473418459 0.00028814314282 -0.0150416623801
v 0.00450527435169 0.00028982511139 -0.01504170335829
v 0.00001669543599 0.00256938720122 -0.0147068426013
v 0.00552322994918 0.00345779862255 -0.01511764526367
v 0.00394734414294 0.00654970481992 -0.01500007975847
v 0.00627506524324 0.00579758221284 -0.01517373416573
v 0.00001503659587 0.00257972627878 -0.0147067187354
v 0.00552682438865 0.00346898543648 -0.01511791348457
v 0.00395292183384 0.00654790271074 -0.01500049605966
v 0.0039492030628 0.00654910411686 -0.01500021852553
v 0.00395106244832 0.0065485034138 -0.01500035729259
v 0.00000865950642 0.00258072302677 -0.01470624282956
v 0.00552562624216 0.0034652564209 -0.01511782407761
v 0.00001086913562 0.00257937866263 -0.01470640767366
v 0.00001318483737 0.00257915910333 -0.01470658089966
v 0.00001232215891 0.00257653626613 -0.0147065166384
v 0.00001349632294 0.00257854978554 -0.01470660418272
v 0.00552622508258 0.00346712092869 -0.01511786878109
v 0.00394548475742 0.00655030552298 -0.0149999409914
v 0.00077753973892 0.00757391750813 -0.01476360391825
v 0.00000189081845 0.00258416053839 -0.01470573805273
v 0.00000446645026 0.00258437544107 -0.0147059308365
v 0.00078257150017 0.00757229141891 -0.01476397924125
v 0.0000076342867 0.00258711283095 -0.01470616646111
v 0.00394176598638 0.0065515069291 -0.01499966345727
v 0.00000646861508 0.00258556264453 -0.01470607984811
v 0.00000707777781 0.0025852532126 -0.01470612548292
v 0.00078089430463 0.00757283344865 -0.01476385444403
v 0.00000730808961 0.00258293212391 -0.01470614224672
v 0.00077921699267 0.00757337547839 -0.01476372871548
v 0.0039436253719 0.00655090622604 -0.01499980222434
v -0.00321139837615 0.00886257085949 -0.01446597836912
v -0.00321332248859 0.0088624432683 -0.01446567475796
v -0.00321518094279 0.00886178668588 -0.01446521095932
v 0.00077586248517 0.00757445953786 -0.01476347818971
v -0.00000553004111 0.00258296797983 -0.01470465958118
v -0.00000362740002 0.00258464599028 -0.01470518484712
v -0.00000271703584 0.00258678453974 -0.01470537856221
v -0.00320961838588 0.00886222906411 -0.01446615066379
v -0.00000268406029 0.00258872564882 -0.01470539718866
v 0.00077250791946 0.00757554313168 -0.01476322859526
v -0.00000204413345 0.00258689327165 -0.01470544375479
v -0.00000049742152 0.00258515123278 -0.01470556017011
v 0.00077418517321 0.00757500110194 -0.01476335339248
v -0.0042067267932 0.00497024366632 -0.01322727743536
v -0.00420714309439 0.0049686068669 -0.01322675775737
v -0.00420755892992 0.00496697006747 -0.01322623714805
v -0.00321674952284 0.00886065140367 -0.01446461770684
v -0.00001035126297 0.00257775862701 -0.01470196247101
v -0.00000992622699 0.00258022057824 -0.01470265258104
v -0.00001049128969 0.00258247577585 -0.01470283791423
v -0.00001006849288 0.00258294004016 -0.01470311079174
v -0.00000792701303 0.00258239754476 -0.01470385864377
v -0.00420631095767 0.00497188000008 -0.01322779804468
v -0.00001157557745 0.00258407602087 -0.01470265444368
v -0.00321850948967 0.00885757990181 -0.01446340885013
v -0.00321787153371 0.00885918550193 -0.01446398254484
v -0.00499293394387 0.00187755096704 -0.01224383432418
v -0.0049933954142 0.00187573675066 -0.01224325783551
v -0.00420797476545 0.00496533373371 -0.01322571653873
v -0.00001209401853 0.00257278583013 -0.01470015849918
v -0.00001375379725 0.00257435929962 -0.0146997012198
v -0.0000136886938 0.00257502146997 -0.01469986326993
v -0.00001179031915 0.00257587386295 -0.01470091659576
v -0.00420839106664 0.00496369693428 -0.01322519592941
v -0.00420880736783 0.00496206013486 -0.01322467532009
v -0.00499247293919 0.00187936529983 -0.01224441174418
v -0.00001545044688 0.00257504079491 -0.01469904743135
# 133 vertices

vn 0.43775278329849 0.06408806145191 0.896808385849
vn 0.38805931806564 0.16377685964108 0.90696585178375
vn 0.39052021503448 0.16509094834328 0.90567046403885
vn -0.41511160135269 -0.1781537681818 -0.89215672016144
vn -0.41512122750282 -0.17815889418125 -0.89215123653412
vn 0.33617663383484 0.26283606886864 0.90437960624695
vn 0.36936321854591 0.19671796262264 0.90822511911392
vn -0.41508489847183 -0.17816033959389 -0.89216780662537
vn -0.4150867164135 -0.17818993330002 -0.89216107130051
vn 0.37483987212181 0.18277543783188 0.90889394283295
vn 0.403804063797 0.12934270501137 0.90565598011017
vn 0.39573439955711 0.14187335968018 0.90734022855759
vn -0.41508305072784 -0.17813074588776 -0.89217460155487
vn 0.43281835317612 0.12951122224331 0.89212954044342
vn 0.40194401144981 0.14893056452274 0.90347146987915
vn 0.49273082613945 0.09685959666967 0.86477428674698
vn 0.40250885486603 0.15192936360836 0.90272039175034
vn -0.41505819559097 -0.17816691100597 -0.89217895269394
vn -0.41506001353264 -0.17819651961327 -0.89217215776443
vn 0.41995888948441 0.13498832285404 0.89744788408279
vn -0.41510978341103 -0.17812417447567 -0.8921634554863
vn 0.30704408884048 0.20222374796867 0.92996209859848
vn 0.3698992729187 0.1652030646801 0.91426604986191
vn 0.38178110122681 0.15663859248161 0.91088283061981
vn -0.41493219137192 -0.17818294465542 -0.89223432540894
vn 0.45560163259506 0.15081891417503 0.87731456756592
vn 0.37470015883446 0.13636939227581 0.91706228256226
vn 0.40053722262383 0.14501963555813 0.90473157167435
vn 0.31957465410233 0.13167828321457 0.93836712837219
vn -0.41526427865028 -0.17813114821911 -0.89209014177322
vn -0.37438067793846 -0.15652699768543 -0.91396850347519
vn -0.39725416898727 -0.16868501901627 -0.90207231044769
vn -0.31913933157921 -0.12732593715191 -0.93911564350128
vn -0.28657087683678 -0.11017458885908 -0.95170307159424
vn 0.38712564110756 0.13854855298996 0.91155803203583
vn 0.3361534178257 0.12544074654579 0.93341606855392
vn 0.29070541262627 0.11236379295588 0.95019197463989
vn 0.40131586790085 0.13870956003666 0.90537571907043
vn -0.41577383875847 -0.17802053689957 -0.8918748497963
vn -0.17866598069668 -0.05386453121901 -0.98243427276611
vn -0.21244783699512 -0.07145190238953 -0.97455656528473
vn 0.06989311426878 -0.05086437985301 0.99625688791275
vn 0.13617125153542 0.01163737196475 0.99061697721481
vn 0.16966816782951 0.03840197250247 0.98475277423859
vn -0.07439597696066 0.00000000229508 -0.99722880125046
vn -0.11954759061337 -0.02325809188187 -0.99255603551865
vn -0.07434118539095 0.00014957474195 -0.9972328543663
vn -0.07407481223345 0.00064562691841 -0.99725246429443
vn -0.07445076853037 -0.0001495701581 -0.99722468852997
vn 0.11682726442814 -0.01002789661288 0.99310159683228
vn 0.12629173696041 0.00215117749758 0.99199080467224
vn 0.2082144767046 0.06921330094337 0.97563117742538
vn 0.1747879832983 0.05596122518182 0.983014523983
vn 0.11210679262877 -0.00580836180598 0.99367916584015
vn -0.09435947239399 -0.01025524828583 -0.99548536539078
vn 0.11461782455444 0.01694793999195 0.99326509237289
vn 0.10788640379906 -0.00483055366203 0.99415147304535
vn 0.11509330570698 0.0319561958313 0.99284052848816
vn 0.12286956608295 0.10591788589954 0.98675453662872
vn 0.1049866899848 -0.00364869227633 0.99446696043015
vn 0.08835430443287 -0.11457169800997 0.98947805166244
vn 0.10338503867388 -0.0427529849112 0.99372214078903
vn 0.10750561207533 -0.02840138413012 0.99379873275757
vn 0.0969879925251 0.0374468639493 0.99458086490631
vn 0.10451711714268 0.01549516804516 0.99440234899521
vn 0.08854455500841 0.04986454173923 0.99482327699661
vn 0.1229899674654 -0.01747957617044 0.99225395917892
vn 0.11788506060839 -0.00342493737116 0.99302136898041
vn 0.15317100286484 -0.08469337970018 0.98456370830536
vn 0.10181844979525 0.01411545928568 0.99470287561417
vn 0.05161890760064 0.11398908495903 0.9921401143074
vn 0.12399607896805 0.01456067245454 0.99217587709427
vn 0.09001253545284 0.03012895211577 0.99548482894897
vn 0.11156847327948 0.02289619483054 0.99349296092987
vn 0.07072208076715 0.04357692971826 0.99654376506805
vn 0.05665823817253 0.04864853248 0.99720770120621
vn -0.0104215266183 0.07865089178085 0.99684774875641
vn 0.08929359912872 0.02707982249558 0.99563717842102
vn 0.18824891746044 -0.02192460186779 0.98187661170959
vn 0.10641420632601 0.04106094688177 0.99347370862961
vn 0.11982002854347 0.04360687360168 0.99183750152588
vn 0.09099252521992 0.04047150164843 0.99502885341644
vn 0.17809946835041 0.04946601390839 0.98276835680008
vn 0.09166500717402 0.03413858637214 0.99520456790924
vn 0.03054167702794 0.02610108628869 0.99919265508652
vn 0.16093766689301 0.05548578500748 0.98540365695953
vn -0.07454993575811 0.00002406795284 -0.99721729755402
vn -0.0742420181632 -0.00002406336171 -0.99724024534225
vn -0.1786691993475 -0.05386620387435 -0.98243355751038
vn -0.2124820202589 -0.07144901156425 -0.97454935312271
vn -0.07368773967028 -0.00011070316395 -0.99728137254715
vn 0.3274227976799 0.14252461493015 0.93406695127487
vn 0.35835200548172 0.16836981475353 0.9182785153389
vn 0.41625243425369 0.22781607508659 0.88024640083313
vn 0.38012531399727 0.18496176600456 0.90625268220901
vn 0.32291516661644 0.12517760694027 0.93811321258545
vn 0.36721903085709 0.17746439576149 0.91304796934128
vn 0.37548527121544 0.18924129009247 0.90730291604996
vn -0.31911078095436 -0.12733164429665 -0.939124584198
vn -0.28654184937477 -0.11018007993698 -0.95171117782593
vn -0.41516843438148 -0.17833504080772 -0.89209407567978
vn -0.41538864374161 -0.17880648374557 -0.89189714193344
vn -0.41503947973251 -0.17801378667355 -0.89221823215485
vn -0.39724284410477 -0.16865038871765 -0.90208381414413
vn 0.38609173893929 0.22091417014599 0.89561712741852
vn 0.38407045602798 0.18389074504375 0.90480607748032
vn 0.38314855098724 0.20700250566006 0.90019285678864
vn 0.39393132925034 0.29014974832535 0.87214177846909
vn 0.38678482174873 0.18263348937035 0.90390402078629
vn 0.37239050865173 0.07435503602028 0.9250927567482
vn 0.378800958395 0.14780692756176 0.91359889507294
vn 0.37873512506485 0.16261714696884 0.91110664606094
# 112 normals

vt 0.49995157122612 0.00212597846985 0
vt 0.5 0 0
vt 0.5 0.00239622592926 0
vt 0.49946200847626 0.00165581703186 0
vt 0.2547627389431 0.75476276874542 0
vt 0.25495859980583 0.75495862960815 0
vt 0.49977412819862 0.00184786319733 0
vt 0.25515449047089 0.75515449047089 0
vt 0.50004839897156 0.00212597846985 0
vt 0.50022584199905 0.00184786319733 0
vt 0.25535038113594 0.75535035133362 0
vt 0.5 1 0
vt 0.74464964866638 0.75535035133362 0
vt 0.50053799152374 0.00165581703186 0
vt 0.74484550952911 0.75515449047089 0
vt 0.74504137039185 0.75495862960815 0
vt 0.74523729085922 0.75476276874542 0
vt 0.72123175859451 0.68088132143021 0
vt 0.7209849357605 0.68092042207718 0
vt 0.72073811292648 0.68095946311951 0
vt 0.72049129009247 0.68099856376648 0
vt 0.2555835545063 0.75463271141052 0
vt 0.25530993938446 0.75467610359192 0
vt 0.25503632426262 0.75471937656403 0
vt 0.72100907564163 0.68099474906921 0
vt 0.19191606342793 0.95058107376099 0
vt 0.72056376934052 0.68122166395187 0
vt 0.72078639268875 0.68110823631287 0
vt 0.19167397916317 0.95066893100739 0
vt 0.19139903783798 0.95069444179535 0
vt 0.19111704826355 0.95064401626587 0
vt 0.74496364593506 0.75471937656403 0
vt 0.74469006061554 0.75467610359192 0
vt 0.27926191687584 0.68095946311951 0
vt 0.27950873970985 0.68099856376648 0
vt 0.27901509404182 0.68092042207718 0
vt 0.27876827120781 0.68088132143021 0
vt 0.74441647529602 0.75463271141052 0
vt 0.27899092435837 0.68099474906921 0
vt 0.27921357750893 0.68110823631287 0
vt 0.80832600593567 0.95066893100739 0
vt 0.80808395147324 0.95058107376099 0
vt 0.27943626046181 0.68122166395187 0
vt 0.80860096216202 0.95069444179535 0
vt 0.80888295173645 0.95064401626587 0
# 45 texture coordinates

o Decagon_web
usemtl Mat
f 7/1/1 15/2/2 17/3/3
f 3/4/4 2/5/4 11/6/5 6/7/5
f 6/7/5 11/6/5 14/8/5 7/1/5
f 8/9/6 15/2/2 4/10/7
f 17/3/3 15/2/2 8/9/6
f 13/11/8 1/12/8 17/3/8
f 1/12/8 16/13/8 17/3/8
f 7/1/5 14/8/5 13/11/9 17/3/9
f 4/10/7 15/2/2 5/14/10
f 6/7/11 15/2/2 7/1/1
f 3/4/12 15/2/2 6/7/11
f 17/3/13 16/13/13 12/15/8 8/9/8
f 8/9/8 12/15/8 10/16/8 4/10/8
f 4/10/8 10/16/8 9/17/8 5/14/8
f 26/10/14 15/2/15 21/9/16
f 20/14/8 27/18/8 29/19/8 26/10/8
f 26/10/8 29/19/8 18/20/8 21/9/8
f 21/9/8 18/20/8 25/21/8 23/3/8
f 25/21/8 22/22/8 23/3/8
f 21/9/16 15/2/15 23/3/17
f 23/3/18 22/22/18 28/23/19 24/1/19
f 20/14/20 15/2/15 26/10/14
f 24/1/19 28/23/19 30/24/8 19/7/8
f 19/7/8 30/24/8 2/5/21 3/4/21
f 23/3/17 15/2/15 24/1/22
f 19/7/23 15/2/15 3/4/24
f 24/1/22 15/2/15 19/7/23
f 33/10/25 41/25/25 27/18/8 20/14/8
f 36/1/26 15/2/27 42/3/28
f 42/3/28 15/2/27 35/9/29
f 43/26/8 39/27/8 42/3/8
f 35/9/30 32/28/30 41/25/25 33/10/25
f 36/1/31 38/29/31 43/26/32 42/3/32
f 40/7/33 31/30/33 38/29/31 36/1/31
f 34/4/34 37/31/34 31/30/33 40/7/33
f 35/9/29 15/2/27 33/10/35
f 40/7/36 15/2/27 36/1/26
f 34/4/37 15/2/27 40/7/36
f 33/10/35 15/2/27 20/14/38
f 42/3/39 39/27/39 32/28/30 35/9/30
f 47/7/40 51/30/40 37/31/41 34/4/41
f 46/1/42 15/2/43 47/7/44
f 54/27/45 52/26/45 53/3/45
f 46/1/46 49/29/46 51/30/40 47/7/40
f 45/9/47 56/28/47 54/27/48 53/3/48
f 44/10/49 55/25/49 56/28/47 45/9/47
f 48/14/45 50/18/45 55/25/49 44/10/49
f 48/14/50 15/2/43 44/10/51
f 47/7/44 15/2/43 34/4/52
f 44/10/51 15/2/43 45/9/53
f 45/9/53 15/2/43 53/3/54
f 53/3/55 52/26/55 49/29/46 46/1/46
f 53/3/54 15/2/43 46/1/42
f 65/4/56 15/2/57 64/7/58
f 69/22/45 67/21/45 68/3/45
f 64/7/58 15/2/57 60/1/59
f 60/1/59 15/2/57 68/3/60
f 68/3/60 15/2/57 59/9/61
f 58/10/45 57/19/45 50/18/45 48/14/45
f 59/9/45 66/20/45 57/19/45 58/10/45
f 60/1/45 61/23/45 69/22/45 68/3/45
f 58/10/62 15/2/57 48/14/63
f 64/7/45 62/24/45 61/23/45 60/1/45
f 65/4/45 63/5/45 62/24/45 64/7/45
f 59/9/61 15/2/57 58/10/62
f 68/3/45 67/21/45 66/20/45 59/9/45
f 80/9/45 76/15/45 74/13/45 72/3/45
f 79/10/45 75/16/45 76/15/45 80/9/45
f 77/14/45 70/17/45 75/16/45 79/10/45
f 77/14/64 15/2/65 79/10/66
f 81/7/67 15/2/65 65/4/68
f 81/7/45 78/6/45 63/5/45 65/4/45
f 82/1/45 83/8/45 78/6/45 81/7/45
f 82/1/69 15/2/65 81/7/67
f 72/3/70 15/2/65 82/1/69
f 79/10/66 15/2/65 80/9/71
f 80/9/71 15/2/65 72/3/70
f 74/13/45 71/12/45 72/3/45
f 71/12/45 73/11/45 72/3/45
f 72/3/45 73/11/45 83/8/45 82/1/45
f 94/10/45 84/32/45 70/17/45 77/14/45
f 92/9/45 96/33/45 84/32/45 94/10/45
f 91/1/45 93/34/45 88/35/45 89/3/45
f 87/7/45 95/36/45 93/34/45 91/1/45
f 86/4/45 85/37/45 95/36/45 87/7/45
f 94/10/72 15/2/73 77/14/74
f 86/4/75 15/2/73 87/7/76
f 87/7/76 15/2/73 91/1/77
f 91/1/77 15/2/73 89/3/78
f 92/9/79 15/2/73 94/10/72
f 88/35/45 90/38/45 89/3/45
f 89/3/45 90/38/45 96/33/45 92/9/45
f 89/3/78 15/2/73 92/9/79
f 108/7/80 15/2/81 86/4/82
f 107/1/83 15/2/81 108/7/80
f 105/3/84 15/2/81 107/1/83
f 103/9/85 15/2/81 105/3/84
f 102/10/86 15/2/81 103/9/85
f 101/14/52 15/2/81 102/10/86
f 108/7/87 100/39/87 85/37/45 86/4/45
f 107/1/88 109/40/88 100/39/87 108/7/87
f 103/9/46 97/41/46 104/42/55 105/3/55
f 104/42/45 106/43/45 105/3/45
f 102/10/89 98/44/89 97/41/46 103/9/46
f 101/14/90 99/45/90 98/44/89 102/10/89
f 105/3/91 106/43/91 109/40/88 107/1/88
f 118/10/92 15/2/93 101/14/37
f 117/9/94 15/2/93 118/10/92
f 120/3/95 15/2/93 117/9/94
f 116/1/96 15/2/93 120/3/95
f 115/7/97 15/2/93 116/1/96
f 114/4/98 15/2/93 115/7/97
f 118/10/99 113/44/99 99/45/100 101/14/100
f 117/9/31 122/41/31 113/44/99 118/10/99
f 119/43/8 121/42/8 120/3/8
f 116/1/101 110/40/101 119/43/102 120/3/102
f 115/7/103 111/39/103 110/40/101 116/1/101
f 114/4/9 112/37/9 111/39/103 115/7/103
f 120/3/104 121/42/104 122/41/31 117/9/31
f 129/7/105 15/2/106 114/4/107
f 128/1/108 15/2/106 129/7/105
f 133/3/109 15/2/106 128/1/108
f 127/9/110 15/2/106 133/3/109
f 126/10/111 15/2/106 127/9/110
f 5/14/112 15/2/106 126/10/111
f 129/7/8 125/36/8 112/37/13 114/4/13
f 132/38/8 131/35/8 133/3/8
f 128/1/8 130/34/8 125/36/8 129/7/8
f 127/9/21 123/33/21 132/38/21 133/3/21
f 126/10/8 124/32/8 123/33/21 127/9/21
f 5/14/8 9/17/8 124/32/8 126/10/8
f 133/3/13 131/35/13 130/34/8 128/1/8

