# WaveFront *.obj file (generated by CINEMA 4D)

mtllib ./DecagonShape_42.mtl

v -0.00000339974645 0.0041211261414 -0.00892368890345
v 0.0001458790357 0.00276953401044 -0.01096551679075
v 0.00000681870006 -0.00279369903728 -0.01034624874592
v 0.00000711537223 -0.00279322289862 -0.01033996697515
v 0.00000930559327 -0.00279427110218 -0.01033923309296
v 0.00000643943076 -0.00279275816865 -0.01034339889884
v 0.00000626456358 -0.00279104709625 -0.01034146919847
v 0.00000630369959 -0.00279116770253 -0.01034068875015
v -0.00014425365953 0.00207596411929 -0.00758067891002
v -0.00014588353224 0.00207701139152 -0.00758081395179
v 0.00014561745047 0.00277064950205 -0.01096359454095
v -0.00014700004249 0.00207841768861 -0.00758155342191
v 0.00014523537538 0.0027728790883 -0.0109597351402
v 0.00014540282427 0.00277176452801 -0.01096166763455
v 0.00000816725787 -0.00280500785448 -0.01034220214933
v -0.00014732488489 0.00208002189174 -0.0075825988315
v 0.00000620321816 -0.00278922519647 -0.01034059282392
v 0.00075531628681 0.00092772766948 -0.01368046924472
v 0.00000732586477 -0.00279342825525 -0.01034921873361
v 0.00000830859608 -0.00279701431282 -0.01035400573164
v 0.00000793094387 -0.00279250182211 -0.01035217661411
v 0.00014694433776 0.00276618590578 -0.01097123324871
v 0.0000080447071 -0.00279061682522 -0.01035268232226
v 0.00000777430068 -0.00279219681397 -0.01035144831985
v 0.00075499259401 0.00092872139066 -0.01367901079357
v 0.00000800896396 -0.00279483594932 -0.01035256311297
v 0.00075594242662 0.00092573964503 -0.01368338987231
v 0.00014654269035 0.00276730209589 -0.01096933707595
v 0.00075563287828 0.00092673365725 -0.01368192862719
v 0.00014618752175 0.00276841805317 -0.01096743065864
v 0.00142303900793 -0.00139479327481 -0.017124902457
v 0.00075654027751 0.00092375214444 -0.01368631608784
v 0.00000877411094 -0.00279829278588 -0.01035625580698
v 0.00000568830092 -0.00280177150853 -0.01035804394633
v 0.0000092424616 -0.00279843527824 -0.01035855896771
v 0.00000919049307 -0.00279902503826 -0.01035891938955
v 0.00142126029823 -0.00139528082218 -0.01712566614151
v 0.00142396893352 -0.00139363796916 -0.01712366379797
v 0.00075682858005 0.00092275859788 -0.01368778198957
v 0.0000080274167 -0.0028007987421 -0.01035798806697
v 0.00075624493184 0.00092474604025 -0.01368485298008
v 0.00000963517869 -0.00279780244455 -0.01036035921425
v 0.00142400886398 -0.00139250222128 -0.01712225191295
v 0.00000225096232 -0.00279821106233 -0.01035762950778
v 0.0000027359431 -0.00279833492823 -0.0103599075228
v 0.00000290702474 -0.00279892166145 -0.01036021485925
v 0.0000035499213 -0.00280072307214 -0.010358909145
v 0.00000179120968 -0.00279695913196 -0.01035540737212
v 0.00141803640872 -0.00139353773557 -0.01712488383055
v 0.00074942503124 0.00092579476768 -0.01368479151279
v 0.00141934189014 -0.00139473075978 -0.01712566427886
v 0.00141747971065 -0.00139239185955 -0.0171235948801
v 0.00000310606697 -0.00279769208282 -0.0103617021814
v 0.00075029948493 0.0009228689014 -0.01368912495673
v 0.00074972352013 0.00092481949832 -0.01368623506278
v 0.0007500150241 0.00092384434538 -0.01368767954409
v 0.00074911961565 0.00092677038629 -0.01368334982544
v 0.0000014975675 -0.00279480731115 -0.01035399269313
v 0.00000141905127 -0.00279248994775 -0.01035360526294
v 0.0000012521798 -0.00279218633659 -0.01035282853991
v 0.00014000621741 0.00276731932536 -0.01097064744681
v 0.00013962277444 0.00276845321059 -0.01096859108657
v 0.00013928949193 0.0027695861645 -0.01096652634442
v 0.00000077322164 -0.00279340101406 -0.01035044621676
v 0.00000022915913 -0.00279364665039 -0.01034725829959
v 0.00074880727334 0.0009277460631 -0.01368191000074
v 0.0007484878879 0.00092872139066 -0.01368047203869
v 0.00000154002373 -0.00279061682522 -0.01035414263606
v 0.00014043966075 0.00276618590578 -0.01097269449383
v -0.00014505410218 0.00207268306985 -0.00757493125275
v -0.00001004257683 0.00412123044953 -0.00892424304038
v -0.00000043956595 -0.00278912065551 -0.01034114696085
v 0.00013859255705 0.00277298339643 -0.01096028834581
v -0.00015396761592 0.00208012619987 -0.00758315296844
v -0.00014981284039 0.00207426375709 -0.0075761815533
v -0.00015305742272 0.00207690312527 -0.00757921673357
v 0.0000085050724 -0.00279755215161 -0.01033348497003
v 0.00013900661725 0.00277071935125 -0.01096445322037
v 0.00000207939092 -0.00279549486004 -0.01033623609692
v -0.00000024786766 -0.0027919318527 -0.01033964753151
v -0.00000017969013 -0.00279268086888 -0.01034419052303
v -0.00000040639762 -0.00279119401239 -0.01034154649824
v 0.00013877425226 0.0027718518395 -0.01096237357706
v -0.00013998692157 0.00207236711867 -0.00757589610294
v 0.00038283021422 0.00221476401202 -0.01087382249534
v 0.00002019030399 -0.00279420940205 -0.01034348178655
v 0.00001975951818 -0.00279331603087 -0.01034109666944
v 0.00038200864219 0.00221454165876 -0.01086859032512
v 0.00001956609231 -0.00278983660974 -0.01033876929432
v -0.00013381564349 0.00207476946525 -0.00758340395987
v 0.00001946414159 -0.00279189064167 -0.01033905241638
v 0.00001883121695 -0.00279261451215 -0.01033738069236
v 0.00038228250924 0.00221461593173 -0.0108703346923
v 0.00001552482536 -0.00279597612098 -0.0103346388787
v 0.00038255631807 0.00221468973905 -0.01087207812816
v -0.00013589550508 0.00207319878973 -0.00757894152775
v 0.00158813246526 0.00239503663033 -0.01486165914685
v 0.00158746330999 0.00239473418333 -0.01486344635487
v 0.00158582685981 0.00239461613819 -0.01486458256841
v 0.00038310405216 0.002214838285 -0.01087556686252
v 0.00001828167478 -0.00279595050961 -0.01034976448864
v 0.00002043801578 -0.0027949786745 -0.01034884992987
v 0.00002137394586 -0.00279289716855 -0.01034845877439
v 0.0015879169805 0.00239514280111 -0.0148598626256
v 0.00002170336666 -0.00279103103094 -0.01034887321293
v 0.00038308135117 0.00221569999121 -0.01087277382612
v 0.00002132986629 -0.00279262545519 -0.01034783851355
v 0.00002078904436 -0.00279389205389 -0.01034596934915
v 0.0003833102528 0.00221500522457 -0.01087649352849
v 0.00037662003888 0.00221552187577 -0.0108762094751
v 0.00037652580068 0.00221520732157 -0.01087658386678
v 0.00037625193363 0.00221513304859 -0.01087483949959
v 0.00158384989481 0.0023948836606 -0.01486452948302
v 0.00001368919857 -0.00279389042407 -0.01034492906183
v 0.0000143379475 -0.00279359798878 -0.01034762896597
v 0.00001493900345 -0.00279235001653 -0.0103496434167
v 0.00001521810555 -0.00279263732955 -0.01035025250167
v 0.00001605795478 -0.00279479613528 -0.01035015005618
v 0.00037638493814 0.00221619964577 -0.01087264157832
v 0.00001531389171 -0.00279076374136 -0.01035076007247
v 0.00158153579105 0.00239540683106 -0.01486177463084
v 0.00158233451657 0.00239527667873 -0.01486339606345
v -0.00014111539349 0.00207511661574 -0.00758261838928
v -0.00014251901302 0.0020753457211 -0.00758129591122
v 0.00037597806659 0.00221505877562 -0.01087309513241
v 0.00001167517166 -0.0027933861129 -0.01033942587674
v 0.00001277007868 -0.00279139447957 -0.01033987849951
v 0.00001299639825 -0.0027912769001 -0.01034056767821
v 0.00001321545551 -0.00279297190718 -0.01034232787788
v 0.00037570419954 0.00221498450264 -0.01087135169655
v 0.0003754303616 0.00221491022967 -0.01086960732937
v -0.00014039395319 0.00207513826899 -0.00758442096412
v 0.00001298781081 -0.002789467806 -0.01033978629857
# 133 vertices

vn -0.9812805056572 -0.14065338671207 0.1315493285656
vn -0.98781162500381 -0.14353388547897 0.06021811440587
vn -0.9625016450882 -0.14325405657291 0.23036681115627
vn 0.99043929576874 -0.00944802630693 0.13762539625168
vn 0.99225997924805 -0.01105702761561 0.12368460744619
vn 0.99457556009293 -0.01338175591081 0.103152140975
vn -0.85808259248734 -0.16857223212719 0.48505428433418
vn -0.66022717952728 -0.19640970230103 0.72492980957031
vn -0.58463758230209 0.00997784454376 -0.81123322248459
vn 0.99641561508179 -0.01567243970931 0.08312814682722
vn 0.99522769451141 -0.01415216177702 0.09654789417982
vn -0.39799216389656 -0.20508597791195 0.89417111873627
vn -0.98952269554138 -0.14207464456558 -0.0256826672703
vn -0.98566210269928 -0.14709596335888 -0.08266191929579
vn 0.99270969629288 0.08154264092445 -0.08875956386328
vn 0.94237697124481 0.18688440322876 -0.27748841047287
vn 0.65931475162506 0.38619297742844 -0.645103931427
vn 0.41867396235466 0.45756393671036 -0.78444081544876
vn -0.99724608659744 -0.05996190756559 -0.0436436869204
vn -0.99977189302444 -0.00704776355997 0.02016044594347
vn -0.9972066283226 0.03415863588452 0.06642360240221
vn 0.97722768783569 -0.00656696315855 0.21209172904491
vn 0.97689127922058 -0.00507277483121 0.21367652714252
vn 0.97622311115265 -0.00219333264977 0.21675695478916
vn 0.97589808702469 -0.00082088296767 0.21822510659695
vn 0.97570240497589 0 0.21910001337528
vn -0.98415100574493 0.09885000437498 0.14722609519958
vn 0.97757261991501 -0.0010158958612 0.21059611439705
vn 0.97967267036438 -0.00217312225141 0.2005910128355
vn -0.9934287071228 -0.08887665718794 -0.07211307436228
vn 0.9840224981308 -0.00480090407655 0.1779793202877
vn 0.98622024059296 -0.00625591352582 0.16531926393509
vn -0.2305573374033 -0.57408159971237 -0.78566765785217
vn -0.94043356180191 -0.22353617846966 -0.25615671277046
vn -0.96673160791397 -0.18022128939629 -0.18152220547199
vn -0.90649139881134 -0.26500207185745 -0.32870548963547
vn 0.97852051258087 -0.01246069464833 0.20577263832092
vn 0.9779759645462 -0.0099307494238 0.20848105847836
vn -0.83902102708817 0.52654588222504 0.13708816468716
vn -0.71377903223038 0.67701268196106 0.17936913669109
vn -0.88797044754028 0.4475594162941 0.10582557320595
vn -0.29062828421593 -0.88107937574387 -0.37314116954803
vn 0.97936403751373 -0.01653905771673 0.20142617821693
vn 0.97869694232941 -0.01332306209952 0.20487743616104
vn 0.91175931692123 -0.39616423845291 0.10839233547449
vn 0.9683837890625 -0.1885479092598 0.16334772109985
vn 0.60752993822098 -0.79339694976807 -0.03779722005129
vn 0.34888029098511 -0.92942988872528 -0.12017744779587
vn -0.94392108917236 -0.28020796179771 -0.17463247478008
vn -0.96515494585037 -0.21744899451733 -0.14557439088821
vn -0.59916216135025 0.77226263284683 0.21122309565544
vn -0.3774551153183 0.89392864704132 0.24170058965683
vn -0.9813334941864 -0.15356537699699 -0.11576798558235
vn 0.97834795713425 -0.01168110128492 0.20663700997829
vn -0.5685139298439 -0.77366602420807 -0.2797012925148
vn -0.3031111061573 -0.91841417551041 -0.25424212217331
vn 0.9584641456604 0.18436808884144 -0.21761171519756
vn -0.97936403751373 0.01653905771673 -0.20142617821693
vn -0.89285671710968 -0.36572742462158 -0.26277434825897
vn -0.97909241914749 0.01519277971238 -0.20284774899483
vn -0.97993075847626 0.0193515252322 -0.19839671254158
vn -0.97809690237045 0.01048218738288 -0.20788607001305
vn -0.9779759645462 0.0099307494238 -0.20848105847836
vn 0.85710632801056 0.50398313999176 -0.10662907361984
vn 0.56438338756561 0.81643146276474 0.12211087346077
vn 0.76163256168365 0.64797550439835 -0.00660427007824
vn 0.3959376513958 0.90987622737885 0.12392983585596
vn 0.35567671060562 0.90533185005188 0.23209558427334
vn 0.03398019820452 0.93860322237015 0.34332096576691
vn -0.95991277694702 -0.15563413500786 -0.23312105238438
vn 0.68956565856934 -0.60080724954605 -0.40438821911812
vn 0.76753038167953 0.61567038297653 0.17845757305622
vn 0.48691716790199 0.70712274312973 0.51272708177567
vn 0.6753568649292 0.66161781549454 0.32581436634064
vn -0.97570240497589 0 -0.21910001337528
vn 0.30052801966667 0.69946944713593 0.64840215444565
vn 0.00885456800461 0.64090007543564 0.76757329702377
vn 0.69790327548981 -0.23882763087749 -0.67519807815552
vn 0.87851417064667 0.05578392371535 -0.47444811463356
vn 0.82242208719254 -0.07083593308926 -0.5644503235817
vn -0.97689127922058 0.00507277483121 -0.21367652714252
vn -0.97722768783569 0.00656696315855 -0.21209172904491
vn -0.97621697187424 0.00218036910519 -0.21678471565247
vn -0.97967267036438 0.00217312225141 -0.2005910128355
vn -0.97757536172867 0.00098746060394 -0.2105834633112
vn 0.91690772771835 0.20097059011459 -0.34480577707291
vn 0.91808462142944 0.29750537872314 -0.26193737983704
vn -0.9840224981308 0.00480090407655 -0.1779793202877
vn -0.98622024059296 0.00625591352582 -0.16531926393509
vn -0.97588855028152 0.0007665202138 -0.21826796233654
vn -0.94200211763382 -0.18740218877792 0.27841049432755
vn -0.99309349060059 -0.0799348577857 0.08588191866875
vn -0.65718430280685 -0.38708698749542 0.64673984050751
vn -0.4185297191143 -0.45759823918343 0.78449773788452
vn 0.46367204189301 0.66437041759491 -0.58619129657745
vn 0.83005374670029 0.53892397880554 -0.14342837035656
vn 0.83107680082321 0.55255663394928 -0.06318613141775
vn -0.99252021312714 0.01127382367849 -0.12155889719725
vn -0.99043929576874 0.00944802630693 -0.13762539625168
vn -0.99387508630753 0.01262709870934 -0.10978545248508
vn 0.82353162765503 0.52169841527939 -0.2227698713541
vn 0.22915138304234 0.18761484324932 -0.95513892173767
vn 0.84027355909348 0.54211753606796 -0.00699806725606
vn 0.8276498913765 0.47386538982391 0.30074441432953
vn 0.73264288902283 0.35844984650612 0.57857418060303
vn -0.99641561508179 0.01567243970931 -0.08312814682722
vn -0.9933922290802 0.01212538592517 -0.11412660032511
vn 0.45856803655624 -0.42702281475067 0.77933746576309
vn 0.18996657431126 -0.47938400506973 0.85679852962494
vn 0.83503752946854 -0.25096917152405 0.48961898684502
vn 0.98794656991959 -0.05628014728427 0.14420163631439
vn 0.99069547653198 -0.05873911827803 0.12276893109083
vn 0.98402732610703 -0.05326728522778 0.16986121237278
vn 0.98330068588257 -0.05275212600827 0.1741751730442
vn -0.26745241880417 0.7373753786087 -0.62027955055237
vn -0.64273512363434 0.67202144861221 -0.36780261993408
vn -0.61426478624344 0.65119957923889 -0.44566565752029
vn -0.58129751682281 0.62559008598328 -0.52031743526459
vn 0.12377734482288 0.12961512804031 -0.98380845785141
vn -0.78013753890991 0.58485299348831 0.22210891544819
vn -0.74107944965363 0.66713285446167 -0.0757298246026
vn 0.9867434501648 -0.05528300628066 0.15258175134659
vn 0.93721944093704 -0.14899061620235 0.31531175971031
vn -0.74352568387985 0.44584873318672 0.49838584661484
vn -0.62948280572891 0.76355522871017 0.14399561285973
vn -0.52056163549423 0.75529611110687 0.39817506074905
vn -0.67064017057419 0.73873841762543 -0.0671366751194
vn -0.33748143911362 0.52569264173508 0.78086715936661
vn -0.18630984425545 0.3509196639061 0.91768407821655
vn -0.30261677503586 -0.15573805570602 -0.94030249118805
vn -0.67233890295029 0.41732704639435 -0.61139065027237
vn -0.49649095535278 0.81157410144806 0.30796790122986
vn 0.97649282217026 -0.04841246828437 0.21004277467728
vn 0.98036849498749 -0.05074734985828 0.19053176045418
vn 0.97221779823303 -0.04602356255054 0.2295088917017
vn 0.95397073030472 -0.29960572719574 -0.01327466126531
vn 0.97487533092499 -0.15665885806084 0.15835447609425
vn 0.95700973272324 -0.03897085413337 0.28742584586143
vn 0.72247350215912 -0.5649157166481 -0.39862555265427
vn 0.49392089247704 -0.650754570961 -0.5766806602478
vn -0.17346861958504 0.11562783271074 0.97802805900574
vn 0.33679831027985 0.40226867794991 0.8513206243515
vn 0.4250425696373 0.3324890434742 0.84189659357071
vn 0.1368603259325 0.54034805297852 0.83023685216904
vn 0.54927635192871 0.2128536850214 0.80807721614838
vn 0.58073455095291 0.18495471775532 0.79280459880829
vn 0.17151542007923 -0.28348255157471 -0.94351476430893
vn 0.29139590263367 -0.59582877159119 -0.74838256835938
vn 0.23714250326157 -0.36920586228371 -0.89858245849609
vn 0.89021128416061 -0.4510486125946 0.06386675685644
vn 0.86955189704895 -0.49176889657974 -0.04519799351692
vn 0.89841997623444 -0.40403378009796 0.17204131186008
vn -0.428816229105 -0.51568168401718 -0.74174731969833
vn -0.14588439464569 -0.62382614612579 -0.76782721281052
vn -0.80987066030502 -0.22618661820889 -0.5412477850914
vn -0.95702797174454 0.03903827816248 -0.28735598921776
vn 0.10188028216362 -0.11113765835762 -0.98856908082962
vn 0.16465619206429 -0.11419650167227 -0.9797180891037
vn 0.03866377472878 -0.10761545598507 -0.99344050884247
vn -0.98032814264297 0.05075515806675 -0.19073724746704
vn -0.90871495008469 -0.08163741976023 -0.40935617685318
vn 0.86024290323257 -0.35701280832291 0.3640384376049
vn 0.79886603355408 -0.34701982140541 0.49131485819817
vn 0.88341492414474 -0.36748546361923 0.29074478149414
vn 0.74134063720703 -0.33027356863022 0.58423745632172
vn 0.62810701131821 -0.30605989694595 0.71540820598602
vn 0.47981232404709 -0.01246287301183 -0.87728261947632
vn 0.82569217681885 -0.3541456758976 0.43910509347916
vn 0.18116576969624 -0.2799351811409 0.94277000427246
vn -0.98422503471375 0.05340540409088 -0.16866818070412
vn -0.983263194561 0.05271888524294 -0.17439675331116
vn -0.9867434501648 0.05528300628066 -0.15258175134659
vn -0.98637080192566 0.05499541014433 -0.15507455170155
vn -0.83509945869446 0.25095334649086 -0.48952147364616
vn -0.93705409765244 0.14925375580788 -0.31567850708961
vn -0.45894148945808 0.42686933279037 -0.77920168638229
vn -0.19006618857384 0.47933331131935 -0.85680478811264
vn -0.98752224445343 0.05592910200357 -0.14721317589283
# 178 normals

vt 0.49995157122612 0.00212597846985 0
vt 0.5 0 0
vt 0.5 0.00239622592926 0
vt 0.49946200847626 0.00165581703186 0
vt 0.2547627389431 0.75476276874542 0
vt 0.25495859980583 0.75495862960815 0
vt 0.49977412819862 0.00184786319733 0
vt 0.25515449047089 0.75515449047089 0
vt 0.50004839897156 0.00212597846985 0
vt 0.50022584199905 0.00184786319733 0
vt 0.25535038113594 0.75535035133362 0
vt 0.5 1 0
vt 0.74464964866638 0.75535035133362 0
vt 0.50053799152374 0.00165581703186 0
vt 0.74484550952911 0.75515449047089 0
vt 0.74504137039185 0.75495862960815 0
vt 0.74523729085922 0.75476276874542 0
vt 0.72123175859451 0.68088132143021 0
vt 0.7209849357605 0.68092042207718 0
vt 0.72073811292648 0.68095946311951 0
vt 0.72049129009247 0.68099856376648 0
vt 0.2555835545063 0.75463271141052 0
vt 0.25530993938446 0.75467610359192 0
vt 0.25503632426262 0.75471937656403 0
vt 0.72100907564163 0.68099474906921 0
vt 0.19191606342793 0.95058107376099 0
vt 0.72056376934052 0.68122166395187 0
vt 0.72078639268875 0.68110823631287 0
vt 0.19167397916317 0.95066893100739 0
vt 0.19139903783798 0.95069444179535 0
vt 0.19111704826355 0.95064401626587 0
vt 0.74496364593506 0.75471937656403 0
vt 0.74469006061554 0.75467610359192 0
vt 0.27926191687584 0.68095946311951 0
vt 0.27950873970985 0.68099856376648 0
vt 0.27901509404182 0.68092042207718 0
vt 0.27876827120781 0.68088132143021 0
vt 0.74441647529602 0.75463271141052 0
vt 0.27899092435837 0.68099474906921 0
vt 0.27921357750893 0.68110823631287 0
vt 0.80832600593567 0.95066893100739 0
vt 0.80808395147324 0.95058107376099 0
vt 0.27943626046181 0.68122166395187 0
vt 0.80860096216202 0.95069444179535 0
vt 0.80888295173645 0.95064401626587 0
# 45 texture coordinates

o Decagon_web
usemtl Mat
f 7/1/1 15/2/2 17/3/3
f 3/4/4 2/5/4 11/6/5 6/7/5
f 6/7/5 11/6/5 14/8/6 7/1/6
f 8/9/7 15/2/8 4/10/8
f 17/3/9 15/2/9 8/9/9
f 13/11/10 1/12/10 17/3/10
f 1/12/10 16/13/10 17/3/10
f 7/1/6 14/8/6 13/11/11 17/3/11
f 4/10/8 15/2/8 5/14/12
f 6/7/13 15/2/2 7/1/1
f 3/4/14 15/2/2 6/7/13
f 17/3/15 16/13/15 12/15/16 8/9/16
f 8/9/16 12/15/16 10/16/17 4/10/17
f 4/10/17 10/16/17 9/17/18 5/14/18
f 26/10/19 15/2/20 21/9/21
f 20/14/22 27/18/22 29/19/23 26/10/23
f 26/10/23 29/19/23 18/20/24 21/9/24
f 21/9/24 18/20/24 25/21/25 23/3/25
f 25/21/26 22/22/26 23/3/26
f 21/9/21 15/2/20 23/3/27
f 23/3/28 22/22/28 28/23/29 24/1/29
f 20/14/30 15/2/20 26/10/19
f 24/1/29 28/23/29 30/24/31 19/7/31
f 19/7/31 30/24/31 2/5/32 3/4/32
f 23/3/33 15/2/33 24/1/33
f 19/7/34 15/2/34 3/4/35
f 24/1/36 15/2/34 19/7/34
f 33/10/37 41/25/37 27/18/38 20/14/38
f 36/1/39 15/2/40 42/3/41
f 42/3/42 15/2/42 35/9/42
f 43/26/43 39/27/43 42/3/43
f 35/9/44 32/28/44 41/25/37 33/10/37
f 36/1/45 38/29/45 43/26/46 42/3/46
f 40/7/47 31/30/47 38/29/45 36/1/45
f 34/4/48 37/31/48 31/30/47 40/7/47
f 35/9/49 15/2/50 33/10/50
f 40/7/51 15/2/40 36/1/39
f 34/4/52 15/2/40 40/7/51
f 33/10/50 15/2/50 20/14/53
f 42/3/54 39/27/54 32/28/44 35/9/44
f 47/7/55 51/30/55 37/31/56 34/4/56
f 46/1/57 15/2/57 47/7/57
f 54/27/58 52/26/58 53/3/58
f 46/1/59 49/29/59 51/30/55 47/7/55
f 45/9/60 56/28/60 54/27/61 53/3/61
f 44/10/62 55/25/62 56/28/60 45/9/60
f 48/14/63 50/18/63 55/25/62 44/10/62
f 48/14/64 15/2/65 44/10/66
f 47/7/67 15/2/67 34/4/67
f 44/10/66 15/2/65 45/9/68
f 45/9/68 15/2/65 53/3/69
f 53/3/70 52/26/70 49/29/59 46/1/59
f 53/3/71 15/2/71 46/1/71
f 65/4/72 15/2/73 64/7/74
f 69/22/75 67/21/75 68/3/75
f 64/7/74 15/2/73 60/1/76
f 60/1/76 15/2/73 68/3/77
f 68/3/78 15/2/79 59/9/80
f 58/10/81 57/19/81 50/18/82 48/14/82
f 59/9/83 66/20/83 57/19/81 58/10/81
f 60/1/84 61/23/84 69/22/85 68/3/85
f 58/10/86 15/2/79 48/14/87
f 64/7/88 62/24/88 61/23/84 60/1/84
f 65/4/89 63/5/89 62/24/88 64/7/88
f 59/9/80 15/2/79 58/10/86
f 68/3/90 67/21/90 66/20/83 59/9/83
f 80/9/91 76/15/91 74/13/92 72/3/92
f 79/10/93 75/16/93 76/15/91 80/9/91
f 77/14/94 70/17/94 75/16/93 79/10/93
f 77/14/95 15/2/95 79/10/95
f 81/7/96 15/2/96 65/4/97
f 81/7/98 78/6/98 63/5/99 65/4/99
f 82/1/100 83/8/100 78/6/98 81/7/98
f 82/1/101 15/2/96 81/7/96
f 72/3/102 15/2/102 82/1/102
f 79/10/103 15/2/104 80/9/104
f 80/9/104 15/2/104 72/3/105
f 74/13/106 71/12/106 72/3/106
f 71/12/106 73/11/106 72/3/106
f 72/3/107 73/11/107 83/8/100 82/1/100
f 94/10/108 84/32/108 70/17/109 77/14/109
f 92/9/110 96/33/110 84/32/108 94/10/108
f 91/1/111 93/34/111 88/35/112 89/3/112
f 87/7/113 95/36/113 93/34/111 91/1/111
f 86/4/114 85/37/114 95/36/113 87/7/113
f 94/10/115 15/2/115 77/14/115
f 86/4/116 15/2/117 87/7/117
f 87/7/117 15/2/117 91/1/118
f 91/1/119 15/2/119 89/3/119
f 92/9/120 15/2/120 94/10/121
f 88/35/122 90/38/122 89/3/122
f 89/3/123 90/38/123 96/33/110 92/9/110
f 89/3/124 15/2/120 92/9/120
f 108/7/125 15/2/126 86/4/127
f 107/1/128 15/2/126 108/7/125
f 105/3/129 15/2/126 107/1/128
f 103/9/130 15/2/130 105/3/130
f 102/10/131 15/2/131 103/9/131
f 101/14/132 15/2/132 102/10/132
f 108/7/133 100/39/133 85/37/134 86/4/134
f 107/1/135 109/40/135 100/39/133 108/7/133
f 103/9/136 97/41/136 104/42/137 105/3/137
f 104/42/138 106/43/138 105/3/138
f 102/10/139 98/44/139 97/41/136 103/9/136
f 101/14/140 99/45/140 98/44/139 102/10/139
f 105/3/129 106/43/141 109/40/141 107/1/128
f 118/10/142 15/2/143 101/14/144
f 117/9/145 15/2/143 118/10/142
f 120/3/146 15/2/143 117/9/145
f 116/1/147 15/2/148 120/3/149
f 115/7/150 15/2/150 116/1/151
f 114/4/152 15/2/150 115/7/150
f 118/10/153 113/44/153 99/45/154 101/14/154
f 117/9/155 122/41/155 113/44/153 118/10/153
f 119/43/156 121/42/156 120/3/156
f 116/1/147 110/40/157 119/43/158 120/3/149
f 115/7/159 111/39/159 110/40/157 116/1/147
f 114/4/160 112/37/160 111/39/160 115/7/160
f 120/3/161 121/42/161 122/41/155 117/9/155
f 129/7/162 15/2/163 114/4/164
f 128/1/165 15/2/163 129/7/162
f 133/3/166 15/2/163 128/1/165
f 127/9/167 15/2/167 133/3/167
f 126/10/168 15/2/168 127/9/168
f 5/14/169 15/2/169 126/10/169
f 129/7/170 125/36/170 112/37/171 114/4/171
f 132/38/172 131/35/172 133/3/172
f 128/1/173 130/34/173 125/36/170 129/7/170
f 127/9/174 123/33/174 132/38/175 133/3/175
f 126/10/176 124/32/176 123/33/174 127/9/174
f 5/14/177 9/17/177 124/32/176 126/10/176
f 133/3/178 131/35/178 130/34/173 128/1/173

