# WaveFront *.obj file (generated by CINEMA 4D)

mtllib ./DecagonShape_73.mtl

v 0.00000064463529 0.00331364711747 -0.00003996486703
v 0.00178951886483 0.00163055583835 0.00000554362578
v 0.00001540857193 -0.00352760939859 -0.00002307285831
v -0.00000072596202 -0.0035227893386 -0.00003893941903
v -0.00000145428032 -0.00352362287231 -0.00003666495832
v 0.00001136632545 -0.00352569087408 -0.00003455884871
v 0.00000449741674 -0.00352204986848 -0.00003926716454
v 0.00000135896187 -0.00352129293606 -0.00003977228698
v -0.00177556439303 0.00163454236463 -0.00006528144149
v -0.00177538371645 0.00163549522404 -0.00006694540934
v 0.00178775924724 0.00163204269484 -0.00000281168877
v -0.00177445623558 0.00163667951711 -0.00006815069355
v 0.00177439476829 0.00163799792062 -0.00001135419188
v 0.00178219587542 0.00163468637038 -0.00000899716269
v 0.00000694849314 -0.00353681109846 -0.00003187681432
v -0.0017731054686 0.00163799792062 -0.00006857554399
v 0.00000064463529 -0.00351912085898 -0.00003996486703
v -0.0016034754226 0.00112750683911 -0.00003119175017
v 0.00001099798556 -0.00352569087408 -0.00001172321208
v -0.00000859988359 -0.00352561846375 0.00000319505057
v 0.00000066880807 -0.00352132506669 -0.00000670766258
v 0.00177216704469 0.00163308240008 0.00002191760541
v 0.00000010751968 -0.00351912085898 -0.0000066657999
v 0.00000398230713 -0.00352205056697 -0.00000722841605
v -0.0015984904021 0.00112874875776 -0.00003245126209
v -0.00000602836144 -0.00352424173616 -0.00000362210358
v -0.00160866591614 0.00112651952077 -0.00002261409281
v 0.00178060366306 0.00163140927907 0.00001982249523
v -0.00160719128326 0.00112666585483 -0.00002759095878
v 0.00178692722693 0.0016304042656 0.0000138287578
v 0.00223674601875 0.00297608878464 0.00004796789653
v -0.00160410511307 0.00112852547318 -0.00001387914654
v -0.00000624956419 -0.00352424173616 0.00001009159405
v 0.00000188387685 -0.00352362287231 0.00001003168836
v -0.00000231096874 -0.00352150923572 0.000012912069
v -0.00000039662578 -0.00352112925611 0.00001317012084
v 0.00223743566312 0.00297616864555 0.00004609124517
v 0.00223516137339 0.00297578284517 0.00004908365372
v -0.00159933860414 0.00113027659245 -0.00001246234115
v 0.00000115555838 -0.0035227893386 0.00001230615089
v -0.00160752772354 0.00112717540469 -0.00001759508268
v -0.00000021503936 -0.00351912085898 0.0000133315998
v 0.00223344424739 0.00297516793944 0.00004936063488
v -0.00000144433193 -0.0035227893386 0.00000559668069
v -0.00000044854374 -0.00352096930146 0.00000654523365
v 0.00000022075437 -0.00352097139694 0.00000678452852
v 0.00000122929259 -0.0035227893386 0.00000773491865
v -0.00000209891618 -0.00352362287231 0.00000329991144
v 0.00223525916226 0.00297578284517 0.00004302704838
v -0.00160216493532 0.00112851522863 -0.00002250923171
v 0.00223680702038 0.00297608878464 0.00004419333345
v 0.00223355181515 0.00297516793944 0.00004269483543
v -0.00000010751967 -0.00351912085898 0.0000066657999
v -0.00159923103638 0.00113027659245 -0.0000191281415
v -0.00160184397828 0.00112890347373 -0.00002083717118
v -0.00160076154862 0.00112952315249 -0.00001959946712
v -0.00160161510576 0.00112839404028 -0.00002416724601
v -0.00000137059772 -0.0035227893386 0.00000102544823
v 0.00000119740628 -0.00352144683711 -0.00000005433006
v 0.00000564324273 -0.00352259213105 -0.00000078436227
v 0.00178376107942 0.00163041171618 0.00002564767783
v 0.00179250340443 0.00162867608014 0.00001725246875
v 0.00179601961281 0.00162856047973 0.00000564848415
v 0.00001565574894 -0.00352714303881 -0.00000707566051
v 0.00002190953819 -0.0035296047572 -0.00002296799721
v -0.00160031800624 0.00112850451842 -0.00002536656757
v -0.00159859796986 0.00112874875776 -0.00002578546264
v 0.00000000000001 -0.00351912085898 0
v 0.00177205947693 0.00163308240008 0.00002858340667
v -0.00178206537385 0.00163254665677 -0.00006538630259
v 0.00000075215496 0.00331364711747 -0.00004663066647
v 0.00000075215496 -0.00351912085898 -0.00004663066647
v 0.00177450233605 0.00163799792062 -0.00001801999133
v -0.00177299801726 0.00163799792062 -0.00007524134708
v -0.00178096012678 0.001633767155 -0.00007036912575
v -0.00177761341911 0.0016356818378 -0.00007397586887
v -0.00000795524738 -0.00352561846375 -0.00003676981942
v 0.00179344310891 0.00163031485863 -0.00000605377363
v -0.00000538372569 -0.00352424173616 -0.0000435869697
v -0.00000135814741 -0.00352151016705 -0.00004628929673
v 0.00001617155795 -0.00352714303881 -0.0000390537607
v 0.0000034201787 -0.00352200120687 -0.00004630677722
v 0.00178553955629 0.00163368880749 -0.00001471748419
v -0.00178055779543 0.00163212872576 -0.00006036133345
v 0.00160247273743 0.00112851965241 0.00000252656332
v 0.00000240663985 -0.00352361844853 -0.00002328258051
v 0.00000175586251 -0.00352278607897 -0.00002556902473
v 0.0015990275424 0.00112874875776 -0.00000084780686
v 0.00000042959596 -0.00351912085898 -0.00002663326995
v -0.0017716299044 0.00163308240008 -0.00005521667481
v 0.00000026527076 -0.00352113042027 -0.00002663164378
v -0.00000166859888 -0.00352151016705 -0.00002704252074
v 0.00160072592553 0.00112850673031 -0.00000037577524
v -0.00000560492845 -0.00352424173616 -0.00002987327389
v 0.00160197843798 0.0011283979984 0.00000085919072
v -0.00177676568273 0.00163240509573 -0.00005663943739
v -0.00223505380563 0.00297578284517 -0.00005574945317
v -0.00223663868383 0.00297608878464 -0.00005463369598
v -0.00223732809536 0.00297616864555 -0.00005275704461
v 0.00160209997557 0.00112890719902 0.0000041799517
v -0.00000177635718 -0.00352362287231 -0.00001669748599
v -0.00000104803871 -0.0035227893386 -0.00001897194852
v -0.00000001057374 -0.00352097116411 -0.0000198892867
v -0.00223333691247 0.00297516793944 -0.00005602643068
v 0.000000322559 -0.00351912085898 -0.00001999739834
v 0.00159944605548 0.00113027659245 0.00000579654352
v 0.00000066332319 -0.00352096813731 -0.0000201064031
v 0.00000168245936 -0.00352278607897 -0.00002101831524
v 0.00160098355263 0.00112952536438 0.00000537670894
v 0.00160414096899 0.00112852780148 0.00001120189154
v 0.00160767626949 0.00112717912998 0.00000760366447
v 0.00160897371825 0.00112652394455 0.00000263142465
v -0.00223669945262 0.00297608878464 -0.0000508591329
v 0.00000890760657 -0.00352561403997 -0.00002317771941
v 0.00000634022308 -0.00352423847653 -0.00001637076275
v 0.00000231943818 -0.00352150807157 -0.00001368281482
v 0.00000040053897 -0.00352112902328 -0.00001348710339
v -0.00000112177293 -0.0035227893386 -0.00001440071628
v 0.00159933860414 0.00113027659245 0.00001246234297
v 0.00000021503934 -0.00351912085898 -0.00001333159798
v -0.00223344424739 0.00297516793944 -0.00004936063124
v -0.0022351515945 0.00297578284517 -0.00004969284419
v -0.00177342211828 0.00163340277504 -0.00006235975889
v -0.00177487405017 0.00163385691121 -0.00006360342377
v 0.00160766206682 0.00112666992936 -0.00000238289749
v -0.00000079969618 -0.0035227893386 -0.00003436818952
v 0.00000074158157 -0.00352113507688 -0.00003338669922
v 0.00000263499214 -0.00352150970139 -0.00003290033419
v 0.00000656109432 -0.00352423847653 -0.0000300639349
v 0.00160406948999 0.001127509051 -0.00000609609606
v 0.00159913511015 0.00112874875776 -0.00000751360585
v -0.00177152233664 0.00163308240008 -0.00006188247789
v 0.00000053711562 -0.00351912085898 -0.00003329906758
# 133 vertices

vn 0.10602395236492 -0.40978041291237 -0.90600162744522
vn 0.40893346071243 -0.44663512706757 -0.79579550027847
vn -0.21020779013634 -0.44083794951439 -0.87262511253357
vn -0.91411030292511 0.27912810444832 0.2940916121006
vn -0.79608964920044 0.24158196151257 0.55486887693405
vn -0.42205512523651 0.12502235174179 0.89790803194046
vn -0.02649040333927 -0.43735206127167 -0.8989000916481
vn 0.95889216661453 0.27568000555038 -0.06727847456932
vn -0.0161279514432 0 0.9998699426651
vn -0.21009613573551 0.05958314239979 0.97586345672607
vn -0.71246165037155 -0.55213952064514 -0.43305933475494
vn 0.67147517204285 -0.38199976086617 -0.63497817516327
vn 0.8536456823349 -0.38276198506355 -0.35324540734291
vn 0.70643329620361 0.22026395797729 0.67263346910477
vn 0.61238980293274 0.1918318271637 0.76692849397659
vn 0.74962383508682 0.23314027488232 0.61944305896759
vn 0.90417039394379 0.27906528115273 0.32341685891151
vn 0.56602549552917 -0.62117260694504 0.54199606180191
vn -0.90416634082794 -0.27910330891609 -0.32339528203011
vn -0.76072645187378 -0.23646208643913 -0.60446745157242
vn -0.27210256457329 -0.08826174587011 -0.95821189880371
vn 0.02048552036285 0.00133188080508 -0.99978923797607
vn 0.0161279514432 0 -0.9998699426651
vn 0.97174662351608 0.2191893607378 0.08754756301641
vn -0.17745569348335 0.05922093242407 -0.98234534263611
vn -0.39262014627457 0.12493220716715 -0.91117584705353
vn 0.92844754457474 0.10505448281765 0.35629856586456
vn -0.77793735265732 0.24167010188103 -0.58000779151916
vn -0.90414386987686 0.27918556332588 -0.32338723540306
vn -0.55566042661667 -0.728391289711 0.40085855126381
vn -0.35717064142227 -0.80547833442688 0.47289931774139
vn 0.55314302444458 -0.75980705022812 0.34165191650391
vn -0.137815117836 -0.84203380346298 0.52152281999588
vn -0.7960062623024 -0.24155497550964 0.55500024557114
vn -0.91411846876144 -0.27913075685501 0.29406368732452
vn 0.97798496484756 -0.09289550036192 0.18685773015022
vn -0.70448303222656 0.61080187559128 -0.36142045259476
vn -0.33476936817169 0.87014722824097 -0.36162588000298
vn -0.55123317241669 0.7431361079216 -0.37932926416397
vn -0.42224469780922 -0.12508253753185 0.89781051874161
vn 0.37875038385391 -0.1207685098052 0.91758549213409
vn 0.24454122781754 -0.07982709258795 0.9663473367691
vn 0.74296426773071 -0.23109677433968 0.62817066907883
vn 0.89802831411362 -0.27726167440414 0.34157159924507
vn -0.10994996875525 0.93686211109161 -0.33196437358856
vn 0.51949506998062 0.82710075378418 -0.21454431116581
vn 0.72667461633682 0.67327600717545 -0.1365407705307
vn 0.26823708415031 0.922287940979 -0.27826932072639
vn 0.16260096430779 0.95306318998337 -0.25540456175804
vn -0.21085999906063 -0.05979429930449 0.97568577528
vn 0.77994507551193 -0.2364606410265 -0.57945841550827
vn 0.90857738256454 -0.27726167440414 -0.31243094801903
vn -0.95424515008926 -0.29764872789383 -0.02865966781974
vn -0.93403542041779 -0.35718023777008 -0.00038531047176
vn -0.892005443573 -0.44963157176971 0.04645171761513
vn 0.3910439312458 -0.11546229571104 -0.91310083866119
vn 0.42057240009308 0.12460195273161 -0.89866191148758
vn 0.20359621942043 0.0576199516654 -0.97735792398453
vn 0.79699552059174 0.24184462428093 -0.55345219373703
vn 0.91413074731827 0.27906531095505 -0.29408755898476
vn -0.02274260111153 -0.9303081035614 0.36607319116592
vn -0.88058108091354 -0.47058206796646 0.05594156309962
vn 0.74579179286957 -0.54848724603653 0.37809565663338
vn 0.87231200933456 -0.36793267726898 0.32202062010765
vn 0.95264011621475 -0.17205458879471 0.25074687600136
vn 0.18137902021408 -0.05079287663102 -0.98210066556931
vn -0.98255449533463 -0.16103363037109 -0.09303116053343
vn -0.32115587592125 0.90765976905823 -0.27020850777626
vn 0.12221220880747 0.91814094781876 -0.37693682312965
vn -0.07799738645554 0.92955809831619 -0.36033067107201
vn 0.33671677112579 0.8517490029335 -0.40142923593521
vn 0.49131846427917 0.7906459569931 -0.36535611748695
vn -0.90668898820877 -0.4177363216877 0.05840746685863
vn 0.75476789474487 0.23468597233295 0.61257487535477
vn 0.90417194366455 0.27909535169601 0.32338654994965
vn 0.52061063051224 0.16395953297615 0.83790326118469
vn 0.39259332418442 -0.12493383139372 0.91118717193604
vn 0.17742478847504 -0.05922129750252 0.98235088586807
vn -0.96148997545242 0.07287444919348 -0.26500254869461
vn 0.7779306769371 -0.24164798855782 0.58002591133118
vn 0.9041513800621 -0.27915817499161 0.32338991761208
vn -0.59119993448257 0.67108672857285 -0.44735360145569
vn 0.93521857261658 0.28629463911057 -0.20833057165146
vn -0.3925918340683 -0.12496352940798 -0.91118371486664
vn -0.17742446064949 -0.05925143882632 -0.98234915733337
vn -0.77793449163437 -0.24160961806774 -0.58003687858582
vn -0.90417194366455 -0.27909535169601 -0.32338654994965
vn 0.52726930379868 0.77173459529877 0.35554575920105
vn 0.03397133946419 0.71191829442978 0.70144015550613
vn 0.2889846265316 0.76057428121567 0.58139026165009
vn -0.39492070674896 0.72752010822296 0.56102776527405
vn -0.5979528427124 0.7339329123497 0.3221720457077
vn 0.78740555047989 -0.23896752297878 -0.56823146343231
vn 0.91409039497375 -0.27922096848488 -0.29406529664993
vn 0.39530020952225 -0.11675224453211 -0.91110187768936
vn -0.15193594992161 0.64907550811768 0.74539685249329
vn 0.64586168527603 0.58506965637207 0.49046531319618
vn -0.22489561140537 0.58170086145401 0.7816943526268
vn -0.45080381631851 0.45847529172897 0.76588273048401
vn 0.18294396996498 -0.05106524005532 -0.98179620504379
vn -0.79624462127686 -0.24164198338985 0.55462026596069
vn -0.42180126905441 -0.12496189773083 0.89803576469421
vn -0.3823689520359 0.11279107630253 0.91709983348846
vn -0.14742733538151 0.04033506289124 0.98825007677078
vn -0.78954219818115 0.23948755860329 0.56503880023956
vn -0.91413074731827 0.27906531095505 0.29408755898476
vn 0.52456092834473 0.56340426206589 -0.63828790187836
vn 0.33095851540565 0.48438775539398 -0.80983638763428
vn 0.67062777280807 0.65109527111053 -0.35543397068977
vn 0.92817068099976 0.35460871458054 -0.11292409151793
vn 0.88382440805435 0.39684981107712 -0.24771876633167
vn 0.81957590579987 0.4306153357029 -0.37797585129738
vn 0.56999415159225 -0.04088456183672 0.82063096761703
vn 0.11221991479397 0.33420673012733 -0.93579512834549
vn -0.20904532074928 -0.05925107002258 0.97610932588577
vn -0.10278566926718 0.23520880937576 -0.96649467945099
vn 0.96039837598801 0.15310211479664 0.23279756307602
vn -0.69620436429977 -0.55999433994293 0.44911670684814
vn -0.94938361644745 -0.14069400727749 -0.2808486521244
vn 0.79839080572128 -0.10746410489082 0.59247249364853
vn 0.85435777902603 -0.01509401574731 0.51946604251862
vn 0.80656719207764 -0.09753645211458 0.58304035663605
vn 0.87440413236618 0.02698591537774 0.48444727063179
vn 0.92217034101486 0.16950063407421 0.34766566753387
vn -0.7787452340126 0.24184884130955 -0.57884800434113
vn -0.90417194366455 0.27909535169601 -0.32338654994965
vn -0.3913702070713 0.12460195273161 -0.9117586016655
vn -0.36141902208328 -0.11546090245247 -0.92522704601288
vn -0.14954800903797 -0.0507632419467 -0.98745048046112
vn -0.76087826490402 -0.23645919561386 -0.60427749156952
vn -0.89802831411362 -0.27726167440414 -0.34157159924507
vn -0.17196886241436 0.0576199516654 -0.98341578245163
vn 0.49766075611114 0.75516110658646 -0.42669132351875
vn -0.34034979343414 0.63555991649628 -0.69298315048218
vn -0.96049576997757 -0.05941519513726 -0.27187803387642
vn 0.4386000931263 0.71951216459274 -0.53845357894897
vn 0.70394313335419 0.60525834560394 -0.37165361642838
vn 0.11828936636448 0.75353538990021 -0.64667773246765
vn -0.82697540521622 0.4094298183918 -0.38532966375351
vn -0.76287358999252 -0.23112834990025 0.60382413864136
vn -0.90857738256454 -0.27726167440414 0.31243094801903
vn -0.40801912546158 -0.12073799222708 0.90495455265045
vn 0.39303076267242 -0.12508064508438 0.91097843647003
vn 0.17925155162811 -0.05982480570674 0.98198264837265
vn 0.77767831087112 -0.24155074357986 0.58040475845337
vn 0.90416634082794 -0.27910330891609 0.32339528203011
vn -0.27520325779915 -0.07970773428679 0.95807611942291
vn -0.83764791488647 -0.09587475657463 0.53773039579391
vn -0.5818880200386 -0.07154139876366 0.81011617183685
vn -0.95344883203506 -0.06612481176853 0.29421561956406
vn -0.43355655670166 -0.05274885520339 0.89958119392395
vn -0.3127758204937 -0.02975203283131 0.94936090707779
vn -0.46107882261276 -0.08327446132898 0.88344311714172
vn -0.4770260155201 -0.08972439914942 0.8742972612381
vn -0.8560044169426 -0.36026841402054 0.37076020240784
vn 0.7964962720871 -0.24173314869404 -0.55421900749207
vn 0.91411846876144 -0.27913075685501 -0.29406368732452
vn 0.42142197489738 -0.12484149634838 -0.89823055267334
vn 0.41453146934509 0.12274464964867 -0.9017191529274
vn 0.23741333186626 0.06803669035435 -0.96902316808701
vn 0.783771276474 0.23768492043018 -0.5737669467926
vn 0.91414707899094 0.27907058596611 -0.29403176903725
vn 0.20726090669632 -0.05867709591985 -0.97652441263199
# 163 normals

vt 0.49995157122612 0.00212597846985 0
vt 0.5 0 0
vt 0.5 0.00239622592926 0
vt 0.49946200847626 0.00165581703186 0
vt 0.2547627389431 0.75476276874542 0
vt 0.25495859980583 0.75495862960815 0
vt 0.49977412819862 0.00184786319733 0
vt 0.25515449047089 0.75515449047089 0
vt 0.50004839897156 0.00212597846985 0
vt 0.50022584199905 0.00184786319733 0
vt 0.25535038113594 0.75535035133362 0
vt 0.5 1 0
vt 0.74464964866638 0.75535035133362 0
vt 0.50053799152374 0.00165581703186 0
vt 0.74484550952911 0.75515449047089 0
vt 0.74504137039185 0.75495862960815 0
vt 0.74523729085922 0.75476276874542 0
vt 0.72123175859451 0.68088132143021 0
vt 0.7209849357605 0.68092042207718 0
vt 0.72073811292648 0.68095946311951 0
vt 0.72049129009247 0.68099856376648 0
vt 0.2555835545063 0.75463271141052 0
vt 0.25530993938446 0.75467610359192 0
vt 0.25503632426262 0.75471937656403 0
vt 0.72100907564163 0.68099474906921 0
vt 0.19191606342793 0.95058107376099 0
vt 0.72056376934052 0.68122166395187 0
vt 0.72078639268875 0.68110823631287 0
vt 0.19167397916317 0.95066893100739 0
vt 0.19139903783798 0.95069444179535 0
vt 0.19111704826355 0.95064401626587 0
vt 0.74496364593506 0.75471937656403 0
vt 0.74469006061554 0.75467610359192 0
vt 0.27926191687584 0.68095946311951 0
vt 0.27950873970985 0.68099856376648 0
vt 0.27901509404182 0.68092042207718 0
vt 0.27876827120781 0.68088132143021 0
vt 0.74441647529602 0.75463271141052 0
vt 0.27899092435837 0.68099474906921 0
vt 0.27921357750893 0.68110823631287 0
vt 0.80832600593567 0.95066893100739 0
vt 0.80808395147324 0.95058107376099 0
vt 0.27943626046181 0.68122166395187 0
vt 0.80860096216202 0.95069444179535 0
vt 0.80888295173645 0.95064401626587 0
# 45 texture coordinates

o Decagon_web
usemtl Mat
f 7/1/1 15/2/2 17/3/3
f 3/4/4 2/5/4 11/6/5 6/7/5
f 6/7/5 11/6/5 14/8/6 7/1/6
f 8/9/7 15/2/7 4/10/7
f 17/3/8 15/2/8 8/9/8
f 13/11/9 1/12/9 17/3/9
f 1/12/9 16/13/9 17/3/9
f 7/1/6 14/8/6 13/11/10 17/3/10
f 4/10/11 15/2/11 5/14/11
f 6/7/12 15/2/2 7/1/1
f 3/4/13 15/2/2 6/7/12
f 17/3/14 16/13/14 12/15/15 8/9/15
f 8/9/15 12/15/15 10/16/16 4/10/16
f 4/10/16 10/16/16 9/17/17 5/14/17
f 26/10/18 15/2/18 21/9/18
f 20/14/19 27/18/19 29/19/20 26/10/20
f 26/10/20 29/19/20 18/20/21 21/9/21
f 21/9/21 18/20/21 25/21/22 23/3/22
f 25/21/23 22/22/23 23/3/23
f 21/9/24 15/2/24 23/3/24
f 23/3/25 22/22/25 28/23/26 24/1/26
f 20/14/27 15/2/27 26/10/27
f 24/1/26 28/23/26 30/24/28 19/7/28
f 19/7/28 30/24/28 2/5/29 3/4/29
f 23/3/30 15/2/31 24/1/31
f 19/7/32 15/2/32 3/4/32
f 24/1/31 15/2/31 19/7/33
f 33/10/34 41/25/34 27/18/35 20/14/35
f 36/1/36 15/2/36 42/3/36
f 42/3/37 15/2/38 35/9/39
f 43/26/9 39/27/9 42/3/9
f 35/9/40 32/28/40 41/25/34 33/10/34
f 36/1/41 38/29/41 43/26/42 42/3/42
f 40/7/43 31/30/43 38/29/41 36/1/41
f 34/4/44 37/31/44 31/30/43 40/7/43
f 35/9/39 15/2/38 33/10/45
f 40/7/46 15/2/46 36/1/47
f 34/4/48 15/2/46 40/7/46
f 33/10/45 15/2/38 20/14/49
f 42/3/50 39/27/50 32/28/40 35/9/40
f 47/7/51 51/30/51 37/31/52 34/4/52
f 46/1/53 15/2/54 47/7/55
f 54/27/23 52/26/23 53/3/23
f 46/1/56 49/29/56 51/30/51 47/7/51
f 45/9/57 56/28/57 54/27/58 53/3/58
f 44/10/59 55/25/59 56/28/57 45/9/57
f 48/14/60 50/18/60 55/25/59 44/10/59
f 48/14/61 15/2/61 44/10/61
f 47/7/55 15/2/54 34/4/62
f 44/10/63 15/2/64 45/9/64
f 45/9/64 15/2/64 53/3/65
f 53/3/66 52/26/66 49/29/56 46/1/56
f 53/3/67 15/2/54 46/1/53
f 65/4/68 15/2/69 64/7/70
f 69/22/9 67/21/9 68/3/9
f 64/7/70 15/2/69 60/1/71
f 60/1/71 15/2/69 68/3/72
f 68/3/73 15/2/73 59/9/73
f 58/10/74 57/19/74 50/18/75 48/14/75
f 59/9/76 66/20/76 57/19/74 58/10/74
f 60/1/77 61/23/77 69/22/78 68/3/78
f 58/10/79 15/2/79 48/14/79
f 64/7/80 62/24/80 61/23/77 60/1/77
f 65/4/81 63/5/81 62/24/80 64/7/80
f 59/9/82 15/2/82 58/10/82
f 68/3/83 67/21/83 66/20/83 59/9/83
f 80/9/84 76/15/84 74/13/85 72/3/85
f 79/10/86 75/16/86 76/15/84 80/9/84
f 77/14/87 70/17/87 75/16/86 79/10/86
f 77/14/88 15/2/89 79/10/90
f 81/7/91 15/2/91 65/4/92
f 81/7/93 78/6/93 63/5/94 65/4/94
f 82/1/95 83/8/95 78/6/93 81/7/93
f 82/1/96 15/2/91 81/7/91
f 72/3/97 15/2/97 82/1/97
f 79/10/90 15/2/89 80/9/98
f 80/9/98 15/2/89 72/3/99
f 74/13/23 71/12/23 72/3/23
f 71/12/23 73/11/23 72/3/23
f 72/3/100 73/11/100 83/8/95 82/1/95
f 94/10/101 84/32/101 70/17/35 77/14/35
f 92/9/102 96/33/102 84/32/101 94/10/101
f 91/1/103 93/34/103 88/35/104 89/3/104
f 87/7/105 95/36/105 93/34/103 91/1/103
f 86/4/106 85/37/106 95/36/105 87/7/105
f 94/10/107 15/2/108 77/14/109
f 86/4/110 15/2/111 87/7/111
f 87/7/111 15/2/111 91/1/112
f 91/1/113 15/2/113 89/3/113
f 92/9/114 15/2/108 94/10/107
f 88/35/9 90/38/9 89/3/9
f 89/3/115 90/38/115 96/33/102 92/9/102
f 89/3/116 15/2/108 92/9/114
f 108/7/117 15/2/117 86/4/117
f 107/1/118 15/2/118 108/7/118
f 105/3/119 15/2/119 107/1/119
f 103/9/120 15/2/121 105/3/122
f 102/10/123 15/2/121 103/9/120
f 101/14/124 15/2/121 102/10/123
f 108/7/125 100/39/125 85/37/126 86/4/126
f 107/1/127 109/40/127 100/39/125 108/7/125
f 103/9/128 97/41/128 104/42/129 105/3/129
f 104/42/23 106/43/23 105/3/23
f 102/10/130 98/44/130 97/41/128 103/9/128
f 101/14/131 99/45/131 98/44/130 102/10/130
f 105/3/132 106/43/132 109/40/127 107/1/127
f 118/10/133 15/2/133 101/14/133
f 117/9/134 15/2/134 118/10/134
f 120/3/135 15/2/135 117/9/135
f 116/1/136 15/2/136 120/3/137
f 115/7/138 15/2/136 116/1/136
f 114/4/139 15/2/139 115/7/139
f 118/10/140 113/44/140 99/45/141 101/14/141
f 117/9/142 122/41/142 113/44/140 118/10/140
f 119/43/9 121/42/9 120/3/9
f 116/1/143 110/40/143 119/43/144 120/3/144
f 115/7/145 111/39/145 110/40/143 116/1/143
f 114/4/146 112/37/146 111/39/145 115/7/145
f 120/3/147 121/42/147 122/41/142 117/9/142
f 129/7/148 15/2/149 114/4/150
f 128/1/151 15/2/149 129/7/148
f 133/3/152 15/2/149 128/1/151
f 127/9/153 15/2/149 133/3/152
f 126/10/154 15/2/149 127/9/153
f 5/14/155 15/2/155 126/10/155
f 129/7/156 125/36/156 112/37/157 114/4/157
f 132/38/23 131/35/23 133/3/23
f 128/1/158 130/34/158 125/36/156 129/7/156
f 127/9/159 123/33/159 132/38/160 133/3/160
f 126/10/161 124/32/161 123/33/159 127/9/159
f 5/14/162 9/17/162 124/32/161 126/10/161
f 133/3/163 131/35/163 130/34/158 128/1/158

