# WaveFront *.obj file (generated by CINEMA 4D)

mtllib ./DecagonShape_35.mtl

v 0.00013422247139 0.0048275529407 -0.01235745009035
v 0.00135064765345 0.00304988655262 -0.01352977380157
v 0.0000075790681 -0.00222961651161 -0.0122353984043
v 0.00000440032045 -0.00222807214595 -0.01223120186478
v 0.00000482860469 -0.00222909240983 -0.01222889497876
v 0.00000601528654 -0.00222820206545 -0.01223389152437
v 0.00000515385045 -0.00222620461136 -0.01223304960877
v 0.00000472615102 -0.00222618528642 -0.01223251596093
v -0.0011430401355 0.00313849467784 -0.01112264208496
v -0.00114358169958 0.00313961599022 -0.01112414058298
v 0.00134967605118 0.00305130612105 -0.01352883782238
v -0.00114345154725 0.0031408763025 -0.01112562138587
v 0.00134773284663 0.00305414618924 -0.01352696493268
v 0.00134870433249 0.00305272615515 -0.01352790184319
v 0.00000364962921 -0.0022399155423 -0.01223075482994
v -0.00114269915503 0.00314221275039 -0.01112682279199
v 0.00000493677089 -0.00222428538837 -0.01223285216838
v 0.00300537678413 0.00063168839552 -0.01512451190501
v 0.00000943549458 -0.00222988030873 -0.01223718747497
v 0.00001192770378 -0.00223424378783 -0.01223958935589
v 0.00001140507266 -0.00222949916497 -0.01223908551037
v 0.0013535625767 0.00304562668316 -0.01353258360177
v 0.00001204632099 -0.0022277738899 -0.01223970390856
v 0.00001101370799 -0.00222908263095 -0.01223870832473
v 0.00300450017676 0.00063296908047 -0.01512366719544
v 0.00001126114421 -0.00223182304762 -0.01223894674331
v 0.00300712976605 0.0006291262689 -0.01512620132416
v 0.001352590858 0.00304704648443 -0.01353164669126
v 0.00300625315867 0.00063040736131 -0.01512535661459
v 0.00135161925573 0.00304846628569 -0.01353071071208
v 0.00509105436504 -0.00241863611154 -0.01713658124208
v 0.00300888274796 0.00062656454975 -0.01512789074332
v 0.00001331788553 -0.00223597278818 -0.01224092859775
v 0.00001120918205 -0.00223963521421 -0.01224352605641
v 0.00001492500724 -0.00223661540076 -0.01224249228835
v 0.00001498606252 -0.00223726057447 -0.01224271021783
v 0.00508993305266 -0.00241922889836 -0.01713812164962
v 0.00509131513536 -0.00241726171225 -0.01713524758816
v 0.00300975935534 0.00062528351555 -0.01512873545289
v 0.00001325118319 -0.00223874370568 -0.01224231906235
v 0.00300800637342 0.00062784558395 -0.01512704603374
v 0.00001632164822 -0.00223639979959 -0.01224382407963
v 0.00509074609727 -0.00241584144533 -0.01713427715003
v 0.00000869165979 -0.00223597278818 -0.01224572956562
v 0.00001031338979 -0.00223661540076 -0.01224727742374
v 0.00001053348569 -0.00223726057447 -0.01224733050913
v 0.00001007863739 -0.00223874370568 -0.01224561128765
v 0.00000730147758 -0.00223424378783 -0.01224438939244
v 0.00508711161092 -0.00241726171225 -0.0171396099031
v 0.00300250365399 0.0006291262689 -0.01513100136071
v 0.00508843455464 -0.00241863611154 -0.017139300704
v 0.00508611975238 -0.00241584144533 -0.01713907718658
v 0.00001169542156 -0.00223639979959 -0.01224862411618
v 0.00300513301045 0.00062528351555 -0.01513353548944
v 0.00300338026136 0.00062784558395 -0.01513184607029
v 0.0030042566359 0.00062656454975 -0.01513269077986
v 0.00300162704661 0.00063040736131 -0.01513015665114
v 0.00000663491801 -0.00223182304762 -0.01224374677986
v 0.00000677884645 -0.00222949916497 -0.01224388554692
v 0.00000638748133 -0.00222908263095 -0.01224350836128
v 0.00134796462953 0.00304704648443 -0.01353644765913
v 0.00134699302725 0.00304846628569 -0.01353551074862
v 0.00134602142498 0.00304988655262 -0.01353457476944
v 0.00000480926838 -0.00222988030873 -0.01224198751152
v 0.0000029528419 -0.00222961651161 -0.01224019844085
v 0.00300075067207 0.00063168839552 -0.01512931194156
v 0.0029998740647 0.00063296908047 -0.01512846723199
v 0.00000742009479 -0.0022277738899 -0.01224450394511
v 0.00134893634822 0.00304562668316 -0.01353738363832
v -0.00114901794586 0.00313672912307 -0.01112027652562
v 0.00012959624291 0.0048275529407 -0.0123622501269
v 0.00000031054461 -0.00222428538837 -0.01223765220493
v 0.00134310661815 0.00305414618924 -0.01353176496923
v -0.0011473253835 0.00314221275039 -0.01113162282854
v -0.00115010619629 0.00313825812191 -0.01112432498485
v -0.00114950095303 0.00314013985917 -0.01112832501531
v -0.00000114906936 -0.00223085819744 -0.01222653035074
v 0.0013450498227 0.00305130612105 -0.01353363785893
v -0.00000203882291 -0.00222917553037 -0.01223252993077
v -0.00000075466727 -0.00222657923587 -0.01223629154265
v 0.00000138906034 -0.00222820206545 -0.01223869156092
v 0.00000025791573 -0.00222631916404 -0.01223757304251
v 0.00134407810401 0.00305272615515 -0.01353270187974
v -0.00114637776278 0.00313565810211 -0.01111684273928
v 0.00207734503783 0.00230228947476 -0.01139769423753
v 0.00001159460953 -0.00223191594705 -0.01222007442266
v 0.00000954744974 -0.00223037321121 -0.0122196925804
v 0.00207223161124 0.00230361358263 -0.01139724254608
v 0.00000837661628 -0.00222643162124 -0.01221886835992
v -0.00113816536032 0.00313495122828 -0.01111389324069
v 0.00000811700374 -0.00222841068171 -0.0122192716226
v 0.00000647538991 -0.00222850334831 -0.01221945416182
v 0.00207393616438 0.00230317213573 -0.01139739342034
v 0.00000267643782 -0.00223043025471 -0.01222154963762
v 0.00207564048469 0.00230273068883 -0.01139754336327
v -0.00114257086534 0.00313507998362 -0.01111458800733
v 0.00613077636808 0.00125250697602 -0.01175578776747
v 0.00613207789138 0.00125196180306 -0.01175710838288
v 0.00613254122436 0.0012519689044 -0.01175904925913
v 0.00207904959098 0.00230184826069 -0.01139784418046
v 0.0000161638236 -0.00223462586291 -0.01222418062389
v 0.00001632428939 -0.00223399978131 -0.0122217303142
v 0.00001688622433 -0.00223215739243 -0.01222044508904
v 0.00612912420183 0.00125307403505 -0.01175530347973
v 0.00001792485637 -0.00223056902178 -0.01222004089504
v 0.0020824582316 0.00230096536689 -0.01139814499766
v 0.00001638873073 -0.00223174178973 -0.01222022715956
v 0.00001414084272 -0.00223236344755 -0.01222025696188
v 0.00208075391129 0.00230140658095 -0.01139799505472
v 0.00208051269874 0.00230270205066 -0.01140453014523
v 0.0020788081456 0.00230314326473 -0.01140437927097
v 0.00207710359246 0.0023035844788 -0.01140422932804
v 0.00613194145262 0.00125269510318 -0.01176080852747
v 0.00001135322964 -0.00223062071018 -0.01222660951316
v 0.00001389946283 -0.00223106821068 -0.01222679205239
v 0.00001614811117 -0.00223045074381 -0.01222674176097
v 0.000016653903 -0.00223091058433 -0.01222673524171
v 0.00001615875772 -0.00223311153241 -0.01222621183842
v 0.00208221678622 0.00230226037093 -0.01140468008816
v 0.00001768347647 -0.00222927378491 -0.01222657598555
v 0.00612888298929 0.00125436950475 -0.01176183857024
v 0.00613055657595 0.00125368370209 -0.01176172494888
v -0.00114026363008 0.00313681201078 -0.0111205978319
v -0.00114188331645 0.00313755590469 -0.0111213857308
v 0.00207539903931 0.00230402615853 -0.01140407845378
v 0.0000062700783 -0.00222856970504 -0.01222684700042
v 0.00000759310888 -0.00222694803961 -0.01222584024072
v 0.00000827023996 -0.00222703372128 -0.01222579274327
v 0.00000930606893 -0.0022290777415 -0.01222622767091
v 0.002073694719 0.0023044673726 -0.01140392851084
v 0.00207199016586 0.0023049088195 -0.01140377763659
v -0.00113840668928 0.00313624669798 -0.01112042926252
v 0.00000813523638 -0.00222513638437 -0.01222540345043
# 133 vertices

vn -0.75408744812012 -0.02708908170462 -0.65621513128281
vn -0.89336878061295 0.00397443026304 -0.44930657744408
vn -0.80200225114822 -0.01405666116625 -0.59715557098389
vn 0.69393390417099 -0.00000001182845 0.72003871202469
vn 0.69467347860336 -0.00035434935126 0.71932512521744
vn 0.69322508573532 0.00036012608325 0.72072106599808
vn -0.929134786129 0.02553882822394 -0.36885809898376
vn -0.99763357639313 0.06417369097471 0.02467853762209
vn 0.69096320867538 0.00146113848314 0.72288846969604
vn -0.97480314970016 0.06977093219757 0.21187449991703
vn -0.72466433048248 -0.03785365819931 -0.68806159496307
vn -0.71328502893448 -0.04322600737214 -0.6995398402214
vn 0.79040992259979 0.04308091849089 0.61106151342392
vn 0.87974625825882 0.091986104846 0.46646013855934
vn 0.97734308242798 0.18968172371387 0.0939222946763
vn 0.9647918343544 0.23191526532173 -0.12406478822231
vn -0.72971177101135 -0.00572070106864 -0.68373090028763
vn -0.74130427837372 0.01380708254874 -0.67102706432343
vn -0.74937534332275 0.02894820272923 -0.66151237487793
vn -0.76295292377472 0.05279774963856 -0.64429432153702
vn -0.72427833080292 -0.01652647927403 -0.68930965662003
vn -0.20372904837132 -0.4856074154377 -0.85010582208633
vn -0.54874867200851 -0.22079898416996 -0.80630189180374
vn -0.45819658041 -0.30220079421997 -0.83590108156204
vn -0.68245625495911 -0.07271029800177 -0.72730094194412
vn -0.69698083400726 -0.05635715648532 -0.71487176418304
vn 0.69452750682831 -0.00118358980399 0.71946519613266
vn -0.68709367513657 0.48080113530159 -0.54473161697388
vn -0.5944157242775 0.67205607891083 -0.44160002470016
vn -0.72069317102432 0.32868501543999 -0.61038309335709
vn -0.58554345369339 -0.4341869354248 -0.68455862998962
vn -0.68322938680649 -0.18349179625511 -0.70677316188812
vn -0.66002231836319 -0.2563901245594 -0.70614063739777
vn 0.69336098432541 0.00112074660137 0.7205895781517
vn 0.63217926025391 -0.3887856900692 0.67022013664246
vn 0.67995423078537 -0.17543439567089 0.71195858716965
vn 0.40188720822334 -0.79953920841217 0.44634482264519
vn 0.21371226012707 -0.94265139102936 0.25638923048973
vn -0.71350145339966 -0.05313732102513 -0.69863587617874
vn -0.49115154147148 0.80779838562012 -0.32593235373497
vn -0.31168654561043 0.93593060970306 -0.16396768391132
vn -0.71711128950119 -0.03732232004404 -0.69595867395401
vn 0.69158101081848 0.00469621596858 0.72228360176086
vn -0.43122002482414 -0.79952418804169 -0.41810324788094
vn -0.24831832945347 -0.94264906644821 -0.22304885089397
vn 0.89505022764206 0.19204850494862 0.4024952352047
vn -0.69393390417099 0.00000001182845 -0.72003871202469
vn -0.64642876386642 -0.3887856900692 -0.65648728609085
vn -0.69450551271439 0.0011207703501 -0.71948647499084
vn -0.69626414775848 0.00469623925164 -0.71777027845383
vn -0.69333881139755 -0.00118356617168 -0.7206107378006
vn 0.84185719490051 0.37977913022041 0.38346344232559
vn 0.56468522548676 0.74071258306503 0.36397176980972
vn 0.75067615509033 0.53131848573685 0.39266520738602
vn 0.32887643575668 0.91961002349854 0.2148434817791
vn 0.37049436569214 0.87073451280594 0.32335022091866
vn 0.06185449659824 0.97366750240326 0.21942114830017
vn -0.68637531995773 -0.17543436586857 -0.70577025413513
vn 0.71027731895447 -0.67883747816086 0.18624112010002
vn 0.6172091960907 0.55400234460831 0.55868977308273
vn 0.45565989613533 0.63993555307388 0.61875402927399
vn 0.27721899747849 0.70210826396942 0.65589147806168
vn -0.41613587737083 0.73517525196075 0.53511518239975
vn 0.92600041627884 -0.37037116289139 -0.07313267141581
vn 0.98440372943878 -0.08607637882233 0.15342812240124
vn 0.97474002838135 -0.2145361751318 0.06209753453732
vn 0.96367806196213 0.06165976449847 0.25985124707222
vn 0.93151211738586 0.17137871682644 0.32080292701721
vn -0.87972712516785 -0.09198159724474 -0.46649712324142
vn -0.79037296772003 -0.04305075854063 -0.61111146211624
vn -0.97734898328781 -0.18966040015221 -0.09390392899513
vn -0.96478146314621 -0.23193949460983 0.12410017102957
vn 0.88367682695389 0.46809738874435 0.00023884567781
vn 0.66839396953583 0.51129227876663 0.54021263122559
vn 0.82511299848557 0.4849414229393 0.28986257314682
vn 0.84525030851364 0.40182048082352 0.35226729512215
vn 0.79702526330948 0.43656471371651 0.41732710599899
vn -0.69553279876709 0.00079791690223 -0.71849393844604
vn -0.68975961208344 -0.002065745648 -0.7240355014801
vn 0.8869281411171 0.36392277479172 0.2844620347023
vn 0.85862624645233 -0.04200990870595 -0.51087778806686
vn 0.46701323986053 0.46614503860474 0.75140362977982
vn 0.19743219017982 0.43073892593384 0.88061594963074
vn -0.68224567174912 -0.00571567565203 -0.73110067844391
vn -0.62457686662674 -0.28355717658997 0.7276668548584
vn -0.77565783262253 -0.28228056430817 0.56451100111008
vn -0.28182569146156 -0.25109919905663 0.92602562904358
vn 0.04184590280056 -0.19674110412598 0.97956210374832
vn 0.05181737616658 -0.20103998482227 0.978211581707
vn 0.03402802348137 -0.19336242973804 0.98053711652756
vn 0.03624034300447 -0.19432985782623 0.98026657104492
vn 0.34919285774231 0.67081713676453 -0.65426963567734
vn 0.04333341494203 0.73683190345764 -0.67468583583832
vn 0.62324500083923 0.57663756608963 -0.5282564163208
vn 0.33363088965416 0.61853390932083 -0.71141141653061
vn 0.41557618975639 0.56735944747925 -0.7109147310257
vn 0.49363389611244 0.51085197925568 -0.70381516218185
vn 0.94957935810089 -0.06195895373821 -0.30734369158745
vn -0.26829248666763 0.7105627655983 -0.65047651529312
vn 0.03621547669172 -0.19429139792919 0.98027509450912
vn -0.11226243525743 -0.22352077066898 0.9682126045227
vn -0.5501971244812 0.65236705541611 -0.52124881744385
vn -0.07736568897963 0.84438979625702 -0.53011363744736
vn -0.28231412172318 0.89943724870682 -0.3336336016655
vn 0.08855056017637 0.76454824209213 -0.63845497369766
vn -0.45073816180229 0.88174313306808 -0.13915513455868
vn -0.61154967546463 0.77965402603149 0.13470934331417
vn 0.6863659620285 -0.27788698673248 -0.67207181453705
vn 0.36586356163025 0.45481780171394 -0.81196343898773
vn -0.27913689613342 0.9345794916153 -0.22055330872536
vn 0.03753962740302 -0.19486185908318 0.98011207580566
vn 0.03623633831739 -0.19428697228432 0.98027521371841
vn 0.03493041172624 -0.19373753666878 0.98043137788773
vn 0.22670125961304 -0.50855159759521 0.83065146207809
vn 0.12291711568832 -0.34004190564156 0.93234270811081
vn 0.41934832930565 -0.79434752464294 0.43949857354164
vn 0.48089203238487 -0.86372816562653 0.15071988105774
vn 0.03100307844579 -0.19205661118031 0.98089402914047
vn -0.52329635620117 0.50257414579391 0.68817162513733
vn -0.48788842558861 0.39307835698128 0.77939355373383
vn -0.54680037498474 0.67061531543732 0.50128281116486
vn -0.42957645654678 0.23054032027721 0.87310665845871
vn -0.3891706764698 0.15673860907555 0.90773296356201
vn 0.61029130220413 -0.79144114255905 -0.03413840010762
vn 0.05994249135256 -0.46510916948318 0.88322156667709
vn 0.1246694251895 -0.52232521772385 0.84358394145966
vn -0.00528719928116 -0.40370544791222 0.91487371921539
vn 0.37588810920715 -0.56111747026443 -0.73746544122696
vn 0.45680904388428 -0.73438024520874 -0.50200712680817
vn 0.15999586880207 -0.15055026113987 -0.97556954622269
vn -0.03621547669172 0.19429139792919 -0.98027509450912
vn -0.03753962740302 0.19486185908318 -0.98011207580566
vn -0.04143072292209 0.19656275212765 -0.97961550951004
vn -0.034912109375 0.19371609389782 -0.9804362654686
vn 0.05161724984646 0.04255179688334 -0.9977599978447
vn -0.13662603497505 -0.32028543949127 0.93741697072983
vn -0.2187979221344 -0.28634828329086 0.93280875682831
vn -0.0861914306879 -0.34539636969566 0.934490442276
vn -0.28375491499901 -0.25439876317978 0.92453467845917
vn -0.37767943739891 -0.21178647875786 0.90139043331146
vn 0.95968824625015 -0.27902022004128 -0.03385572135448
vn -0.64129739999771 -0.11326234787703 0.75888687372208
vn -0.41855409741402 -0.20782867074013 0.88409262895584
vn -0.81642037630081 -0.01027651317418 0.57736659049988
vn -0.03517724946141 0.19384406507015 -0.98040145635605
vn -0.03617884963751 0.19424852728844 -0.98028498888016
vn -0.03722101822495 0.19473850727081 -0.9801487326622
vn 0.28176075220108 0.25111484527588 -0.92604112625122
vn 0.11223379522562 0.22355905175209 -0.96820706129074
vn 0.6245299577713 0.28355559706688 -0.72770774364471
vn 0.7756615281105 0.28225639462471 -0.56451791524887
vn -0.04022028297186 0.19600151479244 -0.97977840900421
# 152 normals

vt 0.49995157122612 0.00212597846985 0
vt 0.5 0 0
vt 0.5 0.00239622592926 0
vt 0.49946200847626 0.00165581703186 0
vt 0.2547627389431 0.75476276874542 0
vt 0.25495859980583 0.75495862960815 0
vt 0.49977412819862 0.00184786319733 0
vt 0.25515449047089 0.75515449047089 0
vt 0.50004839897156 0.00212597846985 0
vt 0.50022584199905 0.00184786319733 0
vt 0.25535038113594 0.75535035133362 0
vt 0.5 1 0
vt 0.74464964866638 0.75535035133362 0
vt 0.50053799152374 0.00165581703186 0
vt 0.74484550952911 0.75515449047089 0
vt 0.74504137039185 0.75495862960815 0
vt 0.74523729085922 0.75476276874542 0
vt 0.72123175859451 0.68088132143021 0
vt 0.7209849357605 0.68092042207718 0
vt 0.72073811292648 0.68095946311951 0
vt 0.72049129009247 0.68099856376648 0
vt 0.2555835545063 0.75463271141052 0
vt 0.25530993938446 0.75467610359192 0
vt 0.25503632426262 0.75471937656403 0
vt 0.72100907564163 0.68099474906921 0
vt 0.19191606342793 0.95058107376099 0
vt 0.72056376934052 0.68122166395187 0
vt 0.72078639268875 0.68110823631287 0
vt 0.19167397916317 0.95066893100739 0
vt 0.19139903783798 0.95069444179535 0
vt 0.19111704826355 0.95064401626587 0
vt 0.74496364593506 0.75471937656403 0
vt 0.74469006061554 0.75467610359192 0
vt 0.27926191687584 0.68095946311951 0
vt 0.27950873970985 0.68099856376648 0
vt 0.27901509404182 0.68092042207718 0
vt 0.27876827120781 0.68088132143021 0
vt 0.74441647529602 0.75463271141052 0
vt 0.27899092435837 0.68099474906921 0
vt 0.27921357750893 0.68110823631287 0
vt 0.80832600593567 0.95066893100739 0
vt 0.80808395147324 0.95058107376099 0
vt 0.27943626046181 0.68122166395187 0
vt 0.80860096216202 0.95069444179535 0
vt 0.80888295173645 0.95064401626587 0
# 45 texture coordinates

o Decagon_web
usemtl Mat
f 7/1/1 15/2/2 17/3/3
f 3/4/4 2/5/4 11/6/5 6/7/5
f 6/7/5 11/6/5 14/8/6 7/1/6
f 8/9/7 15/2/2 4/10/8
f 17/3/3 15/2/2 8/9/7
f 13/11/4 1/12/4 17/3/4
f 1/12/4 16/13/4 17/3/4
f 7/1/6 14/8/6 13/11/9 17/3/9
f 4/10/8 15/2/2 5/14/10
f 6/7/11 15/2/2 7/1/1
f 3/4/12 15/2/2 6/7/11
f 17/3/13 16/13/13 12/15/14 8/9/14
f 8/9/14 12/15/14 10/16/15 4/10/15
f 4/10/15 10/16/15 9/17/16 5/14/16
f 26/10/17 15/2/18 21/9/19
f 20/14/4 27/18/4 29/19/4 26/10/4
f 26/10/4 29/19/4 18/20/4 21/9/4
f 21/9/4 18/20/4 25/21/4 23/3/4
f 25/21/4 22/22/4 23/3/4
f 21/9/19 15/2/18 23/3/20
f 23/3/4 22/22/4 28/23/4 24/1/4
f 20/14/21 15/2/18 26/10/17
f 24/1/4 28/23/4 30/24/4 19/7/4
f 19/7/4 30/24/4 2/5/4 3/4/4
f 23/3/22 15/2/23 24/1/24
f 19/7/25 15/2/23 3/4/26
f 24/1/24 15/2/23 19/7/25
f 33/10/27 41/25/27 27/18/4 20/14/4
f 36/1/28 15/2/29 42/3/30
f 42/3/31 15/2/32 35/9/33
f 43/26/4 39/27/4 42/3/4
f 35/9/34 32/28/34 41/25/27 33/10/27
f 36/1/35 38/29/35 43/26/36 42/3/36
f 40/7/37 31/30/37 38/29/35 36/1/35
f 34/4/38 37/31/38 31/30/37 40/7/37
f 35/9/33 15/2/32 33/10/39
f 40/7/40 15/2/29 36/1/28
f 34/4/41 15/2/29 40/7/40
f 33/10/39 15/2/32 20/14/42
f 42/3/43 39/27/43 32/28/34 35/9/34
f 47/7/44 51/30/44 37/31/45 34/4/45
f 46/1/46 15/2/46 47/7/46
f 54/27/47 52/26/47 53/3/47
f 46/1/48 49/29/48 51/30/44 47/7/44
f 45/9/49 56/28/49 54/27/50 53/3/50
f 44/10/51 55/25/51 56/28/49 45/9/49
f 48/14/47 50/18/47 55/25/51 44/10/51
f 48/14/52 15/2/53 44/10/54
f 47/7/55 15/2/55 34/4/55
f 44/10/54 15/2/53 45/9/56
f 45/9/56 15/2/53 53/3/57
f 53/3/58 52/26/58 49/29/48 46/1/48
f 53/3/59 15/2/59 46/1/59
f 65/4/60 15/2/61 64/7/61
f 69/22/47 67/21/47 68/3/47
f 64/7/61 15/2/61 60/1/62
f 60/1/63 15/2/63 68/3/63
f 68/3/64 15/2/65 59/9/66
f 58/10/47 57/19/47 50/18/47 48/14/47
f 59/9/47 66/20/47 57/19/47 58/10/47
f 60/1/47 61/23/47 69/22/47 68/3/47
f 58/10/67 15/2/65 48/14/68
f 64/7/47 62/24/47 61/23/47 60/1/47
f 65/4/47 63/5/47 62/24/47 64/7/47
f 59/9/66 15/2/65 58/10/67
f 68/3/47 67/21/47 66/20/47 59/9/47
f 80/9/69 76/15/69 74/13/70 72/3/70
f 79/10/71 75/16/71 76/15/69 80/9/69
f 77/14/72 70/17/72 75/16/71 79/10/71
f 77/14/73 15/2/74 79/10/75
f 81/7/76 15/2/76 65/4/77
f 81/7/78 78/6/78 63/5/47 65/4/47
f 82/1/79 83/8/79 78/6/78 81/7/78
f 82/1/80 15/2/76 81/7/76
f 72/3/81 15/2/81 82/1/81
f 79/10/75 15/2/74 80/9/82
f 80/9/82 15/2/74 72/3/83
f 74/13/47 71/12/47 72/3/47
f 71/12/47 73/11/47 72/3/47
f 72/3/84 73/11/84 83/8/79 82/1/79
f 94/10/85 84/32/85 70/17/86 77/14/86
f 92/9/87 96/33/87 84/32/85 94/10/85
f 91/1/88 93/34/88 88/35/89 89/3/89
f 87/7/90 95/36/90 93/34/88 91/1/88
f 86/4/91 85/37/91 95/36/90 87/7/90
f 94/10/92 15/2/93 77/14/94
f 86/4/95 15/2/96 87/7/96
f 87/7/96 15/2/96 91/1/97
f 91/1/98 15/2/98 89/3/98
f 92/9/99 15/2/93 94/10/92
f 88/35/100 90/38/100 89/3/100
f 89/3/101 90/38/101 96/33/87 92/9/87
f 89/3/102 15/2/93 92/9/99
f 108/7/103 15/2/104 86/4/105
f 107/1/106 15/2/104 108/7/103
f 105/3/107 15/2/104 107/1/106
f 103/9/108 15/2/108 105/3/108
f 102/10/109 15/2/109 103/9/109
f 101/14/110 15/2/110 102/10/110
f 108/7/111 100/39/111 85/37/112 86/4/112
f 107/1/113 109/40/113 100/39/111 108/7/111
f 103/9/114 97/41/114 104/42/115 105/3/115
f 104/42/100 106/43/100 105/3/100
f 102/10/116 98/44/116 97/41/114 103/9/114
f 101/14/117 99/45/117 98/44/116 102/10/116
f 105/3/118 106/43/118 109/40/113 107/1/113
f 118/10/119 15/2/120 101/14/121
f 117/9/122 15/2/120 118/10/119
f 120/3/123 15/2/120 117/9/122
f 116/1/124 15/2/124 120/3/124
f 115/7/125 15/2/125 116/1/126
f 114/4/127 15/2/125 115/7/125
f 118/10/128 113/44/128 99/45/129 101/14/129
f 117/9/130 122/41/130 113/44/128 118/10/128
f 119/43/131 121/42/131 120/3/131
f 116/1/132 110/40/132 119/43/133 120/3/133
f 115/7/134 111/39/134 110/40/132 116/1/132
f 114/4/131 112/37/131 111/39/134 115/7/134
f 120/3/135 121/42/135 122/41/130 117/9/130
f 129/7/136 15/2/137 114/4/138
f 128/1/139 15/2/137 129/7/136
f 133/3/140 15/2/137 128/1/139
f 127/9/141 15/2/141 133/3/141
f 126/10/142 15/2/142 127/9/143
f 5/14/144 15/2/142 126/10/142
f 129/7/145 125/36/145 112/37/146 114/4/146
f 132/38/131 131/35/131 133/3/131
f 128/1/147 130/34/147 125/36/145 129/7/145
f 127/9/148 123/33/148 132/38/149 133/3/149
f 126/10/150 124/32/150 123/33/148 127/9/148
f 5/14/151 9/17/151 124/32/150 126/10/150
f 133/3/152 131/35/152 130/34/147 128/1/147

