# WaveFront *.obj file (generated by CINEMA 4D)

mtllib ./DecagonShape_7.mtl

v -0.00703452108428 0.00829217210412 -0.01484096050262
v -0.00548369856551 0.00639254506677 -0.01486325915903
v -0.00001202989188 0.00757873477414 -0.01494193729013
v -0.00001283850816 0.00758424540982 -0.01494192518294
v -0.00001126513234 0.00758630456403 -0.01494194753468
v -0.00001315957161 0.00758106727153 -0.01494192052633
v -0.00001498957135 0.00758251314983 -0.01494189444929
v -0.00001492074534 0.00758319441229 -0.01494189538062
v -0.00513509102166 0.00984315574169 -0.01486827246845
v -0.00513660768047 0.00984191615134 -0.01486825011671
v -0.00548493722454 0.00639406265691 -0.0148632414639
v -0.00513812480494 0.00984067749232 -0.01486822869629
v -0.00548741454259 0.00639709690586 -0.01486320607364
v -0.0054861754179 0.00639557931572 -0.01486322376877
v 0 0.00758134247735 -0.01494210958481
v -0.00513964239508 0.0098394388333 -0.01486820634454
v -0.00001685643838 0.00758304586634 -0.01494186744094
v -0.00337408063933 0.00380844157189 -0.01489359419793
v -0.00001209245238 0.00757614383474 -0.01494193635881
v -0.00000819964225 0.00757216103375 -0.01494199223816
v -0.00001281479035 0.00757347792387 -0.01494192518294
v -0.00547998212278 0.00638799322769 -0.01486331317574
v -0.000014638229 0.00757281156257 -0.01494189910591
v -0.00001315950158 0.00757406977937 -0.01494192052633
v -0.00337519799359 0.00380981038325 -0.01489357743412
v -0.00001048443119 0.00757338386029 -0.01494195871055
v -0.00337184569798 0.00380570394918 -0.0148936258629
v -0.0054812207818 0.00638951035216 -0.01486329548061
v -0.00337296305224 0.00380707276054 -0.01489361003041
v -0.00548245944083 0.00639102747664 -0.01486327778548
v -0.00071241601836 0.00054962321883 -0.01493186596781
v -0.00336961052381 0.00380296655931 -0.01489365845919
v -0.00000672748911 0.00757002830505 -0.01494201272726
v -0.00000123740767 0.00756909465417 -0.01494209188968
v -0.00000637177709 0.00756772281602 -0.0149420183152
v -0.00000574519481 0.00756744714454 -0.01494202762842
v -0.00071044760989 0.00054914562497 -0.01493189390749
v -0.00071412231773 0.0005505719455 -0.01493184175342
v -0.00336849316955 0.00380159751512 -0.01489367429167
v -0.00000380459551 0.00756874075159 -0.0149420555681
v -0.00337072811089 0.00380433513783 -0.01489364169538
v -0.00000682871314 0.00756583595648 -0.01494201179594
v -0.00071543839294 0.00055182987126 -0.01493182219565
v 0.00000432846718 0.00756891118363 -0.01494217198342
v 0.00000351886979 0.0075667235069 -0.01494216080755
v 0.00000284975113 0.00756657868624 -0.014942150563
v 0.00000120714549 0.00756823457778 -0.01494212727994
v 0.00000619747516 0.00757070630789 -0.01494219899178
v -0.00070656166645 0.00054980779532 -0.01493194978684
v 0.00254851696081 0.00320745911449 -0.01497875526547
v -0.0007084235549 0.00054921989795 -0.01493192370981
v -0.00070502067683 0.00055077741854 -0.01493197213858
v 0.00000358913826 0.00756478309631 -0.01494216173887
v 0.00254441099241 0.00320410635322 -0.01497869566083
v 0.00254714838229 0.00320634129457 -0.0149787357077
v 0.00254577980377 0.00320522370748 -0.0149787152186
v 0.00254988577217 0.00320857670158 -0.01497877482325
v 0.00000868069128 0.00757144764066 -0.01494223438203
v 0.00001098277062 0.00757107324898 -0.01494226790965
v 0.00001143884583 0.00757158407941 -0.0149422744289
v 0.00513205630705 0.00531705236062 -0.01501590386033
v 0.00513357343152 0.00531829148531 -0.01501592528075
v 0.00513509102166 0.00531953014433 -0.01501594763249
v 0.0000108082013 0.0075738299638 -0.01494226511568
v 0.00001126513234 0.00757638085634 -0.01494227163494
v 0.00255125458352 0.00320969405584 -0.01497879438102
v 0.00255262292922 0.00321081187576 -0.0149788139388
v 0.000012636061 0.00757005577907 -0.01494229119271
v 0.00513053918257 0.00531581323594 -0.01501588150859
v 0.00548369856551 0.00877014081925 -0.01502096001059
v 0.00703452108428 0.00687051331624 -0.01504325959831
v 0.00001685643838 0.00757963955402 -0.01494235172868
v 0.00513964239508 0.00532324658707 -0.01501601282507
v 0.00548741454259 0.00876558851451 -0.01502101309597
v 0.00548493722454 0.00876862276345 -0.01502097770572
v 0.0054861754179 0.00876710563898 -0.01502099540085
v 0.00001202989188 0.00758395064622 -0.01494228281081
v 0.00513660768047 0.00532076880336 -0.01501596905291
v 0.00001315957161 0.00758161814883 -0.01494229864329
v 0.00001498957135 0.00758017227054 -0.01494232565165
v 0.00001283850816 0.00757844001055 -0.01494229398668
v 0.00001492074534 0.00757949100807 -0.01494232472032
v 0.00513812480494 0.00532200792804 -0.01501599140465
v 0.00548245944083 0.00877165794373 -0.01502094231546
v 0.00337184569798 0.01135698147118 -0.01499059330672
v 0.00000819964225 0.00759052438661 -0.01494222786278
v 0.00001048443119 0.00758930156007 -0.01494226045907
v 0.00337519799359 0.01135287526995 -0.01499064173549
v 0.000014638229 0.0075898738578 -0.01494232006371
v 0.00547998212278 0.00877469219267 -0.0150209069252
v 0.00001281479035 0.00758920703083 -0.01494229398668
v 0.00001315950158 0.007588615641 -0.01494229864329
v 0.00337408063933 0.01135424431413 -0.01499062590301
v 0.00001209245238 0.00758654158562 -0.01494228374213
v 0.00337296305224 0.011355612427 -0.01499061007053
v 0.0054812207818 0.0087731750682 -0.01502092462033
v 0.00071412231773 0.01461211312562 -0.01495237834752
v 0.00071241601836 0.01461306214333 -0.01495235320181
v 0.00071044760989 0.01461353991181 -0.01495232526213
v 0.00337072811089 0.01135835051537 -0.01499057747424
v 0.00000123740767 0.00759359076619 -0.01494212727994
v 0.00000380459551 0.00759394466877 -0.01494216453284
v 0.00000574519481 0.00759523827583 -0.01494219247252
v 0.00071543839294 0.01461085584015 -0.01495239697397
v 0.00000682871314 0.00759684946388 -0.014942208305
v 0.00336849316955 0.01136108767241 -0.01499054580927
v 0.00000637177709 0.00759496260434 -0.01494220178574
v 0.00000672748911 0.00759265711531 -0.01494220644236
v 0.00336961052381 0.01135971862823 -0.01499056164175
v -0.00254577980377 0.01195746194571 -0.01490550395101
v -0.00254714838229 0.01195634435862 -0.01490548439324
v -0.00254851696081 0.01195522677153 -0.01490546483546
v 0.0007084235549 0.014613465406 -0.01495229639113
v -0.00000619747516 0.00759197911248 -0.01494202110916
v -0.00000432846718 0.00759377423674 -0.0149420471862
v -0.00000351886979 0.00759596191347 -0.01494205929339
v -0.00000284975113 0.00759610673413 -0.01494206860662
v -0.00000120714549 0.00759445084259 -0.014942092821
v -0.00254441099241 0.0119585795328 -0.01490552350879
v -0.00000358913826 0.00759790232405 -0.01494205836207
v 0.00070502067683 0.01461190823466 -0.01495224703103
v 0.00070656166645 0.01461287774146 -0.01495226938277
v -0.00513205630705 0.00984563305974 -0.01486831624061
v -0.00513357343152 0.00984439440072 -0.01486829388887
v -0.00254988577217 0.01195410918444 -0.01490544527769
v -0.0000108082013 0.00758885545656 -0.01494195405394
v -0.00001143884583 0.00759110134095 -0.01494194567204
v -0.00001098277062 0.00759161217138 -0.01494195219129
v -0.00000868069128 0.00759123777971 -0.01494198478758
v -0.00255125458352 0.01195299159735 -0.01490542571992
v -0.00255262292922 0.01195187401026 -0.01490540523082
v -0.00513053918257 0.00984687171876 -0.01486833766103
v -0.000012636061 0.00759262964129 -0.01494192797691
# 133 vertices

vn 0.01437753066421 0 0.99989664554596
vn -0.01437753066421 0 -0.99989664554596
# 2 normals

vt 0.49995157122612 0.00212597846985 0
vt 0.5 0 0
vt 0.5 0.00239622592926 0
vt 0.49946200847626 0.00165581703186 0
vt 0.2547627389431 0.75476276874542 0
vt 0.25495859980583 0.75495862960815 0
vt 0.49977412819862 0.00184786319733 0
vt 0.25515449047089 0.75515449047089 0
vt 0.50004839897156 0.00212597846985 0
vt 0.50022584199905 0.00184786319733 0
vt 0.25535038113594 0.75535035133362 0
vt 0.5 1 0
vt 0.74464964866638 0.75535035133362 0
vt 0.50053799152374 0.00165581703186 0
vt 0.74484550952911 0.75515449047089 0
vt 0.74504137039185 0.75495862960815 0
vt 0.74523729085922 0.75476276874542 0
vt 0.72123175859451 0.68088132143021 0
vt 0.7209849357605 0.68092042207718 0
vt 0.72073811292648 0.68095946311951 0
vt 0.72049129009247 0.68099856376648 0
vt 0.2555835545063 0.75463271141052 0
vt 0.25530993938446 0.75467610359192 0
vt 0.25503632426262 0.75471937656403 0
vt 0.72100907564163 0.68099474906921 0
vt 0.19191606342793 0.95058107376099 0
vt 0.72056376934052 0.68122166395187 0
vt 0.72078639268875 0.68110823631287 0
vt 0.19167397916317 0.95066893100739 0
vt 0.19139903783798 0.95069444179535 0
vt 0.19111704826355 0.95064401626587 0
vt 0.74496364593506 0.75471937656403 0
vt 0.74469006061554 0.75467610359192 0
vt 0.27926191687584 0.68095946311951 0
vt 0.27950873970985 0.68099856376648 0
vt 0.27901509404182 0.68092042207718 0
vt 0.27876827120781 0.68088132143021 0
vt 0.74441647529602 0.75463271141052 0
vt 0.27899092435837 0.68099474906921 0
vt 0.27921357750893 0.68110823631287 0
vt 0.80832600593567 0.95066893100739 0
vt 0.80808395147324 0.95058107376099 0
vt 0.27943626046181 0.68122166395187 0
vt 0.80860096216202 0.95069444179535 0
vt 0.80888295173645 0.95064401626587 0
# 45 texture coordinates

o Decagon_web
usemtl Mat
f 7/1/1 15/2/1 17/3/1
f 3/4/2 2/5/2 11/6/2 6/7/2
f 6/7/2 11/6/2 14/8/2 7/1/2
f 8/9/1 15/2/1 4/10/1
f 17/3/1 15/2/1 8/9/1
f 13/11/2 1/12/2 17/3/2
f 1/12/2 16/13/2 17/3/2
f 7/1/2 14/8/2 13/11/2 17/3/2
f 4/10/1 15/2/1 5/14/1
f 6/7/1 15/2/1 7/1/1
f 3/4/1 15/2/1 6/7/1
f 17/3/2 16/13/2 12/15/2 8/9/2
f 8/9/2 12/15/2 10/16/2 4/10/2
f 4/10/2 10/16/2 9/17/2 5/14/2
f 26/10/1 15/2/1 21/9/1
f 20/14/2 27/18/2 29/19/2 26/10/2
f 26/10/2 29/19/2 18/20/2 21/9/2
f 21/9/2 18/20/2 25/21/2 23/3/2
f 25/21/2 22/22/2 23/3/2
f 21/9/1 15/2/1 23/3/1
f 23/3/2 22/22/2 28/23/2 24/1/2
f 20/14/1 15/2/1 26/10/1
f 24/1/2 28/23/2 30/24/2 19/7/2
f 19/7/2 30/24/2 2/5/2 3/4/2
f 23/3/1 15/2/1 24/1/1
f 19/7/1 15/2/1 3/4/1
f 24/1/1 15/2/1 19/7/1
f 33/10/2 41/25/2 27/18/2 20/14/2
f 36/1/1 15/2/1 42/3/1
f 42/3/1 15/2/1 35/9/1
f 43/26/2 39/27/2 42/3/2
f 35/9/2 32/28/2 41/25/2 33/10/2
f 36/1/2 38/29/2 43/26/2 42/3/2
f 40/7/2 31/30/2 38/29/2 36/1/2
f 34/4/2 37/31/2 31/30/2 40/7/2
f 35/9/1 15/2/1 33/10/1
f 40/7/1 15/2/1 36/1/1
f 34/4/1 15/2/1 40/7/1
f 33/10/1 15/2/1 20/14/1
f 42/3/2 39/27/2 32/28/2 35/9/2
f 47/7/2 51/30/2 37/31/2 34/4/2
f 46/1/1 15/2/1 47/7/1
f 54/27/2 52/26/2 53/3/2
f 46/1/2 49/29/2 51/30/2 47/7/2
f 45/9/2 56/28/2 54/27/2 53/3/2
f 44/10/2 55/25/2 56/28/2 45/9/2
f 48/14/2 50/18/2 55/25/2 44/10/2
f 48/14/1 15/2/1 44/10/1
f 47/7/1 15/2/1 34/4/1
f 44/10/1 15/2/1 45/9/1
f 45/9/1 15/2/1 53/3/1
f 53/3/2 52/26/2 49/29/2 46/1/2
f 53/3/1 15/2/1 46/1/1
f 65/4/1 15/2/1 64/7/1
f 69/22/2 67/21/2 68/3/2
f 64/7/1 15/2/1 60/1/1
f 60/1/1 15/2/1 68/3/1
f 68/3/1 15/2/1 59/9/1
f 58/10/2 57/19/2 50/18/2 48/14/2
f 59/9/2 66/20/2 57/19/2 58/10/2
f 60/1/2 61/23/2 69/22/2 68/3/2
f 58/10/1 15/2/1 48/14/1
f 64/7/2 62/24/2 61/23/2 60/1/2
f 65/4/2 63/5/2 62/24/2 64/7/2
f 59/9/1 15/2/1 58/10/1
f 68/3/2 67/21/2 66/20/2 59/9/2
f 80/9/2 76/15/2 74/13/2 72/3/2
f 79/10/2 75/16/2 76/15/2 80/9/2
f 77/14/2 70/17/2 75/16/2 79/10/2
f 77/14/1 15/2/1 79/10/1
f 81/7/1 15/2/1 65/4/1
f 81/7/2 78/6/2 63/5/2 65/4/2
f 82/1/2 83/8/2 78/6/2 81/7/2
f 82/1/1 15/2/1 81/7/1
f 72/3/1 15/2/1 82/1/1
f 79/10/1 15/2/1 80/9/1
f 80/9/1 15/2/1 72/3/1
f 74/13/2 71/12/2 72/3/2
f 71/12/2 73/11/2 72/3/2
f 72/3/2 73/11/2 83/8/2 82/1/2
f 94/10/2 84/32/2 70/17/2 77/14/2
f 92/9/2 96/33/2 84/32/2 94/10/2
f 91/1/2 93/34/2 88/35/2 89/3/2
f 87/7/2 95/36/2 93/34/2 91/1/2
f 86/4/2 85/37/2 95/36/2 87/7/2
f 94/10/1 15/2/1 77/14/1
f 86/4/1 15/2/1 87/7/1
f 87/7/1 15/2/1 91/1/1
f 91/1/1 15/2/1 89/3/1
f 92/9/1 15/2/1 94/10/1
f 88/35/2 90/38/2 89/3/2
f 89/3/2 90/38/2 96/33/2 92/9/2
f 89/3/1 15/2/1 92/9/1
f 108/7/1 15/2/1 86/4/1
f 107/1/1 15/2/1 108/7/1
f 105/3/1 15/2/1 107/1/1
f 103/9/1 15/2/1 105/3/1
f 102/10/1 15/2/1 103/9/1
f 101/14/1 15/2/1 102/10/1
f 108/7/2 100/39/2 85/37/2 86/4/2
f 107/1/2 109/40/2 100/39/2 108/7/2
f 103/9/2 97/41/2 104/42/2 105/3/2
f 104/42/2 106/43/2 105/3/2
f 102/10/2 98/44/2 97/41/2 103/9/2
f 101/14/2 99/45/2 98/44/2 102/10/2
f 105/3/2 106/43/2 109/40/2 107/1/2
f 118/10/1 15/2/1 101/14/1
f 117/9/1 15/2/1 118/10/1
f 120/3/1 15/2/1 117/9/1
f 116/1/1 15/2/1 120/3/1
f 115/7/1 15/2/1 116/1/1
f 114/4/1 15/2/1 115/7/1
f 118/10/2 113/44/2 99/45/2 101/14/2
f 117/9/2 122/41/2 113/44/2 118/10/2
f 119/43/2 121/42/2 120/3/2
f 116/1/2 110/40/2 119/43/2 120/3/2
f 115/7/2 111/39/2 110/40/2 116/1/2
f 114/4/2 112/37/2 111/39/2 115/7/2
f 120/3/2 121/42/2 122/41/2 117/9/2
f 129/7/1 15/2/1 114/4/1
f 128/1/1 15/2/1 129/7/1
f 133/3/1 15/2/1 128/1/1
f 127/9/1 15/2/1 133/3/1
f 126/10/1 15/2/1 127/9/1
f 5/14/1 15/2/1 126/10/1
f 129/7/2 125/36/2 112/37/2 114/4/2
f 132/38/2 131/35/2 133/3/2
f 128/1/2 130/34/2 125/36/2 129/7/2
f 127/9/2 123/33/2 132/38/2 133/3/2
f 126/10/2 124/32/2 123/33/2 127/9/2
f 5/14/2 9/17/2 124/32/2 126/10/2
f 133/3/2 131/35/2 130/34/2 128/1/2

