# WaveFront *.obj file (generated by CINEMA 4D)

mtllib ./DecagonShape_46.mtl

v 0.00201149773784 0.00370266917162 -0.00799796171486
v 0.00000156880913 0.00258041918278 -0.00885834917426
v 0.00001035365676 -0.00301877083257 -0.0088211465627
v 0.0000199501701 -0.00301892310381 -0.00881530530751
v 0.00002119964665 -0.00301996082999 -0.00881725084037
v 0.00001433504349 -0.00301812938415 -0.0088173635304
v 0.00001765308116 -0.00301662785932 -0.00881526712328
v 0.00001895910464 -0.00301682739519 -0.00881474837661
v 0.00303763849661 0.00152326049283 -0.00754735758528
v 0.00303712696768 0.00152425223496 -0.00754576921463
v 0.00000423761821 0.00258133071475 -0.00885563436896
v 0.00303621613421 0.00152569345664 -0.00754484115168
v 0.00001066873301 0.00258314632811 -0.00885159894824
v 0.00000729553449 0.00258224015124 -0.00885336566716
v 0.00001506186254 -0.00303037953563 -0.00881947670132
v 0.0030352785252 0.00152739160694 -0.00754476850852
v 0.00001945182703 -0.0030149074737 -0.00881440378726
v -0.00068328221096 0.00104519748129 -0.01174662169069
v 0.00000731287628 -0.00301819597371 -0.00882572866976
v 0.00000335656637 -0.00302236783318 -0.00883448589593
v 0.00000533652519 -0.00301711657085 -0.0088309366256
v -0.00000351507015 0.00257767620496 -0.008868470788
v 0.00000525965515 -0.00301504228264 -0.00883131101727
v 0.00000580168398 -0.00301674031653 -0.00882937107235
v -0.00068267277675 0.00104641646612 -0.01174458675086
v 0.00000470128134 -0.00301985186525 -0.00883235316724
v -0.00068520766217 0.00104282086249 -0.01175043731928
v -0.00000235490006 0.00257859122939 -0.00886484514922
v -0.00068413006375 0.00104399386328 -0.01174857839942
v -0.00000064656871 0.00257950602099 -0.0088614448905
v -0.00374915916473 -0.00043436422129 -0.01422420889139
v -0.00068800541339 0.00104062550236 -0.01175379473716
v 0.00000139046494 -0.00302380695939 -0.00883708428591
v -0.00000346349339 -0.0030262907967 -0.00883620977402
v -0.00000042144441 -0.00302390824072 -0.0088393650949
v -0.00000109210032 -0.00302447751164 -0.008839645423
v -0.00375089095905 -0.00043411791557 -0.01422324869782
v -0.00374729116447 -0.0004338703875 -0.01422426011413
v -0.00068969657877 0.00103963131551 -0.01175526063889
v -0.00000176947458 -0.00302607077174 -0.00883808173239
v -0.00068650388857 0.0010416933801 -0.01175218261778
v -0.00000153802023 -0.00302316248417 -0.00884102657437
v -0.00374579336494 -0.00043318409007 -0.01422350481153
v -0.00000387976797 -0.00302205444314 -0.00883339717984
v -0.00000522314167 -0.00302179530263 -0.00883528590202
v -0.00000555960696 -0.00302231661044 -0.00883557833731
v -0.00000489993818 -0.00302449520677 -0.00883514527231
v -0.00000244642979 -0.00302116153762 -0.00883143395185
v -0.00375143880956 -0.00043178285705 -0.01422036997974
v -0.00069101061672 0.00104402715806 -0.0117473853752
v -0.00375174405053 -0.00043306298903 -0.01422178559005
v -0.00375035800971 -0.00043088651728 -0.01421922445297
v -0.00000610288134 -0.00302086491138 -0.0088367452845
v -0.00069426145637 0.0010419288883 -0.01175097934902
v -0.00069195078686 0.00104328140151 -0.01174868177623
v -0.00069303810596 0.00104257883504 -0.01174988318235
v -0.00069022725802 0.00104480527807 -0.01174600701779
v -0.00000150572896 -0.0030192185659 -0.0088300043717
v -0.00000105607899 -0.00301696057431 -0.00882904976606
v -0.00000054004693 -0.00301673659123 -0.00882731564343
v -0.00000852765515 0.00257859844714 -0.0088623277843
v -0.00000635486504 0.00257951952517 -0.00885800085962
v -0.0000035374544 0.0025804399047 -0.00885406322777
v 0.00000138097869 -0.0030181852635 -0.00882268697023
v 0.00000524742836 -0.00301875034347 -0.00881686061621
v -0.000689608627 0.00104560540058 -0.01174455881119
v -0.00068916101009 0.00104641646612 -0.01174305472523
v -0.00000122857148 -0.00301504228264 -0.00882977899164
v -0.00001000329667 0.00257767620496 -0.00886693876237
v 0.00304259965196 0.00151936372276 -0.00754520110786
v 0.00200886419043 0.00370270595886 -0.00799183640629
v 0.00001681844151 -0.00301487091929 -0.00880827941
v 0.00000803538751 0.00258318264969 -0.00884547457099
v 0.00303264521062 0.00152742827777 -0.00753864413127
v 0.00304010673426 0.00152089586481 -0.00754083925858
v 0.00303641613573 0.00152377679478 -0.00753845926374
v 0.00002616062557 -0.00302385725081 -0.00881509389728
v -0.00000014332423 0.00258135725744 -0.00885060895234
v 0.00002175493682 -0.00302173383534 -0.00880953669548
v 0.00001806420732 -0.00301784835756 -0.00880813412368
v 0.00001031048851 -0.00301810051315 -0.00881204847246
v 0.00001560062265 -0.00301689957269 -0.00880885776132
v 0.00000374555611 0.00258227204904 -0.00884772278368
v 0.0030430983752 0.00151939806528 -0.00755042955279
v 0.00001264306593 0.00203108554706 -0.00886327121407
v 0.00002056611265 -0.00301881181076 -0.00882971845567
v 0.00002238415072 -0.00301818759181 -0.00882799271494
v 0.00001680280729 0.00203028344549 -0.00886017456651
v 0.00002471859807 -0.00301498081535 -0.00882665254176
v 0.0030376710929 0.00152298936155 -0.00755822751671
v 0.0000242645383 -0.0030170052778 -0.00882681272924
v 0.00002566782314 -0.00301795382984 -0.00882581807673
v 0.00001526096639 0.00203055213206 -0.00886098667979
v 0.0000271726567 -0.00302180903964 -0.00882213655859
v 0.00001386316944 0.00203081942163 -0.00886202696711
v 0.00304134143516 0.00152079586405 -0.00755517790094
v -0.0009436919936 0.00265995273367 -0.0129066510126
v -0.00094515871024 0.00265977042727 -0.01290789619088
v -0.00094714184524 0.00265964586288 -0.01290808152407
v 0.00001163011439 0.00203135074116 -0.00886468961835
v 0.00001489402439 -0.00302008213475 -0.00883402395993
v 0.00001720342152 -0.00301905279048 -0.00883419066668
v 0.000018184277 -0.00301695684902 -0.00883406493813
v -0.00094298535259 0.00265987729654 -0.01290498394519
v 0.00001823610728 -0.00301504228264 -0.00883437506855
v 0.00001031774445 0.00203188019805 -0.00886790826917
v 0.0000184752007 -0.00301674753428 -0.00883347913623
v 0.0000191766685 -0.00301821785979 -0.00883181393147
v 0.00001084870746 0.00203161593527 -0.00886624772102
v 0.00000467597329 0.00203162292019 -0.00886372942477
v 0.00000592177003 0.00203136494383 -0.00886124651879
v 0.00000753685026 0.00203110580333 -0.00885898526758
v -0.00094883271959 0.00265977042727 -0.01290702819824
v 0.0000154598838 -0.00301879132167 -0.00882543250918
v 0.00001324477216 -0.00301820691675 -0.00882877130061
v 0.00001215353859 -0.00301674380898 -0.00883143022656
v 0.00001197747861 -0.0030169559177 -0.00883243791759
v 0.00001275396517 -0.00301905279048 -0.00883314013481
v 0.00000382951839 0.00203188019805 -0.00886637624353
v 0.00001174788031 -0.00301504228264 -0.00883284304291
v -0.00094947358593 0.00265987729654 -0.01290345191956
v -0.0009495872655 0.00265995273367 -0.01290525868535
v 0.00303658051416 0.0015227755066 -0.00755095202476
v 0.00303748552687 0.00152279098984 -0.00754923466593
v 0.00000948220713 0.00203084596433 -0.00885700248182
v 0.00002175607733 -0.00301894801669 -0.00881950557232
v 0.00002163688805 -0.00301686185412 -0.00882057938725
v 0.00002076724013 -0.0030166618526 -0.00882113818079
v 0.00001835959665 -0.00301815848798 -0.00882267858833
v 0.00001171098938 0.00203058402985 -0.00885534379631
v 0.00001416941177 0.0020303199999 -0.00885405018926
v 0.00303503754549 0.00152302568313 -0.0075521026738
v 0.00002208521255 -0.00301494402811 -0.00882052816451
# 133 vertices

vn -0.34466922283173 -0.21475273370743 0.91382950544357
vn -0.45943534374237 -0.20124466717243 0.86511254310608
vn -0.21583108603954 -0.24835677444935 0.94431763887405
vn 0.70152580738068 -0.00363497296348 -0.71263474225998
vn 0.63645488023758 -0.0041431854479 -0.77130275964737
vn 0.50994217395782 -0.00493430206552 -0.86019450426102
vn -0.10334829986095 -0.30101543664932 0.948002576828
vn -0.96072155237198 0.21510751545429 0.17533630132675
vn 0.39500433206558 -0.00549334613606 -0.91866284608841
vn 0.45108845829964 -0.00524595705792 -0.89246380329132
vn 0.59356379508972 -0.48661521077156 0.64100521802902
vn -0.57037425041199 -0.17235127091408 0.80309915542603
vn -0.66529160737991 -0.16504828631878 0.72811132669449
vn 0.21304777264595 0.12921211123466 -0.96846002340317
vn 0.04788700118661 0.23927269876003 -0.96977078914642
vn -0.36826056241989 0.46894177794456 -0.8027937412262
vn -0.58217972517014 0.55311840772629 -0.59592515230179
vn -0.80998754501343 -0.08790667355061 0.57982122898102
vn -0.77800434827805 -0.02466056868434 0.62777471542358
vn -0.76339882612228 -0.00163111148868 0.64592534303665
vn 0.89854794740677 -0.14495046436787 -0.41424748301506
vn 0.92160457372665 -0.11071575433016 -0.37200412154198
vn 0.95526856184006 -0.04757406190038 -0.29188820719719
vn 0.96683490276337 -0.0189149286598 -0.2547008395195
vn 0.97323393821716 0 -0.22981660068035
vn -0.69692438840866 0.10233142226934 0.70980608463287
vn 0.95791167020798 -0.00042907323223 -0.28706279397011
vn 0.93579518795013 -0.00088046718156 -0.3525430560112
vn -0.80445343255997 -0.07020442187786 0.58985257148743
vn 0.86962383985519 -0.00192007480655 -0.49371114373207
vn 0.82345163822174 -0.00247973413207 -0.56738102436066
vn -0.53857451677322 -0.70281767845154 -0.4647416472435
vn -0.86129236221313 -0.36793148517609 0.35043096542358
vn -0.8195007443428 -0.25879567861557 0.51131528615952
vn -0.86901837587357 -0.46253576874733 0.17569196224213
vn 0.80647104978561 -0.24829325079918 -0.5366142988205
vn 0.83890014886856 -0.21618957817554 -0.49950832128525
vn -0.5328072309494 0.59570425748825 0.60104316473007
vn -0.36149954795837 0.789381980896 0.49617952108383
vn -0.62608867883682 0.45364454388618 0.63420784473419
vn 0.65733659267426 -0.41863805055618 -0.62661850452423
vn 0.5912379026413 -0.50874388217926 -0.62579345703125
vn 0.69820022583008 -0.37354853749275 -0.61071920394897
vn 0.6847385764122 -0.34463560581207 -0.64215219020844
vn 0.7439256310463 -0.30169126391411 -0.5962860584259
vn 0.43814462423325 -0.65217250585556 -0.61862778663635
vn 0.58102560043335 -0.49790820479393 -0.64381414651871
vn 0.01731234416366 -0.89621561765671 -0.44328081607819
vn -0.24259713292122 -0.92932939529419 -0.27837646007538
vn -0.78329426050186 0.03377955034375 0.62073266506195
vn -0.78833192586899 0.00841679144651 0.61519259214401
vn -0.1918504089117 0.90367352962494 0.38284149765968
vn 0.06192325428128 0.98320597410202 0.17167262732983
vn -0.79282933473587 -0.01691628992558 0.60920888185501
vn 0.7152287364006 -0.32329031825066 -0.61962187290192
vn -0.81011694669724 -0.48413732647896 0.33063817024231
vn -0.69851177930832 -0.69987094402313 0.1492043286562
vn 0.54378819465637 -0.22425074875355 -0.80870634317398
vn 0.6232060790062 0.03348913416266 -0.78134030103683
vn -0.6847385764122 0.34463560581207 0.64215219020844
vn -0.82485711574554 -0.01807340234518 0.56505227088928
vn -0.74232262372971 0.30294594168663 0.59764611721039
vn -0.70842170715332 0.32820132374763 0.62483805418015
vn -0.80790114402771 0.24696238338947 0.53507500886917
vn -0.83890014886856 0.21618957817554 0.49950832128525
vn 0.6504453420639 0.38946208357811 -0.65210443735123
vn 0.62597328424454 0.60833048820496 -0.48794615268707
vn 0.55454152822495 0.70532864332199 -0.44158259034157
vn 0.55429911613464 0.78126811981201 -0.28700631856918
vn -0.11178582906723 0.80608773231506 0.58114242553711
vn -0.76133894920349 0.18865159153938 0.62030124664307
vn 0.42442554235458 -0.46551194787025 -0.77663481235504
vn 0.66386693716049 0.64530920982361 -0.37796387076378
vn 0.64225649833679 0.76644825935364 -0.00797457899898
vn 0.67745143175125 0.7032698392868 -0.21557141840458
vn -0.97323393821716 0 0.22981660068035
vn 0.59330451488495 0.78382730484009 0.18331536650658
vn 0.47978031635284 0.779780626297 0.40218532085419
vn 0.27202904224396 -0.32053461670876 -0.90733551979065
vn 0.53341293334961 0.04101297259331 -0.84486013650894
vn 0.46951296925545 -0.06428430229425 -0.88058227300644
vn -0.92181050777435 0.11040109395981 0.37158712744713
vn -0.89854794740677 0.14495046436787 0.41424748301506
vn -0.95622134208679 0.04538126662374 0.28910425305367
vn -0.93580895662308 0.00090026651742 0.35250639915466
vn -0.95792019367218 0.00041921428056 0.28703442215919
vn 0.62404668331146 0.21875007450581 -0.75014275312424
vn 0.6302427649498 0.23865960538387 -0.73880690336227
vn -0.86962383985519 0.00192007480655 0.49371114373207
vn -0.82345163822174 0.00247973413207 0.56738102436066
vn -0.96817189455032 0.01519304327667 0.24982470273972
vn -0.04678866267204 -0.23991574347019 0.96966552734375
vn -0.23959845304489 -0.11050877720118 0.96456229686737
vn 0.38159847259521 -0.47503185272217 0.79292327165604
vn 0.58219558000565 -0.55316478013992 0.59586662054062
vn -0.26915475726128 0.80906426906586 -0.52246600389481
vn 0.32580679655075 0.64847785234451 -0.68798720836639
vn 0.0361493639648 0.74185389280319 -0.66958647966385
vn 0.42389437556267 0.58320879936218 -0.692950963974
vn 0.52067548036575 0.58029437065125 -0.62622314691544
vn -0.63230115175247 0.00414974894375 0.77471154928207
vn -0.70152580738068 0.00363497296348 0.71263474225998
vn -0.50509947538376 0.00494125159457 0.86304700374603
vn 0.32128784060478 0.57804387807846 -0.7500929236412
vn -0.56942147016525 0.52261912822723 -0.63453012704849
vn 0.58475089073181 0.46286633610725 -0.66619902849197
vn 0.78468364477158 0.30197760462761 -0.54136967658997
vn -0.39500433206558 0.00549334613606 0.91866284608841
vn -0.45064491033554 0.0052555478178 0.89268779754639
vn 0.83593142032623 -0.48135274648666 -0.2636630833149
vn 0.83055758476257 -0.55663532018662 0.0181976351887
vn 0.67052292823792 -0.24988797307014 -0.69853776693344
vn 0.49017328023911 -0.00503111630678 -0.8716105222702
vn 0.4109668135643 -0.00543202226982 -0.91163414716721
vn 0.63600915670395 -0.0041329190135 -0.77167046070099
vn -0.43275061249733 0.76136058568954 0.48275971412659
vn -0.24139361083508 0.6693257689476 0.70266073942184
vn -0.54642218351364 0.82197833061218 0.16054424643517
vn -0.6221359372139 0.66371023654938 0.41525366902351
vn -0.63691812753677 0.66038209199905 0.39778238534927
vn -0.65135967731476 0.6567018032074 0.38009649515152
vn -0.78426015377045 0.22176341712475 -0.57944542169571
vn -0.04419503733516 0.48383241891861 0.87404406070709
vn 0.53477793931961 -0.1212530657649 -0.83624768257141
vn 0.18217243254185 0.31917503476143 0.9300217628479
vn -0.30172783136368 0.72736692428589 0.61635839939117
vn -0.49092131853104 0.69672948122025 0.52303373813629
vn -0.09880769252777 0.72496730089188 0.68165934085846
vn 0.72421020269394 0.39749601483345 0.56348603963852
vn -0.97786766290665 0.20849701762199 -0.01743024401367
vn -0.97614532709122 -0.0087392674759 -0.21694208681583
vn -0.89453113079071 0.40757918357849 0.18355709314346
vn -0.30573582649231 0.77546018362045 0.55243748426437
vn 0.86889690160751 -0.00192886183504 -0.49498930573463
vn 0.93629682064056 -0.0008716598968 -0.35120868682861
vn 0.82501584291458 -0.23039528727531 -0.51601052284241
vn 0.92624920606613 -0.10314363986254 -0.36252415180206
vn 0.43606114387512 -0.47459158301353 -0.76460021734238
vn 0.14955803751945 -0.55944567918777 -0.8152624964714
vn 0.95953863859177 -0.00037413751124 -0.28157669305801
vn 0.78475075960159 0.53579354286194 0.31159517168999
vn 0.90147614479065 0.40131115913391 0.16214206814766
vn 0.53354716300964 0.69322317838669 0.48452973365784
vn 0.97864067554474 0.20449465513229 -0.02107994444668
vn 0.98573350906372 0.08788680285215 -0.14354559779167
vn -0.75142204761505 -0.51826459169388 -0.40837076306343
vn 0.80659848451614 -0.27793312072754 -0.52168202400208
vn 0.84486830234528 -0.23926404118538 -0.47848749160767
vn 0.76443606615067 -0.31529012322426 -0.56234294176102
vn -0.7384597659111 -0.471116989851 -0.48241674900055
vn -0.49845188856125 -0.55944573879242 -0.66224330663681
vn -0.96901261806488 -0.22955626249313 -0.09120573848486
vn -0.93549203872681 0.00089959538309 0.35334670543671
vn -0.9568737745285 0.00043621315854 0.2905036509037
vn -0.87008386850357 0.00192071474157 0.492899954319
vn -0.99065744876862 -0.11263178288937 0.07688874751329
vn 0.6670264005661 -0.35202124714851 -0.65662533044815
vn 0.69454962015152 -0.36095616221428 -0.62234354019165
vn 0.68388950824738 -0.35196912288666 -0.63907188177109
vn 0.69977289438248 -0.36541166901588 -0.613833963871
vn 0.74542224407196 -0.37663635611534 -0.54999160766602
vn -0.39094325900078 0.11566024273634 -0.91311889886856
vn 0.58496052026749 -0.34443435072899 -0.73429298400879
vn 0.86282187700272 -0.50531339645386 -0.01402657013386
vn -0.63768917322159 0.00411450257525 0.77028280496597
vn -0.50863873958588 0.00495328381658 0.86096578836441
vn -0.66824805736542 0.24760366976261 0.70152473449707
vn -0.54010927677155 0.12602789700031 0.83210515975952
vn -0.83500427007675 0.4785088300705 0.27165639400482
vn -0.83056384325027 0.55662506818771 -0.01822648197412
vn -0.4455089867115 0.0052626086399 0.89526200294495
# 171 normals

vt 0.49995157122612 0.00212597846985 0
vt 0.5 0 0
vt 0.5 0.00239622592926 0
vt 0.49946200847626 0.00165581703186 0
vt 0.2547627389431 0.75476276874542 0
vt 0.25495859980583 0.75495862960815 0
vt 0.49977412819862 0.00184786319733 0
vt 0.25515449047089 0.75515449047089 0
vt 0.50004839897156 0.00212597846985 0
vt 0.50022584199905 0.00184786319733 0
vt 0.25535038113594 0.75535035133362 0
vt 0.5 1 0
vt 0.74464964866638 0.75535035133362 0
vt 0.50053799152374 0.00165581703186 0
vt 0.74484550952911 0.75515449047089 0
vt 0.74504137039185 0.75495862960815 0
vt 0.74523729085922 0.75476276874542 0
vt 0.72123175859451 0.68088132143021 0
vt 0.7209849357605 0.68092042207718 0
vt 0.72073811292648 0.68095946311951 0
vt 0.72049129009247 0.68099856376648 0
vt 0.2555835545063 0.75463271141052 0
vt 0.25530993938446 0.75467610359192 0
vt 0.25503632426262 0.75471937656403 0
vt 0.72100907564163 0.68099474906921 0
vt 0.19191606342793 0.95058107376099 0
vt 0.72056376934052 0.68122166395187 0
vt 0.72078639268875 0.68110823631287 0
vt 0.19167397916317 0.95066893100739 0
vt 0.19139903783798 0.95069444179535 0
vt 0.19111704826355 0.95064401626587 0
vt 0.74496364593506 0.75471937656403 0
vt 0.74469006061554 0.75467610359192 0
vt 0.27926191687584 0.68095946311951 0
vt 0.27950873970985 0.68099856376648 0
vt 0.27901509404182 0.68092042207718 0
vt 0.27876827120781 0.68088132143021 0
vt 0.74441647529602 0.75463271141052 0
vt 0.27899092435837 0.68099474906921 0
vt 0.27921357750893 0.68110823631287 0
vt 0.80832600593567 0.95066893100739 0
vt 0.80808395147324 0.95058107376099 0
vt 0.27943626046181 0.68122166395187 0
vt 0.80860096216202 0.95069444179535 0
vt 0.80888295173645 0.95064401626587 0
# 45 texture coordinates

o Decagon_web
usemtl Mat
f 7/1/1 15/2/2 17/3/3
f 3/4/4 2/5/4 11/6/5 6/7/5
f 6/7/5 11/6/5 14/8/6 7/1/6
f 8/9/7 15/2/7 4/10/7
f 17/3/8 15/2/8 8/9/8
f 13/11/9 1/12/9 17/3/9
f 1/12/9 16/13/9 17/3/9
f 7/1/6 14/8/6 13/11/10 17/3/10
f 4/10/11 15/2/11 5/14/11
f 6/7/12 15/2/2 7/1/1
f 3/4/13 15/2/2 6/7/12
f 17/3/14 16/13/14 12/15/15 8/9/15
f 8/9/15 12/15/15 10/16/16 4/10/16
f 4/10/16 10/16/16 9/17/17 5/14/17
f 26/10/18 15/2/19 21/9/20
f 20/14/21 27/18/21 29/19/22 26/10/22
f 26/10/22 29/19/22 18/20/23 21/9/23
f 21/9/23 18/20/23 25/21/24 23/3/24
f 25/21/25 22/22/25 23/3/25
f 21/9/20 15/2/19 23/3/26
f 23/3/27 22/22/27 28/23/28 24/1/28
f 20/14/29 15/2/19 26/10/18
f 24/1/28 28/23/28 30/24/30 19/7/30
f 19/7/30 30/24/30 2/5/31 3/4/31
f 23/3/32 15/2/32 24/1/32
f 19/7/33 15/2/33 3/4/34
f 24/1/35 15/2/33 19/7/33
f 33/10/36 41/25/36 27/18/37 20/14/37
f 36/1/38 15/2/39 42/3/40
f 42/3/41 15/2/42 35/9/43
f 43/26/44 39/27/44 42/3/44
f 35/9/43 32/28/45 41/25/36 33/10/36
f 36/1/46 38/29/46 43/26/47 42/3/47
f 40/7/48 31/30/48 38/29/46 36/1/46
f 34/4/49 37/31/49 31/30/48 40/7/48
f 35/9/50 15/2/51 33/10/51
f 40/7/52 15/2/39 36/1/38
f 34/4/53 15/2/39 40/7/52
f 33/10/51 15/2/51 20/14/54
f 42/3/41 39/27/55 32/28/45 35/9/43
f 47/7/56 51/30/56 37/31/57 34/4/57
f 46/1/58 15/2/58 47/7/59
f 54/27/60 52/26/60 53/3/60
f 46/1/61 49/29/61 51/30/56 47/7/56
f 45/9/62 56/28/62 54/27/63 53/3/63
f 44/10/64 55/25/64 56/28/62 45/9/62
f 48/14/65 50/18/65 55/25/64 44/10/64
f 48/14/66 15/2/67 44/10/67
f 47/7/68 15/2/68 34/4/68
f 44/10/67 15/2/67 45/9/69
f 45/9/70 15/2/70 53/3/70
f 53/3/71 52/26/71 49/29/61 46/1/61
f 53/3/72 15/2/58 46/1/58
f 65/4/73 15/2/74 64/7/75
f 69/22/76 67/21/76 68/3/76
f 64/7/75 15/2/74 60/1/77
f 60/1/77 15/2/74 68/3/78
f 68/3/79 15/2/80 59/9/81
f 58/10/82 57/19/82 50/18/83 48/14/83
f 59/9/84 66/20/84 57/19/82 58/10/82
f 60/1/85 61/23/85 69/22/86 68/3/86
f 58/10/87 15/2/80 48/14/88
f 64/7/89 62/24/89 61/23/85 60/1/85
f 65/4/90 63/5/90 62/24/89 64/7/89
f 59/9/81 15/2/80 58/10/87
f 68/3/91 67/21/91 66/20/84 59/9/84
f 80/9/92 76/15/92 74/13/93 72/3/93
f 79/10/94 75/16/94 76/15/92 80/9/92
f 77/14/95 70/17/95 75/16/94 79/10/94
f 77/14/96 15/2/97 79/10/98
f 81/7/99 15/2/99 65/4/100
f 81/7/101 78/6/101 63/5/102 65/4/102
f 82/1/103 83/8/103 78/6/101 81/7/101
f 82/1/104 15/2/99 81/7/99
f 72/3/105 15/2/105 82/1/105
f 79/10/98 15/2/97 80/9/106
f 80/9/106 15/2/97 72/3/107
f 74/13/108 71/12/108 72/3/108
f 71/12/108 73/11/108 72/3/108
f 72/3/109 73/11/109 83/8/103 82/1/103
f 94/10/110 84/32/110 70/17/111 77/14/111
f 92/9/112 96/33/112 84/32/110 94/10/110
f 91/1/113 93/34/113 88/35/114 89/3/114
f 87/7/115 95/36/115 93/34/113 91/1/113
f 86/4/4 85/37/4 95/36/115 87/7/115
f 94/10/116 15/2/117 77/14/118
f 86/4/119 15/2/120 87/7/120
f 87/7/120 15/2/120 91/1/121
f 91/1/122 15/2/122 89/3/122
f 92/9/123 15/2/117 94/10/116
f 88/35/9 90/38/9 89/3/9
f 89/3/124 90/38/124 96/33/112 92/9/112
f 89/3/125 15/2/117 92/9/123
f 108/7/126 15/2/126 86/4/127
f 107/1/128 15/2/126 108/7/126
f 105/3/129 15/2/129 107/1/129
f 103/9/130 15/2/130 105/3/131
f 102/10/132 15/2/130 103/9/130
f 101/14/133 15/2/133 102/10/133
f 108/7/134 100/39/134 85/37/31 86/4/31
f 107/1/135 109/40/135 100/39/134 108/7/134
f 103/9/136 97/41/136 104/42/137 105/3/137
f 104/42/25 106/43/25 105/3/25
f 102/10/138 98/44/138 97/41/136 103/9/136
f 101/14/139 99/45/139 98/44/138 102/10/138
f 105/3/140 106/43/140 109/40/135 107/1/135
f 118/10/141 15/2/142 101/14/143
f 117/9/144 15/2/142 118/10/141
f 120/3/145 15/2/142 117/9/144
f 116/1/146 15/2/146 120/3/146
f 115/7/147 15/2/147 116/1/148
f 114/4/149 15/2/147 115/7/147
f 118/10/150 113/44/150 99/45/151 101/14/151
f 117/9/152 122/41/152 113/44/150 118/10/150
f 119/43/76 121/42/76 120/3/76
f 116/1/153 110/40/153 119/43/154 120/3/154
f 115/7/155 111/39/155 110/40/153 116/1/153
f 114/4/90 112/37/90 111/39/155 115/7/155
f 120/3/156 121/42/156 122/41/152 117/9/152
f 129/7/157 15/2/158 114/4/159
f 128/1/160 15/2/158 129/7/157
f 133/3/161 15/2/158 128/1/160
f 127/9/162 15/2/162 133/3/162
f 126/10/163 15/2/163 127/9/163
f 5/14/164 15/2/164 126/10/164
f 129/7/165 125/36/165 112/37/102 114/4/102
f 132/38/108 131/35/108 133/3/108
f 128/1/166 130/34/166 125/36/165 129/7/165
f 127/9/167 123/33/167 132/38/168 133/3/168
f 126/10/169 124/32/169 123/33/167 127/9/167
f 5/14/170 9/17/170 124/32/169 126/10/169
f 133/3/171 131/35/171 130/34/166 128/1/166

