# WaveFront *.obj file (generated by CINEMA 4D)

mtllib ./DecagonShape_53.mtl

v -0.00042548417696 0.00364411342889 -0.00645955093205
v 0.0006906290655 0.00225000712089 -0.00476373871788
v 0.00002238050729 -0.003291858593 -0.00520369457081
v 0.0000231350441 -0.00329047394916 -0.0052249035798
v 0.00002094482625 -0.00329132284969 -0.00522395316511
v 0.00002715958544 -0.00329101621173 -0.00521380128339
v 0.00002624852823 -0.00328878546134 -0.0052216486074
v 0.000024851528 -0.00328862271272 -0.00522418692708
v -0.0013267211616 0.00163097819313 -0.00752767641097
v -0.00132534618024 0.00163188599981 -0.00752870226279
v 0.00069473125041 0.00225094007328 -0.00477040512487
v -0.00132391962688 0.00163318321574 -0.00752892671153
v 0.0006926242495 0.00225417059846 -0.00478526391089
v 0.00069543841528 0.00225236616097 -0.00477812532336
v 0.00002333276825 -0.00330294412561 -0.00521347811446
v -0.00132288131863 0.00163473188877 -0.00752838654444
v 0.00002451125874 -0.00328657031059 -0.00522513082251
v -0.00196656072512 0.0011763718212 -0.0064956122078
v 0.00001252540642 -0.00329046370462 -0.00519853457808
v -0.00000783724954 -0.00329375360161 -0.00520003819838
v 0.00000188539457 -0.00328786601312 -0.0052005071193
v 0.00066873698961 0.00224976777099 -0.00476142764091
v 0.0000012607677 -0.00328569230624 -0.00520087499171
v 0.0000047276726 -0.00328797334805 -0.00519919255748
v -0.00196315301582 0.00117797113489 -0.00649419007823
v -0.0000028201614 -0.00329130841419 -0.00520159956068
v -0.00197405507788 0.00117400917225 -0.00649454072118
v 0.00067613250576 0.00224955845624 -0.00475870724767
v -0.00197033747099 0.00117498764303 -0.00649573095143
v 0.00068397104042 0.00224957801402 -0.00475954078138
v -0.00280716037378 0.00266461004503 -0.00264779082499
v -0.00197968212888 0.00117377541028 -0.00648895744234
v -0.000012338548 -0.00329398969188 -0.00519639579579
v -0.00001096736014 -0.00329351006076 -0.0051896343939
v -0.0000147609544 -0.00329241924919 -0.00519307982177
v -0.00001493853324 -0.00329230097122 -0.00519160181284
v -0.00280548236333 0.00266541959718 -0.00264707556926
v -0.00280805281363 0.00266395276412 -0.0026493743062
v -0.00198096013628 0.0011746045202 -0.00648523261771
v -0.00001339715163 -0.0032936243806 -0.0051903440617
v -0.00197729165666 0.00117357866839 -0.00649218866602
v -0.00001590061402 -0.00329052633606 -0.0051914928481
v -0.00280805001967 0.00266335904598 -0.00265108654276
v -0.00000758266015 -0.00329088512808 -0.00519290426746
v -0.00000897124028 -0.00328946835361 -0.0051916888915
v -0.00000915130568 -0.00328958895989 -0.00519103230909
v -0.00000923357038 -0.00329174334183 -0.00519017642364
v -0.00000550062259 -0.00329108932056 -0.00519439158961
v -0.00280253635719 0.00266644498333 -0.00264915195294
v -0.00197171838954 0.00117667356972 -0.00648889411241
v -0.00280372239649 0.00266616302542 -0.00264765252359
v -0.0028019787278 0.00266610179096 -0.00265084183775
v -0.00000982925485 -0.00328778335825 -0.00519124791026
v -0.00197488884442 0.00117734726518 -0.00648498814553
v -0.00197317963466 0.00117662583943 -0.00648791668937
v -0.00197427487001 0.00117685005534 -0.00648655928671
v -0.00197004922666 0.00117695808876 -0.00648936908692
v -0.00000346498177 -0.00328972516581 -0.00519515573978
v -0.00000122509857 -0.0032878338825 -0.00519460020587
v 0.00000249351638 -0.0032882024534 -0.00519291544333
v 0.00067530950764 0.00224913354032 -0.00475210510194
v 0.0006861636648 0.00224881758913 -0.00475329114124
v 0.00069537718082 0.00224907044321 -0.00475915335119
v 0.00001340144445 -0.00329109141603 -0.00519195571542
v 0.00002712853347 -0.00329279527068 -0.00519910966977
v -0.00196835421957 0.00117741792928 -0.00648927735165
v -0.00196681893431 0.00117797113489 -0.00648862170056
v -0.00000240519671 -0.00328569230624 -0.0051953070797
v 0.00066507101292 0.00224976777099 -0.00475585926324
v -0.00133028323762 0.00162781914696 -0.00753234233707
v -0.00042008212768 0.00364377070218 -0.00646344292909
v 0.00002991323163 -0.00328691257164 -0.00522902281955
v 0.00069802632788 0.00225382833742 -0.00478915590793
v -0.00131747929845 0.00163438951131 -0.00753227807581
v -0.00132573000155 0.00162897899281 -0.00753468926996
v -0.00132102239877 0.00163130718283 -0.00753463013098
v 0.00001738273386 -0.00329448189586 -0.00522861955687
v 0.00070103775943 0.0022500238847 -0.00476844701916
v 0.00002424703416 -0.00329300807789 -0.00523096835241
v 0.00002857091204 -0.00328968442045 -0.00522999884561
v 0.00003374310836 -0.00329185975716 -0.0052131768316
v 0.00003124112482 -0.00328931072727 -0.00522657530382
v 0.00070197921013 0.00225166324526 -0.00477920565754
v -0.00133340491448 0.00162792904302 -0.00752812018618
v 0.00061557645677 0.00170821079519 -0.00481606973335
v 0.00001288445583 -0.00328998547047 -0.00521286483854
v 0.00001399253961 -0.00328932935372 -0.00521505111828
v 0.00061584636569 0.00170772511046 -0.00482091587037
v 0.00001370731115 -0.00328588532284 -0.00521734729409
v -0.00133240094874 0.00163072627038 -0.00751840788871
v 0.00001374634576 -0.00328795262612 -0.00521711120382
v 0.00001297329436 -0.00328869558871 -0.00521876197308
v 0.00061652169097 0.00170779554173 -0.0048193084076
v 0.00001313343546 -0.00329230376519 -0.00522296177223
v 0.00061642250512 0.00170794897713 -0.00481757288799
v -0.00133420096245 0.00162906968035 -0.00752305565402
v -0.00273783900775 0.00295155402273 -0.00701982015744
v -0.00273976870812 0.00295160571113 -0.00701972423121
v -0.00274134729989 0.00295157777146 -0.00701850373298
v 0.00061416812241 0.00170858367346 -0.00481510907412
v 0.00000577774836 -0.00329061155207 -0.00520987389609
v 0.00000746767 -0.00328964903019 -0.00521149812266
v 0.0000085339243 -0.00328762945719 -0.00521191256121
v -0.00273620686494 0.00295121222734 -0.00701911048964
v 0.00000859269494 -0.00328569230624 -0.00521201174706
v 0.0006109297392 0.00170955981594 -0.00481544993818
v 0.00000919268768 -0.00328751583584 -0.00521173654124
v 0.00001077332945 -0.00328920781612 -0.00521169230342
v 0.00061250012368 0.00170904677361 -0.00481488835067
v 0.00061167706735 0.00170862185769 -0.0048082866706
v 0.00061636086321 0.00170782313216 -0.00480885943398
v 0.00062032451387 0.00170727446675 -0.00481148436666
v -0.00274184439331 0.00295160571113 -0.00701657123864
v 0.00001763248292 -0.00329092214815 -0.00520827993751
v 0.00001164936839 -0.00328983576037 -0.00520511344075
v 0.00000696595725 -0.00328774400987 -0.00520547898486
v 0.00000539988969 -0.00328769604675 -0.00520631438121
v 0.00000495364702 -0.00328964903019 -0.00520767970011
v 0.0006072637625 0.00170955981594 -0.0048098815605
v 0.00000492673098 -0.00328569230624 -0.00520644336939
v -0.00273987278342 0.00295121222734 -0.00701354211196
v -0.00274116988294 0.00295155402273 -0.00701476074755
v -0.00132774177473 0.00163035269361 -0.00752409268171
v -0.00132761907298 0.00163049367256 -0.00752602471039
v 0.00062272901414 0.00170703325421 -0.00481561524794
v 0.00001943051211 -0.00329023925588 -0.0052222344093
v 0.00001939881804 -0.00328823179007 -0.00522082764655
v 0.00002010499702 -0.00328824110329 -0.00521917361766
v 0.00002057606434 -0.00329017266631 -0.00521442620084
v 0.00062306266045 0.00170709227677 -0.00482038874179
v 0.00062124826945 0.001707382733 -0.00482480786741
v -0.00132699904498 0.00163038389292 -0.00752229942009
v 0.00001910928404 -0.00328622781672 -0.00522123929113
# 133 vertices

vn 0.8080707192421 -0.41031157970428 -0.42268922924995
vn 0.90547925233841 -0.39462512731552 -0.15613570809364
vn 0.62022441625595 -0.48397928476334 -0.61732143163681
vn -0.87674427032471 0.14224764704704 -0.45943993330002
vn -0.96680951118469 0.13388143479824 -0.21761238574982
vn -0.96580410003662 0.09734647721052 0.24030412733555
vn 0.71749770641327 -0.46434882283211 -0.51920825242996
vn 0.66644924879074 0.39985665678978 0.62925356626511
vn -0.81027984619141 0.05135049298406 0.58378905057907
vn -0.89888107776642 0.07406594604254 0.43188771605492
vn -0.05762353166938 -0.67492431402206 -0.73563355207443
vn 0.94788324832916 -0.30127477645874 0.10368628799915
vn 0.87868028879166 -0.27123352885246 0.39287820458412
vn -0.37743723392487 0.30584365129471 0.87407141923904
vn -0.38335284590721 0.30340087413788 0.87234658002853
vn -0.07247284799814 0.40644013881683 0.91079860925674
vn 0.25245267152786 0.46602690219879 0.84798973798752
vn 0.26675280928612 -0.32620531320572 0.90688091516495
vn 0.16579447686672 -0.49691361188889 0.8518151640892
vn -0.16547520458698 -0.34097129106522 -0.92539536952972
vn 0.02607509680092 -0.26761880517006 -0.96317195892334
vn 0.37539520859718 -0.10172937065363 -0.9212651848793
vn 0.52184927463531 -0.01741304807365 -0.85285997390747
vn 0.54989463090897 0 -0.83523404598236
vn 0.64014846086502 0.30337342619896 0.70581477880478
vn 0.39642128348351 0.02496223337948 -0.91772931814194
vn 0.20227198302746 0.05319390073419 -0.97788363695145
vn 0.35642546415329 -0.1416962146759 0.92351669073105
vn -0.25427511334419 0.10701830685139 -0.96119260787964
vn -0.491240888834 0.12773731350899 -0.86160641908646
vn -0.5788978934288 -0.80987477302551 0.09476328641176
vn -0.45402112603188 -0.84208309650421 0.29113724827766
vn 0.29421246051788 -0.61809295415878 0.7289719581604
vn -0.30411806702614 -0.82780736684799 0.47143098711967
vn -0.65612030029297 -0.46170794963837 -0.59693545103073
vn -0.52015262842178 -0.44090184569359 -0.73146891593933
vn 0.53103643655777 0.23790867626667 0.81326484680176
vn -0.29600322246552 0.50271415710449 -0.81219488382339
vn -0.13888290524483 0.75022608041763 -0.64643049240112
vn -0.91070824861526 -0.41141641139984 -0.03670259565115
vn -0.83549928665161 -0.45634773373604 -0.30608442425728
vn -0.79254740476608 -0.51260149478912 0.33031550049782
vn -0.86305445432663 -0.47637692093849 0.16793473064899
vn -0.46886885166168 -0.52344751358032 0.7114525437355
vn -0.19261629879475 -0.46015080809593 0.86669498682022
vn 0.03402821719646 0.91264009475708 -0.40734526515007
vn 0.43065544962883 0.83258581161499 0.34833428263664
vn 0.04579126834869 0.94968414306641 -0.30984380841255
vn 0.45350441336632 0.65640842914581 0.60287791490555
vn -0.88427430391312 -0.4368893802166 -0.16488383710384
vn 0.64016783237457 -0.02737335301936 0.76774722337723
vn 0.41378504037857 -0.18619951605797 0.89112943410873
vn -0.6222625374794 -0.29446271061897 -0.72531443834305
vn -0.60541146993637 -0.11905855685472 -0.78695744276047
vn -0.58478075265884 -0.01293353829533 -0.81108826398849
vn 0.91070824861526 0.41141641139984 0.03670259565115
vn 0.88494795560837 0.24638564884663 0.3951723575592
vn 0.83628785610199 0.45615839958191 0.30420738458633
vn 0.88634771108627 0.43556094169617 0.15708087384701
vn 0.65477269887924 0.46157112717628 0.59851884841919
vn 0.520139336586 0.44087061285973 0.7314972281456
vn -0.58467876911163 -0.13372026383877 -0.80016851425171
vn -0.50728583335876 0.24432772397995 -0.82641696929932
vn 0.45296701788902 -0.28176057338715 0.84583204984665
vn 0.52711302042007 -0.10072787851095 0.84380435943604
vn 0.58110743761063 0.08417143672705 0.80946236848831
vn 0.91730695962906 0.34641253948212 0.19633214175701
vn -0.62406104803085 -0.31950163841248 -0.71306836605072
vn -0.17700129747391 0.82533133029938 -0.53618907928467
vn 0.20753347873688 0.90993899106979 -0.35908332467079
vn 0.04699566215277 0.88399958610535 -0.46511951088905
vn -0.54989463090897 0 0.83523404598236
vn 0.3880627155304 0.88877522945404 -0.24389731884003
vn 0.49648576974869 0.86055773496628 -0.11376414448023
vn -0.77382946014404 -0.5013839006424 -0.38704285025597
vn -0.69606411457062 -0.53978335857391 -0.47342225909233
vn -0.03136559575796 0.2654042840004 0.96362686157227
vn 0.16547520458698 0.34097129106522 0.92539536952972
vn -0.22678783535957 0.1776706725359 0.95760136842728
vn -0.20229993760586 -0.05319980159402 0.97787755727768
vn -0.39644396305084 -0.02499842830002 0.91771852970123
vn -0.37723854184151 0.39578512310982 -0.83728444576263
vn -0.4714050590992 0.22596381604671 -0.85247731208801
vn 0.25425267219543 -0.10701609402895 0.9611988067627
vn 0.491240888834 -0.12773731350899 0.86160641908646
vn -0.26880374550819 0.55057108402252 -0.79032653570175
vn -0.84000426530838 -0.45548430085182 -0.2948337495327
vn 0.51180231571198 -0.24518339335918 -0.82337319850922
vn 0.68822908401489 -0.14429378509521 -0.71099931001663
vn 0.02888322435319 -0.41724428534508 -0.90833526849747
vn -0.25245267152786 -0.46602690219879 -0.84798973798752
vn -0.01800714619458 0.86976313591003 0.49314081668854
vn -0.57637631893158 0.74337708950043 0.33938303589821
vn -0.33527803421021 0.82659608125687 0.45202606916428
vn -0.72867184877396 0.6847335100174 -0.01331750396639
vn -0.69526594877243 0.66068953275681 -0.28300982713699
vn 0.96995413303375 -0.13323560357094 0.20356129109859
vn 0.87673652172089 -0.14231602847576 0.45943358540535
vn 0.95933675765991 -0.09452802687883 -0.26596501469612
vn -0.70785713195801 0.65781581401825 0.25732579827309
vn -0.03750355169177 0.70353537797928 0.70966994762421
vn -0.787437915802 0.57797718048096 0.21420535445213
vn -0.9057337641716 0.42082017660141 0.05056448280811
vn 0.81027984619141 -0.05135049298406 -0.58378905057907
vn 0.88835042715073 -0.07092688977718 -0.45365506410599
vn -0.90308606624603 -0.35817813873291 -0.23694711923599
vn -0.7619343996048 -0.43375936150551 -0.48094573616982
vn -0.95963668823242 -0.15193885564804 0.23666863143444
vn -0.95545417070389 0.09297107160091 0.28011381626129
vn -0.87109768390656 0.06638845056295 0.48660188913345
vn -0.96911382675171 0.13333511352539 -0.20746120810509
vn -0.87674808502197 0.14220869541168 -0.45944476127625
vn 0.76024520397186 0.6423711180687 -0.09688451141119
vn 0.77788513898849 0.52739191055298 -0.34169059991837
vn 0.62622445821762 0.75902622938156 0.17810687422752
vn 0.68352961540222 0.52722918987274 0.50479364395142
vn 0.73453783988953 0.54986608028412 0.397619754076
vn 0.77484726905823 0.56445997953415 0.28459915518761
vn -0.20097373425961 0.10743863135576 0.97368705272675
vn 0.75309586524963 0.33828246593475 -0.56427973508835
vn -0.9001812338829 -0.04360390454531 0.43332719802856
vn 0.64919322729111 0.199821844697 -0.73390692472458
vn 0.55374276638031 0.41221979260445 0.72349411249161
vn -0.72875839471817 -0.67842042446136 0.09304253011942
vn -0.39525020122528 -0.26287493109703 -0.88015568256378
vn 0.17631284892559 0.07005386054516 0.98183816671371
vn 0.2839682996273 0.2033087015152 0.93703126907349
vn 0.15179155766964 0.04579791426659 0.98735094070435
vn 0.34720340371132 0.28111556172371 0.8946641087532
vn 0.47196730971336 0.45032772421837 0.75792598724365
vn -0.2556409239769 0.10711069405079 -0.9608199596405
vn -0.49125298857689 0.12763953208923 -0.86161398887634
vn 0.20364463329315 0.05303637683392 -0.97760730981827
vn 0.22084741294384 -0.18050789833069 -0.95845884084702
vn 0.41590362787247 -0.07944038510323 -0.90593230724335
vn -0.26155284047127 -0.37302997708321 -0.89019030332565
vn -0.51371651887894 -0.43955850601196 -0.73680639266968
vn 0.40159192681313 0.02423851937056 -0.91549789905548
vn 0.54616361856461 0.82303756475449 -0.15593114495277
vn 0.13495475053787 0.54687905311584 -0.82626295089722
vn -0.48695197701454 -0.17019252479076 -0.85668683052063
vn 0.69439876079559 0.71726542711258 0.05779797583818
vn 0.36394050717354 0.70946151018143 -0.60349947214127
vn -0.43545547127724 0.17528596520424 -0.88297981023788
vn -0.9206617474556 -0.36530315876007 0.13760657608509
vn -0.87985378503799 -0.43955850601196 -0.18068113923073
vn -0.79871827363968 -0.18568840622902 0.57233637571335
vn -0.20178674161434 -0.05327356979251 0.97797954082489
vn -0.39452537894249 -0.02531062066555 0.9185363650322
vn 0.25374710559845 -0.10691406577826 0.96134376525879
vn 0.49125319719315 -0.12766924500465 0.86160945892334
vn -0.71544921398163 -0.11520948261023 0.68910032510757
vn -0.94958639144897 -0.22144298255444 -0.22192049026489
vn -0.98244875669479 -0.14576424658298 0.11639251559973
vn -0.86896306276321 -0.22046272456646 -0.44305688142776
vn -0.96916031837463 -0.1321833729744 0.20798048377037
vn -0.91936105489731 -0.05119955167174 0.39006900787354
vn -0.94942259788513 -0.10626486688852 0.29547336697578
vn -0.96656024456024 -0.15724729001522 0.20257008075714
vn -0.7818158864975 -0.498376339674 -0.37467980384827
vn 0.96662014722824 -0.13392539322376 0.21842508018017
vn 0.87674427032471 -0.14224764704704 0.45943993330002
vn 0.96561622619629 -0.09725653380156 -0.24109441041946
vn 0.95839023590088 0.14817875623703 -0.24399028718472
vn 0.90932446718216 0.05601667240262 -0.4122998714447
vn 0.91048121452332 0.35136586427689 0.2180962562561
vn 0.76197308301926 0.43370500206947 0.48093345761299
vn 0.89748853445053 -0.07363127171993 -0.43484801054001
# 168 normals

vt 0.49995157122612 0.00212597846985 0
vt 0.5 0 0
vt 0.5 0.00239622592926 0
vt 0.49946200847626 0.00165581703186 0
vt 0.2547627389431 0.75476276874542 0
vt 0.25495859980583 0.75495862960815 0
vt 0.49977412819862 0.00184786319733 0
vt 0.25515449047089 0.75515449047089 0
vt 0.50004839897156 0.00212597846985 0
vt 0.50022584199905 0.00184786319733 0
vt 0.25535038113594 0.75535035133362 0
vt 0.5 1 0
vt 0.74464964866638 0.75535035133362 0
vt 0.50053799152374 0.00165581703186 0
vt 0.74484550952911 0.75515449047089 0
vt 0.74504137039185 0.75495862960815 0
vt 0.74523729085922 0.75476276874542 0
vt 0.72123175859451 0.68088132143021 0
vt 0.7209849357605 0.68092042207718 0
vt 0.72073811292648 0.68095946311951 0
vt 0.72049129009247 0.68099856376648 0
vt 0.2555835545063 0.75463271141052 0
vt 0.25530993938446 0.75467610359192 0
vt 0.25503632426262 0.75471937656403 0
vt 0.72100907564163 0.68099474906921 0
vt 0.19191606342793 0.95058107376099 0
vt 0.72056376934052 0.68122166395187 0
vt 0.72078639268875 0.68110823631287 0
vt 0.19167397916317 0.95066893100739 0
vt 0.19139903783798 0.95069444179535 0
vt 0.19111704826355 0.95064401626587 0
vt 0.74496364593506 0.75471937656403 0
vt 0.74469006061554 0.75467610359192 0
vt 0.27926191687584 0.68095946311951 0
vt 0.27950873970985 0.68099856376648 0
vt 0.27901509404182 0.68092042207718 0
vt 0.27876827120781 0.68088132143021 0
vt 0.74441647529602 0.75463271141052 0
vt 0.27899092435837 0.68099474906921 0
vt 0.27921357750893 0.68110823631287 0
vt 0.80832600593567 0.95066893100739 0
vt 0.80808395147324 0.95058107376099 0
vt 0.27943626046181 0.68122166395187 0
vt 0.80860096216202 0.95069444179535 0
vt 0.80888295173645 0.95064401626587 0
# 45 texture coordinates

o Decagon_web
usemtl Mat
f 7/1/1 15/2/2 17/3/3
f 3/4/4 2/5/4 11/6/5 6/7/5
f 6/7/5 11/6/5 14/8/6 7/1/6
f 8/9/7 15/2/7 4/10/7
f 17/3/8 15/2/8 8/9/8
f 13/11/9 1/12/9 17/3/9
f 1/12/9 16/13/9 17/3/9
f 7/1/6 14/8/6 13/11/10 17/3/10
f 4/10/11 15/2/11 5/14/11
f 6/7/12 15/2/2 7/1/1
f 3/4/13 15/2/2 6/7/12
f 17/3/14 16/13/14 12/15/15 8/9/15
f 8/9/15 12/15/15 10/16/16 4/10/16
f 4/10/16 10/16/16 9/17/17 5/14/17
f 26/10/18 15/2/18 21/9/19
f 20/14/20 27/18/20 29/19/21 26/10/21
f 26/10/21 29/19/21 18/20/22 21/9/22
f 21/9/22 18/20/22 25/21/23 23/3/23
f 25/21/24 22/22/24 23/3/24
f 21/9/25 15/2/25 23/3/25
f 23/3/26 22/22/26 28/23/27 24/1/27
f 20/14/28 15/2/18 26/10/18
f 24/1/27 28/23/27 30/24/29 19/7/29
f 19/7/29 30/24/29 2/5/30 3/4/30
f 23/3/31 15/2/32 24/1/32
f 19/7/33 15/2/33 3/4/33
f 24/1/32 15/2/32 19/7/34
f 33/10/35 41/25/35 27/18/36 20/14/36
f 36/1/37 15/2/37 42/3/37
f 42/3/38 15/2/39 35/9/39
f 43/26/40 39/27/40 42/3/40
f 35/9/41 32/28/41 41/25/35 33/10/35
f 36/1/42 38/29/42 43/26/43 42/3/43
f 40/7/44 31/30/44 38/29/42 36/1/42
f 34/4/45 37/31/45 31/30/44 40/7/44
f 35/9/39 15/2/39 33/10/46
f 40/7/47 15/2/47 36/1/47
f 34/4/48 15/2/48 40/7/48
f 33/10/49 15/2/49 20/14/49
f 42/3/50 39/27/50 32/28/41 35/9/41
f 47/7/51 51/30/51 37/31/52 34/4/52
f 46/1/53 15/2/54 47/7/55
f 54/27/56 52/26/56 53/3/56
f 46/1/57 49/29/57 51/30/51 47/7/51
f 45/9/58 56/28/58 54/27/59 53/3/59
f 44/10/60 55/25/60 56/28/58 45/9/58
f 48/14/61 50/18/61 55/25/60 44/10/60
f 48/14/62 15/2/62 44/10/62
f 47/7/55 15/2/54 34/4/63
f 44/10/64 15/2/65 45/9/65
f 45/9/65 15/2/65 53/3/66
f 53/3/67 52/26/67 49/29/57 46/1/57
f 53/3/68 15/2/54 46/1/53
f 65/4/69 15/2/70 64/7/71
f 69/22/72 67/21/72 68/3/72
f 64/7/71 15/2/70 60/1/73
f 60/1/73 15/2/70 68/3/74
f 68/3/75 15/2/76 59/9/75
f 58/10/77 57/19/77 50/18/78 48/14/78
f 59/9/79 66/20/79 57/19/77 58/10/77
f 60/1/80 61/23/80 69/22/81 68/3/81
f 58/10/82 15/2/82 48/14/83
f 64/7/84 62/24/84 61/23/80 60/1/80
f 65/4/85 63/5/85 62/24/84 64/7/84
f 59/9/86 15/2/82 58/10/82
f 68/3/75 67/21/87 66/20/87 59/9/75
f 80/9/88 76/15/88 74/13/89 72/3/89
f 79/10/90 75/16/90 76/15/88 80/9/88
f 77/14/91 70/17/91 75/16/90 79/10/90
f 77/14/92 15/2/93 79/10/94
f 81/7/95 15/2/95 65/4/96
f 81/7/97 78/6/97 63/5/98 65/4/98
f 82/1/99 83/8/99 78/6/97 81/7/97
f 82/1/100 15/2/95 81/7/95
f 72/3/101 15/2/101 82/1/101
f 79/10/94 15/2/93 80/9/102
f 80/9/102 15/2/93 72/3/103
f 74/13/104 71/12/104 72/3/104
f 71/12/104 73/11/104 72/3/104
f 72/3/105 73/11/105 83/8/99 82/1/99
f 94/10/106 84/32/106 70/17/107 77/14/107
f 92/9/108 96/33/108 84/32/106 94/10/106
f 91/1/109 93/34/109 88/35/110 89/3/110
f 87/7/111 95/36/111 93/34/109 91/1/109
f 86/4/112 85/37/112 95/36/111 87/7/111
f 94/10/113 15/2/114 77/14/115
f 86/4/116 15/2/117 87/7/117
f 87/7/117 15/2/117 91/1/118
f 91/1/119 15/2/119 89/3/119
f 92/9/120 15/2/114 94/10/113
f 88/35/9 90/38/9 89/3/9
f 89/3/121 90/38/121 96/33/108 92/9/108
f 89/3/122 15/2/114 92/9/120
f 108/7/123 15/2/123 86/4/123
f 107/1/124 15/2/124 108/7/124
f 105/3/125 15/2/125 107/1/125
f 103/9/126 15/2/127 105/3/128
f 102/10/129 15/2/127 103/9/126
f 101/14/130 15/2/127 102/10/129
f 108/7/131 100/39/131 85/37/132 86/4/132
f 107/1/133 109/40/133 100/39/131 108/7/131
f 103/9/134 97/41/134 104/42/135 105/3/135
f 104/42/24 106/43/24 105/3/24
f 102/10/136 98/44/136 97/41/134 103/9/134
f 101/14/137 99/45/137 98/44/136 102/10/136
f 105/3/138 106/43/138 109/40/133 107/1/133
f 118/10/139 15/2/139 101/14/139
f 117/9/140 15/2/140 118/10/140
f 120/3/141 15/2/141 117/9/141
f 116/1/142 15/2/142 120/3/142
f 115/7/143 15/2/143 116/1/143
f 114/4/144 15/2/144 115/7/144
f 118/10/145 113/44/145 99/45/146 101/14/146
f 117/9/147 122/41/147 113/44/145 118/10/145
f 119/43/72 121/42/72 120/3/72
f 116/1/148 110/40/148 119/43/149 120/3/149
f 115/7/150 111/39/150 110/40/148 116/1/148
f 114/4/151 112/37/151 111/39/150 115/7/150
f 120/3/152 121/42/152 122/41/147 117/9/147
f 129/7/153 15/2/154 114/4/155
f 128/1/156 15/2/154 129/7/153
f 133/3/157 15/2/154 128/1/156
f 127/9/158 15/2/154 133/3/157
f 126/10/159 15/2/154 127/9/158
f 5/14/160 15/2/160 126/10/160
f 129/7/161 125/36/161 112/37/162 114/4/162
f 132/38/104 131/35/104 133/3/104
f 128/1/163 130/34/163 125/36/161 129/7/161
f 127/9/164 123/33/164 132/38/165 133/3/165
f 126/10/166 124/32/166 123/33/164 127/9/164
f 5/14/167 9/17/167 124/32/166 126/10/166
f 133/3/168 131/35/168 130/34/163 128/1/163

