# WaveFront *.obj file (generated by CINEMA 4D)

mtllib ./DecagonShape_26.mtl

v 0.00278715626337 0.00547304842621 -0.01405879110098
v 0.00361082656309 0.00320654036477 -0.01450448296964
v 0.00000994175298 -0.00100792560261 -0.01371436007321
v 0.00000593572031 -0.00100458564702 -0.01371265761554
v 0.00000371417946 -0.0010049820412 -0.01371155679226
v 0.00000855918643 -0.00100581976585 -0.01371375191957
v 0.00000825882125 -0.00100352801383 -0.01371346600354
v 0.00000769586131 -0.00100326386746 -0.01371324900538
v 0.00076485134196 0.00453981850296 -0.01354492735118
v 0.00075288326479 0.00454200292006 -0.01353340223432
v 0.00361016881652 0.00320835085586 -0.01450412720442
v 0.00072921346873 0.00454538082704 -0.01351322047412
v 0.00360885309055 0.00321197183803 -0.01450341567397
v 0.00360951083712 0.00321016134694 -0.01450377143919
v 0.00000133684557 -0.00101521739271 -0.01371513027698
v 0.00070412456989 0.00454882252961 -0.01349482964724
v 0.00000870355689 -0.00100163964089 -0.01371345389634
v 0.00473128352314 0.00012336141663 -0.01511076837778
v 0.00001210892788 -0.00100911315531 -0.01371514145285
v 0.00001352840536 -0.00101442576852 -0.01371602434665
v 0.00001465395144 -0.00100975984242 -0.01371599733829
v 0.00361280026846 0.00320110935718 -0.01450555119663
v 0.00001607759259 -0.00100848532747 -0.01371634192765
v 0.00001433116267 -0.00100917485543 -0.01371584739536
v 0.004730689805 0.00012499451987 -0.01511044707149
v 0.00001361468094 -0.00101184216328 -0.01371583994478
v 0.00473247049376 0.00012009515194 -0.01511141005903
v 0.00361214252189 0.00320291984826 -0.01450519543141
v 0.00473187677562 0.0001217282479 -0.01511108875275
v 0.00361148477532 0.00320473033935 -0.01450483966619
v 0.0061434651725 -0.00376538001001 -0.01587662287056
v 0.00473365746439 0.00011682888726 -0.01511205267161
v 0.00001458219867 -0.00101673533209 -0.01371654681861
v 0.00001245150634 -0.00102006213274 -0.01371959783137
v 0.00001631023952 -0.00101815059315 -0.01371721830219
v 0.00001620831972 -0.00101881218143 -0.01371735800058
v 0.00614288914949 -0.00376593950205 -0.0158784519881
v 0.00614367146045 -0.00376390200108 -0.01587539352477
v 0.00473425118253 0.00011519571126 -0.0151123739779
v 0.00001404546038 -0.00101957470179 -0.0137176848948
v 0.00473306421191 0.00011846198322 -0.01511173136532
v 0.00001808876186 -0.00101865688339 -0.01371781062335
v 0.00614333664998 -0.00376220955513 -0.01587483659387
v 0.00001240834899 -0.0010164672276 -0.0137230604887
v 0.00001415855331 -0.00101788504981 -0.01372366584837
v 0.00001414430153 -0.00101855758112 -0.01372354291379
v 0.00001259171313 -0.00101939530578 -0.0137220416218
v 0.00001130955025 -0.0010141520761 -0.01372267398983
v 0.00614173104987 -0.00376366241835 -0.01588120870292
v 0.00465069757774 0.0001301838347 -0.01535645034164
v 0.00614226702601 -0.00376523169689 -0.01588021405041
v 0.006141171325 -0.00376194226556 -0.01588132604957
v 0.000015923506 -0.00101838982664 -0.0137242982164
v 0.00465257838368 0.00012527198123 -0.01535711251199
v 0.0046513248235 0.00012854668603 -0.01535667106509
v 0.00465195160359 0.00012690933363 -0.01535689178854
v 0.00465007079765 0.00013182127441 -0.01535622961819
v 0.00001133159913 -0.0010115604382 -0.01372268144041
v 0.00001230847101 -0.00100947043393 -0.01372302509844
v 0.00001197489564 -0.00100888416637 -0.0137229077518
v 0.00346715562046 0.00322080776095 -0.01493966206908
v 0.00346646062098 0.00322262267582 -0.01493941713125
v 0.00346576585434 0.00322443782352 -0.01493917219341
v 0.00000977552827 -0.00100882526021 -0.01372213382274
v 0.00000760304238 -0.00100763700902 -0.01372136827558
v 0.00464944401756 0.00013345861225 -0.01535600889474
v 0.00464881677181 0.00013509577548 -0.01535578723997
v 0.00001368527955 -0.00100819021463 -0.0137235103175
v 0.00346785085276 0.00321899284609 -0.01493990700692
v 0.00045130701619 0.00457427604124 -0.01387684419751
v 0.00259561976418 0.00549667933956 -0.01463274750859
v 0.00000621974186 -0.00100133335218 -0.01372088119388
v 0.00346368085593 0.00322988256812 -0.01493843831122
v 0.00045752426377 0.00457636639476 -0.01387980952859
v 0.00045330691501 0.00457497453317 -0.01387797854841
v 0.00045538292034 0.00457567116246 -0.01387896947563
v -0.00000008927492 -0.00100455561187 -0.01371788326651
v 0.00346507062204 0.00322625250556 -0.01493892725557
v 0.00000276779861 -0.00100421928801 -0.01371945627034
v 0.00000498780673 -0.00100293871947 -0.01372042391449
v 0.00000618406466 -0.00100552663207 -0.01372086908668
v 0.00000574669593 -0.00100322079379 -0.01372071262449
v 0.00346437562257 0.00322806765325 -0.01493868231773
v 0.00044939338113 0.00457357475534 -0.01387557014823
v -0.00178336270619 0.00329402973875 -0.01174888573587
v -0.00000692524145 -0.00100620265584 -0.01371228229254
v -0.00000557479279 -0.00100436573848 -0.01371351443231
v -0.00177981762681 0.00329606211744 -0.01175226364285
v -0.00000501020168 -0.00100022461265 -0.01371385809034
v 0.00044586419244 0.00457215914503 -0.01387263461947
v -0.0000049234236 -0.00100216723513 -0.01371403969824
v -0.00000430099453 -0.00100202159956 -0.01371461432427
v -0.00178099935874 0.0032953848131 -0.01175113767385
v -0.00000266814095 -0.00100368261337 -0.01371605601162
v -0.00178218097426 0.0032947070431 -0.01175001170486
v 0.00044757607975 0.00457286927849 -0.01387416478246
v -0.00459328480065 0.0016826215433 -0.00907151959836
v -0.00459341239184 0.00168160314206 -0.00906988047063
v -0.00459247780964 0.00168103992473 -0.00906820781529
v -0.00178454420529 0.00329335220158 -0.0117477606982
v -0.00000776054821 -0.00101043377072 -0.01370707619935
v -0.00000944772728 -0.00100921222474 -0.01370852533728
v -0.00001058693852 -0.00100719556212 -0.01370856631547
v -0.00459235254675 0.00168349314481 -0.00907280668616
v -0.00001151665674 -0.00100570195355 -0.01370774861425
v -0.00178690755274 0.00329199712723 -0.01174550876021
v -0.00001033799526 -0.00100668054074 -0.01370894070715
v -0.00000870486838 -0.00100700068288 -0.01371057517827
v -0.00178572593722 0.00329267466441 -0.01174663472921
v -0.00160826940555 0.00327318976633 -0.01155994459987
v -0.00160701514687 0.00327385962009 -0.01156099326909
v -0.00160576077178 0.00327452900819 -0.01156204286963
v -0.00459081074223 0.00168131734245 -0.00906714331359
v -0.00000210611597 -0.00100673176348 -0.01370721217245
v -0.00000398348993 -0.0010075190803 -0.01370560843498
v -0.00000566475364 -0.00100719369948 -0.01370402425528
v -0.00000610410461 -0.0010076877661 -0.01370385009795
v -0.00000629033912 -0.00100955890957 -0.01370520330966
v -0.00160952378064 0.00327252037823 -0.01155889499933
v -0.00000681394658 -0.00100621837191 -0.01370280049741
v -0.00458764983341 0.00168297672644 -0.00906785950065
v -0.004589070566 0.00168215879239 -0.00906708557159
v 0.00076207035454 0.00453833397478 -0.01354260183871
v 0.00076346087735 0.00453907623887 -0.01354376412928
v -0.00160450639669 0.00327519862913 -0.01156309247017
v 0.00000176702497 -0.00100417237263 -0.01371018122882
v 0.00000060984507 -0.00100256141741 -0.01370903849602
v 0.00000011355446 -0.00100272044074 -0.01370862592012
v -0.00000061617516 -0.00100491009653 -0.01370829809457
v -0.0016032520216 0.00327586801723 -0.01156414113939
v -0.0016019976465 0.00327653763816 -0.01156519073993
v 0.00076067988994 0.00453759217635 -0.01354143861681
v 0.00000018565467 -0.00100079516415 -0.01370839122683
# 133 vertices

vn 0.19353179633617 0.02503734640777 -0.98077446222305
vn 0.09671638160944 0.09115536510944 -0.99112898111343
vn 0.35491707921028 -0.07753754407167 -0.93167686462402
vn 0.29990315437317 -0.07796441763639 0.95077842473984
vn 0.30011257529259 -0.07815866172314 0.95069640874863
vn 0.29969269037247 -0.07777258753777 0.95086050033569
vn -0.72087734937668 0.46447357535362 -0.51439297199249
vn -0.64410591125488 0.44536229968071 -0.62191641330719
vn -0.50819820165634 0.39751261472702 -0.76401460170746
vn -0.83482640981674 0.48508483171463 -0.26030287146568
vn 0.29550617933273 -0.07599369436502 0.95231354236603
vn 0.29110157489777 -0.07402101904154 0.9538242816925
vn 0.29906213283539 -0.07719463855028 0.95110613107681
vn -0.46405327320099 0.38612598180771 -0.79722100496292
vn -0.03632349148393 0.17235316336155 -0.9843652844429
vn -0.09702016413212 0.2171021848917 -0.97131544351578
vn -0.88313698768616 0.09814894199371 0.45873287320137
vn -0.86714261770248 0.09785084426403 0.48835325241089
vn -0.83013594150543 0.09538368880749 0.54934161901474
vn -0.8089554309845 0.09315826743841 0.58044177293777
vn -0.06042376533151 0.00994256697595 -0.9981232881546
vn -0.01412480603904 -0.10915446281433 -0.9939244389534
vn 0.01827896386385 -0.20015804469585 -0.9795930981636
vn 0.07895992696285 -0.34138664603233 -0.93660050630569
vn -0.07771849632263 0.07366847991943 -0.99424988031387
vn -0.41840770840645 0.86798542737961 -0.26746264100075
vn -0.21626634895802 0.38004648685455 -0.89932948350906
vn -0.17223179340363 0.30224952101707 -0.93754011392593
vn -0.2582520544529 0.45425003767014 -0.85262113809586
vn 0.30017095804214 -0.07934314757586 0.95057988166809
vn -0.20491345226765 -0.26378679275513 -0.94256407022476
vn 0.11892204731703 0.90219503641129 -0.41461023688316
vn 0.29962262511253 -0.07663059234619 0.95097529888153
vn 0.12828251719475 -0.41992729902267 0.89844566583633
vn 0.22821614146233 -0.23360900580883 0.94516891241074
vn -0.12302568554878 -0.76839631795883 0.6280380487442
vn -0.25768733024597 -0.8832494020462 0.39174953103065
vn -0.05659066140652 0.37098479270935 -0.926913022995
vn -0.07050117105246 0.27840176224709 -0.95787370204926
vn -0.02433954179287 0.45185276865959 -0.89176040887833
vn 0.22104366123676 0.8849925994873 -0.40978991985321
vn -0.08373092859983 0.1830972135067 -0.97952258586884
vn 0.29882457852364 -0.07252933084965 0.95154786109924
vn -0.49396097660065 -0.72264230251312 -0.48351907730103
vn -0.46283593773842 -0.85790228843689 -0.22312912344933
vn 0.57711970806122 0.29507550597191 0.76148754358292
vn -0.3321593105793 0 -0.94322329759598
vn -0.44649639725685 -0.34909272193909 -0.82387816905975
vn -0.332455098629 0.00130698992871 -0.94311815500259
vn -0.33335399627686 0.00543686188757 -0.94278603792191
vn -0.33185771107674 -0.00137665052898 -0.94332844018936
vn 0.5868935585022 0.14545324444771 0.79649186134338
vn 0.58078879117966 0.26826110482216 0.76858335733414
vn 0.47116988897324 0.84369838237762 0.25723907351494
vn 0.56541812419891 0.38686183094978 0.72845059633255
vn 0.34305793046951 0.91053754091263 0.23072199523449
vn -0.38997533917427 -0.15735299885273 -0.9072812795639
vn 0.37706705927849 -0.50676190853119 0.77525013685226
vn 0.46049422025681 0.30523535609245 0.83353251218796
vn 0.3833412528038 0.40390059351921 0.83061051368713
vn 0.30015245079994 0.49621653556824 0.8146641254425
vn -0.20105619728565 0.8760176897049 0.43837130069733
vn 0.66274237632751 -0.50242739915848 0.55528301000595
vn 0.65115255117416 -0.23207120597363 0.72259485721588
vn 0.66040569543838 -0.3435572385788 0.66770708560944
vn 0.62067598104477 -0.08754345029593 0.77916461229324
vn 0.60342633724213 -0.00272766128182 0.79741406440735
vn -0.38829857110977 0.00517129339278 -0.92151910066605
vn -0.35823115706444 0.00236858078279 -0.93362993001938
vn -0.45464459061623 0.01141174975783 -0.8905998468399
vn -0.49055057764053 0.0148497922346 -0.87128615379334
vn 0.43767416477203 0.27918219566345 0.85469210147858
vn 0.13291272521019 0.37095630168915 0.91908955574036
vn 0.32513955235481 0.3091669678688 0.8937001824379
vn 0.63036018610001 0.13714891672134 0.7640917301178
vn 0.77012848854065 0.02287620864809 0.63747847080231
vn 0.56660324335098 0.19118839502335 0.8015034198761
vn -0.33231633901596 0.00015503377654 -0.94316798448563
vn -0.33197176456451 -0.00020855214098 -0.94328927993774
vn 0.8469689488411 -0.06586436182261 0.52754664421082
vn 0.93396133184433 -0.20812678337097 0.2905158996582
vn -0.02967931143939 0.40313655138016 0.91465842723846
vn -0.26527425646782 0.44712042808533 0.85423237085342
vn -0.33140429854393 -0.00072167260805 -0.94348853826523
vn -0.59916430711746 0.02567761577666 -0.80021423101425
vn -0.566062271595 0.022317096591 -0.82406038045883
vn -0.65600168704987 0.03158443793654 -0.75409829616547
vn -0.70033264160156 0.03617133572698 -0.71289956569672
vn -0.70083248615265 0.03575734421611 -0.7124291062355
vn -0.69998472929001 0.03647267445922 -0.71322584152222
vn -0.70014494657516 0.03631703555584 -0.71307653188705
vn 0.70874547958374 0.29739007353783 0.63971787691116
vn 0.83260107040405 0.35299158096313 0.42681658267975
vn 0.61593425273895 0.27313801646233 0.7389320731163
vn 0.50307834148407 0.19500930607319 0.84195220470428
vn 0.29782158136368 0.07156386971474 0.95193535089493
vn 0.44386565685272 0.15114755928516 0.8832540512085
vn 0.18440154194832 0.00624817982316 0.98283112049103
vn -0.02248669229448 -0.09403026103973 0.99531537294388
vn 0.89671248197556 0.37386131286621 0.23692713677883
vn -0.68005573749542 0.03416207805276 -0.73236411809921
vn 0.91565984487534 0.39427331089973 -0.07820257544518
vn 0.6301726102829 0.40174803137779 0.66444033384323
vn 0.58676367998123 0.30007082223892 0.75210762023926
vn 0.66104245185852 0.49543416500092 0.56353157758713
vn 0.52046293020248 0.8363983631134 -0.17191879451275
vn 0.28316628932953 -0.31917321681976 0.90440326929092
vn 0.62597715854645 0.36772760748863 0.68769836425781
vn 0.52844262123108 0.84354364871979 0.09582531452179
vn -0.7010372877121 0.03556964173913 -0.71223694086075
vn -0.70016270875931 0.03630050271749 -0.71305996179581
vn -0.69929611682892 0.03703231737018 -0.71387219429016
vn -0.76004934310913 -0.3164227604866 -0.56762808561325
vn -0.74041020870209 -0.12198617309332 -0.66099321842194
vn -0.66630291938782 -0.70210379362106 -0.25117859244347
vn -0.53047186136246 -0.84706681966782 -0.03282364085317
vn -0.69666093587875 0.03924283385277 -0.71632641553879
vn -0.22794085741043 0.76018494367599 -0.6084092259407
vn -0.5001083612442 0.55563676357269 -0.6641982793808
vn 0.05877708271146 0.88603949546814 -0.45986878871918
vn -0.70575696229935 0.27846908569336 -0.65143078565598
vn -0.84042352437973 -0.0191599316895 -0.54159134626389
vn 0.20524567365646 0.85017716884613 -0.484843313694
vn -0.62651813030243 0.3967801630497 -0.67085057497025
vn -0.55757242441177 0.46514984965324 -0.68756717443466
vn -0.68938100337982 0.32461231946945 -0.64759612083435
vn 0.13930051028728 -0.79056662321091 0.59632188081741
vn -0.08492311090231 -0.89599198102951 0.43587437272072
vn 0.48824995756149 -0.45345693826675 0.74564653635025
vn 0.67258524894714 -0.11440327763557 0.73112308979034
vn 0.67349773645401 -0.11369727551937 0.7303928732872
vn 0.67630302906036 -0.11151061952114 0.72813433408737
vn 0.67162382602692 -0.11514004319906 0.7318908572197
vn 0.67256581783295 -0.11442040652037 0.73113828897476
vn 0.60219866037369 -0.2694403231144 0.7515042424202
vn -0.79103475809097 0.22677645087242 -0.56818699836731
vn -0.85254335403442 0.17804178595543 -0.49139693379402
vn -0.75448274612427 0.2572930753231 -0.60378479957581
vn -0.89279925823212 0.13610492646694 -0.4294006228447
vn -0.944400370121 0.0742811113596 -0.32029718160629
vn 0.48781904578209 0.40121504664421 -0.7752799987793
vn -0.3605338037014 0.39306339621544 -0.84588211774826
vn -0.29905727505684 0.39985924959183 -0.86641639471054
vn -0.42047455906868 0.38457280397415 -0.8217693567276
vn 0.67251813411713 -0.11445140093565 0.73117727041244
vn 0.67265236377716 -0.1143551543355 0.7310688495636
vn 0.65632504224777 -0.11259111762047 0.74602991342545
vn 0.66673320531845 -0.11375055462122 0.73656475543976
vn 0.6286746263504 -0.10949815809727 0.76992100477219
vn 0.61124897003174 -0.10747306793928 0.7841072678566
vn 0.67281651496887 -0.11419896781445 0.73094218969345
# 151 normals

vt 0.49995157122612 0.00212597846985 0
vt 0.5 0 0
vt 0.5 0.00239622592926 0
vt 0.49946200847626 0.00165581703186 0
vt 0.2547627389431 0.75476276874542 0
vt 0.25495859980583 0.75495862960815 0
vt 0.49977412819862 0.00184786319733 0
vt 0.25515449047089 0.75515449047089 0
vt 0.50004839897156 0.00212597846985 0
vt 0.50022584199905 0.00184786319733 0
vt 0.25535038113594 0.75535035133362 0
vt 0.5 1 0
vt 0.74464964866638 0.75535035133362 0
vt 0.50053799152374 0.00165581703186 0
vt 0.74484550952911 0.75515449047089 0
vt 0.74504137039185 0.75495862960815 0
vt 0.74523729085922 0.75476276874542 0
vt 0.72123175859451 0.68088132143021 0
vt 0.7209849357605 0.68092042207718 0
vt 0.72073811292648 0.68095946311951 0
vt 0.72049129009247 0.68099856376648 0
vt 0.2555835545063 0.75463271141052 0
vt 0.25530993938446 0.75467610359192 0
vt 0.25503632426262 0.75471937656403 0
vt 0.72100907564163 0.68099474906921 0
vt 0.19191606342793 0.95058107376099 0
vt 0.72056376934052 0.68122166395187 0
vt 0.72078639268875 0.68110823631287 0
vt 0.19167397916317 0.95066893100739 0
vt 0.19139903783798 0.95069444179535 0
vt 0.19111704826355 0.95064401626587 0
vt 0.74496364593506 0.75471937656403 0
vt 0.74469006061554 0.75467610359192 0
vt 0.27926191687584 0.68095946311951 0
vt 0.27950873970985 0.68099856376648 0
vt 0.27901509404182 0.68092042207718 0
vt 0.27876827120781 0.68088132143021 0
vt 0.74441647529602 0.75463271141052 0
vt 0.27899092435837 0.68099474906921 0
vt 0.27921357750893 0.68110823631287 0
vt 0.80832600593567 0.95066893100739 0
vt 0.80808395147324 0.95058107376099 0
vt 0.27943626046181 0.68122166395187 0
vt 0.80860096216202 0.95069444179535 0
vt 0.80888295173645 0.95064401626587 0
# 45 texture coordinates

o Decagon_web
usemtl Mat
f 7/1/1 15/2/2 17/3/3
f 3/4/4 2/5/4 11/6/5 6/7/5
f 6/7/5 11/6/5 14/8/6 7/1/6
f 8/9/7 15/2/8 4/10/9
f 17/3/10 15/2/8 8/9/7
f 13/11/4 1/12/11 17/3/11
f 1/12/11 16/13/12 17/3/11
f 7/1/6 14/8/6 13/11/13 17/3/13
f 4/10/9 15/2/8 5/14/14
f 6/7/15 15/2/2 7/1/1
f 3/4/16 15/2/2 6/7/15
f 17/3/17 16/13/17 12/15/18 8/9/18
f 8/9/18 12/15/18 10/16/19 4/10/19
f 4/10/19 10/16/19 9/17/20 5/14/20
f 26/10/21 15/2/22 21/9/23
f 20/14/4 27/18/4 29/19/4 26/10/4
f 26/10/4 29/19/4 18/20/4 21/9/4
f 21/9/4 18/20/4 25/21/4 23/3/4
f 25/21/4 22/22/4 23/3/4
f 21/9/23 15/2/22 23/3/24
f 23/3/4 22/22/4 28/23/4 24/1/4
f 20/14/25 15/2/22 26/10/21
f 24/1/4 28/23/4 30/24/4 19/7/4
f 19/7/4 30/24/4 2/5/4 3/4/4
f 23/3/26 15/2/26 24/1/26
f 19/7/27 15/2/27 3/4/28
f 24/1/29 15/2/27 19/7/27
f 33/10/30 41/25/30 27/18/4 20/14/4
f 36/1/31 15/2/31 42/3/31
f 42/3/32 15/2/32 35/9/32
f 43/26/4 39/27/4 42/3/4
f 35/9/33 32/28/33 41/25/30 33/10/30
f 36/1/34 38/29/34 43/26/35 42/3/35
f 40/7/36 31/30/36 38/29/34 36/1/34
f 34/4/37 37/31/37 31/30/36 40/7/36
f 35/9/38 15/2/39 33/10/39
f 40/7/40 15/2/40 36/1/40
f 34/4/41 15/2/41 40/7/41
f 33/10/39 15/2/39 20/14/42
f 42/3/43 39/27/43 32/28/33 35/9/33
f 47/7/44 51/30/44 37/31/45 34/4/45
f 46/1/46 15/2/46 47/7/46
f 54/27/47 52/26/47 53/3/47
f 46/1/48 49/29/48 51/30/44 47/7/44
f 45/9/49 56/28/49 54/27/50 53/3/50
f 44/10/51 55/25/51 56/28/49 45/9/49
f 48/14/47 50/18/47 55/25/51 44/10/51
f 48/14/52 15/2/53 44/10/53
f 47/7/54 15/2/54 34/4/54
f 44/10/53 15/2/53 45/9/55
f 45/9/56 15/2/56 53/3/56
f 53/3/57 52/26/57 49/29/48 46/1/48
f 53/3/58 15/2/58 46/1/58
f 65/4/59 15/2/60 64/7/60
f 69/22/47 67/21/47 68/3/47
f 64/7/60 15/2/60 60/1/61
f 60/1/62 15/2/62 68/3/62
f 68/3/63 15/2/64 59/9/65
f 58/10/47 57/19/47 50/18/47 48/14/47
f 59/9/47 66/20/47 57/19/47 58/10/47
f 60/1/47 61/23/47 69/22/47 68/3/47
f 58/10/66 15/2/64 48/14/67
f 64/7/47 62/24/47 61/23/47 60/1/47
f 65/4/47 63/5/47 62/24/47 64/7/47
f 59/9/65 15/2/64 58/10/66
f 68/3/47 67/21/47 66/20/47 59/9/47
f 80/9/68 76/15/68 74/13/69 72/3/69
f 79/10/70 75/16/70 76/15/68 80/9/68
f 77/14/71 70/17/71 75/16/70 79/10/70
f 77/14/72 15/2/73 79/10/74
f 81/7/75 15/2/76 65/4/77
f 81/7/78 78/6/78 63/5/47 65/4/47
f 82/1/79 83/8/79 78/6/78 81/7/78
f 82/1/80 15/2/76 81/7/75
f 72/3/81 15/2/76 82/1/80
f 79/10/74 15/2/73 80/9/82
f 80/9/82 15/2/73 72/3/83
f 74/13/47 71/12/47 72/3/47
f 71/12/47 73/11/47 72/3/47
f 72/3/84 73/11/84 83/8/79 82/1/79
f 94/10/85 84/32/85 70/17/86 77/14/86
f 92/9/87 96/33/87 84/32/85 94/10/85
f 91/1/88 93/34/88 88/35/89 89/3/89
f 87/7/90 95/36/90 93/34/88 91/1/88
f 86/4/91 85/37/91 95/36/90 87/7/90
f 94/10/92 15/2/93 77/14/94
f 86/4/95 15/2/96 87/7/97
f 87/7/97 15/2/96 91/1/98
f 91/1/98 15/2/96 89/3/99
f 92/9/100 15/2/93 94/10/92
f 88/35/91 90/38/91 89/3/91
f 89/3/101 90/38/101 96/33/87 92/9/87
f 89/3/102 15/2/93 92/9/100
f 108/7/103 15/2/103 86/4/104
f 107/1/105 15/2/103 108/7/103
f 105/3/106 15/2/106 107/1/106
f 103/9/107 15/2/107 105/3/107
f 102/10/108 15/2/108 103/9/108
f 101/14/109 15/2/109 102/10/109
f 108/7/110 100/39/110 85/37/111 86/4/111
f 107/1/112 109/40/112 100/39/110 108/7/110
f 103/9/113 97/41/113 104/42/114 105/3/114
f 104/42/91 106/43/91 105/3/91
f 102/10/115 98/44/115 97/41/113 103/9/113
f 101/14/116 99/45/116 98/44/115 102/10/115
f 105/3/117 106/43/117 109/40/112 107/1/112
f 118/10/118 15/2/119 101/14/120
f 117/9/121 15/2/119 118/10/118
f 120/3/122 15/2/119 117/9/121
f 116/1/123 15/2/123 120/3/123
f 115/7/124 15/2/124 116/1/125
f 114/4/126 15/2/124 115/7/124
f 118/10/127 113/44/127 99/45/128 101/14/128
f 117/9/129 122/41/129 113/44/127 118/10/127
f 119/43/130 121/42/130 120/3/130
f 116/1/131 110/40/131 119/43/132 120/3/132
f 115/7/133 111/39/133 110/40/131 116/1/131
f 114/4/134 112/37/134 111/39/133 115/7/133
f 120/3/135 121/42/135 122/41/129 117/9/129
f 129/7/136 15/2/137 114/4/138
f 128/1/139 15/2/137 129/7/136
f 133/3/140 15/2/137 128/1/139
f 127/9/141 15/2/141 133/3/141
f 126/10/142 15/2/142 127/9/143
f 5/14/144 15/2/142 126/10/142
f 129/7/145 125/36/145 112/37/134 114/4/134
f 132/38/130 131/35/130 133/3/130
f 128/1/146 130/34/146 125/36/145 129/7/145
f 127/9/147 123/33/147 132/38/148 133/3/148
f 126/10/149 124/32/149 123/33/147 127/9/147
f 5/14/150 9/17/150 124/32/149 126/10/149
f 133/3/151 131/35/151 130/34/146 128/1/146

