# WaveFront *.obj file (generated by CINEMA 4D)

mtllib ./DecagonShape_64.mtl

v -0.00019251022604 0.00356296100654 -0.00062972126761
v 0.00159539864399 0.00187420623843 -0.00050355592975
v 0.0000158278508 -0.00349682639353 -0.00060028082225
v 0.00000069894264 -0.00349229364656 -0.00061684072716
v -0.00000008990088 -0.00349317258224 -0.0006145988591
v 0.00001235845684 -0.00349496025592 -0.00061193393776
v 0.00000577948731 -0.003491389798 -0.00061694235774
v 0.00000272455009 -0.00349069363438 -0.00061758467928
v -0.00187330169138 0.0017822716618 -0.00072930479655
v -0.00187307735905 0.00178325921297 -0.0007309608045
v 0.00159402226564 0.00187568960246 -0.00051198166329
v -0.00187215313781 0.00178450590465 -0.00073212658754
v 0.00158122600988 0.00188147171866 -0.00052110670367
v 0.00158881023526 0.00187826540787 -0.00051840720698
v 0.00000825092229 -0.00350655429065 -0.00060942734126
v -0.00187085603829 0.00178590265568 -0.00073249457637
v 0.00000197583154 -0.00348847126588 -0.00061781192198
v -0.00169272138737 0.001263697166 -0.00068696163362
v 0.00001096255164 -0.00349496025592 -0.00058913801331
v -0.00000888144496 -0.00349544570781 -0.00057557522086
v 0.00000055603385 -0.00349072925746 -0.00058458419517
v 0.00157768523786 0.00187635340262 -0.00048795773182
v -0.00000005968622 -0.00348847126588 -0.0005845708074
v 0.00000382266307 -0.00349139049649 -0.00058495922713
v -0.0016879553441 0.00126507482491 -0.00068792892853
v -0.00000589817364 -0.00349387782626 -0.00058196776081
v -0.00169832725078 0.00126246607397 -0.00067902827868
v 0.00158604397438 0.00187485315837 -0.00048968096962
v -0.00169648195151 0.0012627254473 -0.00068372685928
v 0.00159250292927 0.00187398365233 -0.00049539183965
v 0.00193005381152 0.00326422275975 0.00005694625725
v -0.00169511605054 0.00126438983716 -0.00066998030525
v -0.00000748951834 -0.00349415233359 -0.00056860304903
v 0.00000024331533 -0.0034933402203 -0.00056757946732
v -0.00000426407087 -0.00349136139266 -0.00056527840206
v -0.00000251500069 -0.00349094625562 -0.00056474131998
v 0.00193101365585 0.00326439808123 0.00005520542254
v 0.00192836101633 0.00326382252388 0.00005778879131
v -0.00169090169948 0.00126622500829 -0.00066787778633
v -0.00000084758631 -0.00349259073846 -0.00056541868253
v -0.00169782247394 0.00126304710284 -0.00067403260618
v -0.00000245123306 -0.00348888360895 -0.00056448567193
v 0.00192668475211 0.003263133578 0.00005777204206
v -0.0000023065013 -0.00349239469506 -0.00057240983006
v -0.00000153489555 -0.00349052273668 -0.00057127943728
v -0.00000092705488 -0.00349051714875 -0.00057094334625
v -0.00000004814133 -0.00349240470678 -0.00056991627207
v -0.00000264853111 -0.00349321542308 -0.00057478726376
v 0.00192942027934 0.00326406909153 0.00005182985842
v -0.00169209425803 0.00126469624229 -0.00067824032158
v 0.00193071376998 0.00326437666081 0.00005323252117
v 0.00192785041872 0.00326340505853 0.00005121366848
v -0.00000128547742 -0.00348861236125 -0.00057104398729
v -0.00168973603286 0.00126649637241 -0.00067443610169
v -0.00169198238291 0.00126506621018 -0.00067653466249
v -0.00169111718424 0.00126569729764 -0.00067515182309
v -0.00169140205253 0.00126461382024 -0.00067984435009
v -0.00000176198682 -0.00349230086431 -0.00057698285673
v 0.00000076759835 -0.00349083938636 -0.00057791476138
v 0.00000516286491 -0.00349190179259 -0.00057844875846
v 0.00158888252918 0.00187391112559 -0.00048372283345
v 0.00159782683477 0.00187235185876 -0.0004917262122
v 0.00160178134684 0.00187232217286 -0.00050316506531
v 0.00001532869101 -0.00349633162841 -0.00058429030469
v 0.00002221075738 -0.00349871069193 -0.00059988995781
v -0.00169005454518 0.00126477505546 -0.00068094744347
v -0.00168836279772 0.00126507482491 -0.00068127468694
v -0.00000046715567 -0.00348847126588 -0.00057791656582
v 0.00157727766782 0.00187635340262 -0.00048130351934
v -0.00187957112212 0.00178003706969 -0.00072968867607
v -0.00019210275786 0.00356296100654 -0.00063637545099
v 0.00000238330085 -0.00348847126588 -0.00062446610536
v 0.0015816334635 0.00188147171866 -0.00052776088705
v -0.00187044846825 0.00178590265568 -0.00073914881796
v -0.00187830324285 0.00178132415749 -0.00073462037835
v -0.00187493476551 0.00178338866681 -0.00073808123125
v -0.0000063592106 -0.00349540705793 -0.00061498273863
v 0.00159975385759 0.00187405815814 -0.00051497027744
v -0.00000358452007 -0.00349391996861 -0.00062168342993
v 0.00000038071821 -0.00349099375308 -0.00062421266921
v 0.00001728346069 -0.00349633162841 -0.00061621272471
v 0.00000504879563 -0.00349137187004 -0.00062402157346
v 0.00159235449973 0.0018773234915 -0.00052397447871
v -0.00187831930816 0.00177964847535 -0.00072460266529
v 0.00142767338548 0.00135106465314 -0.00051382655511
v 0.0000030620397 -0.00349305802956 -0.00060106249293
v 0.00000250845005 -0.00349221774377 -0.00060337630566
v 0.00142446509562 0.00135120691266 -0.00051734759472
v 0.00000116089268 -0.00348847126588 -0.00060450349702
v -0.001869885833 0.00178087537643 -0.00071907689562
v 0.00000105799836 -0.00349054974504 -0.00060450553428
v -0.00000079580587 -0.00349099375308 -0.00060499936808
v 0.00142610445619 0.00135100306943 -0.00051680183969
v -0.00000442281589 -0.00349391996861 -0.00060799357016
v 0.00142727117054 0.00135092518758 -0.00051551347133
v -0.00187480344903 0.00178003753535 -0.00072072027251
v -0.00235937861726 0.00315406383015 -0.00074209651211
v -0.00236098119058 0.00315433717333 -0.00074105139356
v -0.00236174021848 0.00315440190025 -0.00073920679279
v 0.00142722425517 0.00135145534296 -0.00051219179295
v -0.00000131048034 -0.00349317258224 -0.00059466611128
v -0.00000052163676 -0.00349229364656 -0.00059690797934
v 0.00000047859396 -0.00349038955756 -0.00059778243303
v -0.00235767639242 0.00315347523428 -0.00074229750317
v 0.00000075525259 -0.00348847126588 -0.00059787917417
v 0.00142452749424 0.00135279784445 -0.0005106946337
v 0.00000114463285 -0.00349036836997 -0.00059797003632
v 0.00000223027268 -0.00349221774377 -0.00059883354697
v 0.00142606510781 0.00135206384584 -0.00051104585873
v 0.00142890377901 0.00135112181306 -0.00050508772256
v 0.0014325483935 0.00134982366581 -0.0005085261655
v 0.00143405632116 0.00134918035474 -0.00051343569066
v -0.00236121192575 0.00315433717333 -0.00073728337884
v 0.00000944494604 -0.00349494232796 -0.00060067162849
v 0.00000659641228 -0.00349358911626 -0.00059398578014
v 0.00000248102492 -0.00349087826908 -0.00059148017317
v 0.00000059265352 -0.003490538802 -0.00059136876371
v -0.00000080106872 -0.00349229364656 -0.00059234473156
v 0.0014241199242 0.00135279784445 -0.00050404045032
v 0.00000034778316 -0.00348847126588 -0.00059122499079
v -0.00235808384605 0.00315347523428 -0.00073564331979
v -0.00235974881798 0.00315406383015 -0.00073605048237
v -0.00187131587882 0.00178115465678 -0.0007262910367
v -0.00187268620357 0.00178158364724 -0.00072759727482
v 0.00143300264608 0.00134929339401 -0.00051850208547
v 0.00000041951074 -0.00349229364656 -0.00061227742117
v 0.00000182879478 -0.00349054462276 -0.00061123282649
v 0.00000366123777 -0.00349087989889 -0.00061066402122
v 0.00000743345345 -0.00349358911626 -0.00060765515082
v 0.00142964883707 0.00135006103665 -0.00052236911142
v 0.00142487254925 0.00135120691266 -0.00052400183631
v -0.00186947837938 0.00178087537643 -0.000725731079
v 0.00000156836211 -0.00348847126588 -0.0006111577386
# 133 vertices

vn 0.15524046123028 -0.41821202635765 -0.89498549699783
vn 0.44588047266006 -0.44904029369354 -0.77430832386017
vn -0.15174323320389 -0.45862385630608 -0.87557876110077
vn -0.92807763814926 0.26836389303207 0.258171916008
vn -0.81826841831207 0.23120138049126 0.52629148960114
vn -0.4569827914238 0.11846851557493 0.88155084848404
vn 0.02730943076313 -0.44964814186096 -0.89278817176819
vn 0.94815665483475 0.31669339537621 -0.02653753571212
vn -0.06112041696906 0 0.99813038110733
vn -0.25082206726074 0.05630097165704 0.96639460325241
vn -0.6601881980896 -0.59075516462326 -0.46385329961777
vn 0.69775950908661 -0.37866201996803 -0.60806804895401
vn 0.86945372819901 -0.37703216075897 -0.31921303272247
vn 0.6584221124649 0.24939388036728 0.71012890338898
vn 0.56077867746353 0.21661542356014 0.79912769794464
vn 0.70399165153503 0.26434659957886 0.65917873382568
vn 0.87348860502243 0.31817388534546 0.3684875369072
vn 0.53531920909882 -0.62742465734482 0.56548351049423
vn -0.85531949996948 -0.31274861097336 -0.41305789351463
vn -0.69336539506912 -0.26085615158081 -0.67171311378479
vn -0.20465888082981 -0.09385671466589 -0.97432315349579
vn 0.07356767356396 0.00444008177146 -0.99728035926819
vn 0.06112041696906 0 -0.99813038110733
vn 0.95670849084854 0.26007255911827 0.1306564360857
vn -0.12998388707638 0.05595480278134 -0.98993599414825
vn -0.34574821591377 0.11838150769472 -0.93082976341248
vn 0.89855945110321 0.06174991652369 0.43448573350906
vn -0.74811339378357 0.23129044473171 -0.6219574213028
vn -0.88963949680328 0.26842406392097 -0.36944565176964
vn -0.53325182199478 -0.75888723134994 0.37380835413933
vn -0.34018692374229 -0.82564443349838 0.45009341835976
vn 0.53869676589966 -0.76048994064331 0.36257529258728
vn -0.13096015155315 -0.85312223434448 0.50500679016113
vn -0.84287703037262 -0.28946173191071 0.45361903309822
vn -0.9268599152565 -0.32509070634842 0.18774101138115
vn 0.96526664495468 -0.06129527464509 0.25397476553917
vn -0.67180639505386 0.6208034157753 -0.40407833456993
vn -0.29597014188766 0.88216638565063 -0.3663115799427
vn -0.51592624187469 0.75438630580902 -0.40585881471634
vn -0.17484433948994 -0.0406755618751 0.98375552892685
vn -0.53429889678955 -0.17168688774109 0.82767647504807
vn 0.22057721018791 -0.15182042121887 0.96348130702972
vn 0.07722352445126 -0.11333680152893 0.99055099487305
vn 0.6309409737587 -0.24802899360657 0.73511570692062
vn 0.8336409330368 -0.28195539116859 0.47491466999054
vn -0.07555391639471 0.94561076164246 -0.31640461087227
vn 0.41044759750366 0.89021736383438 -0.19760026037693
vn 0.68061661720276 0.7270935177803 -0.08997778594494
vn 0.09462890774012 0.95436507463455 -0.28325378894806
vn 0.1934289932251 0.95701503753662 -0.21611896157265
vn -0.35001808404922 -0.10396339744329 0.93095594644547
vn 0.86172586679459 -0.20335936546326 -0.46483704447746
vn 0.95005881786346 -0.2548426091671 -0.18012091517448
vn -0.94396579265594 -0.31662490963936 -0.09315204620361
vn -0.9349536895752 -0.34610801935196 -0.07791573554277
vn -0.90666317939758 -0.41994962096214 -0.04005278646946
vn 0.17484433948994 0.0406755618751 -0.98375552892685
vn 0.52730417251587 -0.0726400539279 -0.84656584262848
vn 0.53278094530106 0.17114219069481 -0.82876706123352
vn 0.34327363967896 0.10155423730612 -0.93372905254364
vn 0.84368067979813 0.28973865509033 -0.45194512605667
vn 0.92687392234802 0.32505401968956 -0.18773540854454
vn -0.08167724311352 -0.93844133615494 0.33564373850822
vn -0.91382652521133 -0.40331670641899 -0.04750448465347
vn 0.7237554192543 -0.54997682571411 0.41677761077881
vn 0.85340875387192 -0.36486920714378 0.37224182486534
vn 0.93778318166733 -0.16037890315056 0.30796310305595
vn 0.33315408229828 -0.00828517973423 -0.94283598661423
vn -0.96986162662506 -0.19050686061382 -0.15190643072128
vn -0.31859555840492 0.90598726272583 -0.2787184715271
vn 0.10710372775793 0.92560881376266 -0.36301118135452
vn -0.0837145447731 0.93108522891998 -0.35506641864777
vn 0.31527826189995 0.86964780092239 -0.37988469004631
vn 0.46570950746536 0.81701624393463 -0.33999863266945
vn -0.88655781745911 -0.46218758821487 0.01994565688074
vn 0.68709981441498 0.25879055261612 0.67891186475754
vn 0.85531657934189 0.31271666288376 0.4130882024765
vn 0.4488745033741 0.17848753929138 0.87558770179749
vn 0.34572133421898 -0.11838384717703 0.93083941936493
vn 0.12995347380638 -0.05595599487424 0.98993992805481
vn -0.93652522563934 0.10412643104792 -0.33478075265884
vn 0.74810546636581 -0.2312675267458 0.62197548151016
vn 0.88964676856995 -0.26839530467987 0.36944898962975
vn -0.56490844488144 0.67699325084686 -0.47176107764244
vn 0.93027120828629 0.32706314325333 -0.16620837152004
vn -0.33858153223991 -0.14043186604977 -0.93039852380753
vn -0.12657834589481 -0.06640607118607 -0.98973137140274
vn -0.73416769504547 -0.27420976758003 -0.62113350629807
vn -0.87349021434784 -0.31820532679558 -0.36845654249191
vn 0.46945995092392 0.80072724819183 0.37207958102226
vn -0.01873196288943 0.72397619485855 0.68957054615021
vn 0.22952954471111 0.77990865707397 0.58228743076324
vn -0.42496386170387 0.73041707277298 0.53469300270081
vn -0.6122727394104 0.7347851395607 0.29191240668297
vn 0.80998706817627 -0.22863917052746 -0.54004174470901
vn 0.92805689573288 -0.26846128702164 -0.25814518332481
vn 0.43100228905678 -0.11058143526316 -0.89554941654205
vn -0.19766272604465 0.65733581781387 0.72721320390701
vn 0.58956634998322 0.62091022729874 0.51660627126694
vn -0.26839354634285 0.58872073888779 0.76247805356979
vn -0.48577418923378 0.46032389998436 0.74305140972137
vn 0.22433869540691 -0.04822764918208 -0.97331714630127
vn -0.80447363853455 -0.27424374222755 0.52688944339752
vn -0.91190552711487 -0.31824177503586 0.25913399457932
vn -0.4495974779129 -0.14043098688126 0.88212317228317
vn -0.41844233870506 0.10681027173996 0.90194100141525
vn -0.18967495858669 0.03809867426753 0.98110747337341
vn -0.81202626228333 0.22914098203182 0.53675675392151
vn -0.92809790372849 0.26829788088799 0.2581675350666
vn 0.52172529697418 0.59293788671494 -0.61337375640869
vn 0.3434970676899 0.50580418109894 -0.79131025075912
vn 0.64867264032364 0.68769812583923 -0.32602933049202
vn 0.91450601816177 0.39768362045288 -0.07434000074863
vn 0.87277668714523 0.43934810161591 -0.21268318593502
vn 0.8112935423851 0.47109624743462 -0.3462241590023
vn 0.52332401275635 -0.02670705318451 0.85171514749527
vn 0.14178736507893 0.346326649189 -0.92733716964722
vn -0.2464217543602 -0.06640654802322 0.96688497066498
vn -0.06279997527599 0.23919463157654 -0.96893864870071
vn 0.94129604101181 0.18815846741199 0.28028228878975
vn -0.68334543704987 -0.59725546836853 0.41991066932678
vn -0.9281033873558 -0.17471353709698 -0.32878461480141
vn 0.76570683717728 -0.09056903421879 0.63678121566772
vn 0.82400786876678 0.00780253158882 0.56652462482452
vn 0.77425372600555 -0.07997208833694 0.62780219316483
vn 0.84501272439957 0.05262269452214 0.5321506857872
vn 0.89566481113434 0.20406819880009 0.39514651894569
vn -0.74899059534073 0.23146246373653 -0.62083667516708
vn -0.88966745138168 0.26832929253578 -0.36944714188576
vn -0.34448301792145 0.11807038635015 -0.93133819103241
vn -0.30758640170097 -0.1296858638525 -0.94264107942581
vn -0.09939816594124 -0.05687787383795 -0.99342083930969
vn -0.71595710515976 -0.26821458339691 -0.64456683397293
vn -0.86640721559525 -0.31604394316673 -0.38659372925758
vn -0.12453646212816 0.05444624274969 -0.99072009325027
vn 0.47643306851387 0.78253942728043 -0.40080365538597
vn -0.31484290957451 0.63989418745041 -0.70100599527359
vn -0.94298577308655 -0.08935619145632 -0.32061395049095
vn 0.42580616474152 0.74485492706299 -0.51369279623032
vn 0.68509638309479 0.64334958791733 -0.34167855978012
vn 0.12091263383627 0.76657176017761 -0.63067251443863
vn -0.80884540081024 0.40477418899536 -0.42652896046638
vn -0.77320981025696 -0.26201105117798 0.57749181985855
vn -0.90710312128067 -0.31604397296906 0.27799302339554
vn -0.43645918369293 -0.13564822077751 0.889439702034
vn 0.34616515040398 -0.11852505803108 0.93065649271011
vn 0.13176979124546 -0.05653109028935 0.98966711759567
vn 0.74783003330231 -0.23117063939571 0.62234270572662
vn 0.88966137170792 -0.26833772659302 0.36945566534996
vn -0.30969780683517 -0.08938359469175 0.94662445783615
vn -0.85163390636444 -0.12332707643509 0.50942134857178
vn -0.60614669322968 -0.08985114097595 0.79026132822037
vn -0.9612911939621 -0.0959183499217 0.25830000638962
vn -0.46352761983871 -0.06600172072649 0.88362091779709
vn -0.34761029481888 -0.03879880160093 0.9368360042572
vn -0.48905819654465 -0.09843420237303 0.86667919158936
vn -0.50422334671021 -0.10559169203043 0.85709345340729
vn -0.85171777009964 -0.40010541677475 0.33836734294891
vn 0.81865572929382 -0.23135137557983 -0.5256227850914
vn 0.92808485031128 -0.26836651563644 -0.25814324617386
vn 0.45636835694313 -0.11829712241888 -0.88189214468002
vn 0.44266721606255 0.13791887462139 -0.88601583242416
vn 0.27356660366058 0.07626765221357 -0.95882457494736
vn 0.79281008243561 0.26963758468628 -0.54657822847366
vn 0.91193652153015 0.31818014383316 -0.25910076498985
vn 0.24805721640587 -0.055440582335 -0.96715766191483
# 166 normals

vt 0.49995157122612 0.00212597846985 0
vt 0.5 0 0
vt 0.5 0.00239622592926 0
vt 0.49946200847626 0.00165581703186 0
vt 0.2547627389431 0.75476276874542 0
vt 0.25495859980583 0.75495862960815 0
vt 0.49977412819862 0.00184786319733 0
vt 0.25515449047089 0.75515449047089 0
vt 0.50004839897156 0.00212597846985 0
vt 0.50022584199905 0.00184786319733 0
vt 0.25535038113594 0.75535035133362 0
vt 0.5 1 0
vt 0.74464964866638 0.75535035133362 0
vt 0.50053799152374 0.00165581703186 0
vt 0.74484550952911 0.75515449047089 0
vt 0.74504137039185 0.75495862960815 0
vt 0.74523729085922 0.75476276874542 0
vt 0.72123175859451 0.68088132143021 0
vt 0.7209849357605 0.68092042207718 0
vt 0.72073811292648 0.68095946311951 0
vt 0.72049129009247 0.68099856376648 0
vt 0.2555835545063 0.75463271141052 0
vt 0.25530993938446 0.75467610359192 0
vt 0.25503632426262 0.75471937656403 0
vt 0.72100907564163 0.68099474906921 0
vt 0.19191606342793 0.95058107376099 0
vt 0.72056376934052 0.68122166395187 0
vt 0.72078639268875 0.68110823631287 0
vt 0.19167397916317 0.95066893100739 0
vt 0.19139903783798 0.95069444179535 0
vt 0.19111704826355 0.95064401626587 0
vt 0.74496364593506 0.75471937656403 0
vt 0.74469006061554 0.75467610359192 0
vt 0.27926191687584 0.68095946311951 0
vt 0.27950873970985 0.68099856376648 0
vt 0.27901509404182 0.68092042207718 0
vt 0.27876827120781 0.68088132143021 0
vt 0.74441647529602 0.75463271141052 0
vt 0.27899092435837 0.68099474906921 0
vt 0.27921357750893 0.68110823631287 0
vt 0.80832600593567 0.95066893100739 0
vt 0.80808395147324 0.95058107376099 0
vt 0.27943626046181 0.68122166395187 0
vt 0.80860096216202 0.95069444179535 0
vt 0.80888295173645 0.95064401626587 0
# 45 texture coordinates

o Decagon_web
usemtl Mat
f 7/1/1 15/2/2 17/3/3
f 3/4/4 2/5/4 11/6/5 6/7/5
f 6/7/5 11/6/5 14/8/6 7/1/6
f 8/9/7 15/2/7 4/10/7
f 17/3/8 15/2/8 8/9/8
f 13/11/9 1/12/9 17/3/9
f 1/12/9 16/13/9 17/3/9
f 7/1/6 14/8/6 13/11/10 17/3/10
f 4/10/11 15/2/11 5/14/11
f 6/7/12 15/2/2 7/1/1
f 3/4/13 15/2/2 6/7/12
f 17/3/14 16/13/14 12/15/15 8/9/15
f 8/9/15 12/15/15 10/16/16 4/10/16
f 4/10/16 10/16/16 9/17/17 5/14/17
f 26/10/18 15/2/18 21/9/18
f 20/14/19 27/18/19 29/19/20 26/10/20
f 26/10/20 29/19/20 18/20/21 21/9/21
f 21/9/21 18/20/21 25/21/22 23/3/22
f 25/21/23 22/22/23 23/3/23
f 21/9/24 15/2/24 23/3/24
f 23/3/25 22/22/25 28/23/26 24/1/26
f 20/14/27 15/2/27 26/10/27
f 24/1/26 28/23/26 30/24/28 19/7/28
f 19/7/28 30/24/28 2/5/29 3/4/29
f 23/3/30 15/2/31 24/1/31
f 19/7/32 15/2/32 3/4/32
f 24/1/31 15/2/31 19/7/33
f 33/10/34 41/25/34 27/18/35 20/14/35
f 36/1/36 15/2/36 42/3/36
f 42/3/37 15/2/38 35/9/39
f 43/26/40 39/27/40 42/3/40
f 35/9/41 32/28/41 41/25/34 33/10/34
f 36/1/42 38/29/42 43/26/43 42/3/43
f 40/7/44 31/30/44 38/29/42 36/1/42
f 34/4/45 37/31/45 31/30/44 40/7/44
f 35/9/39 15/2/38 33/10/46
f 40/7/47 15/2/47 36/1/48
f 34/4/49 15/2/47 40/7/47
f 33/10/46 15/2/38 20/14/50
f 42/3/51 39/27/51 32/28/41 35/9/41
f 47/7/52 51/30/52 37/31/53 34/4/53
f 46/1/54 15/2/55 47/7/56
f 54/27/57 52/26/57 53/3/57
f 46/1/58 49/29/58 51/30/52 47/7/52
f 45/9/59 56/28/59 54/27/60 53/3/60
f 44/10/61 55/25/61 56/28/59 45/9/59
f 48/14/62 50/18/62 55/25/61 44/10/61
f 48/14/63 15/2/63 44/10/63
f 47/7/56 15/2/55 34/4/64
f 44/10/65 15/2/66 45/9/66
f 45/9/66 15/2/66 53/3/67
f 53/3/68 52/26/68 49/29/58 46/1/58
f 53/3/69 15/2/55 46/1/54
f 65/4/70 15/2/71 64/7/72
f 69/22/9 67/21/9 68/3/9
f 64/7/72 15/2/71 60/1/73
f 60/1/73 15/2/71 68/3/74
f 68/3/75 15/2/75 59/9/75
f 58/10/76 57/19/76 50/18/77 48/14/77
f 59/9/78 66/20/78 57/19/76 58/10/76
f 60/1/79 61/23/79 69/22/80 68/3/80
f 58/10/81 15/2/81 48/14/81
f 64/7/82 62/24/82 61/23/79 60/1/79
f 65/4/83 63/5/83 62/24/82 64/7/82
f 59/9/84 15/2/84 58/10/84
f 68/3/85 67/21/85 66/20/85 59/9/85
f 80/9/86 76/15/86 74/13/87 72/3/87
f 79/10/88 75/16/88 76/15/86 80/9/86
f 77/14/89 70/17/89 75/16/88 79/10/88
f 77/14/90 15/2/91 79/10/92
f 81/7/93 15/2/93 65/4/94
f 81/7/95 78/6/95 63/5/96 65/4/96
f 82/1/97 83/8/97 78/6/95 81/7/95
f 82/1/98 15/2/93 81/7/93
f 72/3/99 15/2/99 82/1/99
f 79/10/92 15/2/91 80/9/100
f 80/9/100 15/2/91 72/3/101
f 74/13/23 71/12/23 72/3/23
f 71/12/23 73/11/23 72/3/23
f 72/3/102 73/11/102 83/8/97 82/1/97
f 94/10/103 84/32/103 70/17/104 77/14/104
f 92/9/105 96/33/105 84/32/103 94/10/103
f 91/1/106 93/34/106 88/35/107 89/3/107
f 87/7/108 95/36/108 93/34/106 91/1/106
f 86/4/109 85/37/109 95/36/108 87/7/108
f 94/10/110 15/2/111 77/14/112
f 86/4/113 15/2/114 87/7/114
f 87/7/114 15/2/114 91/1/115
f 91/1/116 15/2/116 89/3/116
f 92/9/117 15/2/111 94/10/110
f 88/35/9 90/38/9 89/3/9
f 89/3/118 90/38/118 96/33/105 92/9/105
f 89/3/119 15/2/111 92/9/117
f 108/7/120 15/2/120 86/4/120
f 107/1/121 15/2/121 108/7/121
f 105/3/122 15/2/122 107/1/122
f 103/9/123 15/2/124 105/3/125
f 102/10/126 15/2/124 103/9/123
f 101/14/127 15/2/124 102/10/126
f 108/7/128 100/39/128 85/37/129 86/4/129
f 107/1/130 109/40/130 100/39/128 108/7/128
f 103/9/131 97/41/131 104/42/132 105/3/132
f 104/42/23 106/43/23 105/3/23
f 102/10/133 98/44/133 97/41/131 103/9/131
f 101/14/134 99/45/134 98/44/133 102/10/133
f 105/3/135 106/43/135 109/40/130 107/1/130
f 118/10/136 15/2/136 101/14/136
f 117/9/137 15/2/137 118/10/137
f 120/3/138 15/2/138 117/9/138
f 116/1/139 15/2/139 120/3/140
f 115/7/141 15/2/139 116/1/139
f 114/4/142 15/2/142 115/7/142
f 118/10/143 113/44/143 99/45/144 101/14/144
f 117/9/145 122/41/145 113/44/143 118/10/143
f 119/43/9 121/42/9 120/3/9
f 116/1/146 110/40/146 119/43/147 120/3/147
f 115/7/148 111/39/148 110/40/146 116/1/146
f 114/4/149 112/37/149 111/39/148 115/7/148
f 120/3/150 121/42/150 122/41/145 117/9/145
f 129/7/151 15/2/152 114/4/153
f 128/1/154 15/2/152 129/7/151
f 133/3/155 15/2/152 128/1/154
f 127/9/156 15/2/152 133/3/155
f 126/10/157 15/2/152 127/9/156
f 5/14/158 15/2/158 126/10/158
f 129/7/159 125/36/159 112/37/160 114/4/160
f 132/38/23 131/35/23 133/3/23
f 128/1/161 130/34/161 125/36/159 129/7/159
f 127/9/162 123/33/162 132/38/163 133/3/163
f 126/10/164 124/32/164 123/33/162 127/9/162
f 5/14/165 9/17/165 124/32/164 126/10/164
f 133/3/166 131/35/166 130/34/161 128/1/161

