# WaveFront *.obj file (generated by CINEMA 4D)

mtllib ./DecagonShape_30.mtl

v 0.00137390894815 0.00524834124371 -0.01387350540608
v 0.00252635939978 0.0031768749468 -0.01450200937688
v 0.00000869868563 -0.00164079200476 -0.01315892953426
v 0.00000460576348 -0.00163827859797 -0.01315617933869
v 0.00000332712466 -0.00163908966351 -0.01315409969538
v 0.0000070673882 -0.00163898349274 -0.01315804384649
v 0.00000637474523 -0.00163679022808 -0.01315765734762
v 0.00000581482573 -0.0016366399359 -0.01315729878843
v -0.00044286824414 0.003936605528 -0.01289930101484
v -0.00044377415907 0.00393735570833 -0.01289776526392
v 0.00252543878742 0.00317852944136 -0.01450150646269
v -0.0004449931148 0.00393808959052 -0.01289645396173
v 0.00252359779552 0.00318183866329 -0.01450050249696
v 0.00252451817505 0.00318018393591 -0.01450100447983
v 0.00000146006641 -0.00164967111778 -0.01315664313734
v -0.00044646754395 0.00393881555647 -0.01289543043822
v 0.00000644806732 -0.00163485051598 -0.01315769646317
v 0.00409406237304 0.00035901472438 -0.01535697560757
v 0.00001087856435 -0.00164155079983 -0.01316010858864
v 0.00001311568485 -0.00164650240913 -0.01316133141518
v 0.00001330501073 -0.00164170702919 -0.01316141802818
v 0.00252912100405 0.00317191123031 -0.01450351532549
v 0.00001437030551 -0.00164018722717 -0.01316198799759
v 0.00001290749333 -0.00164119317196 -0.01316120196134
v 0.00409323209897 0.00036050719791 -0.0153565229848
v 0.00001273291491 -0.00164394814055 -0.01316111627966
v 0.00409572338685 0.00035602951539 -0.01535788178444
v 0.00252820039168 0.00317356549203 -0.01450301334262
v 0.00409489311278 0.00035752195981 -0.01535742916167
v 0.00252728001215 0.00317522045225 -0.01450251135975
v 0.0060701626353 -0.00319527997635 -0.01643631607294
v 0.004097383935 0.00035304410267 -0.01535878702998
v 0.00001448478724 -0.00164857285563 -0.01316207647324
v 0.00001251741196 -0.00165221444331 -0.01316481269896
v 0.00001630446604 -0.00164963805582 -0.01316307391971
v 0.00001630766928 -0.00165030849166 -0.01316320803016
v 0.00606939056888 -0.00319590931758 -0.01643804647028
v 0.00607030419633 -0.00319379102439 -0.01643509231508
v 0.00409821467474 0.00035155165824 -0.01535924058408
v 0.00001430255088 -0.00165146659128 -0.01316317729652
v 0.00409655366093 0.00035453680903 -0.01535833440721
v 0.00001801190592 -0.00164980057161 -0.01316398382187
v 0.00606975750998 -0.00319218845107 -0.01643444597721
v 0.00001131374029 -0.00164856342599 -0.01316794939339
v 0.00001314421752 -0.00164962862618 -0.01316892635077
v 0.00001325709854 -0.00165029941127 -0.0131688574329
v 0.00001212983443 -0.00165146007203 -0.01316720061004
v 0.0000099423296 -0.00164649297949 -0.01316720806062
v 0.00606742501259 -0.00319378264248 -0.01644042506814
v 0.00408847117797 0.0003560508485 -0.01537131145597
v 0.00606836890802 -0.00319527462125 -0.01643963903189
v 0.00606658682227 -0.00319217913784 -0.01644031703472
v 0.00001484129916 -0.00164979114197 -0.0131698558107
v 0.00409096758813 0.00035157299135 -0.01537266094238
v 0.00408930331469 0.00035455837497 -0.01537176128477
v 0.00409013545141 0.00035306566861 -0.01537221111357
v 0.00408763904124 0.00035754361306 -0.01537086162716
v 0.00000955626638 -0.00164393871091 -0.01316699944437
v 0.0000101251635 -0.00164169759955 -0.01316730678082
v 0.00000972709313 -0.00164118374232 -0.0131670916453
v 0.0025177069474 0.00317359692417 -0.01452244538814
v 0.00251678447239 0.00317525141872 -0.01452194619924
v 0.00251586223021 0.00317690614611 -0.01452144794166
v 0.00000769933649 -0.00164154137019 -0.01316599547863
v 0.00000551918629 -0.00164078257512 -0.01316481735557
v 0.00408680690452 0.00035903631942 -0.01537041272968
v 0.0040859747678 0.00036052876385 -0.01536996290088
v 0.00001118805721 -0.00164017768111 -0.01316788140684
v 0.00251862942241 0.00317194219679 -0.01452294364572
v -0.00046315888176 0.00393534637988 -0.01290794741362
v 0.00136102864053 0.00524837942794 -0.01389735750854
v 0.00000326135864 -0.00163484108634 -0.013163597323
v 0.00251309503801 0.0031818698626 -0.01451995223761
v -0.00045698785107 0.00393884489313 -0.01291487086564
v -0.00046165264212 0.00393648818135 -0.01291072089225
v -0.00045955911628 0.00393765885383 -0.01291306875646
v -0.00000281643133 -0.00163947057445 -0.0131567241624
v 0.0025149397552 0.00317856064066 -0.01452094968408
v -0.00000039334918 -0.00163848360535 -0.01316062826663
v 0.00000196197766 -0.00163670419715 -0.01316278148443
v 0.0000038860212 -0.0016389740631 -0.0131639353931
v 0.00000299227827 -0.00163680210244 -0.01316344272345
v 0.00251401728019 0.00318021513522 -0.01452045142651
v -0.00046399919665 0.00393424741924 -0.01290488895029
v 0.00046383746667 0.00236410065554 -0.01010670885444
v -0.0000026754899 -0.00164232635871 -0.0131453871727
v -0.0000032917269 -0.00164032622706 -0.01314691547304
v 0.00046236277558 0.0023665940389 -0.01011114940047
v -0.00000372217346 -0.00163615669589 -0.01314703840762
v -0.00046353272046 0.00393221667036 -0.01289854943752
v -0.00000368906512 -0.0016380607849 -0.01314759999514
v -0.00000394439758 -0.0016378168948 -0.01314877625555
v 0.00046285445569 0.00236576283351 -0.0101096695289
v -0.00000395827465 -0.00163915508892 -0.01315217558295
v 0.00046334601939 0.00236493162811 -0.01010818965733
v -0.00046412693337 0.00393320154399 -0.01290170289576
v 0.00163316854741 0.00038718190626 -0.0065874713473
v 0.00163466087542 0.00038621557178 -0.0065867123194
v 0.00163663015701 0.00038590666372 -0.00658680964261
v 0.00046432917588 0.00236326945014 -0.01010522898287
v 0.00000192807715 -0.00164643244352 -0.01314273197204
v -0.00000026964054 -0.00164559762925 -0.0131417857483
v -0.0000010563349 -0.00164380401839 -0.01314055081457
v 0.00163239217363 0.00038815880544 -0.00658878544345
v -0.00000092595792 -0.00164245988708 -0.013139157556
v 0.00046531230328 0.00236160680652 -0.01010227017105
v -0.00000131868978 -0.00164326524828 -0.01314087957144
v -0.00000194654513 -0.00164335849695 -0.01314312405884
v 0.00046482073958 0.00236243801191 -0.01010375004262
v 0.0004794584529 0.00236380752176 -0.01010782457888
v 0.00047897046898 0.00236463895999 -0.01010930538177
v 0.0004784821358 0.00236547063105 -0.01011078618467
v 0.00163828313816 0.00038655442768 -0.00658772140741
v 0.00000373252283 -0.0016417268198 -0.01314717065543
v 0.00000445680735 -0.0016427594237 -0.01314490661025
v 0.00000506285687 -0.00164266815409 -0.01314265653491
v 0.00000510373366 -0.00164322764613 -0.01314226537943
v 0.00000411776409 -0.00164518714882 -0.0131430067122
v 0.00047994643683 0.00236297608353 -0.01010634284467
v 0.00000547650416 -0.00164186081383 -0.01314093917608
v 0.0016387947835 0.00038875779137 -0.0065905675292
v 0.00163898314349 0.00038772588596 -0.00658908998594
v -0.00044214303489 0.00393503252417 -0.01290273480117
v -0.0004423163482 0.00393583346158 -0.01290098484606
v 0.00047799423919 0.00236630206928 -0.01011226605624
v 0.00000269174029 -0.00163863890339 -0.01315164752305
v 0.00000264580922 -0.00163723656442 -0.0131497932598
v 0.00000278992297 -0.0016374650877 -0.01314916647971
v 0.00000312293446 -0.00163972610608 -0.01314870081842
v 0.00047750613885 0.00236713350751 -0.01011374779046
v 0.00047701792209 0.00236796541139 -0.01011522859335
v -0.00044234687812 0.00393419899046 -0.01290444657207
v 0.00000270379769 -0.00163555552717 -0.01314882747829
# 133 vertices

vn -0.25689476728439 0.02191991731524 -0.96619075536728
vn -0.30484047532082 0.04444639757276 -0.95136576890945
vn -0.16877871751785 -0.01322045922279 -0.98556530475616
vn 0.4748846590519 -0.00279476307333 0.8800436258316
vn 0.47535327076912 -0.00311650382355 0.87978947162628
vn 0.47441580891609 -0.00247302092612 0.88029742240906
vn -0.90249878168106 0.28537884354591 -0.32257533073425
vn -0.89114874601364 0.27599313855171 -0.36011344194412
vn -0.84198331832886 0.25190401077271 -0.47708332538605
vn -0.9444762468338 0.31018766760826 -0.10838910192251
vn 0.47300574183464 -0.00155189575162 0.88105797767639
vn -0.86481207609177 0.25636833906174 -0.43171209096909
vn -0.370272397995 0.07293956726789 -0.92605519294739
vn -0.39752760529518 0.08886600285769 -0.91327685117722
vn -0.83158439397812 -0.09304016083479 0.54754996299744
vn -0.77264815568924 -0.09179580956697 0.62816268205643
vn -0.6122465133667 -0.08567718416452 0.78601121902466
vn -0.50879460573196 -0.08032443374395 0.85713243484497
vn -0.36567506194115 -0.00728082377464 -0.93071413040161
vn -0.33531239628792 -0.06036821007729 -0.94017088413239
vn -0.31279230117798 -0.10105907171965 -0.94442999362946
vn -0.27078232169151 -0.1658122241497 -0.94825273752213
vn -0.37804371118546 0.02115621417761 -0.92554599046707
vn -0.64040851593018 0.71787822246552 -0.27299782633781
vn -0.465466350317 0.16916248202324 -0.86874920129776
vn -0.43718671798706 0.12711507081985 -0.89034235477448
vn -0.49235567450523 0.21067771315575 -0.84451216459274
vn 0.47537237405777 -0.00413654139265 0.8797749876976
vn -0.38077485561371 0.26237097382545 -0.886663377285
vn -0.29810136556625 0.54485428333282 -0.78375339508057
vn -0.40541046857834 -0.03524767234921 -0.9134549498558
vn -0.29123446345329 0.68410348892212 -0.66871881484985
vn -0.37389630079269 0.32564094662666 -0.86842358112335
vn -0.35607609152794 0.44877249002457 -0.81964200735092
vn 0.47439336776733 -0.0014970760094 0.88031166791916
vn 0.3622390627861 -0.38169729709625 0.8503469824791
vn 0.43353900313377 -0.17384245991707 0.88420742750168
vn 0.13049286603928 -0.78154677152634 0.61004608869553
vn -0.0240829885006 -0.92064690589905 0.38965275883675
vn -0.39094603061676 0.12498480081558 -0.91188818216324
vn -0.1988615244627 0.7724604010582 -0.60312432050705
vn -0.05547706410289 0.92955386638641 -0.36448857188225
vn -0.38924944400787 0.07319746166468 -0.91821944713593
vn 0.47287753224373 0.00244290172122 0.88112479448318
vn -0.43959757685661 -0.77986919879913 -0.44559842348099
vn -0.34024378657341 -0.91972106695175 -0.19582465291023
vn 0.70021325349808 0.26574376225471 0.66263234615326
vn -0.47543251514435 0 -0.8797522187233
vn -0.51287049055099 -0.37913808226585 -0.77020657062531
vn -0.47592684626579 0.00125358824152 -0.87948399782181
vn -0.47743037343025 0.00523760868236 -0.87865394353867
vn -0.47492149472237 -0.00132114975713 -0.88002717494965
vn 0.71922117471695 0.24348340928555 0.65072017908096
vn 0.67618501186371 0.38649600744247 0.62721186876297
vn 0.37263396382332 0.90053713321686 0.22400175035
vn 0.61768060922623 0.52070558071136 0.58935254812241
vn 0.19607388973236 0.96203851699829 0.18983381986618
vn -0.50181078910828 -0.17108754813671 -0.84788852930069
vn 0.5526767373085 -0.61235684156418 0.56530302762985
vn 0.54031211137772 0.42247107625008 0.72772318124771
vn 0.41814887523651 0.52875506877899 0.73862683773041
vn 0.2849682867527 0.62112361192703 0.73006749153137
vn -0.36738264560699 0.84258460998535 0.39380347728729
vn 0.82705003023148 -0.45216915011406 0.33396297693253
vn 0.82987147569656 -0.17807757854462 0.52877378463745
vn 0.8375551700592 -0.29664880037308 0.45880365371704
vn 0.79609251022339 -0.03270488977432 0.60429054498672
vn 0.76863241195679 0.06417341530323 0.63646364212036
vn -0.62886506319046 -0.0172398108989 -0.77732330560684
vn -0.54860752820969 -0.00798198394477 -0.83604192733765
vn -0.78587818145752 -0.03736286982894 -0.61725163459778
vn -0.85650968551636 -0.04780395328999 -0.51391243934631
vn 0.76455289125442 0.32497027516365 0.55664455890656
vn 0.42283245921135 0.40095561742783 0.81267911195755
vn 0.62608283758163 0.35163599252701 0.69596868753433
vn 0.74712783098221 0.25029933452606 0.6157518029213
vn 0.68690705299377 0.29649823904037 0.66351145505905
vn -0.47621995210648 0.00054405879928 -0.87932604551315
vn -0.47409990429878 -0.00091551692458 -0.88047057390213
vn 0.80132591724396 0.20208005607128 0.56306344270706
vn 0.98949563503265 -0.13892239332199 -0.03998647630215
vn 0.21483896672726 0.41104066371918 0.88594007492065
vn -0.04826658591628 0.42888393998146 0.90206921100616
vn -0.47110804915428 -0.00292471563444 -0.88207066059113
vn -0.98734939098358 -0.07531440258026 -0.13953091204166
vn -0.9625506401062 -0.06779760122299 -0.26248762011528
vn -0.99266046285629 -0.08578287065029 0.08524372428656
vn -0.95874929428101 -0.09227265417576 0.26885962486267
vn -0.95768576860428 -0.09465367347002 0.27180626988411
vn -0.95953047275543 -0.09051996469498 0.26665976643562
vn -0.95925664901733 -0.0911318808794 0.2674352824688
vn 0.88837236166 0.45911249518394 -0.00320241227746
vn 0.79272800683975 0.55939519405365 -0.24219699203968
vn 0.90297108888626 0.38014668226242 0.20032899081707
vn 0.9257932305336 0.36379662156105 0.1027567833662
vn 0.92477399110794 0.14930096268654 0.35000318288803
vn 0.93844968080521 0.30122515559196 0.16904312372208
vn 0.88471746444702 0.03009572438896 0.46515503525734
vn 0.73842120170593 -0.17890451848507 0.65017479658127
vn 0.65972751379013 0.60058468580246 -0.45172742009163
vn -0.95924741029739 -0.09115759283304 0.26745963096619
vn -0.97887670993805 -0.08903466165066 0.18404671549797
vn 0.42445629835129 0.62698894739151 -0.65323942899704
vn 0.74345630407333 0.65794807672501 -0.11990444362164
vn 0.84868985414505 0.52788335084915 -0.03262901306152
vn 0.61171460151672 0.76461184024811 -0.20291358232498
vn -0.13759136199951 0.90892112255096 -0.39361277222633
vn 0.88791155815125 -0.36976191401482 0.27365896105766
vn 0.91468411684036 0.40414628386498 -0.00432357704267
vn 0.25881445407867 0.93881374597549 -0.2272527217865
vn -0.95885235071182 -0.09204893559217 0.26856869459152
vn -0.95923620462418 -0.09117662906647 0.26749351620674
vn -0.95962625741959 -0.09030348807573 0.26638838648796
vn -0.82104831933975 -0.45435991883278 0.34559625387192
vn -0.91603803634644 -0.25686013698578 0.30805379152298
vn -0.44727447628975 -0.81666773557663 0.364690721035
vn -0.16797845065594 -0.92897033691406 0.32984441518784
vn -0.96077305078506 -0.08770199120045 0.26310360431671
vn -0.73452591896057 0.67402809858322 -0.07847157120705
vn -0.94278573989868 0.31482353806496 0.10973237454891
vn -0.50327932834625 0.84520584344864 -0.17982479929924
vn -0.95941823720932 0.24954178929329 0.13132213056087
vn -0.95607274770737 0.27200004458427 0.10927440226078
vn -0.96268326044083 0.23799830675125 0.12883214652538
vn -0.96187168359756 -0.04192179813981 0.2702691257
vn -0.95830029249191 -0.0592001862824 0.27956369519234
vn 0.70381516218185 -0.70900183916092 0.0442782305181
vn 0.47036084532738 -0.86925834417343 0.15215316414833
vn 0.94605773687363 -0.28910148143768 -0.14627057313919
vn 0.95971304178238 0.08838459849358 -0.26671913266182
vn 0.95935291051865 0.08921251446009 -0.26773703098297
vn 0.95818519592285 0.09183719754219 -0.27101129293442
vn 0.96009242534637 0.0874867066741 -0.26564741134644
vn 0.95969361066818 0.08840429782867 -0.26678237318993
vn 0.97271978855133 -0.08024924248457 -0.2176608890295
vn -0.9531757235527 -0.07464732974768 0.29305931925774
vn -0.94828325510025 -0.08357818424702 0.30622458457947
vn -0.95496135950088 -0.07048420608044 0.28823739290237
vn -0.94475597143173 -0.09008149802685 0.31515318155289
vn -0.93772125244141 -0.10136329382658 0.33227154612541
vn -0.17198470234871 0.19138194620609 -0.9663302898407
vn -0.32027623057365 0.48031651973724 -0.81652873754501
vn -0.26215499639511 0.26259678602219 -0.92861062288284
vn -0.95251274108887 0.20733243227005 -0.22300840914249
vn -0.97012335062027 0.18131224811077 -0.1612035036087
vn -0.93032866716385 0.23235310614109 -0.28372636437416
vn 0.95987737178802 0.08803319185972 -0.26624348759651
vn 0.95972120761871 0.08838398754597 -0.26668977737427
vn 0.95955353975296 0.08875384181738 -0.26716992259026
vn -0.08925508707762 0.03701499849558 -0.99532073736191
vn -0.18746396899223 0.02825732156634 -0.98186492919922
vn 0.13475699722767 0.05533434078097 -0.98933243751526
vn 0.25756004452705 0.0643724873662 -0.96411567926407
vn 0.95906978845596 0.08985009789467 -0.26853686571121
# 154 normals

vt 0.49995157122612 0.00212597846985 0
vt 0.5 0 0
vt 0.5 0.00239622592926 0
vt 0.49946200847626 0.00165581703186 0
vt 0.2547627389431 0.75476276874542 0
vt 0.25495859980583 0.75495862960815 0
vt 0.49977412819862 0.00184786319733 0
vt 0.25515449047089 0.75515449047089 0
vt 0.50004839897156 0.00212597846985 0
vt 0.50022584199905 0.00184786319733 0
vt 0.25535038113594 0.75535035133362 0
vt 0.5 1 0
vt 0.74464964866638 0.75535035133362 0
vt 0.50053799152374 0.00165581703186 0
vt 0.74484550952911 0.75515449047089 0
vt 0.74504137039185 0.75495862960815 0
vt 0.74523729085922 0.75476276874542 0
vt 0.72123175859451 0.68088132143021 0
vt 0.7209849357605 0.68092042207718 0
vt 0.72073811292648 0.68095946311951 0
vt 0.72049129009247 0.68099856376648 0
vt 0.2555835545063 0.75463271141052 0
vt 0.25530993938446 0.75467610359192 0
vt 0.25503632426262 0.75471937656403 0
vt 0.72100907564163 0.68099474906921 0
vt 0.19191606342793 0.95058107376099 0
vt 0.72056376934052 0.68122166395187 0
vt 0.72078639268875 0.68110823631287 0
vt 0.19167397916317 0.95066893100739 0
vt 0.19139903783798 0.95069444179535 0
vt 0.19111704826355 0.95064401626587 0
vt 0.74496364593506 0.75471937656403 0
vt 0.74469006061554 0.75467610359192 0
vt 0.27926191687584 0.68095946311951 0
vt 0.27950873970985 0.68099856376648 0
vt 0.27901509404182 0.68092042207718 0
vt 0.27876827120781 0.68088132143021 0
vt 0.74441647529602 0.75463271141052 0
vt 0.27899092435837 0.68099474906921 0
vt 0.27921357750893 0.68110823631287 0
vt 0.80832600593567 0.95066893100739 0
vt 0.80808395147324 0.95058107376099 0
vt 0.27943626046181 0.68122166395187 0
vt 0.80860096216202 0.95069444179535 0
vt 0.80888295173645 0.95064401626587 0
# 45 texture coordinates

o Decagon_web
usemtl Mat
f 7/1/1 15/2/2 17/3/3
f 3/4/4 2/5/4 11/6/5 6/7/5
f 6/7/5 11/6/5 14/8/6 7/1/6
f 8/9/7 15/2/8 4/10/9
f 17/3/10 15/2/8 8/9/7
f 13/11/4 1/12/4 17/3/4
f 1/12/4 16/13/4 17/3/4
f 7/1/6 14/8/6 13/11/11 17/3/11
f 4/10/9 15/2/8 5/14/12
f 6/7/13 15/2/2 7/1/1
f 3/4/14 15/2/2 6/7/13
f 17/3/15 16/13/15 12/15/16 8/9/16
f 8/9/16 12/15/16 10/16/17 4/10/17
f 4/10/17 10/16/17 9/17/18 5/14/18
f 26/10/19 15/2/20 21/9/21
f 20/14/4 27/18/4 29/19/4 26/10/4
f 26/10/4 29/19/4 18/20/4 21/9/4
f 21/9/4 18/20/4 25/21/4 23/3/4
f 25/21/4 22/22/4 23/3/4
f 21/9/21 15/2/20 23/3/22
f 23/3/4 22/22/4 28/23/4 24/1/4
f 20/14/23 15/2/20 26/10/19
f 24/1/4 28/23/4 30/24/4 19/7/4
f 19/7/4 30/24/4 2/5/4 3/4/4
f 23/3/24 15/2/24 24/1/24
f 19/7/25 15/2/25 3/4/26
f 24/1/27 15/2/25 19/7/25
f 33/10/28 41/25/28 27/18/4 20/14/4
f 36/1/29 15/2/30 42/3/31
f 42/3/32 15/2/33 35/9/34
f 43/26/4 39/27/4 42/3/4
f 35/9/35 32/28/35 41/25/28 33/10/28
f 36/1/36 38/29/36 43/26/37 42/3/37
f 40/7/38 31/30/38 38/29/36 36/1/36
f 34/4/39 37/31/39 31/30/38 40/7/38
f 35/9/34 15/2/33 33/10/40
f 40/7/41 15/2/30 36/1/29
f 34/4/42 15/2/30 40/7/41
f 33/10/40 15/2/33 20/14/43
f 42/3/44 39/27/44 32/28/35 35/9/35
f 47/7/45 51/30/45 37/31/46 34/4/46
f 46/1/47 15/2/47 47/7/47
f 54/27/48 52/26/48 53/3/48
f 46/1/49 49/29/49 51/30/45 47/7/45
f 45/9/50 56/28/50 54/27/51 53/3/51
f 44/10/52 55/25/52 56/28/50 45/9/50
f 48/14/48 50/18/48 55/25/52 44/10/52
f 48/14/53 15/2/54 44/10/54
f 47/7/55 15/2/55 34/4/55
f 44/10/54 15/2/54 45/9/56
f 45/9/57 15/2/57 53/3/57
f 53/3/58 52/26/58 49/29/49 46/1/49
f 53/3/59 15/2/59 46/1/59
f 65/4/60 15/2/61 64/7/61
f 69/22/48 67/21/48 68/3/48
f 64/7/61 15/2/61 60/1/62
f 60/1/63 15/2/63 68/3/63
f 68/3/64 15/2/65 59/9/66
f 58/10/48 57/19/48 50/18/48 48/14/48
f 59/9/48 66/20/48 57/19/48 58/10/48
f 60/1/48 61/23/48 69/22/48 68/3/48
f 58/10/67 15/2/65 48/14/68
f 64/7/48 62/24/48 61/23/48 60/1/48
f 65/4/48 63/5/48 62/24/48 64/7/48
f 59/9/66 15/2/65 58/10/67
f 68/3/48 67/21/48 66/20/48 59/9/48
f 80/9/69 76/15/69 74/13/70 72/3/70
f 79/10/71 75/16/71 76/15/69 80/9/69
f 77/14/72 70/17/72 75/16/71 79/10/71
f 77/14/73 15/2/74 79/10/75
f 81/7/76 15/2/76 65/4/77
f 81/7/78 78/6/78 63/5/48 65/4/48
f 82/1/79 83/8/79 78/6/78 81/7/78
f 82/1/80 15/2/76 81/7/76
f 72/3/81 15/2/81 82/1/81
f 79/10/75 15/2/74 80/9/82
f 80/9/82 15/2/74 72/3/83
f 74/13/48 71/12/48 72/3/48
f 71/12/48 73/11/48 72/3/48
f 72/3/84 73/11/84 83/8/79 82/1/79
f 94/10/85 84/32/85 70/17/86 77/14/86
f 92/9/87 96/33/87 84/32/85 94/10/85
f 91/1/88 93/34/88 88/35/89 89/3/89
f 87/7/90 95/36/90 93/34/88 91/1/88
f 86/4/91 85/37/91 95/36/90 87/7/90
f 94/10/92 15/2/93 77/14/94
f 86/4/95 15/2/96 87/7/97
f 87/7/97 15/2/96 91/1/98
f 91/1/98 15/2/96 89/3/99
f 92/9/100 15/2/93 94/10/92
f 88/35/101 90/38/101 89/3/101
f 89/3/102 90/38/102 96/33/87 92/9/87
f 89/3/103 15/2/93 92/9/100
f 108/7/104 15/2/104 86/4/105
f 107/1/106 15/2/104 108/7/104
f 105/3/107 15/2/107 107/1/107
f 103/9/108 15/2/108 105/3/108
f 102/10/109 15/2/109 103/9/109
f 101/14/110 15/2/110 102/10/110
f 108/7/111 100/39/111 85/37/112 86/4/112
f 107/1/113 109/40/113 100/39/111 108/7/111
f 103/9/114 97/41/114 104/42/115 105/3/115
f 104/42/101 106/43/101 105/3/101
f 102/10/116 98/44/116 97/41/114 103/9/114
f 101/14/117 99/45/117 98/44/116 102/10/116
f 105/3/118 106/43/118 109/40/113 107/1/113
f 118/10/119 15/2/120 101/14/121
f 117/9/122 15/2/120 118/10/119
f 120/3/123 15/2/120 117/9/122
f 116/1/124 15/2/120 120/3/123
f 115/7/125 15/2/120 116/1/124
f 114/4/126 15/2/120 115/7/125
f 118/10/127 113/44/127 99/45/128 101/14/128
f 117/9/129 122/41/129 113/44/127 118/10/127
f 119/43/130 121/42/130 120/3/130
f 116/1/131 110/40/131 119/43/132 120/3/132
f 115/7/133 111/39/133 110/40/131 116/1/131
f 114/4/134 112/37/134 111/39/133 115/7/133
f 120/3/135 121/42/135 122/41/129 117/9/129
f 129/7/136 15/2/137 114/4/138
f 128/1/139 15/2/137 129/7/136
f 133/3/140 15/2/137 128/1/139
f 127/9/141 15/2/142 133/3/143
f 126/10/144 15/2/144 127/9/145
f 5/14/146 15/2/144 126/10/144
f 129/7/147 125/36/147 112/37/148 114/4/148
f 132/38/130 131/35/130 133/3/130
f 128/1/149 130/34/149 125/36/147 129/7/147
f 127/9/141 123/33/150 132/38/151 133/3/143
f 126/10/152 124/32/152 123/33/150 127/9/141
f 5/14/153 9/17/153 124/32/152 126/10/152
f 133/3/154 131/35/154 130/34/149 128/1/149

